%TF.GenerationSoftware,KiCad,Pcbnew,6.0.11+dfsg-1~bpo11+1*%
%TF.CreationDate,2023-04-14T01:15:38+00:00*%
%TF.ProjectId,I2CADC01,49324341-4443-4303-912e-6b696361645f,rev?*%
%TF.SameCoordinates,Original*%
%TF.FileFunction,Legend,Bot*%
%TF.FilePolarity,Positive*%
%FSLAX46Y46*%
G04 Gerber Fmt 4.6, Leading zero omitted, Abs format (unit mm)*
G04 Created by KiCad (PCBNEW 6.0.11+dfsg-1~bpo11+1) date 2023-04-14 01:15:38*
%MOMM*%
%LPD*%
G01*
G04 APERTURE LIST*
%ADD10C,0.109220*%
%ADD11C,0.304800*%
%ADD12C,0.099060*%
%ADD13C,0.150000*%
%ADD14C,0.119380*%
G04 APERTURE END LIST*
D10*
%TO.C,C1*%
X21927396Y16394792D02*
X21951224Y16370965D01*
X22022707Y16347137D01*
X22070362Y16347137D01*
X22141845Y16370965D01*
X22189500Y16418620D01*
X22213328Y16466275D01*
X22237155Y16561586D01*
X22237155Y16633069D01*
X22213328Y16728379D01*
X22189500Y16776034D01*
X22141845Y16823690D01*
X22070362Y16847517D01*
X22022707Y16847517D01*
X21951224Y16823690D01*
X21927396Y16799862D01*
X21450844Y16347137D02*
X21736775Y16347137D01*
X21593810Y16347137D02*
X21593810Y16847517D01*
X21641465Y16776034D01*
X21689120Y16728379D01*
X21736775Y16704551D01*
X22491397Y15648637D02*
X22777329Y15648637D01*
X22634363Y15648637D02*
X22634363Y16149017D01*
X22682018Y16077534D01*
X22729673Y16029879D01*
X22777329Y16006051D01*
X22181638Y16149017D02*
X22133983Y16149017D01*
X22086328Y16125190D01*
X22062500Y16101362D01*
X22038672Y16053707D01*
X22014845Y15958396D01*
X22014845Y15839258D01*
X22038672Y15743948D01*
X22062500Y15696292D01*
X22086328Y15672465D01*
X22133983Y15648637D01*
X22181638Y15648637D01*
X22229293Y15672465D01*
X22253121Y15696292D01*
X22276949Y15743948D01*
X22300776Y15839258D01*
X22300776Y15958396D01*
X22276949Y16053707D01*
X22253121Y16101362D01*
X22229293Y16125190D01*
X22181638Y16149017D01*
X21705086Y16149017D02*
X21657430Y16149017D01*
X21609775Y16125190D01*
X21585948Y16101362D01*
X21562120Y16053707D01*
X21538292Y15958396D01*
X21538292Y15839258D01*
X21562120Y15743948D01*
X21585948Y15696292D01*
X21609775Y15672465D01*
X21657430Y15648637D01*
X21705086Y15648637D01*
X21752741Y15672465D01*
X21776569Y15696292D01*
X21800396Y15743948D01*
X21824224Y15839258D01*
X21824224Y15958396D01*
X21800396Y16053707D01*
X21776569Y16101362D01*
X21752741Y16125190D01*
X21705086Y16149017D01*
X21323844Y15982224D02*
X21323844Y15648637D01*
X21323844Y15934569D02*
X21300016Y15958396D01*
X21252361Y15982224D01*
X21180878Y15982224D01*
X21133223Y15958396D01*
X21109395Y15910741D01*
X21109395Y15648637D01*
X20704326Y15910741D02*
X20871119Y15910741D01*
X20871119Y15648637D02*
X20871119Y16149017D01*
X20632843Y16149017D01*
%TO.C,C2*%
X9735396Y16394792D02*
X9759224Y16370965D01*
X9830707Y16347137D01*
X9878362Y16347137D01*
X9949845Y16370965D01*
X9997500Y16418620D01*
X10021328Y16466275D01*
X10045155Y16561586D01*
X10045155Y16633069D01*
X10021328Y16728379D01*
X9997500Y16776034D01*
X9949845Y16823690D01*
X9878362Y16847517D01*
X9830707Y16847517D01*
X9759224Y16823690D01*
X9735396Y16799862D01*
X9544775Y16799862D02*
X9520948Y16823690D01*
X9473292Y16847517D01*
X9354154Y16847517D01*
X9306499Y16823690D01*
X9282671Y16799862D01*
X9258844Y16752207D01*
X9258844Y16704551D01*
X9282671Y16633069D01*
X9568603Y16347137D01*
X9258844Y16347137D01*
X10299397Y15648637D02*
X10585329Y15648637D01*
X10442363Y15648637D02*
X10442363Y16149017D01*
X10490018Y16077534D01*
X10537673Y16029879D01*
X10585329Y16006051D01*
X9989638Y16149017D02*
X9941983Y16149017D01*
X9894328Y16125190D01*
X9870500Y16101362D01*
X9846672Y16053707D01*
X9822845Y15958396D01*
X9822845Y15839258D01*
X9846672Y15743948D01*
X9870500Y15696292D01*
X9894328Y15672465D01*
X9941983Y15648637D01*
X9989638Y15648637D01*
X10037293Y15672465D01*
X10061121Y15696292D01*
X10084949Y15743948D01*
X10108776Y15839258D01*
X10108776Y15958396D01*
X10084949Y16053707D01*
X10061121Y16101362D01*
X10037293Y16125190D01*
X9989638Y16149017D01*
X9513086Y16149017D02*
X9465430Y16149017D01*
X9417775Y16125190D01*
X9393948Y16101362D01*
X9370120Y16053707D01*
X9346292Y15958396D01*
X9346292Y15839258D01*
X9370120Y15743948D01*
X9393948Y15696292D01*
X9417775Y15672465D01*
X9465430Y15648637D01*
X9513086Y15648637D01*
X9560741Y15672465D01*
X9584569Y15696292D01*
X9608396Y15743948D01*
X9632224Y15839258D01*
X9632224Y15958396D01*
X9608396Y16053707D01*
X9584569Y16101362D01*
X9560741Y16125190D01*
X9513086Y16149017D01*
X9131844Y15982224D02*
X9131844Y15648637D01*
X9131844Y15934569D02*
X9108016Y15958396D01*
X9060361Y15982224D01*
X8988878Y15982224D01*
X8941223Y15958396D01*
X8917395Y15910741D01*
X8917395Y15648637D01*
X8512326Y15910741D02*
X8679119Y15910741D01*
X8679119Y15648637D02*
X8679119Y16149017D01*
X8440843Y16149017D01*
%TO.C,C3*%
X21451207Y24213396D02*
X21475034Y24237224D01*
X21498862Y24308707D01*
X21498862Y24356362D01*
X21475034Y24427845D01*
X21427379Y24475500D01*
X21379724Y24499328D01*
X21284413Y24523155D01*
X21212930Y24523155D01*
X21117620Y24499328D01*
X21069965Y24475500D01*
X21022310Y24427845D01*
X20998482Y24356362D01*
X20998482Y24308707D01*
X21022310Y24237224D01*
X21046137Y24213396D01*
X20998482Y24046603D02*
X20998482Y23736844D01*
X21189103Y23903637D01*
X21189103Y23832154D01*
X21212930Y23784499D01*
X21236758Y23760671D01*
X21284413Y23736844D01*
X21403551Y23736844D01*
X21451207Y23760671D01*
X21475034Y23784499D01*
X21498862Y23832154D01*
X21498862Y23975120D01*
X21475034Y24022775D01*
X21451207Y24046603D01*
X22197362Y24539121D02*
X22197362Y24825052D01*
X22197362Y24682087D02*
X21696982Y24682087D01*
X21768465Y24729742D01*
X21816120Y24777397D01*
X21839948Y24825052D01*
X21696982Y24229362D02*
X21696982Y24181707D01*
X21720810Y24134051D01*
X21744637Y24110224D01*
X21792292Y24086396D01*
X21887603Y24062569D01*
X22006741Y24062569D01*
X22102051Y24086396D01*
X22149707Y24110224D01*
X22173534Y24134051D01*
X22197362Y24181707D01*
X22197362Y24229362D01*
X22173534Y24277017D01*
X22149707Y24300845D01*
X22102051Y24324672D01*
X22006741Y24348500D01*
X21887603Y24348500D01*
X21792292Y24324672D01*
X21744637Y24300845D01*
X21720810Y24277017D01*
X21696982Y24229362D01*
X21863775Y23633671D02*
X22197362Y23633671D01*
X21863775Y23848120D02*
X22125879Y23848120D01*
X22173534Y23824292D01*
X22197362Y23776637D01*
X22197362Y23705154D01*
X22173534Y23657499D01*
X22149707Y23633671D01*
X21935258Y23228602D02*
X21935258Y23395395D01*
X22197362Y23395395D02*
X21696982Y23395395D01*
X21696982Y23157119D01*
%TO.C,C4*%
X18911207Y24213396D02*
X18935034Y24237224D01*
X18958862Y24308707D01*
X18958862Y24356362D01*
X18935034Y24427845D01*
X18887379Y24475500D01*
X18839724Y24499328D01*
X18744413Y24523155D01*
X18672930Y24523155D01*
X18577620Y24499328D01*
X18529965Y24475500D01*
X18482310Y24427845D01*
X18458482Y24356362D01*
X18458482Y24308707D01*
X18482310Y24237224D01*
X18506137Y24213396D01*
X18625275Y23784499D02*
X18958862Y23784499D01*
X18434654Y23903637D02*
X18792069Y24022775D01*
X18792069Y23713016D01*
X19657362Y24777397D02*
X19657362Y25063329D01*
X19657362Y24920363D02*
X19156982Y24920363D01*
X19228465Y24968018D01*
X19276120Y25015673D01*
X19299948Y25063329D01*
X19156982Y24467638D02*
X19156982Y24419983D01*
X19180810Y24372328D01*
X19204637Y24348500D01*
X19252292Y24324672D01*
X19347603Y24300845D01*
X19466741Y24300845D01*
X19562051Y24324672D01*
X19609707Y24348500D01*
X19633534Y24372328D01*
X19657362Y24419983D01*
X19657362Y24467638D01*
X19633534Y24515293D01*
X19609707Y24539121D01*
X19562051Y24562949D01*
X19466741Y24586776D01*
X19347603Y24586776D01*
X19252292Y24562949D01*
X19204637Y24539121D01*
X19180810Y24515293D01*
X19156982Y24467638D01*
X19156982Y23991086D02*
X19156982Y23943430D01*
X19180810Y23895775D01*
X19204637Y23871948D01*
X19252292Y23848120D01*
X19347603Y23824292D01*
X19466741Y23824292D01*
X19562051Y23848120D01*
X19609707Y23871948D01*
X19633534Y23895775D01*
X19657362Y23943430D01*
X19657362Y23991086D01*
X19633534Y24038741D01*
X19609707Y24062569D01*
X19562051Y24086396D01*
X19466741Y24110224D01*
X19347603Y24110224D01*
X19252292Y24086396D01*
X19204637Y24062569D01*
X19180810Y24038741D01*
X19156982Y23991086D01*
X19323775Y23609844D02*
X19657362Y23609844D01*
X19371430Y23609844D02*
X19347603Y23586016D01*
X19323775Y23538361D01*
X19323775Y23466878D01*
X19347603Y23419223D01*
X19395258Y23395395D01*
X19657362Y23395395D01*
X19395258Y22990326D02*
X19395258Y23157119D01*
X19657362Y23157119D02*
X19156982Y23157119D01*
X19156982Y22918843D01*
D11*
%TO.C,D1*%
X9125857Y19948071D02*
X9125857Y21472071D01*
X8763000Y21472071D01*
X8545285Y21399500D01*
X8400142Y21254357D01*
X8327571Y21109214D01*
X8255000Y20818928D01*
X8255000Y20601214D01*
X8327571Y20310928D01*
X8400142Y20165785D01*
X8545285Y20020642D01*
X8763000Y19948071D01*
X9125857Y19948071D01*
X6803571Y19948071D02*
X7674428Y19948071D01*
X7239000Y19948071D02*
X7239000Y21472071D01*
X7384142Y21254357D01*
X7529285Y21109214D01*
X7674428Y21036642D01*
D12*
X11546598Y18890403D02*
X11308321Y18890403D01*
X11594253Y18747437D02*
X11427460Y19247817D01*
X11260666Y18747437D01*
X5259311Y18648377D02*
X5259311Y19148757D01*
X4973380Y18648377D02*
X5187829Y18934309D01*
X4973380Y19148757D02*
X5259311Y18862826D01*
D11*
%TO.C,D2*%
X16872857Y20392571D02*
X16872857Y21916571D01*
X16510000Y21916571D01*
X16292285Y21844000D01*
X16147142Y21698857D01*
X16074571Y21553714D01*
X16002000Y21263428D01*
X16002000Y21045714D01*
X16074571Y20755428D01*
X16147142Y20610285D01*
X16292285Y20465142D01*
X16510000Y20392571D01*
X16872857Y20392571D01*
X15421428Y21771428D02*
X15348857Y21844000D01*
X15203714Y21916571D01*
X14840857Y21916571D01*
X14695714Y21844000D01*
X14623142Y21771428D01*
X14550571Y21626285D01*
X14550571Y21481142D01*
X14623142Y21263428D01*
X15494000Y20392571D01*
X14550571Y20392571D01*
D12*
X14078191Y16766237D02*
X14078191Y17266617D01*
X13792260Y16766237D02*
X14006709Y17052169D01*
X13792260Y17266617D02*
X14078191Y16980686D01*
X17667998Y16909203D02*
X17429721Y16909203D01*
X17715653Y16766237D02*
X17548860Y17266617D01*
X17382066Y16766237D01*
D11*
%TO.C,D3*%
X16872857Y18106571D02*
X16872857Y19630571D01*
X16510000Y19630571D01*
X16292285Y19558000D01*
X16147142Y19412857D01*
X16074571Y19267714D01*
X16002000Y18977428D01*
X16002000Y18759714D01*
X16074571Y18469428D01*
X16147142Y18324285D01*
X16292285Y18179142D01*
X16510000Y18106571D01*
X16872857Y18106571D01*
X15494000Y19630571D02*
X14550571Y19630571D01*
X15058571Y19050000D01*
X14840857Y19050000D01*
X14695714Y18977428D01*
X14623142Y18904857D01*
X14550571Y18759714D01*
X14550571Y18396857D01*
X14623142Y18251714D01*
X14695714Y18179142D01*
X14840857Y18106571D01*
X15276285Y18106571D01*
X15421428Y18179142D01*
X15494000Y18251714D01*
D12*
X17679911Y22659037D02*
X17679911Y23159417D01*
X17393980Y22659037D02*
X17608429Y22944969D01*
X17393980Y23159417D02*
X17679911Y22873486D01*
X14066278Y22802003D02*
X13828001Y22802003D01*
X14113933Y22659037D02*
X13947140Y23159417D01*
X13780346Y22659037D01*
D10*
%TO.C,R1*%
X18196862Y15323396D02*
X17958586Y15490190D01*
X18196862Y15609328D02*
X17696482Y15609328D01*
X17696482Y15418707D01*
X17720310Y15371051D01*
X17744137Y15347224D01*
X17791792Y15323396D01*
X17863275Y15323396D01*
X17910930Y15347224D01*
X17934758Y15371051D01*
X17958586Y15418707D01*
X17958586Y15609328D01*
X18196862Y14846844D02*
X18196862Y15132775D01*
X18196862Y14989810D02*
X17696482Y14989810D01*
X17767965Y15037465D01*
X17815620Y15085120D01*
X17839448Y15132775D01*
X18895362Y15410845D02*
X18895362Y15696776D01*
X18895362Y15553810D02*
X18394982Y15553810D01*
X18466465Y15601466D01*
X18514120Y15649121D01*
X18537948Y15696776D01*
X18394982Y15101086D02*
X18394982Y15053430D01*
X18418810Y15005775D01*
X18442637Y14981948D01*
X18490292Y14958120D01*
X18585603Y14934292D01*
X18704741Y14934292D01*
X18800051Y14958120D01*
X18847707Y14981948D01*
X18871534Y15005775D01*
X18895362Y15053430D01*
X18895362Y15101086D01*
X18871534Y15148741D01*
X18847707Y15172569D01*
X18800051Y15196396D01*
X18704741Y15220224D01*
X18585603Y15220224D01*
X18490292Y15196396D01*
X18442637Y15172569D01*
X18418810Y15148741D01*
X18394982Y15101086D01*
X18895362Y14719844D02*
X18394982Y14719844D01*
X18704741Y14672189D02*
X18895362Y14529223D01*
X18561775Y14529223D02*
X18752396Y14719844D01*
%TO.C,R2*%
X13116862Y15323396D02*
X12878586Y15490190D01*
X13116862Y15609328D02*
X12616482Y15609328D01*
X12616482Y15418707D01*
X12640310Y15371051D01*
X12664137Y15347224D01*
X12711792Y15323396D01*
X12783275Y15323396D01*
X12830930Y15347224D01*
X12854758Y15371051D01*
X12878586Y15418707D01*
X12878586Y15609328D01*
X12664137Y15132775D02*
X12640310Y15108948D01*
X12616482Y15061292D01*
X12616482Y14942154D01*
X12640310Y14894499D01*
X12664137Y14870671D01*
X12711792Y14846844D01*
X12759448Y14846844D01*
X12830930Y14870671D01*
X13116862Y15156603D01*
X13116862Y14846844D01*
X13815362Y15410845D02*
X13815362Y15696776D01*
X13815362Y15553810D02*
X13314982Y15553810D01*
X13386465Y15601466D01*
X13434120Y15649121D01*
X13457948Y15696776D01*
X13314982Y15101086D02*
X13314982Y15053430D01*
X13338810Y15005775D01*
X13362637Y14981948D01*
X13410292Y14958120D01*
X13505603Y14934292D01*
X13624741Y14934292D01*
X13720051Y14958120D01*
X13767707Y14981948D01*
X13791534Y15005775D01*
X13815362Y15053430D01*
X13815362Y15101086D01*
X13791534Y15148741D01*
X13767707Y15172569D01*
X13720051Y15196396D01*
X13624741Y15220224D01*
X13505603Y15220224D01*
X13410292Y15196396D01*
X13362637Y15172569D01*
X13338810Y15148741D01*
X13314982Y15101086D01*
X13815362Y14719844D02*
X13314982Y14719844D01*
X13624741Y14672189D02*
X13815362Y14529223D01*
X13481775Y14529223D02*
X13672396Y14719844D01*
%TO.C,R3*%
X6512862Y24467396D02*
X6274586Y24634190D01*
X6512862Y24753328D02*
X6012482Y24753328D01*
X6012482Y24562707D01*
X6036310Y24515051D01*
X6060137Y24491224D01*
X6107792Y24467396D01*
X6179275Y24467396D01*
X6226930Y24491224D01*
X6250758Y24515051D01*
X6274586Y24562707D01*
X6274586Y24753328D01*
X6012482Y24300603D02*
X6012482Y23990844D01*
X6203103Y24157637D01*
X6203103Y24086154D01*
X6226930Y24038499D01*
X6250758Y24014671D01*
X6298413Y23990844D01*
X6417551Y23990844D01*
X6465207Y24014671D01*
X6489034Y24038499D01*
X6512862Y24086154D01*
X6512862Y24229120D01*
X6489034Y24276775D01*
X6465207Y24300603D01*
X6710982Y24912259D02*
X6710982Y24602500D01*
X6901603Y24769293D01*
X6901603Y24697810D01*
X6925430Y24650155D01*
X6949258Y24626328D01*
X6996913Y24602500D01*
X7116051Y24602500D01*
X7163707Y24626328D01*
X7187534Y24650155D01*
X7211362Y24697810D01*
X7211362Y24840776D01*
X7187534Y24888431D01*
X7163707Y24912259D01*
X7211362Y24388051D02*
X6710982Y24388051D01*
X7211362Y24102120D02*
X6925430Y24316569D01*
X6710982Y24102120D02*
X6996913Y24388051D01*
X6710982Y23935327D02*
X6710982Y23625568D01*
X6901603Y23792361D01*
X6901603Y23720878D01*
X6925430Y23673223D01*
X6949258Y23649395D01*
X6996913Y23625568D01*
X7116051Y23625568D01*
X7163707Y23649395D01*
X7187534Y23673223D01*
X7211362Y23720878D01*
X7211362Y23863844D01*
X7187534Y23911499D01*
X7163707Y23935327D01*
%TO.C,R4*%
X16847396Y31079137D02*
X17014190Y31317413D01*
X17133328Y31079137D02*
X17133328Y31579517D01*
X16942707Y31579517D01*
X16895051Y31555690D01*
X16871224Y31531862D01*
X16847396Y31484207D01*
X16847396Y31412724D01*
X16871224Y31365069D01*
X16895051Y31341241D01*
X16942707Y31317413D01*
X17133328Y31317413D01*
X16418499Y31412724D02*
X16418499Y31079137D01*
X16537637Y31603345D02*
X16656775Y31245930D01*
X16347016Y31245930D01*
X16934845Y30380637D02*
X17220776Y30380637D01*
X17077810Y30380637D02*
X17077810Y30881017D01*
X17125466Y30809534D01*
X17173121Y30761879D01*
X17220776Y30738051D01*
X16625086Y30881017D02*
X16577430Y30881017D01*
X16529775Y30857190D01*
X16505948Y30833362D01*
X16482120Y30785707D01*
X16458292Y30690396D01*
X16458292Y30571258D01*
X16482120Y30475948D01*
X16505948Y30428292D01*
X16529775Y30404465D01*
X16577430Y30380637D01*
X16625086Y30380637D01*
X16672741Y30404465D01*
X16696569Y30428292D01*
X16720396Y30475948D01*
X16744224Y30571258D01*
X16744224Y30690396D01*
X16720396Y30785707D01*
X16696569Y30833362D01*
X16672741Y30857190D01*
X16625086Y30881017D01*
X16243844Y30380637D02*
X16243844Y30881017D01*
X16196189Y30571258D02*
X16053223Y30380637D01*
X16053223Y30714224D02*
X16243844Y30523603D01*
%TO.C,R5*%
X13354896Y30444137D02*
X13521690Y30682413D01*
X13640828Y30444137D02*
X13640828Y30944517D01*
X13450207Y30944517D01*
X13402551Y30920690D01*
X13378724Y30896862D01*
X13354896Y30849207D01*
X13354896Y30777724D01*
X13378724Y30730069D01*
X13402551Y30706241D01*
X13450207Y30682413D01*
X13640828Y30682413D01*
X12902171Y30944517D02*
X13140448Y30944517D01*
X13164275Y30706241D01*
X13140448Y30730069D01*
X13092792Y30753896D01*
X12973654Y30753896D01*
X12925999Y30730069D01*
X12902171Y30706241D01*
X12878344Y30658586D01*
X12878344Y30539448D01*
X12902171Y30491792D01*
X12925999Y30467965D01*
X12973654Y30444137D01*
X13092792Y30444137D01*
X13140448Y30467965D01*
X13164275Y30491792D01*
X13696345Y31142637D02*
X13982276Y31142637D01*
X13839310Y31142637D02*
X13839310Y31643017D01*
X13886966Y31571534D01*
X13934621Y31523879D01*
X13982276Y31500051D01*
X13386586Y31643017D02*
X13338930Y31643017D01*
X13291275Y31619190D01*
X13267448Y31595362D01*
X13243620Y31547707D01*
X13219792Y31452396D01*
X13219792Y31333258D01*
X13243620Y31237948D01*
X13267448Y31190292D01*
X13291275Y31166465D01*
X13338930Y31142637D01*
X13386586Y31142637D01*
X13434241Y31166465D01*
X13458069Y31190292D01*
X13481896Y31237948D01*
X13505724Y31333258D01*
X13505724Y31452396D01*
X13481896Y31547707D01*
X13458069Y31595362D01*
X13434241Y31619190D01*
X13386586Y31643017D01*
X13005344Y31142637D02*
X13005344Y31643017D01*
X12957689Y31333258D02*
X12814723Y31142637D01*
X12814723Y31476224D02*
X13005344Y31285603D01*
D13*
%TO.C,U1*%
X14946380Y26923904D02*
X15755904Y26923904D01*
X15851142Y26876285D01*
X15898761Y26828666D01*
X15946380Y26733428D01*
X15946380Y26542952D01*
X15898761Y26447714D01*
X15851142Y26400095D01*
X15755904Y26352476D01*
X14946380Y26352476D01*
X15946380Y25352476D02*
X15946380Y25923904D01*
X15946380Y25638190D02*
X14946380Y25638190D01*
X15089238Y25733428D01*
X15184476Y25828666D01*
X15232095Y25923904D01*
D14*
%TO.C,D4*%
X8154488Y30610265D02*
X8154488Y31372265D01*
X7973060Y31372265D01*
X7864202Y31335980D01*
X7791631Y31263408D01*
X7755345Y31190837D01*
X7719060Y31045694D01*
X7719060Y30936837D01*
X7755345Y30791694D01*
X7791631Y30719122D01*
X7864202Y30646551D01*
X7973060Y30610265D01*
X8154488Y30610265D01*
X7065917Y31118265D02*
X7065917Y30610265D01*
X7247345Y31408551D02*
X7428774Y30864265D01*
X6957060Y30864265D01*
D10*
%TO.C,L1*%
X3591862Y21165396D02*
X3591862Y21403672D01*
X3091482Y21403672D01*
X3591862Y20736499D02*
X3591862Y21022430D01*
X3591862Y20879465D02*
X3091482Y20879465D01*
X3162965Y20927120D01*
X3210620Y20974775D01*
X3234448Y21022430D01*
%TO.C,C5*%
X5036396Y18045792D02*
X5060224Y18021965D01*
X5131707Y17998137D01*
X5179362Y17998137D01*
X5250845Y18021965D01*
X5298500Y18069620D01*
X5322328Y18117275D01*
X5346155Y18212586D01*
X5346155Y18284069D01*
X5322328Y18379379D01*
X5298500Y18427034D01*
X5250845Y18474690D01*
X5179362Y18498517D01*
X5131707Y18498517D01*
X5060224Y18474690D01*
X5036396Y18450862D01*
X4583671Y18498517D02*
X4821948Y18498517D01*
X4845775Y18260241D01*
X4821948Y18284069D01*
X4774292Y18307896D01*
X4655154Y18307896D01*
X4607499Y18284069D01*
X4583671Y18260241D01*
X4559844Y18212586D01*
X4559844Y18093448D01*
X4583671Y18045792D01*
X4607499Y18021965D01*
X4655154Y17998137D01*
X4774292Y17998137D01*
X4821948Y18021965D01*
X4845775Y18045792D01*
X5362121Y17299637D02*
X5648052Y17299637D01*
X5505087Y17299637D02*
X5505087Y17800017D01*
X5552742Y17728534D01*
X5600397Y17680879D01*
X5648052Y17657051D01*
X5052362Y17800017D02*
X5004707Y17800017D01*
X4957051Y17776190D01*
X4933224Y17752362D01*
X4909396Y17704707D01*
X4885569Y17609396D01*
X4885569Y17490258D01*
X4909396Y17394948D01*
X4933224Y17347292D01*
X4957051Y17323465D01*
X5004707Y17299637D01*
X5052362Y17299637D01*
X5100017Y17323465D01*
X5123845Y17347292D01*
X5147672Y17394948D01*
X5171500Y17490258D01*
X5171500Y17609396D01*
X5147672Y17704707D01*
X5123845Y17752362D01*
X5100017Y17776190D01*
X5052362Y17800017D01*
X4456671Y17633224D02*
X4456671Y17299637D01*
X4671120Y17633224D02*
X4671120Y17371120D01*
X4647292Y17323465D01*
X4599637Y17299637D01*
X4528154Y17299637D01*
X4480499Y17323465D01*
X4456671Y17347292D01*
X4051602Y17561741D02*
X4218395Y17561741D01*
X4218395Y17299637D02*
X4218395Y17800017D01*
X3980119Y17800017D01*
%TO.C,C6*%
X9608396Y23760792D02*
X9632224Y23736965D01*
X9703707Y23713137D01*
X9751362Y23713137D01*
X9822845Y23736965D01*
X9870500Y23784620D01*
X9894328Y23832275D01*
X9918155Y23927586D01*
X9918155Y23999069D01*
X9894328Y24094379D01*
X9870500Y24142034D01*
X9822845Y24189690D01*
X9751362Y24213517D01*
X9703707Y24213517D01*
X9632224Y24189690D01*
X9608396Y24165862D01*
X9179499Y24213517D02*
X9274810Y24213517D01*
X9322465Y24189690D01*
X9346292Y24165862D01*
X9393948Y24094379D01*
X9417775Y23999069D01*
X9417775Y23808448D01*
X9393948Y23760792D01*
X9370120Y23736965D01*
X9322465Y23713137D01*
X9227154Y23713137D01*
X9179499Y23736965D01*
X9155671Y23760792D01*
X9131844Y23808448D01*
X9131844Y23927586D01*
X9155671Y23975241D01*
X9179499Y23999069D01*
X9227154Y24022896D01*
X9322465Y24022896D01*
X9370120Y23999069D01*
X9393948Y23975241D01*
X9417775Y23927586D01*
X10172397Y23014637D02*
X10458329Y23014637D01*
X10315363Y23014637D02*
X10315363Y23515017D01*
X10363018Y23443534D01*
X10410673Y23395879D01*
X10458329Y23372051D01*
X9862638Y23515017D02*
X9814983Y23515017D01*
X9767328Y23491190D01*
X9743500Y23467362D01*
X9719672Y23419707D01*
X9695845Y23324396D01*
X9695845Y23205258D01*
X9719672Y23109948D01*
X9743500Y23062292D01*
X9767328Y23038465D01*
X9814983Y23014637D01*
X9862638Y23014637D01*
X9910293Y23038465D01*
X9934121Y23062292D01*
X9957949Y23109948D01*
X9981776Y23205258D01*
X9981776Y23324396D01*
X9957949Y23419707D01*
X9934121Y23467362D01*
X9910293Y23491190D01*
X9862638Y23515017D01*
X9386086Y23515017D02*
X9338430Y23515017D01*
X9290775Y23491190D01*
X9266948Y23467362D01*
X9243120Y23419707D01*
X9219292Y23324396D01*
X9219292Y23205258D01*
X9243120Y23109948D01*
X9266948Y23062292D01*
X9290775Y23038465D01*
X9338430Y23014637D01*
X9386086Y23014637D01*
X9433741Y23038465D01*
X9457569Y23062292D01*
X9481396Y23109948D01*
X9505224Y23205258D01*
X9505224Y23324396D01*
X9481396Y23419707D01*
X9457569Y23467362D01*
X9433741Y23491190D01*
X9386086Y23515017D01*
X9004844Y23348224D02*
X9004844Y23014637D01*
X9004844Y23300569D02*
X8981016Y23324396D01*
X8933361Y23348224D01*
X8861878Y23348224D01*
X8814223Y23324396D01*
X8790395Y23276741D01*
X8790395Y23014637D01*
X8385326Y23276741D02*
X8552119Y23276741D01*
X8552119Y23014637D02*
X8552119Y23515017D01*
X8313843Y23515017D01*
%TO.C,C7*%
X9894207Y10243396D02*
X9918034Y10267224D01*
X9941862Y10338707D01*
X9941862Y10386362D01*
X9918034Y10457845D01*
X9870379Y10505500D01*
X9822724Y10529328D01*
X9727413Y10553155D01*
X9655930Y10553155D01*
X9560620Y10529328D01*
X9512965Y10505500D01*
X9465310Y10457845D01*
X9441482Y10386362D01*
X9441482Y10338707D01*
X9465310Y10267224D01*
X9489137Y10243396D01*
X9441482Y10076603D02*
X9441482Y9743016D01*
X9941862Y9957465D01*
X9243362Y11061397D02*
X9243362Y11347329D01*
X9243362Y11204363D02*
X8742982Y11204363D01*
X8814465Y11252018D01*
X8862120Y11299673D01*
X8885948Y11347329D01*
X8742982Y10751638D02*
X8742982Y10703983D01*
X8766810Y10656328D01*
X8790637Y10632500D01*
X8838292Y10608672D01*
X8933603Y10584845D01*
X9052741Y10584845D01*
X9148051Y10608672D01*
X9195707Y10632500D01*
X9219534Y10656328D01*
X9243362Y10703983D01*
X9243362Y10751638D01*
X9219534Y10799293D01*
X9195707Y10823121D01*
X9148051Y10846949D01*
X9052741Y10870776D01*
X8933603Y10870776D01*
X8838292Y10846949D01*
X8790637Y10823121D01*
X8766810Y10799293D01*
X8742982Y10751638D01*
X8742982Y10275086D02*
X8742982Y10227430D01*
X8766810Y10179775D01*
X8790637Y10155948D01*
X8838292Y10132120D01*
X8933603Y10108292D01*
X9052741Y10108292D01*
X9148051Y10132120D01*
X9195707Y10155948D01*
X9219534Y10179775D01*
X9243362Y10227430D01*
X9243362Y10275086D01*
X9219534Y10322741D01*
X9195707Y10346569D01*
X9148051Y10370396D01*
X9052741Y10394224D01*
X8933603Y10394224D01*
X8838292Y10370396D01*
X8790637Y10346569D01*
X8766810Y10322741D01*
X8742982Y10275086D01*
X8909775Y9893844D02*
X9243362Y9893844D01*
X8957430Y9893844D02*
X8933603Y9870016D01*
X8909775Y9822361D01*
X8909775Y9750878D01*
X8933603Y9703223D01*
X8981258Y9679395D01*
X9243362Y9679395D01*
X8981258Y9274326D02*
X8981258Y9441119D01*
X9243362Y9441119D02*
X8742982Y9441119D01*
X8742982Y9202843D01*
%TO.C,C8*%
X9894207Y26626396D02*
X9918034Y26650224D01*
X9941862Y26721707D01*
X9941862Y26769362D01*
X9918034Y26840845D01*
X9870379Y26888500D01*
X9822724Y26912328D01*
X9727413Y26936155D01*
X9655930Y26936155D01*
X9560620Y26912328D01*
X9512965Y26888500D01*
X9465310Y26840845D01*
X9441482Y26769362D01*
X9441482Y26721707D01*
X9465310Y26650224D01*
X9489137Y26626396D01*
X9655930Y26340465D02*
X9632103Y26388120D01*
X9608275Y26411948D01*
X9560620Y26435775D01*
X9536792Y26435775D01*
X9489137Y26411948D01*
X9465310Y26388120D01*
X9441482Y26340465D01*
X9441482Y26245154D01*
X9465310Y26197499D01*
X9489137Y26173671D01*
X9536792Y26149844D01*
X9560620Y26149844D01*
X9608275Y26173671D01*
X9632103Y26197499D01*
X9655930Y26245154D01*
X9655930Y26340465D01*
X9679758Y26388120D01*
X9703586Y26411948D01*
X9751241Y26435775D01*
X9846551Y26435775D01*
X9894207Y26411948D01*
X9918034Y26388120D01*
X9941862Y26340465D01*
X9941862Y26245154D01*
X9918034Y26197499D01*
X9894207Y26173671D01*
X9846551Y26149844D01*
X9751241Y26149844D01*
X9703586Y26173671D01*
X9679758Y26197499D01*
X9655930Y26245154D01*
X8790637Y27492052D02*
X8766810Y27468225D01*
X8742982Y27420570D01*
X8742982Y27301431D01*
X8766810Y27253776D01*
X8790637Y27229949D01*
X8838292Y27206121D01*
X8885948Y27206121D01*
X8957430Y27229949D01*
X9243362Y27515880D01*
X9243362Y27206121D01*
X8790637Y27015500D02*
X8766810Y26991672D01*
X8742982Y26944017D01*
X8742982Y26824879D01*
X8766810Y26777224D01*
X8790637Y26753396D01*
X8838292Y26729569D01*
X8885948Y26729569D01*
X8957430Y26753396D01*
X9243362Y27039328D01*
X9243362Y26729569D01*
X8909775Y26515120D02*
X9243362Y26515120D01*
X8957430Y26515120D02*
X8933603Y26491292D01*
X8909775Y26443637D01*
X8909775Y26372154D01*
X8933603Y26324499D01*
X8981258Y26300671D01*
X9243362Y26300671D01*
X8981258Y25895602D02*
X8981258Y26062395D01*
X9243362Y26062395D02*
X8742982Y26062395D01*
X8742982Y25824119D01*
%TO.C,R6*%
X9735396Y13426137D02*
X9902190Y13664413D01*
X10021328Y13426137D02*
X10021328Y13926517D01*
X9830707Y13926517D01*
X9783051Y13902690D01*
X9759224Y13878862D01*
X9735396Y13831207D01*
X9735396Y13759724D01*
X9759224Y13712069D01*
X9783051Y13688241D01*
X9830707Y13664413D01*
X10021328Y13664413D01*
X9306499Y13926517D02*
X9401810Y13926517D01*
X9449465Y13902690D01*
X9473292Y13878862D01*
X9520948Y13807379D01*
X9544775Y13712069D01*
X9544775Y13521448D01*
X9520948Y13473792D01*
X9497120Y13449965D01*
X9449465Y13426137D01*
X9354154Y13426137D01*
X9306499Y13449965D01*
X9282671Y13473792D01*
X9258844Y13521448D01*
X9258844Y13640586D01*
X9282671Y13688241D01*
X9306499Y13712069D01*
X9354154Y13735896D01*
X9449465Y13735896D01*
X9497120Y13712069D01*
X9520948Y13688241D01*
X9544775Y13640586D01*
X10053017Y14625017D02*
X10005362Y14625017D01*
X9957707Y14601190D01*
X9933879Y14577362D01*
X9910051Y14529707D01*
X9886224Y14434396D01*
X9886224Y14315258D01*
X9910051Y14219948D01*
X9933879Y14172292D01*
X9957707Y14148465D01*
X10005362Y14124637D01*
X10053017Y14124637D01*
X10100672Y14148465D01*
X10124500Y14172292D01*
X10148328Y14219948D01*
X10172155Y14315258D01*
X10172155Y14434396D01*
X10148328Y14529707D01*
X10124500Y14577362D01*
X10100672Y14601190D01*
X10053017Y14625017D01*
X9385844Y14124637D02*
X9552637Y14362913D01*
X9671775Y14124637D02*
X9671775Y14625017D01*
X9481154Y14625017D01*
X9433499Y14601190D01*
X9409671Y14577362D01*
X9385844Y14529707D01*
X9385844Y14458224D01*
X9409671Y14410569D01*
X9433499Y14386741D01*
X9481154Y14362913D01*
X9671775Y14362913D01*
D13*
%TO.C,C1*%
X21336000Y17018000D02*
X20320000Y17018000D01*
X23368000Y15494000D02*
X23368000Y17018000D01*
X20320000Y17018000D02*
X20320000Y15494000D01*
X23368000Y17018000D02*
X22352000Y17018000D01*
X22352000Y15494000D02*
X23368000Y15494000D01*
X20320000Y15494000D02*
X21336000Y15494000D01*
X23622000Y15494000D02*
G75*
G03*
X23622000Y15494000I-127000J0D01*
G01*
%TO.C,C2*%
X11176000Y15494000D02*
X11176000Y17018000D01*
X11176000Y17018000D02*
X10160000Y17018000D01*
X10160000Y15494000D02*
X11176000Y15494000D01*
X8128000Y17018000D02*
X8128000Y15494000D01*
X9144000Y17018000D02*
X8128000Y17018000D01*
X8128000Y15494000D02*
X9144000Y15494000D01*
X11430000Y15494000D02*
G75*
G03*
X11430000Y15494000I-127000J0D01*
G01*
%TO.C,C3*%
X20828000Y25654000D02*
X20828000Y24638000D01*
X22352000Y24638000D02*
X22352000Y25654000D01*
X20828000Y22606000D02*
X22352000Y22606000D01*
X20828000Y23622000D02*
X20828000Y22606000D01*
X22352000Y25654000D02*
X20828000Y25654000D01*
X22352000Y22606000D02*
X22352000Y23622000D01*
X22479000Y25781000D02*
G75*
G03*
X22479000Y25781000I-127000J0D01*
G01*
%TO.C,C4*%
X19812000Y25654000D02*
X18288000Y25654000D01*
X18288000Y23622000D02*
X18288000Y22606000D01*
X19812000Y24638000D02*
X19812000Y25654000D01*
X18288000Y25654000D02*
X18288000Y24638000D01*
X19812000Y22606000D02*
X19812000Y23622000D01*
X18288000Y22606000D02*
X19812000Y22606000D01*
X19939000Y25781000D02*
G75*
G03*
X19939000Y25781000I-127000J0D01*
G01*
%TO.C,D1*%
X10378440Y22324060D02*
X10378440Y21973540D01*
X6327140Y22324060D02*
X6327140Y21973540D01*
X6327140Y18823940D02*
X6327140Y19174460D01*
X5877560Y22324060D02*
X5877560Y21973540D01*
X10378440Y18823940D02*
X10378440Y19174460D01*
X10378440Y18823940D02*
X5877560Y18823940D01*
X10378440Y22324060D02*
X5877560Y22324060D01*
X5877560Y18823940D02*
X5877560Y19174460D01*
%TO.C,D2*%
X16098520Y19542760D02*
X16098520Y17541240D01*
X15097760Y18491200D02*
X16098520Y19542760D01*
X16098520Y17541240D02*
X15097760Y18542000D01*
X15097760Y19591020D02*
X15097760Y17492980D01*
%TO.C,D3*%
X15397480Y22336760D02*
X16398240Y21336000D01*
X15397480Y20335240D02*
X15397480Y22336760D01*
X16398240Y21386800D02*
X15397480Y20335240D01*
X16398240Y20286980D02*
X16398240Y22385020D01*
%TO.C,R1*%
X17526000Y16764000D02*
X17526000Y15748000D01*
X17526000Y14732000D02*
X17526000Y13716000D01*
X19050000Y15748000D02*
X19050000Y16764000D01*
X17526000Y13716000D02*
X19050000Y13716000D01*
X19050000Y16764000D02*
X17526000Y16764000D01*
X19050000Y13716000D02*
X19050000Y14732000D01*
X19177000Y16891000D02*
G75*
G03*
X19177000Y16891000I-127000J0D01*
G01*
%TO.C,R2*%
X12446000Y13716000D02*
X13970000Y13716000D01*
X13970000Y16764000D02*
X12446000Y16764000D01*
X13970000Y13716000D02*
X13970000Y14732000D01*
X13970000Y15748000D02*
X13970000Y16764000D01*
X12446000Y16764000D02*
X12446000Y15748000D01*
X12446000Y14732000D02*
X12446000Y13716000D01*
X14097000Y16891000D02*
G75*
G03*
X14097000Y16891000I-127000J0D01*
G01*
%TO.C,R3*%
X5842000Y22860000D02*
X7366000Y22860000D01*
X7366000Y24892000D02*
X7366000Y25908000D01*
X5842000Y23876000D02*
X5842000Y22860000D01*
X5842000Y25908000D02*
X5842000Y24892000D01*
X7366000Y25908000D02*
X5842000Y25908000D01*
X7366000Y22860000D02*
X7366000Y23876000D01*
X7493000Y26035000D02*
G75*
G03*
X7493000Y26035000I-127000J0D01*
G01*
%TO.C,R4*%
X16256000Y31750000D02*
X15240000Y31750000D01*
X17272000Y30226000D02*
X18288000Y30226000D01*
X18288000Y31750000D02*
X17272000Y31750000D01*
X15240000Y30226000D02*
X16256000Y30226000D01*
X15240000Y31750000D02*
X15240000Y30226000D01*
X18288000Y30226000D02*
X18288000Y31750000D01*
X18542000Y30226000D02*
G75*
G03*
X18542000Y30226000I-127000J0D01*
G01*
%TO.C,R5*%
X11747500Y30226000D02*
X12763500Y30226000D01*
X11747500Y31750000D02*
X11747500Y30226000D01*
X14795500Y31750000D02*
X13779500Y31750000D01*
X14795500Y30226000D02*
X14795500Y31750000D01*
X12763500Y31750000D02*
X11747500Y31750000D01*
X13779500Y30226000D02*
X14795500Y30226000D01*
X11747500Y31750000D02*
G75*
G03*
X11747500Y31750000I-127000J0D01*
G01*
%TO.C,U1*%
X17080500Y24212000D02*
X17080500Y27387000D01*
X13780500Y24937000D02*
X13780500Y27387000D01*
%TO.C,D4*%
X8001000Y30226000D02*
X6985000Y30226000D01*
X8001000Y27622500D02*
X6985000Y27622500D01*
X8001000Y27622500D02*
X8001000Y30226000D01*
X6985000Y30226000D02*
X6985000Y27622500D01*
X7301550Y27779980D02*
G75*
G03*
X7301550Y27779980I-159070J0D01*
G01*
%TO.C,L1*%
X2286000Y22606000D02*
X2286000Y21590000D01*
X2286000Y19558000D02*
X3810000Y19558000D01*
X2286000Y20574000D02*
X2286000Y19558000D01*
X3810000Y21590000D02*
X3810000Y22606000D01*
X3810000Y19558000D02*
X3810000Y20574000D01*
X3810000Y22606000D02*
X2286000Y22606000D01*
X2413000Y19431000D02*
G75*
G03*
X2413000Y19431000I-127000J0D01*
G01*
%TO.C,C5*%
X3429000Y17145000D02*
X4445000Y17145000D01*
X4445000Y18669000D02*
X3429000Y18669000D01*
X6477000Y17145000D02*
X6477000Y18669000D01*
X5461000Y17145000D02*
X6477000Y17145000D01*
X3429000Y18669000D02*
X3429000Y17145000D01*
X6477000Y18669000D02*
X5461000Y18669000D01*
X6731000Y17145000D02*
G75*
G03*
X6731000Y17145000I-127000J0D01*
G01*
%TO.C,C6*%
X10033000Y22860000D02*
X11049000Y22860000D01*
X11049000Y22860000D02*
X11049000Y24384000D01*
X8001000Y22860000D02*
X9017000Y22860000D01*
X11049000Y24384000D02*
X10033000Y24384000D01*
X8001000Y24384000D02*
X8001000Y22860000D01*
X9017000Y24384000D02*
X8001000Y24384000D01*
X11303000Y22860000D02*
G75*
G03*
X11303000Y22860000I-127000J0D01*
G01*
%TO.C,C7*%
X8636000Y9652000D02*
X8636000Y8636000D01*
X10160000Y11684000D02*
X8636000Y11684000D01*
X8636000Y8636000D02*
X10160000Y8636000D01*
X8636000Y11684000D02*
X8636000Y10668000D01*
X10160000Y8636000D02*
X10160000Y9652000D01*
X10160000Y10668000D02*
X10160000Y11684000D01*
X8763000Y8509000D02*
G75*
G03*
X8763000Y8509000I-127000J0D01*
G01*
%TO.C,C8*%
X10160000Y27051000D02*
X10160000Y28067000D01*
X8636000Y26035000D02*
X8636000Y25019000D01*
X10160000Y28067000D02*
X8636000Y28067000D01*
X10160000Y25019000D02*
X10160000Y26035000D01*
X8636000Y25019000D02*
X10160000Y25019000D01*
X8636000Y28067000D02*
X8636000Y27051000D01*
X8763000Y24892000D02*
G75*
G03*
X8763000Y24892000I-127000J0D01*
G01*
%TO.C,R6*%
X11176000Y14732000D02*
X10160000Y14732000D01*
X10160000Y13208000D02*
X11176000Y13208000D01*
X11176000Y13208000D02*
X11176000Y14732000D01*
X9144000Y14732000D02*
X8128000Y14732000D01*
X8128000Y13208000D02*
X9144000Y13208000D01*
X8128000Y14732000D02*
X8128000Y13208000D01*
X8128000Y14732000D02*
G75*
G03*
X8128000Y14732000I-127000J0D01*
G01*
%TD*%
M02*
