  0
SECTION
  2
HEADER
  9
$ANGBASE
  50
0.0
  9
$ANGDIR
  70
1
  9
$MEASUREMENT
  70
0
  0
ENDSEC
  0
SECTION
  2
TABLES
  0
TABLE
  2
LTYPE
  70
4
  0
LTYPE
  5
40F
  2
CONTINUOUS
  70
0
  3
Solid line
  72
65
  73
0
  40
0.0
  0
LTYPE
  5
410
  2
DASHDOT
 70
0
  3
Dash Dot ____ _ ____ _
 72
65
 73
4
 40
2.0
 49
1.25
 49
-0.25
 49
0.25
 49
-0.25
  0
LTYPE
  5
411
  2
DASHED
 70
0
  3
Dashed __ __ __ __ __
 72
65
 73
2
 40
0.75
 49
0.5
 49
-0.25
  0
LTYPE
  5
43B
  2
DOTTED
 70
0
  3
Dotted .  .  .  .
 72
65
 73
2
 40
0.2
 49
0.0
 49
-0.2
  0
ENDTAB
  0
TABLE
  2
STYLE
  70
4
  0
STYLE
  2
KICAD
  70
0
  40
0
  41
1
  42
1
  50
0
  71
0
  3
isocp.shx
  0
STYLE
  2
KICADB
  70
0
  40
0
  41
1
  42
1
  50
0
  71
0
  3
isocp.shx
  0
STYLE
  2
KICADI
  70
0
  40
0
  41
1
  42
1
  50
15
  71
0
  3
isocp.shx
  0
STYLE
  2
KICADBI
  70
0
  40
0
  41
1
  42
1
  50
15
  71
0
  3
isocp.shx
  0
ENDTAB
  0
TABLE
  2
LAYER
  70
1
  0
LAYER
  2
BLACK
  70
0
  62
7
  6
CONTINUOUS
  0
ENDTAB
  0
ENDSEC
  0
SECTION
  2
ENTITIES
0
LINE
8
BLACK
6
CONTINUOUS
10
0.595
20
0.13815
11
0.445
21
0.13815
0
LINE
8
BLACK
6
CONTINUOUS
10
0.445
20
0.13815
11
0.445
21
0.28815
0
LINE
8
BLACK
6
CONTINUOUS
10
0.445
20
0.28815
11
0.595
21
0.28815
0
LINE
8
BLACK
6
CONTINUOUS
10
0.595
20
0.28815
11
0.595
21
0.13815
0
LINE
8
BLACK
6
CONTINUOUS
10
0.595
20
0.335
11
0.445
21
0.335
0
LINE
8
BLACK
6
CONTINUOUS
10
0.445
20
0.335
11
0.445
21
0.485
0
LINE
8
BLACK
6
CONTINUOUS
10
0.445
20
0.485
11
0.595
21
0.485
0
LINE
8
BLACK
6
CONTINUOUS
10
0.595
20
0.485
11
0.595
21
0.335
0
LINE
8
BLACK
6
CONTINUOUS
10
0.795
20
0.13815
11
0.645
21
0.13815
0
LINE
8
BLACK
6
CONTINUOUS
10
0.645
20
0.13815
11
0.645
21
0.28815
0
LINE
8
BLACK
6
CONTINUOUS
10
0.645
20
0.28815
11
0.795
21
0.28815
0
LINE
8
BLACK
6
CONTINUOUS
10
0.795
20
0.28815
11
0.795
21
0.13815
0
LINE
8
BLACK
6
CONTINUOUS
10
0.795
20
0.335
11
0.645
21
0.335
0
LINE
8
BLACK
6
CONTINUOUS
10
0.645
20
0.335
11
0.645
21
0.485
0
LINE
8
BLACK
6
CONTINUOUS
10
0.645
20
0.485
11
0.795
21
0.485
0
LINE
8
BLACK
6
CONTINUOUS
10
0.795
20
0.485
11
0.795
21
0.335
0
LINE
8
BLACK
6
CONTINUOUS
10
1.18573
20
1.58722
11
1.18756
21
1.58511
0
LINE
8
BLACK
6
CONTINUOUS
10
1.18756
20
1.58511
11
1.18801
21
1.58305
0
LINE
8
BLACK
6
CONTINUOUS
10
1.18801
20
1.58305
11
1.18801
21
0.0169488
0
LINE
8
BLACK
6
CONTINUOUS
10
1.18801
20
0.0169488
11
1.18722
21
0.0142669
0
LINE
8
BLACK
6
CONTINUOUS
10
1.18722
20
0.0142669
11
1.18511
21
0.0124365
0
LINE
8
BLACK
6
CONTINUOUS
10
1.18511
20
0.0124365
11
1.18305
21
0.0119882
0
LINE
8
BLACK
6
CONTINUOUS
10
1.18305
20
0.0119882
11
0.0169488
21
0.0119882
0
LINE
8
BLACK
6
CONTINUOUS
10
0.0169488
20
0.0119882
11
0.0142669
21
0.0127757
0
LINE
8
BLACK
6
CONTINUOUS
10
0.0142669
20
0.0127757
11
0.0124365
21
0.0148881
0
LINE
8
BLACK
6
CONTINUOUS
10
0.0124365
20
0.0148881
11
0.0119882
21
0.0169488
0
LINE
8
BLACK
6
CONTINUOUS
10
0.0119882
20
0.0169488
11
0.0119882
21
0.136234
0
LINE
8
BLACK
6
CONTINUOUS
10
0.0119882
20
0.136234
11
0.0119882
21
0.478085
0
LINE
8
BLACK
6
CONTINUOUS
10
0.0119882
20
0.478085
11
0.0119882
21
0.943085
0
LINE
8
BLACK
6
CONTINUOUS
10
0.0119882
20
0.943085
11
0.0119882
21
1.58305
0
LINE
8
BLACK
6
CONTINUOUS
10
0.0119882
20
1.58305
11
0.0127757
21
1.58573
0
LINE
8
BLACK
6
CONTINUOUS
10
0.0127757
20
1.58573
11
0.0148881
21
1.58756
0
LINE
8
BLACK
6
CONTINUOUS
10
0.0148881
20
1.58756
11
0.0169488
21
1.58801
0
LINE
8
BLACK
6
CONTINUOUS
10
0.0169488
20
1.58801
11
1.18305
21
1.58801
0
LINE
8
BLACK
6
CONTINUOUS
10
1.18305
20
1.58801
11
1.18573
21
1.58722
0
LINE
8
BLACK
6
CONTINUOUS
10
0.443085
20
0.50502
11
0.443085
21
0.50502
0
LINE
8
BLACK
6
CONTINUOUS
10
0.443085
20
0.50502
11
0.440701
21
0.504763
0
LINE
8
BLACK
6
CONTINUOUS
10
0.440701
20
0.504763
11
0.440701
21
0.504763
0
LINE
8
BLACK
6
CONTINUOUS
10
0.440701
20
0.504763
11
0.437633
21
0.503619
0
LINE
8
BLACK
6
CONTINUOUS
10
0.437633
20
0.503619
11
0.435307
21
0.502752
0
LINE
8
BLACK
6
CONTINUOUS
10
0.435307
20
0.502752
11
0.435307
21
0.502751
0
LINE
8
BLACK
6
CONTINUOUS
10
0.435307
20
0.502751
11
0.435307
21
0.502751
0
LINE
8
BLACK
6
CONTINUOUS
10
0.435307
20
0.502751
11
0.430698
21
0.499302
0
LINE
8
BLACK
6
CONTINUOUS
10
0.430698
20
0.499302
11
0.427249
21
0.494693
0
LINE
8
BLACK
6
CONTINUOUS
10
0.427249
20
0.494693
11
0.427248
21
0.494693
0
LINE
8
BLACK
6
CONTINUOUS
10
0.427248
20
0.494693
11
0.425237
21
0.489299
0
LINE
8
BLACK
6
CONTINUOUS
10
0.425237
20
0.489299
11
0.425237
21
0.489299
0
LINE
8
BLACK
6
CONTINUOUS
10
0.425237
20
0.489299
11
0.42498
21
0.486915
0
LINE
8
BLACK
6
CONTINUOUS
10
0.42498
20
0.486915
11
0.42498
21
0.333085
0
LINE
8
BLACK
6
CONTINUOUS
10
0.42498
20
0.333085
11
0.425237
21
0.330701
0
LINE
8
BLACK
6
CONTINUOUS
10
0.425237
20
0.330701
11
0.425237
21
0.330701
0
LINE
8
BLACK
6
CONTINUOUS
10
0.425237
20
0.330701
11
0.427248
21
0.325307
0
LINE
8
BLACK
6
CONTINUOUS
10
0.427248
20
0.325307
11
0.427249
21
0.325307
0
LINE
8
BLACK
6
CONTINUOUS
10
0.427249
20
0.325307
11
0.430698
21
0.320698
0
LINE
8
BLACK
6
CONTINUOUS
10
0.430698
20
0.320698
11
0.435307
21
0.317249
0
LINE
8
BLACK
6
CONTINUOUS
10
0.435307
20
0.317249
11
0.435307
21
0.317248
0
LINE
8
BLACK
6
CONTINUOUS
10
0.435307
20
0.317248
11
0.438057
21
0.316223
0
LINE
8
BLACK
6
CONTINUOUS
10
0.438057
20
0.316223
11
0.440295
21
0.314548
0
LINE
8
BLACK
6
CONTINUOUS
10
0.440295
20
0.314548
11
0.441272
21
0.311929
0
LINE
8
BLACK
6
CONTINUOUS
10
0.441272
20
0.311929
11
0.440677
21
0.309197
0
LINE
8
BLACK
6
CONTINUOUS
10
0.440677
20
0.309197
11
0.438701
21
0.307221
0
LINE
8
BLACK
6
CONTINUOUS
10
0.438701
20
0.307221
11
0.438057
21
0.306927
0
LINE
8
BLACK
6
CONTINUOUS
10
0.438057
20
0.306927
11
0.436601
21
0.306384
0
LINE
8
BLACK
6
CONTINUOUS
10
0.436601
20
0.306384
11
0.435307
21
0.305901
0
LINE
8
BLACK
6
CONTINUOUS
10
0.435307
20
0.305901
11
0.435307
21
0.305901
0
LINE
8
BLACK
6
CONTINUOUS
10
0.435307
20
0.305901
11
0.435307
21
0.305901
0
LINE
8
BLACK
6
CONTINUOUS
10
0.435307
20
0.305901
11
0.430698
21
0.302451
0
LINE
8
BLACK
6
CONTINUOUS
10
0.430698
20
0.302451
11
0.427249
21
0.297843
0
LINE
8
BLACK
6
CONTINUOUS
10
0.427249
20
0.297843
11
0.427248
21
0.297843
0
LINE
8
BLACK
6
CONTINUOUS
10
0.427248
20
0.297843
11
0.425237
21
0.292449
0
LINE
8
BLACK
6
CONTINUOUS
10
0.425237
20
0.292449
11
0.425237
21
0.292449
0
LINE
8
BLACK
6
CONTINUOUS
10
0.425237
20
0.292449
11
0.42498
21
0.290065
0
LINE
8
BLACK
6
CONTINUOUS
10
0.42498
20
0.290065
11
0.42498
21
0.136234
0
LINE
8
BLACK
6
CONTINUOUS
10
0.42498
20
0.136234
11
0.425237
21
0.133851
0
LINE
8
BLACK
6
CONTINUOUS
10
0.425237
20
0.133851
11
0.425237
21
0.13385
0
LINE
8
BLACK
6
CONTINUOUS
10
0.425237
20
0.13385
11
0.427248
21
0.128457
0
LINE
8
BLACK
6
CONTINUOUS
10
0.427248
20
0.128457
11
0.427249
21
0.128456
0
LINE
8
BLACK
6
CONTINUOUS
10
0.427249
20
0.128456
11
0.430698
21
0.123848
0
LINE
8
BLACK
6
CONTINUOUS
10
0.430698
20
0.123848
11
0.435307
21
0.120398
0
LINE
8
BLACK
6
CONTINUOUS
10
0.435307
20
0.120398
11
0.435307
21
0.120398
0
LINE
8
BLACK
6
CONTINUOUS
10
0.435307
20
0.120398
11
0.440701
21
0.118386
0
LINE
8
BLACK
6
CONTINUOUS
10
0.440701
20
0.118386
11
0.440701
21
0.118386
0
LINE
8
BLACK
6
CONTINUOUS
10
0.440701
20
0.118386
11
0.443085
21
0.11813
0
LINE
8
BLACK
6
CONTINUOUS
10
0.443085
20
0.11813
11
0.443085
21
0.11813
0
LINE
8
BLACK
6
CONTINUOUS
10
0.443085
20
0.11813
11
0.596915
21
0.11813
0
LINE
8
BLACK
6
CONTINUOUS
10
0.596915
20
0.11813
11
0.599299
21
0.118386
0
LINE
8
BLACK
6
CONTINUOUS
10
0.599299
20
0.118386
11
0.599299
21
0.118386
0
LINE
8
BLACK
6
CONTINUOUS
10
0.599299
20
0.118386
11
0.604693
21
0.120398
0
LINE
8
BLACK
6
CONTINUOUS
10
0.604693
20
0.120398
11
0.604693
21
0.120398
0
LINE
8
BLACK
6
CONTINUOUS
10
0.604693
20
0.120398
11
0.609302
21
0.123848
0
LINE
8
BLACK
6
CONTINUOUS
10
0.609302
20
0.123848
11
0.612751
21
0.128456
0
LINE
8
BLACK
6
CONTINUOUS
10
0.612751
20
0.128456
11
0.612752
21
0.128457
0
LINE
8
BLACK
6
CONTINUOUS
10
0.612752
20
0.128457
11
0.614763
21
0.13385
0
LINE
8
BLACK
6
CONTINUOUS
10
0.614763
20
0.13385
11
0.614763
21
0.133851
0
LINE
8
BLACK
6
CONTINUOUS
10
0.614763
20
0.133851
11
0.61502
21
0.136234
0
LINE
8
BLACK
6
CONTINUOUS
10
0.61502
20
0.136234
11
0.61502
21
0.136235
0
LINE
8
BLACK
6
CONTINUOUS
10
0.61502
20
0.136235
11
0.61502
21
0.290064
0
LINE
8
BLACK
6
CONTINUOUS
10
0.61502
20
0.290064
11
0.61502
21
0.290065
0
LINE
8
BLACK
6
CONTINUOUS
10
0.61502
20
0.290065
11
0.614763
21
0.292449
0
LINE
8
BLACK
6
CONTINUOUS
10
0.614763
20
0.292449
11
0.614763
21
0.292449
0
LINE
8
BLACK
6
CONTINUOUS
10
0.614763
20
0.292449
11
0.614487
21
0.293191
0
LINE
8
BLACK
6
CONTINUOUS
10
0.614487
20
0.293191
11
0.612752
21
0.297843
0
LINE
8
BLACK
6
CONTINUOUS
10
0.612752
20
0.297843
11
0.609302
21
0.302451
0
LINE
8
BLACK
6
CONTINUOUS
10
0.609302
20
0.302451
11
0.604693
21
0.305901
0
LINE
8
BLACK
6
CONTINUOUS
10
0.604693
20
0.305901
11
0.601943
21
0.306927
0
LINE
8
BLACK
6
CONTINUOUS
10
0.601943
20
0.306927
11
0.599705
21
0.308602
0
LINE
8
BLACK
6
CONTINUOUS
10
0.599705
20
0.308602
11
0.598728
21
0.311221
0
LINE
8
BLACK
6
CONTINUOUS
10
0.598728
20
0.311221
11
0.599323
21
0.313952
0
LINE
8
BLACK
6
CONTINUOUS
10
0.599323
20
0.313952
11
0.601299
21
0.315929
0
LINE
8
BLACK
6
CONTINUOUS
10
0.601299
20
0.315929
11
0.601942
21
0.316222
0
LINE
8
BLACK
6
CONTINUOUS
10
0.601942
20
0.316222
11
0.604693
21
0.317248
0
LINE
8
BLACK
6
CONTINUOUS
10
0.604693
20
0.317248
11
0.604693
21
0.317249
0
LINE
8
BLACK
6
CONTINUOUS
10
0.604693
20
0.317249
11
0.604693
21
0.317249
0
LINE
8
BLACK
6
CONTINUOUS
10
0.604693
20
0.317249
11
0.609302
21
0.320698
0
LINE
8
BLACK
6
CONTINUOUS
10
0.609302
20
0.320698
11
0.612751
21
0.325307
0
LINE
8
BLACK
6
CONTINUOUS
10
0.612751
20
0.325307
11
0.612752
21
0.325307
0
LINE
8
BLACK
6
CONTINUOUS
10
0.612752
20
0.325307
11
0.614763
21
0.330701
0
LINE
8
BLACK
6
CONTINUOUS
10
0.614763
20
0.330701
11
0.614763
21
0.330701
0
LINE
8
BLACK
6
CONTINUOUS
10
0.614763
20
0.330701
11
0.61502
21
0.333085
0
LINE
8
BLACK
6
CONTINUOUS
10
0.61502
20
0.333085
11
0.61502
21
0.333085
0
LINE
8
BLACK
6
CONTINUOUS
10
0.61502
20
0.333085
11
0.61502
21
0.486915
0
LINE
8
BLACK
6
CONTINUOUS
10
0.61502
20
0.486915
11
0.61502
21
0.486915
0
LINE
8
BLACK
6
CONTINUOUS
10
0.61502
20
0.486915
11
0.614763
21
0.489299
0
LINE
8
BLACK
6
CONTINUOUS
10
0.614763
20
0.489299
11
0.614763
21
0.489299
0
LINE
8
BLACK
6
CONTINUOUS
10
0.614763
20
0.489299
11
0.614487
21
0.490041
0
LINE
8
BLACK
6
CONTINUOUS
10
0.614487
20
0.490041
11
0.612752
21
0.494693
0
LINE
8
BLACK
6
CONTINUOUS
10
0.612752
20
0.494693
11
0.609302
21
0.499302
0
LINE
8
BLACK
6
CONTINUOUS
10
0.609302
20
0.499302
11
0.604693
21
0.502752
0
LINE
8
BLACK
6
CONTINUOUS
10
0.604693
20
0.502752
11
0.599299
21
0.504763
0
LINE
8
BLACK
6
CONTINUOUS
10
0.599299
20
0.504763
11
0.599299
21
0.504763
0
LINE
8
BLACK
6
CONTINUOUS
10
0.599299
20
0.504763
11
0.599299
21
0.504763
0
LINE
8
BLACK
6
CONTINUOUS
10
0.599299
20
0.504763
11
0.596915
21
0.50502
0
LINE
8
BLACK
6
CONTINUOUS
10
0.596915
20
0.50502
11
0.596915
21
0.50502
0
LINE
8
BLACK
6
CONTINUOUS
10
0.596915
20
0.50502
11
0.596915
21
0.50502
0
LINE
8
BLACK
6
CONTINUOUS
10
0.596915
20
0.50502
11
0.443085
21
0.50502
0
LINE
8
BLACK
6
CONTINUOUS
10
0.443085
20
0.50502
11
0.443085
21
0.50502
0
LINE
8
BLACK
6
CONTINUOUS
10
0.625237
20
0.133851
11
0.625237
21
0.13385
0
LINE
8
BLACK
6
CONTINUOUS
10
0.625237
20
0.13385
11
0.627248
21
0.128457
0
LINE
8
BLACK
6
CONTINUOUS
10
0.627248
20
0.128457
11
0.627249
21
0.128456
0
LINE
8
BLACK
6
CONTINUOUS
10
0.627249
20
0.128456
11
0.630698
21
0.123848
0
LINE
8
BLACK
6
CONTINUOUS
10
0.630698
20
0.123848
11
0.635307
21
0.120398
0
LINE
8
BLACK
6
CONTINUOUS
10
0.635307
20
0.120398
11
0.635307
21
0.120398
0
LINE
8
BLACK
6
CONTINUOUS
10
0.635307
20
0.120398
11
0.640701
21
0.118386
0
LINE
8
BLACK
6
CONTINUOUS
10
0.640701
20
0.118386
11
0.640701
21
0.118386
0
LINE
8
BLACK
6
CONTINUOUS
10
0.640701
20
0.118386
11
0.643085
21
0.11813
0
LINE
8
BLACK
6
CONTINUOUS
10
0.643085
20
0.11813
11
0.643085
21
0.11813
0
LINE
8
BLACK
6
CONTINUOUS
10
0.643085
20
0.11813
11
0.796915
21
0.11813
0
LINE
8
BLACK
6
CONTINUOUS
10
0.796915
20
0.11813
11
0.799299
21
0.118386
0
LINE
8
BLACK
6
CONTINUOUS
10
0.799299
20
0.118386
11
0.799299
21
0.118386
0
LINE
8
BLACK
6
CONTINUOUS
10
0.799299
20
0.118386
11
0.804693
21
0.120398
0
LINE
8
BLACK
6
CONTINUOUS
10
0.804693
20
0.120398
11
0.804693
21
0.120398
0
LINE
8
BLACK
6
CONTINUOUS
10
0.804693
20
0.120398
11
0.809302
21
0.123848
0
LINE
8
BLACK
6
CONTINUOUS
10
0.809302
20
0.123848
11
0.812751
21
0.128456
0
LINE
8
BLACK
6
CONTINUOUS
10
0.812751
20
0.128456
11
0.812752
21
0.128457
0
LINE
8
BLACK
6
CONTINUOUS
10
0.812752
20
0.128457
11
0.814763
21
0.13385
0
LINE
8
BLACK
6
CONTINUOUS
10
0.814763
20
0.13385
11
0.814763
21
0.133851
0
LINE
8
BLACK
6
CONTINUOUS
10
0.814763
20
0.133851
11
0.81502
21
0.136234
0
LINE
8
BLACK
6
CONTINUOUS
10
0.81502
20
0.136234
11
0.81502
21
0.136235
0
LINE
8
BLACK
6
CONTINUOUS
10
0.81502
20
0.136235
11
0.81502
21
0.290064
0
LINE
8
BLACK
6
CONTINUOUS
10
0.81502
20
0.290064
11
0.81502
21
0.290065
0
LINE
8
BLACK
6
CONTINUOUS
10
0.81502
20
0.290065
11
0.814763
21
0.292449
0
LINE
8
BLACK
6
CONTINUOUS
10
0.814763
20
0.292449
11
0.814763
21
0.292449
0
LINE
8
BLACK
6
CONTINUOUS
10
0.814763
20
0.292449
11
0.814487
21
0.293191
0
LINE
8
BLACK
6
CONTINUOUS
10
0.814487
20
0.293191
11
0.812752
21
0.297843
0
LINE
8
BLACK
6
CONTINUOUS
10
0.812752
20
0.297843
11
0.809302
21
0.302451
0
LINE
8
BLACK
6
CONTINUOUS
10
0.809302
20
0.302451
11
0.804693
21
0.305901
0
LINE
8
BLACK
6
CONTINUOUS
10
0.804693
20
0.305901
11
0.801943
21
0.306927
0
LINE
8
BLACK
6
CONTINUOUS
10
0.801943
20
0.306927
11
0.799705
21
0.308602
0
LINE
8
BLACK
6
CONTINUOUS
10
0.799705
20
0.308602
11
0.798728
21
0.311221
0
LINE
8
BLACK
6
CONTINUOUS
10
0.798728
20
0.311221
11
0.799323
21
0.313952
0
LINE
8
BLACK
6
CONTINUOUS
10
0.799323
20
0.313952
11
0.801299
21
0.315929
0
LINE
8
BLACK
6
CONTINUOUS
10
0.801299
20
0.315929
11
0.801942
21
0.316222
0
LINE
8
BLACK
6
CONTINUOUS
10
0.801942
20
0.316222
11
0.804693
21
0.317248
0
LINE
8
BLACK
6
CONTINUOUS
10
0.804693
20
0.317248
11
0.804693
21
0.317249
0
LINE
8
BLACK
6
CONTINUOUS
10
0.804693
20
0.317249
11
0.804693
21
0.317249
0
LINE
8
BLACK
6
CONTINUOUS
10
0.804693
20
0.317249
11
0.809302
21
0.320698
0
LINE
8
BLACK
6
CONTINUOUS
10
0.809302
20
0.320698
11
0.812751
21
0.325307
0
LINE
8
BLACK
6
CONTINUOUS
10
0.812751
20
0.325307
11
0.812752
21
0.325307
0
LINE
8
BLACK
6
CONTINUOUS
10
0.812752
20
0.325307
11
0.814763
21
0.330701
0
LINE
8
BLACK
6
CONTINUOUS
10
0.814763
20
0.330701
11
0.814763
21
0.330701
0
LINE
8
BLACK
6
CONTINUOUS
10
0.814763
20
0.330701
11
0.81502
21
0.333085
0
LINE
8
BLACK
6
CONTINUOUS
10
0.81502
20
0.333085
11
0.81502
21
0.333085
0
LINE
8
BLACK
6
CONTINUOUS
10
0.81502
20
0.333085
11
0.81502
21
0.486915
0
LINE
8
BLACK
6
CONTINUOUS
10
0.81502
20
0.486915
11
0.81502
21
0.486915
0
LINE
8
BLACK
6
CONTINUOUS
10
0.81502
20
0.486915
11
0.814763
21
0.489299
0
LINE
8
BLACK
6
CONTINUOUS
10
0.814763
20
0.489299
11
0.814763
21
0.489299
0
LINE
8
BLACK
6
CONTINUOUS
10
0.814763
20
0.489299
11
0.814487
21
0.490041
0
LINE
8
BLACK
6
CONTINUOUS
10
0.814487
20
0.490041
11
0.812752
21
0.494693
0
LINE
8
BLACK
6
CONTINUOUS
10
0.812752
20
0.494693
11
0.809302
21
0.499302
0
LINE
8
BLACK
6
CONTINUOUS
10
0.809302
20
0.499302
11
0.804693
21
0.502752
0
LINE
8
BLACK
6
CONTINUOUS
10
0.804693
20
0.502752
11
0.799299
21
0.504763
0
LINE
8
BLACK
6
CONTINUOUS
10
0.799299
20
0.504763
11
0.799299
21
0.504763
0
LINE
8
BLACK
6
CONTINUOUS
10
0.799299
20
0.504763
11
0.799299
21
0.504763
0
LINE
8
BLACK
6
CONTINUOUS
10
0.799299
20
0.504763
11
0.796915
21
0.50502
0
LINE
8
BLACK
6
CONTINUOUS
10
0.796915
20
0.50502
11
0.796915
21
0.50502
0
LINE
8
BLACK
6
CONTINUOUS
10
0.796915
20
0.50502
11
0.796915
21
0.50502
0
LINE
8
BLACK
6
CONTINUOUS
10
0.796915
20
0.50502
11
0.643085
21
0.50502
0
LINE
8
BLACK
6
CONTINUOUS
10
0.643085
20
0.50502
11
0.643085
21
0.50502
0
LINE
8
BLACK
6
CONTINUOUS
10
0.643085
20
0.50502
11
0.643085
21
0.50502
0
LINE
8
BLACK
6
CONTINUOUS
10
0.643085
20
0.50502
11
0.640701
21
0.504763
0
LINE
8
BLACK
6
CONTINUOUS
10
0.640701
20
0.504763
11
0.640701
21
0.504763
0
LINE
8
BLACK
6
CONTINUOUS
10
0.640701
20
0.504763
11
0.637633
21
0.503619
0
LINE
8
BLACK
6
CONTINUOUS
10
0.637633
20
0.503619
11
0.635307
21
0.502752
0
LINE
8
BLACK
6
CONTINUOUS
10
0.635307
20
0.502752
11
0.635307
21
0.502751
0
LINE
8
BLACK
6
CONTINUOUS
10
0.635307
20
0.502751
11
0.635307
21
0.502751
0
LINE
8
BLACK
6
CONTINUOUS
10
0.635307
20
0.502751
11
0.630698
21
0.499302
0
LINE
8
BLACK
6
CONTINUOUS
10
0.630698
20
0.499302
11
0.627249
21
0.494693
0
LINE
8
BLACK
6
CONTINUOUS
10
0.627249
20
0.494693
11
0.627248
21
0.494693
0
LINE
8
BLACK
6
CONTINUOUS
10
0.627248
20
0.494693
11
0.625237
21
0.489299
0
LINE
8
BLACK
6
CONTINUOUS
10
0.625237
20
0.489299
11
0.625237
21
0.489299
0
LINE
8
BLACK
6
CONTINUOUS
10
0.625237
20
0.489299
11
0.62498
21
0.486915
0
LINE
8
BLACK
6
CONTINUOUS
10
0.62498
20
0.486915
11
0.62498
21
0.333085
0
LINE
8
BLACK
6
CONTINUOUS
10
0.62498
20
0.333085
11
0.625237
21
0.330701
0
LINE
8
BLACK
6
CONTINUOUS
10
0.625237
20
0.330701
11
0.625237
21
0.330701
0
LINE
8
BLACK
6
CONTINUOUS
10
0.625237
20
0.330701
11
0.627248
21
0.325307
0
LINE
8
BLACK
6
CONTINUOUS
10
0.627248
20
0.325307
11
0.627249
21
0.325307
0
LINE
8
BLACK
6
CONTINUOUS
10
0.627249
20
0.325307
11
0.630698
21
0.320698
0
LINE
8
BLACK
6
CONTINUOUS
10
0.630698
20
0.320698
11
0.635307
21
0.317249
0
LINE
8
BLACK
6
CONTINUOUS
10
0.635307
20
0.317249
11
0.635307
21
0.317248
0
LINE
8
BLACK
6
CONTINUOUS
10
0.635307
20
0.317248
11
0.638057
21
0.316223
0
LINE
8
BLACK
6
CONTINUOUS
10
0.638057
20
0.316223
11
0.640295
21
0.314548
0
LINE
8
BLACK
6
CONTINUOUS
10
0.640295
20
0.314548
11
0.641272
21
0.311929
0
LINE
8
BLACK
6
CONTINUOUS
10
0.641272
20
0.311929
11
0.640677
21
0.309197
0
LINE
8
BLACK
6
CONTINUOUS
10
0.640677
20
0.309197
11
0.638701
21
0.307221
0
LINE
8
BLACK
6
CONTINUOUS
10
0.638701
20
0.307221
11
0.638057
21
0.306927
0
LINE
8
BLACK
6
CONTINUOUS
10
0.638057
20
0.306927
11
0.636601
21
0.306384
0
LINE
8
BLACK
6
CONTINUOUS
10
0.636601
20
0.306384
11
0.635307
21
0.305901
0
LINE
8
BLACK
6
CONTINUOUS
10
0.635307
20
0.305901
11
0.635307
21
0.305901
0
LINE
8
BLACK
6
CONTINUOUS
10
0.635307
20
0.305901
11
0.635307
21
0.305901
0
LINE
8
BLACK
6
CONTINUOUS
10
0.635307
20
0.305901
11
0.630698
21
0.302451
0
LINE
8
BLACK
6
CONTINUOUS
10
0.630698
20
0.302451
11
0.627249
21
0.297843
0
LINE
8
BLACK
6
CONTINUOUS
10
0.627249
20
0.297843
11
0.627248
21
0.297843
0
LINE
8
BLACK
6
CONTINUOUS
10
0.627248
20
0.297843
11
0.625237
21
0.292449
0
LINE
8
BLACK
6
CONTINUOUS
10
0.625237
20
0.292449
11
0.625237
21
0.292449
0
LINE
8
BLACK
6
CONTINUOUS
10
0.625237
20
0.292449
11
0.62498
21
0.290065
0
LINE
8
BLACK
6
CONTINUOUS
10
0.62498
20
0.290065
11
0.62498
21
0.136234
0
LINE
8
BLACK
6
CONTINUOUS
10
0.62498
20
0.136234
11
0.625237
21
0.133851
0
LINE
8
BLACK
6
CONTINUOUS
10
0.18
20
0.48
11
0.12
21
0.48
0
LINE
8
BLACK
6
CONTINUOUS
10
0.12
20
0.48
11
0.12
21
0.54
0
LINE
8
BLACK
6
CONTINUOUS
10
0.12
20
0.54
11
0.18
21
0.54
0
LINE
8
BLACK
6
CONTINUOUS
10
0.18
20
0.54
11
0.18
21
0.48
0
LINE
8
BLACK
6
CONTINUOUS
10
0.28
20
0.48
11
0.22
21
0.48
0
LINE
8
BLACK
6
CONTINUOUS
10
0.22
20
0.48
11
0.22
21
0.54
0
LINE
8
BLACK
6
CONTINUOUS
10
0.22
20
0.54
11
0.28
21
0.54
0
LINE
8
BLACK
6
CONTINUOUS
10
0.28
20
0.54
11
0.28
21
0.48
0
LINE
8
BLACK
6
CONTINUOUS
10
0.62727
20
0.928419
11
0.63146
21
0.925726
0
LINE
8
BLACK
6
CONTINUOUS
10
0.63146
20
0.925726
11
0.634722
21
0.921961
0
LINE
8
BLACK
6
CONTINUOUS
10
0.634722
20
0.921961
11
0.636346
21
0.918406
0
LINE
8
BLACK
6
CONTINUOUS
10
0.636346
20
0.918406
11
0.749311
21
0.918406
0
LINE
8
BLACK
6
CONTINUOUS
10
0.749311
20
0.918406
11
0.750062
21
0.918204
0
LINE
8
BLACK
6
CONTINUOUS
10
0.750062
20
0.918204
11
0.750839
21
0.918204
0
LINE
8
BLACK
6
CONTINUOUS
10
0.750839
20
0.918204
11
0.751513
21
0.917816
0
LINE
8
BLACK
6
CONTINUOUS
10
0.751513
20
0.917816
11
0.752264
21
0.917614
0
LINE
8
BLACK
6
CONTINUOUS
10
0.752264
20
0.917614
11
0.752814
21
0.917065
0
LINE
8
BLACK
6
CONTINUOUS
10
0.752814
20
0.917065
11
0.753487
21
0.916676
0
LINE
8
BLACK
6
CONTINUOUS
10
0.753487
20
0.916676
11
0.794176
21
0.875987
0
LINE
8
BLACK
6
CONTINUOUS
10
0.794176
20
0.875987
11
0.794565
21
0.875314
0
LINE
8
BLACK
6
CONTINUOUS
10
0.794565
20
0.875314
11
0.795114
21
0.874764
0
LINE
8
BLACK
6
CONTINUOUS
10
0.795114
20
0.874764
11
0.795316
21
0.874013
0
LINE
8
BLACK
6
CONTINUOUS
10
0.795316
20
0.874013
11
0.795704
21
0.873339
0
LINE
8
BLACK
6
CONTINUOUS
10
0.795704
20
0.873339
11
0.795704
21
0.872562
0
LINE
8
BLACK
6
CONTINUOUS
10
0.795704
20
0.872562
11
0.795906
21
0.871811
0
LINE
8
BLACK
6
CONTINUOUS
10
0.795906
20
0.871811
11
0.795906
21
0.86
0
LINE
8
BLACK
6
CONTINUOUS
10
0.795906
20
0.86
11
0.82
21
0.86
0
LINE
8
BLACK
6
CONTINUOUS
10
0.82
20
0.86
11
0.82
21
0.8
0
LINE
8
BLACK
6
CONTINUOUS
10
0.82
20
0.8
11
0.76
21
0.8
0
LINE
8
BLACK
6
CONTINUOUS
10
0.76
20
0.8
11
0.76
21
0.86
0
LINE
8
BLACK
6
CONTINUOUS
10
0.76
20
0.86
11
0.784094
21
0.86
0
LINE
8
BLACK
6
CONTINUOUS
10
0.784094
20
0.86
11
0.784094
21
0.869365
0
LINE
8
BLACK
6
CONTINUOUS
10
0.784094
20
0.869365
11
0.746865
21
0.906594
0
LINE
8
BLACK
6
CONTINUOUS
10
0.746865
20
0.906594
11
0.636346
21
0.906594
0
LINE
8
BLACK
6
CONTINUOUS
10
0.636346
20
0.906594
11
0.634722
21
0.903039
0
LINE
8
BLACK
6
CONTINUOUS
10
0.634722
20
0.903039
11
0.63146
21
0.899274
0
LINE
8
BLACK
6
CONTINUOUS
10
0.63146
20
0.899274
11
0.62727
21
0.896581
0
LINE
8
BLACK
6
CONTINUOUS
10
0.62727
20
0.896581
11
0.622491
21
0.895178
0
LINE
8
BLACK
6
CONTINUOUS
10
0.622491
20
0.895178
11
0.617509
21
0.895178
0
LINE
8
BLACK
6
CONTINUOUS
10
0.617509
20
0.895178
11
0.61273
21
0.896581
0
LINE
8
BLACK
6
CONTINUOUS
10
0.61273
20
0.896581
11
0.60854
21
0.899274
0
LINE
8
BLACK
6
CONTINUOUS
10
0.60854
20
0.899274
11
0.605278
21
0.903039
0
LINE
8
BLACK
6
CONTINUOUS
10
0.605278
20
0.903039
11
0.603209
21
0.90757
0
LINE
8
BLACK
6
CONTINUOUS
10
0.603209
20
0.90757
11
0.6025
21
0.9125
0
LINE
8
BLACK
6
CONTINUOUS
10
0.6025
20
0.9125
11
0.603209
21
0.91743
0
LINE
8
BLACK
6
CONTINUOUS
10
0.603209
20
0.91743
11
0.605278
21
0.921961
0
LINE
8
BLACK
6
CONTINUOUS
10
0.605278
20
0.921961
11
0.60854
21
0.925726
0
LINE
8
BLACK
6
CONTINUOUS
10
0.60854
20
0.925726
11
0.61273
21
0.928419
0
LINE
8
BLACK
6
CONTINUOUS
10
0.61273
20
0.928419
11
0.617509
21
0.929822
0
LINE
8
BLACK
6
CONTINUOUS
10
0.617509
20
0.929822
11
0.622491
21
0.929822
0
LINE
8
BLACK
6
CONTINUOUS
10
0.622491
20
0.929822
11
0.62727
21
0.928419
0
LINE
8
BLACK
6
CONTINUOUS
10
0.1825
20
1.08287
11
0.198248
21
1.08287
0
LINE
8
BLACK
6
CONTINUOUS
10
0.198248
20
1.08287
11
0.199536
21
1.08258
0
LINE
8
BLACK
6
CONTINUOUS
10
0.199536
20
1.08258
11
0.200849
21
1.08243
0
LINE
8
BLACK
6
CONTINUOUS
10
0.200849
20
1.08243
11
0.201228
21
1.08219
0
LINE
8
BLACK
6
CONTINUOUS
10
0.201228
20
1.08219
11
0.201664
21
1.08209
0
LINE
8
BLACK
6
CONTINUOUS
10
0.201664
20
1.08209
11
0.202697
21
1.08127
0
LINE
8
BLACK
6
CONTINUOUS
10
0.202697
20
1.08127
11
0.203816
21
1.08057
0
LINE
8
BLACK
6
CONTINUOUS
10
0.203816
20
1.08057
11
0.232258
21
1.05213
0
LINE
8
BLACK
6
CONTINUOUS
10
0.232258
20
1.05213
11
0.33447
21
1.05213
0
LINE
8
BLACK
6
CONTINUOUS
10
0.33447
20
1.05213
11
0.705496
21
1.05213
0
LINE
8
BLACK
6
CONTINUOUS
10
0.705496
20
1.05213
11
0.706784
21
1.05183
0
LINE
8
BLACK
6
CONTINUOUS
10
0.706784
20
1.05183
11
0.708096
21
1.05168
0
LINE
8
BLACK
6
CONTINUOUS
10
0.708096
20
1.05168
11
0.708476
21
1.05145
0
LINE
8
BLACK
6
CONTINUOUS
10
0.708476
20
1.05145
11
0.708912
21
1.05135
0
LINE
8
BLACK
6
CONTINUOUS
10
0.708912
20
1.05135
11
0.709945
21
1.05052
0
LINE
8
BLACK
6
CONTINUOUS
10
0.709945
20
1.05052
11
0.711064
21
1.04982
0
LINE
8
BLACK
6
CONTINUOUS
10
0.711064
20
1.04982
11
0.797887
21
0.962996
0
LINE
8
BLACK
6
CONTINUOUS
10
0.797887
20
0.962996
11
0.800744
21
0.963835
0
LINE
8
BLACK
6
CONTINUOUS
10
0.800744
20
0.963835
11
0.805725
21
0.963835
0
LINE
8
BLACK
6
CONTINUOUS
10
0.805725
20
0.963835
11
0.810504
21
0.962432
0
LINE
8
BLACK
6
CONTINUOUS
10
0.810504
20
0.962432
11
0.814695
21
0.959739
0
LINE
8
BLACK
6
CONTINUOUS
10
0.814695
20
0.959739
11
0.817956
21
0.955974
0
LINE
8
BLACK
6
CONTINUOUS
10
0.817956
20
0.955974
11
0.820026
21
0.951444
0
LINE
8
BLACK
6
CONTINUOUS
10
0.820026
20
0.951444
11
0.820735
21
0.946513
0
LINE
8
BLACK
6
CONTINUOUS
10
0.820735
20
0.946513
11
0.820026
21
0.941583
0
LINE
8
BLACK
6
CONTINUOUS
10
0.820026
20
0.941583
11
0.817956
21
0.937052
0
LINE
8
BLACK
6
CONTINUOUS
10
0.817956
20
0.937052
11
0.814695
21
0.933288
0
LINE
8
BLACK
6
CONTINUOUS
10
0.814695
20
0.933288
11
0.810504
21
0.930595
0
LINE
8
BLACK
6
CONTINUOUS
10
0.810504
20
0.930595
11
0.805725
21
0.929191
0
LINE
8
BLACK
6
CONTINUOUS
10
0.805725
20
0.929191
11
0.800744
21
0.929191
0
LINE
8
BLACK
6
CONTINUOUS
10
0.800744
20
0.929191
11
0.795965
21
0.930595
0
LINE
8
BLACK
6
CONTINUOUS
10
0.795965
20
0.930595
11
0.791774
21
0.933288
0
LINE
8
BLACK
6
CONTINUOUS
10
0.791774
20
0.933288
11
0.788513
21
0.937052
0
LINE
8
BLACK
6
CONTINUOUS
10
0.788513
20
0.937052
11
0.786443
21
0.941583
0
LINE
8
BLACK
6
CONTINUOUS
10
0.786443
20
0.941583
11
0.785735
21
0.946513
0
LINE
8
BLACK
6
CONTINUOUS
10
0.785735
20
0.946513
11
0.786443
21
0.951444
0
LINE
8
BLACK
6
CONTINUOUS
10
0.786443
20
0.951444
11
0.786671
21
0.951941
0
LINE
8
BLACK
6
CONTINUOUS
10
0.786671
20
0.951941
11
0.702234
21
1.03638
0
LINE
8
BLACK
6
CONTINUOUS
10
0.702234
20
1.03638
11
0.33447
21
1.03638
0
LINE
8
BLACK
6
CONTINUOUS
10
0.33447
20
1.03638
11
0.228996
21
1.03638
0
LINE
8
BLACK
6
CONTINUOUS
10
0.228996
20
1.03638
11
0.227708
21
1.03667
0
LINE
8
BLACK
6
CONTINUOUS
10
0.227708
20
1.03667
11
0.226395
21
1.03682
0
LINE
8
BLACK
6
CONTINUOUS
10
0.226395
20
1.03682
11
0.226016
21
1.03706
0
LINE
8
BLACK
6
CONTINUOUS
10
0.226016
20
1.03706
11
0.22558
21
1.03716
0
LINE
8
BLACK
6
CONTINUOUS
10
0.22558
20
1.03716
11
0.224547
21
1.03798
0
LINE
8
BLACK
6
CONTINUOUS
10
0.224547
20
1.03798
11
0.223428
21
1.03868
0
LINE
8
BLACK
6
CONTINUOUS
10
0.223428
20
1.03868
11
0.194987
21
1.06713
0
LINE
8
BLACK
6
CONTINUOUS
10
0.194987
20
1.06713
11
0.1825
21
1.06713
0
LINE
8
BLACK
6
CONTINUOUS
10
0.1825
20
1.06713
11
0.1825
21
1.045
0
LINE
8
BLACK
6
CONTINUOUS
10
0.1825
20
1.045
11
0.1225
21
1.045
0
LINE
8
BLACK
6
CONTINUOUS
10
0.1225
20
1.045
11
0.1225
21
1.105
0
LINE
8
BLACK
6
CONTINUOUS
10
0.1225
20
1.105
11
0.1825
21
1.105
0
LINE
8
BLACK
6
CONTINUOUS
10
0.1825
20
1.105
11
0.1825
21
1.08287
0
LINE
8
BLACK
6
CONTINUOUS
10
0.1825
20
0.945
11
0.1225
21
0.945
0
LINE
8
BLACK
6
CONTINUOUS
10
0.1225
20
0.945
11
0.1225
21
1.005
0
LINE
8
BLACK
6
CONTINUOUS
10
0.1225
20
1.005
11
0.1825
21
1.005
0
LINE
8
BLACK
6
CONTINUOUS
10
0.1825
20
1.005
11
0.1825
21
0.945
0
LINE
8
BLACK
6
CONTINUOUS
10
0.938782
20
1.10948
11
0.93956
21
1.10948
0
LINE
8
BLACK
6
CONTINUOUS
10
0.93956
20
1.10948
11
0.940233
21
1.1091
0
LINE
8
BLACK
6
CONTINUOUS
10
0.940233
20
1.1091
11
0.940984
21
1.10889
0
LINE
8
BLACK
6
CONTINUOUS
10
0.940984
20
1.10889
11
0.941534
21
1.10834
0
LINE
8
BLACK
6
CONTINUOUS
10
0.941534
20
1.10834
11
0.942207
21
1.10796
0
LINE
8
BLACK
6
CONTINUOUS
10
0.942207
20
1.10796
11
0.944176
21
1.10599
0
LINE
8
BLACK
6
CONTINUOUS
10
0.944176
20
1.10599
11
0.944565
21
1.10531
0
LINE
8
BLACK
6
CONTINUOUS
10
0.944565
20
1.10531
11
0.945114
21
1.10476
0
LINE
8
BLACK
6
CONTINUOUS
10
0.945114
20
1.10476
11
0.945316
21
1.10401
0
LINE
8
BLACK
6
CONTINUOUS
10
0.945316
20
1.10401
11
0.945704
21
1.10334
0
LINE
8
BLACK
6
CONTINUOUS
10
0.945704
20
1.10334
11
0.945704
21
1.10256
0
LINE
8
BLACK
6
CONTINUOUS
10
0.945704
20
1.10256
11
0.945906
21
1.10181
0
LINE
8
BLACK
6
CONTINUOUS
10
0.945906
20
1.10181
11
0.945906
21
1.09
0
LINE
8
BLACK
6
CONTINUOUS
10
0.945906
20
1.09
11
0.97
21
1.09
0
LINE
8
BLACK
6
CONTINUOUS
10
0.97
20
1.09
11
0.97
21
1.03
0
LINE
8
BLACK
6
CONTINUOUS
10
0.97
20
1.03
11
0.91
21
1.03
0
LINE
8
BLACK
6
CONTINUOUS
10
0.91
20
1.03
11
0.91
21
1.09
0
LINE
8
BLACK
6
CONTINUOUS
10
0.91
20
1.09
11
0.934094
21
1.09
0
LINE
8
BLACK
6
CONTINUOUS
10
0.934094
20
1.09
11
0.934094
21
1.09787
0
LINE
8
BLACK
6
CONTINUOUS
10
0.934094
20
1.09787
11
0.711226
21
1.09787
0
LINE
8
BLACK
6
CONTINUOUS
10
0.711226
20
1.09787
11
0.710691
21
1.09734
0
LINE
8
BLACK
6
CONTINUOUS
10
0.710691
20
1.09734
11
0.711791
21
1.09493
0
LINE
8
BLACK
6
CONTINUOUS
10
0.711791
20
1.09493
11
0.7125
21
1.09
0
LINE
8
BLACK
6
CONTINUOUS
10
0.7125
20
1.09
11
0.711791
21
1.08507
0
LINE
8
BLACK
6
CONTINUOUS
10
0.711791
20
1.08507
11
0.709722
21
1.08054
0
LINE
8
BLACK
6
CONTINUOUS
10
0.709722
20
1.08054
11
0.70646
21
1.07677
0
LINE
8
BLACK
6
CONTINUOUS
10
0.70646
20
1.07677
11
0.70227
21
1.07408
0
LINE
8
BLACK
6
CONTINUOUS
10
0.70227
20
1.07408
11
0.697491
21
1.07268
0
LINE
8
BLACK
6
CONTINUOUS
10
0.697491
20
1.07268
11
0.692509
21
1.07268
0
LINE
8
BLACK
6
CONTINUOUS
10
0.692509
20
1.07268
11
0.68773
21
1.07408
0
LINE
8
BLACK
6
CONTINUOUS
10
0.68773
20
1.07408
11
0.68354
21
1.07677
0
LINE
8
BLACK
6
CONTINUOUS
10
0.68354
20
1.07677
11
0.680278
21
1.08054
0
LINE
8
BLACK
6
CONTINUOUS
10
0.680278
20
1.08054
11
0.678209
21
1.08507
0
LINE
8
BLACK
6
CONTINUOUS
10
0.678209
20
1.08507
11
0.6775
21
1.09
0
LINE
8
BLACK
6
CONTINUOUS
10
0.6775
20
1.09
11
0.678209
21
1.09493
0
LINE
8
BLACK
6
CONTINUOUS
10
0.678209
20
1.09493
11
0.680278
21
1.09946
0
LINE
8
BLACK
6
CONTINUOUS
10
0.680278
20
1.09946
11
0.68354
21
1.10323
0
LINE
8
BLACK
6
CONTINUOUS
10
0.68354
20
1.10323
11
0.68773
21
1.10592
0
LINE
8
BLACK
6
CONTINUOUS
10
0.68773
20
1.10592
11
0.692509
21
1.10732
0
LINE
8
BLACK
6
CONTINUOUS
10
0.692509
20
1.10732
11
0.697491
21
1.10732
0
LINE
8
BLACK
6
CONTINUOUS
10
0.697491
20
1.10732
11
0.70227
21
1.10592
0
LINE
8
BLACK
6
CONTINUOUS
10
0.70227
20
1.10592
11
0.702451
21
1.1058
0
LINE
8
BLACK
6
CONTINUOUS
10
0.702451
20
1.1058
11
0.704604
21
1.10796
0
LINE
8
BLACK
6
CONTINUOUS
10
0.704604
20
1.10796
11
0.705277
21
1.10834
0
LINE
8
BLACK
6
CONTINUOUS
10
0.705277
20
1.10834
11
0.705827
21
1.10889
0
LINE
8
BLACK
6
CONTINUOUS
10
0.705827
20
1.10889
11
0.706578
21
1.1091
0
LINE
8
BLACK
6
CONTINUOUS
10
0.706578
20
1.1091
11
0.707251
21
1.10948
0
LINE
8
BLACK
6
CONTINUOUS
10
0.707251
20
1.10948
11
0.708029
21
1.10948
0
LINE
8
BLACK
6
CONTINUOUS
10
0.708029
20
1.10948
11
0.70878
21
1.10969
0
LINE
8
BLACK
6
CONTINUOUS
10
0.70878
20
1.10969
11
0.938031
21
1.10969
0
LINE
8
BLACK
6
CONTINUOUS
10
0.938031
20
1.10969
11
0.938782
21
1.10948
0
LINE
8
BLACK
6
CONTINUOUS
10
1.07
20
1.03
11
1.01
21
1.03
0
LINE
8
BLACK
6
CONTINUOUS
10
1.01
20
1.03
11
1.01
21
1.09
0
LINE
8
BLACK
6
CONTINUOUS
10
1.01
20
1.09
11
1.07
21
1.09
0
LINE
8
BLACK
6
CONTINUOUS
10
1.07
20
1.09
11
1.07
21
1.03
0
LINE
8
BLACK
6
CONTINUOUS
10
0.97
20
1.13
11
0.91
21
1.13
0
LINE
8
BLACK
6
CONTINUOUS
10
0.91
20
1.13
11
0.91
21
1.19
0
LINE
8
BLACK
6
CONTINUOUS
10
0.91
20
1.19
11
0.97
21
1.19
0
LINE
8
BLACK
6
CONTINUOUS
10
0.97
20
1.19
11
0.97
21
1.13
0
LINE
8
BLACK
6
CONTINUOUS
10
0.63
20
1.3175
11
0.609843
21
1.3175
0
LINE
8
BLACK
6
CONTINUOUS
10
0.609843
20
1.3175
11
0.609842
21
1.30189
0
LINE
8
BLACK
6
CONTINUOUS
10
0.609842
20
1.30189
11
0.652993
21
1.25874
0
LINE
8
BLACK
6
CONTINUOUS
10
0.652993
20
1.25874
11
0.652993
21
1.25874
0
LINE
8
BLACK
6
CONTINUOUS
10
0.652993
20
1.25874
11
0.676892
21
1.23484
0
LINE
8
BLACK
6
CONTINUOUS
10
0.676892
20
1.23484
11
1.02469
21
1.23484
0
LINE
8
BLACK
6
CONTINUOUS
10
1.02469
20
1.23484
11
1.02845
21
1.23409
0
LINE
8
BLACK
6
CONTINUOUS
10
1.02845
20
1.23409
11
1.03164
21
1.23196
0
LINE
8
BLACK
6
CONTINUOUS
10
1.03164
20
1.23196
11
1.04696
21
1.21664
0
LINE
8
BLACK
6
CONTINUOUS
10
1.04696
20
1.21664
11
1.04909
21
1.21345
0
LINE
8
BLACK
6
CONTINUOUS
10
1.04909
20
1.21345
11
1.04984
21
1.20969
0
LINE
8
BLACK
6
CONTINUOUS
10
1.04984
20
1.20969
11
1.04984
21
1.19
0
LINE
8
BLACK
6
CONTINUOUS
10
1.04984
20
1.19
11
1.07
21
1.19
0
LINE
8
BLACK
6
CONTINUOUS
10
1.07
20
1.19
11
1.07
21
1.13
0
LINE
8
BLACK
6
CONTINUOUS
10
1.07
20
1.13
11
1.01
21
1.13
0
LINE
8
BLACK
6
CONTINUOUS
10
1.01
20
1.13
11
1.01
21
1.19
0
LINE
8
BLACK
6
CONTINUOUS
10
1.01
20
1.19
11
1.03016
21
1.19
0
LINE
8
BLACK
6
CONTINUOUS
10
1.03016
20
1.19
11
1.03016
21
1.20561
0
LINE
8
BLACK
6
CONTINUOUS
10
1.03016
20
1.20561
11
1.02061
21
1.21516
0
LINE
8
BLACK
6
CONTINUOUS
10
1.02061
20
1.21516
11
0.672815
21
1.21516
0
LINE
8
BLACK
6
CONTINUOUS
10
0.672815
20
1.21516
11
0.672815
21
1.21516
0
LINE
8
BLACK
6
CONTINUOUS
10
0.672815
20
1.21516
11
0.669673
21
1.21578
0
LINE
8
BLACK
6
CONTINUOUS
10
0.669673
20
1.21578
11
0.669048
21
1.21591
0
LINE
8
BLACK
6
CONTINUOUS
10
0.669048
20
1.21591
11
0.665855
21
1.21804
0
LINE
8
BLACK
6
CONTINUOUS
10
0.665855
20
1.21804
11
0.665855
21
1.21804
0
LINE
8
BLACK
6
CONTINUOUS
10
0.665855
20
1.21804
11
0.639073
21
1.24482
0
LINE
8
BLACK
6
CONTINUOUS
10
0.639073
20
1.24482
11
0.639073
21
1.24482
0
LINE
8
BLACK
6
CONTINUOUS
10
0.639073
20
1.24482
11
0.6
21
1.2839
0
LINE
8
BLACK
6
CONTINUOUS
10
0.6
20
1.2839
11
0.541822
21
1.22572
0
LINE
8
BLACK
6
CONTINUOUS
10
0.541822
20
1.22572
11
0.538629
21
1.22358
0
LINE
8
BLACK
6
CONTINUOUS
10
0.538629
20
1.22358
11
0.534862
21
1.22283
0
LINE
8
BLACK
6
CONTINUOUS
10
0.534862
20
1.22283
11
0.494418
21
1.22283
0
LINE
8
BLACK
6
CONTINUOUS
10
0.494418
20
1.22283
11
0.319806
21
1.22283
0
LINE
8
BLACK
6
CONTINUOUS
10
0.319806
20
1.22283
11
0.316874
21
1.21945
0
LINE
8
BLACK
6
CONTINUOUS
10
0.316874
20
1.21945
11
0.312684
21
1.21676
0
LINE
8
BLACK
6
CONTINUOUS
10
0.312684
20
1.21676
11
0.307905
21
1.21536
0
LINE
8
BLACK
6
CONTINUOUS
10
0.307905
20
1.21536
11
0.302924
21
1.21536
0
LINE
8
BLACK
6
CONTINUOUS
10
0.302924
20
1.21536
11
0.298145
21
1.21676
0
LINE
8
BLACK
6
CONTINUOUS
10
0.298145
20
1.21676
11
0.293954
21
1.21945
0
LINE
8
BLACK
6
CONTINUOUS
10
0.293954
20
1.21945
11
0.290692
21
1.22322
0
LINE
8
BLACK
6
CONTINUOUS
10
0.290692
20
1.22322
11
0.288623
21
1.22775
0
LINE
8
BLACK
6
CONTINUOUS
10
0.288623
20
1.22775
11
0.287914
21
1.23268
0
LINE
8
BLACK
6
CONTINUOUS
10
0.287914
20
1.23268
11
0.288623
21
1.23761
0
LINE
8
BLACK
6
CONTINUOUS
10
0.288623
20
1.23761
11
0.290692
21
1.24214
0
LINE
8
BLACK
6
CONTINUOUS
10
0.290692
20
1.24214
11
0.293954
21
1.2459
0
LINE
8
BLACK
6
CONTINUOUS
10
0.293954
20
1.2459
11
0.298145
21
1.2486
0
LINE
8
BLACK
6
CONTINUOUS
10
0.298145
20
1.2486
11
0.302924
21
1.25
0
LINE
8
BLACK
6
CONTINUOUS
10
0.302924
20
1.25
11
0.307905
21
1.25
0
LINE
8
BLACK
6
CONTINUOUS
10
0.307905
20
1.25
11
0.312684
21
1.2486
0
LINE
8
BLACK
6
CONTINUOUS
10
0.312684
20
1.2486
11
0.316874
21
1.2459
0
LINE
8
BLACK
6
CONTINUOUS
10
0.316874
20
1.2459
11
0.319806
21
1.24252
0
LINE
8
BLACK
6
CONTINUOUS
10
0.319806
20
1.24252
11
0.494418
21
1.24252
0
LINE
8
BLACK
6
CONTINUOUS
10
0.494418
20
1.24252
11
0.530785
21
1.24252
0
LINE
8
BLACK
6
CONTINUOUS
10
0.530785
20
1.24252
11
0.590157
21
1.30189
0
LINE
8
BLACK
6
CONTINUOUS
10
0.590157
20
1.30189
11
0.590157
21
1.3175
0
LINE
8
BLACK
6
CONTINUOUS
10
0.590157
20
1.3175
11
0.57
21
1.3175
0
LINE
8
BLACK
6
CONTINUOUS
10
0.57
20
1.3175
11
0.57
21
1.3775
0
LINE
8
BLACK
6
CONTINUOUS
10
0.57
20
1.3775
11
0.63
21
1.3775
0
LINE
8
BLACK
6
CONTINUOUS
10
0.63
20
1.3775
11
0.63
21
1.3175
0
LINE
8
BLACK
6
CONTINUOUS
10
0.1825
20
1.145
11
0.1225
21
1.145
0
LINE
8
BLACK
6
CONTINUOUS
10
0.1225
20
1.145
11
0.1225
21
1.205
0
LINE
8
BLACK
6
CONTINUOUS
10
0.1225
20
1.205
11
0.1825
21
1.205
0
LINE
8
BLACK
6
CONTINUOUS
10
0.1825
20
1.205
11
0.1825
21
1.145
0
LINE
8
BLACK
6
CONTINUOUS
10
0.53
20
1.3175
11
0.47
21
1.3175
0
LINE
8
BLACK
6
CONTINUOUS
10
0.47
20
1.3175
11
0.47
21
1.3775
0
LINE
8
BLACK
6
CONTINUOUS
10
0.47
20
1.3775
11
0.53
21
1.3775
0
LINE
8
BLACK
6
CONTINUOUS
10
0.53
20
1.3775
11
0.53
21
1.3175
0
LINE
8
BLACK
6
CONTINUOUS
10
0.73
20
1.3175
11
0.67
21
1.3175
0
LINE
8
BLACK
6
CONTINUOUS
10
0.67
20
1.3175
11
0.67
21
1.3775
0
LINE
8
BLACK
6
CONTINUOUS
10
0.67
20
1.3775
11
0.73
21
1.3775
0
LINE
8
BLACK
6
CONTINUOUS
10
0.73
20
1.3775
11
0.73
21
1.3175
0
LINE
8
BLACK
6
CONTINUOUS
10
0.53
20
1.4175
11
0.47
21
1.4175
0
LINE
8
BLACK
6
CONTINUOUS
10
0.47
20
1.4175
11
0.47
21
1.4775
0
LINE
8
BLACK
6
CONTINUOUS
10
0.47
20
1.4775
11
0.53
21
1.4775
0
LINE
8
BLACK
6
CONTINUOUS
10
0.53
20
1.4775
11
0.53
21
1.4175
0
LINE
8
BLACK
6
CONTINUOUS
10
0.63
20
1.4175
11
0.57
21
1.4175
0
LINE
8
BLACK
6
CONTINUOUS
10
0.57
20
1.4175
11
0.57
21
1.4775
0
LINE
8
BLACK
6
CONTINUOUS
10
0.57
20
1.4775
11
0.63
21
1.4775
0
LINE
8
BLACK
6
CONTINUOUS
10
0.63
20
1.4775
11
0.63
21
1.4175
0
LINE
8
BLACK
6
CONTINUOUS
10
0.73
20
1.4175
11
0.67
21
1.4175
0
LINE
8
BLACK
6
CONTINUOUS
10
0.67
20
1.4175
11
0.67
21
1.4775
0
LINE
8
BLACK
6
CONTINUOUS
10
0.67
20
1.4775
11
0.73
21
1.4775
0
LINE
8
BLACK
6
CONTINUOUS
10
0.73
20
1.4775
11
0.73
21
1.4175
0
LINE
8
BLACK
6
CONTINUOUS
10
0.100237
20
0.475701
11
0.100237
21
0.475701
0
LINE
8
BLACK
6
CONTINUOUS
10
0.100237
20
0.475701
11
0.102248
21
0.470307
0
LINE
8
BLACK
6
CONTINUOUS
10
0.102248
20
0.470307
11
0.102249
21
0.470307
0
LINE
8
BLACK
6
CONTINUOUS
10
0.102249
20
0.470307
11
0.105698
21
0.465698
0
LINE
8
BLACK
6
CONTINUOUS
10
0.105698
20
0.465698
11
0.110307
21
0.462249
0
LINE
8
BLACK
6
CONTINUOUS
10
0.110307
20
0.462249
11
0.110307
21
0.462248
0
LINE
8
BLACK
6
CONTINUOUS
10
0.110307
20
0.462248
11
0.115701
21
0.460237
0
LINE
8
BLACK
6
CONTINUOUS
10
0.115701
20
0.460237
11
0.115701
21
0.460237
0
LINE
8
BLACK
6
CONTINUOUS
10
0.115701
20
0.460237
11
0.118085
21
0.45998
0
LINE
8
BLACK
6
CONTINUOUS
10
0.118085
20
0.45998
11
0.118085
21
0.45998
0
LINE
8
BLACK
6
CONTINUOUS
10
0.118085
20
0.45998
11
0.181915
21
0.45998
0
LINE
8
BLACK
6
CONTINUOUS
10
0.181915
20
0.45998
11
0.184299
21
0.460237
0
LINE
8
BLACK
6
CONTINUOUS
10
0.184299
20
0.460237
11
0.184299
21
0.460237
0
LINE
8
BLACK
6
CONTINUOUS
10
0.184299
20
0.460237
11
0.189693
21
0.462248
0
LINE
8
BLACK
6
CONTINUOUS
10
0.189693
20
0.462248
11
0.189693
21
0.462249
0
LINE
8
BLACK
6
CONTINUOUS
10
0.189693
20
0.462249
11
0.194302
21
0.465698
0
LINE
8
BLACK
6
CONTINUOUS
10
0.194302
20
0.465698
11
0.196029
21
0.468006
0
LINE
8
BLACK
6
CONTINUOUS
10
0.196029
20
0.468006
11
0.198266
21
0.469681
0
LINE
8
BLACK
6
CONTINUOUS
10
0.198266
20
0.469681
11
0.201054
21
0.46988
0
LINE
8
BLACK
6
CONTINUOUS
10
0.201054
20
0.46988
11
0.203508
21
0.46854
0
LINE
8
BLACK
6
CONTINUOUS
10
0.203508
20
0.46854
11
0.203971
21
0.468006
0
LINE
8
BLACK
6
CONTINUOUS
10
0.203971
20
0.468006
11
0.205698
21
0.465698
0
LINE
8
BLACK
6
CONTINUOUS
10
0.205698
20
0.465698
11
0.210307
21
0.462249
0
LINE
8
BLACK
6
CONTINUOUS
10
0.210307
20
0.462249
11
0.210307
21
0.462248
0
LINE
8
BLACK
6
CONTINUOUS
10
0.210307
20
0.462248
11
0.215701
21
0.460237
0
LINE
8
BLACK
6
CONTINUOUS
10
0.215701
20
0.460237
11
0.215701
21
0.460237
0
LINE
8
BLACK
6
CONTINUOUS
10
0.215701
20
0.460237
11
0.218085
21
0.45998
0
LINE
8
BLACK
6
CONTINUOUS
10
0.218085
20
0.45998
11
0.218085
21
0.45998
0
LINE
8
BLACK
6
CONTINUOUS
10
0.218085
20
0.45998
11
0.281915
21
0.45998
0
LINE
8
BLACK
6
CONTINUOUS
10
0.281915
20
0.45998
11
0.284299
21
0.460237
0
LINE
8
BLACK
6
CONTINUOUS
10
0.284299
20
0.460237
11
0.284299
21
0.460237
0
LINE
8
BLACK
6
CONTINUOUS
10
0.284299
20
0.460237
11
0.289693
21
0.462248
0
LINE
8
BLACK
6
CONTINUOUS
10
0.289693
20
0.462248
11
0.289693
21
0.462249
0
LINE
8
BLACK
6
CONTINUOUS
10
0.289693
20
0.462249
11
0.294302
21
0.465698
0
LINE
8
BLACK
6
CONTINUOUS
10
0.294302
20
0.465698
11
0.297751
21
0.470307
0
LINE
8
BLACK
6
CONTINUOUS
10
0.297751
20
0.470307
11
0.297752
21
0.470307
0
LINE
8
BLACK
6
CONTINUOUS
10
0.297752
20
0.470307
11
0.299763
21
0.475701
0
LINE
8
BLACK
6
CONTINUOUS
10
0.299763
20
0.475701
11
0.299763
21
0.475701
0
LINE
8
BLACK
6
CONTINUOUS
10
0.299763
20
0.475701
11
0.30002
21
0.478085
0
LINE
8
BLACK
6
CONTINUOUS
10
0.30002
20
0.478085
11
0.30002
21
0.478085
0
LINE
8
BLACK
6
CONTINUOUS
10
0.30002
20
0.478085
11
0.30002
21
0.541915
0
LINE
8
BLACK
6
CONTINUOUS
10
0.30002
20
0.541915
11
0.30002
21
0.541915
0
LINE
8
BLACK
6
CONTINUOUS
10
0.30002
20
0.541915
11
0.299763
21
0.544299
0
LINE
8
BLACK
6
CONTINUOUS
10
0.299763
20
0.544299
11
0.299763
21
0.544299
0
LINE
8
BLACK
6
CONTINUOUS
10
0.299763
20
0.544299
11
0.299487
21
0.545041
0
LINE
8
BLACK
6
CONTINUOUS
10
0.299487
20
0.545041
11
0.297752
21
0.549693
0
LINE
8
BLACK
6
CONTINUOUS
10
0.297752
20
0.549693
11
0.294302
21
0.554302
0
LINE
8
BLACK
6
CONTINUOUS
10
0.294302
20
0.554302
11
0.289693
21
0.557752
0
LINE
8
BLACK
6
CONTINUOUS
10
0.289693
20
0.557752
11
0.284299
21
0.559763
0
LINE
8
BLACK
6
CONTINUOUS
10
0.284299
20
0.559763
11
0.284299
21
0.559763
0
LINE
8
BLACK
6
CONTINUOUS
10
0.284299
20
0.559763
11
0.284299
21
0.559763
0
LINE
8
BLACK
6
CONTINUOUS
10
0.284299
20
0.559763
11
0.281915
21
0.56002
0
LINE
8
BLACK
6
CONTINUOUS
10
0.281915
20
0.56002
11
0.281915
21
0.56002
0
LINE
8
BLACK
6
CONTINUOUS
10
0.281915
20
0.56002
11
0.281915
21
0.56002
0
LINE
8
BLACK
6
CONTINUOUS
10
0.281915
20
0.56002
11
0.218085
21
0.56002
0
LINE
8
BLACK
6
CONTINUOUS
10
0.218085
20
0.56002
11
0.218085
21
0.56002
0
LINE
8
BLACK
6
CONTINUOUS
10
0.218085
20
0.56002
11
0.218085
21
0.56002
0
LINE
8
BLACK
6
CONTINUOUS
10
0.218085
20
0.56002
11
0.215701
21
0.559763
0
LINE
8
BLACK
6
CONTINUOUS
10
0.215701
20
0.559763
11
0.215701
21
0.559763
0
LINE
8
BLACK
6
CONTINUOUS
10
0.215701
20
0.559763
11
0.212633
21
0.558619
0
LINE
8
BLACK
6
CONTINUOUS
10
0.212633
20
0.558619
11
0.210307
21
0.557752
0
LINE
8
BLACK
6
CONTINUOUS
10
0.210307
20
0.557752
11
0.210307
21
0.557751
0
LINE
8
BLACK
6
CONTINUOUS
10
0.210307
20
0.557751
11
0.210307
21
0.557751
0
LINE
8
BLACK
6
CONTINUOUS
10
0.210307
20
0.557751
11
0.205698
21
0.554302
0
LINE
8
BLACK
6
CONTINUOUS
10
0.205698
20
0.554302
11
0.203971
21
0.551994
0
LINE
8
BLACK
6
CONTINUOUS
10
0.203971
20
0.551994
11
0.201734
21
0.550319
0
LINE
8
BLACK
6
CONTINUOUS
10
0.201734
20
0.550319
11
0.198946
21
0.55012
0
LINE
8
BLACK
6
CONTINUOUS
10
0.198946
20
0.55012
11
0.196492
21
0.551459
0
LINE
8
BLACK
6
CONTINUOUS
10
0.196492
20
0.551459
11
0.196029
21
0.551994
0
LINE
8
BLACK
6
CONTINUOUS
10
0.196029
20
0.551994
11
0.194302
21
0.554302
0
LINE
8
BLACK
6
CONTINUOUS
10
0.194302
20
0.554302
11
0.189693
21
0.557751
0
LINE
8
BLACK
6
CONTINUOUS
10
0.189693
20
0.557751
11
0.189693
21
0.557751
0
LINE
8
BLACK
6
CONTINUOUS
10
0.189693
20
0.557751
11
0.189693
21
0.557752
0
LINE
8
BLACK
6
CONTINUOUS
10
0.189693
20
0.557752
11
0.184299
21
0.559763
0
LINE
8
BLACK
6
CONTINUOUS
10
0.184299
20
0.559763
11
0.184299
21
0.559763
0
LINE
8
BLACK
6
CONTINUOUS
10
0.184299
20
0.559763
11
0.184299
21
0.559763
0
LINE
8
BLACK
6
CONTINUOUS
10
0.184299
20
0.559763
11
0.181915
21
0.56002
0
LINE
8
BLACK
6
CONTINUOUS
10
0.181915
20
0.56002
11
0.181915
21
0.56002
0
LINE
8
BLACK
6
CONTINUOUS
10
0.181915
20
0.56002
11
0.181915
21
0.56002
0
LINE
8
BLACK
6
CONTINUOUS
10
0.181915
20
0.56002
11
0.118085
21
0.56002
0
LINE
8
BLACK
6
CONTINUOUS
10
0.118085
20
0.56002
11
0.118085
21
0.56002
0
LINE
8
BLACK
6
CONTINUOUS
10
0.118085
20
0.56002
11
0.118085
21
0.56002
0
LINE
8
BLACK
6
CONTINUOUS
10
0.118085
20
0.56002
11
0.115701
21
0.559763
0
LINE
8
BLACK
6
CONTINUOUS
10
0.115701
20
0.559763
11
0.115701
21
0.559763
0
LINE
8
BLACK
6
CONTINUOUS
10
0.115701
20
0.559763
11
0.112633
21
0.558619
0
LINE
8
BLACK
6
CONTINUOUS
10
0.112633
20
0.558619
11
0.110307
21
0.557752
0
LINE
8
BLACK
6
CONTINUOUS
10
0.110307
20
0.557752
11
0.110307
21
0.557751
0
LINE
8
BLACK
6
CONTINUOUS
10
0.110307
20
0.557751
11
0.110307
21
0.557751
0
LINE
8
BLACK
6
CONTINUOUS
10
0.110307
20
0.557751
11
0.105698
21
0.554302
0
LINE
8
BLACK
6
CONTINUOUS
10
0.105698
20
0.554302
11
0.102249
21
0.549693
0
LINE
8
BLACK
6
CONTINUOUS
10
0.102249
20
0.549693
11
0.102248
21
0.549693
0
LINE
8
BLACK
6
CONTINUOUS
10
0.102248
20
0.549693
11
0.100237
21
0.544299
0
LINE
8
BLACK
6
CONTINUOUS
10
0.100237
20
0.544299
11
0.100237
21
0.544299
0
LINE
8
BLACK
6
CONTINUOUS
10
0.100237
20
0.544299
11
0.0999803
21
0.541915
0
LINE
8
BLACK
6
CONTINUOUS
10
0.0999803
20
0.541915
11
0.0999803
21
0.478085
0
LINE
8
BLACK
6
CONTINUOUS
10
0.0999803
20
0.478085
11
0.100237
21
0.475701
0
LINE
8
BLACK
6
CONTINUOUS
10
0.102737
20
0.940701
11
0.102737
21
0.940701
0
LINE
8
BLACK
6
CONTINUOUS
10
0.102737
20
0.940701
11
0.104748
21
0.935307
0
LINE
8
BLACK
6
CONTINUOUS
10
0.104748
20
0.935307
11
0.104749
21
0.935307
0
LINE
8
BLACK
6
CONTINUOUS
10
0.104749
20
0.935307
11
0.108198
21
0.930698
0
LINE
8
BLACK
6
CONTINUOUS
10
0.108198
20
0.930698
11
0.112807
21
0.927249
0
LINE
8
BLACK
6
CONTINUOUS
10
0.112807
20
0.927249
11
0.112807
21
0.927248
0
LINE
8
BLACK
6
CONTINUOUS
10
0.112807
20
0.927248
11
0.118201
21
0.925237
0
LINE
8
BLACK
6
CONTINUOUS
10
0.118201
20
0.925237
11
0.118201
21
0.925237
0
LINE
8
BLACK
6
CONTINUOUS
10
0.118201
20
0.925237
11
0.120585
21
0.92498
0
LINE
8
BLACK
6
CONTINUOUS
10
0.120585
20
0.92498
11
0.120585
21
0.92498
0
LINE
8
BLACK
6
CONTINUOUS
10
0.120585
20
0.92498
11
0.184415
21
0.92498
0
LINE
8
BLACK
6
CONTINUOUS
10
0.184415
20
0.92498
11
0.186799
21
0.925237
0
LINE
8
BLACK
6
CONTINUOUS
10
0.186799
20
0.925237
11
0.186799
21
0.925237
0
LINE
8
BLACK
6
CONTINUOUS
10
0.186799
20
0.925237
11
0.192193
21
0.927248
0
LINE
8
BLACK
6
CONTINUOUS
10
0.192193
20
0.927248
11
0.192193
21
0.927249
0
LINE
8
BLACK
6
CONTINUOUS
10
0.192193
20
0.927249
11
0.196802
21
0.930698
0
LINE
8
BLACK
6
CONTINUOUS
10
0.196802
20
0.930698
11
0.200251
21
0.935307
0
LINE
8
BLACK
6
CONTINUOUS
10
0.200251
20
0.935307
11
0.200252
21
0.935307
0
LINE
8
BLACK
6
CONTINUOUS
10
0.200252
20
0.935307
11
0.200633
21
0.936329
0
LINE
8
BLACK
6
CONTINUOUS
10
0.200633
20
0.936329
11
0.201235
21
0.937944
0
LINE
8
BLACK
6
CONTINUOUS
10
0.201235
20
0.937944
11
0.202263
21
0.940701
0
LINE
8
BLACK
6
CONTINUOUS
10
0.202263
20
0.940701
11
0.202263
21
0.940701
0
LINE
8
BLACK
6
CONTINUOUS
10
0.202263
20
0.940701
11
0.20252
21
0.943085
0
LINE
8
BLACK
6
CONTINUOUS
10
0.20252
20
0.943085
11
0.20252
21
0.943085
0
LINE
8
BLACK
6
CONTINUOUS
10
0.20252
20
0.943085
11
0.20252
21
1.00691
0
LINE
8
BLACK
6
CONTINUOUS
10
0.20252
20
1.00691
11
0.20252
21
1.00692
0
LINE
8
BLACK
6
CONTINUOUS
10
0.20252
20
1.00692
11
0.202263
21
1.0093
0
LINE
8
BLACK
6
CONTINUOUS
10
0.202263
20
1.0093
11
0.202263
21
1.0093
0
LINE
8
BLACK
6
CONTINUOUS
10
0.202263
20
1.0093
11
0.201163
21
1.01225
0
LINE
8
BLACK
6
CONTINUOUS
10
0.201163
20
1.01225
11
0.200252
21
1.01469
0
LINE
8
BLACK
6
CONTINUOUS
10
0.200252
20
1.01469
11
0.199499
21
1.0157
0
LINE
8
BLACK
6
CONTINUOUS
10
0.199499
20
1.0157
11
0.196802
21
1.0193
0
LINE
8
BLACK
6
CONTINUOUS
10
0.196802
20
1.0193
11
0.194494
21
1.02103
0
LINE
8
BLACK
6
CONTINUOUS
10
0.194494
20
1.02103
11
0.192819
21
1.02327
0
LINE
8
BLACK
6
CONTINUOUS
10
0.192819
20
1.02327
11
0.19262
21
1.02605
0
LINE
8
BLACK
6
CONTINUOUS
10
0.19262
20
1.02605
11
0.193959
21
1.02851
0
LINE
8
BLACK
6
CONTINUOUS
10
0.193959
20
1.02851
11
0.194494
21
1.02897
0
LINE
8
BLACK
6
CONTINUOUS
10
0.194494
20
1.02897
11
0.196964
21
1.03082
0
LINE
8
BLACK
6
CONTINUOUS
10
0.196964
20
1.03082
11
0.199583
21
1.0318
0
LINE
8
BLACK
6
CONTINUOUS
10
0.199583
20
1.0318
11
0.202314
21
1.0312
0
LINE
8
BLACK
6
CONTINUOUS
10
0.202314
20
1.0312
11
0.203444
21
1.03036
0
LINE
8
BLACK
6
CONTINUOUS
10
0.203444
20
1.03036
11
0.208623
21
1.02518
0
LINE
8
BLACK
6
CONTINUOUS
10
0.208623
20
1.02518
11
0.208725
21
1.02507
0
LINE
8
BLACK
6
CONTINUOUS
10
0.208725
20
1.02507
11
0.210363
21
1.02322
0
LINE
8
BLACK
6
CONTINUOUS
10
0.210363
20
1.02322
11
0.212395
21
1.02182
0
LINE
8
BLACK
6
CONTINUOUS
10
0.212395
20
1.02182
11
0.212516
21
1.02173
0
LINE
8
BLACK
6
CONTINUOUS
10
0.212516
20
1.02173
11
0.21446
21
1.02021
0
LINE
8
BLACK
6
CONTINUOUS
10
0.21446
20
1.02021
11
0.21446
21
1.02021
0
LINE
8
BLACK
6
CONTINUOUS
10
0.21446
20
1.02021
11
0.214826
21
1.02004
0
LINE
8
BLACK
6
CONTINUOUS
10
0.214826
20
1.02004
11
0.215607
21
1.0196
0
LINE
8
BLACK
6
CONTINUOUS
10
0.215607
20
1.0196
11
0.215938
21
1.01937
0
LINE
8
BLACK
6
CONTINUOUS
10
0.215938
20
1.01937
11
0.215938
21
1.01937
0
LINE
8
BLACK
6
CONTINUOUS
10
0.215938
20
1.01937
11
0.218247
21
1.0185
0
LINE
8
BLACK
6
CONTINUOUS
10
0.218247
20
1.0185
11
0.218385
21
1.01844
0
LINE
8
BLACK
6
CONTINUOUS
10
0.218385
20
1.01844
11
0.220636
21
1.01743
0
LINE
8
BLACK
6
CONTINUOUS
10
0.220636
20
1.01743
11
0.220637
21
1.01743
0
LINE
8
BLACK
6
CONTINUOUS
10
0.220637
20
1.01743
11
0.221032
21
1.01735
0
LINE
8
BLACK
6
CONTINUOUS
10
0.221032
20
1.01735
11
0.221896
21
1.01711
0
LINE
8
BLACK
6
CONTINUOUS
10
0.221896
20
1.01711
11
0.222271
21
1.01697
0
LINE
8
BLACK
6
CONTINUOUS
10
0.222271
20
1.01697
11
0.222272
21
1.01697
0
LINE
8
BLACK
6
CONTINUOUS
10
0.222272
20
1.01697
11
0.222272
21
1.01697
0
LINE
8
BLACK
6
CONTINUOUS
10
0.222272
20
1.01697
11
0.223699
21
1.0168
0
LINE
8
BLACK
6
CONTINUOUS
10
0.223699
20
1.0168
11
0.224723
21
1.01667
0
LINE
8
BLACK
6
CONTINUOUS
10
0.224723
20
1.01667
11
0.224871
21
1.01665
0
LINE
8
BLACK
6
CONTINUOUS
10
0.224871
20
1.01665
11
0.227299
21
1.0162
0
LINE
8
BLACK
6
CONTINUOUS
10
0.227299
20
1.0162
11
0.227299
21
1.0162
0
LINE
8
BLACK
6
CONTINUOUS
10
0.227299
20
1.0162
11
0.2273
21
1.0162
0
LINE
8
BLACK
6
CONTINUOUS
10
0.2273
20
1.0162
11
0.229764
21
1.01635
0
LINE
8
BLACK
6
CONTINUOUS
10
0.229764
20
1.01635
11
0.229914
21
1.01636
0
LINE
8
BLACK
6
CONTINUOUS
10
0.229914
20
1.01636
11
0.332782
21
1.01636
0
LINE
8
BLACK
6
CONTINUOUS
10
0.332782
20
1.01636
11
0.691887
21
1.01636
0
LINE
8
BLACK
6
CONTINUOUS
10
0.691887
20
1.01636
11
0.694569
21
1.01557
0
LINE
8
BLACK
6
CONTINUOUS
10
0.694569
20
1.01557
11
0.695395
21
1.01491
0
LINE
8
BLACK
6
CONTINUOUS
10
0.695395
20
1.01491
11
0.749359
21
0.960941
0
LINE
8
BLACK
6
CONTINUOUS
10
0.749359
20
0.960941
11
0.764469
21
0.945831
0
LINE
8
BLACK
6
CONTINUOUS
10
0.764469
20
0.945831
11
0.765809
21
0.943378
0
LINE
8
BLACK
6
CONTINUOUS
10
0.765809
20
0.943378
11
0.765898
21
0.94281
0
LINE
8
BLACK
6
CONTINUOUS
10
0.765898
20
0.94281
11
0.766
21
0.941771
0
LINE
8
BLACK
6
CONTINUOUS
10
0.766
20
0.941771
11
0.76548
21
0.939024
0
LINE
8
BLACK
6
CONTINUOUS
10
0.76548
20
0.939024
11
0.763557
21
0.936996
0
LINE
8
BLACK
6
CONTINUOUS
10
0.763557
20
0.936996
11
0.760842
21
0.936329
0
LINE
8
BLACK
6
CONTINUOUS
10
0.760842
20
0.936329
11
0.759258
21
0.936775
0
LINE
8
BLACK
6
CONTINUOUS
10
0.759258
20
0.936775
11
0.759221
21
0.936681
0
LINE
8
BLACK
6
CONTINUOUS
10
0.759221
20
0.936681
11
0.758931
21
0.936796
0
LINE
8
BLACK
6
CONTINUOUS
10
0.758931
20
0.936796
11
0.758931
21
0.936796
0
LINE
8
BLACK
6
CONTINUOUS
10
0.758931
20
0.936796
11
0.758113
21
0.937006
0
LINE
8
BLACK
6
CONTINUOUS
10
0.758113
20
0.937006
11
0.757377
21
0.937258
0
LINE
8
BLACK
6
CONTINUOUS
10
0.757377
20
0.937258
11
0.756601
21
0.937594
0
LINE
8
BLACK
6
CONTINUOUS
10
0.756601
20
0.937594
11
0.754689
21
0.937897
0
LINE
8
BLACK
6
CONTINUOUS
10
0.754689
20
0.937897
11
0.754461
21
0.937944
0
LINE
8
BLACK
6
CONTINUOUS
10
0.754461
20
0.937944
11
0.752586
21
0.938425
0
LINE
8
BLACK
6
CONTINUOUS
10
0.752586
20
0.938425
11
0.752586
21
0.938425
0
LINE
8
BLACK
6
CONTINUOUS
10
0.752586
20
0.938425
11
0.751742
21
0.938425
0
LINE
8
BLACK
6
CONTINUOUS
10
0.751742
20
0.938425
11
0.750966
21
0.938486
0
LINE
8
BLACK
6
CONTINUOUS
10
0.750966
20
0.938486
11
0.750132
21
0.938618
0
LINE
8
BLACK
6
CONTINUOUS
10
0.750132
20
0.938618
11
0.748681
21
0.938481
0
LINE
8
BLACK
6
CONTINUOUS
10
0.748681
20
0.938481
11
0.748205
21
0.938436
0
LINE
8
BLACK
6
CONTINUOUS
10
0.748205
20
0.938436
11
0.747971
21
0.938425
0
LINE
8
BLACK
6
CONTINUOUS
10
0.747971
20
0.938425
11
0.649328
21
0.938425
0
LINE
8
BLACK
6
CONTINUOUS
10
0.649328
20
0.938425
11
0.646646
21
0.939213
0
LINE
8
BLACK
6
CONTINUOUS
10
0.646646
20
0.939213
11
0.646181
21
0.939551
0
LINE
8
BLACK
6
CONTINUOUS
10
0.646181
20
0.939551
11
0.641875
21
0.943085
0
LINE
8
BLACK
6
CONTINUOUS
10
0.641875
20
0.943085
11
0.640946
21
0.943847
0
LINE
8
BLACK
6
CONTINUOUS
10
0.640946
20
0.943847
11
0.640946
21
0.943847
0
LINE
8
BLACK
6
CONTINUOUS
10
0.640946
20
0.943847
11
0.640946
21
0.943847
0
LINE
8
BLACK
6
CONTINUOUS
10
0.640946
20
0.943847
11
0.640946
21
0.943847
0
LINE
8
BLACK
6
CONTINUOUS
10
0.640946
20
0.943847
11
0.634428
21
0.947331
0
LINE
8
BLACK
6
CONTINUOUS
10
0.634428
20
0.947331
11
0.627355
21
0.949477
0
LINE
8
BLACK
6
CONTINUOUS
10
0.627355
20
0.949477
11
0.627355
21
0.949477
0
LINE
8
BLACK
6
CONTINUOUS
10
0.627355
20
0.949477
11
0.627355
21
0.949477
0
LINE
8
BLACK
6
CONTINUOUS
10
0.627355
20
0.949477
11
0.62
21
0.950201
0
LINE
8
BLACK
6
CONTINUOUS
10
0.62
20
0.950201
11
0.62
21
0.950201
0
LINE
8
BLACK
6
CONTINUOUS
10
0.62
20
0.950201
11
0.612645
21
0.949477
0
LINE
8
BLACK
6
CONTINUOUS
10
0.612645
20
0.949477
11
0.612645
21
0.949477
0
LINE
8
BLACK
6
CONTINUOUS
10
0.612645
20
0.949477
11
0.612645
21
0.949477
0
LINE
8
BLACK
6
CONTINUOUS
10
0.612645
20
0.949477
11
0.612645
21
0.949477
0
LINE
8
BLACK
6
CONTINUOUS
10
0.612645
20
0.949477
11
0.605572
21
0.947331
0
LINE
8
BLACK
6
CONTINUOUS
10
0.605572
20
0.947331
11
0.599054
21
0.943847
0
LINE
8
BLACK
6
CONTINUOUS
10
0.599054
20
0.943847
11
0.593341
21
0.939159
0
LINE
8
BLACK
6
CONTINUOUS
10
0.593341
20
0.939159
11
0.59018
21
0.935307
0
LINE
8
BLACK
6
CONTINUOUS
10
0.59018
20
0.935307
11
0.588653
21
0.933446
0
LINE
8
BLACK
6
CONTINUOUS
10
0.588653
20
0.933446
11
0.585169
21
0.926928
0
LINE
8
BLACK
6
CONTINUOUS
10
0.585169
20
0.926928
11
0.585169
21
0.926928
0
LINE
8
BLACK
6
CONTINUOUS
10
0.585169
20
0.926928
11
0.583023
21
0.919855
0
LINE
8
BLACK
6
CONTINUOUS
10
0.583023
20
0.919855
11
0.583023
21
0.919855
0
LINE
8
BLACK
6
CONTINUOUS
10
0.583023
20
0.919855
11
0.582299
21
0.9125
0
LINE
8
BLACK
6
CONTINUOUS
10
0.582299
20
0.9125
11
0.582299
21
0.9125
0
LINE
8
BLACK
6
CONTINUOUS
10
0.582299
20
0.9125
11
0.583023
21
0.905145
0
LINE
8
BLACK
6
CONTINUOUS
10
0.583023
20
0.905145
11
0.583023
21
0.905145
0
LINE
8
BLACK
6
CONTINUOUS
10
0.583023
20
0.905145
11
0.585169
21
0.898072
0
LINE
8
BLACK
6
CONTINUOUS
10
0.585169
20
0.898072
11
0.585169
21
0.898072
0
LINE
8
BLACK
6
CONTINUOUS
10
0.585169
20
0.898072
11
0.588653
21
0.891554
0
LINE
8
BLACK
6
CONTINUOUS
10
0.588653
20
0.891554
11
0.593341
21
0.885841
0
LINE
8
BLACK
6
CONTINUOUS
10
0.593341
20
0.885841
11
0.599054
21
0.881153
0
LINE
8
BLACK
6
CONTINUOUS
10
0.599054
20
0.881153
11
0.605572
21
0.877669
0
LINE
8
BLACK
6
CONTINUOUS
10
0.605572
20
0.877669
11
0.605572
21
0.877669
0
LINE
8
BLACK
6
CONTINUOUS
10
0.605572
20
0.877669
11
0.612645
21
0.875523
0
LINE
8
BLACK
6
CONTINUOUS
10
0.612645
20
0.875523
11
0.62
21
0.874799
0
LINE
8
BLACK
6
CONTINUOUS
10
0.62
20
0.874799
11
0.62
21
0.874799
0
LINE
8
BLACK
6
CONTINUOUS
10
0.62
20
0.874799
11
0.62
21
0.874799
0
LINE
8
BLACK
6
CONTINUOUS
10
0.62
20
0.874799
11
0.627355
21
0.875523
0
LINE
8
BLACK
6
CONTINUOUS
10
0.627355
20
0.875523
11
0.627355
21
0.875523
0
LINE
8
BLACK
6
CONTINUOUS
10
0.627355
20
0.875523
11
0.634428
21
0.877669
0
LINE
8
BLACK
6
CONTINUOUS
10
0.634428
20
0.877669
11
0.634428
21
0.877669
0
LINE
8
BLACK
6
CONTINUOUS
10
0.634428
20
0.877669
11
0.640946
21
0.881153
0
LINE
8
BLACK
6
CONTINUOUS
10
0.640946
20
0.881153
11
0.640946
21
0.881153
0
LINE
8
BLACK
6
CONTINUOUS
10
0.640946
20
0.881153
11
0.646181
21
0.885449
0
LINE
8
BLACK
6
CONTINUOUS
10
0.646181
20
0.885449
11
0.648753
21
0.886541
0
LINE
8
BLACK
6
CONTINUOUS
10
0.648753
20
0.886541
11
0.649328
21
0.886575
0
LINE
8
BLACK
6
CONTINUOUS
10
0.649328
20
0.886575
11
0.736518
21
0.886575
0
LINE
8
BLACK
6
CONTINUOUS
10
0.736518
20
0.886575
11
0.7392
21
0.885787
0
LINE
8
BLACK
6
CONTINUOUS
10
0.7392
20
0.885787
11
0.740025
21
0.885122
0
LINE
8
BLACK
6
CONTINUOUS
10
0.740025
20
0.885122
11
0.744863
21
0.880285
0
LINE
8
BLACK
6
CONTINUOUS
10
0.744863
20
0.880285
11
0.746202
21
0.877831
0
LINE
8
BLACK
6
CONTINUOUS
10
0.746202
20
0.877831
11
0.746003
21
0.875043
0
LINE
8
BLACK
6
CONTINUOUS
10
0.746003
20
0.875043
11
0.745326
21
0.873804
0
LINE
8
BLACK
6
CONTINUOUS
10
0.745326
20
0.873804
11
0.742249
21
0.869693
0
LINE
8
BLACK
6
CONTINUOUS
10
0.742249
20
0.869693
11
0.742248
21
0.869693
0
LINE
8
BLACK
6
CONTINUOUS
10
0.742248
20
0.869693
11
0.740237
21
0.864299
0
LINE
8
BLACK
6
CONTINUOUS
10
0.740237
20
0.864299
11
0.740237
21
0.864299
0
LINE
8
BLACK
6
CONTINUOUS
10
0.740237
20
0.864299
11
0.73998
21
0.861915
0
LINE
8
BLACK
6
CONTINUOUS
10
0.73998
20
0.861915
11
0.73998
21
0.798085
0
LINE
8
BLACK
6
CONTINUOUS
10
0.73998
20
0.798085
11
0.740237
21
0.795701
0
LINE
8
BLACK
6
CONTINUOUS
10
0.740237
20
0.795701
11
0.740237
21
0.795701
0
LINE
8
BLACK
6
CONTINUOUS
10
0.740237
20
0.795701
11
0.742248
21
0.790307
0
LINE
8
BLACK
6
CONTINUOUS
10
0.742248
20
0.790307
11
0.742249
21
0.790307
0
LINE
8
BLACK
6
CONTINUOUS
10
0.742249
20
0.790307
11
0.745698
21
0.785698
0
LINE
8
BLACK
6
CONTINUOUS
10
0.745698
20
0.785698
11
0.750307
21
0.782249
0
LINE
8
BLACK
6
CONTINUOUS
10
0.750307
20
0.782249
11
0.750307
21
0.782248
0
LINE
8
BLACK
6
CONTINUOUS
10
0.750307
20
0.782248
11
0.755701
21
0.780237
0
LINE
8
BLACK
6
CONTINUOUS
10
0.755701
20
0.780237
11
0.755701
21
0.780237
0
LINE
8
BLACK
6
CONTINUOUS
10
0.755701
20
0.780237
11
0.758085
21
0.77998
0
LINE
8
BLACK
6
CONTINUOUS
10
0.758085
20
0.77998
11
0.758085
21
0.77998
0
LINE
8
BLACK
6
CONTINUOUS
10
0.758085
20
0.77998
11
0.821915
21
0.77998
0
LINE
8
BLACK
6
CONTINUOUS
10
0.821915
20
0.77998
11
0.824299
21
0.780237
0
LINE
8
BLACK
6
CONTINUOUS
10
0.824299
20
0.780237
11
0.824299
21
0.780237
0
LINE
8
BLACK
6
CONTINUOUS
10
0.824299
20
0.780237
11
0.829693
21
0.782248
0
LINE
8
BLACK
6
CONTINUOUS
10
0.829693
20
0.782248
11
0.829693
21
0.782249
0
LINE
8
BLACK
6
CONTINUOUS
10
0.829693
20
0.782249
11
0.834302
21
0.785698
0
LINE
8
BLACK
6
CONTINUOUS
10
0.834302
20
0.785698
11
0.837751
21
0.790307
0
LINE
8
BLACK
6
CONTINUOUS
10
0.837751
20
0.790307
11
0.837752
21
0.790307
0
LINE
8
BLACK
6
CONTINUOUS
10
0.837752
20
0.790307
11
0.839763
21
0.795701
0
LINE
8
BLACK
6
CONTINUOUS
10
0.839763
20
0.795701
11
0.839763
21
0.795701
0
LINE
8
BLACK
6
CONTINUOUS
10
0.839763
20
0.795701
11
0.84002
21
0.798085
0
LINE
8
BLACK
6
CONTINUOUS
10
0.84002
20
0.798085
11
0.84002
21
0.798085
0
LINE
8
BLACK
6
CONTINUOUS
10
0.84002
20
0.798085
11
0.84002
21
0.861915
0
LINE
8
BLACK
6
CONTINUOUS
10
0.84002
20
0.861915
11
0.84002
21
0.861915
0
LINE
8
BLACK
6
CONTINUOUS
10
0.84002
20
0.861915
11
0.839763
21
0.864299
0
LINE
8
BLACK
6
CONTINUOUS
10
0.839763
20
0.864299
11
0.839763
21
0.864299
0
LINE
8
BLACK
6
CONTINUOUS
10
0.839763
20
0.864299
11
0.839487
21
0.865041
0
LINE
8
BLACK
6
CONTINUOUS
10
0.839487
20
0.865041
11
0.837752
21
0.869693
0
LINE
8
BLACK
6
CONTINUOUS
10
0.837752
20
0.869693
11
0.834302
21
0.874302
0
LINE
8
BLACK
6
CONTINUOUS
10
0.834302
20
0.874302
11
0.833637
21
0.874799
0
LINE
8
BLACK
6
CONTINUOUS
10
0.833637
20
0.874799
11
0.829693
21
0.877751
0
LINE
8
BLACK
6
CONTINUOUS
10
0.829693
20
0.877751
11
0.829693
21
0.877751
0
LINE
8
BLACK
6
CONTINUOUS
10
0.829693
20
0.877751
11
0.829693
21
0.877752
0
LINE
8
BLACK
6
CONTINUOUS
10
0.829693
20
0.877752
11
0.824299
21
0.879763
0
LINE
8
BLACK
6
CONTINUOUS
10
0.824299
20
0.879763
11
0.824299
21
0.879763
0
LINE
8
BLACK
6
CONTINUOUS
10
0.824299
20
0.879763
11
0.824299
21
0.879763
0
LINE
8
BLACK
6
CONTINUOUS
10
0.824299
20
0.879763
11
0.821915
21
0.88002
0
LINE
8
BLACK
6
CONTINUOUS
10
0.821915
20
0.88002
11
0.821915
21
0.88002
0
LINE
8
BLACK
6
CONTINUOUS
10
0.821915
20
0.88002
11
0.821915
21
0.88002
0
LINE
8
BLACK
6
CONTINUOUS
10
0.821915
20
0.88002
11
0.821915
21
0.88002
0
LINE
8
BLACK
6
CONTINUOUS
10
0.821915
20
0.88002
11
0.818094
21
0.88002
0
LINE
8
BLACK
6
CONTINUOUS
10
0.818094
20
0.88002
11
0.815413
21
0.880807
0
LINE
8
BLACK
6
CONTINUOUS
10
0.815413
20
0.880807
11
0.813825
21
0.882455
0
LINE
8
BLACK
6
CONTINUOUS
10
0.813825
20
0.882455
11
0.813552
21
0.882915
0
LINE
8
BLACK
6
CONTINUOUS
10
0.813552
20
0.882915
11
0.81321
21
0.883615
0
LINE
8
BLACK
6
CONTINUOUS
10
0.81321
20
0.883615
11
0.812899
21
0.8844
0
LINE
8
BLACK
6
CONTINUOUS
10
0.812899
20
0.8844
11
0.811761
21
0.885966
0
LINE
8
BLACK
6
CONTINUOUS
10
0.811761
20
0.885966
11
0.811633
21
0.886161
0
LINE
8
BLACK
6
CONTINUOUS
10
0.811633
20
0.886161
11
0.811388
21
0.886575
0
LINE
8
BLACK
6
CONTINUOUS
10
0.811388
20
0.886575
11
0.810648
21
0.887827
0
LINE
8
BLACK
6
CONTINUOUS
10
0.810648
20
0.887827
11
0.81005
21
0.888424
0
LINE
8
BLACK
6
CONTINUOUS
10
0.81005
20
0.888424
11
0.809545
21
0.889016
0
LINE
8
BLACK
6
CONTINUOUS
10
0.809545
20
0.889016
11
0.809049
21
0.889699
0
LINE
8
BLACK
6
CONTINUOUS
10
0.809049
20
0.889699
11
0.809049
21
0.889699
0
LINE
8
BLACK
6
CONTINUOUS
10
0.809049
20
0.889699
11
0.807557
21
0.890933
0
LINE
8
BLACK
6
CONTINUOUS
10
0.807557
20
0.890933
11
0.807385
21
0.891089
0
LINE
8
BLACK
6
CONTINUOUS
10
0.807385
20
0.891089
11
0.797983
21
0.900491
0
LINE
8
BLACK
6
CONTINUOUS
10
0.797983
20
0.900491
11
0.796644
21
0.902945
0
LINE
8
BLACK
6
CONTINUOUS
10
0.796644
20
0.902945
11
0.796843
21
0.905733
0
LINE
8
BLACK
6
CONTINUOUS
10
0.796843
20
0.905733
11
0.798518
21
0.90797
0
LINE
8
BLACK
6
CONTINUOUS
10
0.798518
20
0.90797
11
0.801137
21
0.908947
0
LINE
8
BLACK
6
CONTINUOUS
10
0.801137
20
0.908947
11
0.801977
21
0.908936
0
LINE
8
BLACK
6
CONTINUOUS
10
0.801977
20
0.908936
11
0.803092
21
0.908826
0
LINE
8
BLACK
6
CONTINUOUS
10
0.803092
20
0.908826
11
0.803235
21
0.908812
0
LINE
8
BLACK
6
CONTINUOUS
10
0.803235
20
0.908812
11
0.803235
21
0.908812
0
LINE
8
BLACK
6
CONTINUOUS
10
0.803235
20
0.908812
11
0.803235
21
0.908812
0
LINE
8
BLACK
6
CONTINUOUS
10
0.803235
20
0.908812
11
0.810589
21
0.909536
0
LINE
8
BLACK
6
CONTINUOUS
10
0.810589
20
0.909536
11
0.810589
21
0.909536
0
LINE
8
BLACK
6
CONTINUOUS
10
0.810589
20
0.909536
11
0.817662
21
0.911682
0
LINE
8
BLACK
6
CONTINUOUS
10
0.817662
20
0.911682
11
0.817662
21
0.911682
0
LINE
8
BLACK
6
CONTINUOUS
10
0.817662
20
0.911682
11
0.82418
21
0.915166
0
LINE
8
BLACK
6
CONTINUOUS
10
0.82418
20
0.915166
11
0.829893
21
0.919854
0
LINE
8
BLACK
6
CONTINUOUS
10
0.829893
20
0.919854
11
0.834582
21
0.925568
0
LINE
8
BLACK
6
CONTINUOUS
10
0.834582
20
0.925568
11
0.838066
21
0.932086
0
LINE
8
BLACK
6
CONTINUOUS
10
0.838066
20
0.932086
11
0.840211
21
0.939158
0
LINE
8
BLACK
6
CONTINUOUS
10
0.840211
20
0.939158
11
0.840211
21
0.939158
0
LINE
8
BLACK
6
CONTINUOUS
10
0.840211
20
0.939158
11
0.840211
21
0.939158
0
LINE
8
BLACK
6
CONTINUOUS
10
0.840211
20
0.939158
11
0.840211
21
0.939158
0
LINE
8
BLACK
6
CONTINUOUS
10
0.840211
20
0.939158
11
0.840936
21
0.946513
0
LINE
8
BLACK
6
CONTINUOUS
10
0.840936
20
0.946513
11
0.840936
21
0.946513
0
LINE
8
BLACK
6
CONTINUOUS
10
0.840936
20
0.946513
11
0.840211
21
0.953868
0
LINE
8
BLACK
6
CONTINUOUS
10
0.840211
20
0.953868
11
0.840211
21
0.953868
0
LINE
8
BLACK
6
CONTINUOUS
10
0.840211
20
0.953868
11
0.840211
21
0.953868
0
LINE
8
BLACK
6
CONTINUOUS
10
0.840211
20
0.953868
11
0.840211
21
0.953868
0
LINE
8
BLACK
6
CONTINUOUS
10
0.840211
20
0.953868
11
0.838066
21
0.960941
0
LINE
8
BLACK
6
CONTINUOUS
10
0.838066
20
0.960941
11
0.834582
21
0.967459
0
LINE
8
BLACK
6
CONTINUOUS
10
0.834582
20
0.967459
11
0.829893
21
0.973172
0
LINE
8
BLACK
6
CONTINUOUS
10
0.829893
20
0.973172
11
0.82418
21
0.977861
0
LINE
8
BLACK
6
CONTINUOUS
10
0.82418
20
0.977861
11
0.817662
21
0.981345
0
LINE
8
BLACK
6
CONTINUOUS
10
0.817662
20
0.981345
11
0.81059
21
0.98349
0
LINE
8
BLACK
6
CONTINUOUS
10
0.81059
20
0.98349
11
0.806938
21
0.98385
0
LINE
8
BLACK
6
CONTINUOUS
10
0.806938
20
0.98385
11
0.804346
21
0.984896
0
LINE
8
BLACK
6
CONTINUOUS
10
0.804346
20
0.984896
11
0.803917
21
0.985278
0
LINE
8
BLACK
6
CONTINUOUS
10
0.803917
20
0.985278
11
0.726729
21
1.06247
0
LINE
8
BLACK
6
CONTINUOUS
10
0.726729
20
1.06247
11
0.725389
21
1.06492
0
LINE
8
BLACK
6
CONTINUOUS
10
0.725389
20
1.06492
11
0.725589
21
1.06771
0
LINE
8
BLACK
6
CONTINUOUS
10
0.725589
20
1.06771
11
0.726237
21
1.06883
0
LINE
8
BLACK
6
CONTINUOUS
10
0.726237
20
1.06883
11
0.726212
21
1.06885
0
LINE
8
BLACK
6
CONTINUOUS
10
0.726212
20
1.06885
11
0.726347
21
1.06905
0
LINE
8
BLACK
6
CONTINUOUS
10
0.726347
20
1.06905
11
0.72965
21
1.07523
0
LINE
8
BLACK
6
CONTINUOUS
10
0.72965
20
1.07523
11
0.731608
21
1.07723
0
LINE
8
BLACK
6
CONTINUOUS
10
0.731608
20
1.07723
11
0.734024
21
1.07785
0
LINE
8
BLACK
6
CONTINUOUS
10
0.734024
20
1.07785
11
0.81
21
1.07785
0
LINE
8
BLACK
6
CONTINUOUS
10
0.81
20
1.07785
11
0.81
21
1.09
0
LINE
8
BLACK
6
CONTINUOUS
10
0.81
20
1.09
11
0.87
21
1.09
0
LINE
8
BLACK
6
CONTINUOUS
10
0.87
20
1.09
11
0.87
21
1.07785
0
LINE
8
BLACK
6
CONTINUOUS
10
0.87
20
1.07785
11
0.88502
21
1.07785
0
LINE
8
BLACK
6
CONTINUOUS
10
0.88502
20
1.07785
11
0.887702
21
1.07707
0
LINE
8
BLACK
6
CONTINUOUS
10
0.887702
20
1.07707
11
0.889532
21
1.07495
0
LINE
8
BLACK
6
CONTINUOUS
10
0.889532
20
1.07495
11
0.88998
21
1.07289
0
LINE
8
BLACK
6
CONTINUOUS
10
0.88998
20
1.07289
11
0.88998
21
1.02808
0
LINE
8
BLACK
6
CONTINUOUS
10
0.88998
20
1.02808
11
0.890237
21
1.0257
0
LINE
8
BLACK
6
CONTINUOUS
10
0.890237
20
1.0257
11
0.890237
21
1.0257
0
LINE
8
BLACK
6
CONTINUOUS
10
0.890237
20
1.0257
11
0.892248
21
1.02031
0
LINE
8
BLACK
6
CONTINUOUS
10
0.892248
20
1.02031
11
0.892249
21
1.02031
0
LINE
8
BLACK
6
CONTINUOUS
10
0.892249
20
1.02031
11
0.895698
21
1.0157
0
LINE
8
BLACK
6
CONTINUOUS
10
0.895698
20
1.0157
11
0.900307
21
1.01225
0
LINE
8
BLACK
6
CONTINUOUS
10
0.900307
20
1.01225
11
0.900307
21
1.01225
0
LINE
8
BLACK
6
CONTINUOUS
10
0.900307
20
1.01225
11
0.905701
21
1.01024
0
LINE
8
BLACK
6
CONTINUOUS
10
0.905701
20
1.01024
11
0.905701
21
1.01024
0
LINE
8
BLACK
6
CONTINUOUS
10
0.905701
20
1.01024
11
0.908085
21
1.00998
0
LINE
8
BLACK
6
CONTINUOUS
10
0.908085
20
1.00998
11
0.908085
21
1.00998
0
LINE
8
BLACK
6
CONTINUOUS
10
0.908085
20
1.00998
11
0.971915
21
1.00998
0
LINE
8
BLACK
6
CONTINUOUS
10
0.971915
20
1.00998
11
0.974299
21
1.01024
0
LINE
8
BLACK
6
CONTINUOUS
10
0.974299
20
1.01024
11
0.974299
21
1.01024
0
LINE
8
BLACK
6
CONTINUOUS
10
0.974299
20
1.01024
11
0.979693
21
1.01225
0
LINE
8
BLACK
6
CONTINUOUS
10
0.979693
20
1.01225
11
0.979693
21
1.01225
0
LINE
8
BLACK
6
CONTINUOUS
10
0.979693
20
1.01225
11
0.984302
21
1.0157
0
LINE
8
BLACK
6
CONTINUOUS
10
0.984302
20
1.0157
11
0.986029
21
1.01801
0
LINE
8
BLACK
6
CONTINUOUS
10
0.986029
20
1.01801
11
0.988266
21
1.01968
0
LINE
8
BLACK
6
CONTINUOUS
10
0.988266
20
1.01968
11
0.991054
21
1.01988
0
LINE
8
BLACK
6
CONTINUOUS
10
0.991054
20
1.01988
11
0.993508
21
1.01854
0
LINE
8
BLACK
6
CONTINUOUS
10
0.993508
20
1.01854
11
0.993971
21
1.01801
0
LINE
8
BLACK
6
CONTINUOUS
10
0.993971
20
1.01801
11
0.995698
21
1.0157
0
LINE
8
BLACK
6
CONTINUOUS
10
0.995698
20
1.0157
11
1.00031
21
1.01225
0
LINE
8
BLACK
6
CONTINUOUS
10
1.00031
20
1.01225
11
1.00031
21
1.01225
0
LINE
8
BLACK
6
CONTINUOUS
10
1.00031
20
1.01225
11
1.0057
21
1.01024
0
LINE
8
BLACK
6
CONTINUOUS
10
1.0057
20
1.01024
11
1.0057
21
1.01024
0
LINE
8
BLACK
6
CONTINUOUS
10
1.0057
20
1.01024
11
1.00808
21
1.00998
0
LINE
8
BLACK
6
CONTINUOUS
10
1.00808
20
1.00998
11
1.00809
21
1.00998
0
LINE
8
BLACK
6
CONTINUOUS
10
1.00809
20
1.00998
11
1.07192
21
1.00998
0
LINE
8
BLACK
6
CONTINUOUS
10
1.07192
20
1.00998
11
1.0743
21
1.01024
0
LINE
8
BLACK
6
CONTINUOUS
10
1.0743
20
1.01024
11
1.0743
21
1.01024
0
LINE
8
BLACK
6
CONTINUOUS
10
1.0743
20
1.01024
11
1.07969
21
1.01225
0
LINE
8
BLACK
6
CONTINUOUS
10
1.07969
20
1.01225
11
1.07969
21
1.01225
0
LINE
8
BLACK
6
CONTINUOUS
10
1.07969
20
1.01225
11
1.0843
21
1.0157
0
LINE
8
BLACK
6
CONTINUOUS
10
1.0843
20
1.0157
11
1.08775
21
1.02031
0
LINE
8
BLACK
6
CONTINUOUS
10
1.08775
20
1.02031
11
1.08775
21
1.02031
0
LINE
8
BLACK
6
CONTINUOUS
10
1.08775
20
1.02031
11
1.08976
21
1.0257
0
LINE
8
BLACK
6
CONTINUOUS
10
1.08976
20
1.0257
11
1.08976
21
1.0257
0
LINE
8
BLACK
6
CONTINUOUS
10
1.08976
20
1.0257
11
1.09002
21
1.02808
0
LINE
8
BLACK
6
CONTINUOUS
10
1.09002
20
1.02808
11
1.09002
21
1.02809
0
LINE
8
BLACK
6
CONTINUOUS
10
1.09002
20
1.02809
11
1.09002
21
1.09191
0
LINE
8
BLACK
6
CONTINUOUS
10
1.09002
20
1.09191
11
1.09002
21
1.09192
0
LINE
8
BLACK
6
CONTINUOUS
10
1.09002
20
1.09192
11
1.08976
21
1.0943
0
LINE
8
BLACK
6
CONTINUOUS
10
1.08976
20
1.0943
11
1.08976
21
1.0943
0
LINE
8
BLACK
6
CONTINUOUS
10
1.08976
20
1.0943
11
1.08862
21
1.09736
0
LINE
8
BLACK
6
CONTINUOUS
10
1.08862
20
1.09736
11
1.08775
21
1.09969
0
LINE
8
BLACK
6
CONTINUOUS
10
1.08775
20
1.09969
11
1.08761
21
1.09988
0
LINE
8
BLACK
6
CONTINUOUS
10
1.08761
20
1.09988
11
1.0843
21
1.1043
0
LINE
8
BLACK
6
CONTINUOUS
10
1.0843
20
1.1043
11
1.08199
21
1.10603
0
LINE
8
BLACK
6
CONTINUOUS
10
1.08199
20
1.10603
11
1.08032
21
1.10827
0
LINE
8
BLACK
6
CONTINUOUS
10
1.08032
20
1.10827
11
1.08012
21
1.11105
0
LINE
8
BLACK
6
CONTINUOUS
10
1.08012
20
1.11105
11
1.08146
21
1.11351
0
LINE
8
BLACK
6
CONTINUOUS
10
1.08146
20
1.11351
11
1.08199
21
1.11397
0
LINE
8
BLACK
6
CONTINUOUS
10
1.08199
20
1.11397
11
1.0843
21
1.1157
0
LINE
8
BLACK
6
CONTINUOUS
10
1.0843
20
1.1157
11
1.08775
21
1.12031
0
LINE
8
BLACK
6
CONTINUOUS
10
1.08775
20
1.12031
11
1.08775
21
1.12031
0
LINE
8
BLACK
6
CONTINUOUS
10
1.08775
20
1.12031
11
1.08976
21
1.1257
0
LINE
8
BLACK
6
CONTINUOUS
10
1.08976
20
1.1257
11
1.08976
21
1.1257
0
LINE
8
BLACK
6
CONTINUOUS
10
1.08976
20
1.1257
11
1.09002
21
1.12808
0
LINE
8
BLACK
6
CONTINUOUS
10
1.09002
20
1.12808
11
1.09002
21
1.12809
0
LINE
8
BLACK
6
CONTINUOUS
10
1.09002
20
1.12809
11
1.09002
21
1.19191
0
LINE
8
BLACK
6
CONTINUOUS
10
1.09002
20
1.19191
11
1.09002
21
1.19192
0
LINE
8
BLACK
6
CONTINUOUS
10
1.09002
20
1.19192
11
1.08976
21
1.1943
0
LINE
8
BLACK
6
CONTINUOUS
10
1.08976
20
1.1943
11
1.08976
21
1.1943
0
LINE
8
BLACK
6
CONTINUOUS
10
1.08976
20
1.1943
11
1.08924
21
1.1957
0
LINE
8
BLACK
6
CONTINUOUS
10
1.08924
20
1.1957
11
1.08775
21
1.19969
0
LINE
8
BLACK
6
CONTINUOUS
10
1.08775
20
1.19969
11
1.08612
21
1.20187
0
LINE
8
BLACK
6
CONTINUOUS
10
1.08612
20
1.20187
11
1.0843
21
1.2043
0
LINE
8
BLACK
6
CONTINUOUS
10
1.0843
20
1.2043
11
1.07969
21
1.20775
0
LINE
8
BLACK
6
CONTINUOUS
10
1.07969
20
1.20775
11
1.07969
21
1.20775
0
LINE
8
BLACK
6
CONTINUOUS
10
1.07969
20
1.20775
11
1.07969
21
1.20775
0
LINE
8
BLACK
6
CONTINUOUS
10
1.07969
20
1.20775
11
1.0743
21
1.20976
0
LINE
8
BLACK
6
CONTINUOUS
10
1.0743
20
1.20976
11
1.07398
21
1.2098
0
LINE
8
BLACK
6
CONTINUOUS
10
1.07398
20
1.2098
11
1.0714
21
1.21087
0
LINE
8
BLACK
6
CONTINUOUS
10
1.0714
20
1.21087
11
1.06981
21
1.21316
0
LINE
8
BLACK
6
CONTINUOUS
10
1.06981
20
1.21316
11
1.06957
21
1.2143
0
LINE
8
BLACK
6
CONTINUOUS
10
1.06957
20
1.2143
11
1.06944
21
1.21576
0
LINE
8
BLACK
6
CONTINUOUS
10
1.06944
20
1.21576
11
1.06944
21
1.21576
0
LINE
8
BLACK
6
CONTINUOUS
10
1.06944
20
1.21576
11
1.06939
21
1.21605
0
LINE
8
BLACK
6
CONTINUOUS
10
1.06939
20
1.21605
11
1.06939
21
1.21605
0
LINE
8
BLACK
6
CONTINUOUS
10
1.06939
20
1.21605
11
1.06932
21
1.21634
0
LINE
8
BLACK
6
CONTINUOUS
10
1.06932
20
1.21634
11
1.06932
21
1.21634
0
LINE
8
BLACK
6
CONTINUOUS
10
1.06932
20
1.21634
11
1.06926
21
1.21662
0
LINE
8
BLACK
6
CONTINUOUS
10
1.06926
20
1.21662
11
1.06926
21
1.21662
0
LINE
8
BLACK
6
CONTINUOUS
10
1.06926
20
1.21662
11
1.06822
21
1.21946
0
LINE
8
BLACK
6
CONTINUOUS
10
1.06822
20
1.21946
11
1.0682
21
1.21952
0
LINE
8
BLACK
6
CONTINUOUS
10
1.0682
20
1.21952
11
1.06725
21
1.22239
0
LINE
8
BLACK
6
CONTINUOUS
10
1.06725
20
1.22239
11
1.06725
21
1.22239
0
LINE
8
BLACK
6
CONTINUOUS
10
1.06725
20
1.22239
11
1.06713
21
1.22265
0
LINE
8
BLACK
6
CONTINUOUS
10
1.06713
20
1.22265
11
1.06713
21
1.22265
0
LINE
8
BLACK
6
CONTINUOUS
10
1.06713
20
1.22265
11
1.067
21
1.22292
0
LINE
8
BLACK
6
CONTINUOUS
10
1.067
20
1.22292
11
1.067
21
1.22292
0
LINE
8
BLACK
6
CONTINUOUS
10
1.067
20
1.22292
11
1.06687
21
1.22318
0
LINE
8
BLACK
6
CONTINUOUS
10
1.06687
20
1.22318
11
1.06687
21
1.22318
0
LINE
8
BLACK
6
CONTINUOUS
10
1.06687
20
1.22318
11
1.06521
21
1.2257
0
LINE
8
BLACK
6
CONTINUOUS
10
1.06521
20
1.2257
11
1.06517
21
1.22576
0
LINE
8
BLACK
6
CONTINUOUS
10
1.06517
20
1.22576
11
1.06358
21
1.22833
0
LINE
8
BLACK
6
CONTINUOUS
10
1.06358
20
1.22833
11
1.06358
21
1.22833
0
LINE
8
BLACK
6
CONTINUOUS
10
1.06358
20
1.22833
11
1.0634
21
1.22856
0
LINE
8
BLACK
6
CONTINUOUS
10
1.0634
20
1.22856
11
1.06341
21
1.22856
0
LINE
8
BLACK
6
CONTINUOUS
10
1.06341
20
1.22856
11
1.06322
21
1.22879
0
LINE
8
BLACK
6
CONTINUOUS
10
1.06322
20
1.22879
11
1.06322
21
1.22879
0
LINE
8
BLACK
6
CONTINUOUS
10
1.06322
20
1.22879
11
1.06303
21
1.22901
0
LINE
8
BLACK
6
CONTINUOUS
10
1.06303
20
1.22901
11
1.06303
21
1.22901
0
LINE
8
BLACK
6
CONTINUOUS
10
1.06303
20
1.22901
11
1.06083
21
1.23109
0
LINE
8
BLACK
6
CONTINUOUS
10
1.06083
20
1.23109
11
1.06078
21
1.23113
0
LINE
8
BLACK
6
CONTINUOUS
10
1.06078
20
1.23113
11
1.04759
21
1.24432
0
LINE
8
BLACK
6
CONTINUOUS
10
1.04759
20
1.24432
11
1.04712
21
1.24487
0
LINE
8
BLACK
6
CONTINUOUS
10
1.04712
20
1.24487
11
1.04655
21
1.24563
0
LINE
8
BLACK
6
CONTINUOUS
10
1.04655
20
1.24563
11
1.04496
21
1.24697
0
LINE
8
BLACK
6
CONTINUOUS
10
1.04496
20
1.24697
11
1.0448
21
1.24711
0
LINE
8
BLACK
6
CONTINUOUS
10
1.0448
20
1.24711
11
1.04457
21
1.24735
0
LINE
8
BLACK
6
CONTINUOUS
10
1.04457
20
1.24735
11
1.04357
21
1.24813
0
LINE
8
BLACK
6
CONTINUOUS
10
1.04357
20
1.24813
11
1.04352
21
1.24818
0
LINE
8
BLACK
6
CONTINUOUS
10
1.04352
20
1.24818
11
1.04121
21
1.25012
0
LINE
8
BLACK
6
CONTINUOUS
10
1.04121
20
1.25012
11
1.04121
21
1.25012
0
LINE
8
BLACK
6
CONTINUOUS
10
1.04121
20
1.25012
11
1.04121
21
1.25012
0
LINE
8
BLACK
6
CONTINUOUS
10
1.04121
20
1.25012
11
1.04096
21
1.25028
0
LINE
8
BLACK
6
CONTINUOUS
10
1.04096
20
1.25028
11
1.04097
21
1.25028
0
LINE
8
BLACK
6
CONTINUOUS
10
1.04097
20
1.25028
11
1.04072
21
1.25044
0
LINE
8
BLACK
6
CONTINUOUS
10
1.04072
20
1.25044
11
1.04071
21
1.25044
0
LINE
8
BLACK
6
CONTINUOUS
10
1.04071
20
1.25044
11
1.04047
21
1.25059
0
LINE
8
BLACK
6
CONTINUOUS
10
1.04047
20
1.25059
11
1.03773
21
1.25187
0
LINE
8
BLACK
6
CONTINUOUS
10
1.03773
20
1.25187
11
1.03767
21
1.2519
0
LINE
8
BLACK
6
CONTINUOUS
10
1.03767
20
1.2519
11
1.03497
21
1.25325
0
LINE
8
BLACK
6
CONTINUOUS
10
1.03497
20
1.25325
11
1.03497
21
1.25325
0
LINE
8
BLACK
6
CONTINUOUS
10
1.03497
20
1.25325
11
1.0347
21
1.25335
0
LINE
8
BLACK
6
CONTINUOUS
10
1.0347
20
1.25335
11
1.0347
21
1.25335
0
LINE
8
BLACK
6
CONTINUOUS
10
1.0347
20
1.25335
11
1.03442
21
1.25345
0
LINE
8
BLACK
6
CONTINUOUS
10
1.03442
20
1.25345
11
1.03442
21
1.25345
0
LINE
8
BLACK
6
CONTINUOUS
10
1.03442
20
1.25345
11
1.03414
21
1.25354
0
LINE
8
BLACK
6
CONTINUOUS
10
1.03414
20
1.25354
11
1.03343
21
1.25369
0
LINE
8
BLACK
6
CONTINUOUS
10
1.03343
20
1.25369
11
1.03118
21
1.25415
0
LINE
8
BLACK
6
CONTINUOUS
10
1.03118
20
1.25415
11
1.03111
21
1.25417
0
LINE
8
BLACK
6
CONTINUOUS
10
1.03111
20
1.25417
11
1.02818
21
1.25486
0
LINE
8
BLACK
6
CONTINUOUS
10
1.02818
20
1.25486
11
1.02818
21
1.25486
0
LINE
8
BLACK
6
CONTINUOUS
10
1.02818
20
1.25486
11
1.02789
21
1.2549
0
LINE
8
BLACK
6
CONTINUOUS
10
1.02789
20
1.2549
11
1.02789
21
1.2549
0
LINE
8
BLACK
6
CONTINUOUS
10
1.02789
20
1.2549
11
1.02759
21
1.25493
0
LINE
8
BLACK
6
CONTINUOUS
10
1.02759
20
1.25493
11
1.02759
21
1.25493
0
LINE
8
BLACK
6
CONTINUOUS
10
1.02759
20
1.25493
11
1.02731
21
1.25495
0
LINE
8
BLACK
6
CONTINUOUS
10
1.02731
20
1.25495
11
1.02731
21
1.25495
0
LINE
8
BLACK
6
CONTINUOUS
10
1.02731
20
1.25495
11
1.02549
21
1.2549
0
LINE
8
BLACK
6
CONTINUOUS
10
1.02549
20
1.2549
11
1.02428
21
1.25486
0
LINE
8
BLACK
6
CONTINUOUS
10
1.02428
20
1.25486
11
1.02421
21
1.25486
0
LINE
8
BLACK
6
CONTINUOUS
10
1.02421
20
1.25486
11
0.687239
21
1.25486
0
LINE
8
BLACK
6
CONTINUOUS
10
0.687239
20
1.25486
11
0.684557
21
1.25565
0
LINE
8
BLACK
6
CONTINUOUS
10
0.684557
20
1.25565
11
0.683731
21
1.25631
0
LINE
8
BLACK
6
CONTINUOUS
10
0.683731
20
1.25631
11
0.665919
21
1.27413
0
LINE
8
BLACK
6
CONTINUOUS
10
0.665919
20
1.27413
11
0.665919
21
1.27413
0
LINE
8
BLACK
6
CONTINUOUS
10
0.665919
20
1.27413
11
0.644082
21
1.29596
0
LINE
8
BLACK
6
CONTINUOUS
10
0.644082
20
1.29596
11
0.642743
21
1.29842
0
LINE
8
BLACK
6
CONTINUOUS
10
0.642743
20
1.29842
11
0.642942
21
1.30121
0
LINE
8
BLACK
6
CONTINUOUS
10
0.642942
20
1.30121
11
0.644083
21
1.30298
0
LINE
8
BLACK
6
CONTINUOUS
10
0.644083
20
1.30298
11
0.644302
21
1.3032
0
LINE
8
BLACK
6
CONTINUOUS
10
0.644302
20
1.3032
11
0.646029
21
1.30551
0
LINE
8
BLACK
6
CONTINUOUS
10
0.646029
20
1.30551
11
0.648266
21
1.30718
0
LINE
8
BLACK
6
CONTINUOUS
10
0.648266
20
1.30718
11
0.651054
21
1.30738
0
LINE
8
BLACK
6
CONTINUOUS
10
0.651054
20
1.30738
11
0.653508
21
1.30604
0
LINE
8
BLACK
6
CONTINUOUS
10
0.653508
20
1.30604
11
0.653971
21
1.30551
0
LINE
8
BLACK
6
CONTINUOUS
10
0.653971
20
1.30551
11
0.655698
21
1.3032
0
LINE
8
BLACK
6
CONTINUOUS
10
0.655698
20
1.3032
11
0.660307
21
1.29975
0
LINE
8
BLACK
6
CONTINUOUS
10
0.660307
20
1.29975
11
0.660307
21
1.29975
0
LINE
8
BLACK
6
CONTINUOUS
10
0.660307
20
1.29975
11
0.665701
21
1.29774
0
LINE
8
BLACK
6
CONTINUOUS
10
0.665701
20
1.29774
11
0.665701
21
1.29774
0
LINE
8
BLACK
6
CONTINUOUS
10
0.665701
20
1.29774
11
0.668085
21
1.29748
0
LINE
8
BLACK
6
CONTINUOUS
10
0.668085
20
1.29748
11
0.668085
21
1.29748
0
LINE
8
BLACK
6
CONTINUOUS
10
0.668085
20
1.29748
11
0.731915
21
1.29748
0
LINE
8
BLACK
6
CONTINUOUS
10
0.731915
20
1.29748
11
0.734299
21
1.29774
0
LINE
8
BLACK
6
CONTINUOUS
10
0.734299
20
1.29774
11
0.734299
21
1.29774
0
LINE
8
BLACK
6
CONTINUOUS
10
0.734299
20
1.29774
11
0.739693
21
1.29975
0
LINE
8
BLACK
6
CONTINUOUS
10
0.739693
20
1.29975
11
0.739693
21
1.29975
0
LINE
8
BLACK
6
CONTINUOUS
10
0.739693
20
1.29975
11
0.744302
21
1.3032
0
LINE
8
BLACK
6
CONTINUOUS
10
0.744302
20
1.3032
11
0.747751
21
1.30781
0
LINE
8
BLACK
6
CONTINUOUS
10
0.747751
20
1.30781
11
0.747752
21
1.30781
0
LINE
8
BLACK
6
CONTINUOUS
10
0.747752
20
1.30781
11
0.749763
21
1.3132
0
LINE
8
BLACK
6
CONTINUOUS
10
0.749763
20
1.3132
11
0.749763
21
1.3132
0
LINE
8
BLACK
6
CONTINUOUS
10
0.749763
20
1.3132
11
0.75002
21
1.31558
0
LINE
8
BLACK
6
CONTINUOUS
10
0.75002
20
1.31558
11
0.75002
21
1.31559
0
LINE
8
BLACK
6
CONTINUOUS
10
0.75002
20
1.31559
11
0.75002
21
1.37941
0
LINE
8
BLACK
6
CONTINUOUS
10
0.75002
20
1.37941
11
0.75002
21
1.37942
0
LINE
8
BLACK
6
CONTINUOUS
10
0.75002
20
1.37942
11
0.749763
21
1.3818
0
LINE
8
BLACK
6
CONTINUOUS
10
0.749763
20
1.3818
11
0.749763
21
1.3818
0
LINE
8
BLACK
6
CONTINUOUS
10
0.749763
20
1.3818
11
0.749487
21
1.38254
0
LINE
8
BLACK
6
CONTINUOUS
10
0.749487
20
1.38254
11
0.747752
21
1.38719
0
LINE
8
BLACK
6
CONTINUOUS
10
0.747752
20
1.38719
11
0.744302
21
1.3918
0
LINE
8
BLACK
6
CONTINUOUS
10
0.744302
20
1.3918
11
0.744302
21
1.3918
0
LINE
8
BLACK
6
CONTINUOUS
10
0.744302
20
1.3918
11
0.741994
21
1.39353
0
LINE
8
BLACK
6
CONTINUOUS
10
0.741994
20
1.39353
11
0.740319
21
1.39577
0
LINE
8
BLACK
6
CONTINUOUS
10
0.740319
20
1.39577
11
0.74012
21
1.39855
0
LINE
8
BLACK
6
CONTINUOUS
10
0.74012
20
1.39855
11
0.741459
21
1.40101
0
LINE
8
BLACK
6
CONTINUOUS
10
0.741459
20
1.40101
11
0.741994
21
1.40147
0
LINE
8
BLACK
6
CONTINUOUS
10
0.741994
20
1.40147
11
0.744302
21
1.4032
0
LINE
8
BLACK
6
CONTINUOUS
10
0.744302
20
1.4032
11
0.747751
21
1.40781
0
LINE
8
BLACK
6
CONTINUOUS
10
0.747751
20
1.40781
11
0.747752
21
1.40781
0
LINE
8
BLACK
6
CONTINUOUS
10
0.747752
20
1.40781
11
0.749763
21
1.4132
0
LINE
8
BLACK
6
CONTINUOUS
10
0.749763
20
1.4132
11
0.749763
21
1.4132
0
LINE
8
BLACK
6
CONTINUOUS
10
0.749763
20
1.4132
11
0.75002
21
1.41558
0
LINE
8
BLACK
6
CONTINUOUS
10
0.75002
20
1.41558
11
0.75002
21
1.41559
0
LINE
8
BLACK
6
CONTINUOUS
10
0.75002
20
1.41559
11
0.75002
21
1.47941
0
LINE
8
BLACK
6
CONTINUOUS
10
0.75002
20
1.47941
11
0.75002
21
1.47942
0
LINE
8
BLACK
6
CONTINUOUS
10
0.75002
20
1.47942
11
0.749763
21
1.4818
0
LINE
8
BLACK
6
CONTINUOUS
10
0.749763
20
1.4818
11
0.749763
21
1.4818
0
LINE
8
BLACK
6
CONTINUOUS
10
0.749763
20
1.4818
11
0.749487
21
1.48254
0
LINE
8
BLACK
6
CONTINUOUS
10
0.749487
20
1.48254
11
0.747752
21
1.48719
0
LINE
8
BLACK
6
CONTINUOUS
10
0.747752
20
1.48719
11
0.744302
21
1.4918
0
LINE
8
BLACK
6
CONTINUOUS
10
0.744302
20
1.4918
11
0.739693
21
1.49525
0
LINE
8
BLACK
6
CONTINUOUS
10
0.739693
20
1.49525
11
0.734299
21
1.49726
0
LINE
8
BLACK
6
CONTINUOUS
10
0.734299
20
1.49726
11
0.734299
21
1.49726
0
LINE
8
BLACK
6
CONTINUOUS
10
0.734299
20
1.49726
11
0.734299
21
1.49726
0
LINE
8
BLACK
6
CONTINUOUS
10
0.734299
20
1.49726
11
0.731915
21
1.49752
0
LINE
8
BLACK
6
CONTINUOUS
10
0.731915
20
1.49752
11
0.731915
21
1.49752
0
LINE
8
BLACK
6
CONTINUOUS
10
0.731915
20
1.49752
11
0.731915
21
1.49752
0
LINE
8
BLACK
6
CONTINUOUS
10
0.731915
20
1.49752
11
0.668085
21
1.49752
0
LINE
8
BLACK
6
CONTINUOUS
10
0.668085
20
1.49752
11
0.668085
21
1.49752
0
LINE
8
BLACK
6
CONTINUOUS
10
0.668085
20
1.49752
11
0.668085
21
1.49752
0
LINE
8
BLACK
6
CONTINUOUS
10
0.668085
20
1.49752
11
0.665701
21
1.49726
0
LINE
8
BLACK
6
CONTINUOUS
10
0.665701
20
1.49726
11
0.665701
21
1.49726
0
LINE
8
BLACK
6
CONTINUOUS
10
0.665701
20
1.49726
11
0.662633
21
1.49612
0
LINE
8
BLACK
6
CONTINUOUS
10
0.662633
20
1.49612
11
0.660307
21
1.49525
0
LINE
8
BLACK
6
CONTINUOUS
10
0.660307
20
1.49525
11
0.660307
21
1.49525
0
LINE
8
BLACK
6
CONTINUOUS
10
0.660307
20
1.49525
11
0.660307
21
1.49525
0
LINE
8
BLACK
6
CONTINUOUS
10
0.660307
20
1.49525
11
0.655698
21
1.4918
0
LINE
8
BLACK
6
CONTINUOUS
10
0.655698
20
1.4918
11
0.653971
21
1.48949
0
LINE
8
BLACK
6
CONTINUOUS
10
0.653971
20
1.48949
11
0.651733
21
1.48782
0
LINE
8
BLACK
6
CONTINUOUS
10
0.651733
20
1.48782
11
0.648945
21
1.48762
0
LINE
8
BLACK
6
CONTINUOUS
10
0.648945
20
1.48762
11
0.646492
21
1.48896
0
LINE
8
BLACK
6
CONTINUOUS
10
0.646492
20
1.48896
11
0.646029
21
1.48949
0
LINE
8
BLACK
6
CONTINUOUS
10
0.646029
20
1.48949
11
0.644302
21
1.4918
0
LINE
8
BLACK
6
CONTINUOUS
10
0.644302
20
1.4918
11
0.639693
21
1.49525
0
LINE
8
BLACK
6
CONTINUOUS
10
0.639693
20
1.49525
11
0.634299
21
1.49726
0
LINE
8
BLACK
6
CONTINUOUS
10
0.634299
20
1.49726
11
0.634299
21
1.49726
0
LINE
8
BLACK
6
CONTINUOUS
10
0.634299
20
1.49726
11
0.634299
21
1.49726
0
LINE
8
BLACK
6
CONTINUOUS
10
0.634299
20
1.49726
11
0.631915
21
1.49752
0
LINE
8
BLACK
6
CONTINUOUS
10
0.631915
20
1.49752
11
0.631915
21
1.49752
0
LINE
8
BLACK
6
CONTINUOUS
10
0.631915
20
1.49752
11
0.631915
21
1.49752
0
LINE
8
BLACK
6
CONTINUOUS
10
0.631915
20
1.49752
11
0.568085
21
1.49752
0
LINE
8
BLACK
6
CONTINUOUS
10
0.568085
20
1.49752
11
0.568085
21
1.49752
0
LINE
8
BLACK
6
CONTINUOUS
10
0.568085
20
1.49752
11
0.568085
21
1.49752
0
LINE
8
BLACK
6
CONTINUOUS
10
0.568085
20
1.49752
11
0.565701
21
1.49726
0
LINE
8
BLACK
6
CONTINUOUS
10
0.565701
20
1.49726
11
0.565701
21
1.49726
0
LINE
8
BLACK
6
CONTINUOUS
10
0.565701
20
1.49726
11
0.562633
21
1.49612
0
LINE
8
BLACK
6
CONTINUOUS
10
0.562633
20
1.49612
11
0.560307
21
1.49525
0
LINE
8
BLACK
6
CONTINUOUS
10
0.560307
20
1.49525
11
0.560307
21
1.49525
0
LINE
8
BLACK
6
CONTINUOUS
10
0.560307
20
1.49525
11
0.560307
21
1.49525
0
LINE
8
BLACK
6
CONTINUOUS
10
0.560307
20
1.49525
11
0.555698
21
1.4918
0
LINE
8
BLACK
6
CONTINUOUS
10
0.555698
20
1.4918
11
0.553971
21
1.48949
0
LINE
8
BLACK
6
CONTINUOUS
10
0.553971
20
1.48949
11
0.551733
21
1.48782
0
LINE
8
BLACK
6
CONTINUOUS
10
0.551733
20
1.48782
11
0.548945
21
1.48762
0
LINE
8
BLACK
6
CONTINUOUS
10
0.548945
20
1.48762
11
0.546492
21
1.48896
0
LINE
8
BLACK
6
CONTINUOUS
10
0.546492
20
1.48896
11
0.546029
21
1.48949
0
LINE
8
BLACK
6
CONTINUOUS
10
0.546029
20
1.48949
11
0.544302
21
1.4918
0
LINE
8
BLACK
6
CONTINUOUS
10
0.544302
20
1.4918
11
0.539693
21
1.49525
0
LINE
8
BLACK
6
CONTINUOUS
10
0.539693
20
1.49525
11
0.534299
21
1.49726
0
LINE
8
BLACK
6
CONTINUOUS
10
0.534299
20
1.49726
11
0.534299
21
1.49726
0
LINE
8
BLACK
6
CONTINUOUS
10
0.534299
20
1.49726
11
0.534299
21
1.49726
0
LINE
8
BLACK
6
CONTINUOUS
10
0.534299
20
1.49726
11
0.531915
21
1.49752
0
LINE
8
BLACK
6
CONTINUOUS
10
0.531915
20
1.49752
11
0.531915
21
1.49752
0
LINE
8
BLACK
6
CONTINUOUS
10
0.531915
20
1.49752
11
0.531915
21
1.49752
0
LINE
8
BLACK
6
CONTINUOUS
10
0.531915
20
1.49752
11
0.468085
21
1.49752
0
LINE
8
BLACK
6
CONTINUOUS
10
0.468085
20
1.49752
11
0.468085
21
1.49752
0
LINE
8
BLACK
6
CONTINUOUS
10
0.468085
20
1.49752
11
0.468085
21
1.49752
0
LINE
8
BLACK
6
CONTINUOUS
10
0.468085
20
1.49752
11
0.465701
21
1.49726
0
LINE
8
BLACK
6
CONTINUOUS
10
0.465701
20
1.49726
11
0.465701
21
1.49726
0
LINE
8
BLACK
6
CONTINUOUS
10
0.465701
20
1.49726
11
0.462633
21
1.49612
0
LINE
8
BLACK
6
CONTINUOUS
10
0.462633
20
1.49612
11
0.460307
21
1.49525
0
LINE
8
BLACK
6
CONTINUOUS
10
0.460307
20
1.49525
11
0.460307
21
1.49525
0
LINE
8
BLACK
6
CONTINUOUS
10
0.460307
20
1.49525
11
0.460307
21
1.49525
0
LINE
8
BLACK
6
CONTINUOUS
10
0.460307
20
1.49525
11
0.455698
21
1.4918
0
LINE
8
BLACK
6
CONTINUOUS
10
0.455698
20
1.4918
11
0.452249
21
1.48719
0
LINE
8
BLACK
6
CONTINUOUS
10
0.452249
20
1.48719
11
0.452248
21
1.48719
0
LINE
8
BLACK
6
CONTINUOUS
10
0.452248
20
1.48719
11
0.450237
21
1.4818
0
LINE
8
BLACK
6
CONTINUOUS
10
0.450237
20
1.4818
11
0.450237
21
1.4818
0
LINE
8
BLACK
6
CONTINUOUS
10
0.450237
20
1.4818
11
0.44998
21
1.47942
0
LINE
8
BLACK
6
CONTINUOUS
10
0.44998
20
1.47942
11
0.44998
21
1.41558
0
LINE
8
BLACK
6
CONTINUOUS
10
0.44998
20
1.41558
11
0.450237
21
1.4132
0
LINE
8
BLACK
6
CONTINUOUS
10
0.450237
20
1.4132
11
0.450237
21
1.4132
0
LINE
8
BLACK
6
CONTINUOUS
10
0.450237
20
1.4132
11
0.452248
21
1.40781
0
LINE
8
BLACK
6
CONTINUOUS
10
0.452248
20
1.40781
11
0.452249
21
1.40781
0
LINE
8
BLACK
6
CONTINUOUS
10
0.452249
20
1.40781
11
0.455698
21
1.4032
0
LINE
8
BLACK
6
CONTINUOUS
10
0.455698
20
1.4032
11
0.458006
21
1.40147
0
LINE
8
BLACK
6
CONTINUOUS
10
0.458006
20
1.40147
11
0.459681
21
1.39923
0
LINE
8
BLACK
6
CONTINUOUS
10
0.459681
20
1.39923
11
0.45988
21
1.39645
0
LINE
8
BLACK
6
CONTINUOUS
10
0.45988
20
1.39645
11
0.45854
21
1.39399
0
LINE
8
BLACK
6
CONTINUOUS
10
0.45854
20
1.39399
11
0.458006
21
1.39353
0
LINE
8
BLACK
6
CONTINUOUS
10
0.458006
20
1.39353
11
0.455698
21
1.3918
0
LINE
8
BLACK
6
CONTINUOUS
10
0.455698
20
1.3918
11
0.452249
21
1.38719
0
LINE
8
BLACK
6
CONTINUOUS
10
0.452249
20
1.38719
11
0.452248
21
1.38719
0
LINE
8
BLACK
6
CONTINUOUS
10
0.452248
20
1.38719
11
0.450237
21
1.3818
0
LINE
8
BLACK
6
CONTINUOUS
10
0.450237
20
1.3818
11
0.450237
21
1.3818
0
LINE
8
BLACK
6
CONTINUOUS
10
0.450237
20
1.3818
11
0.44998
21
1.37942
0
LINE
8
BLACK
6
CONTINUOUS
10
0.44998
20
1.37942
11
0.44998
21
1.31558
0
LINE
8
BLACK
6
CONTINUOUS
10
0.44998
20
1.31558
11
0.450237
21
1.3132
0
LINE
8
BLACK
6
CONTINUOUS
10
0.450237
20
1.3132
11
0.450237
21
1.3132
0
LINE
8
BLACK
6
CONTINUOUS
10
0.450237
20
1.3132
11
0.452248
21
1.30781
0
LINE
8
BLACK
6
CONTINUOUS
10
0.452248
20
1.30781
11
0.452249
21
1.30781
0
LINE
8
BLACK
6
CONTINUOUS
10
0.452249
20
1.30781
11
0.455698
21
1.3032
0
LINE
8
BLACK
6
CONTINUOUS
10
0.455698
20
1.3032
11
0.460307
21
1.29975
0
LINE
8
BLACK
6
CONTINUOUS
10
0.460307
20
1.29975
11
0.460307
21
1.29975
0
LINE
8
BLACK
6
CONTINUOUS
10
0.460307
20
1.29975
11
0.465701
21
1.29774
0
LINE
8
BLACK
6
CONTINUOUS
10
0.465701
20
1.29774
11
0.465701
21
1.29774
0
LINE
8
BLACK
6
CONTINUOUS
10
0.465701
20
1.29774
11
0.468085
21
1.29748
0
LINE
8
BLACK
6
CONTINUOUS
10
0.468085
20
1.29748
11
0.468085
21
1.29748
0
LINE
8
BLACK
6
CONTINUOUS
10
0.468085
20
1.29748
11
0.531915
21
1.29748
0
LINE
8
BLACK
6
CONTINUOUS
10
0.531915
20
1.29748
11
0.534299
21
1.29774
0
LINE
8
BLACK
6
CONTINUOUS
10
0.534299
20
1.29774
11
0.534299
21
1.29774
0
LINE
8
BLACK
6
CONTINUOUS
10
0.534299
20
1.29774
11
0.539693
21
1.29975
0
LINE
8
BLACK
6
CONTINUOUS
10
0.539693
20
1.29975
11
0.539693
21
1.29975
0
LINE
8
BLACK
6
CONTINUOUS
10
0.539693
20
1.29975
11
0.544302
21
1.3032
0
LINE
8
BLACK
6
CONTINUOUS
10
0.544302
20
1.3032
11
0.546029
21
1.30551
0
LINE
8
BLACK
6
CONTINUOUS
10
0.546029
20
1.30551
11
0.548266
21
1.30718
0
LINE
8
BLACK
6
CONTINUOUS
10
0.548266
20
1.30718
11
0.551054
21
1.30738
0
LINE
8
BLACK
6
CONTINUOUS
10
0.551054
20
1.30738
11
0.553508
21
1.30604
0
LINE
8
BLACK
6
CONTINUOUS
10
0.553508
20
1.30604
11
0.553971
21
1.30551
0
LINE
8
BLACK
6
CONTINUOUS
10
0.553971
20
1.30551
11
0.555698
21
1.3032
0
LINE
8
BLACK
6
CONTINUOUS
10
0.555698
20
1.3032
11
0.555917
21
1.30298
0
LINE
8
BLACK
6
CONTINUOUS
10
0.555917
20
1.30298
11
0.557257
21
1.30053
0
LINE
8
BLACK
6
CONTINUOUS
10
0.557257
20
1.30053
11
0.557058
21
1.29774
0
LINE
8
BLACK
6
CONTINUOUS
10
0.557058
20
1.29774
11
0.555917
21
1.29596
0
LINE
8
BLACK
6
CONTINUOUS
10
0.555917
20
1.29596
11
0.523946
21
1.26399
0
LINE
8
BLACK
6
CONTINUOUS
10
0.523946
20
1.26399
11
0.521493
21
1.26265
0
LINE
8
BLACK
6
CONTINUOUS
10
0.521493
20
1.26265
11
0.520438
21
1.26254
0
LINE
8
BLACK
6
CONTINUOUS
10
0.520438
20
1.26254
11
0.329945
21
1.26254
0
LINE
8
BLACK
6
CONTINUOUS
10
0.329945
20
1.26254
11
0.327263
21
1.26333
0
LINE
8
BLACK
6
CONTINUOUS
10
0.327263
20
1.26333
11
0.326798
21
1.26367
0
LINE
8
BLACK
6
CONTINUOUS
10
0.326798
20
1.26367
11
0.32636
21
1.26402
0
LINE
8
BLACK
6
CONTINUOUS
10
0.32636
20
1.26402
11
0.319842
21
1.26751
0
LINE
8
BLACK
6
CONTINUOUS
10
0.319842
20
1.26751
11
0.312769
21
1.26965
0
LINE
8
BLACK
6
CONTINUOUS
10
0.312769
20
1.26965
11
0.312769
21
1.26965
0
LINE
8
BLACK
6
CONTINUOUS
10
0.312769
20
1.26965
11
0.312769
21
1.26965
0
LINE
8
BLACK
6
CONTINUOUS
10
0.312769
20
1.26965
11
0.305414
21
1.27038
0
LINE
8
BLACK
6
CONTINUOUS
10
0.305414
20
1.27038
11
0.305414
21
1.27038
0
LINE
8
BLACK
6
CONTINUOUS
10
0.305414
20
1.27038
11
0.298059
21
1.26965
0
LINE
8
BLACK
6
CONTINUOUS
10
0.298059
20
1.26965
11
0.298059
21
1.26965
0
LINE
8
BLACK
6
CONTINUOUS
10
0.298059
20
1.26965
11
0.298059
21
1.26965
0
LINE
8
BLACK
6
CONTINUOUS
10
0.298059
20
1.26965
11
0.298059
21
1.26965
0
LINE
8
BLACK
6
CONTINUOUS
10
0.298059
20
1.26965
11
0.290987
21
1.26751
0
LINE
8
BLACK
6
CONTINUOUS
10
0.290987
20
1.26751
11
0.284469
21
1.26402
0
LINE
8
BLACK
6
CONTINUOUS
10
0.284469
20
1.26402
11
0.278756
21
1.25934
0
LINE
8
BLACK
6
CONTINUOUS
10
0.278756
20
1.25934
11
0.275114
21
1.2549
0
LINE
8
BLACK
6
CONTINUOUS
10
0.275114
20
1.2549
11
0.274067
21
1.25362
0
LINE
8
BLACK
6
CONTINUOUS
10
0.274067
20
1.25362
11
0.270583
21
1.2471
0
LINE
8
BLACK
6
CONTINUOUS
10
0.270583
20
1.2471
11
0.270583
21
1.2471
0
LINE
8
BLACK
6
CONTINUOUS
10
0.270583
20
1.2471
11
0.268437
21
1.24003
0
LINE
8
BLACK
6
CONTINUOUS
10
0.268437
20
1.24003
11
0.268437
21
1.24003
0
LINE
8
BLACK
6
CONTINUOUS
10
0.268437
20
1.24003
11
0.267713
21
1.23268
0
LINE
8
BLACK
6
CONTINUOUS
10
0.267713
20
1.23268
11
0.267713
21
1.23268
0
LINE
8
BLACK
6
CONTINUOUS
10
0.267713
20
1.23268
11
0.268437
21
1.22532
0
LINE
8
BLACK
6
CONTINUOUS
10
0.268437
20
1.22532
11
0.268437
21
1.22532
0
LINE
8
BLACK
6
CONTINUOUS
10
0.268437
20
1.22532
11
0.270583
21
1.21825
0
LINE
8
BLACK
6
CONTINUOUS
10
0.270583
20
1.21825
11
0.270583
21
1.21825
0
LINE
8
BLACK
6
CONTINUOUS
10
0.270583
20
1.21825
11
0.274067
21
1.21173
0
LINE
8
BLACK
6
CONTINUOUS
10
0.274067
20
1.21173
11
0.278756
21
1.20602
0
LINE
8
BLACK
6
CONTINUOUS
10
0.278756
20
1.20602
11
0.284469
21
1.20133
0
LINE
8
BLACK
6
CONTINUOUS
10
0.284469
20
1.20133
11
0.290987
21
1.19785
0
LINE
8
BLACK
6
CONTINUOUS
10
0.290987
20
1.19785
11
0.290987
21
1.19785
0
LINE
8
BLACK
6
CONTINUOUS
10
0.290987
20
1.19785
11
0.298059
21
1.1957
0
LINE
8
BLACK
6
CONTINUOUS
10
0.298059
20
1.1957
11
0.305414
21
1.19498
0
LINE
8
BLACK
6
CONTINUOUS
10
0.305414
20
1.19498
11
0.305414
21
1.19498
0
LINE
8
BLACK
6
CONTINUOUS
10
0.305414
20
1.19498
11
0.305414
21
1.19498
0
LINE
8
BLACK
6
CONTINUOUS
10
0.305414
20
1.19498
11
0.312769
21
1.1957
0
LINE
8
BLACK
6
CONTINUOUS
10
0.312769
20
1.1957
11
0.312769
21
1.1957
0
LINE
8
BLACK
6
CONTINUOUS
10
0.312769
20
1.1957
11
0.319842
21
1.19785
0
LINE
8
BLACK
6
CONTINUOUS
10
0.319842
20
1.19785
11
0.319842
21
1.19785
0
LINE
8
BLACK
6
CONTINUOUS
10
0.319842
20
1.19785
11
0.32636
21
1.20133
0
LINE
8
BLACK
6
CONTINUOUS
10
0.32636
20
1.20133
11
0.326798
21
1.20169
0
LINE
8
BLACK
6
CONTINUOUS
10
0.326798
20
1.20169
11
0.32937
21
1.20278
0
LINE
8
BLACK
6
CONTINUOUS
10
0.32937
20
1.20278
11
0.329945
21
1.20281
0
LINE
8
BLACK
6
CONTINUOUS
10
0.329945
20
1.20281
11
0.490927
21
1.20281
0
LINE
8
BLACK
6
CONTINUOUS
10
0.490927
20
1.20281
11
0.532325
21
1.20281
0
LINE
8
BLACK
6
CONTINUOUS
10
0.532325
20
1.20281
11
0.533044
21
1.20276
0
LINE
8
BLACK
6
CONTINUOUS
10
0.533044
20
1.20276
11
0.533988
21
1.20262
0
LINE
8
BLACK
6
CONTINUOUS
10
0.533988
20
1.20262
11
0.533988
21
1.20262
0
LINE
8
BLACK
6
CONTINUOUS
10
0.533988
20
1.20262
11
0.534332
21
1.20265
0
LINE
8
BLACK
6
CONTINUOUS
10
0.534332
20
1.20265
11
0.536058
21
1.20281
0
LINE
8
BLACK
6
CONTINUOUS
10
0.536058
20
1.20281
11
0.536275
21
1.20281
0
LINE
8
BLACK
6
CONTINUOUS
10
0.536275
20
1.20281
11
0.536602
21
1.20281
0
LINE
8
BLACK
6
CONTINUOUS
10
0.536602
20
1.20281
11
0.537862
21
1.20296
0
LINE
8
BLACK
6
CONTINUOUS
10
0.537862
20
1.20296
11
0.537934
21
1.20297
0
LINE
8
BLACK
6
CONTINUOUS
10
0.537934
20
1.20297
11
0.538645
21
1.20303
0
LINE
8
BLACK
6
CONTINUOUS
10
0.538645
20
1.20303
11
0.540942
21
1.20323
0
LINE
8
BLACK
6
CONTINUOUS
10
0.540942
20
1.20323
11
0.540942
21
1.20323
0
LINE
8
BLACK
6
CONTINUOUS
10
0.540942
20
1.20323
11
0.540942
21
1.20323
0
LINE
8
BLACK
6
CONTINUOUS
10
0.540942
20
1.20323
11
0.540942
21
1.20323
0
LINE
8
BLACK
6
CONTINUOUS
10
0.540942
20
1.20323
11
0.541225
21
1.20329
0
LINE
8
BLACK
6
CONTINUOUS
10
0.541225
20
1.20329
11
0.541225
21
1.20329
0
LINE
8
BLACK
6
CONTINUOUS
10
0.541225
20
1.20329
11
0.541515
21
1.20335
0
LINE
8
BLACK
6
CONTINUOUS
10
0.541515
20
1.20335
11
0.541515
21
1.20336
0
LINE
8
BLACK
6
CONTINUOUS
10
0.541515
20
1.20336
11
0.541796
21
1.20342
0
LINE
8
BLACK
6
CONTINUOUS
10
0.541796
20
1.20342
11
0.543205
21
1.20393
0
LINE
8
BLACK
6
CONTINUOUS
10
0.543205
20
1.20393
11
0.544636
21
1.20446
0
LINE
8
BLACK
6
CONTINUOUS
10
0.544636
20
1.20446
11
0.544702
21
1.20448
0
LINE
8
BLACK
6
CONTINUOUS
10
0.544702
20
1.20448
11
0.547568
21
1.20543
0
LINE
8
BLACK
6
CONTINUOUS
10
0.547568
20
1.20543
11
0.54783
21
1.20555
0
LINE
8
BLACK
6
CONTINUOUS
10
0.54783
20
1.20555
11
0.547831
21
1.20555
0
LINE
8
BLACK
6
CONTINUOUS
10
0.547831
20
1.20555
11
0.548098
21
1.20568
0
LINE
8
BLACK
6
CONTINUOUS
10
0.548098
20
1.20568
11
0.548097
21
1.20568
0
LINE
8
BLACK
6
CONTINUOUS
10
0.548097
20
1.20568
11
0.548355
21
1.20581
0
LINE
8
BLACK
6
CONTINUOUS
10
0.548355
20
1.20581
11
0.55088
21
1.20747
0
LINE
8
BLACK
6
CONTINUOUS
10
0.55088
20
1.20747
11
0.550941
21
1.20751
0
LINE
8
BLACK
6
CONTINUOUS
10
0.550941
20
1.20751
11
0.55351
21
1.20909
0
LINE
8
BLACK
6
CONTINUOUS
10
0.55351
20
1.20909
11
0.55351
21
1.20909
0
LINE
8
BLACK
6
CONTINUOUS
10
0.55351
20
1.20909
11
0.553736
21
1.20927
0
LINE
8
BLACK
6
CONTINUOUS
10
0.553736
20
1.20927
11
0.553738
21
1.20927
0
LINE
8
BLACK
6
CONTINUOUS
10
0.553738
20
1.20927
11
0.553968
21
1.20946
0
LINE
8
BLACK
6
CONTINUOUS
10
0.553968
20
1.20946
11
0.553966
21
1.20946
0
LINE
8
BLACK
6
CONTINUOUS
10
0.553966
20
1.20946
11
0.554188
21
1.20965
0
LINE
8
BLACK
6
CONTINUOUS
10
0.554188
20
1.20965
11
0.556261
21
1.21184
0
LINE
8
BLACK
6
CONTINUOUS
10
0.556261
20
1.21184
11
0.556312
21
1.2119
0
LINE
8
BLACK
6
CONTINUOUS
10
0.556312
20
1.2119
11
0.575552
21
1.23114
0
LINE
8
BLACK
6
CONTINUOUS
10
0.575552
20
1.23114
11
0.596492
21
1.25208
0
LINE
8
BLACK
6
CONTINUOUS
10
0.596492
20
1.25208
11
0.598946
21
1.25342
0
LINE
8
BLACK
6
CONTINUOUS
10
0.598946
20
1.25342
11
0.601734
21
1.25322
0
LINE
8
BLACK
6
CONTINUOUS
10
0.601734
20
1.25322
11
0.603508
21
1.25208
0
LINE
8
BLACK
6
CONTINUOUS
10
0.603508
20
1.25208
11
0.622449
21
1.23313
0
LINE
8
BLACK
6
CONTINUOUS
10
0.622449
20
1.23313
11
0.649905
21
1.20568
0
LINE
8
BLACK
6
CONTINUOUS
10
0.649905
20
1.20568
11
0.650376
21
1.20513
0
LINE
8
BLACK
6
CONTINUOUS
10
0.650376
20
1.20513
11
0.650946
21
1.20437
0
LINE
8
BLACK
6
CONTINUOUS
10
0.650946
20
1.20437
11
0.650946
21
1.20437
0
LINE
8
BLACK
6
CONTINUOUS
10
0.650946
20
1.20437
11
0.652538
21
1.20303
0
LINE
8
BLACK
6
CONTINUOUS
10
0.652538
20
1.20303
11
0.652697
21
1.20289
0
LINE
8
BLACK
6
CONTINUOUS
10
0.652697
20
1.20289
11
0.652929
21
1.20265
0
LINE
8
BLACK
6
CONTINUOUS
10
0.652929
20
1.20265
11
0.653925
21
1.20187
0
LINE
8
BLACK
6
CONTINUOUS
10
0.653925
20
1.20187
11
0.653981
21
1.20182
0
LINE
8
BLACK
6
CONTINUOUS
10
0.653981
20
1.20182
11
0.656294
21
1.19988
0
LINE
8
BLACK
6
CONTINUOUS
10
0.656294
20
1.19988
11
0.656535
21
1.19972
0
LINE
8
BLACK
6
CONTINUOUS
10
0.656535
20
1.19972
11
0.656534
21
1.19972
0
LINE
8
BLACK
6
CONTINUOUS
10
0.656534
20
1.19972
11
0.656784
21
1.19956
0
LINE
8
BLACK
6
CONTINUOUS
10
0.656784
20
1.19956
11
0.656786
21
1.19956
0
LINE
8
BLACK
6
CONTINUOUS
10
0.656786
20
1.19956
11
0.657031
21
1.19941
0
LINE
8
BLACK
6
CONTINUOUS
10
0.657031
20
1.19941
11
0.659768
21
1.19813
0
LINE
8
BLACK
6
CONTINUOUS
10
0.659768
20
1.19813
11
0.659833
21
1.1981
0
LINE
8
BLACK
6
CONTINUOUS
10
0.659833
20
1.1981
11
0.662532
21
1.19675
0
LINE
8
BLACK
6
CONTINUOUS
10
0.662532
20
1.19675
11
0.662803
21
1.19665
0
LINE
8
BLACK
6
CONTINUOUS
10
0.662803
20
1.19665
11
0.662802
21
1.19665
0
LINE
8
BLACK
6
CONTINUOUS
10
0.662802
20
1.19665
11
0.663083
21
1.19655
0
LINE
8
BLACK
6
CONTINUOUS
10
0.663083
20
1.19655
11
0.663084
21
1.19655
0
LINE
8
BLACK
6
CONTINUOUS
10
0.663084
20
1.19655
11
0.663358
21
1.19646
0
LINE
8
BLACK
6
CONTINUOUS
10
0.663358
20
1.19646
11
0.666318
21
1.19585
0
LINE
8
BLACK
6
CONTINUOUS
10
0.666318
20
1.19585
11
0.666388
21
1.19583
0
LINE
8
BLACK
6
CONTINUOUS
10
0.666388
20
1.19583
11
0.669325
21
1.19514
0
LINE
8
BLACK
6
CONTINUOUS
10
0.669325
20
1.19514
11
0.669612
21
1.1951
0
LINE
8
BLACK
6
CONTINUOUS
10
0.669612
20
1.1951
11
0.669611
21
1.1951
0
LINE
8
BLACK
6
CONTINUOUS
10
0.669611
20
1.1951
11
0.669906
21
1.19507
0
LINE
8
BLACK
6
CONTINUOUS
10
0.669906
20
1.19507
11
0.669907
21
1.19507
0
LINE
8
BLACK
6
CONTINUOUS
10
0.669907
20
1.19507
11
0.670195
21
1.19505
0
LINE
8
BLACK
6
CONTINUOUS
10
0.670195
20
1.19505
11
0.670195
21
1.19505
0
LINE
8
BLACK
6
CONTINUOUS
10
0.670195
20
1.19505
11
0.670321
21
1.19505
0
LINE
8
BLACK
6
CONTINUOUS
10
0.670321
20
1.19505
11
0.673216
21
1.19514
0
LINE
8
BLACK
6
CONTINUOUS
10
0.673216
20
1.19514
11
0.673288
21
1.19514
0
LINE
8
BLACK
6
CONTINUOUS
10
0.673288
20
1.19514
11
0.88502
21
1.19514
0
LINE
8
BLACK
6
CONTINUOUS
10
0.88502
20
1.19514
11
0.887702
21
1.19435
0
LINE
8
BLACK
6
CONTINUOUS
10
0.887702
20
1.19435
11
0.889532
21
1.19224
0
LINE
8
BLACK
6
CONTINUOUS
10
0.889532
20
1.19224
11
0.88998
21
1.19018
0
LINE
8
BLACK
6
CONTINUOUS
10
0.88998
20
1.19018
11
0.88998
21
1.13467
0
LINE
8
BLACK
6
CONTINUOUS
10
0.88998
20
1.13467
11
0.889193
21
1.13198
0
LINE
8
BLACK
6
CONTINUOUS
10
0.889193
20
1.13198
11
0.88708
21
1.13015
0
LINE
8
BLACK
6
CONTINUOUS
10
0.88708
20
1.13015
11
0.88502
21
1.1297
0
LINE
8
BLACK
6
CONTINUOUS
10
0.88502
20
1.1297
11
0.712189
21
1.1297
0
LINE
8
BLACK
6
CONTINUOUS
10
0.712189
20
1.1297
11
0.71155
21
1.12978
0
LINE
8
BLACK
6
CONTINUOUS
10
0.71155
20
1.12978
11
0.711549
21
1.12977
0
LINE
8
BLACK
6
CONTINUOUS
10
0.711549
20
1.12977
11
0.711239
21
1.12979
0
LINE
8
BLACK
6
CONTINUOUS
10
0.711239
20
1.12979
11
0.708411
21
1.12971
0
LINE
8
BLACK
6
CONTINUOUS
10
0.708411
20
1.12971
11
0.708333
21
1.1297
0
LINE
8
BLACK
6
CONTINUOUS
10
0.708333
20
1.1297
11
0.707148
21
1.1297
0
LINE
8
BLACK
6
CONTINUOUS
10
0.707148
20
1.1297
11
0.706859
21
1.12967
0
LINE
8
BLACK
6
CONTINUOUS
10
0.706859
20
1.12967
11
0.706627
21
1.12965
0
LINE
8
BLACK
6
CONTINUOUS
10
0.706627
20
1.12965
11
0.704692
21
1.12959
0
LINE
8
BLACK
6
CONTINUOUS
10
0.704692
20
1.12959
11
0.703881
21
1.12935
0
LINE
8
BLACK
6
CONTINUOUS
10
0.703881
20
1.12935
11
0.703119
21
1.1292
0
LINE
8
BLACK
6
CONTINUOUS
10
0.703119
20
1.1292
11
0.702597
21
1.12913
0
LINE
8
BLACK
6
CONTINUOUS
10
0.702597
20
1.12913
11
0.702281
21
1.12909
0
LINE
8
BLACK
6
CONTINUOUS
10
0.702281
20
1.12909
11
0.700481
21
1.12838
0
LINE
8
BLACK
6
CONTINUOUS
10
0.700481
20
1.12838
11
0.700261
21
1.1283
0
LINE
8
BLACK
6
CONTINUOUS
10
0.700261
20
1.1283
11
0.698402
21
1.12776
0
LINE
8
BLACK
6
CONTINUOUS
10
0.698402
20
1.12776
11
0.698402
21
1.12776
0
LINE
8
BLACK
6
CONTINUOUS
10
0.698402
20
1.12776
11
0.698303
21
1.12773
0
LINE
8
BLACK
6
CONTINUOUS
10
0.698303
20
1.12773
11
0.696433
21
1.12756
0
LINE
8
BLACK
6
CONTINUOUS
10
0.696433
20
1.12756
11
0.695
21
1.1277
0
LINE
8
BLACK
6
CONTINUOUS
10
0.695
20
1.1277
11
0.695
21
1.1277
0
LINE
8
BLACK
6
CONTINUOUS
10
0.695
20
1.1277
11
0.695
21
1.1277
0
LINE
8
BLACK
6
CONTINUOUS
10
0.695
20
1.1277
11
0.695
21
1.1277
0
LINE
8
BLACK
6
CONTINUOUS
10
0.695
20
1.1277
11
0.687645
21
1.12698
0
LINE
8
BLACK
6
CONTINUOUS
10
0.687645
20
1.12698
11
0.687645
21
1.12698
0
LINE
8
BLACK
6
CONTINUOUS
10
0.687645
20
1.12698
11
0.687645
21
1.12698
0
LINE
8
BLACK
6
CONTINUOUS
10
0.687645
20
1.12698
11
0.687645
21
1.12698
0
LINE
8
BLACK
6
CONTINUOUS
10
0.687645
20
1.12698
11
0.680572
21
1.12483
0
LINE
8
BLACK
6
CONTINUOUS
10
0.680572
20
1.12483
11
0.674054
21
1.12135
0
LINE
8
BLACK
6
CONTINUOUS
10
0.674054
20
1.12135
11
0.668341
21
1.11666
0
LINE
8
BLACK
6
CONTINUOUS
10
0.668341
20
1.11666
11
0.664722
21
1.11225
0
LINE
8
BLACK
6
CONTINUOUS
10
0.664722
20
1.11225
11
0.663653
21
1.11095
0
LINE
8
BLACK
6
CONTINUOUS
10
0.663653
20
1.11095
11
0.660169
21
1.10443
0
LINE
8
BLACK
6
CONTINUOUS
10
0.660169
20
1.10443
11
0.660169
21
1.10443
0
LINE
8
BLACK
6
CONTINUOUS
10
0.660169
20
1.10443
11
0.658023
21
1.09735
0
LINE
8
BLACK
6
CONTINUOUS
10
0.658023
20
1.09735
11
0.658023
21
1.09735
0
LINE
8
BLACK
6
CONTINUOUS
10
0.658023
20
1.09735
11
0.657299
21
1.09
0
LINE
8
BLACK
6
CONTINUOUS
10
0.657299
20
1.09
11
0.657299
21
1.09
0
LINE
8
BLACK
6
CONTINUOUS
10
0.657299
20
1.09
11
0.658023
21
1.08265
0
LINE
8
BLACK
6
CONTINUOUS
10
0.658023
20
1.08265
11
0.658023
21
1.08264
0
LINE
8
BLACK
6
CONTINUOUS
10
0.658023
20
1.08264
11
0.659266
21
1.07855
0
LINE
8
BLACK
6
CONTINUOUS
10
0.659266
20
1.07855
11
0.659291
21
1.07575
0
LINE
8
BLACK
6
CONTINUOUS
10
0.659291
20
1.07575
11
0.657801
21
1.07339
0
LINE
8
BLACK
6
CONTINUOUS
10
0.657801
20
1.07339
11
0.655269
21
1.0722
0
LINE
8
BLACK
6
CONTINUOUS
10
0.655269
20
1.0722
11
0.654519
21
1.07215
0
LINE
8
BLACK
6
CONTINUOUS
10
0.654519
20
1.07215
11
0.242605
21
1.07215
0
LINE
8
BLACK
6
CONTINUOUS
10
0.242605
20
1.07215
11
0.239923
21
1.07293
0
LINE
8
BLACK
6
CONTINUOUS
10
0.239923
20
1.07293
11
0.239097
21
1.0736
0
LINE
8
BLACK
6
CONTINUOUS
10
0.239097
20
1.0736
11
0.234149
21
1.07855
0
LINE
8
BLACK
6
CONTINUOUS
10
0.234149
20
1.07855
11
0.21862
21
1.09408
0
LINE
8
BLACK
6
CONTINUOUS
10
0.21862
20
1.09408
11
0.218519
21
1.09418
0
LINE
8
BLACK
6
CONTINUOUS
10
0.218519
20
1.09418
11
0.216881
21
1.09603
0
LINE
8
BLACK
6
CONTINUOUS
10
0.216881
20
1.09603
11
0.214847
21
1.09744
0
LINE
8
BLACK
6
CONTINUOUS
10
0.214847
20
1.09744
11
0.21473
21
1.09752
0
LINE
8
BLACK
6
CONTINUOUS
10
0.21473
20
1.09752
11
0.212784
21
1.09905
0
LINE
8
BLACK
6
CONTINUOUS
10
0.212784
20
1.09905
11
0.212418
21
1.09921
0
LINE
8
BLACK
6
CONTINUOUS
10
0.212418
20
1.09921
11
0.211636
21
1.09965
0
LINE
8
BLACK
6
CONTINUOUS
10
0.211636
20
1.09965
11
0.211306
21
1.09988
0
LINE
8
BLACK
6
CONTINUOUS
10
0.211306
20
1.09988
11
0.208996
21
1.10076
0
LINE
8
BLACK
6
CONTINUOUS
10
0.208996
20
1.10076
11
0.20886
21
1.10081
0
LINE
8
BLACK
6
CONTINUOUS
10
0.20886
20
1.10081
11
0.206607
21
1.10183
0
LINE
8
BLACK
6
CONTINUOUS
10
0.206607
20
1.10183
11
0.206587
21
1.10183
0
LINE
8
BLACK
6
CONTINUOUS
10
0.206587
20
1.10183
11
0.206573
21
1.10184
0
LINE
8
BLACK
6
CONTINUOUS
10
0.206573
20
1.10184
11
0.206321
21
1.10192
0
LINE
8
BLACK
6
CONTINUOUS
10
0.206321
20
1.10192
11
0.206334
21
1.10196
0
LINE
8
BLACK
6
CONTINUOUS
10
0.206334
20
1.10196
11
0.20409
21
1.10309
0
LINE
8
BLACK
6
CONTINUOUS
10
0.20409
20
1.10309
11
0.202671
21
1.1055
0
LINE
8
BLACK
6
CONTINUOUS
10
0.202671
20
1.1055
11
0.20252
21
1.10671
0
LINE
8
BLACK
6
CONTINUOUS
10
0.20252
20
1.10671
11
0.20252
21
1.10691
0
LINE
8
BLACK
6
CONTINUOUS
10
0.20252
20
1.10691
11
0.20252
21
1.10692
0
LINE
8
BLACK
6
CONTINUOUS
10
0.20252
20
1.10692
11
0.202263
21
1.1093
0
LINE
8
BLACK
6
CONTINUOUS
10
0.202263
20
1.1093
11
0.202263
21
1.1093
0
LINE
8
BLACK
6
CONTINUOUS
10
0.202263
20
1.1093
11
0.201355
21
1.11173
0
LINE
8
BLACK
6
CONTINUOUS
10
0.201355
20
1.11173
11
0.200252
21
1.11469
0
LINE
8
BLACK
6
CONTINUOUS
10
0.200252
20
1.11469
11
0.199499
21
1.1157
0
LINE
8
BLACK
6
CONTINUOUS
10
0.199499
20
1.1157
11
0.196802
21
1.1193
0
LINE
8
BLACK
6
CONTINUOUS
10
0.196802
20
1.1193
11
0.194494
21
1.12103
0
LINE
8
BLACK
6
CONTINUOUS
10
0.194494
20
1.12103
11
0.192819
21
1.12327
0
LINE
8
BLACK
6
CONTINUOUS
10
0.192819
20
1.12327
11
0.19262
21
1.12605
0
LINE
8
BLACK
6
CONTINUOUS
10
0.19262
20
1.12605
11
0.193959
21
1.12851
0
LINE
8
BLACK
6
CONTINUOUS
10
0.193959
20
1.12851
11
0.194494
21
1.12897
0
LINE
8
BLACK
6
CONTINUOUS
10
0.194494
20
1.12897
11
0.196802
21
1.1307
0
LINE
8
BLACK
6
CONTINUOUS
10
0.196802
20
1.1307
11
0.200251
21
1.13531
0
LINE
8
BLACK
6
CONTINUOUS
10
0.200251
20
1.13531
11
0.200252
21
1.13531
0
LINE
8
BLACK
6
CONTINUOUS
10
0.200252
20
1.13531
11
0.202263
21
1.1407
0
LINE
8
BLACK
6
CONTINUOUS
10
0.202263
20
1.1407
11
0.202263
21
1.1407
0
LINE
8
BLACK
6
CONTINUOUS
10
0.202263
20
1.1407
11
0.20252
21
1.14308
0
LINE
8
BLACK
6
CONTINUOUS
10
0.20252
20
1.14308
11
0.20252
21
1.14309
0
LINE
8
BLACK
6
CONTINUOUS
10
0.20252
20
1.14309
11
0.20252
21
1.20691
0
LINE
8
BLACK
6
CONTINUOUS
10
0.20252
20
1.20691
11
0.20252
21
1.20692
0
LINE
8
BLACK
6
CONTINUOUS
10
0.20252
20
1.20692
11
0.202263
21
1.2093
0
LINE
8
BLACK
6
CONTINUOUS
10
0.202263
20
1.2093
11
0.202263
21
1.2093
0
LINE
8
BLACK
6
CONTINUOUS
10
0.202263
20
1.2093
11
0.201679
21
1.21087
0
LINE
8
BLACK
6
CONTINUOUS
10
0.201679
20
1.21087
11
0.200252
21
1.21469
0
LINE
8
BLACK
6
CONTINUOUS
10
0.200252
20
1.21469
11
0.199137
21
1.21618
0
LINE
8
BLACK
6
CONTINUOUS
10
0.199137
20
1.21618
11
0.196802
21
1.2193
0
LINE
8
BLACK
6
CONTINUOUS
10
0.196802
20
1.2193
11
0.192193
21
1.22275
0
LINE
8
BLACK
6
CONTINUOUS
10
0.192193
20
1.22275
11
0.192193
21
1.22275
0
LINE
8
BLACK
6
CONTINUOUS
10
0.192193
20
1.22275
11
0.192193
21
1.22275
0
LINE
8
BLACK
6
CONTINUOUS
10
0.192193
20
1.22275
11
0.186799
21
1.22476
0
LINE
8
BLACK
6
CONTINUOUS
10
0.186799
20
1.22476
11
0.186799
21
1.22476
0
LINE
8
BLACK
6
CONTINUOUS
10
0.186799
20
1.22476
11
0.186799
21
1.22476
0
LINE
8
BLACK
6
CONTINUOUS
10
0.186799
20
1.22476
11
0.184415
21
1.22502
0
LINE
8
BLACK
6
CONTINUOUS
10
0.184415
20
1.22502
11
0.184415
21
1.22502
0
LINE
8
BLACK
6
CONTINUOUS
10
0.184415
20
1.22502
11
0.184415
21
1.22502
0
LINE
8
BLACK
6
CONTINUOUS
10
0.184415
20
1.22502
11
0.120585
21
1.22502
0
LINE
8
BLACK
6
CONTINUOUS
10
0.120585
20
1.22502
11
0.120585
21
1.22502
0
LINE
8
BLACK
6
CONTINUOUS
10
0.120585
20
1.22502
11
0.120585
21
1.22502
0
LINE
8
BLACK
6
CONTINUOUS
10
0.120585
20
1.22502
11
0.118201
21
1.22476
0
LINE
8
BLACK
6
CONTINUOUS
10
0.118201
20
1.22476
11
0.118201
21
1.22476
0
LINE
8
BLACK
6
CONTINUOUS
10
0.118201
20
1.22476
11
0.115133
21
1.22362
0
LINE
8
BLACK
6
CONTINUOUS
10
0.115133
20
1.22362
11
0.112807
21
1.22275
0
LINE
8
BLACK
6
CONTINUOUS
10
0.112807
20
1.22275
11
0.112807
21
1.22275
0
LINE
8
BLACK
6
CONTINUOUS
10
0.112807
20
1.22275
11
0.112807
21
1.22275
0
LINE
8
BLACK
6
CONTINUOUS
10
0.112807
20
1.22275
11
0.108198
21
1.2193
0
LINE
8
BLACK
6
CONTINUOUS
10
0.108198
20
1.2193
11
0.104749
21
1.21469
0
LINE
8
BLACK
6
CONTINUOUS
10
0.104749
20
1.21469
11
0.104748
21
1.21469
0
LINE
8
BLACK
6
CONTINUOUS
10
0.104748
20
1.21469
11
0.102737
21
1.2093
0
LINE
8
BLACK
6
CONTINUOUS
10
0.102737
20
1.2093
11
0.102737
21
1.2093
0
LINE
8
BLACK
6
CONTINUOUS
10
0.102737
20
1.2093
11
0.10248
21
1.20692
0
LINE
8
BLACK
6
CONTINUOUS
10
0.10248
20
1.20692
11
0.10248
21
1.14308
0
LINE
8
BLACK
6
CONTINUOUS
10
0.10248
20
1.14308
11
0.102737
21
1.1407
0
LINE
8
BLACK
6
CONTINUOUS
10
0.102737
20
1.1407
11
0.102737
21
1.1407
0
LINE
8
BLACK
6
CONTINUOUS
10
0.102737
20
1.1407
11
0.104748
21
1.13531
0
LINE
8
BLACK
6
CONTINUOUS
10
0.104748
20
1.13531
11
0.104749
21
1.13531
0
LINE
8
BLACK
6
CONTINUOUS
10
0.104749
20
1.13531
11
0.108198
21
1.1307
0
LINE
8
BLACK
6
CONTINUOUS
10
0.108198
20
1.1307
11
0.110506
21
1.12897
0
LINE
8
BLACK
6
CONTINUOUS
10
0.110506
20
1.12897
11
0.112181
21
1.12673
0
LINE
8
BLACK
6
CONTINUOUS
10
0.112181
20
1.12673
11
0.11238
21
1.12395
0
LINE
8
BLACK
6
CONTINUOUS
10
0.11238
20
1.12395
11
0.11104
21
1.12149
0
LINE
8
BLACK
6
CONTINUOUS
10
0.11104
20
1.12149
11
0.110506
21
1.12103
0
LINE
8
BLACK
6
CONTINUOUS
10
0.110506
20
1.12103
11
0.108198
21
1.1193
0
LINE
8
BLACK
6
CONTINUOUS
10
0.108198
20
1.1193
11
0.104749
21
1.11469
0
LINE
8
BLACK
6
CONTINUOUS
10
0.104749
20
1.11469
11
0.104748
21
1.11469
0
LINE
8
BLACK
6
CONTINUOUS
10
0.104748
20
1.11469
11
0.102737
21
1.1093
0
LINE
8
BLACK
6
CONTINUOUS
10
0.102737
20
1.1093
11
0.102737
21
1.1093
0
LINE
8
BLACK
6
CONTINUOUS
10
0.102737
20
1.1093
11
0.10248
21
1.10692
0
LINE
8
BLACK
6
CONTINUOUS
10
0.10248
20
1.10692
11
0.10248
21
1.04308
0
LINE
8
BLACK
6
CONTINUOUS
10
0.10248
20
1.04308
11
0.102737
21
1.0407
0
LINE
8
BLACK
6
CONTINUOUS
10
0.102737
20
1.0407
11
0.102737
21
1.0407
0
LINE
8
BLACK
6
CONTINUOUS
10
0.102737
20
1.0407
11
0.104748
21
1.03531
0
LINE
8
BLACK
6
CONTINUOUS
10
0.104748
20
1.03531
11
0.104749
21
1.03531
0
LINE
8
BLACK
6
CONTINUOUS
10
0.104749
20
1.03531
11
0.108198
21
1.0307
0
LINE
8
BLACK
6
CONTINUOUS
10
0.108198
20
1.0307
11
0.110506
21
1.02897
0
LINE
8
BLACK
6
CONTINUOUS
10
0.110506
20
1.02897
11
0.112181
21
1.02673
0
LINE
8
BLACK
6
CONTINUOUS
10
0.112181
20
1.02673
11
0.11238
21
1.02395
0
LINE
8
BLACK
6
CONTINUOUS
10
0.11238
20
1.02395
11
0.11104
21
1.02149
0
LINE
8
BLACK
6
CONTINUOUS
10
0.11104
20
1.02149
11
0.110506
21
1.02103
0
LINE
8
BLACK
6
CONTINUOUS
10
0.110506
20
1.02103
11
0.108198
21
1.0193
0
LINE
8
BLACK
6
CONTINUOUS
10
0.108198
20
1.0193
11
0.104749
21
1.01469
0
LINE
8
BLACK
6
CONTINUOUS
10
0.104749
20
1.01469
11
0.104748
21
1.01469
0
LINE
8
BLACK
6
CONTINUOUS
10
0.104748
20
1.01469
11
0.102737
21
1.0093
0
LINE
8
BLACK
6
CONTINUOUS
10
0.102737
20
1.0093
11
0.102737
21
1.0093
0
LINE
8
BLACK
6
CONTINUOUS
10
0.102737
20
1.0093
11
0.10248
21
1.00692
0
LINE
8
BLACK
6
CONTINUOUS
10
0.10248
20
1.00692
11
0.10248
21
0.943085
0
LINE
8
BLACK
6
CONTINUOUS
10
0.10248
20
0.943085
11
0.102737
21
0.940701
0
CIRCLE
8
BLACK
10
0.15
20
0.61
40
0.00688976
0
CIRCLE
8
BLACK
10
0.25
20
0.61
40
0.00688976
0
CIRCLE
8
BLACK
10
0.15
20
0.51
40
0.00688976
0
CIRCLE
8
BLACK
10
0.25
20
0.51
40
0.00688976
0
CIRCLE
8
BLACK
10
0.15
20
0.41
40
0.00688976
0
CIRCLE
8
BLACK
10
0.25
20
0.41
40
0.00688976
0
CIRCLE
8
BLACK
10
0.89
20
0.83
40
0.00688976
0
CIRCLE
8
BLACK
10
0.79
20
0.83
40
0.00688976
0
CIRCLE
8
BLACK
10
1.04
20
1.06
40
0.00688976
0
CIRCLE
8
BLACK
10
0.94
20
1.06
40
0.00688976
0
CIRCLE
8
BLACK
10
1.04
20
1.16
40
0.00688976
0
CIRCLE
8
BLACK
10
0.94
20
1.16
40
0.00688976
0
CIRCLE
8
BLACK
10
0.8
20
1.4475
40
0.00688976
0
CIRCLE
8
BLACK
10
0.8
20
1.3475
40
0.00688976
0
CIRCLE
8
BLACK
10
0.7
20
1.4475
40
0.00688976
0
CIRCLE
8
BLACK
10
0.7
20
1.3475
40
0.00688976
0
CIRCLE
8
BLACK
10
0.6
20
1.4475
40
0.00688976
0
CIRCLE
8
BLACK
10
0.6
20
1.3475
40
0.00688976
0
CIRCLE
8
BLACK
10
0.5
20
1.4475
40
0.00688976
0
CIRCLE
8
BLACK
10
0.5
20
1.3475
40
0.00688976
0
CIRCLE
8
BLACK
10
0.4
20
1.4475
40
0.00688976
0
CIRCLE
8
BLACK
10
0.4
20
1.3475
40
0.00688976
0
CIRCLE
8
BLACK
10
0.2
20
1.4
40
0.00688976
0
CIRCLE
8
BLACK
10
1
20
0.2
40
0.00688976
0
CIRCLE
8
BLACK
10
1
20
1.4
40
0.00688976
0
CIRCLE
8
BLACK
10
0.2
20
0.2
40
0.00688976
0
CIRCLE
8
BLACK
10
0.72
20
0.21315
40
0.00688976
0
CIRCLE
8
BLACK
10
0.72
20
0.41
40
0.00688976
0
CIRCLE
8
BLACK
10
0.52
20
0.41
40
0.00688976
0
CIRCLE
8
BLACK
10
0.52
20
0.21315
40
0.00688976
0
CIRCLE
8
BLACK
10
0.1525
20
1.175
40
0.00688976
0
CIRCLE
8
BLACK
10
0.1525
20
1.075
40
0.00688976
0
CIRCLE
8
BLACK
10
0.1525
20
0.975
40
0.00688976
0
CIRCLE
8
BLACK
10
0.84
20
1.06
40
0.00688976
0
CIRCLE
8
BLACK
10
0.84
20
1.16
40
0.00688976
0
CIRCLE
8
BLACK
10
0.305414
20
1.23268
40
0.0125
0
CIRCLE
8
BLACK
10
0.62
20
0.9125
40
0.0125
0
CIRCLE
8
BLACK
10
0.695
20
1.09
40
0.0125
0
CIRCLE
8
BLACK
10
0.803235
20
0.946513
40
0.0125
  0
ENDSEC
  0
EOF
