  0
SECTION
  2
HEADER
  9
$ANGBASE
  50
0.0
  9
$ANGDIR
  70
1
  9
$MEASUREMENT
  70
0
  0
ENDSEC
  0
SECTION
  2
TABLES
  0
TABLE
  2
LTYPE
  70
4
  0
LTYPE
  5
40F
  2
CONTINUOUS
  70
0
  3
Solid line
  72
65
  73
0
  40
0.0
  0
LTYPE
  5
410
  2
DASHDOT
 70
0
  3
Dash Dot ____ _ ____ _
 72
65
 73
4
 40
2.0
 49
1.25
 49
-0.25
 49
0.25
 49
-0.25
  0
LTYPE
  5
411
  2
DASHED
 70
0
  3
Dashed __ __ __ __ __
 72
65
 73
2
 40
0.75
 49
0.5
 49
-0.25
  0
LTYPE
  5
43B
  2
DOTTED
 70
0
  3
Dotted .  .  .  .
 72
65
 73
2
 40
0.2
 49
0.0
 49
-0.2
  0
ENDTAB
  0
TABLE
  2
STYLE
  70
4
  0
STYLE
  2
KICAD
  70
0
  40
0
  41
1
  42
1
  50
0
  71
0
  3
isocp.shx
  0
STYLE
  2
KICADB
  70
0
  40
0
  41
1
  42
1
  50
0
  71
0
  3
isocp.shx
  0
STYLE
  2
KICADI
  70
0
  40
0
  41
1
  42
1
  50
15
  71
0
  3
isocp.shx
  0
STYLE
  2
KICADBI
  70
0
  40
0
  41
1
  42
1
  50
15
  71
0
  3
isocp.shx
  0
ENDTAB
  0
TABLE
  2
LAYER
  70
1
  0
LAYER
  2
BLACK
  70
0
  62
7
  6
CONTINUOUS
  0
ENDTAB
  0
ENDSEC
  0
SECTION
  2
ENTITIES
0
LINE
8
BLACK
6
CONTINUOUS
10
0.522271
20
0.936475
11
0.524145
21
0.9346
0
LINE
8
BLACK
6
CONTINUOUS
10
0.524145
20
0.9346
11
0.524652
21
0.933877
0
LINE
8
BLACK
6
CONTINUOUS
10
0.524652
20
0.933877
11
0.524699
21
0.933833
0
LINE
8
BLACK
6
CONTINUOUS
10
0.524699
20
0.933833
11
0.526573
21
0.930083
0
LINE
8
BLACK
6
CONTINUOUS
10
0.526573
20
0.930083
11
0.526866
21
0.9291
0
LINE
8
BLACK
6
CONTINUOUS
10
0.526866
20
0.9291
11
0.526825
21
0.928929
0
LINE
8
BLACK
6
CONTINUOUS
10
0.526825
20
0.928929
11
0.526885
21
0.928763
0
LINE
8
BLACK
6
CONTINUOUS
10
0.526885
20
0.928763
11
0.526885
21
0.919389
0
LINE
8
BLACK
6
CONTINUOUS
10
0.526885
20
0.919389
11
0.526707
21
0.918379
0
LINE
8
BLACK
6
CONTINUOUS
10
0.526707
20
0.918379
11
0.526594
21
0.918244
0
LINE
8
BLACK
6
CONTINUOUS
10
0.526594
20
0.918244
11
0.526573
21
0.918068
0
LINE
8
BLACK
6
CONTINUOUS
10
0.526573
20
0.918068
11
0.524699
21
0.914319
0
LINE
8
BLACK
6
CONTINUOUS
10
0.524699
20
0.914319
11
0.524173
21
0.91361
0
LINE
8
BLACK
6
CONTINUOUS
10
0.524173
20
0.91361
11
0.524145
21
0.913551
0
LINE
8
BLACK
6
CONTINUOUS
10
0.524145
20
0.913551
11
0.522271
21
0.911677
0
LINE
8
BLACK
6
CONTINUOUS
10
0.522271
20
0.911677
11
0.521548
21
0.91117
0
LINE
8
BLACK
6
CONTINUOUS
10
0.521548
20
0.91117
11
0.521503
21
0.911124
0
LINE
8
BLACK
6
CONTINUOUS
10
0.521503
20
0.911124
11
0.517754
21
0.909249
0
LINE
8
BLACK
6
CONTINUOUS
10
0.517754
20
0.909249
11
0.516771
21
0.908956
0
LINE
8
BLACK
6
CONTINUOUS
10
0.516771
20
0.908956
11
0.516599
21
0.908997
0
LINE
8
BLACK
6
CONTINUOUS
10
0.516599
20
0.908997
11
0.516433
21
0.908937
0
LINE
8
BLACK
6
CONTINUOUS
10
0.516433
20
0.908937
11
0.507059
21
0.908937
0
LINE
8
BLACK
6
CONTINUOUS
10
0.507059
20
0.908937
11
0.506049
21
0.909115
0
LINE
8
BLACK
6
CONTINUOUS
10
0.506049
20
0.909115
11
0.505914
21
0.909229
0
LINE
8
BLACK
6
CONTINUOUS
10
0.505914
20
0.909229
11
0.505739
21
0.909249
0
LINE
8
BLACK
6
CONTINUOUS
10
0.505739
20
0.909249
11
0.501989
21
0.911124
0
LINE
8
BLACK
6
CONTINUOUS
10
0.501989
20
0.911124
11
0.50128
21
0.911649
0
LINE
8
BLACK
6
CONTINUOUS
10
0.50128
20
0.911649
11
0.501222
21
0.911677
0
LINE
8
BLACK
6
CONTINUOUS
10
0.501222
20
0.911677
11
0.499347
21
0.913551
0
LINE
8
BLACK
6
CONTINUOUS
10
0.499347
20
0.913551
11
0.498841
21
0.914274
0
LINE
8
BLACK
6
CONTINUOUS
10
0.498841
20
0.914274
11
0.498794
21
0.914319
0
LINE
8
BLACK
6
CONTINUOUS
10
0.498794
20
0.914319
11
0.496919
21
0.918068
0
LINE
8
BLACK
6
CONTINUOUS
10
0.496919
20
0.918068
11
0.496627
21
0.919051
0
LINE
8
BLACK
6
CONTINUOUS
10
0.496627
20
0.919051
11
0.496668
21
0.919223
0
LINE
8
BLACK
6
CONTINUOUS
10
0.496668
20
0.919223
11
0.496608
21
0.919389
0
LINE
8
BLACK
6
CONTINUOUS
10
0.496608
20
0.919389
11
0.496608
21
0.928763
0
LINE
8
BLACK
6
CONTINUOUS
10
0.496608
20
0.928763
11
0.496786
21
0.929773
0
LINE
8
BLACK
6
CONTINUOUS
10
0.496786
20
0.929773
11
0.496899
21
0.929908
0
LINE
8
BLACK
6
CONTINUOUS
10
0.496899
20
0.929908
11
0.496919
21
0.930083
0
LINE
8
BLACK
6
CONTINUOUS
10
0.496919
20
0.930083
11
0.497286
21
0.930817
0
LINE
8
BLACK
6
CONTINUOUS
10
0.497286
20
0.930817
11
0.487515
21
0.92984
0
LINE
8
BLACK
6
CONTINUOUS
10
0.487515
20
0.92984
11
0.487515
21
0.913765
0
LINE
8
BLACK
6
CONTINUOUS
10
0.487515
20
0.913765
11
0.487337
21
0.912755
0
LINE
8
BLACK
6
CONTINUOUS
10
0.487337
20
0.912755
11
0.486039
21
0.911207
0
LINE
8
BLACK
6
CONTINUOUS
10
0.486039
20
0.911207
11
0.484049
21
0.910857
0
LINE
8
BLACK
6
CONTINUOUS
10
0.484049
20
0.910857
11
0.4823
21
0.911867
0
LINE
8
BLACK
6
CONTINUOUS
10
0.4823
20
0.911867
11
0.481609
21
0.913765
0
LINE
8
BLACK
6
CONTINUOUS
10
0.481609
20
0.913765
11
0.481609
21
0.932512
0
LINE
8
BLACK
6
CONTINUOUS
10
0.481609
20
0.932512
11
0.481637
21
0.932666
0
LINE
8
BLACK
6
CONTINUOUS
10
0.481637
20
0.932666
11
0.481618
21
0.932733
0
LINE
8
BLACK
6
CONTINUOUS
10
0.481618
20
0.932733
11
0.481668
21
0.932845
0
LINE
8
BLACK
6
CONTINUOUS
10
0.481668
20
0.932845
11
0.481788
21
0.933522
0
LINE
8
BLACK
6
CONTINUOUS
10
0.481788
20
0.933522
11
0.482191
21
0.934002
0
LINE
8
BLACK
6
CONTINUOUS
10
0.482191
20
0.934002
11
0.482449
21
0.934574
0
LINE
8
BLACK
6
CONTINUOUS
10
0.482449
20
0.934574
11
0.48282
21
0.934753
0
LINE
8
BLACK
6
CONTINUOUS
10
0.48282
20
0.934753
11
0.483086
21
0.935069
0
LINE
8
BLACK
6
CONTINUOUS
10
0.483086
20
0.935069
11
0.483703
21
0.935178
0
LINE
8
BLACK
6
CONTINUOUS
10
0.483703
20
0.935178
11
0.484268
21
0.93545
0
LINE
8
BLACK
6
CONTINUOUS
10
0.484268
20
0.93545
11
0.503016
21
0.937325
0
LINE
8
BLACK
6
CONTINUOUS
10
0.503016
20
0.937325
11
0.504039
21
0.937248
0
LINE
8
BLACK
6
CONTINUOUS
10
0.504039
20
0.937248
11
0.504055
21
0.937237
0
LINE
8
BLACK
6
CONTINUOUS
10
0.504055
20
0.937237
11
0.504074
21
0.937239
0
LINE
8
BLACK
6
CONTINUOUS
10
0.504074
20
0.937239
11
0.504886
21
0.936671
0
LINE
8
BLACK
6
CONTINUOUS
10
0.504886
20
0.936671
11
0.505707
21
0.93611
0
LINE
8
BLACK
6
CONTINUOUS
10
0.505707
20
0.93611
11
0.505713
21
0.936092
0
LINE
8
BLACK
6
CONTINUOUS
10
0.505713
20
0.936092
11
0.505729
21
0.936081
0
LINE
8
BLACK
6
CONTINUOUS
10
0.505729
20
0.936081
11
0.505986
21
0.935122
0
LINE
8
BLACK
6
CONTINUOUS
10
0.505986
20
0.935122
11
0.506254
21
0.934166
0
LINE
8
BLACK
6
CONTINUOUS
10
0.506254
20
0.934166
11
0.506246
21
0.934148
0
LINE
8
BLACK
6
CONTINUOUS
10
0.506246
20
0.934148
11
0.506251
21
0.93413
0
LINE
8
BLACK
6
CONTINUOUS
10
0.506251
20
0.93413
11
0.505832
21
0.933231
0
LINE
8
BLACK
6
CONTINUOUS
10
0.505832
20
0.933231
11
0.505424
21
0.932325
0
LINE
8
BLACK
6
CONTINUOUS
10
0.505424
20
0.932325
11
0.505406
21
0.932317
0
LINE
8
BLACK
6
CONTINUOUS
10
0.505406
20
0.932317
11
0.505398
21
0.932299
0
LINE
8
BLACK
6
CONTINUOUS
10
0.505398
20
0.932299
11
0.503862
21
0.930763
0
LINE
8
BLACK
6
CONTINUOUS
10
0.503862
20
0.930763
11
0.502513
21
0.928066
0
LINE
8
BLACK
6
CONTINUOUS
10
0.502513
20
0.928066
11
0.502513
21
0.920086
0
LINE
8
BLACK
6
CONTINUOUS
10
0.502513
20
0.920086
11
0.503862
21
0.917388
0
LINE
8
BLACK
6
CONTINUOUS
10
0.503862
20
0.917388
11
0.505059
21
0.916191
0
LINE
8
BLACK
6
CONTINUOUS
10
0.505059
20
0.916191
11
0.507756
21
0.914843
0
LINE
8
BLACK
6
CONTINUOUS
10
0.507756
20
0.914843
11
0.515736
21
0.914843
0
LINE
8
BLACK
6
CONTINUOUS
10
0.515736
20
0.914843
11
0.518434
21
0.916191
0
LINE
8
BLACK
6
CONTINUOUS
10
0.518434
20
0.916191
11
0.519631
21
0.917388
0
LINE
8
BLACK
6
CONTINUOUS
10
0.519631
20
0.917388
11
0.52098
21
0.920086
0
LINE
8
BLACK
6
CONTINUOUS
10
0.52098
20
0.920086
11
0.52098
21
0.928066
0
LINE
8
BLACK
6
CONTINUOUS
10
0.52098
20
0.928066
11
0.519631
21
0.930763
0
LINE
8
BLACK
6
CONTINUOUS
10
0.519631
20
0.930763
11
0.518095
21
0.932299
0
LINE
8
BLACK
6
CONTINUOUS
10
0.518095
20
0.932299
11
0.517507
21
0.933139
0
LINE
8
BLACK
6
CONTINUOUS
10
0.517507
20
0.933139
11
0.517331
21
0.935151
0
LINE
8
BLACK
6
CONTINUOUS
10
0.517331
20
0.935151
11
0.518489
21
0.936806
0
LINE
8
BLACK
6
CONTINUOUS
10
0.518489
20
0.936806
11
0.52044
21
0.937328
0
LINE
8
BLACK
6
CONTINUOUS
10
0.52044
20
0.937328
11
0.522271
21
0.936475
0
LINE
8
BLACK
6
CONTINUOUS
10
0.494946
20
0.974657
11
0.495081
21
0.974543
0
LINE
8
BLACK
6
CONTINUOUS
10
0.495081
20
0.974543
11
0.495257
21
0.974523
0
LINE
8
BLACK
6
CONTINUOUS
10
0.495257
20
0.974523
11
0.499006
21
0.972649
0
LINE
8
BLACK
6
CONTINUOUS
10
0.499006
20
0.972649
11
0.499715
21
0.972123
0
LINE
8
BLACK
6
CONTINUOUS
10
0.499715
20
0.972123
11
0.499774
21
0.972095
0
LINE
8
BLACK
6
CONTINUOUS
10
0.499774
20
0.972095
11
0.501435
21
0.970434
0
LINE
8
BLACK
6
CONTINUOUS
10
0.501435
20
0.970434
11
0.503097
21
0.972095
0
LINE
8
BLACK
6
CONTINUOUS
10
0.503097
20
0.972095
11
0.50382
21
0.972602
0
LINE
8
BLACK
6
CONTINUOUS
10
0.50382
20
0.972602
11
0.503864
21
0.972649
0
LINE
8
BLACK
6
CONTINUOUS
10
0.503864
20
0.972649
11
0.507614
21
0.974523
0
LINE
8
BLACK
6
CONTINUOUS
10
0.507614
20
0.974523
11
0.508597
21
0.974816
0
LINE
8
BLACK
6
CONTINUOUS
10
0.508597
20
0.974816
11
0.508768
21
0.974775
0
LINE
8
BLACK
6
CONTINUOUS
10
0.508768
20
0.974775
11
0.508934
21
0.974835
0
LINE
8
BLACK
6
CONTINUOUS
10
0.508934
20
0.974835
11
0.516433
21
0.974835
0
LINE
8
BLACK
6
CONTINUOUS
10
0.516433
20
0.974835
11
0.517443
21
0.974657
0
LINE
8
BLACK
6
CONTINUOUS
10
0.517443
20
0.974657
11
0.517578
21
0.974543
0
LINE
8
BLACK
6
CONTINUOUS
10
0.517578
20
0.974543
11
0.517754
21
0.974523
0
LINE
8
BLACK
6
CONTINUOUS
10
0.517754
20
0.974523
11
0.521503
21
0.972649
0
LINE
8
BLACK
6
CONTINUOUS
10
0.521503
20
0.972649
11
0.522212
21
0.972123
0
LINE
8
BLACK
6
CONTINUOUS
10
0.522212
20
0.972123
11
0.522271
21
0.972095
0
LINE
8
BLACK
6
CONTINUOUS
10
0.522271
20
0.972095
11
0.524145
21
0.970221
0
LINE
8
BLACK
6
CONTINUOUS
10
0.524145
20
0.970221
11
0.524652
21
0.969498
0
LINE
8
BLACK
6
CONTINUOUS
10
0.524652
20
0.969498
11
0.524699
21
0.969453
0
LINE
8
BLACK
6
CONTINUOUS
10
0.524699
20
0.969453
11
0.526573
21
0.965704
0
LINE
8
BLACK
6
CONTINUOUS
10
0.526573
20
0.965704
11
0.526866
21
0.964721
0
LINE
8
BLACK
6
CONTINUOUS
10
0.526866
20
0.964721
11
0.526825
21
0.964549
0
LINE
8
BLACK
6
CONTINUOUS
10
0.526825
20
0.964549
11
0.526885
21
0.964383
0
LINE
8
BLACK
6
CONTINUOUS
10
0.526885
20
0.964383
11
0.526885
21
0.956884
0
LINE
8
BLACK
6
CONTINUOUS
10
0.526885
20
0.956884
11
0.526707
21
0.955874
0
LINE
8
BLACK
6
CONTINUOUS
10
0.526707
20
0.955874
11
0.526594
21
0.955739
0
LINE
8
BLACK
6
CONTINUOUS
10
0.526594
20
0.955739
11
0.526573
21
0.955564
0
LINE
8
BLACK
6
CONTINUOUS
10
0.526573
20
0.955564
11
0.524699
21
0.951814
0
LINE
8
BLACK
6
CONTINUOUS
10
0.524699
20
0.951814
11
0.524173
21
0.951105
0
LINE
8
BLACK
6
CONTINUOUS
10
0.524173
20
0.951105
11
0.524145
21
0.951047
0
LINE
8
BLACK
6
CONTINUOUS
10
0.524145
20
0.951047
11
0.522271
21
0.949172
0
LINE
8
BLACK
6
CONTINUOUS
10
0.522271
20
0.949172
11
0.521548
21
0.948666
0
LINE
8
BLACK
6
CONTINUOUS
10
0.521548
20
0.948666
11
0.521503
21
0.948619
0
LINE
8
BLACK
6
CONTINUOUS
10
0.521503
20
0.948619
11
0.517754
21
0.946744
0
LINE
8
BLACK
6
CONTINUOUS
10
0.517754
20
0.946744
11
0.516771
21
0.946452
0
LINE
8
BLACK
6
CONTINUOUS
10
0.516771
20
0.946452
11
0.516599
21
0.946493
0
LINE
8
BLACK
6
CONTINUOUS
10
0.516599
20
0.946493
11
0.516433
21
0.946432
0
LINE
8
BLACK
6
CONTINUOUS
10
0.516433
20
0.946432
11
0.508934
21
0.946432
0
LINE
8
BLACK
6
CONTINUOUS
10
0.508934
20
0.946432
11
0.507924
21
0.94661
0
LINE
8
BLACK
6
CONTINUOUS
10
0.507924
20
0.94661
11
0.507789
21
0.946724
0
LINE
8
BLACK
6
CONTINUOUS
10
0.507789
20
0.946724
11
0.507614
21
0.946744
0
LINE
8
BLACK
6
CONTINUOUS
10
0.507614
20
0.946744
11
0.503864
21
0.948619
0
LINE
8
BLACK
6
CONTINUOUS
10
0.503864
20
0.948619
11
0.503155
21
0.949145
0
LINE
8
BLACK
6
CONTINUOUS
10
0.503155
20
0.949145
11
0.503097
21
0.949172
0
LINE
8
BLACK
6
CONTINUOUS
10
0.503097
20
0.949172
11
0.501435
21
0.950834
0
LINE
8
BLACK
6
CONTINUOUS
10
0.501435
20
0.950834
11
0.499774
21
0.949172
0
LINE
8
BLACK
6
CONTINUOUS
10
0.499774
20
0.949172
11
0.499051
21
0.948666
0
LINE
8
BLACK
6
CONTINUOUS
10
0.499051
20
0.948666
11
0.499006
21
0.948619
0
LINE
8
BLACK
6
CONTINUOUS
10
0.499006
20
0.948619
11
0.495257
21
0.946744
0
LINE
8
BLACK
6
CONTINUOUS
10
0.495257
20
0.946744
11
0.494274
21
0.946452
0
LINE
8
BLACK
6
CONTINUOUS
10
0.494274
20
0.946452
11
0.494102
21
0.946493
0
LINE
8
BLACK
6
CONTINUOUS
10
0.494102
20
0.946493
11
0.493936
21
0.946432
0
LINE
8
BLACK
6
CONTINUOUS
10
0.493936
20
0.946432
11
0.492061
21
0.946432
0
LINE
8
BLACK
6
CONTINUOUS
10
0.492061
20
0.946432
11
0.491051
21
0.94661
0
LINE
8
BLACK
6
CONTINUOUS
10
0.491051
20
0.94661
11
0.490916
21
0.946724
0
LINE
8
BLACK
6
CONTINUOUS
10
0.490916
20
0.946724
11
0.490741
21
0.946744
0
LINE
8
BLACK
6
CONTINUOUS
10
0.490741
20
0.946744
11
0.486991
21
0.948619
0
LINE
8
BLACK
6
CONTINUOUS
10
0.486991
20
0.948619
11
0.486282
21
0.949145
0
LINE
8
BLACK
6
CONTINUOUS
10
0.486282
20
0.949145
11
0.486224
21
0.949172
0
LINE
8
BLACK
6
CONTINUOUS
10
0.486224
20
0.949172
11
0.484349
21
0.951047
0
LINE
8
BLACK
6
CONTINUOUS
10
0.484349
20
0.951047
11
0.483843
21
0.95177
0
LINE
8
BLACK
6
CONTINUOUS
10
0.483843
20
0.95177
11
0.483796
21
0.951814
0
LINE
8
BLACK
6
CONTINUOUS
10
0.483796
20
0.951814
11
0.481921
21
0.955564
0
LINE
8
BLACK
6
CONTINUOUS
10
0.481921
20
0.955564
11
0.481629
21
0.956547
0
LINE
8
BLACK
6
CONTINUOUS
10
0.481629
20
0.956547
11
0.48167
21
0.956718
0
LINE
8
BLACK
6
CONTINUOUS
10
0.48167
20
0.956718
11
0.481609
21
0.956884
0
LINE
8
BLACK
6
CONTINUOUS
10
0.481609
20
0.956884
11
0.481609
21
0.964383
0
LINE
8
BLACK
6
CONTINUOUS
10
0.481609
20
0.964383
11
0.481788
21
0.965393
0
LINE
8
BLACK
6
CONTINUOUS
10
0.481788
20
0.965393
11
0.481901
21
0.965528
0
LINE
8
BLACK
6
CONTINUOUS
10
0.481901
20
0.965528
11
0.481921
21
0.965704
0
LINE
8
BLACK
6
CONTINUOUS
10
0.481921
20
0.965704
11
0.483796
21
0.969453
0
LINE
8
BLACK
6
CONTINUOUS
10
0.483796
20
0.969453
11
0.484322
21
0.970162
0
LINE
8
BLACK
6
CONTINUOUS
10
0.484322
20
0.970162
11
0.484349
21
0.970221
0
LINE
8
BLACK
6
CONTINUOUS
10
0.484349
20
0.970221
11
0.486224
21
0.972095
0
LINE
8
BLACK
6
CONTINUOUS
10
0.486224
20
0.972095
11
0.486947
21
0.972602
0
LINE
8
BLACK
6
CONTINUOUS
10
0.486947
20
0.972602
11
0.486991
21
0.972649
0
LINE
8
BLACK
6
CONTINUOUS
10
0.486991
20
0.972649
11
0.490741
21
0.974523
0
LINE
8
BLACK
6
CONTINUOUS
10
0.490741
20
0.974523
11
0.491724
21
0.974816
0
LINE
8
BLACK
6
CONTINUOUS
10
0.491724
20
0.974816
11
0.491895
21
0.974775
0
LINE
8
BLACK
6
CONTINUOUS
10
0.491895
20
0.974775
11
0.492061
21
0.974835
0
LINE
8
BLACK
6
CONTINUOUS
10
0.492061
20
0.974835
11
0.493936
21
0.974835
0
LINE
8
BLACK
6
CONTINUOUS
10
0.493936
20
0.974835
11
0.494946
21
0.974657
0
LINE
8
BLACK
6
CONTINUOUS
10
0.509631
20
0.968929
11
0.506934
21
0.967581
0
LINE
8
BLACK
6
CONTINUOUS
10
0.506934
20
0.967581
11
0.505737
21
0.966384
0
LINE
8
BLACK
6
CONTINUOUS
10
0.505737
20
0.966384
11
0.504388
21
0.963686
0
LINE
8
BLACK
6
CONTINUOUS
10
0.504388
20
0.963686
11
0.504388
21
0.957581
0
LINE
8
BLACK
6
CONTINUOUS
10
0.504388
20
0.957581
11
0.505737
21
0.954884
0
LINE
8
BLACK
6
CONTINUOUS
10
0.505737
20
0.954884
11
0.506934
21
0.953687
0
LINE
8
BLACK
6
CONTINUOUS
10
0.506934
20
0.953687
11
0.509631
21
0.952338
0
LINE
8
BLACK
6
CONTINUOUS
10
0.509631
20
0.952338
11
0.515736
21
0.952338
0
LINE
8
BLACK
6
CONTINUOUS
10
0.515736
20
0.952338
11
0.518434
21
0.953687
0
LINE
8
BLACK
6
CONTINUOUS
10
0.518434
20
0.953687
11
0.519631
21
0.954884
0
LINE
8
BLACK
6
CONTINUOUS
10
0.519631
20
0.954884
11
0.52098
21
0.957581
0
LINE
8
BLACK
6
CONTINUOUS
10
0.52098
20
0.957581
11
0.52098
21
0.963686
0
LINE
8
BLACK
6
CONTINUOUS
10
0.52098
20
0.963686
11
0.519631
21
0.966384
0
LINE
8
BLACK
6
CONTINUOUS
10
0.519631
20
0.966384
11
0.518434
21
0.967581
0
LINE
8
BLACK
6
CONTINUOUS
10
0.518434
20
0.967581
11
0.515736
21
0.968929
0
LINE
8
BLACK
6
CONTINUOUS
10
0.515736
20
0.968929
11
0.509631
21
0.968929
0
LINE
8
BLACK
6
CONTINUOUS
10
0.492758
20
0.968929
11
0.490061
21
0.967581
0
LINE
8
BLACK
6
CONTINUOUS
10
0.490061
20
0.967581
11
0.488864
21
0.966384
0
LINE
8
BLACK
6
CONTINUOUS
10
0.488864
20
0.966384
11
0.487515
21
0.963686
0
LINE
8
BLACK
6
CONTINUOUS
10
0.487515
20
0.963686
11
0.487515
21
0.957581
0
LINE
8
BLACK
6
CONTINUOUS
10
0.487515
20
0.957581
11
0.488864
21
0.954884
0
LINE
8
BLACK
6
CONTINUOUS
10
0.488864
20
0.954884
11
0.490061
21
0.953687
0
LINE
8
BLACK
6
CONTINUOUS
10
0.490061
20
0.953687
11
0.492758
21
0.952338
0
LINE
8
BLACK
6
CONTINUOUS
10
0.492758
20
0.952338
11
0.493239
21
0.952338
0
LINE
8
BLACK
6
CONTINUOUS
10
0.493239
20
0.952338
11
0.495936
21
0.953687
0
LINE
8
BLACK
6
CONTINUOUS
10
0.495936
20
0.953687
11
0.497134
21
0.954884
0
LINE
8
BLACK
6
CONTINUOUS
10
0.497134
20
0.954884
11
0.498482
21
0.957581
0
LINE
8
BLACK
6
CONTINUOUS
10
0.498482
20
0.957581
11
0.498482
21
0.963686
0
LINE
8
BLACK
6
CONTINUOUS
10
0.498482
20
0.963686
11
0.497134
21
0.966384
0
LINE
8
BLACK
6
CONTINUOUS
10
0.497134
20
0.966384
11
0.495936
21
0.967581
0
LINE
8
BLACK
6
CONTINUOUS
10
0.495936
20
0.967581
11
0.493239
21
0.968929
0
LINE
8
BLACK
6
CONTINUOUS
10
0.493239
20
0.968929
11
0.492758
21
0.968929
0
LINE
8
BLACK
6
CONTINUOUS
10
0.511099
20
1.01225
11
0.511322
21
1.01229
0
LINE
8
BLACK
6
CONTINUOUS
10
0.511322
20
1.01229
11
0.512019
21
1.01188
0
LINE
8
BLACK
6
CONTINUOUS
10
0.512019
20
1.01188
11
0.512768
21
1.01159
0
LINE
8
BLACK
6
CONTINUOUS
10
0.512768
20
1.01159
11
0.512875
21
1.01139
0
LINE
8
BLACK
6
CONTINUOUS
10
0.512875
20
1.01139
11
0.513071
21
1.01128
0
LINE
8
BLACK
6
CONTINUOUS
10
0.513071
20
1.01128
11
0.513346
21
1.01052
0
LINE
8
BLACK
6
CONTINUOUS
10
0.513346
20
1.01052
11
0.51373
21
1.00981
0
LINE
8
BLACK
6
CONTINUOUS
10
0.51373
20
1.00981
11
0.513685
21
1.00959
0
LINE
8
BLACK
6
CONTINUOUS
10
0.513685
20
1.00959
11
0.513762
21
1.00938
0
LINE
8
BLACK
6
CONTINUOUS
10
0.513762
20
1.00938
11
0.513762
21
0.993583
0
LINE
8
BLACK
6
CONTINUOUS
10
0.513762
20
0.993583
11
0.523932
21
0.993583
0
LINE
8
BLACK
6
CONTINUOUS
10
0.523932
20
0.993583
11
0.524942
21
0.993405
0
LINE
8
BLACK
6
CONTINUOUS
10
0.524942
20
0.993405
11
0.526489
21
0.992106
0
LINE
8
BLACK
6
CONTINUOUS
10
0.526489
20
0.992106
11
0.52684
21
0.990117
0
LINE
8
BLACK
6
CONTINUOUS
10
0.52684
20
0.990117
11
0.52583
21
0.988368
0
LINE
8
BLACK
6
CONTINUOUS
10
0.52583
20
0.988368
11
0.523932
21
0.987677
0
LINE
8
BLACK
6
CONTINUOUS
10
0.523932
20
0.987677
11
0.513762
21
0.987677
0
LINE
8
BLACK
6
CONTINUOUS
10
0.513762
20
0.987677
11
0.513762
21
0.985006
0
LINE
8
BLACK
6
CONTINUOUS
10
0.513762
20
0.985006
11
0.513584
21
0.983996
0
LINE
8
BLACK
6
CONTINUOUS
10
0.513584
20
0.983996
11
0.512285
21
0.982448
0
LINE
8
BLACK
6
CONTINUOUS
10
0.512285
20
0.982448
11
0.510296
21
0.982098
0
LINE
8
BLACK
6
CONTINUOUS
10
0.510296
20
0.982098
11
0.508547
21
0.983108
0
LINE
8
BLACK
6
CONTINUOUS
10
0.508547
20
0.983108
11
0.507856
21
0.985006
0
LINE
8
BLACK
6
CONTINUOUS
10
0.507856
20
0.985006
11
0.507856
21
0.987677
0
LINE
8
BLACK
6
CONTINUOUS
10
0.507856
20
0.987677
11
0.497686
21
0.987677
0
LINE
8
BLACK
6
CONTINUOUS
10
0.497686
20
0.987677
11
0.496676
21
0.987855
0
LINE
8
BLACK
6
CONTINUOUS
10
0.496676
20
0.987855
11
0.495128
21
0.989154
0
LINE
8
BLACK
6
CONTINUOUS
10
0.495128
20
0.989154
11
0.494778
21
0.991143
0
LINE
8
BLACK
6
CONTINUOUS
10
0.494778
20
0.991143
11
0.495788
21
0.992892
0
LINE
8
BLACK
6
CONTINUOUS
10
0.495788
20
0.992892
11
0.497686
21
0.993583
0
LINE
8
BLACK
6
CONTINUOUS
10
0.497686
20
0.993583
11
0.507856
21
0.993583
0
LINE
8
BLACK
6
CONTINUOUS
10
0.507856
20
0.993583
11
0.507856
21
1.00528
0
LINE
8
BLACK
6
CONTINUOUS
10
0.507856
20
1.00528
11
0.483621
21
0.997203
0
LINE
8
BLACK
6
CONTINUOUS
10
0.483621
20
0.997203
11
0.482607
21
0.997052
0
LINE
8
BLACK
6
CONTINUOUS
10
0.482607
20
0.997052
11
0.480728
21
0.997794
0
LINE
8
BLACK
6
CONTINUOUS
10
0.480728
20
0.997794
11
0.479767
21
0.999571
0
LINE
8
BLACK
6
CONTINUOUS
10
0.479767
20
0.999571
11
0.480172
21
1.00155
0
LINE
8
BLACK
6
CONTINUOUS
10
0.480172
20
1.00155
11
0.481754
21
1.0028
0
LINE
8
BLACK
6
CONTINUOUS
10
0.481754
20
1.0028
11
0.509875
21
1.01218
0
LINE
8
BLACK
6
CONTINUOUS
10
0.509875
20
1.01218
11
0.51089
21
1.01233
0
LINE
8
BLACK
6
CONTINUOUS
10
0.51089
20
1.01233
11
0.511099
21
1.01225
0
LINE
8
BLACK
6
CONTINUOUS
10
0.524562
20
1.05159
11
0.524696
21
1.0516
0
LINE
8
BLACK
6
CONTINUOUS
10
0.524696
20
1.0516
11
0.525425
21
1.05109
0
LINE
8
BLACK
6
CONTINUOUS
10
0.525425
20
1.05109
11
0.526194
21
1.05065
0
LINE
8
BLACK
6
CONTINUOUS
10
0.526194
20
1.05065
11
0.52624
21
1.05052
0
LINE
8
BLACK
6
CONTINUOUS
10
0.52624
20
1.05052
11
0.526351
21
1.05044
0
LINE
8
BLACK
6
CONTINUOUS
10
0.526351
20
1.05044
11
0.526581
21
1.04958
0
LINE
8
BLACK
6
CONTINUOUS
10
0.526581
20
1.04958
11
0.526885
21
1.04875
0
LINE
8
BLACK
6
CONTINUOUS
10
0.526885
20
1.04875
11
0.526885
21
1.02438
0
LINE
8
BLACK
6
CONTINUOUS
10
0.526885
20
1.02438
11
0.526707
21
1.02337
0
LINE
8
BLACK
6
CONTINUOUS
10
0.526707
20
1.02337
11
0.525409
21
1.02182
0
LINE
8
BLACK
6
CONTINUOUS
10
0.525409
20
1.02182
11
0.52342
21
1.02147
0
LINE
8
BLACK
6
CONTINUOUS
10
0.52342
20
1.02147
11
0.52167
21
1.02248
0
LINE
8
BLACK
6
CONTINUOUS
10
0.52167
20
1.02248
11
0.52098
21
1.02438
0
LINE
8
BLACK
6
CONTINUOUS
10
0.52098
20
1.02438
11
0.52098
21
1.04162
0
LINE
8
BLACK
6
CONTINUOUS
10
0.52098
20
1.04162
11
0.503523
21
1.02416
0
LINE
8
BLACK
6
CONTINUOUS
10
0.503523
20
1.02416
11
0.502683
21
1.02357
0
LINE
8
BLACK
6
CONTINUOUS
10
0.502683
20
1.02357
11
0.502507
21
1.02356
0
LINE
8
BLACK
6
CONTINUOUS
10
0.502507
20
1.02356
11
0.502369
21
1.02345
0
LINE
8
BLACK
6
CONTINUOUS
10
0.502369
20
1.02345
11
0.496745
21
1.02157
0
LINE
8
BLACK
6
CONTINUOUS
10
0.496745
20
1.02157
11
0.495871
21
1.02144
0
LINE
8
BLACK
6
CONTINUOUS
10
0.495871
20
1.02144
11
0.495811
21
1.02142
0
LINE
8
BLACK
6
CONTINUOUS
10
0.495811
20
1.02142
11
0.492061
21
1.02142
0
LINE
8
BLACK
6
CONTINUOUS
10
0.492061
20
1.02142
11
0.491051
21
1.0216
0
LINE
8
BLACK
6
CONTINUOUS
10
0.491051
20
1.0216
11
0.490916
21
1.02171
0
LINE
8
BLACK
6
CONTINUOUS
10
0.490916
20
1.02171
11
0.490741
21
1.02173
0
LINE
8
BLACK
6
CONTINUOUS
10
0.490741
20
1.02173
11
0.486991
21
1.02361
0
LINE
8
BLACK
6
CONTINUOUS
10
0.486991
20
1.02361
11
0.486282
21
1.02414
0
LINE
8
BLACK
6
CONTINUOUS
10
0.486282
20
1.02414
11
0.486224
21
1.02416
0
LINE
8
BLACK
6
CONTINUOUS
10
0.486224
20
1.02416
11
0.484349
21
1.02604
0
LINE
8
BLACK
6
CONTINUOUS
10
0.484349
20
1.02604
11
0.483843
21
1.02676
0
LINE
8
BLACK
6
CONTINUOUS
10
0.483843
20
1.02676
11
0.483796
21
1.0268
0
LINE
8
BLACK
6
CONTINUOUS
10
0.483796
20
1.0268
11
0.481921
21
1.03055
0
LINE
8
BLACK
6
CONTINUOUS
10
0.481921
20
1.03055
11
0.481629
21
1.03154
0
LINE
8
BLACK
6
CONTINUOUS
10
0.481629
20
1.03154
11
0.48167
21
1.03171
0
LINE
8
BLACK
6
CONTINUOUS
10
0.48167
20
1.03171
11
0.481609
21
1.03187
0
LINE
8
BLACK
6
CONTINUOUS
10
0.481609
20
1.03187
11
0.481609
21
1.04125
0
LINE
8
BLACK
6
CONTINUOUS
10
0.481609
20
1.04125
11
0.481788
21
1.04226
0
LINE
8
BLACK
6
CONTINUOUS
10
0.481788
20
1.04226
11
0.481901
21
1.04239
0
LINE
8
BLACK
6
CONTINUOUS
10
0.481901
20
1.04239
11
0.481921
21
1.04257
0
LINE
8
BLACK
6
CONTINUOUS
10
0.481921
20
1.04257
11
0.483796
21
1.04632
0
LINE
8
BLACK
6
CONTINUOUS
10
0.483796
20
1.04632
11
0.484322
21
1.04703
0
LINE
8
BLACK
6
CONTINUOUS
10
0.484322
20
1.04703
11
0.484349
21
1.04709
0
LINE
8
BLACK
6
CONTINUOUS
10
0.484349
20
1.04709
11
0.486224
21
1.04896
0
LINE
8
BLACK
6
CONTINUOUS
10
0.486224
20
1.04896
11
0.487064
21
1.04955
0
LINE
8
BLACK
6
CONTINUOUS
10
0.487064
20
1.04955
11
0.489076
21
1.04973
0
LINE
8
BLACK
6
CONTINUOUS
10
0.489076
20
1.04973
11
0.490731
21
1.04857
0
LINE
8
BLACK
6
CONTINUOUS
10
0.490731
20
1.04857
11
0.491253
21
1.04662
0
LINE
8
BLACK
6
CONTINUOUS
10
0.491253
20
1.04662
11
0.4904
21
1.04478
0
LINE
8
BLACK
6
CONTINUOUS
10
0.4904
20
1.04478
11
0.488864
21
1.04325
0
LINE
8
BLACK
6
CONTINUOUS
10
0.488864
20
1.04325
11
0.487515
21
1.04055
0
LINE
8
BLACK
6
CONTINUOUS
10
0.487515
20
1.04055
11
0.487515
21
1.03257
0
LINE
8
BLACK
6
CONTINUOUS
10
0.487515
20
1.03257
11
0.488864
21
1.02987
0
LINE
8
BLACK
6
CONTINUOUS
10
0.488864
20
1.02987
11
0.490061
21
1.02868
0
LINE
8
BLACK
6
CONTINUOUS
10
0.490061
20
1.02868
11
0.492758
21
1.02733
0
LINE
8
BLACK
6
CONTINUOUS
10
0.492758
20
1.02733
11
0.495332
21
1.02733
0
LINE
8
BLACK
6
CONTINUOUS
10
0.495332
20
1.02733
11
0.49984
21
1.02883
0
LINE
8
BLACK
6
CONTINUOUS
10
0.49984
20
1.02883
11
0.521844
21
1.05084
0
LINE
8
BLACK
6
CONTINUOUS
10
0.521844
20
1.05084
11
0.522372
21
1.05121
0
LINE
8
BLACK
6
CONTINUOUS
10
0.522372
20
1.05121
11
0.522456
21
1.0513
0
LINE
8
BLACK
6
CONTINUOUS
10
0.522456
20
1.0513
11
0.522534
21
1.05132
0
LINE
8
BLACK
6
CONTINUOUS
10
0.522534
20
1.05132
11
0.522684
21
1.05142
0
LINE
8
BLACK
6
CONTINUOUS
10
0.522684
20
1.05142
11
0.52357
21
1.0515
0
LINE
8
BLACK
6
CONTINUOUS
10
0.52357
20
1.0515
11
0.524445
21
1.05166
0
LINE
8
BLACK
6
CONTINUOUS
10
0.524445
20
1.05166
11
0.524562
21
1.05159
0
LINE
8
BLACK
6
CONTINUOUS
10
0.50764
20
1.08909
11
0.507776
21
1.08911
0
LINE
8
BLACK
6
CONTINUOUS
10
0.507776
20
1.08911
11
0.515275
21
1.08723
0
LINE
8
BLACK
6
CONTINUOUS
10
0.515275
20
1.08723
11
0.51574
21
1.08703
0
LINE
8
BLACK
6
CONTINUOUS
10
0.51574
20
1.08703
11
0.515879
21
1.08701
0
LINE
8
BLACK
6
CONTINUOUS
10
0.515879
20
1.08701
11
0.519629
21
1.08513
0
LINE
8
BLACK
6
CONTINUOUS
10
0.519629
20
1.08513
11
0.520338
21
1.08461
0
LINE
8
BLACK
6
CONTINUOUS
10
0.520338
20
1.08461
11
0.520396
21
1.08458
0
LINE
8
BLACK
6
CONTINUOUS
10
0.520396
20
1.08458
11
0.524145
21
1.08083
0
LINE
8
BLACK
6
CONTINUOUS
10
0.524145
20
1.08083
11
0.524734
21
1.07999
0
LINE
8
BLACK
6
CONTINUOUS
10
0.524734
20
1.07999
11
0.524749
21
1.07982
0
LINE
8
BLACK
6
CONTINUOUS
10
0.524749
20
1.07982
11
0.524859
21
1.07968
0
LINE
8
BLACK
6
CONTINUOUS
10
0.524859
20
1.07968
11
0.526734
21
1.07405
0
LINE
8
BLACK
6
CONTINUOUS
10
0.526734
20
1.07405
11
0.526863
21
1.07318
0
LINE
8
BLACK
6
CONTINUOUS
10
0.526863
20
1.07318
11
0.526885
21
1.07312
0
LINE
8
BLACK
6
CONTINUOUS
10
0.526885
20
1.07312
11
0.526885
21
1.06937
0
LINE
8
BLACK
6
CONTINUOUS
10
0.526885
20
1.06937
11
0.526732
21
1.0685
0
LINE
8
BLACK
6
CONTINUOUS
10
0.526732
20
1.0685
11
0.526734
21
1.06844
0
LINE
8
BLACK
6
CONTINUOUS
10
0.526734
20
1.06844
11
0.524859
21
1.06281
0
LINE
8
BLACK
6
CONTINUOUS
10
0.524859
20
1.06281
11
0.52437
21
1.06191
0
LINE
8
BLACK
6
CONTINUOUS
10
0.52437
20
1.06191
11
0.52422
21
1.06182
0
LINE
8
BLACK
6
CONTINUOUS
10
0.52422
20
1.06182
11
0.524145
21
1.06166
0
LINE
8
BLACK
6
CONTINUOUS
10
0.524145
20
1.06166
11
0.522271
21
1.05978
0
LINE
8
BLACK
6
CONTINUOUS
10
0.522271
20
1.05978
11
0.521431
21
1.05919
0
LINE
8
BLACK
6
CONTINUOUS
10
0.521431
20
1.05919
11
0.519419
21
1.05902
0
LINE
8
BLACK
6
CONTINUOUS
10
0.519419
20
1.05902
11
0.517764
21
1.06018
0
LINE
8
BLACK
6
CONTINUOUS
10
0.517764
20
1.06018
11
0.517241
21
1.06213
0
LINE
8
BLACK
6
CONTINUOUS
10
0.517241
20
1.06213
11
0.518095
21
1.06396
0
LINE
8
BLACK
6
CONTINUOUS
10
0.518095
20
1.06396
11
0.519477
21
1.06534
0
LINE
8
BLACK
6
CONTINUOUS
10
0.519477
20
1.06534
11
0.52098
21
1.06985
0
LINE
8
BLACK
6
CONTINUOUS
10
0.52098
20
1.06985
11
0.52098
21
1.07264
0
LINE
8
BLACK
6
CONTINUOUS
10
0.52098
20
1.07264
11
0.519477
21
1.07715
0
LINE
8
BLACK
6
CONTINUOUS
10
0.519477
20
1.07715
11
0.516559
21
1.08007
0
LINE
8
BLACK
6
CONTINUOUS
10
0.516559
20
1.08007
11
0.513528
21
1.08158
0
LINE
8
BLACK
6
CONTINUOUS
10
0.513528
20
1.08158
11
0.506696
21
1.08329
0
LINE
8
BLACK
6
CONTINUOUS
10
0.506696
20
1.08329
11
0.501799
21
1.08329
0
LINE
8
BLACK
6
CONTINUOUS
10
0.501799
20
1.08329
11
0.494967
21
1.08158
0
LINE
8
BLACK
6
CONTINUOUS
10
0.494967
20
1.08158
11
0.491936
21
1.08007
0
LINE
8
BLACK
6
CONTINUOUS
10
0.491936
20
1.08007
11
0.489018
21
1.07715
0
LINE
8
BLACK
6
CONTINUOUS
10
0.489018
20
1.07715
11
0.487515
21
1.07264
0
LINE
8
BLACK
6
CONTINUOUS
10
0.487515
20
1.07264
11
0.487515
21
1.06985
0
LINE
8
BLACK
6
CONTINUOUS
10
0.487515
20
1.06985
11
0.489018
21
1.06534
0
LINE
8
BLACK
6
CONTINUOUS
10
0.489018
20
1.06534
11
0.4904
21
1.06396
0
LINE
8
BLACK
6
CONTINUOUS
10
0.4904
20
1.06396
11
0.490988
21
1.06312
0
LINE
8
BLACK
6
CONTINUOUS
10
0.490988
20
1.06312
11
0.491164
21
1.06111
0
LINE
8
BLACK
6
CONTINUOUS
10
0.491164
20
1.06111
11
0.490005
21
1.05945
0
LINE
8
BLACK
6
CONTINUOUS
10
0.490005
20
1.05945
11
0.488054
21
1.05893
0
LINE
8
BLACK
6
CONTINUOUS
10
0.488054
20
1.05893
11
0.486224
21
1.05978
0
LINE
8
BLACK
6
CONTINUOUS
10
0.486224
20
1.05978
11
0.484349
21
1.06166
0
LINE
8
BLACK
6
CONTINUOUS
10
0.484349
20
1.06166
11
0.483761
21
1.0625
0
LINE
8
BLACK
6
CONTINUOUS
10
0.483761
20
1.0625
11
0.483746
21
1.06267
0
LINE
8
BLACK
6
CONTINUOUS
10
0.483746
20
1.06267
11
0.483636
21
1.06281
0
LINE
8
BLACK
6
CONTINUOUS
10
0.483636
20
1.06281
11
0.481761
21
1.06844
0
LINE
8
BLACK
6
CONTINUOUS
10
0.481761
20
1.06844
11
0.481631
21
1.06931
0
LINE
8
BLACK
6
CONTINUOUS
10
0.481631
20
1.06931
11
0.481609
21
1.06937
0
LINE
8
BLACK
6
CONTINUOUS
10
0.481609
20
1.06937
11
0.481609
21
1.07312
0
LINE
8
BLACK
6
CONTINUOUS
10
0.481609
20
1.07312
11
0.481763
21
1.07399
0
LINE
8
BLACK
6
CONTINUOUS
10
0.481763
20
1.07399
11
0.481761
21
1.07405
0
LINE
8
BLACK
6
CONTINUOUS
10
0.481761
20
1.07405
11
0.483636
21
1.07968
0
LINE
8
BLACK
6
CONTINUOUS
10
0.483636
20
1.07968
11
0.484124
21
1.08058
0
LINE
8
BLACK
6
CONTINUOUS
10
0.484124
20
1.08058
11
0.484275
21
1.08067
0
LINE
8
BLACK
6
CONTINUOUS
10
0.484275
20
1.08067
11
0.484349
21
1.08083
0
LINE
8
BLACK
6
CONTINUOUS
10
0.484349
20
1.08083
11
0.488099
21
1.08458
0
LINE
8
BLACK
6
CONTINUOUS
10
0.488099
20
1.08458
11
0.488822
21
1.08509
0
LINE
8
BLACK
6
CONTINUOUS
10
0.488822
20
1.08509
11
0.488866
21
1.08513
0
LINE
8
BLACK
6
CONTINUOUS
10
0.488866
20
1.08513
11
0.492616
21
1.08701
0
LINE
8
BLACK
6
CONTINUOUS
10
0.492616
20
1.08701
11
0.493104
21
1.08715
0
LINE
8
BLACK
6
CONTINUOUS
10
0.493104
20
1.08715
11
0.49322
21
1.08723
0
LINE
8
BLACK
6
CONTINUOUS
10
0.49322
20
1.08723
11
0.500719
21
1.08911
0
LINE
8
BLACK
6
CONTINUOUS
10
0.500719
20
1.08911
11
0.501307
21
1.08915
0
LINE
8
BLACK
6
CONTINUOUS
10
0.501307
20
1.08915
11
0.501435
21
1.0892
0
LINE
8
BLACK
6
CONTINUOUS
10
0.501435
20
1.0892
11
0.507059
21
1.0892
0
LINE
8
BLACK
6
CONTINUOUS
10
0.507059
20
1.0892
11
0.50764
21
1.08909
0
LINE
8
BLACK
6
CONTINUOUS
10
0.486824
20
1.12189
11
0.487515
21
1.11999
0
LINE
8
BLACK
6
CONTINUOUS
10
0.487515
20
1.11999
11
0.487515
21
1.11169
0
LINE
8
BLACK
6
CONTINUOUS
10
0.487515
20
1.11169
11
0.523932
21
1.11169
0
LINE
8
BLACK
6
CONTINUOUS
10
0.523932
20
1.11169
11
0.524942
21
1.11151
0
LINE
8
BLACK
6
CONTINUOUS
10
0.524942
20
1.11151
11
0.526489
21
1.11022
0
LINE
8
BLACK
6
CONTINUOUS
10
0.526489
20
1.11022
11
0.52684
21
1.10823
0
LINE
8
BLACK
6
CONTINUOUS
10
0.52684
20
1.10823
11
0.52583
21
1.10648
0
LINE
8
BLACK
6
CONTINUOUS
10
0.52583
20
1.10648
11
0.523932
21
1.10579
0
LINE
8
BLACK
6
CONTINUOUS
10
0.523932
20
1.10579
11
0.487515
21
1.10579
0
LINE
8
BLACK
6
CONTINUOUS
10
0.487515
20
1.10579
11
0.487515
21
1.09749
0
LINE
8
BLACK
6
CONTINUOUS
10
0.487515
20
1.09749
11
0.487337
21
1.09648
0
LINE
8
BLACK
6
CONTINUOUS
10
0.487337
20
1.09648
11
0.486039
21
1.09493
0
LINE
8
BLACK
6
CONTINUOUS
10
0.486039
20
1.09493
11
0.484049
21
1.09458
0
LINE
8
BLACK
6
CONTINUOUS
10
0.484049
20
1.09458
11
0.4823
21
1.09559
0
LINE
8
BLACK
6
CONTINUOUS
10
0.4823
20
1.09559
11
0.481609
21
1.09749
0
LINE
8
BLACK
6
CONTINUOUS
10
0.481609
20
1.09749
11
0.481609
21
1.11999
0
LINE
8
BLACK
6
CONTINUOUS
10
0.481609
20
1.11999
11
0.481788
21
1.121
0
LINE
8
BLACK
6
CONTINUOUS
10
0.481788
20
1.121
11
0.483086
21
1.12255
0
LINE
8
BLACK
6
CONTINUOUS
10
0.483086
20
1.12255
11
0.485075
21
1.1229
0
LINE
8
BLACK
6
CONTINUOUS
10
0.485075
20
1.1229
11
0.486824
21
1.12189
0
LINE
8
BLACK
6
CONTINUOUS
10
0.524316
20
1.14912
11
0.524445
21
1.14914
0
LINE
8
BLACK
6
CONTINUOUS
10
0.524445
20
1.14914
11
0.524559
21
1.14908
0
LINE
8
BLACK
6
CONTINUOUS
10
0.524559
20
1.14908
11
0.524942
21
1.14901
0
LINE
8
BLACK
6
CONTINUOUS
10
0.524942
20
1.14901
11
0.52553
21
1.14852
0
LINE
8
BLACK
6
CONTINUOUS
10
0.52553
20
1.14852
11
0.526194
21
1.14813
0
LINE
8
BLACK
6
CONTINUOUS
10
0.526194
20
1.14813
11
0.526285
21
1.14788
0
LINE
8
BLACK
6
CONTINUOUS
10
0.526285
20
1.14788
11
0.526489
21
1.14771
0
LINE
8
BLACK
6
CONTINUOUS
10
0.526489
20
1.14771
11
0.526623
21
1.14696
0
LINE
8
BLACK
6
CONTINUOUS
10
0.526623
20
1.14696
11
0.526885
21
1.14624
0
LINE
8
BLACK
6
CONTINUOUS
10
0.526885
20
1.14624
11
0.526885
21
1.12749
0
LINE
8
BLACK
6
CONTINUOUS
10
0.526885
20
1.12749
11
0.526707
21
1.12648
0
LINE
8
BLACK
6
CONTINUOUS
10
0.526707
20
1.12648
11
0.525409
21
1.12493
0
LINE
8
BLACK
6
CONTINUOUS
10
0.525409
20
1.12493
11
0.52342
21
1.12458
0
LINE
8
BLACK
6
CONTINUOUS
10
0.52342
20
1.12458
11
0.52167
21
1.12559
0
LINE
8
BLACK
6
CONTINUOUS
10
0.52167
20
1.12559
11
0.52098
21
1.12749
0
LINE
8
BLACK
6
CONTINUOUS
10
0.52098
20
1.12749
11
0.52098
21
1.14328
0
LINE
8
BLACK
6
CONTINUOUS
10
0.52098
20
1.14328
11
0.484562
21
1.14328
0
LINE
8
BLACK
6
CONTINUOUS
10
0.484562
20
1.14328
11
0.483552
21
1.14346
0
LINE
8
BLACK
6
CONTINUOUS
10
0.483552
20
1.14346
11
0.482005
21
1.14476
0
LINE
8
BLACK
6
CONTINUOUS
10
0.482005
20
1.14476
11
0.481654
21
1.14675
0
LINE
8
BLACK
6
CONTINUOUS
10
0.481654
20
1.14675
11
0.482664
21
1.1485
0
LINE
8
BLACK
6
CONTINUOUS
10
0.482664
20
1.1485
11
0.484562
21
1.14919
0
LINE
8
BLACK
6
CONTINUOUS
10
0.484562
20
1.14919
11
0.523932
21
1.14919
0
LINE
8
BLACK
6
CONTINUOUS
10
0.523932
20
1.14919
11
0.524316
21
1.14912
  0
ENDSEC
  0
EOF
