  0
SECTION
  2
HEADER
  9
$ANGBASE
  50
0.0
  9
$ANGDIR
  70
1
  9
$MEASUREMENT
  70
0
  0
ENDSEC
  0
SECTION
  2
TABLES
  0
TABLE
  2
LTYPE
  70
4
  0
LTYPE
  5
40F
  2
CONTINUOUS
  70
0
  3
Solid line
  72
65
  73
0
  40
0.0
  0
LTYPE
  5
410
  2
DASHDOT
 70
0
  3
Dash Dot ____ _ ____ _
 72
65
 73
4
 40
2.0
 49
1.25
 49
-0.25
 49
0.25
 49
-0.25
  0
LTYPE
  5
411
  2
DASHED
 70
0
  3
Dashed __ __ __ __ __
 72
65
 73
2
 40
0.75
 49
0.5
 49
-0.25
  0
LTYPE
  5
43B
  2
DOTTED
 70
0
  3
Dotted .  .  .  .
 72
65
 73
2
 40
0.2
 49
0.0
 49
-0.2
  0
ENDTAB
  0
TABLE
  2
STYLE
  70
4
  0
STYLE
  2
KICAD
  70
0
  40
0
  41
1
  42
1
  50
0
  71
0
  3
isocp.shx
  0
STYLE
  2
KICADB
  70
0
  40
0
  41
1
  42
1
  50
0
  71
0
  3
isocp.shx
  0
STYLE
  2
KICADI
  70
0
  40
0
  41
1
  42
1
  50
15
  71
0
  3
isocp.shx
  0
STYLE
  2
KICADBI
  70
0
  40
0
  41
1
  42
1
  50
15
  71
0
  3
isocp.shx
  0
ENDTAB
  0
TABLE
  2
LAYER
  70
1
  0
LAYER
  2
BLACK
  70
0
  62
7
  6
CONTINUOUS
  0
ENDTAB
  0
ENDSEC
  0
SECTION
  2
ENTITIES
0
LINE
8
BLACK
6
CONTINUOUS
10
0.3975
20
0.345
11
0.3425
21
0.345
0
LINE
8
BLACK
6
CONTINUOUS
10
0.3425
20
0.345
11
0.3425
21
0.38
0
LINE
8
BLACK
6
CONTINUOUS
10
0.3425
20
0.38
11
0.3975
21
0.38
0
LINE
8
BLACK
6
CONTINUOUS
10
0.3975
20
0.38
11
0.3975
21
0.345
0
LINE
8
BLACK
6
CONTINUOUS
10
0.3975
20
0.42
11
0.3425
21
0.42
0
LINE
8
BLACK
6
CONTINUOUS
10
0.3425
20
0.42
11
0.3425
21
0.455
0
LINE
8
BLACK
6
CONTINUOUS
10
0.3425
20
0.455
11
0.3975
21
0.455
0
LINE
8
BLACK
6
CONTINUOUS
10
0.3975
20
0.455
11
0.3975
21
0.42
0
LINE
8
BLACK
6
CONTINUOUS
10
0.36
20
0.5225
11
0.325
21
0.5225
0
LINE
8
BLACK
6
CONTINUOUS
10
0.325
20
0.5225
11
0.325
21
0.5775
0
LINE
8
BLACK
6
CONTINUOUS
10
0.325
20
0.5775
11
0.36
21
0.5775
0
LINE
8
BLACK
6
CONTINUOUS
10
0.36
20
0.5775
11
0.36
21
0.5225
0
LINE
8
BLACK
6
CONTINUOUS
10
0.435
20
0.5225
11
0.4
21
0.5225
0
LINE
8
BLACK
6
CONTINUOUS
10
0.4
20
0.5225
11
0.4
21
0.5775
0
LINE
8
BLACK
6
CONTINUOUS
10
0.4
20
0.5775
11
0.435
21
0.5775
0
LINE
8
BLACK
6
CONTINUOUS
10
0.435
20
0.5775
11
0.435
21
0.5225
0
LINE
8
BLACK
6
CONTINUOUS
10
0.5475
20
0.545
11
0.4925
21
0.545
0
LINE
8
BLACK
6
CONTINUOUS
10
0.4925
20
0.545
11
0.4925
21
0.58
0
LINE
8
BLACK
6
CONTINUOUS
10
0.4925
20
0.58
11
0.5475
21
0.58
0
LINE
8
BLACK
6
CONTINUOUS
10
0.5475
20
0.58
11
0.5475
21
0.545
0
LINE
8
BLACK
6
CONTINUOUS
10
0.7475
20
0.545
11
0.6925
21
0.545
0
LINE
8
BLACK
6
CONTINUOUS
10
0.6925
20
0.545
11
0.6925
21
0.58
0
LINE
8
BLACK
6
CONTINUOUS
10
0.6925
20
0.58
11
0.7475
21
0.58
0
LINE
8
BLACK
6
CONTINUOUS
10
0.7475
20
0.58
11
0.7475
21
0.545
0
LINE
8
BLACK
6
CONTINUOUS
10
0.36
20
0.6125
11
0.325
21
0.6125
0
LINE
8
BLACK
6
CONTINUOUS
10
0.325
20
0.6125
11
0.325
21
0.6675
0
LINE
8
BLACK
6
CONTINUOUS
10
0.325
20
0.6675
11
0.36
21
0.6675
0
LINE
8
BLACK
6
CONTINUOUS
10
0.36
20
0.6675
11
0.36
21
0.6125
0
LINE
8
BLACK
6
CONTINUOUS
10
0.435
20
0.6125
11
0.4
21
0.6125
0
LINE
8
BLACK
6
CONTINUOUS
10
0.4
20
0.6125
11
0.4
21
0.6675
0
LINE
8
BLACK
6
CONTINUOUS
10
0.4
20
0.6675
11
0.435
21
0.6675
0
LINE
8
BLACK
6
CONTINUOUS
10
0.435
20
0.6675
11
0.435
21
0.6125
0
LINE
8
BLACK
6
CONTINUOUS
10
0.84
20
0.6125
11
0.805
21
0.6125
0
LINE
8
BLACK
6
CONTINUOUS
10
0.805
20
0.6125
11
0.805
21
0.6675
0
LINE
8
BLACK
6
CONTINUOUS
10
0.805
20
0.6675
11
0.84
21
0.6675
0
LINE
8
BLACK
6
CONTINUOUS
10
0.84
20
0.6675
11
0.84
21
0.6125
0
LINE
8
BLACK
6
CONTINUOUS
10
0.915
20
0.6125
11
0.88
21
0.6125
0
LINE
8
BLACK
6
CONTINUOUS
10
0.88
20
0.6125
11
0.88
21
0.6675
0
LINE
8
BLACK
6
CONTINUOUS
10
0.88
20
0.6675
11
0.915
21
0.6675
0
LINE
8
BLACK
6
CONTINUOUS
10
0.915
20
0.6675
11
0.915
21
0.6125
0
LINE
8
BLACK
6
CONTINUOUS
10
0.5475
20
0.62
11
0.4925
21
0.62
0
LINE
8
BLACK
6
CONTINUOUS
10
0.4925
20
0.62
11
0.4925
21
0.655
0
LINE
8
BLACK
6
CONTINUOUS
10
0.4925
20
0.655
11
0.5475
21
0.655
0
LINE
8
BLACK
6
CONTINUOUS
10
0.5475
20
0.655
11
0.5475
21
0.62
0
LINE
8
BLACK
6
CONTINUOUS
10
0.7475
20
0.62
11
0.6925
21
0.62
0
LINE
8
BLACK
6
CONTINUOUS
10
0.6925
20
0.62
11
0.6925
21
0.655
0
LINE
8
BLACK
6
CONTINUOUS
10
0.6925
20
0.655
11
0.7475
21
0.655
0
LINE
8
BLACK
6
CONTINUOUS
10
0.7475
20
0.655
11
0.7475
21
0.62
0
LINE
8
BLACK
6
CONTINUOUS
10
0.175
20
0.6775
11
0.14
21
0.6775
0
LINE
8
BLACK
6
CONTINUOUS
10
0.14
20
0.6775
11
0.14
21
0.7325
0
LINE
8
BLACK
6
CONTINUOUS
10
0.14
20
0.7325
11
0.175
21
0.7325
0
LINE
8
BLACK
6
CONTINUOUS
10
0.175
20
0.7325
11
0.175
21
0.6775
0
LINE
8
BLACK
6
CONTINUOUS
10
0.25
20
0.6775
11
0.215
21
0.6775
0
LINE
8
BLACK
6
CONTINUOUS
10
0.215
20
0.6775
11
0.215
21
0.7325
0
LINE
8
BLACK
6
CONTINUOUS
10
0.215
20
0.7325
11
0.25
21
0.7325
0
LINE
8
BLACK
6
CONTINUOUS
10
0.25
20
0.7325
11
0.25
21
0.6775
0
LINE
8
BLACK
6
CONTINUOUS
10
0.5767
20
0.69655
11
0.5255
21
0.69655
0
LINE
8
BLACK
6
CONTINUOUS
10
0.5255
20
0.69655
11
0.5255
21
0.76345
0
LINE
8
BLACK
6
CONTINUOUS
10
0.5255
20
0.76345
11
0.5767
21
0.76345
0
LINE
8
BLACK
6
CONTINUOUS
10
0.5767
20
0.76345
11
0.5767
21
0.69655
0
LINE
8
BLACK
6
CONTINUOUS
10
0.7145
20
0.69655
11
0.6633
21
0.69655
0
LINE
8
BLACK
6
CONTINUOUS
10
0.6633
20
0.69655
11
0.6633
21
0.76345
0
LINE
8
BLACK
6
CONTINUOUS
10
0.6633
20
0.76345
11
0.7145
21
0.76345
0
LINE
8
BLACK
6
CONTINUOUS
10
0.7145
20
0.76345
11
0.7145
21
0.69655
0
LINE
8
BLACK
6
CONTINUOUS
10
0.2905
20
0.77455
11
0.1921
21
0.77455
0
LINE
8
BLACK
6
CONTINUOUS
10
0.1921
20
0.77455
11
0.1921
21
0.84545
0
LINE
8
BLACK
6
CONTINUOUS
10
0.1921
20
0.84545
11
0.2905
21
0.84545
0
LINE
8
BLACK
6
CONTINUOUS
10
0.2905
20
0.84545
11
0.2905
21
0.77455
0
LINE
8
BLACK
6
CONTINUOUS
10
0.4479
20
0.77455
11
0.3495
21
0.77455
0
LINE
8
BLACK
6
CONTINUOUS
10
0.3495
20
0.77455
11
0.3495
21
0.84545
0
LINE
8
BLACK
6
CONTINUOUS
10
0.3495
20
0.84545
11
0.4479
21
0.84545
0
LINE
8
BLACK
6
CONTINUOUS
10
0.4479
20
0.84545
11
0.4479
21
0.77455
0
LINE
8
BLACK
6
CONTINUOUS
10
0.1475
20
0.775
11
0.0925
21
0.775
0
LINE
8
BLACK
6
CONTINUOUS
10
0.0925
20
0.775
11
0.0925
21
0.81
0
LINE
8
BLACK
6
CONTINUOUS
10
0.0925
20
0.81
11
0.1475
21
0.81
0
LINE
8
BLACK
6
CONTINUOUS
10
0.1475
20
0.81
11
0.1475
21
0.775
0
LINE
8
BLACK
6
CONTINUOUS
10
0.5767
20
0.80655
11
0.5255
21
0.80655
0
LINE
8
BLACK
6
CONTINUOUS
10
0.5255
20
0.80655
11
0.5255
21
0.87345
0
LINE
8
BLACK
6
CONTINUOUS
10
0.5255
20
0.87345
11
0.5767
21
0.87345
0
LINE
8
BLACK
6
CONTINUOUS
10
0.5767
20
0.87345
11
0.5767
21
0.80655
0
LINE
8
BLACK
6
CONTINUOUS
10
0.7145
20
0.80655
11
0.6633
21
0.80655
0
LINE
8
BLACK
6
CONTINUOUS
10
0.6633
20
0.80655
11
0.6633
21
0.87345
0
LINE
8
BLACK
6
CONTINUOUS
10
0.6633
20
0.87345
11
0.7145
21
0.87345
0
LINE
8
BLACK
6
CONTINUOUS
10
0.7145
20
0.87345
11
0.7145
21
0.80655
0
LINE
8
BLACK
6
CONTINUOUS
10
0.1475
20
0.85
11
0.0925
21
0.85
0
LINE
8
BLACK
6
CONTINUOUS
10
0.0925
20
0.85
11
0.0925
21
0.885
0
LINE
8
BLACK
6
CONTINUOUS
10
0.0925
20
0.885
11
0.1475
21
0.885
0
LINE
8
BLACK
6
CONTINUOUS
10
0.1475
20
0.885
11
0.1475
21
0.85
0
LINE
8
BLACK
6
CONTINUOUS
10
0.7775
20
0.895
11
0.7225
21
0.895
0
LINE
8
BLACK
6
CONTINUOUS
10
0.7225
20
0.895
11
0.7225
21
0.93
0
LINE
8
BLACK
6
CONTINUOUS
10
0.7225
20
0.93
11
0.7775
21
0.93
0
LINE
8
BLACK
6
CONTINUOUS
10
0.7775
20
0.93
11
0.7775
21
0.895
0
LINE
8
BLACK
6
CONTINUOUS
10
0.8775
20
0.895
11
0.8225
21
0.895
0
LINE
8
BLACK
6
CONTINUOUS
10
0.8225
20
0.895
11
0.8225
21
0.93
0
LINE
8
BLACK
6
CONTINUOUS
10
0.8225
20
0.93
11
0.8775
21
0.93
0
LINE
8
BLACK
6
CONTINUOUS
10
0.8775
20
0.93
11
0.8775
21
0.895
0
LINE
8
BLACK
6
CONTINUOUS
10
0.355
20
0.9025
11
0.32
21
0.9025
0
LINE
8
BLACK
6
CONTINUOUS
10
0.32
20
0.9025
11
0.32
21
0.9575
0
LINE
8
BLACK
6
CONTINUOUS
10
0.32
20
0.9575
11
0.355
21
0.9575
0
LINE
8
BLACK
6
CONTINUOUS
10
0.355
20
0.9575
11
0.355
21
0.9025
0
LINE
8
BLACK
6
CONTINUOUS
10
0.43
20
0.9025
11
0.395
21
0.9025
0
LINE
8
BLACK
6
CONTINUOUS
10
0.395
20
0.9025
11
0.395
21
0.9575
0
LINE
8
BLACK
6
CONTINUOUS
10
0.395
20
0.9575
11
0.43
21
0.9575
0
LINE
8
BLACK
6
CONTINUOUS
10
0.43
20
0.9575
11
0.43
21
0.9025
0
LINE
8
BLACK
6
CONTINUOUS
10
0.2875
20
0.905
11
0.2325
21
0.905
0
LINE
8
BLACK
6
CONTINUOUS
10
0.2325
20
0.905
11
0.2325
21
0.94
0
LINE
8
BLACK
6
CONTINUOUS
10
0.2325
20
0.94
11
0.2875
21
0.94
0
LINE
8
BLACK
6
CONTINUOUS
10
0.2875
20
0.94
11
0.2875
21
0.905
0
LINE
8
BLACK
6
CONTINUOUS
10
0.574035
20
0.956181
11
0.562224
21
0.956181
0
LINE
8
BLACK
6
CONTINUOUS
10
0.562224
20
0.956181
11
0.562224
21
0.981772
0
LINE
8
BLACK
6
CONTINUOUS
10
0.562224
20
0.981772
11
0.574035
21
0.981772
0
LINE
8
BLACK
6
CONTINUOUS
10
0.574035
20
0.981772
11
0.574035
21
0.956181
0
LINE
8
BLACK
6
CONTINUOUS
10
0.59372
20
0.956181
11
0.581909
21
0.956181
0
LINE
8
BLACK
6
CONTINUOUS
10
0.581909
20
0.956181
11
0.581909
21
0.981772
0
LINE
8
BLACK
6
CONTINUOUS
10
0.581909
20
0.981772
11
0.59372
21
0.981772
0
LINE
8
BLACK
6
CONTINUOUS
10
0.59372
20
0.981772
11
0.59372
21
0.956181
0
LINE
8
BLACK
6
CONTINUOUS
10
0.613406
20
0.956181
11
0.601594
21
0.956181
0
LINE
8
BLACK
6
CONTINUOUS
10
0.601594
20
0.956181
11
0.601594
21
0.981772
0
LINE
8
BLACK
6
CONTINUOUS
10
0.601594
20
0.981772
11
0.613406
21
0.981772
0
LINE
8
BLACK
6
CONTINUOUS
10
0.613406
20
0.981772
11
0.613406
21
0.956181
0
LINE
8
BLACK
6
CONTINUOUS
10
0.633091
20
0.956181
11
0.62128
21
0.956181
0
LINE
8
BLACK
6
CONTINUOUS
10
0.62128
20
0.956181
11
0.62128
21
0.981772
0
LINE
8
BLACK
6
CONTINUOUS
10
0.62128
20
0.981772
11
0.633091
21
0.981772
0
LINE
8
BLACK
6
CONTINUOUS
10
0.633091
20
0.981772
11
0.633091
21
0.956181
0
LINE
8
BLACK
6
CONTINUOUS
10
0.652776
20
0.956181
11
0.640965
21
0.956181
0
LINE
8
BLACK
6
CONTINUOUS
10
0.640965
20
0.956181
11
0.640965
21
0.981772
0
LINE
8
BLACK
6
CONTINUOUS
10
0.640965
20
0.981772
11
0.652776
21
0.981772
0
LINE
8
BLACK
6
CONTINUOUS
10
0.652776
20
0.981772
11
0.652776
21
0.956181
0
LINE
8
BLACK
6
CONTINUOUS
10
0.7775
20
0.97
11
0.7225
21
0.97
0
LINE
8
BLACK
6
CONTINUOUS
10
0.7225
20
0.97
11
0.7225
21
1.005
0
LINE
8
BLACK
6
CONTINUOUS
10
0.7225
20
1.005
11
0.7775
21
1.005
0
LINE
8
BLACK
6
CONTINUOUS
10
0.7775
20
1.005
11
0.7775
21
0.97
0
LINE
8
BLACK
6
CONTINUOUS
10
0.8775
20
0.97
11
0.8225
21
0.97
0
LINE
8
BLACK
6
CONTINUOUS
10
0.8225
20
0.97
11
0.8225
21
1.005
0
LINE
8
BLACK
6
CONTINUOUS
10
0.8225
20
1.005
11
0.8775
21
1.005
0
LINE
8
BLACK
6
CONTINUOUS
10
0.8775
20
1.005
11
0.8775
21
0.97
0
LINE
8
BLACK
6
CONTINUOUS
10
0.2875
20
0.98
11
0.2325
21
0.98
0
LINE
8
BLACK
6
CONTINUOUS
10
0.2325
20
0.98
11
0.2325
21
1.015
0
LINE
8
BLACK
6
CONTINUOUS
10
0.2325
20
1.015
11
0.2875
21
1.015
0
LINE
8
BLACK
6
CONTINUOUS
10
0.2875
20
1.015
11
0.2875
21
0.98
0
LINE
8
BLACK
6
CONTINUOUS
10
0.3975
20
0.99
11
0.3425
21
0.99
0
LINE
8
BLACK
6
CONTINUOUS
10
0.3425
20
0.99
11
0.3425
21
1.025
0
LINE
8
BLACK
6
CONTINUOUS
10
0.3425
20
1.025
11
0.3975
21
1.025
0
LINE
8
BLACK
6
CONTINUOUS
10
0.3975
20
1.025
11
0.3975
21
0.99
0
LINE
8
BLACK
6
CONTINUOUS
10
0.597736
20
1.00559
11
0.568445
21
1.00559
0
LINE
8
BLACK
6
CONTINUOUS
10
0.568445
20
1.00559
11
0.568445
21
1.0239
0
LINE
8
BLACK
6
CONTINUOUS
10
0.568445
20
1.0239
11
0.597736
21
1.0239
0
LINE
8
BLACK
6
CONTINUOUS
10
0.597736
20
1.0239
11
0.597736
21
1.00559
0
LINE
8
BLACK
6
CONTINUOUS
10
0.646555
20
1.00559
11
0.617264
21
1.00559
0
LINE
8
BLACK
6
CONTINUOUS
10
0.617264
20
1.00559
11
0.617264
21
1.0239
0
LINE
8
BLACK
6
CONTINUOUS
10
0.617264
20
1.0239
11
0.646555
21
1.0239
0
LINE
8
BLACK
6
CONTINUOUS
10
0.646555
20
1.0239
11
0.646555
21
1.00559
0
LINE
8
BLACK
6
CONTINUOUS
10
0.597736
20
1.0361
11
0.568445
21
1.0361
0
LINE
8
BLACK
6
CONTINUOUS
10
0.568445
20
1.0361
11
0.568445
21
1.05441
0
LINE
8
BLACK
6
CONTINUOUS
10
0.568445
20
1.05441
11
0.597736
21
1.05441
0
LINE
8
BLACK
6
CONTINUOUS
10
0.597736
20
1.05441
11
0.597736
21
1.0361
0
LINE
8
BLACK
6
CONTINUOUS
10
0.646555
20
1.0361
11
0.617264
21
1.0361
0
LINE
8
BLACK
6
CONTINUOUS
10
0.617264
20
1.0361
11
0.617264
21
1.05441
0
LINE
8
BLACK
6
CONTINUOUS
10
0.617264
20
1.05441
11
0.646555
21
1.05441
0
LINE
8
BLACK
6
CONTINUOUS
10
0.646555
20
1.05441
11
0.646555
21
1.0361
0
LINE
8
BLACK
6
CONTINUOUS
10
0.3975
20
1.065
11
0.3425
21
1.065
0
LINE
8
BLACK
6
CONTINUOUS
10
0.3425
20
1.065
11
0.3425
21
1.1
0
LINE
8
BLACK
6
CONTINUOUS
10
0.3425
20
1.1
11
0.3975
21
1.1
0
LINE
8
BLACK
6
CONTINUOUS
10
0.3975
20
1.1
11
0.3975
21
1.065
0
LINE
8
BLACK
6
CONTINUOUS
10
0.574035
20
1.07823
11
0.562224
21
1.07823
0
LINE
8
BLACK
6
CONTINUOUS
10
0.562224
20
1.07823
11
0.562224
21
1.10382
0
LINE
8
BLACK
6
CONTINUOUS
10
0.562224
20
1.10382
11
0.574035
21
1.10382
0
LINE
8
BLACK
6
CONTINUOUS
10
0.574035
20
1.10382
11
0.574035
21
1.07823
0
LINE
8
BLACK
6
CONTINUOUS
10
0.59372
20
1.07823
11
0.581909
21
1.07823
0
LINE
8
BLACK
6
CONTINUOUS
10
0.581909
20
1.07823
11
0.581909
21
1.10382
0
LINE
8
BLACK
6
CONTINUOUS
10
0.581909
20
1.10382
11
0.59372
21
1.10382
0
LINE
8
BLACK
6
CONTINUOUS
10
0.59372
20
1.10382
11
0.59372
21
1.07823
0
LINE
8
BLACK
6
CONTINUOUS
10
0.613406
20
1.07823
11
0.601594
21
1.07823
0
LINE
8
BLACK
6
CONTINUOUS
10
0.601594
20
1.07823
11
0.601594
21
1.10382
0
LINE
8
BLACK
6
CONTINUOUS
10
0.601594
20
1.10382
11
0.613406
21
1.10382
0
LINE
8
BLACK
6
CONTINUOUS
10
0.613406
20
1.10382
11
0.613406
21
1.07823
0
LINE
8
BLACK
6
CONTINUOUS
10
0.633091
20
1.07823
11
0.62128
21
1.07823
0
LINE
8
BLACK
6
CONTINUOUS
10
0.62128
20
1.07823
11
0.62128
21
1.10382
0
LINE
8
BLACK
6
CONTINUOUS
10
0.62128
20
1.10382
11
0.633091
21
1.10382
0
LINE
8
BLACK
6
CONTINUOUS
10
0.633091
20
1.10382
11
0.633091
21
1.07823
0
LINE
8
BLACK
6
CONTINUOUS
10
0.652776
20
1.07823
11
0.640965
21
1.07823
0
LINE
8
BLACK
6
CONTINUOUS
10
0.640965
20
1.07823
11
0.640965
21
1.10382
0
LINE
8
BLACK
6
CONTINUOUS
10
0.640965
20
1.10382
11
0.652776
21
1.10382
0
LINE
8
BLACK
6
CONTINUOUS
10
0.652776
20
1.10382
11
0.652776
21
1.07823
0
LINE
8
BLACK
6
CONTINUOUS
10
0.2714
20
1.08675
11
0.232
21
1.08675
0
LINE
8
BLACK
6
CONTINUOUS
10
0.232
20
1.08675
11
0.232
21
1.11825
0
LINE
8
BLACK
6
CONTINUOUS
10
0.232
20
1.11825
11
0.2714
21
1.11825
0
LINE
8
BLACK
6
CONTINUOUS
10
0.2714
20
1.11825
11
0.2714
21
1.08675
0
LINE
8
BLACK
6
CONTINUOUS
10
0.358
20
1.12425
11
0.3186
21
1.12425
0
LINE
8
BLACK
6
CONTINUOUS
10
0.3186
20
1.12425
11
0.3186
21
1.15575
0
LINE
8
BLACK
6
CONTINUOUS
10
0.3186
20
1.15575
11
0.358
21
1.15575
0
LINE
8
BLACK
6
CONTINUOUS
10
0.358
20
1.15575
11
0.358
21
1.12425
0
LINE
8
BLACK
6
CONTINUOUS
10
0.2714
20
1.16175
11
0.232
21
1.16175
0
LINE
8
BLACK
6
CONTINUOUS
10
0.232
20
1.16175
11
0.232
21
1.19325
0
LINE
8
BLACK
6
CONTINUOUS
10
0.232
20
1.19325
11
0.2714
21
1.19325
0
LINE
8
BLACK
6
CONTINUOUS
10
0.2714
20
1.19325
11
0.2714
21
1.16175
0
LINE
8
BLACK
6
CONTINUOUS
10
0.5025
20
1.1925
11
0.4675
21
1.1925
0
LINE
8
BLACK
6
CONTINUOUS
10
0.4675
20
1.1925
11
0.4675
21
1.2475
0
LINE
8
BLACK
6
CONTINUOUS
10
0.4675
20
1.2475
11
0.5025
21
1.2475
0
LINE
8
BLACK
6
CONTINUOUS
10
0.5025
20
1.2475
11
0.5025
21
1.1925
0
LINE
8
BLACK
6
CONTINUOUS
10
0.5775
20
1.1925
11
0.5425
21
1.1925
0
LINE
8
BLACK
6
CONTINUOUS
10
0.5425
20
1.1925
11
0.5425
21
1.2475
0
LINE
8
BLACK
6
CONTINUOUS
10
0.5425
20
1.2475
11
0.5775
21
1.2475
0
LINE
8
BLACK
6
CONTINUOUS
10
0.5775
20
1.2475
11
0.5775
21
1.1925
0
LINE
8
BLACK
6
CONTINUOUS
10
0.64
20
1.1925
11
0.605
21
1.1925
0
LINE
8
BLACK
6
CONTINUOUS
10
0.605
20
1.1925
11
0.605
21
1.2475
0
LINE
8
BLACK
6
CONTINUOUS
10
0.605
20
1.2475
11
0.64
21
1.2475
0
LINE
8
BLACK
6
CONTINUOUS
10
0.64
20
1.2475
11
0.64
21
1.1925
0
LINE
8
BLACK
6
CONTINUOUS
10
0.715
20
1.1925
11
0.68
21
1.1925
0
LINE
8
BLACK
6
CONTINUOUS
10
0.68
20
1.1925
11
0.68
21
1.2475
0
LINE
8
BLACK
6
CONTINUOUS
10
0.68
20
1.2475
11
0.715
21
1.2475
0
LINE
8
BLACK
6
CONTINUOUS
10
0.715
20
1.2475
11
0.715
21
1.1925
  0
ENDSEC
  0
EOF
