  0
SECTION
  2
HEADER
  9
$ANGBASE
  50
0.0
  9
$ANGDIR
  70
1
  9
$MEASUREMENT
  70
0
  0
ENDSEC
  0
SECTION
  2
TABLES
  0
TABLE
  2
LTYPE
  70
4
  0
LTYPE
  5
40F
  2
CONTINUOUS
  70
0
  3
Solid line
  72
65
  73
0
  40
0.0
  0
LTYPE
  5
410
  2
DASHDOT
 70
0
  3
Dash Dot ____ _ ____ _
 72
65
 73
4
 40
2.0
 49
1.25
 49
-0.25
 49
0.25
 49
-0.25
  0
LTYPE
  5
411
  2
DASHED
 70
0
  3
Dashed __ __ __ __ __
 72
65
 73
2
 40
0.75
 49
0.5
 49
-0.25
  0
LTYPE
  5
43B
  2
DOTTED
 70
0
  3
Dotted .  .  .  .
 72
65
 73
2
 40
0.2
 49
0.0
 49
-0.2
  0
ENDTAB
  0
TABLE
  2
STYLE
  70
4
  0
STYLE
  2
KICAD
  70
0
  40
0
  41
1
  42
1
  50
0
  71
0
  3
isocp.shx
  0
STYLE
  2
KICADB
  70
0
  40
0
  41
1
  42
1
  50
0
  71
0
  3
isocp.shx
  0
STYLE
  2
KICADI
  70
0
  40
0
  41
1
  42
1
  50
15
  71
0
  3
isocp.shx
  0
STYLE
  2
KICADBI
  70
0
  40
0
  41
1
  42
1
  50
15
  71
0
  3
isocp.shx
  0
ENDTAB
  0
TABLE
  2
LAYER
  70
1
  0
LAYER
  2
BLACK
  70
0
  62
7
  6
CONTINUOUS
  0
ENDTAB
  0
ENDSEC
  0
SECTION
  2
ENTITIES
0
LINE
8
BLACK
6
CONTINUOUS
10
0.0323491
20
1.56494
11
0.033433
21
1.56657
0
LINE
8
BLACK
6
CONTINUOUS
10
0.033433
20
1.56657
11
0.0350551
21
1.56765
0
LINE
8
BLACK
6
CONTINUOUS
10
0.0350551
20
1.56765
11
0.0369685
21
1.56803
0
LINE
8
BLACK
6
CONTINUOUS
10
0.0369685
20
1.56803
11
1.16303
21
1.56803
0
LINE
8
BLACK
6
CONTINUOUS
10
1.16303
20
1.56803
11
1.16494
21
1.56765
0
LINE
8
BLACK
6
CONTINUOUS
10
1.16494
20
1.56765
11
1.16657
21
1.56657
0
LINE
8
BLACK
6
CONTINUOUS
10
1.16657
20
1.56657
11
1.16765
21
1.56494
0
LINE
8
BLACK
6
CONTINUOUS
10
1.16765
20
1.56494
11
1.16803
21
1.56303
0
LINE
8
BLACK
6
CONTINUOUS
10
1.16803
20
1.56303
11
1.16803
21
0.0369685
0
LINE
8
BLACK
6
CONTINUOUS
10
1.16803
20
0.0369685
11
1.16765
21
0.0350551
0
LINE
8
BLACK
6
CONTINUOUS
10
1.16765
20
0.0350551
11
1.16657
21
0.033433
0
LINE
8
BLACK
6
CONTINUOUS
10
1.16657
20
0.033433
11
1.16494
21
0.0323491
0
LINE
8
BLACK
6
CONTINUOUS
10
1.16494
20
0.0323491
11
1.16303
21
0.0319685
0
LINE
8
BLACK
6
CONTINUOUS
10
1.16303
20
0.0319685
11
0.0369685
21
0.0319685
0
LINE
8
BLACK
6
CONTINUOUS
10
0.0369685
20
0.0319685
11
0.0350551
21
0.0323491
0
LINE
8
BLACK
6
CONTINUOUS
10
0.0350551
20
0.0323491
11
0.033433
21
0.033433
0
LINE
8
BLACK
6
CONTINUOUS
10
0.033433
20
0.033433
11
0.0323491
21
0.0350551
0
LINE
8
BLACK
6
CONTINUOUS
10
0.0323491
20
0.0350551
11
0.0319685
21
0.0369685
0
LINE
8
BLACK
6
CONTINUOUS
10
0.0319685
20
0.0369685
11
0.0319685
21
1.56303
0
LINE
8
BLACK
6
CONTINUOUS
10
0.0319685
20
1.56303
11
0.0323491
21
1.56494
0
LINE
8
BLACK
6
CONTINUOUS
10
1.00786
20
0.369518
11
1.00948
21
0.368434
0
LINE
8
BLACK
6
CONTINUOUS
10
1.00948
20
0.368434
11
1.01056
21
0.366812
0
LINE
8
BLACK
6
CONTINUOUS
10
1.01056
20
0.366812
11
1.01094
21
0.364899
0
LINE
8
BLACK
6
CONTINUOUS
10
1.01094
20
0.364899
11
1.01094
21
0.317491
0
LINE
8
BLACK
6
CONTINUOUS
10
1.01094
20
0.317491
11
1.02213
21
0.316018
0
LINE
8
BLACK
6
CONTINUOUS
10
1.02213
20
0.316018
11
1.03532
21
0.312706
0
LINE
8
BLACK
6
CONTINUOUS
10
1.03532
20
0.312706
11
1.04804
21
0.307899
0
LINE
8
BLACK
6
CONTINUOUS
10
1.04804
20
0.307899
11
1.05081
21
0.306468
0
LINE
8
BLACK
6
CONTINUOUS
10
1.05081
20
0.306468
11
1.15724
21
0.306468
0
LINE
8
BLACK
6
CONTINUOUS
10
1.15724
20
0.306468
11
1.15724
21
0.833532
0
LINE
8
BLACK
6
CONTINUOUS
10
1.15724
20
0.833532
11
1.01094
21
0.833532
0
LINE
8
BLACK
6
CONTINUOUS
10
1.01094
20
0.833532
11
1.01094
21
0.795101
0
LINE
8
BLACK
6
CONTINUOUS
10
1.01094
20
0.795101
11
1.01056
21
0.793188
0
LINE
8
BLACK
6
CONTINUOUS
10
1.01056
20
0.793188
11
1.00948
21
0.791566
0
LINE
8
BLACK
6
CONTINUOUS
10
1.00948
20
0.791566
11
1.00786
21
0.790482
0
LINE
8
BLACK
6
CONTINUOUS
10
1.00786
20
0.790482
11
1.00594
21
0.790101
0
LINE
8
BLACK
6
CONTINUOUS
10
1.00594
20
0.790101
11
0.920945
21
0.790101
0
LINE
8
BLACK
6
CONTINUOUS
10
0.920945
20
0.790101
11
0.920945
21
0.369899
0
LINE
8
BLACK
6
CONTINUOUS
10
0.920945
20
0.369899
11
1.00594
21
0.369899
0
LINE
8
BLACK
6
CONTINUOUS
10
1.00594
20
0.369899
11
1.00786
21
0.369518
0
LINE
8
BLACK
6
CONTINUOUS
10
0.60719
20
1.06228
11
0.607815
21
1.06228
0
LINE
8
BLACK
6
CONTINUOUS
10
0.607815
20
1.06228
11
0.6075
21
1.06259
0
LINE
8
BLACK
6
CONTINUOUS
10
0.6075
20
1.06259
11
0.60719
21
1.06228
0
LINE
8
BLACK
6
CONTINUOUS
10
0.81392
20
0.492612
11
0.809508
21
0.499327
0
LINE
8
BLACK
6
CONTINUOUS
10
0.809508
20
0.499327
11
0.802862
21
0.503814
0
LINE
8
BLACK
6
CONTINUOUS
10
0.802862
20
0.503814
11
0.794504
21
0.50549
0
LINE
8
BLACK
6
CONTINUOUS
10
0.794504
20
0.50549
11
0.754843
21
0.50549
0
LINE
8
BLACK
6
CONTINUOUS
10
0.754843
20
0.50549
11
0.752929
21
0.50587
0
LINE
8
BLACK
6
CONTINUOUS
10
0.752929
20
0.50587
11
0.751307
21
0.506954
0
LINE
8
BLACK
6
CONTINUOUS
10
0.751307
20
0.506954
11
0.750223
21
0.508576
0
LINE
8
BLACK
6
CONTINUOUS
10
0.750223
20
0.508576
11
0.749843
21
0.51049
0
LINE
8
BLACK
6
CONTINUOUS
10
0.749843
20
0.51049
11
0.749843
21
0.520935
0
LINE
8
BLACK
6
CONTINUOUS
10
0.749843
20
0.520935
11
0.750223
21
0.522848
0
LINE
8
BLACK
6
CONTINUOUS
10
0.750223
20
0.522848
11
0.751307
21
0.52447
0
LINE
8
BLACK
6
CONTINUOUS
10
0.751307
20
0.52447
11
0.752929
21
0.525554
0
LINE
8
BLACK
6
CONTINUOUS
10
0.752929
20
0.525554
11
0.75389
21
0.525843
0
LINE
8
BLACK
6
CONTINUOUS
10
0.75389
20
0.525843
11
0.755112
21
0.52608
0
LINE
8
BLACK
6
CONTINUOUS
10
0.755112
20
0.52608
11
0.761827
21
0.530492
0
LINE
8
BLACK
6
CONTINUOUS
10
0.761827
20
0.530492
11
0.766314
21
0.537138
0
LINE
8
BLACK
6
CONTINUOUS
10
0.766314
20
0.537138
11
0.76799
21
0.545496
0
LINE
8
BLACK
6
CONTINUOUS
10
0.76799
20
0.545496
11
0.76799
21
0.579519
0
LINE
8
BLACK
6
CONTINUOUS
10
0.76799
20
0.579519
11
0.76642
21
0.587612
0
LINE
8
BLACK
6
CONTINUOUS
10
0.76642
20
0.587612
11
0.762008
21
0.594327
0
LINE
8
BLACK
6
CONTINUOUS
10
0.762008
20
0.594327
11
0.75976
21
0.595845
0
LINE
8
BLACK
6
CONTINUOUS
10
0.75976
20
0.595845
11
0.758387
21
0.597231
0
LINE
8
BLACK
6
CONTINUOUS
10
0.758387
20
0.597231
11
0.757649
21
0.599037
0
LINE
8
BLACK
6
CONTINUOUS
10
0.757649
20
0.599037
11
0.757658
21
0.600988
0
LINE
8
BLACK
6
CONTINUOUS
10
0.757658
20
0.600988
11
0.758413
21
0.602786
0
LINE
8
BLACK
6
CONTINUOUS
10
0.758413
20
0.602786
11
0.759812
21
0.604168
0
LINE
8
BLACK
6
CONTINUOUS
10
0.759812
20
0.604168
11
0.761864
21
0.605516
0
LINE
8
BLACK
6
CONTINUOUS
10
0.761864
20
0.605516
11
0.763188
21
0.606828
0
LINE
8
BLACK
6
CONTINUOUS
10
0.763188
20
0.606828
11
0.764994
21
0.607566
0
LINE
8
BLACK
6
CONTINUOUS
10
0.764994
20
0.607566
11
0.765947
21
0.607657
0
LINE
8
BLACK
6
CONTINUOUS
10
0.765947
20
0.607657
11
0.781563
21
0.607657
0
LINE
8
BLACK
6
CONTINUOUS
10
0.781563
20
0.607657
11
0.783477
21
0.607277
0
LINE
8
BLACK
6
CONTINUOUS
10
0.783477
20
0.607277
11
0.785099
21
0.606193
0
LINE
8
BLACK
6
CONTINUOUS
10
0.785099
20
0.606193
11
0.785742
21
0.605403
0
LINE
8
BLACK
6
CONTINUOUS
10
0.785742
20
0.605403
11
0.790492
21
0.598173
0
LINE
8
BLACK
6
CONTINUOUS
10
0.790492
20
0.598173
11
0.797138
21
0.593686
0
LINE
8
BLACK
6
CONTINUOUS
10
0.797138
20
0.593686
11
0.805496
21
0.59201
0
LINE
8
BLACK
6
CONTINUOUS
10
0.805496
20
0.59201
11
0.839519
21
0.59201
0
LINE
8
BLACK
6
CONTINUOUS
10
0.839519
20
0.59201
11
0.847612
21
0.59358
0
LINE
8
BLACK
6
CONTINUOUS
10
0.847612
20
0.59358
11
0.854327
21
0.597992
0
LINE
8
BLACK
6
CONTINUOUS
10
0.854327
20
0.597992
11
0.858814
21
0.604638
0
LINE
8
BLACK
6
CONTINUOUS
10
0.858814
20
0.604638
11
0.86049
21
0.612996
0
LINE
8
BLACK
6
CONTINUOUS
10
0.86049
20
0.612996
11
0.86049
21
0.667019
0
LINE
8
BLACK
6
CONTINUOUS
10
0.86049
20
0.667019
11
0.85892
21
0.675112
0
LINE
8
BLACK
6
CONTINUOUS
10
0.85892
20
0.675112
11
0.854508
21
0.681827
0
LINE
8
BLACK
6
CONTINUOUS
10
0.854508
20
0.681827
11
0.847862
21
0.686314
0
LINE
8
BLACK
6
CONTINUOUS
10
0.847862
20
0.686314
11
0.839504
21
0.68799
0
LINE
8
BLACK
6
CONTINUOUS
10
0.839504
20
0.68799
11
0.805481
21
0.68799
0
LINE
8
BLACK
6
CONTINUOUS
10
0.805481
20
0.68799
11
0.797388
21
0.68642
0
LINE
8
BLACK
6
CONTINUOUS
10
0.797388
20
0.68642
11
0.790673
21
0.682008
0
LINE
8
BLACK
6
CONTINUOUS
10
0.790673
20
0.682008
11
0.786186
21
0.675362
0
LINE
8
BLACK
6
CONTINUOUS
10
0.786186
20
0.675362
11
0.785384
21
0.671359
0
LINE
8
BLACK
6
CONTINUOUS
10
0.785384
20
0.671359
11
0.784634
21
0.669558
0
LINE
8
BLACK
6
CONTINUOUS
10
0.784634
20
0.669558
11
0.783253
21
0.668181
0
LINE
8
BLACK
6
CONTINUOUS
10
0.783253
20
0.668181
11
0.781449
21
0.667437
0
LINE
8
BLACK
6
CONTINUOUS
10
0.781449
20
0.667437
11
0.780481
21
0.667343
0
LINE
8
BLACK
6
CONTINUOUS
10
0.780481
20
0.667343
11
0.76601
21
0.667343
0
LINE
8
BLACK
6
CONTINUOUS
10
0.76601
20
0.667343
11
0.764096
21
0.667723
0
LINE
8
BLACK
6
CONTINUOUS
10
0.764096
20
0.667723
11
0.762474
21
0.668807
0
LINE
8
BLACK
6
CONTINUOUS
10
0.762474
20
0.668807
11
0.762102
21
0.669264
0
LINE
8
BLACK
6
CONTINUOUS
10
0.762102
20
0.669264
11
0.755362
21
0.673814
0
LINE
8
BLACK
6
CONTINUOUS
10
0.755362
20
0.673814
11
0.753859
21
0.674115
0
LINE
8
BLACK
6
CONTINUOUS
10
0.753859
20
0.674115
11
0.752058
21
0.674864
0
LINE
8
BLACK
6
CONTINUOUS
10
0.752058
20
0.674864
11
0.750681
21
0.676246
0
LINE
8
BLACK
6
CONTINUOUS
10
0.750681
20
0.676246
11
0.749937
21
0.678049
0
LINE
8
BLACK
6
CONTINUOUS
10
0.749937
20
0.678049
11
0.749843
21
0.679017
0
LINE
8
BLACK
6
CONTINUOUS
10
0.749843
20
0.679017
11
0.749843
21
0.698407
0
LINE
8
BLACK
6
CONTINUOUS
10
0.749843
20
0.698407
11
0.74748
21
0.710283
0
LINE
8
BLACK
6
CONTINUOUS
10
0.74748
20
0.710283
11
0.740754
21
0.72035
0
LINE
8
BLACK
6
CONTINUOUS
10
0.740754
20
0.72035
11
0.736454
21
0.724649
0
LINE
8
BLACK
6
CONTINUOUS
10
0.736454
20
0.724649
11
0.73537
21
0.726272
0
LINE
8
BLACK
6
CONTINUOUS
10
0.73537
20
0.726272
11
0.73499
21
0.728185
0
LINE
8
BLACK
6
CONTINUOUS
10
0.73499
20
0.728185
11
0.73499
21
0.762969
0
LINE
8
BLACK
6
CONTINUOUS
10
0.73499
20
0.762969
11
0.73342
21
0.771062
0
LINE
8
BLACK
6
CONTINUOUS
10
0.73342
20
0.771062
11
0.729008
21
0.777777
0
LINE
8
BLACK
6
CONTINUOUS
10
0.729008
20
0.777777
11
0.724433
21
0.780866
0
LINE
8
BLACK
6
CONTINUOUS
10
0.724433
20
0.780866
11
0.72306
21
0.782252
0
LINE
8
BLACK
6
CONTINUOUS
10
0.72306
20
0.782252
11
0.722321
21
0.784058
0
LINE
8
BLACK
6
CONTINUOUS
10
0.722321
20
0.784058
11
0.722331
21
0.786009
0
LINE
8
BLACK
6
CONTINUOUS
10
0.722331
20
0.786009
11
0.723086
21
0.787808
0
LINE
8
BLACK
6
CONTINUOUS
10
0.723086
20
0.787808
11
0.724485
21
0.789189
0
LINE
8
BLACK
6
CONTINUOUS
10
0.724485
20
0.789189
11
0.728827
21
0.792042
0
LINE
8
BLACK
6
CONTINUOUS
10
0.728827
20
0.792042
11
0.731643
21
0.796214
0
LINE
8
BLACK
6
CONTINUOUS
10
0.731643
20
0.796214
11
0.733029
21
0.797587
0
LINE
8
BLACK
6
CONTINUOUS
10
0.733029
20
0.797587
11
0.734835
21
0.798325
0
LINE
8
BLACK
6
CONTINUOUS
10
0.734835
20
0.798325
11
0.736786
21
0.798316
0
LINE
8
BLACK
6
CONTINUOUS
10
0.736786
20
0.798316
11
0.738585
21
0.797561
0
LINE
8
BLACK
6
CONTINUOUS
10
0.738585
20
0.797561
11
0.739958
21
0.796175
0
LINE
8
BLACK
6
CONTINUOUS
10
0.739958
20
0.796175
11
0.740696
21
0.794369
0
LINE
8
BLACK
6
CONTINUOUS
10
0.740696
20
0.794369
11
0.74108
21
0.792388
0
LINE
8
BLACK
6
CONTINUOUS
10
0.74108
20
0.792388
11
0.745492
21
0.785673
0
LINE
8
BLACK
6
CONTINUOUS
10
0.745492
20
0.785673
11
0.752138
21
0.781186
0
LINE
8
BLACK
6
CONTINUOUS
10
0.752138
20
0.781186
11
0.760496
21
0.77951
0
LINE
8
BLACK
6
CONTINUOUS
10
0.760496
20
0.77951
11
0.819519
21
0.77951
0
LINE
8
BLACK
6
CONTINUOUS
10
0.819519
20
0.77951
11
0.827612
21
0.78108
0
LINE
8
BLACK
6
CONTINUOUS
10
0.827612
20
0.78108
11
0.834327
21
0.785492
0
LINE
8
BLACK
6
CONTINUOUS
10
0.834327
20
0.785492
11
0.838814
21
0.792138
0
LINE
8
BLACK
6
CONTINUOUS
10
0.838814
20
0.792138
11
0.84049
21
0.800496
0
LINE
8
BLACK
6
CONTINUOUS
10
0.84049
20
0.800496
11
0.84049
21
0.859519
0
LINE
8
BLACK
6
CONTINUOUS
10
0.84049
20
0.859519
11
0.838736
21
0.868558
0
LINE
8
BLACK
6
CONTINUOUS
10
0.838736
20
0.868558
11
0.838745
21
0.870509
0
LINE
8
BLACK
6
CONTINUOUS
10
0.838745
20
0.870509
11
0.8395
21
0.872308
0
LINE
8
BLACK
6
CONTINUOUS
10
0.8395
20
0.872308
11
0.840886
21
0.873681
0
LINE
8
BLACK
6
CONTINUOUS
10
0.840886
20
0.873681
11
0.842692
21
0.874419
0
LINE
8
BLACK
6
CONTINUOUS
10
0.842692
20
0.874419
11
0.843645
21
0.87451
0
LINE
8
BLACK
6
CONTINUOUS
10
0.843645
20
0.87451
11
0.877019
21
0.87451
0
LINE
8
BLACK
6
CONTINUOUS
10
0.877019
20
0.87451
11
0.885112
21
0.87608
0
LINE
8
BLACK
6
CONTINUOUS
10
0.885112
20
0.87608
11
0.891827
21
0.880492
0
LINE
8
BLACK
6
CONTINUOUS
10
0.891827
20
0.880492
11
0.893131
21
0.882423
0
LINE
8
BLACK
6
CONTINUOUS
10
0.893131
20
0.882423
11
0.894517
21
0.883796
0
LINE
8
BLACK
6
CONTINUOUS
10
0.894517
20
0.883796
11
0.896323
21
0.884534
0
LINE
8
BLACK
6
CONTINUOUS
10
0.896323
20
0.884534
11
0.897275
21
0.884626
0
LINE
8
BLACK
6
CONTINUOUS
10
0.897275
20
0.884626
11
0.937756
21
0.884626
0
LINE
8
BLACK
6
CONTINUOUS
10
0.937756
20
0.884626
11
0.948878
21
0.886838
0
LINE
8
BLACK
6
CONTINUOUS
10
0.948878
20
0.886838
11
0.958306
21
0.893138
0
LINE
8
BLACK
6
CONTINUOUS
10
0.958306
20
0.893138
11
1.05936
21
0.994194
0
LINE
8
BLACK
6
CONTINUOUS
10
1.05936
20
0.994194
11
1.06566
21
1.00362
0
LINE
8
BLACK
6
CONTINUOUS
10
1.06566
20
1.00362
11
1.06607
21
1.00567
0
LINE
8
BLACK
6
CONTINUOUS
10
1.06607
20
1.00567
11
1.06682
21
1.00748
0
LINE
8
BLACK
6
CONTINUOUS
10
1.06682
20
1.00748
11
1.0682
21
1.00886
0
LINE
8
BLACK
6
CONTINUOUS
10
1.0682
20
1.00886
11
1.07002
21
1.00961
0
LINE
8
BLACK
6
CONTINUOUS
10
1.07002
20
1.00961
11
1.07761
21
1.01108
0
LINE
8
BLACK
6
CONTINUOUS
10
1.07761
20
1.01108
11
1.08433
21
1.01549
0
LINE
8
BLACK
6
CONTINUOUS
10
1.08433
20
1.01549
11
1.08881
21
1.02214
0
LINE
8
BLACK
6
CONTINUOUS
10
1.08881
20
1.02214
11
1.09049
21
1.0305
0
LINE
8
BLACK
6
CONTINUOUS
10
1.09049
20
1.0305
11
1.09049
21
1.08952
0
LINE
8
BLACK
6
CONTINUOUS
10
1.09049
20
1.08952
11
1.08892
21
1.09761
0
LINE
8
BLACK
6
CONTINUOUS
10
1.08892
20
1.09761
11
1.08451
21
1.10433
0
LINE
8
BLACK
6
CONTINUOUS
10
1.08451
20
1.10433
11
1.08226
21
1.10584
0
LINE
8
BLACK
6
CONTINUOUS
10
1.08226
20
1.10584
11
1.08089
21
1.10723
0
LINE
8
BLACK
6
CONTINUOUS
10
1.08089
20
1.10723
11
1.08015
21
1.10904
0
LINE
8
BLACK
6
CONTINUOUS
10
1.08015
20
1.10904
11
1.08016
21
1.11099
0
LINE
8
BLACK
6
CONTINUOUS
10
1.08016
20
1.11099
11
1.08091
21
1.11279
0
LINE
8
BLACK
6
CONTINUOUS
10
1.08091
20
1.11279
11
1.08231
21
1.11417
0
LINE
8
BLACK
6
CONTINUOUS
10
1.08231
20
1.11417
11
1.08433
21
1.11549
0
LINE
8
BLACK
6
CONTINUOUS
10
1.08433
20
1.11549
11
1.08881
21
1.12214
0
LINE
8
BLACK
6
CONTINUOUS
10
1.08881
20
1.12214
11
1.09049
21
1.1305
0
LINE
8
BLACK
6
CONTINUOUS
10
1.09049
20
1.1305
11
1.09049
21
1.18952
0
LINE
8
BLACK
6
CONTINUOUS
10
1.09049
20
1.18952
11
1.08892
21
1.19761
0
LINE
8
BLACK
6
CONTINUOUS
10
1.08892
20
1.19761
11
1.08451
21
1.20433
0
LINE
8
BLACK
6
CONTINUOUS
10
1.08451
20
1.20433
11
1.07786
21
1.20881
0
LINE
8
BLACK
6
CONTINUOUS
10
1.07786
20
1.20881
11
1.0695
21
1.21049
0
LINE
8
BLACK
6
CONTINUOUS
10
1.0695
20
1.21049
11
1.01048
21
1.21049
0
LINE
8
BLACK
6
CONTINUOUS
10
1.01048
20
1.21049
11
1.00239
21
1.20892
0
LINE
8
BLACK
6
CONTINUOUS
10
1.00239
20
1.20892
11
0.995673
21
1.20451
0
LINE
8
BLACK
6
CONTINUOUS
10
0.995673
20
1.20451
11
0.994155
21
1.20226
0
LINE
8
BLACK
6
CONTINUOUS
10
0.994155
20
1.20226
11
0.992769
21
1.20089
0
LINE
8
BLACK
6
CONTINUOUS
10
0.992769
20
1.20089
11
0.990963
21
1.20015
0
LINE
8
BLACK
6
CONTINUOUS
10
0.990963
20
1.20015
11
0.989012
21
1.20016
0
LINE
8
BLACK
6
CONTINUOUS
10
0.989012
20
1.20016
11
0.987214
21
1.20091
0
LINE
8
BLACK
6
CONTINUOUS
10
0.987214
20
1.20091
11
0.985832
21
1.20231
0
LINE
8
BLACK
6
CONTINUOUS
10
0.985832
20
1.20231
11
0.984508
21
1.20433
0
LINE
8
BLACK
6
CONTINUOUS
10
0.984508
20
1.20433
11
0.977862
21
1.20881
0
LINE
8
BLACK
6
CONTINUOUS
10
0.977862
20
1.20881
11
0.969504
21
1.21049
0
LINE
8
BLACK
6
CONTINUOUS
10
0.969504
20
1.21049
11
0.910481
21
1.21049
0
LINE
8
BLACK
6
CONTINUOUS
10
0.910481
20
1.21049
11
0.902388
21
1.20892
0
LINE
8
BLACK
6
CONTINUOUS
10
0.902388
20
1.20892
11
0.895673
21
1.20451
0
LINE
8
BLACK
6
CONTINUOUS
10
0.895673
20
1.20451
11
0.891186
21
1.19786
0
LINE
8
BLACK
6
CONTINUOUS
10
0.891186
20
1.19786
11
0.88951
21
1.1895
0
LINE
8
BLACK
6
CONTINUOUS
10
0.88951
20
1.1895
11
0.88951
21
1.14713
0
LINE
8
BLACK
6
CONTINUOUS
10
0.88951
20
1.14713
11
0.88913
21
1.14521
0
LINE
8
BLACK
6
CONTINUOUS
10
0.88913
20
1.14521
11
0.888046
21
1.14359
0
LINE
8
BLACK
6
CONTINUOUS
10
0.888046
20
1.14359
11
0.886424
21
1.14251
0
LINE
8
BLACK
6
CONTINUOUS
10
0.886424
20
1.14251
11
0.88451
21
1.14213
0
LINE
8
BLACK
6
CONTINUOUS
10
0.88451
20
1.14213
11
0.87
21
1.14213
0
LINE
8
BLACK
6
CONTINUOUS
10
0.87
20
1.14213
11
0.87
21
1.13
0
LINE
8
BLACK
6
CONTINUOUS
10
0.87
20
1.13
11
0.81
21
1.13
0
LINE
8
BLACK
6
CONTINUOUS
10
0.81
20
1.13
11
0.81
21
1.14213
0
LINE
8
BLACK
6
CONTINUOUS
10
0.81
20
1.14213
11
0.801581
21
1.14213
0
LINE
8
BLACK
6
CONTINUOUS
10
0.801581
20
1.14213
11
0.799668
21
1.14251
0
LINE
8
BLACK
6
CONTINUOUS
10
0.799668
20
1.14251
11
0.798045
21
1.14359
0
LINE
8
BLACK
6
CONTINUOUS
10
0.798045
20
1.14359
11
0.778666
21
1.16297
0
LINE
8
BLACK
6
CONTINUOUS
10
0.778666
20
1.16297
11
0.769876
21
1.16884
0
LINE
8
BLACK
6
CONTINUOUS
10
0.769876
20
1.16884
11
0.759507
21
1.17091
0
LINE
8
BLACK
6
CONTINUOUS
10
0.759507
20
1.17091
11
0.733952
21
1.17091
0
LINE
8
BLACK
6
CONTINUOUS
10
0.733952
20
1.17091
11
0.732038
21
1.17129
0
LINE
8
BLACK
6
CONTINUOUS
10
0.732038
20
1.17129
11
0.730416
21
1.17237
0
LINE
8
BLACK
6
CONTINUOUS
10
0.730416
20
1.17237
11
0.729332
21
1.17399
0
LINE
8
BLACK
6
CONTINUOUS
10
0.729332
20
1.17399
11
0.728952
21
1.17591
0
LINE
8
BLACK
6
CONTINUOUS
10
0.728952
20
1.17591
11
0.729332
21
1.17782
0
LINE
8
BLACK
6
CONTINUOUS
10
0.729332
20
1.17782
11
0.729807
21
1.1787
0
LINE
8
BLACK
6
CONTINUOUS
10
0.729807
20
1.1787
11
0.733814
21
1.18464
0
LINE
8
BLACK
6
CONTINUOUS
10
0.733814
20
1.18464
11
0.73549
21
1.193
0
LINE
8
BLACK
6
CONTINUOUS
10
0.73549
20
1.193
11
0.73549
21
1.24702
0
LINE
8
BLACK
6
CONTINUOUS
10
0.73549
20
1.24702
11
0.73392
21
1.25511
0
LINE
8
BLACK
6
CONTINUOUS
10
0.73392
20
1.25511
11
0.729508
21
1.26183
0
LINE
8
BLACK
6
CONTINUOUS
10
0.729508
20
1.26183
11
0.727577
21
1.26313
0
LINE
8
BLACK
6
CONTINUOUS
10
0.727577
20
1.26313
11
0.726204
21
1.26452
0
LINE
8
BLACK
6
CONTINUOUS
10
0.726204
20
1.26452
11
0.725466
21
1.26632
0
LINE
8
BLACK
6
CONTINUOUS
10
0.725466
20
1.26632
11
0.725374
21
1.26728
0
LINE
8
BLACK
6
CONTINUOUS
10
0.725374
20
1.26728
11
0.725374
21
1.29208
0
LINE
8
BLACK
6
CONTINUOUS
10
0.725374
20
1.29208
11
0.725755
21
1.294
0
LINE
8
BLACK
6
CONTINUOUS
10
0.725755
20
1.294
11
0.726838
21
1.29562
0
LINE
8
BLACK
6
CONTINUOUS
10
0.726838
20
1.29562
11
0.728461
21
1.2967
0
LINE
8
BLACK
6
CONTINUOUS
10
0.728461
20
1.2967
11
0.729422
21
1.29699
0
LINE
8
BLACK
6
CONTINUOUS
10
0.729422
20
1.29699
11
0.737612
21
1.29858
0
LINE
8
BLACK
6
CONTINUOUS
10
0.737612
20
1.29858
11
0.744327
21
1.30299
0
LINE
8
BLACK
6
CONTINUOUS
10
0.744327
20
1.30299
11
0.748814
21
1.30964
0
LINE
8
BLACK
6
CONTINUOUS
10
0.748814
20
1.30964
11
0.75049
21
1.318
0
LINE
8
BLACK
6
CONTINUOUS
10
0.75049
20
1.318
11
0.75049
21
1.37702
0
LINE
8
BLACK
6
CONTINUOUS
10
0.75049
20
1.37702
11
0.74892
21
1.38511
0
LINE
8
BLACK
6
CONTINUOUS
10
0.74892
20
1.38511
11
0.744508
21
1.39183
0
LINE
8
BLACK
6
CONTINUOUS
10
0.744508
20
1.39183
11
0.74226
21
1.39334
0
LINE
8
BLACK
6
CONTINUOUS
10
0.74226
20
1.39334
11
0.740887
21
1.39473
0
LINE
8
BLACK
6
CONTINUOUS
10
0.740887
20
1.39473
11
0.740149
21
1.39654
0
LINE
8
BLACK
6
CONTINUOUS
10
0.740149
20
1.39654
11
0.740158
21
1.39849
0
LINE
8
BLACK
6
CONTINUOUS
10
0.740158
20
1.39849
11
0.740913
21
1.40029
0
LINE
8
BLACK
6
CONTINUOUS
10
0.740913
20
1.40029
11
0.742312
21
1.40167
0
LINE
8
BLACK
6
CONTINUOUS
10
0.742312
20
1.40167
11
0.744327
21
1.40299
0
LINE
8
BLACK
6
CONTINUOUS
10
0.744327
20
1.40299
11
0.748814
21
1.40964
0
LINE
8
BLACK
6
CONTINUOUS
10
0.748814
20
1.40964
11
0.75049
21
1.418
0
LINE
8
BLACK
6
CONTINUOUS
10
0.75049
20
1.418
11
0.75049
21
1.47702
0
LINE
8
BLACK
6
CONTINUOUS
10
0.75049
20
1.47702
11
0.74892
21
1.48511
0
LINE
8
BLACK
6
CONTINUOUS
10
0.74892
20
1.48511
11
0.744508
21
1.49183
0
LINE
8
BLACK
6
CONTINUOUS
10
0.744508
20
1.49183
11
0.737862
21
1.49631
0
LINE
8
BLACK
6
CONTINUOUS
10
0.737862
20
1.49631
11
0.729504
21
1.49799
0
LINE
8
BLACK
6
CONTINUOUS
10
0.729504
20
1.49799
11
0.670481
21
1.49799
0
LINE
8
BLACK
6
CONTINUOUS
10
0.670481
20
1.49799
11
0.662388
21
1.49642
0
LINE
8
BLACK
6
CONTINUOUS
10
0.662388
20
1.49642
11
0.655673
21
1.49201
0
LINE
8
BLACK
6
CONTINUOUS
10
0.655673
20
1.49201
11
0.654155
21
1.48976
0
LINE
8
BLACK
6
CONTINUOUS
10
0.654155
20
1.48976
11
0.652769
21
1.48839
0
LINE
8
BLACK
6
CONTINUOUS
10
0.652769
20
1.48839
11
0.650963
21
1.48765
0
LINE
8
BLACK
6
CONTINUOUS
10
0.650963
20
1.48765
11
0.649012
21
1.48766
0
LINE
8
BLACK
6
CONTINUOUS
10
0.649012
20
1.48766
11
0.647214
21
1.48841
0
LINE
8
BLACK
6
CONTINUOUS
10
0.647214
20
1.48841
11
0.645832
21
1.48981
0
LINE
8
BLACK
6
CONTINUOUS
10
0.645832
20
1.48981
11
0.644508
21
1.49183
0
LINE
8
BLACK
6
CONTINUOUS
10
0.644508
20
1.49183
11
0.637862
21
1.49631
0
LINE
8
BLACK
6
CONTINUOUS
10
0.637862
20
1.49631
11
0.629504
21
1.49799
0
LINE
8
BLACK
6
CONTINUOUS
10
0.629504
20
1.49799
11
0.570481
21
1.49799
0
LINE
8
BLACK
6
CONTINUOUS
10
0.570481
20
1.49799
11
0.562388
21
1.49642
0
LINE
8
BLACK
6
CONTINUOUS
10
0.562388
20
1.49642
11
0.555673
21
1.49201
0
LINE
8
BLACK
6
CONTINUOUS
10
0.555673
20
1.49201
11
0.554155
21
1.48976
0
LINE
8
BLACK
6
CONTINUOUS
10
0.554155
20
1.48976
11
0.552769
21
1.48839
0
LINE
8
BLACK
6
CONTINUOUS
10
0.552769
20
1.48839
11
0.550963
21
1.48765
0
LINE
8
BLACK
6
CONTINUOUS
10
0.550963
20
1.48765
11
0.549012
21
1.48766
0
LINE
8
BLACK
6
CONTINUOUS
10
0.549012
20
1.48766
11
0.547214
21
1.48841
0
LINE
8
BLACK
6
CONTINUOUS
10
0.547214
20
1.48841
11
0.545832
21
1.48981
0
LINE
8
BLACK
6
CONTINUOUS
10
0.545832
20
1.48981
11
0.544508
21
1.49183
0
LINE
8
BLACK
6
CONTINUOUS
10
0.544508
20
1.49183
11
0.537862
21
1.49631
0
LINE
8
BLACK
6
CONTINUOUS
10
0.537862
20
1.49631
11
0.529504
21
1.49799
0
LINE
8
BLACK
6
CONTINUOUS
10
0.529504
20
1.49799
11
0.470481
21
1.49799
0
LINE
8
BLACK
6
CONTINUOUS
10
0.470481
20
1.49799
11
0.462388
21
1.49642
0
LINE
8
BLACK
6
CONTINUOUS
10
0.462388
20
1.49642
11
0.455673
21
1.49201
0
LINE
8
BLACK
6
CONTINUOUS
10
0.455673
20
1.49201
11
0.451186
21
1.48536
0
LINE
8
BLACK
6
CONTINUOUS
10
0.451186
20
1.48536
11
0.44951
21
1.477
0
LINE
8
BLACK
6
CONTINUOUS
10
0.44951
20
1.477
11
0.44951
21
1.41798
0
LINE
8
BLACK
6
CONTINUOUS
10
0.44951
20
1.41798
11
0.45108
21
1.40989
0
LINE
8
BLACK
6
CONTINUOUS
10
0.45108
20
1.40989
11
0.455492
21
1.40317
0
LINE
8
BLACK
6
CONTINUOUS
10
0.455492
20
1.40317
11
0.45774
21
1.40166
0
LINE
8
BLACK
6
CONTINUOUS
10
0.45774
20
1.40166
11
0.459113
21
1.40027
0
LINE
8
BLACK
6
CONTINUOUS
10
0.459113
20
1.40027
11
0.459851
21
1.39846
0
LINE
8
BLACK
6
CONTINUOUS
10
0.459851
20
1.39846
11
0.459842
21
1.39651
0
LINE
8
BLACK
6
CONTINUOUS
10
0.459842
20
1.39651
11
0.459087
21
1.39471
0
LINE
8
BLACK
6
CONTINUOUS
10
0.459087
20
1.39471
11
0.457688
21
1.39333
0
LINE
8
BLACK
6
CONTINUOUS
10
0.457688
20
1.39333
11
0.455673
21
1.39201
0
LINE
8
BLACK
6
CONTINUOUS
10
0.455673
20
1.39201
11
0.451186
21
1.38536
0
LINE
8
BLACK
6
CONTINUOUS
10
0.451186
20
1.38536
11
0.44951
21
1.377
0
LINE
8
BLACK
6
CONTINUOUS
10
0.44951
20
1.377
11
0.44951
21
1.31798
0
LINE
8
BLACK
6
CONTINUOUS
10
0.44951
20
1.31798
11
0.45108
21
1.30989
0
LINE
8
BLACK
6
CONTINUOUS
10
0.45108
20
1.30989
11
0.455863
21
1.30261
0
LINE
8
BLACK
6
CONTINUOUS
10
0.455863
20
1.30261
11
0.456297
21
1.30217
0
LINE
8
BLACK
6
CONTINUOUS
10
0.456297
20
1.30217
11
0.457035
21
1.30036
0
LINE
8
BLACK
6
CONTINUOUS
10
0.457035
20
1.30036
11
0.457126
21
1.29941
0
LINE
8
BLACK
6
CONTINUOUS
10
0.457126
20
1.29941
11
0.457126
21
1.2673
0
LINE
8
BLACK
6
CONTINUOUS
10
0.457126
20
1.2673
11
0.456745
21
1.26539
0
LINE
8
BLACK
6
CONTINUOUS
10
0.456745
20
1.26539
11
0.455662
21
1.26377
0
LINE
8
BLACK
6
CONTINUOUS
10
0.455662
20
1.26377
11
0.454871
21
1.26312
0
LINE
8
BLACK
6
CONTINUOUS
10
0.454871
20
1.26312
11
0.453173
21
1.26201
0
LINE
8
BLACK
6
CONTINUOUS
10
0.453173
20
1.26201
11
0.448686
21
1.25536
0
LINE
8
BLACK
6
CONTINUOUS
10
0.448686
20
1.25536
11
0.44701
21
1.247
0
LINE
8
BLACK
6
CONTINUOUS
10
0.44701
20
1.247
11
0.44701
21
1.19298
0
LINE
8
BLACK
6
CONTINUOUS
10
0.44701
20
1.19298
11
0.44858
21
1.18489
0
LINE
8
BLACK
6
CONTINUOUS
10
0.44858
20
1.18489
11
0.452992
21
1.17817
0
LINE
8
BLACK
6
CONTINUOUS
10
0.452992
20
1.17817
11
0.459638
21
1.17369
0
LINE
8
BLACK
6
CONTINUOUS
10
0.459638
20
1.17369
11
0.467996
21
1.17201
0
LINE
8
BLACK
6
CONTINUOUS
10
0.467996
20
1.17201
11
0.484283
21
1.17201
0
LINE
8
BLACK
6
CONTINUOUS
10
0.484283
20
1.17201
11
0.486196
21
1.17163
0
LINE
8
BLACK
6
CONTINUOUS
10
0.486196
20
1.17163
11
0.487818
21
1.17055
0
LINE
8
BLACK
6
CONTINUOUS
10
0.487818
20
1.17055
11
0.493834
21
1.16453
0
LINE
8
BLACK
6
CONTINUOUS
10
0.493834
20
1.16453
11
0.502624
21
1.15866
0
LINE
8
BLACK
6
CONTINUOUS
10
0.502624
20
1.15866
11
0.509978
21
1.15719
0
LINE
8
BLACK
6
CONTINUOUS
10
0.509978
20
1.15719
11
0.511781
21
1.15645
0
LINE
8
BLACK
6
CONTINUOUS
10
0.511781
20
1.15645
11
0.512538
21
1.15583
0
LINE
8
BLACK
6
CONTINUOUS
10
0.512538
20
1.15583
11
0.541665
21
1.1267
0
LINE
8
BLACK
6
CONTINUOUS
10
0.541665
20
1.1267
11
0.542749
21
1.12508
0
LINE
8
BLACK
6
CONTINUOUS
10
0.542749
20
1.12508
11
0.54313
21
1.12316
0
LINE
8
BLACK
6
CONTINUOUS
10
0.54313
20
1.12316
11
0.54313
21
1.11078
0
LINE
8
BLACK
6
CONTINUOUS
10
0.54313
20
1.11078
11
0.543032
21
1.10979
0
LINE
8
BLACK
6
CONTINUOUS
10
0.543032
20
1.10979
11
0.541735
21
1.10332
0
LINE
8
BLACK
6
CONTINUOUS
10
0.541735
20
1.10332
11
0.541735
21
1.07871
0
LINE
8
BLACK
6
CONTINUOUS
10
0.541735
20
1.07871
11
0.543305
21
1.07062
0
LINE
8
BLACK
6
CONTINUOUS
10
0.543305
20
1.07062
11
0.547716
21
1.0639
0
LINE
8
BLACK
6
CONTINUOUS
10
0.547716
20
1.0639
11
0.554362
21
1.05941
0
LINE
8
BLACK
6
CONTINUOUS
10
0.554362
20
1.05941
11
0.558681
21
1.05855
0
LINE
8
BLACK
6
CONTINUOUS
10
0.558681
20
1.05855
11
0.558681
21
1.06051
0
LINE
8
BLACK
6
CONTINUOUS
10
0.558681
20
1.06051
11
0.591275
21
1.06051
0
LINE
8
BLACK
6
CONTINUOUS
10
0.591275
20
1.06051
11
0.6025
21
1.07174
0
LINE
8
BLACK
6
CONTINUOUS
10
0.6025
20
1.07174
11
0.6025
21
1.07823
0
LINE
8
BLACK
6
CONTINUOUS
10
0.6025
20
1.07823
11
0.601594
21
1.07823
0
LINE
8
BLACK
6
CONTINUOUS
10
0.601594
20
1.07823
11
0.601594
21
1.10382
0
LINE
8
BLACK
6
CONTINUOUS
10
0.601594
20
1.10382
11
0.613406
21
1.10382
0
LINE
8
BLACK
6
CONTINUOUS
10
0.613406
20
1.10382
11
0.613406
21
1.07823
0
LINE
8
BLACK
6
CONTINUOUS
10
0.613406
20
1.07823
11
0.6125
21
1.07823
0
LINE
8
BLACK
6
CONTINUOUS
10
0.6125
20
1.07823
11
0.6125
21
1.07174
0
LINE
8
BLACK
6
CONTINUOUS
10
0.6125
20
1.07174
11
0.623725
21
1.06051
0
LINE
8
BLACK
6
CONTINUOUS
10
0.623725
20
1.06051
11
0.656319
21
1.06051
0
LINE
8
BLACK
6
CONTINUOUS
10
0.656319
20
1.06051
11
0.656319
21
1.05852
0
LINE
8
BLACK
6
CONTINUOUS
10
0.656319
20
1.05852
11
0.660387
21
1.05931
0
LINE
8
BLACK
6
CONTINUOUS
10
0.660387
20
1.05931
11
0.664389
21
1.06194
0
LINE
8
BLACK
6
CONTINUOUS
10
0.664389
20
1.06194
11
0.666197
21
1.06267
0
LINE
8
BLACK
6
CONTINUOUS
10
0.666197
20
1.06267
11
0.668148
21
1.06265
0
LINE
8
BLACK
6
CONTINUOUS
10
0.668148
20
1.06265
11
0.669944
21
1.06189
0
LINE
8
BLACK
6
CONTINUOUS
10
0.669944
20
1.06189
11
0.670672
21
1.06129
0
LINE
8
BLACK
6
CONTINUOUS
10
0.670672
20
1.06129
11
0.67373
21
1.05823
0
LINE
8
BLACK
6
CONTINUOUS
10
0.67373
20
1.05823
11
0.687508
21
1.05251
0
LINE
8
BLACK
6
CONTINUOUS
10
0.687508
20
1.05251
11
0.702426
21
1.05249
0
LINE
8
BLACK
6
CONTINUOUS
10
0.702426
20
1.05249
11
0.716214
21
1.05819
0
LINE
8
BLACK
6
CONTINUOUS
10
0.716214
20
1.05819
11
0.726772
21
1.06873
0
LINE
8
BLACK
6
CONTINUOUS
10
0.726772
20
1.06873
11
0.732494
21
1.08251
0
LINE
8
BLACK
6
CONTINUOUS
10
0.732494
20
1.08251
11
0.732506
21
1.09743
0
LINE
8
BLACK
6
CONTINUOUS
10
0.732506
20
1.09743
11
0.726458
21
1.11207
0
LINE
8
BLACK
6
CONTINUOUS
10
0.726458
20
1.11207
11
0.726378
21
1.11218
0
LINE
8
BLACK
6
CONTINUOUS
10
0.726378
20
1.11218
11
0.725999
21
1.1141
0
LINE
8
BLACK
6
CONTINUOUS
10
0.725999
20
1.1141
11
0.726381
21
1.11601
0
LINE
8
BLACK
6
CONTINUOUS
10
0.726381
20
1.11601
11
0.727466
21
1.11763
0
LINE
8
BLACK
6
CONTINUOUS
10
0.727466
20
1.11763
11
0.729089
21
1.11872
0
LINE
8
BLACK
6
CONTINUOUS
10
0.729089
20
1.11872
11
0.730999
21
1.11909
0
LINE
8
BLACK
6
CONTINUOUS
10
0.730999
20
1.11909
11
0.747199
21
1.11909
0
LINE
8
BLACK
6
CONTINUOUS
10
0.747199
20
1.11909
11
0.749112
21
1.11871
0
LINE
8
BLACK
6
CONTINUOUS
10
0.749112
20
1.11871
11
0.750734
21
1.11763
0
LINE
8
BLACK
6
CONTINUOUS
10
0.750734
20
1.11763
11
0.770113
21
1.09825
0
LINE
8
BLACK
6
CONTINUOUS
10
0.770113
20
1.09825
11
0.778903
21
1.09238
0
LINE
8
BLACK
6
CONTINUOUS
10
0.778903
20
1.09238
11
0.789272
21
1.09031
0
LINE
8
BLACK
6
CONTINUOUS
10
0.789272
20
1.09031
11
0.88451
21
1.09031
0
LINE
8
BLACK
6
CONTINUOUS
10
0.88451
20
1.09031
11
0.886424
21
1.08993
0
LINE
8
BLACK
6
CONTINUOUS
10
0.886424
20
1.08993
11
0.888046
21
1.08885
0
LINE
8
BLACK
6
CONTINUOUS
10
0.888046
20
1.08885
11
0.88913
21
1.08723
0
LINE
8
BLACK
6
CONTINUOUS
10
0.88913
20
1.08723
11
0.88951
21
1.08531
0
LINE
8
BLACK
6
CONTINUOUS
10
0.88951
20
1.08531
11
0.88951
21
1.03048
0
LINE
8
BLACK
6
CONTINUOUS
10
0.88951
20
1.03048
11
0.89108
21
1.02239
0
LINE
8
BLACK
6
CONTINUOUS
10
0.89108
20
1.02239
11
0.895492
21
1.01567
0
LINE
8
BLACK
6
CONTINUOUS
10
0.895492
20
1.01567
11
0.902138
21
1.01119
0
LINE
8
BLACK
6
CONTINUOUS
10
0.902138
20
1.01119
11
0.910496
21
1.00951
0
LINE
8
BLACK
6
CONTINUOUS
10
0.910496
20
1.00951
11
0.969519
21
1.00951
0
LINE
8
BLACK
6
CONTINUOUS
10
0.969519
20
1.00951
11
0.977612
21
1.01108
0
LINE
8
BLACK
6
CONTINUOUS
10
0.977612
20
1.01108
11
0.984327
21
1.01549
0
LINE
8
BLACK
6
CONTINUOUS
10
0.984327
20
1.01549
11
0.985845
21
1.01774
0
LINE
8
BLACK
6
CONTINUOUS
10
0.985845
20
1.01774
11
0.987231
21
1.01911
0
LINE
8
BLACK
6
CONTINUOUS
10
0.987231
20
1.01911
11
0.989037
21
1.01985
0
LINE
8
BLACK
6
CONTINUOUS
10
0.989037
20
1.01985
11
0.990988
21
1.01984
0
LINE
8
BLACK
6
CONTINUOUS
10
0.990988
20
1.01984
11
0.992786
21
1.01909
0
LINE
8
BLACK
6
CONTINUOUS
10
0.992786
20
1.01909
11
0.994168
21
1.01769
0
LINE
8
BLACK
6
CONTINUOUS
10
0.994168
20
1.01769
11
0.995837
21
1.01515
0
LINE
8
BLACK
6
CONTINUOUS
10
0.995837
20
1.01515
11
0.99657
21
1.01334
0
LINE
8
BLACK
6
CONTINUOUS
10
0.99657
20
1.01334
11
0.996555
21
1.01139
0
LINE
8
BLACK
6
CONTINUOUS
10
0.996555
20
1.01139
11
0.995794
21
1.00959
0
LINE
8
BLACK
6
CONTINUOUS
10
0.995794
20
1.00959
11
0.995194
21
1.00887
0
LINE
8
BLACK
6
CONTINUOUS
10
0.995194
20
1.00887
11
0.928167
21
0.941838
0
LINE
8
BLACK
6
CONTINUOUS
10
0.928167
20
0.941838
11
0.926545
21
0.940755
0
LINE
8
BLACK
6
CONTINUOUS
10
0.926545
20
0.940755
11
0.924631
21
0.940374
0
LINE
8
BLACK
6
CONTINUOUS
10
0.924631
20
0.940374
11
0.897303
21
0.940374
0
LINE
8
BLACK
6
CONTINUOUS
10
0.897303
20
0.940374
11
0.895389
21
0.940755
0
LINE
8
BLACK
6
CONTINUOUS
10
0.895389
20
0.940755
11
0.893767
21
0.941838
0
LINE
8
BLACK
6
CONTINUOUS
10
0.893767
20
0.941838
11
0.893124
21
0.942629
0
LINE
8
BLACK
6
CONTINUOUS
10
0.893124
20
0.942629
11
0.892008
21
0.944327
0
LINE
8
BLACK
6
CONTINUOUS
10
0.892008
20
0.944327
11
0.885362
21
0.948814
0
LINE
8
BLACK
6
CONTINUOUS
10
0.885362
20
0.948814
11
0.877004
21
0.95049
0
LINE
8
BLACK
6
CONTINUOUS
10
0.877004
20
0.95049
11
0.845511
21
0.95049
0
LINE
8
BLACK
6
CONTINUOUS
10
0.845511
20
0.95049
11
0.843597
21
0.95087
0
LINE
8
BLACK
6
CONTINUOUS
10
0.843597
20
0.95087
11
0.841975
21
0.951954
0
LINE
8
BLACK
6
CONTINUOUS
10
0.841975
20
0.951954
11
0.84089
21
0.95358
0
LINE
8
BLACK
6
CONTINUOUS
10
0.84089
20
0.95358
11
0.835044
21
0.967728
0
LINE
8
BLACK
6
CONTINUOUS
10
0.835044
20
0.967728
11
0.832776
21
0.97
0
LINE
8
BLACK
6
CONTINUOUS
10
0.832776
20
0.97
11
0.8225
21
0.97
0
LINE
8
BLACK
6
CONTINUOUS
10
0.8225
20
0.97
11
0.8225
21
0.979118
0
LINE
8
BLACK
6
CONTINUOUS
10
0.8225
20
0.979118
11
0.810727
21
0.984007
0
LINE
8
BLACK
6
CONTINUOUS
10
0.810727
20
0.984007
11
0.795808
21
0.98402
0
LINE
8
BLACK
6
CONTINUOUS
10
0.795808
20
0.98402
11
0.783161
21
0.978794
0
LINE
8
BLACK
6
CONTINUOUS
10
0.783161
20
0.978794
11
0.781247
21
0.978415
0
LINE
8
BLACK
6
CONTINUOUS
10
0.781247
20
0.978415
11
0.780276
21
0.978511
0
LINE
8
BLACK
6
CONTINUOUS
10
0.780276
20
0.978511
11
0.7775
21
0.979063
0
LINE
8
BLACK
6
CONTINUOUS
10
0.7775
20
0.979063
11
0.7775
21
0.97
0
LINE
8
BLACK
6
CONTINUOUS
10
0.7775
20
0.97
11
0.7225
21
0.97
0
LINE
8
BLACK
6
CONTINUOUS
10
0.7225
20
0.97
11
0.7225
21
0.980591
0
LINE
8
BLACK
6
CONTINUOUS
10
0.7225
20
0.980591
11
0.677524
21
0.980591
0
LINE
8
BLACK
6
CONTINUOUS
10
0.677524
20
0.980591
11
0.675611
21
0.980971
0
LINE
8
BLACK
6
CONTINUOUS
10
0.675611
20
0.980971
11
0.673989
21
0.982055
0
LINE
8
BLACK
6
CONTINUOUS
10
0.673989
20
0.982055
11
0.672905
21
0.983677
0
LINE
8
BLACK
6
CONTINUOUS
10
0.672905
20
0.983677
11
0.672616
21
0.984639
0
LINE
8
BLACK
6
CONTINUOUS
10
0.672616
20
0.984639
11
0.671695
21
0.989383
0
LINE
8
BLACK
6
CONTINUOUS
10
0.671695
20
0.989383
11
0.667284
21
0.996099
0
LINE
8
BLACK
6
CONTINUOUS
10
0.667284
20
0.996099
11
0.660638
21
1.00059
0
LINE
8
BLACK
6
CONTINUOUS
10
0.660638
20
1.00059
11
0.656319
21
1.00145
0
LINE
8
BLACK
6
CONTINUOUS
10
0.656319
20
1.00145
11
0.656319
21
0.999488
0
LINE
8
BLACK
6
CONTINUOUS
10
0.656319
20
0.999488
11
0.558681
21
0.999488
0
LINE
8
BLACK
6
CONTINUOUS
10
0.558681
20
0.999488
11
0.558681
21
1.00148
0
LINE
8
BLACK
6
CONTINUOUS
10
0.558681
20
1.00148
11
0.554613
21
1.00069
0
LINE
8
BLACK
6
CONTINUOUS
10
0.554613
20
1.00069
11
0.547897
21
0.99628
0
LINE
8
BLACK
6
CONTINUOUS
10
0.547897
20
0.99628
11
0.543411
21
0.989634
0
LINE
8
BLACK
6
CONTINUOUS
10
0.543411
20
0.989634
11
0.541735
21
0.981275
0
LINE
8
BLACK
6
CONTINUOUS
10
0.541735
20
0.981275
11
0.541735
21
0.956662
0
LINE
8
BLACK
6
CONTINUOUS
10
0.541735
20
0.956662
11
0.543022
21
0.950026
0
LINE
8
BLACK
6
CONTINUOUS
10
0.543022
20
0.950026
11
0.543018
21
0.948098
0
LINE
8
BLACK
6
CONTINUOUS
10
0.543018
20
0.948098
11
0.542224
21
0.944109
0
LINE
8
BLACK
6
CONTINUOUS
10
0.542224
20
0.944109
11
0.542224
21
0.915092
0
LINE
8
BLACK
6
CONTINUOUS
10
0.542224
20
0.915092
11
0.541843
21
0.913179
0
LINE
8
BLACK
6
CONTINUOUS
10
0.541843
20
0.913179
11
0.54076
21
0.911556
0
LINE
8
BLACK
6
CONTINUOUS
10
0.54076
20
0.911556
11
0.53313
21
0.903927
0
LINE
8
BLACK
6
CONTINUOUS
10
0.53313
20
0.903927
11
0.527686
21
0.895779
0
LINE
8
BLACK
6
CONTINUOUS
10
0.527686
20
0.895779
11
0.526307
21
0.8944
0
LINE
8
BLACK
6
CONTINUOUS
10
0.526307
20
0.8944
11
0.524481
21
0.893649
0
LINE
8
BLACK
6
CONTINUOUS
10
0.524481
20
0.893649
11
0.517888
21
0.89237
0
LINE
8
BLACK
6
CONTINUOUS
10
0.517888
20
0.89237
11
0.511173
21
0.887958
0
LINE
8
BLACK
6
CONTINUOUS
10
0.511173
20
0.887958
11
0.506686
21
0.881312
0
LINE
8
BLACK
6
CONTINUOUS
10
0.506686
20
0.881312
11
0.50501
21
0.872954
0
LINE
8
BLACK
6
CONTINUOUS
10
0.50501
20
0.872954
11
0.50501
21
0.807031
0
LINE
8
BLACK
6
CONTINUOUS
10
0.50501
20
0.807031
11
0.50658
21
0.798938
0
LINE
8
BLACK
6
CONTINUOUS
10
0.50658
20
0.798938
11
0.510992
21
0.792223
0
LINE
8
BLACK
6
CONTINUOUS
10
0.510992
20
0.792223
11
0.515567
21
0.789134
0
LINE
8
BLACK
6
CONTINUOUS
10
0.515567
20
0.789134
11
0.51694
21
0.787748
0
LINE
8
BLACK
6
CONTINUOUS
10
0.51694
20
0.787748
11
0.517679
21
0.785942
0
LINE
8
BLACK
6
CONTINUOUS
10
0.517679
20
0.785942
11
0.517669
21
0.783991
0
LINE
8
BLACK
6
CONTINUOUS
10
0.517669
20
0.783991
11
0.516914
21
0.782192
0
LINE
8
BLACK
6
CONTINUOUS
10
0.516914
20
0.782192
11
0.515515
21
0.780811
0
LINE
8
BLACK
6
CONTINUOUS
10
0.515515
20
0.780811
11
0.511173
21
0.777958
0
LINE
8
BLACK
6
CONTINUOUS
10
0.511173
20
0.777958
11
0.506686
21
0.771312
0
LINE
8
BLACK
6
CONTINUOUS
10
0.506686
20
0.771312
11
0.50501
21
0.762954
0
LINE
8
BLACK
6
CONTINUOUS
10
0.50501
20
0.762954
11
0.50501
21
0.728185
0
LINE
8
BLACK
6
CONTINUOUS
10
0.50501
20
0.728185
11
0.50463
21
0.726272
0
LINE
8
BLACK
6
CONTINUOUS
10
0.50463
20
0.726272
11
0.503546
21
0.724649
0
LINE
8
BLACK
6
CONTINUOUS
10
0.503546
20
0.724649
11
0.499246
21
0.72035
0
LINE
8
BLACK
6
CONTINUOUS
10
0.499246
20
0.72035
11
0.49252
21
0.710283
0
LINE
8
BLACK
6
CONTINUOUS
10
0.49252
20
0.710283
11
0.490157
21
0.698407
0
LINE
8
BLACK
6
CONTINUOUS
10
0.490157
20
0.698407
11
0.490157
21
0.679065
0
LINE
8
BLACK
6
CONTINUOUS
10
0.490157
20
0.679065
11
0.489777
21
0.677152
0
LINE
8
BLACK
6
CONTINUOUS
10
0.489777
20
0.677152
11
0.488693
21
0.67553
0
LINE
8
BLACK
6
CONTINUOUS
10
0.488693
20
0.67553
11
0.487071
21
0.674446
0
LINE
8
BLACK
6
CONTINUOUS
10
0.487071
20
0.674446
11
0.48611
21
0.674157
0
LINE
8
BLACK
6
CONTINUOUS
10
0.48611
20
0.674157
11
0.484888
21
0.67392
0
LINE
8
BLACK
6
CONTINUOUS
10
0.484888
20
0.67392
11
0.479931
21
0.670664
0
LINE
8
BLACK
6
CONTINUOUS
10
0.479931
20
0.670664
11
0.478123
21
0.669931
0
LINE
8
BLACK
6
CONTINUOUS
10
0.478123
20
0.669931
11
0.477186
21
0.669843
0
LINE
8
BLACK
6
CONTINUOUS
10
0.477186
20
0.669843
11
0.459065
21
0.669843
0
LINE
8
BLACK
6
CONTINUOUS
10
0.459065
20
0.669843
11
0.457152
21
0.670223
0
LINE
8
BLACK
6
CONTINUOUS
10
0.457152
20
0.670223
11
0.45553
21
0.671307
0
LINE
8
BLACK
6
CONTINUOUS
10
0.45553
20
0.671307
11
0.454446
21
0.672929
0
LINE
8
BLACK
6
CONTINUOUS
10
0.454446
20
0.672929
11
0.454157
21
0.67389
0
LINE
8
BLACK
6
CONTINUOUS
10
0.454157
20
0.67389
11
0.45392
21
0.675112
0
LINE
8
BLACK
6
CONTINUOUS
10
0.45392
20
0.675112
11
0.449508
21
0.681827
0
LINE
8
BLACK
6
CONTINUOUS
10
0.449508
20
0.681827
11
0.442862
21
0.686314
0
LINE
8
BLACK
6
CONTINUOUS
10
0.442862
20
0.686314
11
0.434504
21
0.68799
0
LINE
8
BLACK
6
CONTINUOUS
10
0.434504
20
0.68799
11
0.400481
21
0.68799
0
LINE
8
BLACK
6
CONTINUOUS
10
0.400481
20
0.68799
11
0.392388
21
0.68642
0
LINE
8
BLACK
6
CONTINUOUS
10
0.392388
20
0.68642
11
0.385673
21
0.682008
0
LINE
8
BLACK
6
CONTINUOUS
10
0.385673
20
0.682008
11
0.381186
21
0.675362
0
LINE
8
BLACK
6
CONTINUOUS
10
0.381186
20
0.675362
11
0.37951
21
0.667004
0
LINE
8
BLACK
6
CONTINUOUS
10
0.37951
20
0.667004
11
0.37951
21
0.612981
0
LINE
8
BLACK
6
CONTINUOUS
10
0.37951
20
0.612981
11
0.38108
21
0.604888
0
LINE
8
BLACK
6
CONTINUOUS
10
0.38108
20
0.604888
11
0.385805
21
0.597696
0
LINE
8
BLACK
6
CONTINUOUS
10
0.385805
20
0.597696
11
0.386538
21
0.595887
0
LINE
8
BLACK
6
CONTINUOUS
10
0.386538
20
0.595887
11
0.386522
21
0.593937
0
LINE
8
BLACK
6
CONTINUOUS
10
0.386522
20
0.593937
11
0.38577
21
0.592153
0
LINE
8
BLACK
6
CONTINUOUS
10
0.38577
20
0.592153
11
0.381186
21
0.585362
0
LINE
8
BLACK
6
CONTINUOUS
10
0.381186
20
0.585362
11
0.37951
21
0.577004
0
LINE
8
BLACK
6
CONTINUOUS
10
0.37951
20
0.577004
11
0.37951
21
0.522981
0
LINE
8
BLACK
6
CONTINUOUS
10
0.37951
20
0.522981
11
0.38108
21
0.514888
0
LINE
8
BLACK
6
CONTINUOUS
10
0.38108
20
0.514888
11
0.385492
21
0.508173
0
LINE
8
BLACK
6
CONTINUOUS
10
0.385492
20
0.508173
11
0.392138
21
0.503686
0
LINE
8
BLACK
6
CONTINUOUS
10
0.392138
20
0.503686
11
0.400496
21
0.50201
0
LINE
8
BLACK
6
CONTINUOUS
10
0.400496
20
0.50201
11
0.422954
21
0.50201
0
LINE
8
BLACK
6
CONTINUOUS
10
0.422954
20
0.50201
11
0.424867
21
0.50163
0
LINE
8
BLACK
6
CONTINUOUS
10
0.424867
20
0.50163
11
0.42649
21
0.500546
0
LINE
8
BLACK
6
CONTINUOUS
10
0.42649
20
0.500546
11
0.427573
21
0.498924
0
LINE
8
BLACK
6
CONTINUOUS
10
0.427573
20
0.498924
11
0.427954
21
0.49701
0
LINE
8
BLACK
6
CONTINUOUS
10
0.427954
20
0.49701
11
0.427573
21
0.495097
0
LINE
8
BLACK
6
CONTINUOUS
10
0.427573
20
0.495097
11
0.427098
21
0.494213
0
LINE
8
BLACK
6
CONTINUOUS
10
0.427098
20
0.494213
11
0.426186
21
0.492862
0
LINE
8
BLACK
6
CONTINUOUS
10
0.426186
20
0.492862
11
0.42451
21
0.484504
0
LINE
8
BLACK
6
CONTINUOUS
10
0.42451
20
0.484504
11
0.42451
21
0.467014
0
LINE
8
BLACK
6
CONTINUOUS
10
0.42451
20
0.467014
11
0.42413
21
0.4651
0
LINE
8
BLACK
6
CONTINUOUS
10
0.42413
20
0.4651
11
0.423046
21
0.463478
0
LINE
8
BLACK
6
CONTINUOUS
10
0.423046
20
0.463478
11
0.421424
21
0.462394
0
LINE
8
BLACK
6
CONTINUOUS
10
0.421424
20
0.462394
11
0.41951
21
0.462014
0
LINE
8
BLACK
6
CONTINUOUS
10
0.41951
20
0.462014
11
0.417597
21
0.462394
0
LINE
8
BLACK
6
CONTINUOUS
10
0.417597
20
0.462394
11
0.415975
21
0.463478
0
LINE
8
BLACK
6
CONTINUOUS
10
0.415975
20
0.463478
11
0.415331
21
0.464269
0
LINE
8
BLACK
6
CONTINUOUS
10
0.415331
20
0.464269
11
0.412008
21
0.469327
0
LINE
8
BLACK
6
CONTINUOUS
10
0.412008
20
0.469327
11
0.405362
21
0.473814
0
LINE
8
BLACK
6
CONTINUOUS
10
0.405362
20
0.473814
11
0.397004
21
0.47549
0
LINE
8
BLACK
6
CONTINUOUS
10
0.397004
20
0.47549
11
0.376285
21
0.47549
0
LINE
8
BLACK
6
CONTINUOUS
10
0.376285
20
0.47549
11
0.374372
21
0.47587
0
LINE
8
BLACK
6
CONTINUOUS
10
0.374372
20
0.47587
11
0.372749
21
0.476954
0
LINE
8
BLACK
6
CONTINUOUS
10
0.372749
20
0.476954
11
0.327204
21
0.5225
0
LINE
8
BLACK
6
CONTINUOUS
10
0.327204
20
0.5225
11
0.325
21
0.5225
0
LINE
8
BLACK
6
CONTINUOUS
10
0.325
20
0.5225
11
0.325
21
0.524704
0
LINE
8
BLACK
6
CONTINUOUS
10
0.325
20
0.524704
11
0.31895
21
0.530754
0
LINE
8
BLACK
6
CONTINUOUS
10
0.31895
20
0.530754
11
0.308883
21
0.53748
0
LINE
8
BLACK
6
CONTINUOUS
10
0.308883
20
0.53748
11
0.303858
21
0.53848
0
LINE
8
BLACK
6
CONTINUOUS
10
0.303858
20
0.53848
11
0.302055
21
0.539227
0
LINE
8
BLACK
6
CONTINUOUS
10
0.302055
20
0.539227
11
0.300676
21
0.540606
0
LINE
8
BLACK
6
CONTINUOUS
10
0.300676
20
0.540606
11
0.299925
21
0.542432
0
LINE
8
BLACK
6
CONTINUOUS
10
0.299925
20
0.542432
11
0.29892
21
0.547612
0
LINE
8
BLACK
6
CONTINUOUS
10
0.29892
20
0.547612
11
0.294508
21
0.554327
0
LINE
8
BLACK
6
CONTINUOUS
10
0.294508
20
0.554327
11
0.287862
21
0.558814
0
LINE
8
BLACK
6
CONTINUOUS
10
0.287862
20
0.558814
11
0.279504
21
0.56049
0
LINE
8
BLACK
6
CONTINUOUS
10
0.279504
20
0.56049
11
0.220481
21
0.56049
0
LINE
8
BLACK
6
CONTINUOUS
10
0.220481
20
0.56049
11
0.212388
21
0.55892
0
LINE
8
BLACK
6
CONTINUOUS
10
0.212388
20
0.55892
11
0.205673
21
0.554508
0
LINE
8
BLACK
6
CONTINUOUS
10
0.205673
20
0.554508
11
0.204155
21
0.55226
0
LINE
8
BLACK
6
CONTINUOUS
10
0.204155
20
0.55226
11
0.202769
21
0.550887
0
LINE
8
BLACK
6
CONTINUOUS
10
0.202769
20
0.550887
11
0.200963
21
0.550149
0
LINE
8
BLACK
6
CONTINUOUS
10
0.200963
20
0.550149
11
0.199012
21
0.550158
0
LINE
8
BLACK
6
CONTINUOUS
10
0.199012
20
0.550158
11
0.197214
21
0.550913
0
LINE
8
BLACK
6
CONTINUOUS
10
0.197214
20
0.550913
11
0.195832
21
0.552312
0
LINE
8
BLACK
6
CONTINUOUS
10
0.195832
20
0.552312
11
0.194508
21
0.554327
0
LINE
8
BLACK
6
CONTINUOUS
10
0.194508
20
0.554327
11
0.187862
21
0.558814
0
LINE
8
BLACK
6
CONTINUOUS
10
0.187862
20
0.558814
11
0.179504
21
0.56049
0
LINE
8
BLACK
6
CONTINUOUS
10
0.179504
20
0.56049
11
0.12
21
0.56049
0
LINE
8
BLACK
6
CONTINUOUS
10
0.12
20
0.56049
11
0.12
21
0.560554
0
LINE
8
BLACK
6
CONTINUOUS
10
0.12
20
0.560554
11
0.118844
21
0.56056
0
LINE
8
BLACK
6
CONTINUOUS
10
0.118844
20
0.56056
11
0.117045
21
0.561315
0
LINE
8
BLACK
6
CONTINUOUS
10
0.117045
20
0.561315
11
0.115672
21
0.562701
0
LINE
8
BLACK
6
CONTINUOUS
10
0.115672
20
0.562701
11
0.114934
21
0.564507
0
LINE
8
BLACK
6
CONTINUOUS
10
0.114934
20
0.564507
11
0.114843
21
0.565459
0
LINE
8
BLACK
6
CONTINUOUS
10
0.114843
20
0.565459
11
0.114843
21
0.655253
0
LINE
8
BLACK
6
CONTINUOUS
10
0.114843
20
0.655253
11
0.115223
21
0.657166
0
LINE
8
BLACK
6
CONTINUOUS
10
0.115223
20
0.657166
11
0.116307
21
0.658788
0
LINE
8
BLACK
6
CONTINUOUS
10
0.116307
20
0.658788
11
0.11971
21
0.662192
0
LINE
8
BLACK
6
CONTINUOUS
10
0.11971
20
0.662192
11
0.121332
21
0.663276
0
LINE
8
BLACK
6
CONTINUOUS
10
0.121332
20
0.663276
11
0.123246
21
0.663656
0
LINE
8
BLACK
6
CONTINUOUS
10
0.123246
20
0.663656
11
0.125159
21
0.663276
0
LINE
8
BLACK
6
CONTINUOUS
10
0.125159
20
0.663276
11
0.126043
21
0.6628
0
LINE
8
BLACK
6
CONTINUOUS
10
0.126043
20
0.6628
11
0.132138
21
0.658686
0
LINE
8
BLACK
6
CONTINUOUS
10
0.132138
20
0.658686
11
0.140496
21
0.65701
0
LINE
8
BLACK
6
CONTINUOUS
10
0.140496
20
0.65701
11
0.174519
21
0.65701
0
LINE
8
BLACK
6
CONTINUOUS
10
0.174519
20
0.65701
11
0.182612
21
0.65858
0
LINE
8
BLACK
6
CONTINUOUS
10
0.182612
20
0.65858
11
0.189327
21
0.662992
0
LINE
8
BLACK
6
CONTINUOUS
10
0.189327
20
0.662992
11
0.193814
21
0.669638
0
LINE
8
BLACK
6
CONTINUOUS
10
0.193814
20
0.669638
11
0.19549
21
0.677996
0
LINE
8
BLACK
6
CONTINUOUS
10
0.19549
20
0.677996
11
0.19549
21
0.732019
0
LINE
8
BLACK
6
CONTINUOUS
10
0.19549
20
0.732019
11
0.19392
21
0.740112
0
LINE
8
BLACK
6
CONTINUOUS
10
0.19392
20
0.740112
11
0.189845
21
0.746315
0
LINE
8
BLACK
6
CONTINUOUS
10
0.189845
20
0.746315
11
0.189112
21
0.748123
0
LINE
8
BLACK
6
CONTINUOUS
10
0.189112
20
0.748123
11
0.189128
21
0.750074
0
LINE
8
BLACK
6
CONTINUOUS
10
0.189128
20
0.750074
11
0.189888
21
0.751871
0
LINE
8
BLACK
6
CONTINUOUS
10
0.189888
20
0.751871
11
0.191279
21
0.753239
0
LINE
8
BLACK
6
CONTINUOUS
10
0.191279
20
0.753239
11
0.193087
21
0.753972
0
LINE
8
BLACK
6
CONTINUOUS
10
0.193087
20
0.753972
11
0.194024
21
0.75406
0
LINE
8
BLACK
6
CONTINUOUS
10
0.194024
20
0.75406
11
0.290019
21
0.75406
0
LINE
8
BLACK
6
CONTINUOUS
10
0.290019
20
0.75406
11
0.298112
21
0.75563
0
LINE
8
BLACK
6
CONTINUOUS
10
0.298112
20
0.75563
11
0.304827
21
0.760042
0
LINE
8
BLACK
6
CONTINUOUS
10
0.304827
20
0.760042
11
0.309314
21
0.766688
0
LINE
8
BLACK
6
CONTINUOUS
10
0.309314
20
0.766688
11
0.31099
21
0.775046
0
LINE
8
BLACK
6
CONTINUOUS
10
0.31099
20
0.775046
11
0.31099
21
0.844969
0
LINE
8
BLACK
6
CONTINUOUS
10
0.31099
20
0.844969
11
0.30942
21
0.853062
0
LINE
8
BLACK
6
CONTINUOUS
10
0.30942
20
0.853062
11
0.305008
21
0.859777
0
LINE
8
BLACK
6
CONTINUOUS
10
0.305008
20
0.859777
11
0.298362
21
0.864264
0
LINE
8
BLACK
6
CONTINUOUS
10
0.298362
20
0.864264
11
0.290004
21
0.86594
0
LINE
8
BLACK
6
CONTINUOUS
10
0.290004
20
0.86594
11
0.192581
21
0.86594
0
LINE
8
BLACK
6
CONTINUOUS
10
0.192581
20
0.86594
11
0.184488
21
0.86437
0
LINE
8
BLACK
6
CONTINUOUS
10
0.184488
20
0.86437
11
0.177773
21
0.859958
0
LINE
8
BLACK
6
CONTINUOUS
10
0.177773
20
0.859958
11
0.177134
21
0.859012
0
LINE
8
BLACK
6
CONTINUOUS
10
0.177134
20
0.859012
11
0.175748
21
0.857639
0
LINE
8
BLACK
6
CONTINUOUS
10
0.175748
20
0.857639
11
0.173942
21
0.856901
0
LINE
8
BLACK
6
CONTINUOUS
10
0.173942
20
0.856901
11
0.171991
21
0.85691
0
LINE
8
BLACK
6
CONTINUOUS
10
0.171991
20
0.85691
11
0.170192
21
0.857665
0
LINE
8
BLACK
6
CONTINUOUS
10
0.170192
20
0.857665
11
0.168819
21
0.859051
0
LINE
8
BLACK
6
CONTINUOUS
10
0.168819
20
0.859051
11
0.168081
21
0.860857
0
LINE
8
BLACK
6
CONTINUOUS
10
0.168081
20
0.860857
11
0.16799
21
0.861809
0
LINE
8
BLACK
6
CONTINUOUS
10
0.16799
20
0.861809
11
0.16799
21
0.871215
0
LINE
8
BLACK
6
CONTINUOUS
10
0.16799
20
0.871215
11
0.16837
21
0.873128
0
LINE
8
BLACK
6
CONTINUOUS
10
0.16837
20
0.873128
11
0.169454
21
0.874751
0
LINE
8
BLACK
6
CONTINUOUS
10
0.169454
20
0.874751
11
0.173254
21
0.87855
0
LINE
8
BLACK
6
CONTINUOUS
10
0.173254
20
0.87855
11
0.17998
21
0.888617
0
LINE
8
BLACK
6
CONTINUOUS
10
0.17998
20
0.888617
11
0.182343
21
0.900493
0
LINE
8
BLACK
6
CONTINUOUS
10
0.182343
20
0.900493
11
0.182343
21
0.92045
0
LINE
8
BLACK
6
CONTINUOUS
10
0.182343
20
0.92045
11
0.182723
21
0.922363
0
LINE
8
BLACK
6
CONTINUOUS
10
0.182723
20
0.922363
11
0.183807
21
0.923985
0
LINE
8
BLACK
6
CONTINUOUS
10
0.183807
20
0.923985
11
0.185429
21
0.925069
0
LINE
8
BLACK
6
CONTINUOUS
10
0.185429
20
0.925069
11
0.18639
21
0.925358
0
LINE
8
BLACK
6
CONTINUOUS
10
0.18639
20
0.925358
11
0.190112
21
0.92608
0
LINE
8
BLACK
6
CONTINUOUS
10
0.190112
20
0.92608
11
0.196827
21
0.930492
0
LINE
8
BLACK
6
CONTINUOUS
10
0.196827
20
0.930492
11
0.198665
21
0.933214
0
LINE
8
BLACK
6
CONTINUOUS
10
0.198665
20
0.933214
11
0.200051
21
0.934587
0
LINE
8
BLACK
6
CONTINUOUS
10
0.200051
20
0.934587
11
0.201856
21
0.935325
0
LINE
8
BLACK
6
CONTINUOUS
10
0.201856
20
0.935325
11
0.203807
21
0.935316
0
LINE
8
BLACK
6
CONTINUOUS
10
0.203807
20
0.935316
11
0.205606
21
0.934561
0
LINE
8
BLACK
6
CONTINUOUS
10
0.205606
20
0.934561
11
0.206344
21
0.933952
0
LINE
8
BLACK
6
CONTINUOUS
10
0.206344
20
0.933952
11
0.210546
21
0.929751
0
LINE
8
BLACK
6
CONTINUOUS
10
0.210546
20
0.929751
11
0.21163
21
0.928128
0
LINE
8
BLACK
6
CONTINUOUS
10
0.21163
20
0.928128
11
0.21201
21
0.926215
0
LINE
8
BLACK
6
CONTINUOUS
10
0.21201
20
0.926215
11
0.21201
21
0.905481
0
LINE
8
BLACK
6
CONTINUOUS
10
0.21201
20
0.905481
11
0.21358
21
0.897388
0
LINE
8
BLACK
6
CONTINUOUS
10
0.21358
20
0.897388
11
0.217992
21
0.890673
0
LINE
8
BLACK
6
CONTINUOUS
10
0.217992
20
0.890673
11
0.224638
21
0.886186
0
LINE
8
BLACK
6
CONTINUOUS
10
0.224638
20
0.886186
11
0.232996
21
0.88451
0
LINE
8
BLACK
6
CONTINUOUS
10
0.232996
20
0.88451
11
0.287019
21
0.88451
0
LINE
8
BLACK
6
CONTINUOUS
10
0.287019
20
0.88451
11
0.295112
21
0.88608
0
LINE
8
BLACK
6
CONTINUOUS
10
0.295112
20
0.88608
11
0.29916
21
0.88874
0
LINE
8
BLACK
6
CONTINUOUS
10
0.29916
20
0.88874
11
0.300969
21
0.889472
0
LINE
8
BLACK
6
CONTINUOUS
10
0.300969
20
0.889472
11
0.302919
21
0.889457
0
LINE
8
BLACK
6
CONTINUOUS
10
0.302919
20
0.889457
11
0.304703
21
0.888705
0
LINE
8
BLACK
6
CONTINUOUS
10
0.304703
20
0.888705
11
0.312138
21
0.883686
0
LINE
8
BLACK
6
CONTINUOUS
10
0.312138
20
0.883686
11
0.320496
21
0.88201
0
LINE
8
BLACK
6
CONTINUOUS
10
0.320496
20
0.88201
11
0.354519
21
0.88201
0
LINE
8
BLACK
6
CONTINUOUS
10
0.354519
20
0.88201
11
0.362612
21
0.88358
0
LINE
8
BLACK
6
CONTINUOUS
10
0.362612
20
0.88358
11
0.369327
21
0.887992
0
LINE
8
BLACK
6
CONTINUOUS
10
0.369327
20
0.887992
11
0.373814
21
0.894638
0
LINE
8
BLACK
6
CONTINUOUS
10
0.373814
20
0.894638
11
0.37549
21
0.902996
0
LINE
8
BLACK
6
CONTINUOUS
10
0.37549
20
0.902996
11
0.37549
21
0.957019
0
LINE
8
BLACK
6
CONTINUOUS
10
0.37549
20
0.957019
11
0.37392
21
0.965112
0
LINE
8
BLACK
6
CONTINUOUS
10
0.37392
20
0.965112
11
0.369508
21
0.971827
0
LINE
8
BLACK
6
CONTINUOUS
10
0.369508
20
0.971827
11
0.362862
21
0.976314
0
LINE
8
BLACK
6
CONTINUOUS
10
0.362862
20
0.976314
11
0.354504
21
0.97799
0
LINE
8
BLACK
6
CONTINUOUS
10
0.354504
20
0.97799
11
0.320481
21
0.97799
0
LINE
8
BLACK
6
CONTINUOUS
10
0.320481
20
0.97799
11
0.313942
21
0.976721
0
LINE
8
BLACK
6
CONTINUOUS
10
0.313942
20
0.976721
11
0.311991
21
0.97673
0
LINE
8
BLACK
6
CONTINUOUS
10
0.311991
20
0.97673
11
0.310192
21
0.977485
0
LINE
8
BLACK
6
CONTINUOUS
10
0.310192
20
0.977485
11
0.308819
21
0.978871
0
LINE
8
BLACK
6
CONTINUOUS
10
0.308819
20
0.978871
11
0.308081
21
0.980677
0
LINE
8
BLACK
6
CONTINUOUS
10
0.308081
20
0.980677
11
0.30799
21
0.98163
0
LINE
8
BLACK
6
CONTINUOUS
10
0.30799
20
0.98163
11
0.30799
21
1.01452
0
LINE
8
BLACK
6
CONTINUOUS
10
0.30799
20
1.01452
11
0.30642
21
1.02261
0
LINE
8
BLACK
6
CONTINUOUS
10
0.30642
20
1.02261
11
0.302008
21
1.02933
0
LINE
8
BLACK
6
CONTINUOUS
10
0.302008
20
1.02933
11
0.295362
21
1.03381
0
LINE
8
BLACK
6
CONTINUOUS
10
0.295362
20
1.03381
11
0.293859
21
1.03411
0
LINE
8
BLACK
6
CONTINUOUS
10
0.293859
20
1.03411
11
0.292058
21
1.03486
0
LINE
8
BLACK
6
CONTINUOUS
10
0.292058
20
1.03486
11
0.290681
21
1.03625
0
LINE
8
BLACK
6
CONTINUOUS
10
0.290681
20
1.03625
11
0.289937
21
1.03805
0
LINE
8
BLACK
6
CONTINUOUS
10
0.289937
20
1.03805
11
0.289843
21
1.03902
0
LINE
8
BLACK
6
CONTINUOUS
10
0.289843
20
1.03902
11
0.289843
21
1.06766
0
LINE
8
BLACK
6
CONTINUOUS
10
0.289843
20
1.06766
11
0.290223
21
1.06957
0
LINE
8
BLACK
6
CONTINUOUS
10
0.290223
20
1.06957
11
0.291307
21
1.07119
0
LINE
8
BLACK
6
CONTINUOUS
10
0.291307
20
1.07119
11
0.292929
21
1.07228
0
LINE
8
BLACK
6
CONTINUOUS
10
0.292929
20
1.07228
11
0.294843
21
1.07266
0
LINE
8
BLACK
6
CONTINUOUS
10
0.294843
20
1.07266
11
0.31701
21
1.07266
0
LINE
8
BLACK
6
CONTINUOUS
10
0.31701
20
1.07266
11
0.318924
21
1.07228
0
LINE
8
BLACK
6
CONTINUOUS
10
0.318924
20
1.07228
11
0.320546
21
1.07119
0
LINE
8
BLACK
6
CONTINUOUS
10
0.320546
20
1.07119
11
0.32163
21
1.06957
0
LINE
8
BLACK
6
CONTINUOUS
10
0.32163
20
1.06957
11
0.32201
21
1.06766
0
LINE
8
BLACK
6
CONTINUOUS
10
0.32201
20
1.06766
11
0.32201
21
1.06548
0
LINE
8
BLACK
6
CONTINUOUS
10
0.32201
20
1.06548
11
0.32358
21
1.05739
0
LINE
8
BLACK
6
CONTINUOUS
10
0.32358
20
1.05739
11
0.327992
21
1.05067
0
LINE
8
BLACK
6
CONTINUOUS
10
0.327992
20
1.05067
11
0.334638
21
1.04619
0
LINE
8
BLACK
6
CONTINUOUS
10
0.334638
20
1.04619
11
0.342996
21
1.04451
0
LINE
8
BLACK
6
CONTINUOUS
10
0.342996
20
1.04451
11
0.397019
21
1.04451
0
LINE
8
BLACK
6
CONTINUOUS
10
0.397019
20
1.04451
11
0.405112
21
1.04608
0
LINE
8
BLACK
6
CONTINUOUS
10
0.405112
20
1.04608
11
0.411827
21
1.05049
0
LINE
8
BLACK
6
CONTINUOUS
10
0.411827
20
1.05049
11
0.416314
21
1.05714
0
LINE
8
BLACK
6
CONTINUOUS
10
0.416314
20
1.05714
11
0.41799
21
1.0655
0
LINE
8
BLACK
6
CONTINUOUS
10
0.41799
20
1.0655
11
0.41799
21
1.09952
0
LINE
8
BLACK
6
CONTINUOUS
10
0.41799
20
1.09952
11
0.41642
21
1.10761
0
LINE
8
BLACK
6
CONTINUOUS
10
0.41642
20
1.10761
11
0.412008
21
1.11433
0
LINE
8
BLACK
6
CONTINUOUS
10
0.412008
20
1.11433
11
0.405362
21
1.11881
0
LINE
8
BLACK
6
CONTINUOUS
10
0.405362
20
1.11881
11
0.397004
21
1.12049
0
LINE
8
BLACK
6
CONTINUOUS
10
0.397004
20
1.12049
11
0.365894
21
1.12049
0
LINE
8
BLACK
6
CONTINUOUS
10
0.365894
20
1.12049
11
0.363981
21
1.12087
0
LINE
8
BLACK
6
CONTINUOUS
10
0.363981
20
1.12087
11
0.362358
21
1.12195
0
LINE
8
BLACK
6
CONTINUOUS
10
0.362358
20
1.12195
11
0.361059
21
1.12325
0
LINE
8
BLACK
6
CONTINUOUS
10
0.361059
20
1.12325
11
0.358
21
1.1253
0
LINE
8
BLACK
6
CONTINUOUS
10
0.358
20
1.1253
11
0.358
21
1.12425
0
LINE
8
BLACK
6
CONTINUOUS
10
0.358
20
1.12425
11
0.3186
21
1.12425
0
LINE
8
BLACK
6
CONTINUOUS
10
0.3186
20
1.12425
11
0.3186
21
1.13234
0
LINE
8
BLACK
6
CONTINUOUS
10
0.3186
20
1.13234
11
0.287786
21
1.13234
0
LINE
8
BLACK
6
CONTINUOUS
10
0.287786
20
1.13234
11
0.285872
21
1.13272
0
LINE
8
BLACK
6
CONTINUOUS
10
0.285872
20
1.13272
11
0.284988
21
1.1332
0
LINE
8
BLACK
6
CONTINUOUS
10
0.284988
20
1.1332
11
0.279262
21
1.13706
0
LINE
8
BLACK
6
CONTINUOUS
10
0.279262
20
1.13706
11
0.270904
21
1.13874
0
LINE
8
BLACK
6
CONTINUOUS
10
0.270904
20
1.13874
11
0.233035
21
1.13874
0
LINE
8
BLACK
6
CONTINUOUS
10
0.233035
20
1.13874
11
0.231122
21
1.13912
0
LINE
8
BLACK
6
CONTINUOUS
10
0.231122
20
1.13912
11
0.229499
21
1.1402
0
LINE
8
BLACK
6
CONTINUOUS
10
0.229499
20
1.1402
11
0.204454
21
1.16525
0
LINE
8
BLACK
6
CONTINUOUS
10
0.204454
20
1.16525
11
0.20337
21
1.16687
0
LINE
8
BLACK
6
CONTINUOUS
10
0.20337
20
1.16687
11
0.20299
21
1.16878
0
LINE
8
BLACK
6
CONTINUOUS
10
0.20299
20
1.16878
11
0.20299
21
1.19783
0
LINE
8
BLACK
6
CONTINUOUS
10
0.20299
20
1.19783
11
0.20337
21
1.19975
0
LINE
8
BLACK
6
CONTINUOUS
10
0.20337
20
1.19975
11
0.204454
21
1.20137
0
LINE
8
BLACK
6
CONTINUOUS
10
0.204454
20
1.20137
11
0.206076
21
1.20245
0
LINE
8
BLACK
6
CONTINUOUS
10
0.206076
20
1.20245
11
0.20799
21
1.20283
0
LINE
8
BLACK
6
CONTINUOUS
10
0.20799
20
1.20283
11
0.280144
21
1.20283
0
LINE
8
BLACK
6
CONTINUOUS
10
0.280144
20
1.20283
11
0.282058
21
1.20245
0
LINE
8
BLACK
6
CONTINUOUS
10
0.282058
20
1.20245
11
0.283683
21
1.20137
0
LINE
8
BLACK
6
CONTINUOUS
10
0.283683
20
1.20137
11
0.284145
21
1.2009
0
LINE
8
BLACK
6
CONTINUOUS
10
0.284145
20
1.2009
11
0.297922
21
1.19518
0
LINE
8
BLACK
6
CONTINUOUS
10
0.297922
20
1.19518
11
0.312841
21
1.19517
0
LINE
8
BLACK
6
CONTINUOUS
10
0.312841
20
1.19517
11
0.326629
21
1.20087
0
LINE
8
BLACK
6
CONTINUOUS
10
0.326629
20
1.20087
11
0.337187
21
1.21141
0
LINE
8
BLACK
6
CONTINUOUS
10
0.337187
20
1.21141
11
0.342908
21
1.22519
0
LINE
8
BLACK
6
CONTINUOUS
10
0.342908
20
1.22519
11
0.342921
21
1.2401
0
LINE
8
BLACK
6
CONTINUOUS
10
0.342921
20
1.2401
11
0.337224
21
1.25389
0
LINE
8
BLACK
6
CONTINUOUS
10
0.337224
20
1.25389
11
0.326684
21
1.26445
0
LINE
8
BLACK
6
CONTINUOUS
10
0.326684
20
1.26445
11
0.312906
21
1.27017
0
LINE
8
BLACK
6
CONTINUOUS
10
0.312906
20
1.27017
11
0.297988
21
1.27018
0
LINE
8
BLACK
6
CONTINUOUS
10
0.297988
20
1.27018
11
0.2842
21
1.26449
0
LINE
8
BLACK
6
CONTINUOUS
10
0.2842
20
1.26449
11
0.283694
21
1.26398
0
LINE
8
BLACK
6
CONTINUOUS
10
0.283694
20
1.26398
11
0.28207
21
1.2629
0
LINE
8
BLACK
6
CONTINUOUS
10
0.28207
20
1.2629
11
0.280161
21
1.26252
0
LINE
8
BLACK
6
CONTINUOUS
10
0.280161
20
1.26252
11
0.103243
21
1.26252
0
LINE
8
BLACK
6
CONTINUOUS
10
0.103243
20
1.26252
11
0.0913672
21
1.26016
0
LINE
8
BLACK
6
CONTINUOUS
10
0.0913672
20
1.26016
11
0.0812998
21
1.25343
0
LINE
8
BLACK
6
CONTINUOUS
10
0.0812998
20
1.25343
11
0.0592463
21
1.23138
0
LINE
8
BLACK
6
CONTINUOUS
10
0.0592463
20
1.23138
11
0.0525196
21
1.22131
0
LINE
8
BLACK
6
CONTINUOUS
10
0.0525196
20
1.22131
11
0.0501574
21
1.20943
0
LINE
8
BLACK
6
CONTINUOUS
10
0.0501574
20
1.20943
11
0.0501574
21
0.998308
0
LINE
8
BLACK
6
CONTINUOUS
10
0.0501574
20
0.998308
11
0.0525196
21
0.986432
0
LINE
8
BLACK
6
CONTINUOUS
10
0.0525196
20
0.986432
11
0.0592464
21
0.976365
0
LINE
8
BLACK
6
CONTINUOUS
10
0.0592464
20
0.976365
11
0.0813649
21
0.954246
0
LINE
8
BLACK
6
CONTINUOUS
10
0.0813649
20
0.954246
11
0.0914322
21
0.94752
0
LINE
8
BLACK
6
CONTINUOUS
10
0.0914322
20
0.94752
11
0.09873
21
0.946068
0
LINE
8
BLACK
6
CONTINUOUS
10
0.09873
20
0.946068
11
0.100532
21
0.945321
0
LINE
8
BLACK
6
CONTINUOUS
10
0.100532
20
0.945321
11
0.101912
21
0.943942
0
LINE
8
BLACK
6
CONTINUOUS
10
0.101912
20
0.943942
11
0.102663
21
0.942116
0
LINE
8
BLACK
6
CONTINUOUS
10
0.102663
20
0.942116
11
0.10358
21
0.937388
0
LINE
8
BLACK
6
CONTINUOUS
10
0.10358
20
0.937388
11
0.107992
21
0.930673
0
LINE
8
BLACK
6
CONTINUOUS
10
0.107992
20
0.930673
11
0.114638
21
0.926186
0
LINE
8
BLACK
6
CONTINUOUS
10
0.114638
20
0.926186
11
0.118641
21
0.925384
0
LINE
8
BLACK
6
CONTINUOUS
10
0.118641
20
0.925384
11
0.120442
21
0.924634
0
LINE
8
BLACK
6
CONTINUOUS
10
0.120442
20
0.924634
11
0.121819
21
0.923253
0
LINE
8
BLACK
6
CONTINUOUS
10
0.121819
20
0.923253
11
0.122563
21
0.921449
0
LINE
8
BLACK
6
CONTINUOUS
10
0.122563
20
0.921449
11
0.122657
21
0.920481
0
LINE
8
BLACK
6
CONTINUOUS
10
0.122657
20
0.920481
11
0.122657
21
0.914432
0
LINE
8
BLACK
6
CONTINUOUS
10
0.122657
20
0.914432
11
0.122277
21
0.912519
0
LINE
8
BLACK
6
CONTINUOUS
10
0.122277
20
0.912519
11
0.121193
21
0.910897
0
LINE
8
BLACK
6
CONTINUOUS
10
0.121193
20
0.910897
11
0.117251
21
0.906954
0
LINE
8
BLACK
6
CONTINUOUS
10
0.117251
20
0.906954
11
0.115628
21
0.90587
0
LINE
8
BLACK
6
CONTINUOUS
10
0.115628
20
0.90587
11
0.113715
21
0.90549
0
LINE
8
BLACK
6
CONTINUOUS
10
0.113715
20
0.90549
11
0.0929806
21
0.90549
0
LINE
8
BLACK
6
CONTINUOUS
10
0.0929806
20
0.90549
11
0.0848883
21
0.90392
0
LINE
8
BLACK
6
CONTINUOUS
10
0.0848883
20
0.90392
11
0.0781727
21
0.899508
0
LINE
8
BLACK
6
CONTINUOUS
10
0.0781727
20
0.899508
11
0.0736865
21
0.892862
0
LINE
8
BLACK
6
CONTINUOUS
10
0.0736865
20
0.892862
11
0.0720102
21
0.884504
0
LINE
8
BLACK
6
CONTINUOUS
10
0.0720102
20
0.884504
11
0.0720102
21
0.850481
0
LINE
8
BLACK
6
CONTINUOUS
10
0.0720102
20
0.850481
11
0.0735803
21
0.842388
0
LINE
8
BLACK
6
CONTINUOUS
10
0.0735803
20
0.842388
11
0.0779918
21
0.835673
0
LINE
8
BLACK
6
CONTINUOUS
10
0.0779918
20
0.835673
11
0.08024
21
0.834155
0
LINE
8
BLACK
6
CONTINUOUS
10
0.08024
20
0.834155
11
0.081613
21
0.832769
0
LINE
8
BLACK
6
CONTINUOUS
10
0.081613
20
0.832769
11
0.082351
21
0.830963
0
LINE
8
BLACK
6
CONTINUOUS
10
0.082351
20
0.830963
11
0.0823419
21
0.829012
0
LINE
8
BLACK
6
CONTINUOUS
10
0.0823419
20
0.829012
11
0.0815868
21
0.827214
0
LINE
8
BLACK
6
CONTINUOUS
10
0.0815868
20
0.827214
11
0.0801878
21
0.825832
0
LINE
8
BLACK
6
CONTINUOUS
10
0.0801878
20
0.825832
11
0.0781727
21
0.824508
0
LINE
8
BLACK
6
CONTINUOUS
10
0.0781727
20
0.824508
11
0.0736865
21
0.817862
0
LINE
8
BLACK
6
CONTINUOUS
10
0.0736865
20
0.817862
11
0.0720102
21
0.809504
0
LINE
8
BLACK
6
CONTINUOUS
10
0.0720102
20
0.809504
11
0.0720102
21
0.775481
0
LINE
8
BLACK
6
CONTINUOUS
10
0.0720102
20
0.775481
11
0.0735803
21
0.767388
0
LINE
8
BLACK
6
CONTINUOUS
10
0.0735803
20
0.767388
11
0.0779918
21
0.760673
0
LINE
8
BLACK
6
CONTINUOUS
10
0.0779918
20
0.760673
11
0.0846379
21
0.756186
0
LINE
8
BLACK
6
CONTINUOUS
10
0.0846379
20
0.756186
11
0.0929964
21
0.75451
0
LINE
8
BLACK
6
CONTINUOUS
10
0.0929964
20
0.75451
11
0.121329
21
0.75451
0
LINE
8
BLACK
6
CONTINUOUS
10
0.121329
20
0.75451
11
0.123242
21
0.75413
0
LINE
8
BLACK
6
CONTINUOUS
10
0.123242
20
0.75413
11
0.124865
21
0.753046
0
LINE
8
BLACK
6
CONTINUOUS
10
0.124865
20
0.753046
11
0.125948
21
0.751424
0
LINE
8
BLACK
6
CONTINUOUS
10
0.125948
20
0.751424
11
0.126329
21
0.74951
0
LINE
8
BLACK
6
CONTINUOUS
10
0.126329
20
0.74951
11
0.125948
21
0.747597
0
LINE
8
BLACK
6
CONTINUOUS
10
0.125948
20
0.747597
11
0.125473
21
0.746713
0
LINE
8
BLACK
6
CONTINUOUS
10
0.125473
20
0.746713
11
0.121186
21
0.740362
0
LINE
8
BLACK
6
CONTINUOUS
10
0.121186
20
0.740362
11
0.120705
21
0.737962
0
LINE
8
BLACK
6
CONTINUOUS
10
0.120705
20
0.737962
11
0.119956
21
0.736161
0
LINE
8
BLACK
6
CONTINUOUS
10
0.119956
20
0.736161
11
0.118574
21
0.734783
0
LINE
8
BLACK
6
CONTINUOUS
10
0.118574
20
0.734783
11
0.116778
21
0.734041
0
LINE
8
BLACK
6
CONTINUOUS
10
0.116778
20
0.734041
11
0.108932
21
0.73248
0
LINE
8
BLACK
6
CONTINUOUS
10
0.108932
20
0.73248
11
0.0988648
21
0.725754
0
LINE
8
BLACK
6
CONTINUOUS
10
0.0988648
20
0.725754
11
0.0642463
21
0.691135
0
LINE
8
BLACK
6
CONTINUOUS
10
0.0642463
20
0.691135
11
0.0575196
21
0.681068
0
LINE
8
BLACK
6
CONTINUOUS
10
0.0575196
20
0.681068
11
0.0551574
21
0.669192
0
LINE
8
BLACK
6
CONTINUOUS
10
0.0551574
20
0.669192
11
0.0551574
21
0.525808
0
LINE
8
BLACK
6
CONTINUOUS
10
0.0551574
20
0.525808
11
0.0575196
21
0.513932
0
LINE
8
BLACK
6
CONTINUOUS
10
0.0575196
20
0.513932
11
0.0642463
21
0.503865
0
LINE
8
BLACK
6
CONTINUOUS
10
0.0642463
20
0.503865
11
0.078865
21
0.489246
0
LINE
8
BLACK
6
CONTINUOUS
10
0.078865
20
0.489246
11
0.0889322
21
0.48252
0
LINE
8
BLACK
6
CONTINUOUS
10
0.0889322
20
0.48252
11
0.09623
21
0.481068
0
LINE
8
BLACK
6
CONTINUOUS
10
0.09623
20
0.481068
11
0.0980324
21
0.480321
0
LINE
8
BLACK
6
CONTINUOUS
10
0.0980324
20
0.480321
11
0.0994119
21
0.478942
0
LINE
8
BLACK
6
CONTINUOUS
10
0.0994119
20
0.478942
11
0.100163
21
0.477116
0
LINE
8
BLACK
6
CONTINUOUS
10
0.100163
20
0.477116
11
0.10108
21
0.472388
0
LINE
8
BLACK
6
CONTINUOUS
10
0.10108
20
0.472388
11
0.105492
21
0.465673
0
LINE
8
BLACK
6
CONTINUOUS
10
0.105492
20
0.465673
11
0.112138
21
0.461186
0
LINE
8
BLACK
6
CONTINUOUS
10
0.112138
20
0.461186
11
0.120496
21
0.45951
0
LINE
8
BLACK
6
CONTINUOUS
10
0.120496
20
0.45951
11
0.179519
21
0.45951
0
LINE
8
BLACK
6
CONTINUOUS
10
0.179519
20
0.45951
11
0.187612
21
0.46108
0
LINE
8
BLACK
6
CONTINUOUS
10
0.187612
20
0.46108
11
0.194327
21
0.465492
0
LINE
8
BLACK
6
CONTINUOUS
10
0.194327
20
0.465492
11
0.195845
21
0.46774
0
LINE
8
BLACK
6
CONTINUOUS
10
0.195845
20
0.46774
11
0.197231
21
0.469113
0
LINE
8
BLACK
6
CONTINUOUS
10
0.197231
20
0.469113
11
0.199037
21
0.469851
0
LINE
8
BLACK
6
CONTINUOUS
10
0.199037
20
0.469851
11
0.200988
21
0.469842
0
LINE
8
BLACK
6
CONTINUOUS
10
0.200988
20
0.469842
11
0.202786
21
0.469087
0
LINE
8
BLACK
6
CONTINUOUS
10
0.202786
20
0.469087
11
0.204168
21
0.467688
0
LINE
8
BLACK
6
CONTINUOUS
10
0.204168
20
0.467688
11
0.205492
21
0.465673
0
LINE
8
BLACK
6
CONTINUOUS
10
0.205492
20
0.465673
11
0.212138
21
0.461186
0
LINE
8
BLACK
6
CONTINUOUS
10
0.212138
20
0.461186
11
0.220496
21
0.45951
0
LINE
8
BLACK
6
CONTINUOUS
10
0.220496
20
0.45951
11
0.279519
21
0.45951
0
LINE
8
BLACK
6
CONTINUOUS
10
0.279519
20
0.45951
11
0.287612
21
0.46108
0
LINE
8
BLACK
6
CONTINUOUS
10
0.287612
20
0.46108
11
0.294231
21
0.465428
0
LINE
8
BLACK
6
CONTINUOUS
10
0.294231
20
0.465428
11
0.296039
21
0.466161
0
LINE
8
BLACK
6
CONTINUOUS
10
0.296039
20
0.466161
11
0.29799
21
0.466145
0
LINE
8
BLACK
6
CONTINUOUS
10
0.29799
20
0.466145
11
0.299786
21
0.465385
0
LINE
8
BLACK
6
CONTINUOUS
10
0.299786
20
0.465385
11
0.300511
21
0.464785
0
LINE
8
BLACK
6
CONTINUOUS
10
0.300511
20
0.464785
11
0.320546
21
0.444751
0
LINE
8
BLACK
6
CONTINUOUS
10
0.320546
20
0.444751
11
0.32163
21
0.443128
0
LINE
8
BLACK
6
CONTINUOUS
10
0.32163
20
0.443128
11
0.32201
21
0.441215
0
LINE
8
BLACK
6
CONTINUOUS
10
0.32201
20
0.441215
11
0.32201
21
0.420481
0
LINE
8
BLACK
6
CONTINUOUS
10
0.32201
20
0.420481
11
0.32358
21
0.412388
0
LINE
8
BLACK
6
CONTINUOUS
10
0.32358
20
0.412388
11
0.327992
21
0.405673
0
LINE
8
BLACK
6
CONTINUOUS
10
0.327992
20
0.405673
11
0.334638
21
0.401186
0
LINE
8
BLACK
6
CONTINUOUS
10
0.334638
20
0.401186
11
0.342996
21
0.39951
0
LINE
8
BLACK
6
CONTINUOUS
10
0.342996
20
0.39951
11
0.397019
21
0.39951
0
LINE
8
BLACK
6
CONTINUOUS
10
0.397019
20
0.39951
11
0.405112
21
0.40108
0
LINE
8
BLACK
6
CONTINUOUS
10
0.405112
20
0.40108
11
0.411827
21
0.405492
0
LINE
8
BLACK
6
CONTINUOUS
10
0.411827
20
0.405492
11
0.415366
21
0.410734
0
LINE
8
BLACK
6
CONTINUOUS
10
0.415366
20
0.410734
11
0.416752
21
0.412107
0
LINE
8
BLACK
6
CONTINUOUS
10
0.416752
20
0.412107
11
0.418558
21
0.412845
0
LINE
8
BLACK
6
CONTINUOUS
10
0.418558
20
0.412845
11
0.420509
21
0.412836
0
LINE
8
BLACK
6
CONTINUOUS
10
0.420509
20
0.412836
11
0.422308
21
0.412081
0
LINE
8
BLACK
6
CONTINUOUS
10
0.422308
20
0.412081
11
0.423681
21
0.410695
0
LINE
8
BLACK
6
CONTINUOUS
10
0.423681
20
0.410695
11
0.424419
21
0.408889
0
LINE
8
BLACK
6
CONTINUOUS
10
0.424419
20
0.408889
11
0.42451
21
0.407937
0
LINE
8
BLACK
6
CONTINUOUS
10
0.42451
20
0.407937
11
0.42451
21
0.335481
0
LINE
8
BLACK
6
CONTINUOUS
10
0.42451
20
0.335481
11
0.42608
21
0.327388
0
LINE
8
BLACK
6
CONTINUOUS
10
0.42608
20
0.327388
11
0.430492
21
0.320673
0
LINE
8
BLACK
6
CONTINUOUS
10
0.430492
20
0.320673
11
0.437883
21
0.315683
0
LINE
8
BLACK
6
CONTINUOUS
10
0.437883
20
0.315683
11
0.439256
21
0.314297
0
LINE
8
BLACK
6
CONTINUOUS
10
0.439256
20
0.314297
11
0.439994
21
0.312491
0
LINE
8
BLACK
6
CONTINUOUS
10
0.439994
20
0.312491
11
0.439985
21
0.310541
0
LINE
8
BLACK
6
CONTINUOUS
10
0.439985
20
0.310541
11
0.43923
21
0.308742
0
LINE
8
BLACK
6
CONTINUOUS
10
0.43923
20
0.308742
11
0.437831
21
0.30736
0
LINE
8
BLACK
6
CONTINUOUS
10
0.437831
20
0.30736
11
0.430673
21
0.302658
0
LINE
8
BLACK
6
CONTINUOUS
10
0.430673
20
0.302658
11
0.426186
21
0.296012
0
LINE
8
BLACK
6
CONTINUOUS
10
0.426186
20
0.296012
11
0.42451
21
0.287653
0
LINE
8
BLACK
6
CONTINUOUS
10
0.42451
20
0.287653
11
0.42451
21
0.13863
0
LINE
8
BLACK
6
CONTINUOUS
10
0.42451
20
0.13863
11
0.42608
21
0.130538
0
LINE
8
BLACK
6
CONTINUOUS
10
0.42608
20
0.130538
11
0.430492
21
0.123822
0
LINE
8
BLACK
6
CONTINUOUS
10
0.430492
20
0.123822
11
0.437138
21
0.119336
0
LINE
8
BLACK
6
CONTINUOUS
10
0.437138
20
0.119336
11
0.445496
21
0.11766
0
LINE
8
BLACK
6
CONTINUOUS
10
0.445496
20
0.11766
11
0.594519
21
0.11766
0
LINE
8
BLACK
6
CONTINUOUS
10
0.594519
20
0.11766
11
0.602612
21
0.11923
0
LINE
8
BLACK
6
CONTINUOUS
10
0.602612
20
0.11923
11
0.609327
21
0.123641
0
LINE
8
BLACK
6
CONTINUOUS
10
0.609327
20
0.123641
11
0.613814
21
0.130288
0
LINE
8
BLACK
6
CONTINUOUS
10
0.613814
20
0.130288
11
0.615089
21
0.13665
0
LINE
8
BLACK
6
CONTINUOUS
10
0.615089
20
0.13665
11
0.615839
21
0.138451
0
LINE
8
BLACK
6
CONTINUOUS
10
0.615839
20
0.138451
11
0.617221
21
0.139829
0
LINE
8
BLACK
6
CONTINUOUS
10
0.617221
20
0.139829
11
0.619024
21
0.140572
0
LINE
8
BLACK
6
CONTINUOUS
10
0.619024
20
0.140572
11
0.620975
21
0.140569
0
LINE
8
BLACK
6
CONTINUOUS
10
0.620975
20
0.140569
11
0.622776
21
0.13982
0
LINE
8
BLACK
6
CONTINUOUS
10
0.622776
20
0.13982
11
0.624154
21
0.138438
0
LINE
8
BLACK
6
CONTINUOUS
10
0.624154
20
0.138438
11
0.6249
21
0.136619
0
LINE
8
BLACK
6
CONTINUOUS
10
0.6249
20
0.136619
11
0.62608
21
0.130538
0
LINE
8
BLACK
6
CONTINUOUS
10
0.62608
20
0.130538
11
0.630492
21
0.123822
0
LINE
8
BLACK
6
CONTINUOUS
10
0.630492
20
0.123822
11
0.637138
21
0.119336
0
LINE
8
BLACK
6
CONTINUOUS
10
0.637138
20
0.119336
11
0.645496
21
0.11766
0
LINE
8
BLACK
6
CONTINUOUS
10
0.645496
20
0.11766
11
0.794519
21
0.11766
0
LINE
8
BLACK
6
CONTINUOUS
10
0.794519
20
0.11766
11
0.802612
21
0.11923
0
LINE
8
BLACK
6
CONTINUOUS
10
0.802612
20
0.11923
11
0.809327
21
0.123641
0
LINE
8
BLACK
6
CONTINUOUS
10
0.809327
20
0.123641
11
0.813814
21
0.130288
0
LINE
8
BLACK
6
CONTINUOUS
10
0.813814
20
0.130288
11
0.81549
21
0.138646
0
LINE
8
BLACK
6
CONTINUOUS
10
0.81549
20
0.138646
11
0.81549
21
0.287669
0
LINE
8
BLACK
6
CONTINUOUS
10
0.81549
20
0.287669
11
0.81392
21
0.295761
0
LINE
8
BLACK
6
CONTINUOUS
10
0.81392
20
0.295761
11
0.809508
21
0.302477
0
LINE
8
BLACK
6
CONTINUOUS
10
0.809508
20
0.302477
11
0.802117
21
0.307466
0
LINE
8
BLACK
6
CONTINUOUS
10
0.802117
20
0.307466
11
0.800744
21
0.308852
0
LINE
8
BLACK
6
CONTINUOUS
10
0.800744
20
0.308852
11
0.800006
21
0.310658
0
LINE
8
BLACK
6
CONTINUOUS
10
0.800006
20
0.310658
11
0.800015
21
0.312609
0
LINE
8
BLACK
6
CONTINUOUS
10
0.800015
20
0.312609
11
0.80077
21
0.314408
0
LINE
8
BLACK
6
CONTINUOUS
10
0.80077
20
0.314408
11
0.802169
21
0.31579
0
LINE
8
BLACK
6
CONTINUOUS
10
0.802169
20
0.31579
11
0.809327
21
0.320492
0
LINE
8
BLACK
6
CONTINUOUS
10
0.809327
20
0.320492
11
0.813814
21
0.327138
0
LINE
8
BLACK
6
CONTINUOUS
10
0.813814
20
0.327138
11
0.81549
21
0.335496
0
LINE
8
BLACK
6
CONTINUOUS
10
0.81549
20
0.335496
11
0.81549
21
0.484519
0
LINE
8
BLACK
6
CONTINUOUS
10
0.81549
20
0.484519
11
0.81392
21
0.492612
0
LINE
8
BLACK
6
CONTINUOUS
10
0.795
20
0.28815
11
0.795
21
0.13815
0
LINE
8
BLACK
6
CONTINUOUS
10
0.795
20
0.13815
11
0.645
21
0.13815
0
LINE
8
BLACK
6
CONTINUOUS
10
0.645
20
0.13815
11
0.645
21
0.28815
0
LINE
8
BLACK
6
CONTINUOUS
10
0.645
20
0.28815
11
0.710157
21
0.28815
0
LINE
8
BLACK
6
CONTINUOUS
10
0.710157
20
0.28815
11
0.710157
21
0.335
0
LINE
8
BLACK
6
CONTINUOUS
10
0.710157
20
0.335
11
0.645
21
0.335
0
LINE
8
BLACK
6
CONTINUOUS
10
0.645
20
0.335
11
0.645
21
0.485
0
LINE
8
BLACK
6
CONTINUOUS
10
0.645
20
0.485
11
0.710157
21
0.485
0
LINE
8
BLACK
6
CONTINUOUS
10
0.710157
20
0.485
11
0.710157
21
0.545
0
LINE
8
BLACK
6
CONTINUOUS
10
0.710157
20
0.545
11
0.6925
21
0.545
0
LINE
8
BLACK
6
CONTINUOUS
10
0.6925
20
0.545
11
0.6925
21
0.58
0
LINE
8
BLACK
6
CONTINUOUS
10
0.6925
20
0.58
11
0.7475
21
0.58
0
LINE
8
BLACK
6
CONTINUOUS
10
0.7475
20
0.58
11
0.7475
21
0.545
0
LINE
8
BLACK
6
CONTINUOUS
10
0.7475
20
0.545
11
0.729843
21
0.545
0
LINE
8
BLACK
6
CONTINUOUS
10
0.729843
20
0.545
11
0.729843
21
0.485
0
LINE
8
BLACK
6
CONTINUOUS
10
0.729843
20
0.485
11
0.795
21
0.485
0
LINE
8
BLACK
6
CONTINUOUS
10
0.795
20
0.485
11
0.795
21
0.335
0
LINE
8
BLACK
6
CONTINUOUS
10
0.795
20
0.335
11
0.729843
21
0.335
0
LINE
8
BLACK
6
CONTINUOUS
10
0.729843
20
0.335
11
0.729843
21
0.28815
0
LINE
8
BLACK
6
CONTINUOUS
10
0.729843
20
0.28815
11
0.795
21
0.28815
0
LINE
8
BLACK
6
CONTINUOUS
10
0.595
20
0.28815
11
0.595
21
0.13815
0
LINE
8
BLACK
6
CONTINUOUS
10
0.595
20
0.13815
11
0.445
21
0.13815
0
LINE
8
BLACK
6
CONTINUOUS
10
0.445
20
0.13815
11
0.445
21
0.28815
0
LINE
8
BLACK
6
CONTINUOUS
10
0.445
20
0.28815
11
0.510157
21
0.28815
0
LINE
8
BLACK
6
CONTINUOUS
10
0.510157
20
0.28815
11
0.510157
21
0.335
0
LINE
8
BLACK
6
CONTINUOUS
10
0.510157
20
0.335
11
0.445
21
0.335
0
LINE
8
BLACK
6
CONTINUOUS
10
0.445
20
0.335
11
0.445
21
0.485
0
LINE
8
BLACK
6
CONTINUOUS
10
0.445
20
0.485
11
0.510157
21
0.485
0
LINE
8
BLACK
6
CONTINUOUS
10
0.510157
20
0.485
11
0.510157
21
0.545
0
LINE
8
BLACK
6
CONTINUOUS
10
0.510157
20
0.545
11
0.4925
21
0.545
0
LINE
8
BLACK
6
CONTINUOUS
10
0.4925
20
0.545
11
0.4925
21
0.552657
0
LINE
8
BLACK
6
CONTINUOUS
10
0.4925
20
0.552657
11
0.435
21
0.552657
0
LINE
8
BLACK
6
CONTINUOUS
10
0.435
20
0.552657
11
0.435
21
0.5225
0
LINE
8
BLACK
6
CONTINUOUS
10
0.435
20
0.5225
11
0.4
21
0.5225
0
LINE
8
BLACK
6
CONTINUOUS
10
0.4
20
0.5225
11
0.4
21
0.5775
0
LINE
8
BLACK
6
CONTINUOUS
10
0.4
20
0.5775
11
0.435
21
0.5775
0
LINE
8
BLACK
6
CONTINUOUS
10
0.435
20
0.5775
11
0.435
21
0.572343
0
LINE
8
BLACK
6
CONTINUOUS
10
0.435
20
0.572343
11
0.4925
21
0.572343
0
LINE
8
BLACK
6
CONTINUOUS
10
0.4925
20
0.572343
11
0.4925
21
0.58
0
LINE
8
BLACK
6
CONTINUOUS
10
0.4925
20
0.58
11
0.5475
21
0.58
0
LINE
8
BLACK
6
CONTINUOUS
10
0.5475
20
0.58
11
0.5475
21
0.545
0
LINE
8
BLACK
6
CONTINUOUS
10
0.5475
20
0.545
11
0.529843
21
0.545
0
LINE
8
BLACK
6
CONTINUOUS
10
0.529843
20
0.545
11
0.529843
21
0.485
0
LINE
8
BLACK
6
CONTINUOUS
10
0.529843
20
0.485
11
0.595
21
0.485
0
LINE
8
BLACK
6
CONTINUOUS
10
0.595
20
0.485
11
0.595
21
0.335
0
LINE
8
BLACK
6
CONTINUOUS
10
0.595
20
0.335
11
0.529843
21
0.335
0
LINE
8
BLACK
6
CONTINUOUS
10
0.529843
20
0.335
11
0.529843
21
0.28815
0
LINE
8
BLACK
6
CONTINUOUS
10
0.529843
20
0.28815
11
0.595
21
0.28815
0
LINE
8
BLACK
6
CONTINUOUS
10
1.12063
20
0.381786
11
1.12232
21
0.379235
0
LINE
8
BLACK
6
CONTINUOUS
10
1.12232
20
0.379235
11
1.1225
21
0.376184
0
LINE
8
BLACK
6
CONTINUOUS
10
1.1225
20
0.376184
11
1.12113
21
0.37345
0
LINE
8
BLACK
6
CONTINUOUS
10
1.12113
20
0.37345
11
1.11858
21
0.371765
0
LINE
8
BLACK
6
CONTINUOUS
10
1.11858
20
0.371765
11
1.10575
21
0.367487
0
LINE
8
BLACK
6
CONTINUOUS
10
1.10575
20
0.367487
11
1.10575
21
0.347878
0
LINE
8
BLACK
6
CONTINUOUS
10
1.10575
20
0.347878
11
1.11858
21
0.3436
0
LINE
8
BLACK
6
CONTINUOUS
10
1.11858
20
0.3436
11
1.12113
21
0.341916
0
LINE
8
BLACK
6
CONTINUOUS
10
1.12113
20
0.341916
11
1.1225
21
0.339182
0
LINE
8
BLACK
6
CONTINUOUS
10
1.1225
20
0.339182
11
1.12232
21
0.33613
0
LINE
8
BLACK
6
CONTINUOUS
10
1.12232
20
0.33613
11
1.12063
21
0.333579
0
LINE
8
BLACK
6
CONTINUOUS
10
1.12063
20
0.333579
11
1.1179
21
0.332212
0
LINE
8
BLACK
6
CONTINUOUS
10
1.1179
20
0.332212
11
1.11485
21
0.332395
0
LINE
8
BLACK
6
CONTINUOUS
10
1.11485
20
0.332395
11
1.05579
21
0.35208
0
LINE
8
BLACK
6
CONTINUOUS
10
1.05579
20
0.35208
11
1.0548
21
0.352734
0
LINE
8
BLACK
6
CONTINUOUS
10
1.0548
20
0.352734
11
1.05374
21
0.353264
0
LINE
8
BLACK
6
CONTINUOUS
10
1.05374
20
0.353264
11
1.05354
21
0.353566
0
LINE
8
BLACK
6
CONTINUOUS
10
1.05354
20
0.353566
11
1.05324
21
0.353765
0
LINE
8
BLACK
6
CONTINUOUS
10
1.05324
20
0.353765
11
1.05271
21
0.354826
0
LINE
8
BLACK
6
CONTINUOUS
10
1.05271
20
0.354826
11
1.05206
21
0.355815
0
LINE
8
BLACK
6
CONTINUOUS
10
1.05206
20
0.355815
11
1.05204
21
0.356176
0
LINE
8
BLACK
6
CONTINUOUS
10
1.05204
20
0.356176
11
1.05187
21
0.356499
0
LINE
8
BLACK
6
CONTINUOUS
10
1.05187
20
0.356499
11
1.05195
21
0.357683
0
LINE
8
BLACK
6
CONTINUOUS
10
1.05195
20
0.357683
11
1.05187
21
0.358867
0
LINE
8
BLACK
6
CONTINUOUS
10
1.05187
20
0.358867
11
1.05204
21
0.35919
0
LINE
8
BLACK
6
CONTINUOUS
10
1.05204
20
0.35919
11
1.05206
21
0.35955
0
LINE
8
BLACK
6
CONTINUOUS
10
1.05206
20
0.35955
11
1.05271
21
0.36054
0
LINE
8
BLACK
6
CONTINUOUS
10
1.05271
20
0.36054
11
1.05324
21
0.361601
0
LINE
8
BLACK
6
CONTINUOUS
10
1.05324
20
0.361601
11
1.05354
21
0.3618
0
LINE
8
BLACK
6
CONTINUOUS
10
1.05354
20
0.3618
11
1.05374
21
0.362101
0
LINE
8
BLACK
6
CONTINUOUS
10
1.05374
20
0.362101
11
1.0548
21
0.362632
0
LINE
8
BLACK
6
CONTINUOUS
10
1.0548
20
0.362632
11
1.05579
21
0.363285
0
LINE
8
BLACK
6
CONTINUOUS
10
1.05579
20
0.363285
11
1.11485
21
0.38297
0
LINE
8
BLACK
6
CONTINUOUS
10
1.11485
20
0.38297
11
1.1179
21
0.383153
0
LINE
8
BLACK
6
CONTINUOUS
10
1.1179
20
0.383153
11
1.12063
21
0.381786
0
LINE
8
BLACK
6
CONTINUOUS
10
1.07634
20
0.357683
11
1.09394
21
0.351815
0
LINE
8
BLACK
6
CONTINUOUS
10
1.09394
20
0.351815
11
1.09394
21
0.36355
0
LINE
8
BLACK
6
CONTINUOUS
10
1.09394
20
0.36355
11
1.07634
21
0.357683
0
LINE
8
BLACK
6
CONTINUOUS
10
1.11967
20
0.433101
11
1.12183
21
0.430939
0
LINE
8
BLACK
6
CONTINUOUS
10
1.12183
20
0.430939
11
1.12262
21
0.427986
0
LINE
8
BLACK
6
CONTINUOUS
10
1.12262
20
0.427986
11
1.12262
21
0.394241
0
LINE
8
BLACK
6
CONTINUOUS
10
1.12262
20
0.394241
11
1.12183
21
0.391288
0
LINE
8
BLACK
6
CONTINUOUS
10
1.12183
20
0.391288
11
1.11967
21
0.389126
0
LINE
8
BLACK
6
CONTINUOUS
10
1.11967
20
0.389126
11
1.11672
21
0.388335
0
LINE
8
BLACK
6
CONTINUOUS
10
1.11672
20
0.388335
11
1.11376
21
0.389126
0
LINE
8
BLACK
6
CONTINUOUS
10
1.11376
20
0.389126
11
1.1116
21
0.391288
0
LINE
8
BLACK
6
CONTINUOUS
10
1.1116
20
0.391288
11
1.11081
21
0.394241
0
LINE
8
BLACK
6
CONTINUOUS
10
1.11081
20
0.394241
11
1.11081
21
0.405208
0
LINE
8
BLACK
6
CONTINUOUS
10
1.11081
20
0.405208
11
1.05766
21
0.405208
0
LINE
8
BLACK
6
CONTINUOUS
10
1.05766
20
0.405208
11
1.05636
21
0.405556
0
LINE
8
BLACK
6
CONTINUOUS
10
1.05636
20
0.405556
11
1.05504
21
0.40582
0
LINE
8
BLACK
6
CONTINUOUS
10
1.05504
20
0.40582
11
1.0549
21
0.405949
0
LINE
8
BLACK
6
CONTINUOUS
10
1.0549
20
0.405949
11
1.05471
21
0.405999
0
LINE
8
BLACK
6
CONTINUOUS
10
1.05471
20
0.405999
11
1.05376
21
0.40695
0
LINE
8
BLACK
6
CONTINUOUS
10
1.05376
20
0.40695
11
1.05275
21
0.407838
0
LINE
8
BLACK
6
CONTINUOUS
10
1.05275
20
0.407838
11
1.05268
21
0.408023
0
LINE
8
BLACK
6
CONTINUOUS
10
1.05268
20
0.408023
11
1.05255
21
0.408161
0
LINE
8
BLACK
6
CONTINUOUS
10
1.05255
20
0.408161
11
1.0522
21
0.40946
0
LINE
8
BLACK
6
CONTINUOUS
10
1.0522
20
0.40946
11
1.05177
21
0.410734
0
LINE
8
BLACK
6
CONTINUOUS
10
1.05177
20
0.410734
11
1.05181
21
0.410925
0
LINE
8
BLACK
6
CONTINUOUS
10
1.05181
20
0.410925
11
1.05175
21
0.411114
0
LINE
8
BLACK
6
CONTINUOUS
10
1.05175
20
0.411114
11
1.0521
21
0.412413
0
LINE
8
BLACK
6
CONTINUOUS
10
1.0521
20
0.412413
11
1.05237
21
0.413731
0
LINE
8
BLACK
6
CONTINUOUS
10
1.05237
20
0.413731
11
1.0525
21
0.413878
0
LINE
8
BLACK
6
CONTINUOUS
10
1.0525
20
0.413878
11
1.05255
21
0.414066
0
LINE
8
BLACK
6
CONTINUOUS
10
1.05255
20
0.414066
11
1.0535
21
0.415017
0
LINE
8
BLACK
6
CONTINUOUS
10
1.0535
20
0.415017
11
1.05438
21
0.416027
0
LINE
8
BLACK
6
CONTINUOUS
10
1.05438
20
0.416027
11
1.06233
21
0.421327
0
LINE
8
BLACK
6
CONTINUOUS
10
1.06233
20
0.421327
11
1.06687
21
0.42586
0
LINE
8
BLACK
6
CONTINUOUS
10
1.06687
20
0.42586
11
1.06925
21
0.430628
0
LINE
8
BLACK
6
CONTINUOUS
10
1.06925
20
0.430628
11
1.07128
21
0.432915
0
LINE
8
BLACK
6
CONTINUOUS
10
1.07128
20
0.432915
11
1.07418
21
0.433881
0
LINE
8
BLACK
6
CONTINUOUS
10
1.07418
20
0.433881
11
1.07717
21
0.433269
0
LINE
8
BLACK
6
CONTINUOUS
10
1.07717
20
0.433269
11
1.07946
21
0.43124
0
LINE
8
BLACK
6
CONTINUOUS
10
1.07946
20
0.43124
11
1.08043
21
0.42834
0
LINE
8
BLACK
6
CONTINUOUS
10
1.08043
20
0.42834
11
1.07982
21
0.425346
0
LINE
8
BLACK
6
CONTINUOUS
10
1.07982
20
0.425346
11
1.077
21
0.419721
0
LINE
8
BLACK
6
CONTINUOUS
10
1.077
20
0.419721
11
1.07637
21
0.41901
0
LINE
8
BLACK
6
CONTINUOUS
10
1.07637
20
0.41901
11
1.0759
21
0.418186
0
LINE
8
BLACK
6
CONTINUOUS
10
1.0759
20
0.418186
11
1.07473
21
0.417019
0
LINE
8
BLACK
6
CONTINUOUS
10
1.07473
20
0.417019
11
1.11081
21
0.417019
0
LINE
8
BLACK
6
CONTINUOUS
10
1.11081
20
0.417019
11
1.11081
21
0.427986
0
LINE
8
BLACK
6
CONTINUOUS
10
1.11081
20
0.427986
11
1.1116
21
0.430939
0
LINE
8
BLACK
6
CONTINUOUS
10
1.1116
20
0.430939
11
1.11376
21
0.433101
0
LINE
8
BLACK
6
CONTINUOUS
10
1.11376
20
0.433101
11
1.11672
21
0.433892
0
LINE
8
BLACK
6
CONTINUOUS
10
1.11672
20
0.433892
11
1.11967
21
0.433101
0
LINE
8
BLACK
6
CONTINUOUS
10
1.02801
20
0.449168
11
1.02933
21
0.448905
0
LINE
8
BLACK
6
CONTINUOUS
10
1.02933
20
0.448905
11
1.02948
21
0.448776
0
LINE
8
BLACK
6
CONTINUOUS
10
1.02948
20
0.448776
11
1.02967
21
0.448725
0
LINE
8
BLACK
6
CONTINUOUS
10
1.02967
20
0.448725
11
1.03062
21
0.447774
0
LINE
8
BLACK
6
CONTINUOUS
10
1.03062
20
0.447774
11
1.03163
21
0.446887
0
LINE
8
BLACK
6
CONTINUOUS
10
1.03163
20
0.446887
11
1.03169
21
0.446702
0
LINE
8
BLACK
6
CONTINUOUS
10
1.03169
20
0.446702
11
1.03183
21
0.446564
0
LINE
8
BLACK
6
CONTINUOUS
10
1.03183
20
0.446564
11
1.03218
21
0.445265
0
LINE
8
BLACK
6
CONTINUOUS
10
1.03218
20
0.445265
11
1.03261
21
0.443991
0
LINE
8
BLACK
6
CONTINUOUS
10
1.03261
20
0.443991
11
1.03257
21
0.443799
0
LINE
8
BLACK
6
CONTINUOUS
10
1.03257
20
0.443799
11
1.03262
21
0.443611
0
LINE
8
BLACK
6
CONTINUOUS
10
1.03262
20
0.443611
11
1.03262
21
0.404241
0
LINE
8
BLACK
6
CONTINUOUS
10
1.03262
20
0.404241
11
1.03183
21
0.401288
0
LINE
8
BLACK
6
CONTINUOUS
10
1.03183
20
0.401288
11
1.02967
21
0.399126
0
LINE
8
BLACK
6
CONTINUOUS
10
1.02967
20
0.399126
11
1.02672
21
0.398335
0
LINE
8
BLACK
6
CONTINUOUS
10
1.02672
20
0.398335
11
1.02376
21
0.399126
0
LINE
8
BLACK
6
CONTINUOUS
10
1.02376
20
0.399126
11
1.0216
21
0.401288
0
LINE
8
BLACK
6
CONTINUOUS
10
1.0216
20
0.401288
11
1.02081
21
0.404241
0
LINE
8
BLACK
6
CONTINUOUS
10
1.02081
20
0.404241
11
1.02081
21
0.432576
0
LINE
8
BLACK
6
CONTINUOUS
10
1.02081
20
0.432576
11
0.970936
21
0.399327
0
LINE
8
BLACK
6
CONTINUOUS
10
0.970936
20
0.399327
11
0.970751
21
0.399264
0
LINE
8
BLACK
6
CONTINUOUS
10
0.970751
20
0.399264
11
0.970613
21
0.399126
0
LINE
8
BLACK
6
CONTINUOUS
10
0.970613
20
0.399126
11
0.969314
21
0.398778
0
LINE
8
BLACK
6
CONTINUOUS
10
0.969314
20
0.398778
11
0.96804
21
0.398347
0
LINE
8
BLACK
6
CONTINUOUS
10
0.96804
20
0.398347
11
0.967849
21
0.398386
0
LINE
8
BLACK
6
CONTINUOUS
10
0.967849
20
0.398386
11
0.96766
21
0.398335
0
LINE
8
BLACK
6
CONTINUOUS
10
0.96766
20
0.398335
11
0.966361
21
0.398683
0
LINE
8
BLACK
6
CONTINUOUS
10
0.966361
20
0.398683
11
0.965043
21
0.398947
0
LINE
8
BLACK
6
CONTINUOUS
10
0.965043
20
0.398947
11
0.964896
21
0.399076
0
LINE
8
BLACK
6
CONTINUOUS
10
0.964896
20
0.399076
11
0.964708
21
0.399126
0
LINE
8
BLACK
6
CONTINUOUS
10
0.964708
20
0.399126
11
0.963757
21
0.400077
0
LINE
8
BLACK
6
CONTINUOUS
10
0.963757
20
0.400077
11
0.962747
21
0.400965
0
LINE
8
BLACK
6
CONTINUOUS
10
0.962747
20
0.400965
11
0.962684
21
0.40115
0
LINE
8
BLACK
6
CONTINUOUS
10
0.962684
20
0.40115
11
0.962546
21
0.401288
0
LINE
8
BLACK
6
CONTINUOUS
10
0.962546
20
0.401288
11
0.962198
21
0.402587
0
LINE
8
BLACK
6
CONTINUOUS
10
0.962198
20
0.402587
11
0.961767
21
0.403861
0
LINE
8
BLACK
6
CONTINUOUS
10
0.961767
20
0.403861
11
0.961805
21
0.404052
0
LINE
8
BLACK
6
CONTINUOUS
10
0.961805
20
0.404052
11
0.961755
21
0.404241
0
LINE
8
BLACK
6
CONTINUOUS
10
0.961755
20
0.404241
11
0.961755
21
0.443611
0
LINE
8
BLACK
6
CONTINUOUS
10
0.961755
20
0.443611
11
0.962546
21
0.446564
0
LINE
8
BLACK
6
CONTINUOUS
10
0.962546
20
0.446564
11
0.964708
21
0.448725
0
LINE
8
BLACK
6
CONTINUOUS
10
0.964708
20
0.448725
11
0.96766
21
0.449516
0
LINE
8
BLACK
6
CONTINUOUS
10
0.96766
20
0.449516
11
0.970613
21
0.448725
0
LINE
8
BLACK
6
CONTINUOUS
10
0.970613
20
0.448725
11
0.972775
21
0.446564
0
LINE
8
BLACK
6
CONTINUOUS
10
0.972775
20
0.446564
11
0.973566
21
0.443611
0
LINE
8
BLACK
6
CONTINUOUS
10
0.973566
20
0.443611
11
0.973566
21
0.415275
0
LINE
8
BLACK
6
CONTINUOUS
10
0.973566
20
0.415275
11
1.02344
21
0.448524
0
LINE
8
BLACK
6
CONTINUOUS
10
1.02344
20
0.448524
11
1.02362
21
0.448587
0
LINE
8
BLACK
6
CONTINUOUS
10
1.02362
20
0.448587
11
1.02376
21
0.448725
0
LINE
8
BLACK
6
CONTINUOUS
10
1.02376
20
0.448725
11
1.02506
21
0.449073
0
LINE
8
BLACK
6
CONTINUOUS
10
1.02506
20
0.449073
11
1.02634
21
0.449504
0
LINE
8
BLACK
6
CONTINUOUS
10
1.02634
20
0.449504
11
1.02653
21
0.449466
0
LINE
8
BLACK
6
CONTINUOUS
10
1.02653
20
0.449466
11
1.02672
21
0.449516
0
LINE
8
BLACK
6
CONTINUOUS
10
1.02672
20
0.449516
11
1.02801
21
0.449168
0
LINE
8
BLACK
6
CONTINUOUS
10
0.175
20
0.7325
11
0.175
21
0.6775
0
LINE
8
BLACK
6
CONTINUOUS
10
0.175
20
0.6775
11
0.14
21
0.6775
0
LINE
8
BLACK
6
CONTINUOUS
10
0.14
20
0.6775
11
0.14
21
0.695157
0
LINE
8
BLACK
6
CONTINUOUS
10
0.14
20
0.695157
11
0.124392
21
0.695157
0
LINE
8
BLACK
6
CONTINUOUS
10
0.124392
20
0.695157
11
0.0948425
21
0.665608
0
LINE
8
BLACK
6
CONTINUOUS
10
0.0948425
20
0.665608
11
0.0948425
21
0.529392
0
LINE
8
BLACK
6
CONTINUOUS
10
0.0948425
20
0.529392
11
0.104392
21
0.519843
0
LINE
8
BLACK
6
CONTINUOUS
10
0.104392
20
0.519843
11
0.12
21
0.519843
0
LINE
8
BLACK
6
CONTINUOUS
10
0.12
20
0.519843
11
0.12
21
0.54
0
LINE
8
BLACK
6
CONTINUOUS
10
0.12
20
0.54
11
0.18
21
0.54
0
LINE
8
BLACK
6
CONTINUOUS
10
0.18
20
0.54
11
0.18
21
0.519843
0
LINE
8
BLACK
6
CONTINUOUS
10
0.18
20
0.519843
11
0.22
21
0.519843
0
LINE
8
BLACK
6
CONTINUOUS
10
0.22
20
0.519843
11
0.22
21
0.54
0
LINE
8
BLACK
6
CONTINUOUS
10
0.22
20
0.54
11
0.28
21
0.54
0
LINE
8
BLACK
6
CONTINUOUS
10
0.28
20
0.54
11
0.28
21
0.519843
0
LINE
8
BLACK
6
CONTINUOUS
10
0.28
20
0.519843
11
0.2975
21
0.519843
0
LINE
8
BLACK
6
CONTINUOUS
10
0.2975
20
0.519843
11
0.301267
21
0.519093
0
LINE
8
BLACK
6
CONTINUOUS
10
0.301267
20
0.519093
11
0.30446
21
0.51696
0
LINE
8
BLACK
6
CONTINUOUS
10
0.30446
20
0.51696
11
0.366419
21
0.455
0
LINE
8
BLACK
6
CONTINUOUS
10
0.366419
20
0.455
11
0.3975
21
0.455
0
LINE
8
BLACK
6
CONTINUOUS
10
0.3975
20
0.455
11
0.3975
21
0.42
0
LINE
8
BLACK
6
CONTINUOUS
10
0.3975
20
0.42
11
0.3425
21
0.42
0
LINE
8
BLACK
6
CONTINUOUS
10
0.3425
20
0.42
11
0.3425
21
0.451081
0
LINE
8
BLACK
6
CONTINUOUS
10
0.3425
20
0.451081
11
0.293423
21
0.500157
0
LINE
8
BLACK
6
CONTINUOUS
10
0.293423
20
0.500157
11
0.28
21
0.500157
0
LINE
8
BLACK
6
CONTINUOUS
10
0.28
20
0.500157
11
0.28
21
0.48
0
LINE
8
BLACK
6
CONTINUOUS
10
0.28
20
0.48
11
0.22
21
0.48
0
LINE
8
BLACK
6
CONTINUOUS
10
0.22
20
0.48
11
0.22
21
0.500157
0
LINE
8
BLACK
6
CONTINUOUS
10
0.22
20
0.500157
11
0.18
21
0.500157
0
LINE
8
BLACK
6
CONTINUOUS
10
0.18
20
0.500157
11
0.18
21
0.48
0
LINE
8
BLACK
6
CONTINUOUS
10
0.18
20
0.48
11
0.12
21
0.48
0
LINE
8
BLACK
6
CONTINUOUS
10
0.12
20
0.48
11
0.12
21
0.500157
0
LINE
8
BLACK
6
CONTINUOUS
10
0.12
20
0.500157
11
0.100315
21
0.500157
0
LINE
8
BLACK
6
CONTINUOUS
10
0.100315
20
0.500157
11
0.0965484
21
0.500907
0
LINE
8
BLACK
6
CONTINUOUS
10
0.0965484
20
0.500907
11
0.0933552
21
0.50304
0
LINE
8
BLACK
6
CONTINUOUS
10
0.0933552
20
0.50304
11
0.0780403
21
0.518355
0
LINE
8
BLACK
6
CONTINUOUS
10
0.0780403
20
0.518355
11
0.0759067
21
0.521548
0
LINE
8
BLACK
6
CONTINUOUS
10
0.0759067
20
0.521548
11
0.0751575
21
0.525315
0
LINE
8
BLACK
6
CONTINUOUS
10
0.0751575
20
0.525315
11
0.0751575
21
0.669685
0
LINE
8
BLACK
6
CONTINUOUS
10
0.0751575
20
0.669685
11
0.0759067
21
0.673452
0
LINE
8
BLACK
6
CONTINUOUS
10
0.0759067
20
0.673452
11
0.0780403
21
0.676645
0
LINE
8
BLACK
6
CONTINUOUS
10
0.0780403
20
0.676645
11
0.113355
21
0.71196
0
LINE
8
BLACK
6
CONTINUOUS
10
0.113355
20
0.71196
11
0.113355
21
0.71196
0
LINE
8
BLACK
6
CONTINUOUS
10
0.113355
20
0.71196
11
0.116548
21
0.714093
0
LINE
8
BLACK
6
CONTINUOUS
10
0.116548
20
0.714093
11
0.116837
21
0.714151
0
LINE
8
BLACK
6
CONTINUOUS
10
0.116837
20
0.714151
11
0.120315
21
0.714843
0
LINE
8
BLACK
6
CONTINUOUS
10
0.120315
20
0.714843
11
0.120315
21
0.714843
0
LINE
8
BLACK
6
CONTINUOUS
10
0.120315
20
0.714843
11
0.14
21
0.714843
0
LINE
8
BLACK
6
CONTINUOUS
10
0.14
20
0.714843
11
0.14
21
0.7325
0
LINE
8
BLACK
6
CONTINUOUS
10
0.14
20
0.7325
11
0.147657
21
0.7325
0
LINE
8
BLACK
6
CONTINUOUS
10
0.147657
20
0.7325
11
0.147657
21
0.768423
0
LINE
8
BLACK
6
CONTINUOUS
10
0.147657
20
0.768423
11
0.141081
21
0.775
0
LINE
8
BLACK
6
CONTINUOUS
10
0.141081
20
0.775
11
0.0925
21
0.775
0
LINE
8
BLACK
6
CONTINUOUS
10
0.0925
20
0.775
11
0.0925
21
0.81
0
LINE
8
BLACK
6
CONTINUOUS
10
0.0925
20
0.81
11
0.1475
21
0.81
0
LINE
8
BLACK
6
CONTINUOUS
10
0.1475
20
0.81
11
0.1475
21
0.802343
0
LINE
8
BLACK
6
CONTINUOUS
10
0.1475
20
0.802343
11
0.173214
21
0.802343
0
LINE
8
BLACK
6
CONTINUOUS
10
0.173214
20
0.802343
11
0.173214
21
0.802343
0
LINE
8
BLACK
6
CONTINUOUS
10
0.173214
20
0.802343
11
0.173214
21
0.802343
0
LINE
8
BLACK
6
CONTINUOUS
10
0.173214
20
0.802343
11
0.1921
21
0.802343
0
LINE
8
BLACK
6
CONTINUOUS
10
0.1921
20
0.802343
11
0.1921
21
0.84545
0
LINE
8
BLACK
6
CONTINUOUS
10
0.1921
20
0.84545
11
0.2905
21
0.84545
0
LINE
8
BLACK
6
CONTINUOUS
10
0.2905
20
0.84545
11
0.2905
21
0.77455
0
LINE
8
BLACK
6
CONTINUOUS
10
0.2905
20
0.77455
11
0.1921
21
0.77455
0
LINE
8
BLACK
6
CONTINUOUS
10
0.1921
20
0.77455
11
0.1921
21
0.782657
0
LINE
8
BLACK
6
CONTINUOUS
10
0.1921
20
0.782657
11
0.177291
21
0.782657
0
LINE
8
BLACK
6
CONTINUOUS
10
0.177291
20
0.782657
11
0.167343
21
0.772709
0
LINE
8
BLACK
6
CONTINUOUS
10
0.167343
20
0.772709
11
0.167343
21
0.7325
0
LINE
8
BLACK
6
CONTINUOUS
10
0.167343
20
0.7325
11
0.175
21
0.7325
0
LINE
8
BLACK
6
CONTINUOUS
10
1.09492
20
0.489946
11
1.09565
21
0.489959
0
LINE
8
BLACK
6
CONTINUOUS
10
1.09565
20
0.489959
11
1.1069
21
0.487146
0
LINE
8
BLACK
6
CONTINUOUS
10
1.1069
20
0.487146
11
1.10747
21
0.48683
0
LINE
8
BLACK
6
CONTINUOUS
10
1.10747
20
0.48683
11
1.10811
21
0.486699
0
LINE
8
BLACK
6
CONTINUOUS
10
1.10811
20
0.486699
11
1.11373
21
0.483887
0
LINE
8
BLACK
6
CONTINUOUS
10
1.11373
20
0.483887
11
1.11444
21
0.483256
0
LINE
8
BLACK
6
CONTINUOUS
10
1.11444
20
0.483256
11
1.11527
21
0.482781
0
LINE
8
BLACK
6
CONTINUOUS
10
1.11527
20
0.482781
11
1.11808
21
0.479969
0
LINE
8
BLACK
6
CONTINUOUS
10
1.11808
20
0.479969
11
1.11855
21
0.479145
0
LINE
8
BLACK
6
CONTINUOUS
10
1.11855
20
0.479145
11
1.11919
21
0.478434
0
LINE
8
BLACK
6
CONTINUOUS
10
1.11919
20
0.478434
11
1.122
21
0.47281
0
LINE
8
BLACK
6
CONTINUOUS
10
1.122
20
0.47281
11
1.12227
21
0.47148
0
LINE
8
BLACK
6
CONTINUOUS
10
1.12227
20
0.47148
11
1.12262
21
0.470169
0
LINE
8
BLACK
6
CONTINUOUS
10
1.12262
20
0.470169
11
1.12262
21
0.464544
0
LINE
8
BLACK
6
CONTINUOUS
10
1.12262
20
0.464544
11
1.12227
21
0.463233
0
LINE
8
BLACK
6
CONTINUOUS
10
1.12227
20
0.463233
11
1.122
21
0.461903
0
LINE
8
BLACK
6
CONTINUOUS
10
1.122
20
0.461903
11
1.11919
21
0.456279
0
LINE
8
BLACK
6
CONTINUOUS
10
1.11919
20
0.456279
11
1.11855
21
0.455568
0
LINE
8
BLACK
6
CONTINUOUS
10
1.11855
20
0.455568
11
1.11808
21
0.454744
0
LINE
8
BLACK
6
CONTINUOUS
10
1.11808
20
0.454744
11
1.11527
21
0.451932
0
LINE
8
BLACK
6
CONTINUOUS
10
1.11527
20
0.451932
11
1.11444
21
0.451457
0
LINE
8
BLACK
6
CONTINUOUS
10
1.11444
20
0.451457
11
1.11373
21
0.450826
0
LINE
8
BLACK
6
CONTINUOUS
10
1.11373
20
0.450826
11
1.10811
21
0.448014
0
LINE
8
BLACK
6
CONTINUOUS
10
1.10811
20
0.448014
11
1.10747
21
0.447883
0
LINE
8
BLACK
6
CONTINUOUS
10
1.10747
20
0.447883
11
1.1069
21
0.447567
0
LINE
8
BLACK
6
CONTINUOUS
10
1.1069
20
0.447567
11
1.09565
21
0.444754
0
LINE
8
BLACK
6
CONTINUOUS
10
1.09565
20
0.444754
11
1.09492
21
0.444767
0
LINE
8
BLACK
6
CONTINUOUS
10
1.09492
20
0.444767
11
1.09422
21
0.444578
0
LINE
8
BLACK
6
CONTINUOUS
10
1.09422
20
0.444578
11
1.08016
21
0.444578
0
LINE
8
BLACK
6
CONTINUOUS
10
1.08016
20
0.444578
11
1.07945
21
0.444767
0
LINE
8
BLACK
6
CONTINUOUS
10
1.07945
20
0.444767
11
1.07873
21
0.444754
0
LINE
8
BLACK
6
CONTINUOUS
10
1.07873
20
0.444754
11
1.06748
21
0.447567
0
LINE
8
BLACK
6
CONTINUOUS
10
1.06748
20
0.447567
11
1.06691
21
0.447883
0
LINE
8
BLACK
6
CONTINUOUS
10
1.06691
20
0.447883
11
1.06627
21
0.448014
0
LINE
8
BLACK
6
CONTINUOUS
10
1.06627
20
0.448014
11
1.06064
21
0.450826
0
LINE
8
BLACK
6
CONTINUOUS
10
1.06064
20
0.450826
11
1.05993
21
0.451457
0
LINE
8
BLACK
6
CONTINUOUS
10
1.05993
20
0.451457
11
1.05911
21
0.451932
0
LINE
8
BLACK
6
CONTINUOUS
10
1.05911
20
0.451932
11
1.0563
21
0.454744
0
LINE
8
BLACK
6
CONTINUOUS
10
1.0563
20
0.454744
11
1.05582
21
0.455568
0
LINE
8
BLACK
6
CONTINUOUS
10
1.05582
20
0.455568
11
1.05519
21
0.456279
0
LINE
8
BLACK
6
CONTINUOUS
10
1.05519
20
0.456279
11
1.05238
21
0.461903
0
LINE
8
BLACK
6
CONTINUOUS
10
1.05238
20
0.461903
11
1.05211
21
0.463233
0
LINE
8
BLACK
6
CONTINUOUS
10
1.05211
20
0.463233
11
1.05175
21
0.464544
0
LINE
8
BLACK
6
CONTINUOUS
10
1.05175
20
0.464544
11
1.05175
21
0.470169
0
LINE
8
BLACK
6
CONTINUOUS
10
1.05175
20
0.470169
11
1.05211
21
0.47148
0
LINE
8
BLACK
6
CONTINUOUS
10
1.05211
20
0.47148
11
1.05238
21
0.47281
0
LINE
8
BLACK
6
CONTINUOUS
10
1.05238
20
0.47281
11
1.05519
21
0.478434
0
LINE
8
BLACK
6
CONTINUOUS
10
1.05519
20
0.478434
11
1.05582
21
0.479145
0
LINE
8
BLACK
6
CONTINUOUS
10
1.05582
20
0.479145
11
1.0563
21
0.479969
0
LINE
8
BLACK
6
CONTINUOUS
10
1.0563
20
0.479969
11
1.05911
21
0.482781
0
LINE
8
BLACK
6
CONTINUOUS
10
1.05911
20
0.482781
11
1.05993
21
0.483256
0
LINE
8
BLACK
6
CONTINUOUS
10
1.05993
20
0.483256
11
1.06064
21
0.483887
0
LINE
8
BLACK
6
CONTINUOUS
10
1.06064
20
0.483887
11
1.06627
21
0.486699
0
LINE
8
BLACK
6
CONTINUOUS
10
1.06627
20
0.486699
11
1.06691
21
0.48683
0
LINE
8
BLACK
6
CONTINUOUS
10
1.06691
20
0.48683
11
1.06748
21
0.487146
0
LINE
8
BLACK
6
CONTINUOUS
10
1.06748
20
0.487146
11
1.07873
21
0.489959
0
LINE
8
BLACK
6
CONTINUOUS
10
1.07873
20
0.489959
11
1.07945
21
0.489946
0
LINE
8
BLACK
6
CONTINUOUS
10
1.07945
20
0.489946
11
1.08016
21
0.490135
0
LINE
8
BLACK
6
CONTINUOUS
10
1.08016
20
0.490135
11
1.09422
21
0.490135
0
LINE
8
BLACK
6
CONTINUOUS
10
1.09422
20
0.490135
11
1.09492
21
0.489946
0
LINE
8
BLACK
6
CONTINUOUS
10
1.08088
20
0.478324
11
1.07097
21
0.475845
0
LINE
8
BLACK
6
CONTINUOUS
10
1.07097
20
0.475845
11
1.06678
21
0.473752
0
LINE
8
BLACK
6
CONTINUOUS
10
1.06678
20
0.473752
11
1.06533
21
0.472295
0
LINE
8
BLACK
6
CONTINUOUS
10
1.06533
20
0.472295
11
1.06357
21
0.468775
0
LINE
8
BLACK
6
CONTINUOUS
10
1.06357
20
0.468775
11
1.06357
21
0.465939
0
LINE
8
BLACK
6
CONTINUOUS
10
1.06357
20
0.465939
11
1.06533
21
0.462418
0
LINE
8
BLACK
6
CONTINUOUS
10
1.06533
20
0.462418
11
1.06678
21
0.460961
0
LINE
8
BLACK
6
CONTINUOUS
10
1.06678
20
0.460961
11
1.07097
21
0.458868
0
LINE
8
BLACK
6
CONTINUOUS
10
1.07097
20
0.458868
11
1.08088
21
0.456389
0
LINE
8
BLACK
6
CONTINUOUS
10
1.08088
20
0.456389
11
1.09349
21
0.456389
0
LINE
8
BLACK
6
CONTINUOUS
10
1.09349
20
0.456389
11
1.10341
21
0.458868
0
LINE
8
BLACK
6
CONTINUOUS
10
1.10341
20
0.458868
11
1.10759
21
0.460961
0
LINE
8
BLACK
6
CONTINUOUS
10
1.10759
20
0.460961
11
1.10905
21
0.462418
0
LINE
8
BLACK
6
CONTINUOUS
10
1.10905
20
0.462418
11
1.11081
21
0.465939
0
LINE
8
BLACK
6
CONTINUOUS
10
1.11081
20
0.465939
11
1.11081
21
0.468775
0
LINE
8
BLACK
6
CONTINUOUS
10
1.11081
20
0.468775
11
1.10905
21
0.472295
0
LINE
8
BLACK
6
CONTINUOUS
10
1.10905
20
0.472295
11
1.10759
21
0.473752
0
LINE
8
BLACK
6
CONTINUOUS
10
1.10759
20
0.473752
11
1.10341
21
0.475845
0
LINE
8
BLACK
6
CONTINUOUS
10
1.10341
20
0.475845
11
1.09349
21
0.478324
0
LINE
8
BLACK
6
CONTINUOUS
10
1.09349
20
0.478324
11
1.08088
21
0.478324
0
LINE
8
BLACK
6
CONTINUOUS
10
1.00211
20
0.505571
11
1.00284
21
0.505583
0
LINE
8
BLACK
6
CONTINUOUS
10
1.00284
20
0.505583
11
1.01409
21
0.502771
0
LINE
8
BLACK
6
CONTINUOUS
10
1.01409
20
0.502771
11
1.01466
21
0.502454
0
LINE
8
BLACK
6
CONTINUOUS
10
1.01466
20
0.502454
11
1.0153
21
0.502324
0
LINE
8
BLACK
6
CONTINUOUS
10
1.0153
20
0.502324
11
1.02092
21
0.499511
0
LINE
8
BLACK
6
CONTINUOUS
10
1.02092
20
0.499511
11
1.02163
21
0.498881
0
LINE
8
BLACK
6
CONTINUOUS
10
1.02163
20
0.498881
11
1.02245
21
0.498405
0
LINE
8
BLACK
6
CONTINUOUS
10
1.02245
20
0.498405
11
1.02808
21
0.492781
0
LINE
8
BLACK
6
CONTINUOUS
10
1.02808
20
0.492781
11
1.02876
21
0.491605
0
LINE
8
BLACK
6
CONTINUOUS
10
1.02876
20
0.491605
11
1.02951
21
0.490473
0
LINE
8
BLACK
6
CONTINUOUS
10
1.02951
20
0.490473
11
1.03232
21
0.482036
0
LINE
8
BLACK
6
CONTINUOUS
10
1.03232
20
0.482036
11
1.03237
21
0.481087
0
LINE
8
BLACK
6
CONTINUOUS
10
1.03237
20
0.481087
11
1.03262
21
0.480169
0
LINE
8
BLACK
6
CONTINUOUS
10
1.03262
20
0.480169
11
1.03262
21
0.474544
0
LINE
8
BLACK
6
CONTINUOUS
10
1.03262
20
0.474544
11
1.03237
21
0.473626
0
LINE
8
BLACK
6
CONTINUOUS
10
1.03237
20
0.473626
11
1.03232
21
0.472677
0
LINE
8
BLACK
6
CONTINUOUS
10
1.03232
20
0.472677
11
1.02951
21
0.46424
0
LINE
8
BLACK
6
CONTINUOUS
10
1.02951
20
0.46424
11
1.02876
21
0.463108
0
LINE
8
BLACK
6
CONTINUOUS
10
1.02876
20
0.463108
11
1.02808
21
0.461932
0
LINE
8
BLACK
6
CONTINUOUS
10
1.02808
20
0.461932
11
1.02527
21
0.45912
0
LINE
8
BLACK
6
CONTINUOUS
10
1.02527
20
0.45912
11
1.02262
21
0.457592
0
LINE
8
BLACK
6
CONTINUOUS
10
1.02262
20
0.457592
11
1.01956
21
0.457592
0
LINE
8
BLACK
6
CONTINUOUS
10
1.01956
20
0.457592
11
1.01692
21
0.45912
0
LINE
8
BLACK
6
CONTINUOUS
10
1.01692
20
0.45912
11
1.01539
21
0.461767
0
LINE
8
BLACK
6
CONTINUOUS
10
1.01539
20
0.461767
11
1.01539
21
0.464824
0
LINE
8
BLACK
6
CONTINUOUS
10
1.01539
20
0.464824
11
1.01692
21
0.467472
0
LINE
8
BLACK
6
CONTINUOUS
10
1.01692
20
0.467472
11
1.01874
21
0.469298
0
LINE
8
BLACK
6
CONTINUOUS
10
1.01874
20
0.469298
11
1.02081
21
0.475503
0
LINE
8
BLACK
6
CONTINUOUS
10
1.02081
20
0.475503
11
1.02081
21
0.47921
0
LINE
8
BLACK
6
CONTINUOUS
10
1.02081
20
0.47921
11
1.01874
21
0.485415
0
LINE
8
BLACK
6
CONTINUOUS
10
1.01874
20
0.485415
11
1.01478
21
0.489376
0
LINE
8
BLACK
6
CONTINUOUS
10
1.01478
20
0.489376
11
1.01059
21
0.49147
0
LINE
8
BLACK
6
CONTINUOUS
10
1.01059
20
0.49147
11
1.00068
21
0.493948
0
LINE
8
BLACK
6
CONTINUOUS
10
1.00068
20
0.493948
11
0.993697
21
0.493948
0
LINE
8
BLACK
6
CONTINUOUS
10
0.993697
20
0.493948
11
0.983782
21
0.49147
0
LINE
8
BLACK
6
CONTINUOUS
10
0.983782
20
0.49147
11
0.979595
21
0.489376
0
LINE
8
BLACK
6
CONTINUOUS
10
0.979595
20
0.489376
11
0.975634
21
0.485415
0
LINE
8
BLACK
6
CONTINUOUS
10
0.975634
20
0.485415
11
0.973566
21
0.47921
0
LINE
8
BLACK
6
CONTINUOUS
10
0.973566
20
0.47921
11
0.973566
21
0.475503
0
LINE
8
BLACK
6
CONTINUOUS
10
0.973566
20
0.475503
11
0.975634
21
0.469298
0
LINE
8
BLACK
6
CONTINUOUS
10
0.975634
20
0.469298
11
0.97746
21
0.467472
0
LINE
8
BLACK
6
CONTINUOUS
10
0.97746
20
0.467472
11
0.978989
21
0.464824
0
LINE
8
BLACK
6
CONTINUOUS
10
0.978989
20
0.464824
11
0.978989
21
0.461767
0
LINE
8
BLACK
6
CONTINUOUS
10
0.978989
20
0.461767
11
0.97746
21
0.45912
0
LINE
8
BLACK
6
CONTINUOUS
10
0.97746
20
0.45912
11
0.974813
21
0.457592
0
LINE
8
BLACK
6
CONTINUOUS
10
0.974813
20
0.457592
11
0.971756
21
0.457592
0
LINE
8
BLACK
6
CONTINUOUS
10
0.971756
20
0.457592
11
0.969109
21
0.45912
0
LINE
8
BLACK
6
CONTINUOUS
10
0.969109
20
0.45912
11
0.966297
21
0.461932
0
LINE
8
BLACK
6
CONTINUOUS
10
0.966297
20
0.461932
11
0.965618
21
0.463108
0
LINE
8
BLACK
6
CONTINUOUS
10
0.965618
20
0.463108
11
0.96487
21
0.46424
0
LINE
8
BLACK
6
CONTINUOUS
10
0.96487
20
0.46424
11
0.962058
21
0.472677
0
LINE
8
BLACK
6
CONTINUOUS
10
0.962058
20
0.472677
11
0.962001
21
0.473626
0
LINE
8
BLACK
6
CONTINUOUS
10
0.962001
20
0.473626
11
0.961755
21
0.474544
0
LINE
8
BLACK
6
CONTINUOUS
10
0.961755
20
0.474544
11
0.961755
21
0.480169
0
LINE
8
BLACK
6
CONTINUOUS
10
0.961755
20
0.480169
11
0.962001
21
0.481087
0
LINE
8
BLACK
6
CONTINUOUS
10
0.962001
20
0.481087
11
0.962058
21
0.482036
0
LINE
8
BLACK
6
CONTINUOUS
10
0.962058
20
0.482036
11
0.96487
21
0.490473
0
LINE
8
BLACK
6
CONTINUOUS
10
0.96487
20
0.490473
11
0.965618
21
0.491606
0
LINE
8
BLACK
6
CONTINUOUS
10
0.965618
20
0.491606
11
0.966297
21
0.492781
0
LINE
8
BLACK
6
CONTINUOUS
10
0.966297
20
0.492781
11
0.971921
21
0.498405
0
LINE
8
BLACK
6
CONTINUOUS
10
0.971921
20
0.498405
11
0.972744
21
0.498881
0
LINE
8
BLACK
6
CONTINUOUS
10
0.972744
20
0.498881
11
0.973456
21
0.499511
0
LINE
8
BLACK
6
CONTINUOUS
10
0.973456
20
0.499511
11
0.97908
21
0.502324
0
LINE
8
BLACK
6
CONTINUOUS
10
0.97908
20
0.502324
11
0.979719
21
0.502454
0
LINE
8
BLACK
6
CONTINUOUS
10
0.979719
20
0.502454
11
0.980289
21
0.502771
0
LINE
8
BLACK
6
CONTINUOUS
10
0.980289
20
0.502771
11
0.991537
21
0.505583
0
LINE
8
BLACK
6
CONTINUOUS
10
0.991537
20
0.505583
11
0.992266
21
0.505571
0
LINE
8
BLACK
6
CONTINUOUS
10
0.992266
20
0.505571
11
0.99297
21
0.505759
0
LINE
8
BLACK
6
CONTINUOUS
10
0.99297
20
0.505759
11
1.00141
21
0.505759
0
LINE
8
BLACK
6
CONTINUOUS
10
1.00141
20
0.505759
11
1.00211
21
0.505571
0
LINE
8
BLACK
6
CONTINUOUS
10
1.09211
20
0.549001
11
1.09284
21
0.549014
0
LINE
8
BLACK
6
CONTINUOUS
10
1.09284
20
0.549014
11
1.10409
21
0.546202
0
LINE
8
BLACK
6
CONTINUOUS
10
1.10409
20
0.546202
11
1.10466
21
0.545885
0
LINE
8
BLACK
6
CONTINUOUS
10
1.10466
20
0.545885
11
1.1053
21
0.545754
0
LINE
8
BLACK
6
CONTINUOUS
10
1.1053
20
0.545754
11
1.11092
21
0.542942
0
LINE
8
BLACK
6
CONTINUOUS
10
1.11092
20
0.542942
11
1.11163
21
0.542312
0
LINE
8
BLACK
6
CONTINUOUS
10
1.11163
20
0.542312
11
1.11245
21
0.541836
0
LINE
8
BLACK
6
CONTINUOUS
10
1.11245
20
0.541836
11
1.11808
21
0.536212
0
LINE
8
BLACK
6
CONTINUOUS
10
1.11808
20
0.536212
11
1.11876
21
0.535036
0
LINE
8
BLACK
6
CONTINUOUS
10
1.11876
20
0.535036
11
1.11951
21
0.533903
0
LINE
8
BLACK
6
CONTINUOUS
10
1.11951
20
0.533903
11
1.12232
21
0.525467
0
LINE
8
BLACK
6
CONTINUOUS
10
1.12232
20
0.525467
11
1.12237
21
0.524518
0
LINE
8
BLACK
6
CONTINUOUS
10
1.12237
20
0.524518
11
1.12262
21
0.5236
0
LINE
8
BLACK
6
CONTINUOUS
10
1.12262
20
0.5236
11
1.12262
21
0.517975
0
LINE
8
BLACK
6
CONTINUOUS
10
1.12262
20
0.517975
11
1.12237
21
0.517057
0
LINE
8
BLACK
6
CONTINUOUS
10
1.12237
20
0.517057
11
1.12232
21
0.516108
0
LINE
8
BLACK
6
CONTINUOUS
10
1.12232
20
0.516108
11
1.11951
21
0.507671
0
LINE
8
BLACK
6
CONTINUOUS
10
1.11951
20
0.507671
11
1.11876
21
0.506539
0
LINE
8
BLACK
6
CONTINUOUS
10
1.11876
20
0.506539
11
1.11808
21
0.505363
0
LINE
8
BLACK
6
CONTINUOUS
10
1.11808
20
0.505363
11
1.11527
21
0.502551
0
LINE
8
BLACK
6
CONTINUOUS
10
1.11527
20
0.502551
11
1.11262
21
0.501022
0
LINE
8
BLACK
6
CONTINUOUS
10
1.11262
20
0.501022
11
1.10956
21
0.501022
0
LINE
8
BLACK
6
CONTINUOUS
10
1.10956
20
0.501022
11
1.10692
21
0.502551
0
LINE
8
BLACK
6
CONTINUOUS
10
1.10692
20
0.502551
11
1.10539
21
0.505198
0
LINE
8
BLACK
6
CONTINUOUS
10
1.10539
20
0.505198
11
1.10539
21
0.508255
0
LINE
8
BLACK
6
CONTINUOUS
10
1.10539
20
0.508255
11
1.10692
21
0.510902
0
LINE
8
BLACK
6
CONTINUOUS
10
1.10692
20
0.510902
11
1.10874
21
0.512729
0
LINE
8
BLACK
6
CONTINUOUS
10
1.10874
20
0.512729
11
1.11081
21
0.518934
0
LINE
8
BLACK
6
CONTINUOUS
10
1.11081
20
0.518934
11
1.11081
21
0.522641
0
LINE
8
BLACK
6
CONTINUOUS
10
1.11081
20
0.522641
11
1.10874
21
0.528846
0
LINE
8
BLACK
6
CONTINUOUS
10
1.10874
20
0.528846
11
1.10478
21
0.532807
0
LINE
8
BLACK
6
CONTINUOUS
10
1.10478
20
0.532807
11
1.10059
21
0.534901
0
LINE
8
BLACK
6
CONTINUOUS
10
1.10059
20
0.534901
11
1.09068
21
0.537379
0
LINE
8
BLACK
6
CONTINUOUS
10
1.09068
20
0.537379
11
1.0837
21
0.537379
0
LINE
8
BLACK
6
CONTINUOUS
10
1.0837
20
0.537379
11
1.07378
21
0.534901
0
LINE
8
BLACK
6
CONTINUOUS
10
1.07378
20
0.534901
11
1.06959
21
0.532807
0
LINE
8
BLACK
6
CONTINUOUS
10
1.06959
20
0.532807
11
1.06563
21
0.528846
0
LINE
8
BLACK
6
CONTINUOUS
10
1.06563
20
0.528846
11
1.06357
21
0.522641
0
LINE
8
BLACK
6
CONTINUOUS
10
1.06357
20
0.522641
11
1.06357
21
0.518934
0
LINE
8
BLACK
6
CONTINUOUS
10
1.06357
20
0.518934
11
1.06563
21
0.512729
0
LINE
8
BLACK
6
CONTINUOUS
10
1.06563
20
0.512729
11
1.06746
21
0.510902
0
LINE
8
BLACK
6
CONTINUOUS
10
1.06746
20
0.510902
11
1.06899
21
0.508255
0
LINE
8
BLACK
6
CONTINUOUS
10
1.06899
20
0.508255
11
1.06899
21
0.505198
0
LINE
8
BLACK
6
CONTINUOUS
10
1.06899
20
0.505198
11
1.06746
21
0.502551
0
LINE
8
BLACK
6
CONTINUOUS
10
1.06746
20
0.502551
11
1.06481
21
0.501022
0
LINE
8
BLACK
6
CONTINUOUS
10
1.06481
20
0.501022
11
1.06176
21
0.501022
0
LINE
8
BLACK
6
CONTINUOUS
10
1.06176
20
0.501022
11
1.05911
21
0.502551
0
LINE
8
BLACK
6
CONTINUOUS
10
1.05911
20
0.502551
11
1.0563
21
0.505363
0
LINE
8
BLACK
6
CONTINUOUS
10
1.0563
20
0.505363
11
1.05562
21
0.506538
0
LINE
8
BLACK
6
CONTINUOUS
10
1.05562
20
0.506538
11
1.05487
21
0.507671
0
LINE
8
BLACK
6
CONTINUOUS
10
1.05487
20
0.507671
11
1.05206
21
0.516108
0
LINE
8
BLACK
6
CONTINUOUS
10
1.05206
20
0.516108
11
1.052
21
0.517057
0
LINE
8
BLACK
6
CONTINUOUS
10
1.052
20
0.517057
11
1.05175
21
0.517975
0
LINE
8
BLACK
6
CONTINUOUS
10
1.05175
20
0.517975
11
1.05175
21
0.5236
0
LINE
8
BLACK
6
CONTINUOUS
10
1.05175
20
0.5236
11
1.052
21
0.524518
0
LINE
8
BLACK
6
CONTINUOUS
10
1.052
20
0.524518
11
1.05206
21
0.525467
0
LINE
8
BLACK
6
CONTINUOUS
10
1.05206
20
0.525467
11
1.05487
21
0.533903
0
LINE
8
BLACK
6
CONTINUOUS
10
1.05487
20
0.533903
11
1.05562
21
0.535036
0
LINE
8
BLACK
6
CONTINUOUS
10
1.05562
20
0.535036
11
1.0563
21
0.536212
0
LINE
8
BLACK
6
CONTINUOUS
10
1.0563
20
0.536212
11
1.06192
21
0.541836
0
LINE
8
BLACK
6
CONTINUOUS
10
1.06192
20
0.541836
11
1.06274
21
0.542312
0
LINE
8
BLACK
6
CONTINUOUS
10
1.06274
20
0.542312
11
1.06346
21
0.542942
0
LINE
8
BLACK
6
CONTINUOUS
10
1.06346
20
0.542942
11
1.06908
21
0.545754
0
LINE
8
BLACK
6
CONTINUOUS
10
1.06908
20
0.545754
11
1.06972
21
0.545885
0
LINE
8
BLACK
6
CONTINUOUS
10
1.06972
20
0.545885
11
1.07029
21
0.546202
0
LINE
8
BLACK
6
CONTINUOUS
10
1.07029
20
0.546202
11
1.08154
21
0.549014
0
LINE
8
BLACK
6
CONTINUOUS
10
1.08154
20
0.549014
11
1.08227
21
0.549001
0
LINE
8
BLACK
6
CONTINUOUS
10
1.08227
20
0.549001
11
1.08297
21
0.54919
0
LINE
8
BLACK
6
CONTINUOUS
10
1.08297
20
0.54919
11
1.09141
21
0.54919
0
LINE
8
BLACK
6
CONTINUOUS
10
1.09141
20
0.54919
11
1.09211
21
0.549001
0
LINE
8
BLACK
6
CONTINUOUS
10
1.03262
20
0.525163
11
1.03242
21
0.524412
0
LINE
8
BLACK
6
CONTINUOUS
10
1.03242
20
0.524412
11
1.03242
21
0.523635
0
LINE
8
BLACK
6
CONTINUOUS
10
1.03242
20
0.523635
11
1.03203
21
0.522961
0
LINE
8
BLACK
6
CONTINUOUS
10
1.03203
20
0.522961
11
1.03183
21
0.52221
0
LINE
8
BLACK
6
CONTINUOUS
10
1.03183
20
0.52221
11
1.03128
21
0.521661
0
LINE
8
BLACK
6
CONTINUOUS
10
1.03128
20
0.521661
11
1.03089
21
0.520987
0
LINE
8
BLACK
6
CONTINUOUS
10
1.03089
20
0.520987
11
1.03089
21
0.520987
0
LINE
8
BLACK
6
CONTINUOUS
10
1.03089
20
0.520987
11
1.02808
21
0.518175
0
LINE
8
BLACK
6
CONTINUOUS
10
1.02808
20
0.518175
11
1.02745
21
0.517814
0
LINE
8
BLACK
6
CONTINUOUS
10
1.02745
20
0.517814
11
1.02543
21
0.516647
0
LINE
8
BLACK
6
CONTINUOUS
10
1.02543
20
0.516647
11
1.02237
21
0.516647
0
LINE
8
BLACK
6
CONTINUOUS
10
1.02237
20
0.516647
11
1.02085
21
0.517529
0
LINE
8
BLACK
6
CONTINUOUS
10
1.02085
20
0.517529
11
1.01973
21
0.518175
0
LINE
8
BLACK
6
CONTINUOUS
10
1.01973
20
0.518175
11
1.01692
21
0.520987
0
LINE
8
BLACK
6
CONTINUOUS
10
1.01692
20
0.520987
11
1.01653
21
0.521661
0
LINE
8
BLACK
6
CONTINUOUS
10
1.01653
20
0.521661
11
1.01598
21
0.52221
0
LINE
8
BLACK
6
CONTINUOUS
10
1.01598
20
0.52221
11
1.01578
21
0.522961
0
LINE
8
BLACK
6
CONTINUOUS
10
1.01578
20
0.522961
11
1.01539
21
0.523635
0
LINE
8
BLACK
6
CONTINUOUS
10
1.01539
20
0.523635
11
1.01539
21
0.524412
0
LINE
8
BLACK
6
CONTINUOUS
10
1.01539
20
0.524412
11
1.01519
21
0.525163
0
LINE
8
BLACK
6
CONTINUOUS
10
1.01519
20
0.525163
11
1.01539
21
0.525914
0
LINE
8
BLACK
6
CONTINUOUS
10
1.01539
20
0.525914
11
1.01539
21
0.526692
0
LINE
8
BLACK
6
CONTINUOUS
10
1.01539
20
0.526692
11
1.01578
21
0.527365
0
LINE
8
BLACK
6
CONTINUOUS
10
1.01578
20
0.527365
11
1.01598
21
0.528116
0
LINE
8
BLACK
6
CONTINUOUS
10
1.01598
20
0.528116
11
1.01653
21
0.528666
0
LINE
8
BLACK
6
CONTINUOUS
10
1.01653
20
0.528666
11
1.01692
21
0.529339
0
LINE
8
BLACK
6
CONTINUOUS
10
1.01692
20
0.529339
11
1.01973
21
0.532151
0
LINE
8
BLACK
6
CONTINUOUS
10
1.01973
20
0.532151
11
1.01973
21
0.532151
0
LINE
8
BLACK
6
CONTINUOUS
10
1.01973
20
0.532151
11
1.01973
21
0.532151
0
LINE
8
BLACK
6
CONTINUOUS
10
1.01973
20
0.532151
11
1.02158
21
0.53322
0
LINE
8
BLACK
6
CONTINUOUS
10
1.02158
20
0.53322
11
1.02237
21
0.53368
0
LINE
8
BLACK
6
CONTINUOUS
10
1.02237
20
0.53368
11
1.02543
21
0.53368
0
LINE
8
BLACK
6
CONTINUOUS
10
1.02543
20
0.53368
11
1.02696
21
0.532797
0
LINE
8
BLACK
6
CONTINUOUS
10
1.02696
20
0.532797
11
1.02808
21
0.532151
0
LINE
8
BLACK
6
CONTINUOUS
10
1.02808
20
0.532151
11
1.02808
21
0.532151
0
LINE
8
BLACK
6
CONTINUOUS
10
1.02808
20
0.532151
11
1.02808
21
0.532151
0
LINE
8
BLACK
6
CONTINUOUS
10
1.02808
20
0.532151
11
1.03089
21
0.529339
0
LINE
8
BLACK
6
CONTINUOUS
10
1.03089
20
0.529339
11
1.03128
21
0.528666
0
LINE
8
BLACK
6
CONTINUOUS
10
1.03128
20
0.528666
11
1.03183
21
0.528116
0
LINE
8
BLACK
6
CONTINUOUS
10
1.03183
20
0.528116
11
1.03203
21
0.527365
0
LINE
8
BLACK
6
CONTINUOUS
10
1.03203
20
0.527365
11
1.03242
21
0.526692
0
LINE
8
BLACK
6
CONTINUOUS
10
1.03242
20
0.526692
11
1.03242
21
0.525914
0
LINE
8
BLACK
6
CONTINUOUS
10
1.03242
20
0.525914
11
1.03262
21
0.525163
0
LINE
8
BLACK
6
CONTINUOUS
10
1.02967
20
0.589333
11
1.03183
21
0.587171
0
LINE
8
BLACK
6
CONTINUOUS
10
1.03183
20
0.587171
11
1.03262
21
0.584218
0
LINE
8
BLACK
6
CONTINUOUS
10
1.03262
20
0.584218
11
1.03262
21
0.561721
0
LINE
8
BLACK
6
CONTINUOUS
10
1.03262
20
0.561721
11
1.03227
21
0.56041
0
LINE
8
BLACK
6
CONTINUOUS
10
1.03227
20
0.56041
11
1.032
21
0.55908
0
LINE
8
BLACK
6
CONTINUOUS
10
1.032
20
0.55908
11
1.02919
21
0.553456
0
LINE
8
BLACK
6
CONTINUOUS
10
1.02919
20
0.553456
11
1.02855
21
0.552744
0
LINE
8
BLACK
6
CONTINUOUS
10
1.02855
20
0.552744
11
1.02808
21
0.551921
0
LINE
8
BLACK
6
CONTINUOUS
10
1.02808
20
0.551921
11
1.02527
21
0.549109
0
LINE
8
BLACK
6
CONTINUOUS
10
1.02527
20
0.549109
11
1.02444
21
0.548633
0
LINE
8
BLACK
6
CONTINUOUS
10
1.02444
20
0.548633
11
1.02373
21
0.548003
0
LINE
8
BLACK
6
CONTINUOUS
10
1.02373
20
0.548003
11
1.01811
21
0.54519
0
LINE
8
BLACK
6
CONTINUOUS
10
1.01811
20
0.54519
11
1.01678
21
0.544918
0
LINE
8
BLACK
6
CONTINUOUS
10
1.01678
20
0.544918
11
1.01547
21
0.544567
0
LINE
8
BLACK
6
CONTINUOUS
10
1.01547
20
0.544567
11
1.00703
21
0.544567
0
LINE
8
BLACK
6
CONTINUOUS
10
1.00703
20
0.544567
11
1.00572
21
0.544918
0
LINE
8
BLACK
6
CONTINUOUS
10
1.00572
20
0.544918
11
1.00439
21
0.54519
0
LINE
8
BLACK
6
CONTINUOUS
10
1.00439
20
0.54519
11
0.998765
21
0.548003
0
LINE
8
BLACK
6
CONTINUOUS
10
0.998765
20
0.548003
11
0.998054
21
0.548633
0
LINE
8
BLACK
6
CONTINUOUS
10
0.998054
20
0.548633
11
0.99723
21
0.549109
0
LINE
8
BLACK
6
CONTINUOUS
10
0.99723
20
0.549109
11
0.994418
21
0.551921
0
LINE
8
BLACK
6
CONTINUOUS
10
0.994418
20
0.551921
11
0.994387
21
0.551975
0
LINE
8
BLACK
6
CONTINUOUS
10
0.994387
20
0.551975
11
0.994333
21
0.551921
0
LINE
8
BLACK
6
CONTINUOUS
10
0.994333
20
0.551921
11
0.99351
21
0.551446
0
LINE
8
BLACK
6
CONTINUOUS
10
0.99351
20
0.551446
11
0.992799
21
0.550815
0
LINE
8
BLACK
6
CONTINUOUS
10
0.992799
20
0.550815
11
0.987174
21
0.548003
0
LINE
8
BLACK
6
CONTINUOUS
10
0.987174
20
0.548003
11
0.985844
21
0.54773
0
LINE
8
BLACK
6
CONTINUOUS
10
0.985844
20
0.54773
11
0.984533
21
0.547379
0
LINE
8
BLACK
6
CONTINUOUS
10
0.984533
20
0.547379
11
0.978909
21
0.547379
0
LINE
8
BLACK
6
CONTINUOUS
10
0.978909
20
0.547379
11
0.977598
21
0.54773
0
LINE
8
BLACK
6
CONTINUOUS
10
0.977598
20
0.54773
11
0.976268
21
0.548003
0
LINE
8
BLACK
6
CONTINUOUS
10
0.976268
20
0.548003
11
0.970644
21
0.550815
0
LINE
8
BLACK
6
CONTINUOUS
10
0.970644
20
0.550815
11
0.969932
21
0.551445
0
LINE
8
BLACK
6
CONTINUOUS
10
0.969932
20
0.551445
11
0.969109
21
0.551921
0
LINE
8
BLACK
6
CONTINUOUS
10
0.969109
20
0.551921
11
0.966297
21
0.554733
0
LINE
8
BLACK
6
CONTINUOUS
10
0.966297
20
0.554733
11
0.965821
21
0.555556
0
LINE
8
BLACK
6
CONTINUOUS
10
0.965821
20
0.555556
11
0.96519
21
0.556268
0
LINE
8
BLACK
6
CONTINUOUS
10
0.96519
20
0.556268
11
0.962378
21
0.561892
0
LINE
8
BLACK
6
CONTINUOUS
10
0.962378
20
0.561892
11
0.962106
21
0.563222
0
LINE
8
BLACK
6
CONTINUOUS
10
0.962106
20
0.563222
11
0.961755
21
0.564533
0
LINE
8
BLACK
6
CONTINUOUS
10
0.961755
20
0.564533
11
0.961755
21
0.584218
0
LINE
8
BLACK
6
CONTINUOUS
10
0.961755
20
0.584218
11
0.962546
21
0.587171
0
LINE
8
BLACK
6
CONTINUOUS
10
0.962546
20
0.587171
11
0.964708
21
0.589333
0
LINE
8
BLACK
6
CONTINUOUS
10
0.964708
20
0.589333
11
0.96766
21
0.590124
0
LINE
8
BLACK
6
CONTINUOUS
10
0.96766
20
0.590124
11
1.02672
21
0.590124
0
LINE
8
BLACK
6
CONTINUOUS
10
1.02672
20
0.590124
11
1.02967
21
0.589333
0
LINE
8
BLACK
6
CONTINUOUS
10
1.00169
20
0.578313
11
1.00169
21
0.565492
0
LINE
8
BLACK
6
CONTINUOUS
10
1.00169
20
0.565492
11
1.00376
21
0.559287
0
LINE
8
BLACK
6
CONTINUOUS
10
1.00376
20
0.559287
11
1.0049
21
0.558138
0
LINE
8
BLACK
6
CONTINUOUS
10
1.0049
20
0.558138
11
1.00842
21
0.556378
0
LINE
8
BLACK
6
CONTINUOUS
10
1.00842
20
0.556378
11
1.01407
21
0.556378
0
LINE
8
BLACK
6
CONTINUOUS
10
1.01407
20
0.556378
11
1.01759
21
0.558138
0
LINE
8
BLACK
6
CONTINUOUS
10
1.01759
20
0.558138
11
1.01905
21
0.559595
0
LINE
8
BLACK
6
CONTINUOUS
10
1.01905
20
0.559595
11
1.02081
21
0.563115
0
LINE
8
BLACK
6
CONTINUOUS
10
1.02081
20
0.563115
11
1.02081
21
0.578313
0
LINE
8
BLACK
6
CONTINUOUS
10
1.02081
20
0.578313
11
1.00169
21
0.578313
0
LINE
8
BLACK
6
CONTINUOUS
10
0.973566
20
0.578313
11
0.973566
21
0.565927
0
LINE
8
BLACK
6
CONTINUOUS
10
0.973566
20
0.565927
11
0.975326
21
0.562407
0
LINE
8
BLACK
6
CONTINUOUS
10
0.975326
20
0.562407
11
0.976783
21
0.56095
0
LINE
8
BLACK
6
CONTINUOUS
10
0.976783
20
0.56095
11
0.980303
21
0.55919
0
LINE
8
BLACK
6
CONTINUOUS
10
0.980303
20
0.55919
11
0.983139
21
0.55919
0
LINE
8
BLACK
6
CONTINUOUS
10
0.983139
20
0.55919
11
0.986659
21
0.56095
0
LINE
8
BLACK
6
CONTINUOUS
10
0.986659
20
0.56095
11
0.988116
21
0.562407
0
LINE
8
BLACK
6
CONTINUOUS
10
0.988116
20
0.562407
11
0.989876
21
0.565927
0
LINE
8
BLACK
6
CONTINUOUS
10
0.989876
20
0.565927
11
0.989876
21
0.578313
0
LINE
8
BLACK
6
CONTINUOUS
10
0.989876
20
0.578313
11
0.973566
21
0.578313
0
LINE
8
BLACK
6
CONTINUOUS
10
1.11967
20
0.604642
11
1.12183
21
0.60248
0
LINE
8
BLACK
6
CONTINUOUS
10
1.12183
20
0.60248
11
1.12262
21
0.599528
0
LINE
8
BLACK
6
CONTINUOUS
10
1.12262
20
0.599528
11
1.12262
21
0.585467
0
LINE
8
BLACK
6
CONTINUOUS
10
1.12262
20
0.585467
11
1.12237
21
0.584548
0
LINE
8
BLACK
6
CONTINUOUS
10
1.12237
20
0.584548
11
1.12232
21
0.583599
0
LINE
8
BLACK
6
CONTINUOUS
10
1.12232
20
0.583599
11
1.11951
21
0.575163
0
LINE
8
BLACK
6
CONTINUOUS
10
1.11951
20
0.575163
11
1.11876
21
0.57403
0
LINE
8
BLACK
6
CONTINUOUS
10
1.11876
20
0.57403
11
1.11808
21
0.572855
0
LINE
8
BLACK
6
CONTINUOUS
10
1.11808
20
0.572855
11
1.11245
21
0.56723
0
LINE
8
BLACK
6
CONTINUOUS
10
1.11245
20
0.56723
11
1.11163
21
0.566755
0
LINE
8
BLACK
6
CONTINUOUS
10
1.11163
20
0.566755
11
1.11092
21
0.566124
0
LINE
8
BLACK
6
CONTINUOUS
10
1.11092
20
0.566124
11
1.1053
21
0.563312
0
LINE
8
BLACK
6
CONTINUOUS
10
1.1053
20
0.563312
11
1.10466
21
0.563181
0
LINE
8
BLACK
6
CONTINUOUS
10
1.10466
20
0.563181
11
1.10409
21
0.562865
0
LINE
8
BLACK
6
CONTINUOUS
10
1.10409
20
0.562865
11
1.09284
21
0.560053
0
LINE
8
BLACK
6
CONTINUOUS
10
1.09284
20
0.560053
11
1.09211
21
0.560065
0
LINE
8
BLACK
6
CONTINUOUS
10
1.09211
20
0.560065
11
1.09141
21
0.559876
0
LINE
8
BLACK
6
CONTINUOUS
10
1.09141
20
0.559876
11
1.08297
21
0.559876
0
LINE
8
BLACK
6
CONTINUOUS
10
1.08297
20
0.559876
11
1.08227
21
0.560065
0
LINE
8
BLACK
6
CONTINUOUS
10
1.08227
20
0.560065
11
1.08154
21
0.560053
0
LINE
8
BLACK
6
CONTINUOUS
10
1.08154
20
0.560053
11
1.07029
21
0.562865
0
LINE
8
BLACK
6
CONTINUOUS
10
1.07029
20
0.562865
11
1.06972
21
0.563181
0
LINE
8
BLACK
6
CONTINUOUS
10
1.06972
20
0.563181
11
1.06908
21
0.563312
0
LINE
8
BLACK
6
CONTINUOUS
10
1.06908
20
0.563312
11
1.06346
21
0.566124
0
LINE
8
BLACK
6
CONTINUOUS
10
1.06346
20
0.566124
11
1.06274
21
0.566755
0
LINE
8
BLACK
6
CONTINUOUS
10
1.06274
20
0.566755
11
1.06192
21
0.56723
0
LINE
8
BLACK
6
CONTINUOUS
10
1.06192
20
0.56723
11
1.0563
21
0.572855
0
LINE
8
BLACK
6
CONTINUOUS
10
1.0563
20
0.572855
11
1.05562
21
0.57403
0
LINE
8
BLACK
6
CONTINUOUS
10
1.05562
20
0.57403
11
1.05487
21
0.575163
0
LINE
8
BLACK
6
CONTINUOUS
10
1.05487
20
0.575163
11
1.05206
21
0.583599
0
LINE
8
BLACK
6
CONTINUOUS
10
1.05206
20
0.583599
11
1.052
21
0.584548
0
LINE
8
BLACK
6
CONTINUOUS
10
1.052
20
0.584548
11
1.05175
21
0.585467
0
LINE
8
BLACK
6
CONTINUOUS
10
1.05175
20
0.585467
11
1.05175
21
0.599528
0
LINE
8
BLACK
6
CONTINUOUS
10
1.05175
20
0.599528
11
1.05255
21
0.60248
0
LINE
8
BLACK
6
CONTINUOUS
10
1.05255
20
0.60248
11
1.05471
21
0.604642
0
LINE
8
BLACK
6
CONTINUOUS
10
1.05471
20
0.604642
11
1.05766
21
0.605433
0
LINE
8
BLACK
6
CONTINUOUS
10
1.05766
20
0.605433
11
1.11672
21
0.605433
0
LINE
8
BLACK
6
CONTINUOUS
10
1.11672
20
0.605433
11
1.11967
21
0.604642
0
LINE
8
BLACK
6
CONTINUOUS
10
1.06357
20
0.593622
11
1.06357
21
0.586425
0
LINE
8
BLACK
6
CONTINUOUS
10
1.06357
20
0.586425
11
1.06563
21
0.58022
0
LINE
8
BLACK
6
CONTINUOUS
10
1.06563
20
0.58022
11
1.06959
21
0.57626
0
LINE
8
BLACK
6
CONTINUOUS
10
1.06959
20
0.57626
11
1.07378
21
0.574166
0
LINE
8
BLACK
6
CONTINUOUS
10
1.07378
20
0.574166
11
1.0837
21
0.571687
0
LINE
8
BLACK
6
CONTINUOUS
10
1.0837
20
0.571687
11
1.09068
21
0.571687
0
LINE
8
BLACK
6
CONTINUOUS
10
1.09068
20
0.571687
11
1.10059
21
0.574166
0
LINE
8
BLACK
6
CONTINUOUS
10
1.10059
20
0.574166
11
1.10478
21
0.57626
0
LINE
8
BLACK
6
CONTINUOUS
10
1.10478
20
0.57626
11
1.10874
21
0.58022
0
LINE
8
BLACK
6
CONTINUOUS
10
1.10874
20
0.58022
11
1.11081
21
0.586425
0
LINE
8
BLACK
6
CONTINUOUS
10
1.11081
20
0.586425
11
1.11081
21
0.593622
0
LINE
8
BLACK
6
CONTINUOUS
10
1.11081
20
0.593622
11
1.06357
21
0.593622
0
LINE
8
BLACK
6
CONTINUOUS
10
1.02967
20
0.687758
11
1.03183
21
0.685596
0
LINE
8
BLACK
6
CONTINUOUS
10
1.03183
20
0.685596
11
1.03262
21
0.682643
0
LINE
8
BLACK
6
CONTINUOUS
10
1.03262
20
0.682643
11
1.03262
21
0.654522
0
LINE
8
BLACK
6
CONTINUOUS
10
1.03262
20
0.654522
11
1.03183
21
0.651569
0
LINE
8
BLACK
6
CONTINUOUS
10
1.03183
20
0.651569
11
1.02967
21
0.649408
0
LINE
8
BLACK
6
CONTINUOUS
10
1.02967
20
0.649408
11
1.02806
21
0.648977
0
LINE
8
BLACK
6
CONTINUOUS
10
1.02806
20
0.648977
11
1.03063
21
0.647692
0
LINE
8
BLACK
6
CONTINUOUS
10
1.03063
20
0.647692
11
1.03232
21
0.645141
0
LINE
8
BLACK
6
CONTINUOUS
10
1.03232
20
0.645141
11
1.0325
21
0.642089
0
LINE
8
BLACK
6
CONTINUOUS
10
1.0325
20
0.642089
11
1.03113
21
0.639355
0
LINE
8
BLACK
6
CONTINUOUS
10
1.03113
20
0.639355
11
1.02858
21
0.637671
0
LINE
8
BLACK
6
CONTINUOUS
10
1.02858
20
0.637671
11
1.01575
21
0.633393
0
LINE
8
BLACK
6
CONTINUOUS
10
1.01575
20
0.633393
11
1.01575
21
0.613784
0
LINE
8
BLACK
6
CONTINUOUS
10
1.01575
20
0.613784
11
1.02858
21
0.609506
0
LINE
8
BLACK
6
CONTINUOUS
10
1.02858
20
0.609506
11
1.03113
21
0.607821
0
LINE
8
BLACK
6
CONTINUOUS
10
1.03113
20
0.607821
11
1.0325
21
0.605087
0
LINE
8
BLACK
6
CONTINUOUS
10
1.0325
20
0.605087
11
1.03232
21
0.602036
0
LINE
8
BLACK
6
CONTINUOUS
10
1.03232
20
0.602036
11
1.03063
21
0.599485
0
LINE
8
BLACK
6
CONTINUOUS
10
1.03063
20
0.599485
11
1.0279
21
0.598118
0
LINE
8
BLACK
6
CONTINUOUS
10
1.0279
20
0.598118
11
1.02485
21
0.598301
0
LINE
8
BLACK
6
CONTINUOUS
10
1.02485
20
0.598301
11
0.965793
21
0.617986
0
LINE
8
BLACK
6
CONTINUOUS
10
0.965793
20
0.617986
11
0.964803
21
0.618639
0
LINE
8
BLACK
6
CONTINUOUS
10
0.964803
20
0.618639
11
0.963742
21
0.61917
0
LINE
8
BLACK
6
CONTINUOUS
10
0.963742
20
0.61917
11
0.963543
21
0.619471
0
LINE
8
BLACK
6
CONTINUOUS
10
0.963543
20
0.619471
11
0.963242
21
0.61967
0
LINE
8
BLACK
6
CONTINUOUS
10
0.963242
20
0.61967
11
0.962711
21
0.620731
0
LINE
8
BLACK
6
CONTINUOUS
10
0.962711
20
0.620731
11
0.962058
21
0.621721
0
LINE
8
BLACK
6
CONTINUOUS
10
0.962058
20
0.621721
11
0.962036
21
0.622081
0
LINE
8
BLACK
6
CONTINUOUS
10
0.962036
20
0.622081
11
0.961875
21
0.622404
0
LINE
8
BLACK
6
CONTINUOUS
10
0.961875
20
0.622404
11
0.961946
21
0.623588
0
LINE
8
BLACK
6
CONTINUOUS
10
0.961946
20
0.623588
11
0.961875
21
0.624772
0
LINE
8
BLACK
6
CONTINUOUS
10
0.961875
20
0.624772
11
0.962036
21
0.625095
0
LINE
8
BLACK
6
CONTINUOUS
10
0.962036
20
0.625095
11
0.962058
21
0.625456
0
LINE
8
BLACK
6
CONTINUOUS
10
0.962058
20
0.625456
11
0.962711
21
0.626445
0
LINE
8
BLACK
6
CONTINUOUS
10
0.962711
20
0.626445
11
0.963242
21
0.627506
0
LINE
8
BLACK
6
CONTINUOUS
10
0.963242
20
0.627506
11
0.963543
21
0.627705
0
LINE
8
BLACK
6
CONTINUOUS
10
0.963543
20
0.627705
11
0.963742
21
0.628007
0
LINE
8
BLACK
6
CONTINUOUS
10
0.963742
20
0.628007
11
0.964803
21
0.628537
0
LINE
8
BLACK
6
CONTINUOUS
10
0.964803
20
0.628537
11
0.965793
21
0.629191
0
LINE
8
BLACK
6
CONTINUOUS
10
0.965793
20
0.629191
11
1.02485
21
0.648876
0
LINE
8
BLACK
6
CONTINUOUS
10
1.02485
20
0.648876
11
1.02558
21
0.64892
0
LINE
8
BLACK
6
CONTINUOUS
10
1.02558
20
0.64892
11
1.02376
21
0.649408
0
LINE
8
BLACK
6
CONTINUOUS
10
1.02376
20
0.649408
11
1.0216
21
0.651569
0
LINE
8
BLACK
6
CONTINUOUS
10
1.0216
20
0.651569
11
1.02081
21
0.654522
0
LINE
8
BLACK
6
CONTINUOUS
10
1.02081
20
0.654522
11
1.02081
21
0.676738
0
LINE
8
BLACK
6
CONTINUOUS
10
1.02081
20
0.676738
11
0.96766
21
0.676738
0
LINE
8
BLACK
6
CONTINUOUS
10
0.96766
20
0.676738
11
0.964708
21
0.677529
0
LINE
8
BLACK
6
CONTINUOUS
10
0.964708
20
0.677529
11
0.962546
21
0.679691
0
LINE
8
BLACK
6
CONTINUOUS
10
0.962546
20
0.679691
11
0.961755
21
0.682643
0
LINE
8
BLACK
6
CONTINUOUS
10
0.961755
20
0.682643
11
0.962546
21
0.685596
0
LINE
8
BLACK
6
CONTINUOUS
10
0.962546
20
0.685596
11
0.964708
21
0.687758
0
LINE
8
BLACK
6
CONTINUOUS
10
0.964708
20
0.687758
11
0.96766
21
0.688549
0
LINE
8
BLACK
6
CONTINUOUS
10
0.96766
20
0.688549
11
1.02672
21
0.688549
0
LINE
8
BLACK
6
CONTINUOUS
10
1.02672
20
0.688549
11
1.02967
21
0.687758
0
LINE
8
BLACK
6
CONTINUOUS
10
0.986335
20
0.623588
11
1.00394
21
0.617721
0
LINE
8
BLACK
6
CONTINUOUS
10
1.00394
20
0.617721
11
1.00394
21
0.629456
0
LINE
8
BLACK
6
CONTINUOUS
10
1.00394
20
0.629456
11
0.986335
21
0.623588
0
LINE
8
BLACK
6
CONTINUOUS
10
0.574035
20
0.956181
11
0.57313
21
0.956181
0
LINE
8
BLACK
6
CONTINUOUS
10
0.57313
20
0.956181
11
0.57313
21
0.947669
0
LINE
8
BLACK
6
CONTINUOUS
10
0.57313
20
0.947669
11
0.573244
21
0.947554
0
LINE
8
BLACK
6
CONTINUOUS
10
0.573244
20
0.947554
11
0.574035
21
0.944601
0
LINE
8
BLACK
6
CONTINUOUS
10
0.574035
20
0.944601
11
0.574035
21
0.902291
0
LINE
8
BLACK
6
CONTINUOUS
10
0.574035
20
0.902291
11
0.573834
21
0.90154
0
LINE
8
BLACK
6
CONTINUOUS
10
0.573834
20
0.90154
11
0.573834
21
0.900762
0
LINE
8
BLACK
6
CONTINUOUS
10
0.573834
20
0.900762
11
0.573445
21
0.900089
0
LINE
8
BLACK
6
CONTINUOUS
10
0.573445
20
0.900089
11
0.573244
21
0.899338
0
LINE
8
BLACK
6
CONTINUOUS
10
0.573244
20
0.899338
11
0.572694
21
0.898788
0
LINE
8
BLACK
6
CONTINUOUS
10
0.572694
20
0.898788
11
0.572305
21
0.898115
0
LINE
8
BLACK
6
CONTINUOUS
10
0.572305
20
0.898115
11
0.557006
21
0.882815
0
LINE
8
BLACK
6
CONTINUOUS
10
0.557006
20
0.882815
11
0.557006
21
0.87345
0
LINE
8
BLACK
6
CONTINUOUS
10
0.557006
20
0.87345
11
0.5767
21
0.87345
0
LINE
8
BLACK
6
CONTINUOUS
10
0.5767
20
0.87345
11
0.5767
21
0.80655
0
LINE
8
BLACK
6
CONTINUOUS
10
0.5767
20
0.80655
11
0.560943
21
0.80655
0
LINE
8
BLACK
6
CONTINUOUS
10
0.560943
20
0.80655
11
0.560943
21
0.76345
0
LINE
8
BLACK
6
CONTINUOUS
10
0.560943
20
0.76345
11
0.5767
21
0.76345
0
LINE
8
BLACK
6
CONTINUOUS
10
0.5767
20
0.76345
11
0.5767
21
0.69655
0
LINE
8
BLACK
6
CONTINUOUS
10
0.5767
20
0.69655
11
0.531569
21
0.69655
0
LINE
8
BLACK
6
CONTINUOUS
10
0.531569
20
0.69655
11
0.529843
21
0.694823
0
LINE
8
BLACK
6
CONTINUOUS
10
0.529843
20
0.694823
11
0.529843
21
0.655
0
LINE
8
BLACK
6
CONTINUOUS
10
0.529843
20
0.655
11
0.5475
21
0.655
0
LINE
8
BLACK
6
CONTINUOUS
10
0.5475
20
0.655
11
0.5475
21
0.62
0
LINE
8
BLACK
6
CONTINUOUS
10
0.5475
20
0.62
11
0.4925
21
0.62
0
LINE
8
BLACK
6
CONTINUOUS
10
0.4925
20
0.62
11
0.4925
21
0.630157
0
LINE
8
BLACK
6
CONTINUOUS
10
0.4925
20
0.630157
11
0.435
21
0.630157
0
LINE
8
BLACK
6
CONTINUOUS
10
0.435
20
0.630157
11
0.435
21
0.6125
0
LINE
8
BLACK
6
CONTINUOUS
10
0.435
20
0.6125
11
0.4
21
0.6125
0
LINE
8
BLACK
6
CONTINUOUS
10
0.4
20
0.6125
11
0.4
21
0.6675
0
LINE
8
BLACK
6
CONTINUOUS
10
0.4
20
0.6675
11
0.435
21
0.6675
0
LINE
8
BLACK
6
CONTINUOUS
10
0.435
20
0.6675
11
0.435
21
0.649843
0
LINE
8
BLACK
6
CONTINUOUS
10
0.435
20
0.649843
11
0.4925
21
0.649843
0
LINE
8
BLACK
6
CONTINUOUS
10
0.4925
20
0.649843
11
0.4925
21
0.655
0
LINE
8
BLACK
6
CONTINUOUS
10
0.4925
20
0.655
11
0.510157
21
0.655
0
LINE
8
BLACK
6
CONTINUOUS
10
0.510157
20
0.655
11
0.510157
21
0.6989
0
LINE
8
BLACK
6
CONTINUOUS
10
0.510157
20
0.6989
11
0.510907
21
0.702667
0
LINE
8
BLACK
6
CONTINUOUS
10
0.510907
20
0.702667
11
0.51304
21
0.70586
0
LINE
8
BLACK
6
CONTINUOUS
10
0.51304
20
0.70586
11
0.5255
21
0.718319
0
LINE
8
BLACK
6
CONTINUOUS
10
0.5255
20
0.718319
11
0.5255
21
0.76345
0
LINE
8
BLACK
6
CONTINUOUS
10
0.5255
20
0.76345
11
0.541257
21
0.76345
0
LINE
8
BLACK
6
CONTINUOUS
10
0.541257
20
0.76345
11
0.541257
21
0.80655
0
LINE
8
BLACK
6
CONTINUOUS
10
0.541257
20
0.80655
11
0.5255
21
0.80655
0
LINE
8
BLACK
6
CONTINUOUS
10
0.5255
20
0.80655
11
0.5255
21
0.87345
0
LINE
8
BLACK
6
CONTINUOUS
10
0.5255
20
0.87345
11
0.545194
21
0.87345
0
LINE
8
BLACK
6
CONTINUOUS
10
0.545194
20
0.87345
11
0.545194
21
0.885261
0
LINE
8
BLACK
6
CONTINUOUS
10
0.545194
20
0.885261
11
0.545396
21
0.886012
0
LINE
8
BLACK
6
CONTINUOUS
10
0.545396
20
0.886012
11
0.545396
21
0.886789
0
LINE
8
BLACK
6
CONTINUOUS
10
0.545396
20
0.886789
11
0.545784
21
0.887463
0
LINE
8
BLACK
6
CONTINUOUS
10
0.545784
20
0.887463
11
0.545986
21
0.888214
0
LINE
8
BLACK
6
CONTINUOUS
10
0.545986
20
0.888214
11
0.546535
21
0.888764
0
LINE
8
BLACK
6
CONTINUOUS
10
0.546535
20
0.888764
11
0.546924
21
0.889437
0
LINE
8
BLACK
6
CONTINUOUS
10
0.546924
20
0.889437
11
0.562224
21
0.904737
0
LINE
8
BLACK
6
CONTINUOUS
10
0.562224
20
0.904737
11
0.562224
21
0.944601
0
LINE
8
BLACK
6
CONTINUOUS
10
0.562224
20
0.944601
11
0.563015
21
0.947554
0
LINE
8
BLACK
6
CONTINUOUS
10
0.563015
20
0.947554
11
0.56313
21
0.947669
0
LINE
8
BLACK
6
CONTINUOUS
10
0.56313
20
0.947669
11
0.56313
21
0.956181
0
LINE
8
BLACK
6
CONTINUOUS
10
0.56313
20
0.956181
11
0.562224
21
0.956181
0
LINE
8
BLACK
6
CONTINUOUS
10
0.562224
20
0.956181
11
0.562224
21
0.981772
0
LINE
8
BLACK
6
CONTINUOUS
10
0.562224
20
0.981772
11
0.574035
21
0.981772
0
LINE
8
BLACK
6
CONTINUOUS
10
0.574035
20
0.981772
11
0.574035
21
0.956181
0
LINE
8
BLACK
6
CONTINUOUS
10
0.59372
20
0.956181
11
0.592815
21
0.956181
0
LINE
8
BLACK
6
CONTINUOUS
10
0.592815
20
0.956181
11
0.592815
21
0.94191
0
LINE
8
BLACK
6
CONTINUOUS
10
0.592815
20
0.94191
11
0.592929
21
0.941796
0
LINE
8
BLACK
6
CONTINUOUS
10
0.592929
20
0.941796
11
0.59372
21
0.938843
0
LINE
8
BLACK
6
CONTINUOUS
10
0.59372
20
0.938843
11
0.59372
21
0.900837
0
LINE
8
BLACK
6
CONTINUOUS
10
0.59372
20
0.900837
11
0.648652
21
0.845906
0
LINE
8
BLACK
6
CONTINUOUS
10
0.648652
20
0.845906
11
0.6633
21
0.845906
0
LINE
8
BLACK
6
CONTINUOUS
10
0.6633
20
0.845906
11
0.6633
21
0.87345
0
LINE
8
BLACK
6
CONTINUOUS
10
0.6633
20
0.87345
11
0.7145
21
0.87345
0
LINE
8
BLACK
6
CONTINUOUS
10
0.7145
20
0.87345
11
0.7145
21
0.80655
0
LINE
8
BLACK
6
CONTINUOUS
10
0.7145
20
0.80655
11
0.698743
21
0.80655
0
LINE
8
BLACK
6
CONTINUOUS
10
0.698743
20
0.80655
11
0.698743
21
0.76345
0
LINE
8
BLACK
6
CONTINUOUS
10
0.698743
20
0.76345
11
0.7145
21
0.76345
0
LINE
8
BLACK
6
CONTINUOUS
10
0.7145
20
0.76345
11
0.7145
21
0.718319
0
LINE
8
BLACK
6
CONTINUOUS
10
0.7145
20
0.718319
11
0.72696
21
0.70586
0
LINE
8
BLACK
6
CONTINUOUS
10
0.72696
20
0.70586
11
0.729093
21
0.702667
0
LINE
8
BLACK
6
CONTINUOUS
10
0.729093
20
0.702667
11
0.729843
21
0.6989
0
LINE
8
BLACK
6
CONTINUOUS
10
0.729843
20
0.6989
11
0.729843
21
0.6989
0
LINE
8
BLACK
6
CONTINUOUS
10
0.729843
20
0.6989
11
0.729843
21
0.655
0
LINE
8
BLACK
6
CONTINUOUS
10
0.729843
20
0.655
11
0.7475
21
0.655
0
LINE
8
BLACK
6
CONTINUOUS
10
0.7475
20
0.655
11
0.7475
21
0.647343
0
LINE
8
BLACK
6
CONTINUOUS
10
0.7475
20
0.647343
11
0.805
21
0.647343
0
LINE
8
BLACK
6
CONTINUOUS
10
0.805
20
0.647343
11
0.805
21
0.6675
0
LINE
8
BLACK
6
CONTINUOUS
10
0.805
20
0.6675
11
0.84
21
0.6675
0
LINE
8
BLACK
6
CONTINUOUS
10
0.84
20
0.6675
11
0.84
21
0.6125
0
LINE
8
BLACK
6
CONTINUOUS
10
0.84
20
0.6125
11
0.805
21
0.6125
0
LINE
8
BLACK
6
CONTINUOUS
10
0.805
20
0.6125
11
0.805
21
0.627657
0
LINE
8
BLACK
6
CONTINUOUS
10
0.805
20
0.627657
11
0.7475
21
0.627657
0
LINE
8
BLACK
6
CONTINUOUS
10
0.7475
20
0.627657
11
0.7475
21
0.62
0
LINE
8
BLACK
6
CONTINUOUS
10
0.7475
20
0.62
11
0.6925
21
0.62
0
LINE
8
BLACK
6
CONTINUOUS
10
0.6925
20
0.62
11
0.6925
21
0.655
0
LINE
8
BLACK
6
CONTINUOUS
10
0.6925
20
0.655
11
0.710157
21
0.655
0
LINE
8
BLACK
6
CONTINUOUS
10
0.710157
20
0.655
11
0.710157
21
0.694823
0
LINE
8
BLACK
6
CONTINUOUS
10
0.710157
20
0.694823
11
0.708431
21
0.69655
0
LINE
8
BLACK
6
CONTINUOUS
10
0.708431
20
0.69655
11
0.6633
21
0.69655
0
LINE
8
BLACK
6
CONTINUOUS
10
0.6633
20
0.69655
11
0.6633
21
0.76345
0
LINE
8
BLACK
6
CONTINUOUS
10
0.6633
20
0.76345
11
0.679057
21
0.76345
0
LINE
8
BLACK
6
CONTINUOUS
10
0.679057
20
0.76345
11
0.679057
21
0.80655
0
LINE
8
BLACK
6
CONTINUOUS
10
0.679057
20
0.80655
11
0.6633
21
0.80655
0
LINE
8
BLACK
6
CONTINUOUS
10
0.6633
20
0.80655
11
0.6633
21
0.834094
0
LINE
8
BLACK
6
CONTINUOUS
10
0.6633
20
0.834094
11
0.646206
21
0.834094
0
LINE
8
BLACK
6
CONTINUOUS
10
0.646206
20
0.834094
11
0.645455
21
0.834296
0
LINE
8
BLACK
6
CONTINUOUS
10
0.645455
20
0.834296
11
0.644678
21
0.834296
0
LINE
8
BLACK
6
CONTINUOUS
10
0.644678
20
0.834296
11
0.644004
21
0.834684
0
LINE
8
BLACK
6
CONTINUOUS
10
0.644004
20
0.834684
11
0.643253
21
0.834886
0
LINE
8
BLACK
6
CONTINUOUS
10
0.643253
20
0.834886
11
0.642704
21
0.835435
0
LINE
8
BLACK
6
CONTINUOUS
10
0.642704
20
0.835435
11
0.64203
21
0.835824
0
LINE
8
BLACK
6
CONTINUOUS
10
0.64203
20
0.835824
11
0.583639
21
0.894215
0
LINE
8
BLACK
6
CONTINUOUS
10
0.583639
20
0.894215
11
0.58325
21
0.894889
0
LINE
8
BLACK
6
CONTINUOUS
10
0.58325
20
0.894889
11
0.582701
21
0.895439
0
LINE
8
BLACK
6
CONTINUOUS
10
0.582701
20
0.895439
11
0.582499
21
0.896189
0
LINE
8
BLACK
6
CONTINUOUS
10
0.582499
20
0.896189
11
0.582111
21
0.896863
0
LINE
8
BLACK
6
CONTINUOUS
10
0.582111
20
0.896863
11
0.582111
21
0.89764
0
LINE
8
BLACK
6
CONTINUOUS
10
0.582111
20
0.89764
11
0.581909
21
0.898391
0
LINE
8
BLACK
6
CONTINUOUS
10
0.581909
20
0.898391
11
0.581909
21
0.938843
0
LINE
8
BLACK
6
CONTINUOUS
10
0.581909
20
0.938843
11
0.582701
21
0.941796
0
LINE
8
BLACK
6
CONTINUOUS
10
0.582701
20
0.941796
11
0.582815
21
0.94191
0
LINE
8
BLACK
6
CONTINUOUS
10
0.582815
20
0.94191
11
0.582815
21
0.956181
0
LINE
8
BLACK
6
CONTINUOUS
10
0.582815
20
0.956181
11
0.581909
21
0.956181
0
LINE
8
BLACK
6
CONTINUOUS
10
0.581909
20
0.956181
11
0.581909
21
0.981772
0
LINE
8
BLACK
6
CONTINUOUS
10
0.581909
20
0.981772
11
0.59372
21
0.981772
0
LINE
8
BLACK
6
CONTINUOUS
10
0.59372
20
0.981772
11
0.59372
21
0.956181
0
LINE
8
BLACK
6
CONTINUOUS
10
1.12063
20
0.663001
11
1.12232
21
0.66045
0
LINE
8
BLACK
6
CONTINUOUS
10
1.12232
20
0.66045
11
1.1225
21
0.657399
0
LINE
8
BLACK
6
CONTINUOUS
10
1.1225
20
0.657399
11
1.12113
21
0.654665
0
LINE
8
BLACK
6
CONTINUOUS
10
1.12113
20
0.654665
11
1.11858
21
0.65298
0
LINE
8
BLACK
6
CONTINUOUS
10
1.11858
20
0.65298
11
1.10575
21
0.648702
0
LINE
8
BLACK
6
CONTINUOUS
10
1.10575
20
0.648702
11
1.10575
21
0.629093
0
LINE
8
BLACK
6
CONTINUOUS
10
1.10575
20
0.629093
11
1.11858
21
0.624815
0
LINE
8
BLACK
6
CONTINUOUS
10
1.11858
20
0.624815
11
1.12113
21
0.623131
0
LINE
8
BLACK
6
CONTINUOUS
10
1.12113
20
0.623131
11
1.1225
21
0.620397
0
LINE
8
BLACK
6
CONTINUOUS
10
1.1225
20
0.620397
11
1.12232
21
0.617345
0
LINE
8
BLACK
6
CONTINUOUS
10
1.12232
20
0.617345
11
1.12063
21
0.614794
0
LINE
8
BLACK
6
CONTINUOUS
10
1.12063
20
0.614794
11
1.1179
21
0.613427
0
LINE
8
BLACK
6
CONTINUOUS
10
1.1179
20
0.613427
11
1.11485
21
0.61361
0
LINE
8
BLACK
6
CONTINUOUS
10
1.11485
20
0.61361
11
1.05579
21
0.633295
0
LINE
8
BLACK
6
CONTINUOUS
10
1.05579
20
0.633295
11
1.0548
21
0.633949
0
LINE
8
BLACK
6
CONTINUOUS
10
1.0548
20
0.633949
11
1.05374
21
0.634479
0
LINE
8
BLACK
6
CONTINUOUS
10
1.05374
20
0.634479
11
1.05354
21
0.634781
0
LINE
8
BLACK
6
CONTINUOUS
10
1.05354
20
0.634781
11
1.05324
21
0.634979
0
LINE
8
BLACK
6
CONTINUOUS
10
1.05324
20
0.634979
11
1.05271
21
0.63604
0
LINE
8
BLACK
6
CONTINUOUS
10
1.05271
20
0.63604
11
1.05206
21
0.63703
0
LINE
8
BLACK
6
CONTINUOUS
10
1.05206
20
0.63703
11
1.05204
21
0.637391
0
LINE
8
BLACK
6
CONTINUOUS
10
1.05204
20
0.637391
11
1.05187
21
0.637714
0
LINE
8
BLACK
6
CONTINUOUS
10
1.05187
20
0.637714
11
1.05195
21
0.638898
0
LINE
8
BLACK
6
CONTINUOUS
10
1.05195
20
0.638898
11
1.05187
21
0.640082
0
LINE
8
BLACK
6
CONTINUOUS
10
1.05187
20
0.640082
11
1.05204
21
0.640405
0
LINE
8
BLACK
6
CONTINUOUS
10
1.05204
20
0.640405
11
1.05206
21
0.640765
0
LINE
8
BLACK
6
CONTINUOUS
10
1.05206
20
0.640765
11
1.05271
21
0.641755
0
LINE
8
BLACK
6
CONTINUOUS
10
1.05271
20
0.641755
11
1.05324
21
0.642816
0
LINE
8
BLACK
6
CONTINUOUS
10
1.05324
20
0.642816
11
1.05354
21
0.643015
0
LINE
8
BLACK
6
CONTINUOUS
10
1.05354
20
0.643015
11
1.05374
21
0.643316
0
LINE
8
BLACK
6
CONTINUOUS
10
1.05374
20
0.643316
11
1.0548
21
0.643847
0
LINE
8
BLACK
6
CONTINUOUS
10
1.0548
20
0.643847
11
1.05579
21
0.6445
0
LINE
8
BLACK
6
CONTINUOUS
10
1.05579
20
0.6445
11
1.11485
21
0.664185
0
LINE
8
BLACK
6
CONTINUOUS
10
1.11485
20
0.664185
11
1.1179
21
0.664368
0
LINE
8
BLACK
6
CONTINUOUS
10
1.1179
20
0.664368
11
1.12063
21
0.663001
0
LINE
8
BLACK
6
CONTINUOUS
10
1.07634
20
0.638898
11
1.09394
21
0.63303
0
LINE
8
BLACK
6
CONTINUOUS
10
1.09394
20
0.63303
11
1.09394
21
0.644765
0
LINE
8
BLACK
6
CONTINUOUS
10
1.09394
20
0.644765
11
1.07634
21
0.638898
0
LINE
8
BLACK
6
CONTINUOUS
10
1.09211
20
0.71773
11
1.09284
21
0.717743
0
LINE
8
BLACK
6
CONTINUOUS
10
1.09284
20
0.717743
11
1.10409
21
0.714931
0
LINE
8
BLACK
6
CONTINUOUS
10
1.10409
20
0.714931
11
1.10466
21
0.714614
0
LINE
8
BLACK
6
CONTINUOUS
10
1.10466
20
0.714614
11
1.1053
21
0.714483
0
LINE
8
BLACK
6
CONTINUOUS
10
1.1053
20
0.714483
11
1.11092
21
0.711671
0
LINE
8
BLACK
6
CONTINUOUS
10
1.11092
20
0.711671
11
1.11163
21
0.71104
0
LINE
8
BLACK
6
CONTINUOUS
10
1.11163
20
0.71104
11
1.11245
21
0.710565
0
LINE
8
BLACK
6
CONTINUOUS
10
1.11245
20
0.710565
11
1.11808
21
0.704941
0
LINE
8
BLACK
6
CONTINUOUS
10
1.11808
20
0.704941
11
1.11876
21
0.703765
0
LINE
8
BLACK
6
CONTINUOUS
10
1.11876
20
0.703765
11
1.11951
21
0.702632
0
LINE
8
BLACK
6
CONTINUOUS
10
1.11951
20
0.702632
11
1.12232
21
0.694196
0
LINE
8
BLACK
6
CONTINUOUS
10
1.12232
20
0.694196
11
1.12237
21
0.693247
0
LINE
8
BLACK
6
CONTINUOUS
10
1.12237
20
0.693247
11
1.12262
21
0.692328
0
LINE
8
BLACK
6
CONTINUOUS
10
1.12262
20
0.692328
11
1.12262
21
0.686704
0
LINE
8
BLACK
6
CONTINUOUS
10
1.12262
20
0.686704
11
1.12237
21
0.685786
0
LINE
8
BLACK
6
CONTINUOUS
10
1.12237
20
0.685786
11
1.12232
21
0.684837
0
LINE
8
BLACK
6
CONTINUOUS
10
1.12232
20
0.684837
11
1.11951
21
0.6764
0
LINE
8
BLACK
6
CONTINUOUS
10
1.11951
20
0.6764
11
1.11876
21
0.675267
0
LINE
8
BLACK
6
CONTINUOUS
10
1.11876
20
0.675267
11
1.11808
21
0.674092
0
LINE
8
BLACK
6
CONTINUOUS
10
1.11808
20
0.674092
11
1.11527
21
0.67128
0
LINE
8
BLACK
6
CONTINUOUS
10
1.11527
20
0.67128
11
1.11262
21
0.669751
0
LINE
8
BLACK
6
CONTINUOUS
10
1.11262
20
0.669751
11
1.10956
21
0.669751
0
LINE
8
BLACK
6
CONTINUOUS
10
1.10956
20
0.669751
11
1.10692
21
0.67128
0
LINE
8
BLACK
6
CONTINUOUS
10
1.10692
20
0.67128
11
1.10539
21
0.673927
0
LINE
8
BLACK
6
CONTINUOUS
10
1.10539
20
0.673927
11
1.10539
21
0.676984
0
LINE
8
BLACK
6
CONTINUOUS
10
1.10539
20
0.676984
11
1.10692
21
0.679631
0
LINE
8
BLACK
6
CONTINUOUS
10
1.10692
20
0.679631
11
1.10874
21
0.681458
0
LINE
8
BLACK
6
CONTINUOUS
10
1.10874
20
0.681458
11
1.11081
21
0.687662
0
LINE
8
BLACK
6
CONTINUOUS
10
1.11081
20
0.687662
11
1.11081
21
0.69137
0
LINE
8
BLACK
6
CONTINUOUS
10
1.11081
20
0.69137
11
1.10874
21
0.697575
0
LINE
8
BLACK
6
CONTINUOUS
10
1.10874
20
0.697575
11
1.10478
21
0.701536
0
LINE
8
BLACK
6
CONTINUOUS
10
1.10478
20
0.701536
11
1.10059
21
0.703629
0
LINE
8
BLACK
6
CONTINUOUS
10
1.10059
20
0.703629
11
1.09068
21
0.706108
0
LINE
8
BLACK
6
CONTINUOUS
10
1.09068
20
0.706108
11
1.0837
21
0.706108
0
LINE
8
BLACK
6
CONTINUOUS
10
1.0837
20
0.706108
11
1.07378
21
0.703629
0
LINE
8
BLACK
6
CONTINUOUS
10
1.07378
20
0.703629
11
1.06959
21
0.701536
0
LINE
8
BLACK
6
CONTINUOUS
10
1.06959
20
0.701536
11
1.06563
21
0.697575
0
LINE
8
BLACK
6
CONTINUOUS
10
1.06563
20
0.697575
11
1.06357
21
0.69137
0
LINE
8
BLACK
6
CONTINUOUS
10
1.06357
20
0.69137
11
1.06357
21
0.687662
0
LINE
8
BLACK
6
CONTINUOUS
10
1.06357
20
0.687662
11
1.06563
21
0.681458
0
LINE
8
BLACK
6
CONTINUOUS
10
1.06563
20
0.681458
11
1.06746
21
0.679631
0
LINE
8
BLACK
6
CONTINUOUS
10
1.06746
20
0.679631
11
1.06899
21
0.676984
0
LINE
8
BLACK
6
CONTINUOUS
10
1.06899
20
0.676984
11
1.06899
21
0.673927
0
LINE
8
BLACK
6
CONTINUOUS
10
1.06899
20
0.673927
11
1.06746
21
0.67128
0
LINE
8
BLACK
6
CONTINUOUS
10
1.06746
20
0.67128
11
1.06481
21
0.669751
0
LINE
8
BLACK
6
CONTINUOUS
10
1.06481
20
0.669751
11
1.06176
21
0.669751
0
LINE
8
BLACK
6
CONTINUOUS
10
1.06176
20
0.669751
11
1.05911
21
0.67128
0
LINE
8
BLACK
6
CONTINUOUS
10
1.05911
20
0.67128
11
1.0563
21
0.674092
0
LINE
8
BLACK
6
CONTINUOUS
10
1.0563
20
0.674092
11
1.05562
21
0.675268
0
LINE
8
BLACK
6
CONTINUOUS
10
1.05562
20
0.675268
11
1.05487
21
0.6764
0
LINE
8
BLACK
6
CONTINUOUS
10
1.05487
20
0.6764
11
1.05206
21
0.684837
0
LINE
8
BLACK
6
CONTINUOUS
10
1.05206
20
0.684837
11
1.052
21
0.685786
0
LINE
8
BLACK
6
CONTINUOUS
10
1.052
20
0.685786
11
1.05175
21
0.686704
0
LINE
8
BLACK
6
CONTINUOUS
10
1.05175
20
0.686704
11
1.05175
21
0.692328
0
LINE
8
BLACK
6
CONTINUOUS
10
1.05175
20
0.692328
11
1.052
21
0.693247
0
LINE
8
BLACK
6
CONTINUOUS
10
1.052
20
0.693247
11
1.05206
21
0.694196
0
LINE
8
BLACK
6
CONTINUOUS
10
1.05206
20
0.694196
11
1.05487
21
0.702632
0
LINE
8
BLACK
6
CONTINUOUS
10
1.05487
20
0.702632
11
1.05562
21
0.703765
0
LINE
8
BLACK
6
CONTINUOUS
10
1.05562
20
0.703765
11
1.0563
21
0.704941
0
LINE
8
BLACK
6
CONTINUOUS
10
1.0563
20
0.704941
11
1.06192
21
0.710565
0
LINE
8
BLACK
6
CONTINUOUS
10
1.06192
20
0.710565
11
1.06274
21
0.71104
0
LINE
8
BLACK
6
CONTINUOUS
10
1.06274
20
0.71104
11
1.06346
21
0.711671
0
LINE
8
BLACK
6
CONTINUOUS
10
1.06346
20
0.711671
11
1.06908
21
0.714483
0
LINE
8
BLACK
6
CONTINUOUS
10
1.06908
20
0.714483
11
1.06972
21
0.714614
0
LINE
8
BLACK
6
CONTINUOUS
10
1.06972
20
0.714614
11
1.07029
21
0.714931
0
LINE
8
BLACK
6
CONTINUOUS
10
1.07029
20
0.714931
11
1.08154
21
0.717743
0
LINE
8
BLACK
6
CONTINUOUS
10
1.08154
20
0.717743
11
1.08227
21
0.71773
0
LINE
8
BLACK
6
CONTINUOUS
10
1.08227
20
0.71773
11
1.08297
21
0.717919
0
LINE
8
BLACK
6
CONTINUOUS
10
1.08297
20
0.717919
11
1.09141
21
0.717919
0
LINE
8
BLACK
6
CONTINUOUS
10
1.09141
20
0.717919
11
1.09211
21
0.71773
0
LINE
8
BLACK
6
CONTINUOUS
10
1.02967
20
0.755249
11
1.03183
21
0.753088
0
LINE
8
BLACK
6
CONTINUOUS
10
1.03183
20
0.753088
11
1.03262
21
0.750135
0
LINE
8
BLACK
6
CONTINUOUS
10
1.03262
20
0.750135
11
1.03183
21
0.747182
0
LINE
8
BLACK
6
CONTINUOUS
10
1.03183
20
0.747182
11
1.02967
21
0.745021
0
LINE
8
BLACK
6
CONTINUOUS
10
1.02967
20
0.745021
11
1.02672
21
0.744229
0
LINE
8
BLACK
6
CONTINUOUS
10
1.02672
20
0.744229
11
0.99428
21
0.744229
0
LINE
8
BLACK
6
CONTINUOUS
10
0.99428
20
0.744229
11
1.01234
21
0.735801
0
LINE
8
BLACK
6
CONTINUOUS
10
1.01234
20
0.735801
11
1.01274
21
0.735466
0
LINE
8
BLACK
6
CONTINUOUS
10
1.01274
20
0.735466
11
1.01323
21
0.735288
0
LINE
8
BLACK
6
CONTINUOUS
10
1.01323
20
0.735288
11
1.01389
21
0.734499
0
LINE
8
BLACK
6
CONTINUOUS
10
1.01389
20
0.734499
11
1.01468
21
0.733836
0
LINE
8
BLACK
6
CONTINUOUS
10
1.01468
20
0.733836
11
1.01486
21
0.733346
0
LINE
8
BLACK
6
CONTINUOUS
10
1.01486
20
0.733346
11
1.01519
21
0.732947
0
LINE
8
BLACK
6
CONTINUOUS
10
1.01519
20
0.732947
11
1.01537
21
0.731932
0
LINE
8
BLACK
6
CONTINUOUS
10
1.01537
20
0.731932
11
1.01573
21
0.730963
0
LINE
8
BLACK
6
CONTINUOUS
10
1.01573
20
0.730963
11
1.01564
21
0.73045
0
LINE
8
BLACK
6
CONTINUOUS
10
1.01564
20
0.73045
11
1.01573
21
0.729937
0
LINE
8
BLACK
6
CONTINUOUS
10
1.01573
20
0.729937
11
1.01537
21
0.728968
0
LINE
8
BLACK
6
CONTINUOUS
10
1.01537
20
0.728968
11
1.01519
21
0.727953
0
LINE
8
BLACK
6
CONTINUOUS
10
1.01519
20
0.727953
11
1.01486
21
0.727554
0
LINE
8
BLACK
6
CONTINUOUS
10
1.01486
20
0.727554
11
1.01468
21
0.727064
0
LINE
8
BLACK
6
CONTINUOUS
10
1.01468
20
0.727064
11
1.01389
21
0.726401
0
LINE
8
BLACK
6
CONTINUOUS
10
1.01389
20
0.726401
11
1.01323
21
0.725611
0
LINE
8
BLACK
6
CONTINUOUS
10
1.01323
20
0.725611
11
1.01274
21
0.725433
0
LINE
8
BLACK
6
CONTINUOUS
10
1.01274
20
0.725433
11
1.01234
21
0.725098
0
LINE
8
BLACK
6
CONTINUOUS
10
1.01234
20
0.725098
11
0.99428
21
0.71667
0
LINE
8
BLACK
6
CONTINUOUS
10
0.99428
20
0.71667
11
1.02672
21
0.71667
0
LINE
8
BLACK
6
CONTINUOUS
10
1.02672
20
0.71667
11
1.02967
21
0.715879
0
LINE
8
BLACK
6
CONTINUOUS
10
1.02967
20
0.715879
11
1.03183
21
0.713718
0
LINE
8
BLACK
6
CONTINUOUS
10
1.03183
20
0.713718
11
1.03262
21
0.710765
0
LINE
8
BLACK
6
CONTINUOUS
10
1.03262
20
0.710765
11
1.03183
21
0.707812
0
LINE
8
BLACK
6
CONTINUOUS
10
1.03183
20
0.707812
11
1.02967
21
0.705651
0
LINE
8
BLACK
6
CONTINUOUS
10
1.02967
20
0.705651
11
1.02672
21
0.704859
0
LINE
8
BLACK
6
CONTINUOUS
10
1.02672
20
0.704859
11
0.96766
21
0.704859
0
LINE
8
BLACK
6
CONTINUOUS
10
0.96766
20
0.704859
11
0.967406
21
0.704927
0
LINE
8
BLACK
6
CONTINUOUS
10
0.967406
20
0.704927
11
0.967147
21
0.704882
0
LINE
8
BLACK
6
CONTINUOUS
10
0.967147
20
0.704882
11
0.965944
21
0.705319
0
LINE
8
BLACK
6
CONTINUOUS
10
0.965944
20
0.705319
11
0.964708
21
0.705651
0
LINE
8
BLACK
6
CONTINUOUS
10
0.964708
20
0.705651
11
0.964522
21
0.705837
0
LINE
8
BLACK
6
CONTINUOUS
10
0.964522
20
0.705837
11
0.964274
21
0.705926
0
LINE
8
BLACK
6
CONTINUOUS
10
0.964274
20
0.705926
11
0.963451
21
0.706907
0
LINE
8
BLACK
6
CONTINUOUS
10
0.963451
20
0.706907
11
0.962546
21
0.707812
0
LINE
8
BLACK
6
CONTINUOUS
10
0.962546
20
0.707812
11
0.962478
21
0.708066
0
LINE
8
BLACK
6
CONTINUOUS
10
0.962478
20
0.708066
11
0.962309
21
0.708268
0
LINE
8
BLACK
6
CONTINUOUS
10
0.962309
20
0.708268
11
0.962086
21
0.709528
0
LINE
8
BLACK
6
CONTINUOUS
10
0.962086
20
0.709528
11
0.961755
21
0.710765
0
LINE
8
BLACK
6
CONTINUOUS
10
0.961755
20
0.710765
11
0.961823
21
0.711019
0
LINE
8
BLACK
6
CONTINUOUS
10
0.961823
20
0.711019
11
0.961777
21
0.711278
0
LINE
8
BLACK
6
CONTINUOUS
10
0.961777
20
0.711278
11
0.962215
21
0.712481
0
LINE
8
BLACK
6
CONTINUOUS
10
0.962215
20
0.712481
11
0.962546
21
0.713718
0
LINE
8
BLACK
6
CONTINUOUS
10
0.962546
20
0.713718
11
0.962732
21
0.713904
0
LINE
8
BLACK
6
CONTINUOUS
10
0.962732
20
0.713904
11
0.962822
21
0.714151
0
LINE
8
BLACK
6
CONTINUOUS
10
0.962822
20
0.714151
11
0.963802
21
0.714974
0
LINE
8
BLACK
6
CONTINUOUS
10
0.963802
20
0.714974
11
0.964708
21
0.715879
0
LINE
8
BLACK
6
CONTINUOUS
10
0.964708
20
0.715879
11
0.964962
21
0.715947
0
LINE
8
BLACK
6
CONTINUOUS
10
0.964962
20
0.715947
11
0.965163
21
0.716116
0
LINE
8
BLACK
6
CONTINUOUS
10
0.965163
20
0.716116
11
0.995878
21
0.73045
0
LINE
8
BLACK
6
CONTINUOUS
10
0.995878
20
0.73045
11
0.965163
21
0.744784
0
LINE
8
BLACK
6
CONTINUOUS
10
0.965163
20
0.744784
11
0.964962
21
0.744953
0
LINE
8
BLACK
6
CONTINUOUS
10
0.964962
20
0.744953
11
0.964708
21
0.745021
0
LINE
8
BLACK
6
CONTINUOUS
10
0.964708
20
0.745021
11
0.963802
21
0.745926
0
LINE
8
BLACK
6
CONTINUOUS
10
0.963802
20
0.745926
11
0.962822
21
0.746749
0
LINE
8
BLACK
6
CONTINUOUS
10
0.962822
20
0.746749
11
0.962732
21
0.746996
0
LINE
8
BLACK
6
CONTINUOUS
10
0.962732
20
0.746996
11
0.962546
21
0.747182
0
LINE
8
BLACK
6
CONTINUOUS
10
0.962546
20
0.747182
11
0.962215
21
0.748419
0
LINE
8
BLACK
6
CONTINUOUS
10
0.962215
20
0.748419
11
0.961777
21
0.749622
0
LINE
8
BLACK
6
CONTINUOUS
10
0.961777
20
0.749622
11
0.961823
21
0.749881
0
LINE
8
BLACK
6
CONTINUOUS
10
0.961823
20
0.749881
11
0.961755
21
0.750135
0
LINE
8
BLACK
6
CONTINUOUS
10
0.961755
20
0.750135
11
0.962086
21
0.751372
0
LINE
8
BLACK
6
CONTINUOUS
10
0.962086
20
0.751372
11
0.962309
21
0.752632
0
LINE
8
BLACK
6
CONTINUOUS
10
0.962309
20
0.752632
11
0.962478
21
0.752834
0
LINE
8
BLACK
6
CONTINUOUS
10
0.962478
20
0.752834
11
0.962546
21
0.753088
0
LINE
8
BLACK
6
CONTINUOUS
10
0.962546
20
0.753088
11
0.963451
21
0.753993
0
LINE
8
BLACK
6
CONTINUOUS
10
0.963451
20
0.753993
11
0.964274
21
0.754973
0
LINE
8
BLACK
6
CONTINUOUS
10
0.964274
20
0.754973
11
0.964522
21
0.755063
0
LINE
8
BLACK
6
CONTINUOUS
10
0.964522
20
0.755063
11
0.964708
21
0.755249
0
LINE
8
BLACK
6
CONTINUOUS
10
0.964708
20
0.755249
11
0.965944
21
0.755581
0
LINE
8
BLACK
6
CONTINUOUS
10
0.965944
20
0.755581
11
0.967147
21
0.756018
0
LINE
8
BLACK
6
CONTINUOUS
10
0.967147
20
0.756018
11
0.967406
21
0.755972
0
LINE
8
BLACK
6
CONTINUOUS
10
0.967406
20
0.755972
11
0.96766
21
0.75604
0
LINE
8
BLACK
6
CONTINUOUS
10
0.96766
20
0.75604
11
1.02672
21
0.75604
0
LINE
8
BLACK
6
CONTINUOUS
10
1.02672
20
0.75604
11
1.02967
21
0.755249
0
LINE
8
BLACK
6
CONTINUOUS
10
1.11747
20
0.776773
11
1.11824
21
0.776773
0
LINE
8
BLACK
6
CONTINUOUS
10
1.11824
20
0.776773
11
1.11892
21
0.776384
0
LINE
8
BLACK
6
CONTINUOUS
10
1.11892
20
0.776384
11
1.11967
21
0.776183
0
LINE
8
BLACK
6
CONTINUOUS
10
1.11967
20
0.776183
11
1.12022
21
0.775633
0
LINE
8
BLACK
6
CONTINUOUS
10
1.12022
20
0.775633
11
1.12089
21
0.775244
0
LINE
8
BLACK
6
CONTINUOUS
10
1.12089
20
0.775244
11
1.12128
21
0.774571
0
LINE
8
BLACK
6
CONTINUOUS
10
1.12128
20
0.774571
11
1.12183
21
0.774021
0
LINE
8
BLACK
6
CONTINUOUS
10
1.12183
20
0.774021
11
1.12203
21
0.77327
0
LINE
8
BLACK
6
CONTINUOUS
10
1.12203
20
0.77327
11
1.12242
21
0.772597
0
LINE
8
BLACK
6
CONTINUOUS
10
1.12242
20
0.772597
11
1.12242
21
0.77182
0
LINE
8
BLACK
6
CONTINUOUS
10
1.12242
20
0.77182
11
1.12262
21
0.771069
0
LINE
8
BLACK
6
CONTINUOUS
10
1.12262
20
0.771069
11
1.12262
21
0.734511
0
LINE
8
BLACK
6
CONTINUOUS
10
1.12262
20
0.734511
11
1.12183
21
0.731558
0
LINE
8
BLACK
6
CONTINUOUS
10
1.12183
20
0.731558
11
1.11967
21
0.729396
0
LINE
8
BLACK
6
CONTINUOUS
10
1.11967
20
0.729396
11
1.11672
21
0.728605
0
LINE
8
BLACK
6
CONTINUOUS
10
1.11672
20
0.728605
11
1.11376
21
0.729396
0
LINE
8
BLACK
6
CONTINUOUS
10
1.11376
20
0.729396
11
1.1116
21
0.731558
0
LINE
8
BLACK
6
CONTINUOUS
10
1.1116
20
0.731558
11
1.11081
21
0.734511
0
LINE
8
BLACK
6
CONTINUOUS
10
1.11081
20
0.734511
11
1.11081
21
0.756811
0
LINE
8
BLACK
6
CONTINUOUS
10
1.11081
20
0.756811
11
1.08715
21
0.733147
0
LINE
8
BLACK
6
CONTINUOUS
10
1.08715
20
0.733147
11
1.08597
21
0.732468
0
LINE
8
BLACK
6
CONTINUOUS
10
1.08597
20
0.732468
11
1.08484
21
0.73172
0
LINE
8
BLACK
6
CONTINUOUS
10
1.08484
20
0.73172
11
1.0764
21
0.728908
0
LINE
8
BLACK
6
CONTINUOUS
10
1.0764
20
0.728908
11
1.07545
21
0.728851
0
LINE
8
BLACK
6
CONTINUOUS
10
1.07545
20
0.728851
11
1.07453
21
0.728605
0
LINE
8
BLACK
6
CONTINUOUS
10
1.07453
20
0.728605
11
1.06891
21
0.728605
0
LINE
8
BLACK
6
CONTINUOUS
10
1.06891
20
0.728605
11
1.0676
21
0.728956
0
LINE
8
BLACK
6
CONTINUOUS
10
1.0676
20
0.728956
11
1.06627
21
0.729229
0
LINE
8
BLACK
6
CONTINUOUS
10
1.06627
20
0.729229
11
1.06064
21
0.732041
0
LINE
8
BLACK
6
CONTINUOUS
10
1.06064
20
0.732041
11
1.05993
21
0.732672
0
LINE
8
BLACK
6
CONTINUOUS
10
1.05993
20
0.732672
11
1.05911
21
0.733147
0
LINE
8
BLACK
6
CONTINUOUS
10
1.05911
20
0.733147
11
1.0563
21
0.735959
0
LINE
8
BLACK
6
CONTINUOUS
10
1.0563
20
0.735959
11
1.05582
21
0.736783
0
LINE
8
BLACK
6
CONTINUOUS
10
1.05582
20
0.736783
11
1.05519
21
0.737494
0
LINE
8
BLACK
6
CONTINUOUS
10
1.05519
20
0.737494
11
1.05238
21
0.743118
0
LINE
8
BLACK
6
CONTINUOUS
10
1.05238
20
0.743118
11
1.05211
21
0.744448
0
LINE
8
BLACK
6
CONTINUOUS
10
1.05211
20
0.744448
11
1.05175
21
0.745759
0
LINE
8
BLACK
6
CONTINUOUS
10
1.05175
20
0.745759
11
1.05175
21
0.75982
0
LINE
8
BLACK
6
CONTINUOUS
10
1.05175
20
0.75982
11
1.05211
21
0.761131
0
LINE
8
BLACK
6
CONTINUOUS
10
1.05211
20
0.761131
11
1.05238
21
0.762461
0
LINE
8
BLACK
6
CONTINUOUS
10
1.05238
20
0.762461
11
1.05519
21
0.768085
0
LINE
8
BLACK
6
CONTINUOUS
10
1.05519
20
0.768085
11
1.05582
21
0.768797
0
LINE
8
BLACK
6
CONTINUOUS
10
1.05582
20
0.768797
11
1.0563
21
0.76962
0
LINE
8
BLACK
6
CONTINUOUS
10
1.0563
20
0.76962
11
1.05911
21
0.772432
0
LINE
8
BLACK
6
CONTINUOUS
10
1.05911
20
0.772432
11
1.06176
21
0.773961
0
LINE
8
BLACK
6
CONTINUOUS
10
1.06176
20
0.773961
11
1.06481
21
0.773961
0
LINE
8
BLACK
6
CONTINUOUS
10
1.06481
20
0.773961
11
1.06746
21
0.772432
0
LINE
8
BLACK
6
CONTINUOUS
10
1.06746
20
0.772432
11
1.06899
21
0.769785
0
LINE
8
BLACK
6
CONTINUOUS
10
1.06899
20
0.769785
11
1.06899
21
0.766728
0
LINE
8
BLACK
6
CONTINUOUS
10
1.06899
20
0.766728
11
1.06746
21
0.764081
0
LINE
8
BLACK
6
CONTINUOUS
10
1.06746
20
0.764081
11
1.06533
21
0.761946
0
LINE
8
BLACK
6
CONTINUOUS
10
1.06533
20
0.761946
11
1.06357
21
0.758426
0
LINE
8
BLACK
6
CONTINUOUS
10
1.06357
20
0.758426
11
1.06357
21
0.747153
0
LINE
8
BLACK
6
CONTINUOUS
10
1.06357
20
0.747153
11
1.06533
21
0.743633
0
LINE
8
BLACK
6
CONTINUOUS
10
1.06533
20
0.743633
11
1.06678
21
0.742176
0
LINE
8
BLACK
6
CONTINUOUS
10
1.06678
20
0.742176
11
1.0703
21
0.740416
0
LINE
8
BLACK
6
CONTINUOUS
10
1.0703
20
0.740416
11
1.07357
21
0.740416
0
LINE
8
BLACK
6
CONTINUOUS
10
1.07357
20
0.740416
11
1.07978
21
0.742484
0
LINE
8
BLACK
6
CONTINUOUS
10
1.07978
20
0.742484
11
1.11254
21
0.775244
0
LINE
8
BLACK
6
CONTINUOUS
10
1.11254
20
0.775244
11
1.11321
21
0.775633
0
LINE
8
BLACK
6
CONTINUOUS
10
1.11321
20
0.775633
11
1.11376
21
0.776183
0
LINE
8
BLACK
6
CONTINUOUS
10
1.11376
20
0.776183
11
1.11451
21
0.776384
0
LINE
8
BLACK
6
CONTINUOUS
10
1.11451
20
0.776384
11
1.11519
21
0.776773
0
LINE
8
BLACK
6
CONTINUOUS
10
1.11519
20
0.776773
11
1.11596
21
0.776773
0
LINE
8
BLACK
6
CONTINUOUS
10
1.11596
20
0.776773
11
1.11672
21
0.776974
0
LINE
8
BLACK
6
CONTINUOUS
10
1.11672
20
0.776974
11
1.11747
21
0.776773
0
LINE
8
BLACK
6
CONTINUOUS
10
1.11967
20
0.79868
11
1.12183
21
0.796519
0
LINE
8
BLACK
6
CONTINUOUS
10
1.12183
20
0.796519
11
1.12262
21
0.793566
0
LINE
8
BLACK
6
CONTINUOUS
10
1.12262
20
0.793566
11
1.12183
21
0.790613
0
LINE
8
BLACK
6
CONTINUOUS
10
1.12183
20
0.790613
11
1.11967
21
0.788451
0
LINE
8
BLACK
6
CONTINUOUS
10
1.11967
20
0.788451
11
1.11672
21
0.78766
0
LINE
8
BLACK
6
CONTINUOUS
10
1.11672
20
0.78766
11
1.05766
21
0.78766
0
LINE
8
BLACK
6
CONTINUOUS
10
1.05766
20
0.78766
11
1.05471
21
0.788451
0
LINE
8
BLACK
6
CONTINUOUS
10
1.05471
20
0.788451
11
1.05255
21
0.790613
0
LINE
8
BLACK
6
CONTINUOUS
10
1.05255
20
0.790613
11
1.05175
21
0.793566
0
LINE
8
BLACK
6
CONTINUOUS
10
1.05175
20
0.793566
11
1.05255
21
0.796519
0
LINE
8
BLACK
6
CONTINUOUS
10
1.05255
20
0.796519
11
1.05471
21
0.79868
0
LINE
8
BLACK
6
CONTINUOUS
10
1.05471
20
0.79868
11
1.05766
21
0.799471
0
LINE
8
BLACK
6
CONTINUOUS
10
1.05766
20
0.799471
11
1.11672
21
0.799471
0
LINE
8
BLACK
6
CONTINUOUS
10
1.11672
20
0.799471
11
1.11967
21
0.79868
0
LINE
8
BLACK
6
CONTINUOUS
10
0.82
20
0.8
11
0.76
21
0.8
0
LINE
8
BLACK
6
CONTINUOUS
10
0.76
20
0.8
11
0.76
21
0.86
0
LINE
8
BLACK
6
CONTINUOUS
10
0.76
20
0.86
11
0.82
21
0.86
0
LINE
8
BLACK
6
CONTINUOUS
10
0.82
20
0.86
11
0.82
21
0.8
0
LINE
8
BLACK
6
CONTINUOUS
10
0.0898425
20
1.20585
11
0.0898425
21
1.00189
0
LINE
8
BLACK
6
CONTINUOUS
10
0.0898425
20
1.00189
11
0.106892
21
0.984843
0
LINE
8
BLACK
6
CONTINUOUS
10
0.106892
20
0.984843
11
0.1225
21
0.984843
0
LINE
8
BLACK
6
CONTINUOUS
10
0.1225
20
0.984843
11
0.1225
21
1.005
0
LINE
8
BLACK
6
CONTINUOUS
10
0.1225
20
1.005
11
0.1825
21
1.005
0
LINE
8
BLACK
6
CONTINUOUS
10
0.1825
20
1.005
11
0.1825
21
0.984843
0
LINE
8
BLACK
6
CONTINUOUS
10
0.1825
20
0.984843
11
0.2075
21
0.984843
0
LINE
8
BLACK
6
CONTINUOUS
10
0.2075
20
0.984843
11
0.211267
21
0.984093
0
LINE
8
BLACK
6
CONTINUOUS
10
0.211267
20
0.984093
11
0.21446
21
0.98196
0
LINE
8
BLACK
6
CONTINUOUS
10
0.21446
20
0.98196
11
0.256419
21
0.94
0
LINE
8
BLACK
6
CONTINUOUS
10
0.256419
20
0.94
11
0.2875
21
0.94
0
LINE
8
BLACK
6
CONTINUOUS
10
0.2875
20
0.94
11
0.2875
21
0.932343
0
LINE
8
BLACK
6
CONTINUOUS
10
0.2875
20
0.932343
11
0.32
21
0.932343
0
LINE
8
BLACK
6
CONTINUOUS
10
0.32
20
0.932343
11
0.32
21
0.9575
0
LINE
8
BLACK
6
CONTINUOUS
10
0.32
20
0.9575
11
0.355
21
0.9575
0
LINE
8
BLACK
6
CONTINUOUS
10
0.355
20
0.9575
11
0.355
21
0.9025
0
LINE
8
BLACK
6
CONTINUOUS
10
0.355
20
0.9025
11
0.32
21
0.9025
0
LINE
8
BLACK
6
CONTINUOUS
10
0.32
20
0.9025
11
0.32
21
0.912657
0
LINE
8
BLACK
6
CONTINUOUS
10
0.32
20
0.912657
11
0.2875
21
0.912657
0
LINE
8
BLACK
6
CONTINUOUS
10
0.2875
20
0.912657
11
0.2875
21
0.905
0
LINE
8
BLACK
6
CONTINUOUS
10
0.2875
20
0.905
11
0.2325
21
0.905
0
LINE
8
BLACK
6
CONTINUOUS
10
0.2325
20
0.905
11
0.2325
21
0.936081
0
LINE
8
BLACK
6
CONTINUOUS
10
0.2325
20
0.936081
11
0.203423
21
0.965157
0
LINE
8
BLACK
6
CONTINUOUS
10
0.203423
20
0.965157
11
0.1825
21
0.965157
0
LINE
8
BLACK
6
CONTINUOUS
10
0.1825
20
0.965157
11
0.1825
21
0.945
0
LINE
8
BLACK
6
CONTINUOUS
10
0.1825
20
0.945
11
0.162343
21
0.945
0
LINE
8
BLACK
6
CONTINUOUS
10
0.162343
20
0.945
11
0.162343
21
0.9
0
LINE
8
BLACK
6
CONTINUOUS
10
0.162343
20
0.9
11
0.161593
21
0.896233
0
LINE
8
BLACK
6
CONTINUOUS
10
0.161593
20
0.896233
11
0.15946
21
0.89304
0
LINE
8
BLACK
6
CONTINUOUS
10
0.15946
20
0.89304
11
0.15946
21
0.89304
0
LINE
8
BLACK
6
CONTINUOUS
10
0.15946
20
0.89304
11
0.1475
21
0.881081
0
LINE
8
BLACK
6
CONTINUOUS
10
0.1475
20
0.881081
11
0.1475
21
0.85
0
LINE
8
BLACK
6
CONTINUOUS
10
0.1475
20
0.85
11
0.0925
21
0.85
0
LINE
8
BLACK
6
CONTINUOUS
10
0.0925
20
0.85
11
0.0925
21
0.885
0
LINE
8
BLACK
6
CONTINUOUS
10
0.0925
20
0.885
11
0.123581
21
0.885
0
LINE
8
BLACK
6
CONTINUOUS
10
0.123581
20
0.885
11
0.142657
21
0.904077
0
LINE
8
BLACK
6
CONTINUOUS
10
0.142657
20
0.904077
11
0.142657
21
0.945
0
LINE
8
BLACK
6
CONTINUOUS
10
0.142657
20
0.945
11
0.1225
21
0.945
0
LINE
8
BLACK
6
CONTINUOUS
10
0.1225
20
0.945
11
0.1225
21
0.965157
0
LINE
8
BLACK
6
CONTINUOUS
10
0.1225
20
0.965157
11
0.102815
21
0.965157
0
LINE
8
BLACK
6
CONTINUOUS
10
0.102815
20
0.965157
11
0.102815
21
0.965157
0
LINE
8
BLACK
6
CONTINUOUS
10
0.102815
20
0.965157
11
0.0990484
21
0.965907
0
LINE
8
BLACK
6
CONTINUOUS
10
0.0990484
20
0.965907
11
0.0958552
21
0.96804
0
LINE
8
BLACK
6
CONTINUOUS
10
0.0958552
20
0.96804
11
0.0730403
21
0.990855
0
LINE
8
BLACK
6
CONTINUOUS
10
0.0730403
20
0.990855
11
0.0709067
21
0.994048
0
LINE
8
BLACK
6
CONTINUOUS
10
0.0709067
20
0.994048
11
0.0701575
21
0.997815
0
LINE
8
BLACK
6
CONTINUOUS
10
0.0701575
20
0.997815
11
0.0701575
21
1.20993
0
LINE
8
BLACK
6
CONTINUOUS
10
0.0701575
20
1.20993
11
0.0709067
21
1.21369
0
LINE
8
BLACK
6
CONTINUOUS
10
0.0709067
20
1.21369
11
0.0730403
21
1.21689
0
LINE
8
BLACK
6
CONTINUOUS
10
0.0730403
20
1.21689
11
0.0957902
21
1.23964
0
LINE
8
BLACK
6
CONTINUOUS
10
0.0957902
20
1.23964
11
0.0989834
21
1.24177
0
LINE
8
BLACK
6
CONTINUOUS
10
0.0989834
20
1.24177
11
0.10275
21
1.24252
0
LINE
8
BLACK
6
CONTINUOUS
10
0.10275
20
1.24252
11
0.10275
21
1.24252
0
LINE
8
BLACK
6
CONTINUOUS
10
0.10275
20
1.24252
11
0.290995
21
1.24252
0
LINE
8
BLACK
6
CONTINUOUS
10
0.290995
20
1.24252
11
0.294072
21
1.246
0
LINE
8
BLACK
6
CONTINUOUS
10
0.294072
20
1.246
11
0.298269
21
1.24865
0
LINE
8
BLACK
6
CONTINUOUS
10
0.298269
20
1.24865
11
0.303039
21
1.25002
0
LINE
8
BLACK
6
CONTINUOUS
10
0.303039
20
1.25002
11
0.308001
21
1.24998
0
LINE
8
BLACK
6
CONTINUOUS
10
0.308001
20
1.24998
11
0.312755
21
1.24856
0
LINE
8
BLACK
6
CONTINUOUS
10
0.312755
20
1.24856
11
0.316918
21
1.24586
0
LINE
8
BLACK
6
CONTINUOUS
10
0.316918
20
1.24586
11
0.320157
21
1.24211
0
LINE
8
BLACK
6
CONTINUOUS
10
0.320157
20
1.24211
11
0.322211
21
1.23759
0
LINE
8
BLACK
6
CONTINUOUS
10
0.322211
20
1.23759
11
0.322914
21
1.23268
0
LINE
8
BLACK
6
CONTINUOUS
10
0.322914
20
1.23268
11
0.322909
21
1.23225
0
LINE
8
BLACK
6
CONTINUOUS
10
0.322909
20
1.23225
11
0.322086
21
1.22736
0
LINE
8
BLACK
6
CONTINUOUS
10
0.322086
20
1.22736
11
0.319922
21
1.22289
0
LINE
8
BLACK
6
CONTINUOUS
10
0.319922
20
1.22289
11
0.316593
21
1.21921
0
LINE
8
BLACK
6
CONTINUOUS
10
0.316593
20
1.21921
11
0.312364
21
1.21662
0
LINE
8
BLACK
6
CONTINUOUS
10
0.312364
20
1.21662
11
0.307577
21
1.21531
0
LINE
8
BLACK
6
CONTINUOUS
10
0.307577
20
1.21531
11
0.302616
21
1.2154
0
LINE
8
BLACK
6
CONTINUOUS
10
0.302616
20
1.2154
11
0.29788
21
1.21688
0
LINE
8
BLACK
6
CONTINUOUS
10
0.29788
20
1.21688
11
0.29375
21
1.21963
0
LINE
8
BLACK
6
CONTINUOUS
10
0.29375
20
1.21963
11
0.291057
21
1.22283
0
LINE
8
BLACK
6
CONTINUOUS
10
0.291057
20
1.22283
11
0.106827
21
1.22283
0
LINE
8
BLACK
6
CONTINUOUS
10
0.106827
20
1.22283
11
0.0898425
21
1.20585
0
LINE
8
BLACK
6
CONTINUOUS
10
0.8775
20
0.895
11
0.8225
21
0.895
0
LINE
8
BLACK
6
CONTINUOUS
10
0.8225
20
0.895
11
0.8225
21
0.904626
0
LINE
8
BLACK
6
CONTINUOUS
10
0.8225
20
0.904626
11
0.7775
21
0.904626
0
LINE
8
BLACK
6
CONTINUOUS
10
0.7775
20
0.904626
11
0.7775
21
0.895
0
LINE
8
BLACK
6
CONTINUOUS
10
0.7775
20
0.895
11
0.7225
21
0.895
0
LINE
8
BLACK
6
CONTINUOUS
10
0.7225
20
0.895
11
0.7225
21
0.906594
0
LINE
8
BLACK
6
CONTINUOUS
10
0.7225
20
0.906594
11
0.6875
21
0.906594
0
LINE
8
BLACK
6
CONTINUOUS
10
0.6875
20
0.906594
11
0.686749
21
0.906796
0
LINE
8
BLACK
6
CONTINUOUS
10
0.686749
20
0.906796
11
0.685972
21
0.906796
0
LINE
8
BLACK
6
CONTINUOUS
10
0.685972
20
0.906796
11
0.685298
21
0.907184
0
LINE
8
BLACK
6
CONTINUOUS
10
0.685298
20
0.907184
11
0.684547
21
0.907386
0
LINE
8
BLACK
6
CONTINUOUS
10
0.684547
20
0.907386
11
0.683997
21
0.907935
0
LINE
8
BLACK
6
CONTINUOUS
10
0.683997
20
0.907935
11
0.683324
21
0.908324
0
LINE
8
BLACK
6
CONTINUOUS
10
0.683324
20
0.908324
11
0.661648
21
0.93
0
LINE
8
BLACK
6
CONTINUOUS
10
0.661648
20
0.93
11
0.642454
21
0.93
0
LINE
8
BLACK
6
CONTINUOUS
10
0.642454
20
0.93
11
0.641572
21
0.930128
0
LINE
8
BLACK
6
CONTINUOUS
10
0.641572
20
0.930128
11
0.641388
21
0.930115
0
LINE
8
BLACK
6
CONTINUOUS
10
0.641388
20
0.930115
11
0.64129
21
0.930169
0
LINE
8
BLACK
6
CONTINUOUS
10
0.64129
20
0.930169
11
0.641034
21
0.930206
0
LINE
8
BLACK
6
CONTINUOUS
10
0.641034
20
0.930206
11
0.639999
21
0.930874
0
LINE
8
BLACK
6
CONTINUOUS
10
0.639999
20
0.930874
11
0.638918
21
0.931464
0
LINE
8
BLACK
6
CONTINUOUS
10
0.638918
20
0.931464
11
0.623649
21
0.946733
0
LINE
8
BLACK
6
CONTINUOUS
10
0.623649
20
0.946733
11
0.623117
21
0.947447
0
LINE
8
BLACK
6
CONTINUOUS
10
0.623117
20
0.947447
11
0.622977
21
0.947567
0
LINE
8
BLACK
6
CONTINUOUS
10
0.622977
20
0.947567
11
0.622946
21
0.947675
0
LINE
8
BLACK
6
CONTINUOUS
10
0.622946
20
0.947675
11
0.622791
21
0.947883
0
LINE
8
BLACK
6
CONTINUOUS
10
0.622791
20
0.947883
11
0.622532
21
0.949087
0
LINE
8
BLACK
6
CONTINUOUS
10
0.622532
20
0.949087
11
0.622185
21
0.950269
0
LINE
8
BLACK
6
CONTINUOUS
10
0.622185
20
0.950269
11
0.622185
21
0.956181
0
LINE
8
BLACK
6
CONTINUOUS
10
0.622185
20
0.956181
11
0.62128
21
0.956181
0
LINE
8
BLACK
6
CONTINUOUS
10
0.62128
20
0.956181
11
0.62128
21
0.981772
0
LINE
8
BLACK
6
CONTINUOUS
10
0.62128
20
0.981772
11
0.633091
21
0.981772
0
LINE
8
BLACK
6
CONTINUOUS
10
0.633091
20
0.981772
11
0.633091
21
0.956181
0
LINE
8
BLACK
6
CONTINUOUS
10
0.633091
20
0.956181
11
0.632185
21
0.956181
0
LINE
8
BLACK
6
CONTINUOUS
10
0.632185
20
0.956181
11
0.632185
21
0.95234
0
LINE
8
BLACK
6
CONTINUOUS
10
0.632185
20
0.95234
11
0.644525
21
0.94
0
LINE
8
BLACK
6
CONTINUOUS
10
0.644525
20
0.94
11
0.662252
21
0.94
0
LINE
8
BLACK
6
CONTINUOUS
10
0.662252
20
0.94
11
0.663472
21
0.940704
0
LINE
8
BLACK
6
CONTINUOUS
10
0.663472
20
0.940704
11
0.666528
21
0.940704
0
LINE
8
BLACK
6
CONTINUOUS
10
0.666528
20
0.940704
11
0.669176
21
0.939176
0
LINE
8
BLACK
6
CONTINUOUS
10
0.669176
20
0.939176
11
0.689946
21
0.918406
0
LINE
8
BLACK
6
CONTINUOUS
10
0.689946
20
0.918406
11
0.7225
21
0.918406
0
LINE
8
BLACK
6
CONTINUOUS
10
0.7225
20
0.918406
11
0.7225
21
0.93
0
LINE
8
BLACK
6
CONTINUOUS
10
0.7225
20
0.93
11
0.7775
21
0.93
0
LINE
8
BLACK
6
CONTINUOUS
10
0.7775
20
0.93
11
0.7775
21
0.920374
0
LINE
8
BLACK
6
CONTINUOUS
10
0.7775
20
0.920374
11
0.8225
21
0.920374
0
LINE
8
BLACK
6
CONTINUOUS
10
0.8225
20
0.920374
11
0.8225
21
0.93
0
LINE
8
BLACK
6
CONTINUOUS
10
0.8225
20
0.93
11
0.8775
21
0.93
0
LINE
8
BLACK
6
CONTINUOUS
10
0.8775
20
0.93
11
0.8775
21
0.920374
0
LINE
8
BLACK
6
CONTINUOUS
10
0.8775
20
0.920374
11
0.934987
21
0.920374
0
LINE
8
BLACK
6
CONTINUOUS
10
0.934987
20
0.920374
11
1.03213
21
1.01751
0
LINE
8
BLACK
6
CONTINUOUS
10
1.03213
20
1.01751
11
1.03213
21
1.03
0
LINE
8
BLACK
6
CONTINUOUS
10
1.03213
20
1.03
11
1.01
21
1.03
0
LINE
8
BLACK
6
CONTINUOUS
10
1.01
20
1.03
11
1.01
21
1.09
0
LINE
8
BLACK
6
CONTINUOUS
10
1.01
20
1.09
11
1.03213
21
1.09
0
LINE
8
BLACK
6
CONTINUOUS
10
1.03213
20
1.09
11
1.03213
21
1.13
0
LINE
8
BLACK
6
CONTINUOUS
10
1.03213
20
1.13
11
1.01
21
1.13
0
LINE
8
BLACK
6
CONTINUOUS
10
1.01
20
1.13
11
1.01
21
1.19
0
LINE
8
BLACK
6
CONTINUOUS
10
1.01
20
1.19
11
1.07
21
1.19
0
LINE
8
BLACK
6
CONTINUOUS
10
1.07
20
1.19
11
1.07
21
1.13
0
LINE
8
BLACK
6
CONTINUOUS
10
1.07
20
1.13
11
1.04787
21
1.13
0
LINE
8
BLACK
6
CONTINUOUS
10
1.04787
20
1.13
11
1.04787
21
1.09
0
LINE
8
BLACK
6
CONTINUOUS
10
1.04787
20
1.09
11
1.07
21
1.09
0
LINE
8
BLACK
6
CONTINUOUS
10
1.07
20
1.09
11
1.07
21
1.03
0
LINE
8
BLACK
6
CONTINUOUS
10
1.07
20
1.03
11
1.04787
21
1.03
0
LINE
8
BLACK
6
CONTINUOUS
10
1.04787
20
1.03
11
1.04787
21
1.01424
0
LINE
8
BLACK
6
CONTINUOUS
10
1.04787
20
1.01424
11
1.04758
21
1.01296
0
LINE
8
BLACK
6
CONTINUOUS
10
1.04758
20
1.01296
11
1.04743
21
1.01165
0
LINE
8
BLACK
6
CONTINUOUS
10
1.04743
20
1.01165
11
1.04719
21
1.01127
0
LINE
8
BLACK
6
CONTINUOUS
10
1.04719
20
1.01127
11
1.04709
21
1.01082
0
LINE
8
BLACK
6
CONTINUOUS
10
1.04709
20
1.01082
11
1.04627
21
1.0098
0
LINE
8
BLACK
6
CONTINUOUS
10
1.04627
20
1.0098
11
1.04557
21
1.00868
0
LINE
8
BLACK
6
CONTINUOUS
10
1.04557
20
1.00868
11
0.943806
21
0.906923
0
LINE
8
BLACK
6
CONTINUOUS
10
0.943806
20
0.906923
11
0.942691
21
0.906224
0
LINE
8
BLACK
6
CONTINUOUS
10
0.942691
20
0.906224
11
0.941663
21
0.905405
0
LINE
8
BLACK
6
CONTINUOUS
10
0.941663
20
0.905405
11
0.941221
21
0.905304
0
LINE
8
BLACK
6
CONTINUOUS
10
0.941221
20
0.905304
11
0.940838
21
0.905064
0
LINE
8
BLACK
6
CONTINUOUS
10
0.940838
20
0.905064
11
0.93953
21
0.904918
0
LINE
8
BLACK
6
CONTINUOUS
10
0.93953
20
0.904918
11
0.938248
21
0.904626
0
LINE
8
BLACK
6
CONTINUOUS
10
0.938248
20
0.904626
11
0.8775
21
0.904626
0
LINE
8
BLACK
6
CONTINUOUS
10
0.8775
20
0.904626
11
0.8775
21
0.895
0
LINE
8
BLACK
6
CONTINUOUS
10
0.613406
20
0.956181
11
0.6125
21
0.956181
0
LINE
8
BLACK
6
CONTINUOUS
10
0.6125
20
0.956181
11
0.6125
21
0.928251
0
LINE
8
BLACK
6
CONTINUOUS
10
0.6125
20
0.928251
11
0.612854
21
0.928475
0
LINE
8
BLACK
6
CONTINUOUS
10
0.612854
20
0.928475
11
0.617625
21
0.929838
0
LINE
8
BLACK
6
CONTINUOUS
10
0.617625
20
0.929838
11
0.622587
21
0.929808
0
LINE
8
BLACK
6
CONTINUOUS
10
0.622587
20
0.929808
11
0.62734
21
0.928386
0
LINE
8
BLACK
6
CONTINUOUS
10
0.62734
20
0.928386
11
0.631504
21
0.925687
0
LINE
8
BLACK
6
CONTINUOUS
10
0.631504
20
0.925687
11
0.634743
21
0.921929
0
LINE
8
BLACK
6
CONTINUOUS
10
0.634743
20
0.921929
11
0.636797
21
0.917412
0
LINE
8
BLACK
6
CONTINUOUS
10
0.636797
20
0.917412
11
0.6375
21
0.9125
0
LINE
8
BLACK
6
CONTINUOUS
10
0.6375
20
0.9125
11
0.637495
21
0.912072
0
LINE
8
BLACK
6
CONTINUOUS
10
0.637495
20
0.912072
11
0.636672
21
0.907179
0
LINE
8
BLACK
6
CONTINUOUS
10
0.636672
20
0.907179
11
0.634508
21
0.902714
0
LINE
8
BLACK
6
CONTINUOUS
10
0.634508
20
0.902714
11
0.631178
21
0.899036
0
LINE
8
BLACK
6
CONTINUOUS
10
0.631178
20
0.899036
11
0.62695
21
0.896439
0
LINE
8
BLACK
6
CONTINUOUS
10
0.62695
20
0.896439
11
0.622163
21
0.895134
0
LINE
8
BLACK
6
CONTINUOUS
10
0.622163
20
0.895134
11
0.617202
21
0.895225
0
LINE
8
BLACK
6
CONTINUOUS
10
0.617202
20
0.895225
11
0.612466
21
0.896705
0
LINE
8
BLACK
6
CONTINUOUS
10
0.612466
20
0.896705
11
0.608336
21
0.899454
0
LINE
8
BLACK
6
CONTINUOUS
10
0.608336
20
0.899454
11
0.605143
21
0.903252
0
LINE
8
BLACK
6
CONTINUOUS
10
0.605143
20
0.903252
11
0.603145
21
0.907794
0
LINE
8
BLACK
6
CONTINUOUS
10
0.603145
20
0.907794
11
0.602501
21
0.912714
0
LINE
8
BLACK
6
CONTINUOUS
10
0.602501
20
0.912714
11
0.603265
21
0.917616
0
LINE
8
BLACK
6
CONTINUOUS
10
0.603265
20
0.917616
11
0.604718
21
0.920711
0
LINE
8
BLACK
6
CONTINUOUS
10
0.604718
20
0.920711
11
0.603964
21
0.921464
0
LINE
8
BLACK
6
CONTINUOUS
10
0.603964
20
0.921464
11
0.603432
21
0.922178
0
LINE
8
BLACK
6
CONTINUOUS
10
0.603432
20
0.922178
11
0.603292
21
0.922299
0
LINE
8
BLACK
6
CONTINUOUS
10
0.603292
20
0.922299
11
0.603261
21
0.922407
0
LINE
8
BLACK
6
CONTINUOUS
10
0.603261
20
0.922407
11
0.603106
21
0.922614
0
LINE
8
BLACK
6
CONTINUOUS
10
0.603106
20
0.922614
11
0.602847
21
0.923818
0
LINE
8
BLACK
6
CONTINUOUS
10
0.602847
20
0.923818
11
0.6025
21
0.925
0
LINE
8
BLACK
6
CONTINUOUS
10
0.6025
20
0.925
11
0.6025
21
0.956181
0
LINE
8
BLACK
6
CONTINUOUS
10
0.6025
20
0.956181
11
0.601594
21
0.956181
0
LINE
8
BLACK
6
CONTINUOUS
10
0.601594
20
0.956181
11
0.601594
21
0.981772
0
LINE
8
BLACK
6
CONTINUOUS
10
0.601594
20
0.981772
11
0.613406
21
0.981772
0
LINE
8
BLACK
6
CONTINUOUS
10
0.613406
20
0.981772
11
0.613406
21
0.956181
0
LINE
8
BLACK
6
CONTINUOUS
10
0.652776
20
0.971423
11
0.663607
21
0.960591
0
LINE
8
BLACK
6
CONTINUOUS
10
0.663607
20
0.960591
11
0.770314
21
0.960591
0
LINE
8
BLACK
6
CONTINUOUS
10
0.770314
20
0.960591
11
0.771065
21
0.96039
0
LINE
8
BLACK
6
CONTINUOUS
10
0.771065
20
0.96039
11
0.771842
21
0.96039
0
LINE
8
BLACK
6
CONTINUOUS
10
0.771842
20
0.96039
11
0.772516
21
0.960001
0
LINE
8
BLACK
6
CONTINUOUS
10
0.772516
20
0.960001
11
0.773266
21
0.9598
0
LINE
8
BLACK
6
CONTINUOUS
10
0.773266
20
0.9598
11
0.773816
21
0.95925
0
LINE
8
BLACK
6
CONTINUOUS
10
0.773816
20
0.95925
11
0.77449
21
0.958861
0
LINE
8
BLACK
6
CONTINUOUS
10
0.77449
20
0.958861
11
0.780932
21
0.952419
0
LINE
8
BLACK
6
CONTINUOUS
10
0.780932
20
0.952419
11
0.78687
21
0.952419
0
LINE
8
BLACK
6
CONTINUOUS
10
0.78687
20
0.952419
11
0.788608
21
0.956121
0
LINE
8
BLACK
6
CONTINUOUS
10
0.788608
20
0.956121
11
0.791892
21
0.95984
0
LINE
8
BLACK
6
CONTINUOUS
10
0.791892
20
0.95984
11
0.796089
21
0.962488
0
LINE
8
BLACK
6
CONTINUOUS
10
0.796089
20
0.962488
11
0.80086
21
0.963851
0
LINE
8
BLACK
6
CONTINUOUS
10
0.80086
20
0.963851
11
0.805821
21
0.963821
0
LINE
8
BLACK
6
CONTINUOUS
10
0.805821
20
0.963821
11
0.810575
21
0.962399
0
LINE
8
BLACK
6
CONTINUOUS
10
0.810575
20
0.962399
11
0.814739
21
0.959701
0
LINE
8
BLACK
6
CONTINUOUS
10
0.814739
20
0.959701
11
0.817977
21
0.955942
0
LINE
8
BLACK
6
CONTINUOUS
10
0.817977
20
0.955942
11
0.820031
21
0.951425
0
LINE
8
BLACK
6
CONTINUOUS
10
0.820031
20
0.951425
11
0.820735
21
0.946513
0
LINE
8
BLACK
6
CONTINUOUS
10
0.820735
20
0.946513
11
0.820729
21
0.946086
0
LINE
8
BLACK
6
CONTINUOUS
10
0.820729
20
0.946086
11
0.819906
21
0.941193
0
LINE
8
BLACK
6
CONTINUOUS
10
0.819906
20
0.941193
11
0.817743
21
0.936727
0
LINE
8
BLACK
6
CONTINUOUS
10
0.817743
20
0.936727
11
0.814413
21
0.933049
0
LINE
8
BLACK
6
CONTINUOUS
10
0.814413
20
0.933049
11
0.810185
21
0.930453
0
LINE
8
BLACK
6
CONTINUOUS
10
0.810185
20
0.930453
11
0.805398
21
0.929147
0
LINE
8
BLACK
6
CONTINUOUS
10
0.805398
20
0.929147
11
0.800437
21
0.929238
0
LINE
8
BLACK
6
CONTINUOUS
10
0.800437
20
0.929238
11
0.795701
21
0.930718
0
LINE
8
BLACK
6
CONTINUOUS
10
0.795701
20
0.930718
11
0.79157
21
0.933467
0
LINE
8
BLACK
6
CONTINUOUS
10
0.79157
20
0.933467
11
0.788378
21
0.937266
0
LINE
8
BLACK
6
CONTINUOUS
10
0.788378
20
0.937266
11
0.786907
21
0.940608
0
LINE
8
BLACK
6
CONTINUOUS
10
0.786907
20
0.940608
11
0.778486
21
0.940608
0
LINE
8
BLACK
6
CONTINUOUS
10
0.778486
20
0.940608
11
0.777735
21
0.940809
0
LINE
8
BLACK
6
CONTINUOUS
10
0.777735
20
0.940809
11
0.776957
21
0.940809
0
LINE
8
BLACK
6
CONTINUOUS
10
0.776957
20
0.940809
11
0.776284
21
0.941198
0
LINE
8
BLACK
6
CONTINUOUS
10
0.776284
20
0.941198
11
0.775533
21
0.941399
0
LINE
8
BLACK
6
CONTINUOUS
10
0.775533
20
0.941399
11
0.774983
21
0.941949
0
LINE
8
BLACK
6
CONTINUOUS
10
0.774983
20
0.941949
11
0.77431
21
0.942337
0
LINE
8
BLACK
6
CONTINUOUS
10
0.77431
20
0.942337
11
0.767868
21
0.94878
0
LINE
8
BLACK
6
CONTINUOUS
10
0.767868
20
0.94878
11
0.661161
21
0.94878
0
LINE
8
BLACK
6
CONTINUOUS
10
0.661161
20
0.94878
11
0.66041
21
0.948981
0
LINE
8
BLACK
6
CONTINUOUS
10
0.66041
20
0.948981
11
0.659633
21
0.948981
0
LINE
8
BLACK
6
CONTINUOUS
10
0.659633
20
0.948981
11
0.658959
21
0.94937
0
LINE
8
BLACK
6
CONTINUOUS
10
0.658959
20
0.94937
11
0.658208
21
0.949571
0
LINE
8
BLACK
6
CONTINUOUS
10
0.658208
20
0.949571
11
0.657659
21
0.950121
0
LINE
8
BLACK
6
CONTINUOUS
10
0.657659
20
0.950121
11
0.656985
21
0.95051
0
LINE
8
BLACK
6
CONTINUOUS
10
0.656985
20
0.95051
11
0.651314
21
0.956181
0
LINE
8
BLACK
6
CONTINUOUS
10
0.651314
20
0.956181
11
0.640965
21
0.956181
0
LINE
8
BLACK
6
CONTINUOUS
10
0.640965
20
0.956181
11
0.640965
21
0.981772
0
LINE
8
BLACK
6
CONTINUOUS
10
0.640965
20
0.981772
11
0.652776
21
0.981772
0
LINE
8
BLACK
6
CONTINUOUS
10
0.652776
20
0.981772
11
0.652776
21
0.971423
0
LINE
8
BLACK
6
CONTINUOUS
10
0.346569
20
1.10946
11
0.356028
21
1.1
0
LINE
8
BLACK
6
CONTINUOUS
10
0.356028
20
1.1
11
0.3975
21
1.1
0
LINE
8
BLACK
6
CONTINUOUS
10
0.3975
20
1.1
11
0.3975
21
1.065
0
LINE
8
BLACK
6
CONTINUOUS
10
0.3975
20
1.065
11
0.3425
21
1.065
0
LINE
8
BLACK
6
CONTINUOUS
10
0.3425
20
1.065
11
0.3425
21
1.08569
0
LINE
8
BLACK
6
CONTINUOUS
10
0.3425
20
1.08569
11
0.335532
21
1.09266
0
LINE
8
BLACK
6
CONTINUOUS
10
0.335532
20
1.09266
11
0.2714
21
1.09266
0
LINE
8
BLACK
6
CONTINUOUS
10
0.2714
20
1.09266
11
0.2714
21
1.08675
0
LINE
8
BLACK
6
CONTINUOUS
10
0.2714
20
1.08675
11
0.269843
21
1.08675
0
LINE
8
BLACK
6
CONTINUOUS
10
0.269843
20
1.08675
11
0.269843
21
1.015
0
LINE
8
BLACK
6
CONTINUOUS
10
0.269843
20
1.015
11
0.2875
21
1.015
0
LINE
8
BLACK
6
CONTINUOUS
10
0.2875
20
1.015
11
0.2875
21
0.98
0
LINE
8
BLACK
6
CONTINUOUS
10
0.2875
20
0.98
11
0.2325
21
0.98
0
LINE
8
BLACK
6
CONTINUOUS
10
0.2325
20
0.98
11
0.2325
21
1.015
0
LINE
8
BLACK
6
CONTINUOUS
10
0.2325
20
1.015
11
0.250157
21
1.015
0
LINE
8
BLACK
6
CONTINUOUS
10
0.250157
20
1.015
11
0.250157
21
1.08675
0
LINE
8
BLACK
6
CONTINUOUS
10
0.250157
20
1.08675
11
0.232
21
1.08675
0
LINE
8
BLACK
6
CONTINUOUS
10
0.232
20
1.08675
11
0.232
21
1.09266
0
LINE
8
BLACK
6
CONTINUOUS
10
0.232
20
1.09266
11
0.225
21
1.09266
0
LINE
8
BLACK
6
CONTINUOUS
10
0.225
20
1.09266
11
0.221233
21
1.09341
0
LINE
8
BLACK
6
CONTINUOUS
10
0.221233
20
1.09341
11
0.21804
21
1.09554
0
LINE
8
BLACK
6
CONTINUOUS
10
0.21804
20
1.09554
11
0.168581
21
1.145
0
LINE
8
BLACK
6
CONTINUOUS
10
0.168581
20
1.145
11
0.1225
21
1.145
0
LINE
8
BLACK
6
CONTINUOUS
10
0.1225
20
1.145
11
0.1225
21
1.205
0
LINE
8
BLACK
6
CONTINUOUS
10
0.1225
20
1.205
11
0.1825
21
1.205
0
LINE
8
BLACK
6
CONTINUOUS
10
0.1825
20
1.205
11
0.1825
21
1.15892
0
LINE
8
BLACK
6
CONTINUOUS
10
0.1825
20
1.15892
11
0.229077
21
1.11234
0
LINE
8
BLACK
6
CONTINUOUS
10
0.229077
20
1.11234
11
0.232
21
1.11234
0
LINE
8
BLACK
6
CONTINUOUS
10
0.232
20
1.11234
11
0.232
21
1.11825
0
LINE
8
BLACK
6
CONTINUOUS
10
0.232
20
1.11825
11
0.2714
21
1.11825
0
LINE
8
BLACK
6
CONTINUOUS
10
0.2714
20
1.11825
11
0.2714
21
1.11234
0
LINE
8
BLACK
6
CONTINUOUS
10
0.2714
20
1.11234
11
0.339609
21
1.11234
0
LINE
8
BLACK
6
CONTINUOUS
10
0.339609
20
1.11234
11
0.343376
21
1.11159
0
LINE
8
BLACK
6
CONTINUOUS
10
0.343376
20
1.11159
11
0.346569
21
1.10946
0
LINE
8
BLACK
6
CONTINUOUS
10
0.697587
20
1.10731
11
0.70234
21
1.10589
0
LINE
8
BLACK
6
CONTINUOUS
10
0.70234
20
1.10589
11
0.706504
21
1.10319
0
LINE
8
BLACK
6
CONTINUOUS
10
0.706504
20
1.10319
11
0.709743
21
1.09943
0
LINE
8
BLACK
6
CONTINUOUS
10
0.709743
20
1.09943
11
0.711797
21
1.09491
0
LINE
8
BLACK
6
CONTINUOUS
10
0.711797
20
1.09491
11
0.7125
21
1.09
0
LINE
8
BLACK
6
CONTINUOUS
10
0.7125
20
1.09
11
0.712495
21
1.08957
0
LINE
8
BLACK
6
CONTINUOUS
10
0.712495
20
1.08957
11
0.711672
21
1.08468
0
LINE
8
BLACK
6
CONTINUOUS
10
0.711672
20
1.08468
11
0.709508
21
1.08021
0
LINE
8
BLACK
6
CONTINUOUS
10
0.709508
20
1.08021
11
0.706178
21
1.07654
0
LINE
8
BLACK
6
CONTINUOUS
10
0.706178
20
1.07654
11
0.70195
21
1.07394
0
LINE
8
BLACK
6
CONTINUOUS
10
0.70195
20
1.07394
11
0.697163
21
1.07263
0
LINE
8
BLACK
6
CONTINUOUS
10
0.697163
20
1.07263
11
0.692202
21
1.07273
0
LINE
8
BLACK
6
CONTINUOUS
10
0.692202
20
1.07273
11
0.687466
21
1.0742
0
LINE
8
BLACK
6
CONTINUOUS
10
0.687466
20
1.0742
11
0.683336
21
1.07695
0
LINE
8
BLACK
6
CONTINUOUS
10
0.683336
20
1.07695
11
0.680143
21
1.08075
0
LINE
8
BLACK
6
CONTINUOUS
10
0.680143
20
1.08075
11
0.678672
21
1.08409
0
LINE
8
BLACK
6
CONTINUOUS
10
0.678672
20
1.08409
11
0.652776
21
1.08409
0
LINE
8
BLACK
6
CONTINUOUS
10
0.652776
20
1.08409
11
0.652776
21
1.07823
0
LINE
8
BLACK
6
CONTINUOUS
10
0.652776
20
1.07823
11
0.640965
21
1.07823
0
LINE
8
BLACK
6
CONTINUOUS
10
0.640965
20
1.07823
11
0.640965
21
1.10382
0
LINE
8
BLACK
6
CONTINUOUS
10
0.640965
20
1.10382
11
0.652776
21
1.10382
0
LINE
8
BLACK
6
CONTINUOUS
10
0.652776
20
1.10382
11
0.652776
21
1.09591
0
LINE
8
BLACK
6
CONTINUOUS
10
0.652776
20
1.09591
11
0.678635
21
1.09591
0
LINE
8
BLACK
6
CONTINUOUS
10
0.678635
20
1.09591
11
0.680373
21
1.09961
0
LINE
8
BLACK
6
CONTINUOUS
10
0.680373
20
1.09961
11
0.683658
21
1.10333
0
LINE
8
BLACK
6
CONTINUOUS
10
0.683658
20
1.10333
11
0.687854
21
1.10597
0
LINE
8
BLACK
6
CONTINUOUS
10
0.687854
20
1.10597
11
0.692625
21
1.10734
0
LINE
8
BLACK
6
CONTINUOUS
10
0.692625
20
1.10734
11
0.697587
21
1.10731
0
LINE
8
BLACK
6
CONTINUOUS
10
0.97
20
1.13
11
0.945906
21
1.13
0
LINE
8
BLACK
6
CONTINUOUS
10
0.945906
20
1.13
11
0.945906
21
1.11819
0
LINE
8
BLACK
6
CONTINUOUS
10
0.945906
20
1.11819
11
0.945704
21
1.11744
0
LINE
8
BLACK
6
CONTINUOUS
10
0.945704
20
1.11744
11
0.945704
21
1.11666
0
LINE
8
BLACK
6
CONTINUOUS
10
0.945704
20
1.11666
11
0.945316
21
1.11599
0
LINE
8
BLACK
6
CONTINUOUS
10
0.945316
20
1.11599
11
0.945114
21
1.11524
0
LINE
8
BLACK
6
CONTINUOUS
10
0.945114
20
1.11524
11
0.944565
21
1.11469
0
LINE
8
BLACK
6
CONTINUOUS
10
0.944565
20
1.11469
11
0.944176
21
1.11401
0
LINE
8
BLACK
6
CONTINUOUS
10
0.944176
20
1.11401
11
0.942207
21
1.11204
0
LINE
8
BLACK
6
CONTINUOUS
10
0.942207
20
1.11204
11
0.941534
21
1.11166
0
LINE
8
BLACK
6
CONTINUOUS
10
0.941534
20
1.11166
11
0.940984
21
1.11111
0
LINE
8
BLACK
6
CONTINUOUS
10
0.940984
20
1.11111
11
0.940233
21
1.1109
0
LINE
8
BLACK
6
CONTINUOUS
10
0.940233
20
1.1109
11
0.93956
21
1.11052
0
LINE
8
BLACK
6
CONTINUOUS
10
0.93956
20
1.11052
11
0.938782
21
1.11052
0
LINE
8
BLACK
6
CONTINUOUS
10
0.938782
20
1.11052
11
0.938031
21
1.11031
0
LINE
8
BLACK
6
CONTINUOUS
10
0.938031
20
1.11031
11
0.78878
21
1.11031
0
LINE
8
BLACK
6
CONTINUOUS
10
0.78878
20
1.11031
11
0.788029
21
1.11052
0
LINE
8
BLACK
6
CONTINUOUS
10
0.788029
20
1.11052
11
0.787251
21
1.11052
0
LINE
8
BLACK
6
CONTINUOUS
10
0.787251
20
1.11052
11
0.786578
21
1.1109
0
LINE
8
BLACK
6
CONTINUOUS
10
0.786578
20
1.1109
11
0.785827
21
1.11111
0
LINE
8
BLACK
6
CONTINUOUS
10
0.785827
20
1.11111
11
0.785277
21
1.11166
0
LINE
8
BLACK
6
CONTINUOUS
10
0.785277
20
1.11166
11
0.784604
21
1.11204
0
LINE
8
BLACK
6
CONTINUOUS
10
0.784604
20
1.11204
11
0.757554
21
1.13909
0
LINE
8
BLACK
6
CONTINUOUS
10
0.757554
20
1.13909
11
0.649282
21
1.13909
0
LINE
8
BLACK
6
CONTINUOUS
10
0.649282
20
1.13909
11
0.633091
21
1.1229
0
LINE
8
BLACK
6
CONTINUOUS
10
0.633091
20
1.1229
11
0.633091
21
1.11719
0
LINE
8
BLACK
6
CONTINUOUS
10
0.633091
20
1.11719
11
0.632299
21
1.11423
0
LINE
8
BLACK
6
CONTINUOUS
10
0.632299
20
1.11423
11
0.632185
21
1.11412
0
LINE
8
BLACK
6
CONTINUOUS
10
0.632185
20
1.11412
11
0.632185
21
1.10382
0
LINE
8
BLACK
6
CONTINUOUS
10
0.632185
20
1.10382
11
0.633091
21
1.10382
0
LINE
8
BLACK
6
CONTINUOUS
10
0.633091
20
1.10382
11
0.633091
21
1.07823
0
LINE
8
BLACK
6
CONTINUOUS
10
0.633091
20
1.07823
11
0.62128
21
1.07823
0
LINE
8
BLACK
6
CONTINUOUS
10
0.62128
20
1.07823
11
0.62128
21
1.10382
0
LINE
8
BLACK
6
CONTINUOUS
10
0.62128
20
1.10382
11
0.622185
21
1.10382
0
LINE
8
BLACK
6
CONTINUOUS
10
0.622185
20
1.10382
11
0.622185
21
1.11412
0
LINE
8
BLACK
6
CONTINUOUS
10
0.622185
20
1.11412
11
0.622071
21
1.11423
0
LINE
8
BLACK
6
CONTINUOUS
10
0.622071
20
1.11423
11
0.62128
21
1.11719
0
LINE
8
BLACK
6
CONTINUOUS
10
0.62128
20
1.11719
11
0.62128
21
1.12535
0
LINE
8
BLACK
6
CONTINUOUS
10
0.62128
20
1.12535
11
0.621481
21
1.1261
0
LINE
8
BLACK
6
CONTINUOUS
10
0.621481
20
1.1261
11
0.621481
21
1.12688
0
LINE
8
BLACK
6
CONTINUOUS
10
0.621481
20
1.12688
11
0.621869
21
1.12755
0
LINE
8
BLACK
6
CONTINUOUS
10
0.621869
20
1.12755
11
0.622071
21
1.1283
0
LINE
8
BLACK
6
CONTINUOUS
10
0.622071
20
1.1283
11
0.62262
21
1.12885
0
LINE
8
BLACK
6
CONTINUOUS
10
0.62262
20
1.12885
11
0.623009
21
1.12953
0
LINE
8
BLACK
6
CONTINUOUS
10
0.623009
20
1.12953
11
0.64266
21
1.14918
0
LINE
8
BLACK
6
CONTINUOUS
10
0.64266
20
1.14918
11
0.643333
21
1.14956
0
LINE
8
BLACK
6
CONTINUOUS
10
0.643333
20
1.14956
11
0.643883
21
1.15011
0
LINE
8
BLACK
6
CONTINUOUS
10
0.643883
20
1.15011
11
0.644634
21
1.15032
0
LINE
8
BLACK
6
CONTINUOUS
10
0.644634
20
1.15032
11
0.645307
21
1.1507
0
LINE
8
BLACK
6
CONTINUOUS
10
0.645307
20
1.1507
11
0.646084
21
1.1507
0
LINE
8
BLACK
6
CONTINUOUS
10
0.646084
20
1.1507
11
0.646835
21
1.15091
0
LINE
8
BLACK
6
CONTINUOUS
10
0.646835
20
1.15091
11
0.76
21
1.15091
0
LINE
8
BLACK
6
CONTINUOUS
10
0.76
20
1.15091
11
0.760751
21
1.1507
0
LINE
8
BLACK
6
CONTINUOUS
10
0.760751
20
1.1507
11
0.761528
21
1.1507
0
LINE
8
BLACK
6
CONTINUOUS
10
0.761528
20
1.1507
11
0.762202
21
1.15032
0
LINE
8
BLACK
6
CONTINUOUS
10
0.762202
20
1.15032
11
0.762953
21
1.15011
0
LINE
8
BLACK
6
CONTINUOUS
10
0.762953
20
1.15011
11
0.763503
21
1.14956
0
LINE
8
BLACK
6
CONTINUOUS
10
0.763503
20
1.14956
11
0.764176
21
1.14918
0
LINE
8
BLACK
6
CONTINUOUS
10
0.764176
20
1.14918
11
0.791226
21
1.12213
0
LINE
8
BLACK
6
CONTINUOUS
10
0.791226
20
1.12213
11
0.934094
21
1.12213
0
LINE
8
BLACK
6
CONTINUOUS
10
0.934094
20
1.12213
11
0.934094
21
1.13
0
LINE
8
BLACK
6
CONTINUOUS
10
0.934094
20
1.13
11
0.91
21
1.13
0
LINE
8
BLACK
6
CONTINUOUS
10
0.91
20
1.13
11
0.91
21
1.19
0
LINE
8
BLACK
6
CONTINUOUS
10
0.91
20
1.19
11
0.97
21
1.19
0
LINE
8
BLACK
6
CONTINUOUS
10
0.97
20
1.19
11
0.97
21
1.13
0
LINE
8
BLACK
6
CONTINUOUS
10
0.73
20
1.4175
11
0.707874
21
1.4175
0
LINE
8
BLACK
6
CONTINUOUS
10
0.707874
20
1.4175
11
0.707874
21
1.3775
0
LINE
8
BLACK
6
CONTINUOUS
10
0.707874
20
1.3775
11
0.73
21
1.3775
0
LINE
8
BLACK
6
CONTINUOUS
10
0.73
20
1.3775
11
0.73
21
1.3175
0
LINE
8
BLACK
6
CONTINUOUS
10
0.73
20
1.3175
11
0.705374
21
1.3175
0
LINE
8
BLACK
6
CONTINUOUS
10
0.705374
20
1.3175
11
0.705374
21
1.2475
0
LINE
8
BLACK
6
CONTINUOUS
10
0.705374
20
1.2475
11
0.715
21
1.2475
0
LINE
8
BLACK
6
CONTINUOUS
10
0.715
20
1.2475
11
0.715
21
1.1925
0
LINE
8
BLACK
6
CONTINUOUS
10
0.715
20
1.1925
11
0.688352
21
1.1925
0
LINE
8
BLACK
6
CONTINUOUS
10
0.688352
20
1.1925
11
0.674176
21
1.17832
0
LINE
8
BLACK
6
CONTINUOUS
10
0.674176
20
1.17832
11
0.673503
21
1.17794
0
LINE
8
BLACK
6
CONTINUOUS
10
0.673503
20
1.17794
11
0.672953
21
1.17739
0
LINE
8
BLACK
6
CONTINUOUS
10
0.672953
20
1.17739
11
0.672202
21
1.17718
0
LINE
8
BLACK
6
CONTINUOUS
10
0.672202
20
1.17718
11
0.671528
21
1.1768
0
LINE
8
BLACK
6
CONTINUOUS
10
0.671528
20
1.1768
11
0.670751
21
1.1768
0
LINE
8
BLACK
6
CONTINUOUS
10
0.670751
20
1.1768
11
0.67
21
1.17659
0
LINE
8
BLACK
6
CONTINUOUS
10
0.67
20
1.17659
11
0.658942
21
1.17659
0
LINE
8
BLACK
6
CONTINUOUS
10
0.658942
20
1.17659
11
0.595796
21
1.11345
0
LINE
8
BLACK
6
CONTINUOUS
10
0.595796
20
1.11345
11
0.593148
21
1.11192
0
LINE
8
BLACK
6
CONTINUOUS
10
0.593148
20
1.11192
11
0.592987
21
1.11192
0
LINE
8
BLACK
6
CONTINUOUS
10
0.592987
20
1.11192
11
0.592815
21
1.11175
0
LINE
8
BLACK
6
CONTINUOUS
10
0.592815
20
1.11175
11
0.592815
21
1.10382
0
LINE
8
BLACK
6
CONTINUOUS
10
0.592815
20
1.10382
11
0.59372
21
1.10382
0
LINE
8
BLACK
6
CONTINUOUS
10
0.59372
20
1.10382
11
0.59372
21
1.07823
0
LINE
8
BLACK
6
CONTINUOUS
10
0.59372
20
1.07823
11
0.581909
21
1.07823
0
LINE
8
BLACK
6
CONTINUOUS
10
0.581909
20
1.07823
11
0.581909
21
1.10382
0
LINE
8
BLACK
6
CONTINUOUS
10
0.581909
20
1.10382
11
0.582815
21
1.10382
0
LINE
8
BLACK
6
CONTINUOUS
10
0.582815
20
1.10382
11
0.582815
21
1.11382
0
LINE
8
BLACK
6
CONTINUOUS
10
0.582815
20
1.11382
11
0.582943
21
1.1147
0
LINE
8
BLACK
6
CONTINUOUS
10
0.582943
20
1.1147
11
0.58293
21
1.11488
0
LINE
8
BLACK
6
CONTINUOUS
10
0.58293
20
1.11488
11
0.582984
21
1.11498
0
LINE
8
BLACK
6
CONTINUOUS
10
0.582984
20
1.11498
11
0.583021
21
1.11524
0
LINE
8
BLACK
6
CONTINUOUS
10
0.583021
20
1.11524
11
0.583689
21
1.11627
0
LINE
8
BLACK
6
CONTINUOUS
10
0.583689
20
1.11627
11
0.584279
21
1.11735
0
LINE
8
BLACK
6
CONTINUOUS
10
0.584279
20
1.11735
11
0.585916
21
1.11899
0
LINE
8
BLACK
6
CONTINUOUS
10
0.585916
20
1.11899
11
0.585916
21
1.11915
0
LINE
8
BLACK
6
CONTINUOUS
10
0.585916
20
1.11915
11
0.587444
21
1.1218
0
LINE
8
BLACK
6
CONTINUOUS
10
0.587444
20
1.1218
11
0.65232
21
1.18668
0
LINE
8
BLACK
6
CONTINUOUS
10
0.65232
20
1.18668
11
0.652994
21
1.18706
0
LINE
8
BLACK
6
CONTINUOUS
10
0.652994
20
1.18706
11
0.653543
21
1.18761
0
LINE
8
BLACK
6
CONTINUOUS
10
0.653543
20
1.18761
11
0.654294
21
1.18782
0
LINE
8
BLACK
6
CONTINUOUS
10
0.654294
20
1.18782
11
0.654968
21
1.1882
0
LINE
8
BLACK
6
CONTINUOUS
10
0.654968
20
1.1882
11
0.655745
21
1.1882
0
LINE
8
BLACK
6
CONTINUOUS
10
0.655745
20
1.1882
11
0.656496
21
1.18841
0
LINE
8
BLACK
6
CONTINUOUS
10
0.656496
20
1.18841
11
0.667554
21
1.18841
0
LINE
8
BLACK
6
CONTINUOUS
10
0.667554
20
1.18841
11
0.68
21
1.20085
0
LINE
8
BLACK
6
CONTINUOUS
10
0.68
20
1.20085
11
0.68
21
1.2475
0
LINE
8
BLACK
6
CONTINUOUS
10
0.68
20
1.2475
11
0.689626
21
1.2475
0
LINE
8
BLACK
6
CONTINUOUS
10
0.689626
20
1.2475
11
0.689626
21
1.3175
0
LINE
8
BLACK
6
CONTINUOUS
10
0.689626
20
1.3175
11
0.67
21
1.3175
0
LINE
8
BLACK
6
CONTINUOUS
10
0.67
20
1.3175
11
0.67
21
1.3775
0
LINE
8
BLACK
6
CONTINUOUS
10
0.67
20
1.3775
11
0.692126
21
1.3775
0
LINE
8
BLACK
6
CONTINUOUS
10
0.692126
20
1.3775
11
0.692126
21
1.4175
0
LINE
8
BLACK
6
CONTINUOUS
10
0.692126
20
1.4175
11
0.67
21
1.4175
0
LINE
8
BLACK
6
CONTINUOUS
10
0.67
20
1.4175
11
0.67
21
1.4775
0
LINE
8
BLACK
6
CONTINUOUS
10
0.67
20
1.4775
11
0.73
21
1.4775
0
LINE
8
BLACK
6
CONTINUOUS
10
0.73
20
1.4775
11
0.73
21
1.4175
0
LINE
8
BLACK
6
CONTINUOUS
10
0.53
20
1.4175
11
0.507874
21
1.4175
0
LINE
8
BLACK
6
CONTINUOUS
10
0.507874
20
1.4175
11
0.507874
21
1.3775
0
LINE
8
BLACK
6
CONTINUOUS
10
0.507874
20
1.3775
11
0.53
21
1.3775
0
LINE
8
BLACK
6
CONTINUOUS
10
0.53
20
1.3775
11
0.53
21
1.3175
0
LINE
8
BLACK
6
CONTINUOUS
10
0.53
20
1.3175
11
0.492874
21
1.3175
0
LINE
8
BLACK
6
CONTINUOUS
10
0.492874
20
1.3175
11
0.492874
21
1.2475
0
LINE
8
BLACK
6
CONTINUOUS
10
0.492874
20
1.2475
11
0.5025
21
1.2475
0
LINE
8
BLACK
6
CONTINUOUS
10
0.5025
20
1.2475
11
0.5025
21
1.20085
0
LINE
8
BLACK
6
CONTINUOUS
10
0.5025
20
1.20085
11
0.514946
21
1.18841
0
LINE
8
BLACK
6
CONTINUOUS
10
0.514946
20
1.18841
11
0.5225
21
1.18841
0
LINE
8
BLACK
6
CONTINUOUS
10
0.5225
20
1.18841
11
0.523251
21
1.1882
0
LINE
8
BLACK
6
CONTINUOUS
10
0.523251
20
1.1882
11
0.524028
21
1.1882
0
LINE
8
BLACK
6
CONTINUOUS
10
0.524028
20
1.1882
11
0.524702
21
1.18782
0
LINE
8
BLACK
6
CONTINUOUS
10
0.524702
20
1.18782
11
0.525453
21
1.18761
0
LINE
8
BLACK
6
CONTINUOUS
10
0.525453
20
1.18761
11
0.526003
21
1.18706
0
LINE
8
BLACK
6
CONTINUOUS
10
0.526003
20
1.18706
11
0.526676
21
1.18668
0
LINE
8
BLACK
6
CONTINUOUS
10
0.526676
20
1.18668
11
0.572306
21
1.14105
0
LINE
8
BLACK
6
CONTINUOUS
10
0.572306
20
1.14105
11
0.573834
21
1.1384
0
LINE
8
BLACK
6
CONTINUOUS
10
0.573834
20
1.1384
11
0.573834
21
1.13534
0
LINE
8
BLACK
6
CONTINUOUS
10
0.573834
20
1.13534
11
0.57313
21
1.13412
0
LINE
8
BLACK
6
CONTINUOUS
10
0.57313
20
1.13412
11
0.57313
21
1.10382
0
LINE
8
BLACK
6
CONTINUOUS
10
0.57313
20
1.10382
11
0.574035
21
1.10382
0
LINE
8
BLACK
6
CONTINUOUS
10
0.574035
20
1.10382
11
0.574035
21
1.07823
0
LINE
8
BLACK
6
CONTINUOUS
10
0.574035
20
1.07823
11
0.562224
21
1.07823
0
LINE
8
BLACK
6
CONTINUOUS
10
0.562224
20
1.07823
11
0.562224
21
1.10382
0
LINE
8
BLACK
6
CONTINUOUS
10
0.562224
20
1.10382
11
0.56313
21
1.10382
0
LINE
8
BLACK
6
CONTINUOUS
10
0.56313
20
1.10382
11
0.56313
21
1.13352
0
LINE
8
BLACK
6
CONTINUOUS
10
0.56313
20
1.13352
11
0.520054
21
1.17659
0
LINE
8
BLACK
6
CONTINUOUS
10
0.520054
20
1.17659
11
0.5125
21
1.17659
0
LINE
8
BLACK
6
CONTINUOUS
10
0.5125
20
1.17659
11
0.511749
21
1.1768
0
LINE
8
BLACK
6
CONTINUOUS
10
0.511749
20
1.1768
11
0.510972
21
1.1768
0
LINE
8
BLACK
6
CONTINUOUS
10
0.510972
20
1.1768
11
0.510298
21
1.17718
0
LINE
8
BLACK
6
CONTINUOUS
10
0.510298
20
1.17718
11
0.509547
21
1.17739
0
LINE
8
BLACK
6
CONTINUOUS
10
0.509547
20
1.17739
11
0.508997
21
1.17794
0
LINE
8
BLACK
6
CONTINUOUS
10
0.508997
20
1.17794
11
0.508324
21
1.17832
0
LINE
8
BLACK
6
CONTINUOUS
10
0.508324
20
1.17832
11
0.494148
21
1.1925
0
LINE
8
BLACK
6
CONTINUOUS
10
0.494148
20
1.1925
11
0.4675
21
1.1925
0
LINE
8
BLACK
6
CONTINUOUS
10
0.4675
20
1.1925
11
0.4675
21
1.2475
0
LINE
8
BLACK
6
CONTINUOUS
10
0.4675
20
1.2475
11
0.477126
21
1.2475
0
LINE
8
BLACK
6
CONTINUOUS
10
0.477126
20
1.2475
11
0.477126
21
1.3175
0
LINE
8
BLACK
6
CONTINUOUS
10
0.477126
20
1.3175
11
0.47
21
1.3175
0
LINE
8
BLACK
6
CONTINUOUS
10
0.47
20
1.3175
11
0.47
21
1.3775
0
LINE
8
BLACK
6
CONTINUOUS
10
0.47
20
1.3775
11
0.492126
21
1.3775
0
LINE
8
BLACK
6
CONTINUOUS
10
0.492126
20
1.3775
11
0.492126
21
1.4175
0
LINE
8
BLACK
6
CONTINUOUS
10
0.492126
20
1.4175
11
0.47
21
1.4175
0
LINE
8
BLACK
6
CONTINUOUS
10
0.47
20
1.4175
11
0.47
21
1.4775
0
LINE
8
BLACK
6
CONTINUOUS
10
0.47
20
1.4775
11
0.53
21
1.4775
0
LINE
8
BLACK
6
CONTINUOUS
10
0.53
20
1.4775
11
0.53
21
1.4175
0
LINE
8
BLACK
6
CONTINUOUS
10
0.97
20
1.03
11
0.91
21
1.03
0
LINE
8
BLACK
6
CONTINUOUS
10
0.91
20
1.03
11
0.91
21
1.09
0
LINE
8
BLACK
6
CONTINUOUS
10
0.91
20
1.09
11
0.97
21
1.09
0
LINE
8
BLACK
6
CONTINUOUS
10
0.97
20
1.09
11
0.97
21
1.03
0
LINE
8
BLACK
6
CONTINUOUS
10
0.1825
20
1.045
11
0.1225
21
1.045
0
LINE
8
BLACK
6
CONTINUOUS
10
0.1225
20
1.045
11
0.1225
21
1.105
0
LINE
8
BLACK
6
CONTINUOUS
10
0.1225
20
1.105
11
0.1825
21
1.105
0
LINE
8
BLACK
6
CONTINUOUS
10
0.1825
20
1.105
11
0.1825
21
1.045
0
LINE
8
BLACK
6
CONTINUOUS
10
0.63
20
1.4175
11
0.607874
21
1.4175
0
LINE
8
BLACK
6
CONTINUOUS
10
0.607874
20
1.4175
11
0.607874
21
1.3775
0
LINE
8
BLACK
6
CONTINUOUS
10
0.607874
20
1.3775
11
0.63
21
1.3775
0
LINE
8
BLACK
6
CONTINUOUS
10
0.63
20
1.3775
11
0.63
21
1.32701
0
LINE
8
BLACK
6
CONTINUOUS
10
0.63
20
1.32701
11
0.630082
21
1.32628
0
LINE
8
BLACK
6
CONTINUOUS
10
0.630082
20
1.32628
11
0.630374
21
1.325
0
LINE
8
BLACK
6
CONTINUOUS
10
0.630374
20
1.325
11
0.630374
21
1.2475
0
LINE
8
BLACK
6
CONTINUOUS
10
0.630374
20
1.2475
11
0.64
21
1.2475
0
LINE
8
BLACK
6
CONTINUOUS
10
0.64
20
1.2475
11
0.64
21
1.1925
0
LINE
8
BLACK
6
CONTINUOUS
10
0.64
20
1.1925
11
0.605
21
1.1925
0
LINE
8
BLACK
6
CONTINUOUS
10
0.605
20
1.1925
11
0.605
21
1.21213
0
LINE
8
BLACK
6
CONTINUOUS
10
0.605
20
1.21213
11
0.5775
21
1.21213
0
LINE
8
BLACK
6
CONTINUOUS
10
0.5775
20
1.21213
11
0.5775
21
1.1925
0
LINE
8
BLACK
6
CONTINUOUS
10
0.5775
20
1.1925
11
0.5425
21
1.1925
0
LINE
8
BLACK
6
CONTINUOUS
10
0.5425
20
1.1925
11
0.5425
21
1.2475
0
LINE
8
BLACK
6
CONTINUOUS
10
0.5425
20
1.2475
11
0.5775
21
1.2475
0
LINE
8
BLACK
6
CONTINUOUS
10
0.5775
20
1.2475
11
0.5775
21
1.22787
0
LINE
8
BLACK
6
CONTINUOUS
10
0.5775
20
1.22787
11
0.605
21
1.22787
0
LINE
8
BLACK
6
CONTINUOUS
10
0.605
20
1.22787
11
0.605
21
1.2475
0
LINE
8
BLACK
6
CONTINUOUS
10
0.605
20
1.2475
11
0.614626
21
1.2475
0
LINE
8
BLACK
6
CONTINUOUS
10
0.614626
20
1.2475
11
0.614626
21
1.3175
0
LINE
8
BLACK
6
CONTINUOUS
10
0.614626
20
1.3175
11
0.57
21
1.3175
0
LINE
8
BLACK
6
CONTINUOUS
10
0.57
20
1.3175
11
0.57
21
1.3775
0
LINE
8
BLACK
6
CONTINUOUS
10
0.57
20
1.3775
11
0.592126
21
1.3775
0
LINE
8
BLACK
6
CONTINUOUS
10
0.592126
20
1.3775
11
0.592126
21
1.4175
0
LINE
8
BLACK
6
CONTINUOUS
10
0.592126
20
1.4175
11
0.57
21
1.4175
0
LINE
8
BLACK
6
CONTINUOUS
10
0.57
20
1.4175
11
0.57
21
1.4775
0
LINE
8
BLACK
6
CONTINUOUS
10
0.57
20
1.4775
11
0.63
21
1.4775
0
LINE
8
BLACK
6
CONTINUOUS
10
0.63
20
1.4775
11
0.63
21
1.4175
0
CIRCLE
8
BLACK
10
0.305414
20
1.23268
40
0.0125
0
CIRCLE
8
BLACK
10
0.62
20
0.9125
40
0.0125
0
CIRCLE
8
BLACK
10
0.695
20
1.09
40
0.0125
0
CIRCLE
8
BLACK
10
0.803235
20
0.946513
40
0.0125
  0
ENDSEC
  0
EOF
