  0
SECTION
  2
HEADER
  9
$ANGBASE
  50
0.0
  9
$ANGDIR
  70
1
  9
$MEASUREMENT
  70
0
  0
ENDSEC
  0
SECTION
  2
TABLES
  0
TABLE
  2
LTYPE
  70
4
  0
LTYPE
  5
40F
  2
CONTINUOUS
  70
0
  3
Solid line
  72
65
  73
0
  40
0.0
  0
LTYPE
  5
410
  2
DASHDOT
 70
0
  3
Dash Dot ____ _ ____ _
 72
65
 73
4
 40
2.0
 49
1.25
 49
-0.25
 49
0.25
 49
-0.25
  0
LTYPE
  5
411
  2
DASHED
 70
0
  3
Dashed __ __ __ __ __
 72
65
 73
2
 40
0.75
 49
0.5
 49
-0.25
  0
LTYPE
  5
43B
  2
DOTTED
 70
0
  3
Dotted .  .  .  .
 72
65
 73
2
 40
0.2
 49
0.0
 49
-0.2
  0
ENDTAB
  0
TABLE
  2
STYLE
  70
4
  0
STYLE
  2
KICAD
  70
0
  40
0
  41
1
  42
1
  50
0
  71
0
  3
isocp.shx
  0
STYLE
  2
KICADB
  70
0
  40
0
  41
1
  42
1
  50
0
  71
0
  3
isocp.shx
  0
STYLE
  2
KICADI
  70
0
  40
0
  41
1
  42
1
  50
15
  71
0
  3
isocp.shx
  0
STYLE
  2
KICADBI
  70
0
  40
0
  41
1
  42
1
  50
15
  71
0
  3
isocp.shx
  0
ENDTAB
  0
TABLE
  2
LAYER
  70
1
  0
LAYER
  2
BLACK
  70
0
  62
7
  6
CONTINUOUS
  0
ENDTAB
  0
ENDSEC
  0
SECTION
  2
ENTITIES
0
LINE
8
BLACK
6
CONTINUOUS
10
0.595
20
0.1381496062992126
11
0.445
21
0.1381496062992126
0
LINE
8
BLACK
6
CONTINUOUS
10
0.445
20
0.1381496062992126
11
0.445
21
0.2881496062992126
0
LINE
8
BLACK
6
CONTINUOUS
10
0.445
20
0.2881496062992126
11
0.595
21
0.2881496062992126
0
LINE
8
BLACK
6
CONTINUOUS
10
0.595
20
0.2881496062992126
11
0.595
21
0.1381496062992126
0
LINE
8
BLACK
6
CONTINUOUS
10
0.595
20
0.335
11
0.445
21
0.335
0
LINE
8
BLACK
6
CONTINUOUS
10
0.445
20
0.335
11
0.445
21
0.485
0
LINE
8
BLACK
6
CONTINUOUS
10
0.445
20
0.485
11
0.595
21
0.485
0
LINE
8
BLACK
6
CONTINUOUS
10
0.595
20
0.485
11
0.595
21
0.335
0
LINE
8
BLACK
6
CONTINUOUS
10
0.7949999999999999
20
0.1381496062992126
11
0.645
21
0.1381496062992126
0
LINE
8
BLACK
6
CONTINUOUS
10
0.645
20
0.1381496062992126
11
0.645
21
0.2881496062992126
0
LINE
8
BLACK
6
CONTINUOUS
10
0.645
20
0.2881496062992126
11
0.7949999999999999
21
0.2881496062992126
0
LINE
8
BLACK
6
CONTINUOUS
10
0.7949999999999999
20
0.2881496062992126
11
0.7949999999999999
21
0.1381496062992126
0
LINE
8
BLACK
6
CONTINUOUS
10
0.7949999999999999
20
0.335
11
0.645
21
0.335
0
LINE
8
BLACK
6
CONTINUOUS
10
0.645
20
0.335
11
0.645
21
0.485
0
LINE
8
BLACK
6
CONTINUOUS
10
0.645
20
0.485
11
0.7949999999999999
21
0.485
0
LINE
8
BLACK
6
CONTINUOUS
10
0.7949999999999999
20
0.485
11
0.7949999999999999
21
0.335
0
LINE
8
BLACK
6
CONTINUOUS
10
0.18
20
0.48
11
0.12
21
0.48
0
LINE
8
BLACK
6
CONTINUOUS
10
0.12
20
0.48
11
0.12
21
0.54
0
LINE
8
BLACK
6
CONTINUOUS
10
0.12
20
0.54
11
0.18
21
0.54
0
LINE
8
BLACK
6
CONTINUOUS
10
0.18
20
0.54
11
0.18
21
0.48
0
LINE
8
BLACK
6
CONTINUOUS
10
0.28
20
0.48
11
0.22
21
0.48
0
LINE
8
BLACK
6
CONTINUOUS
10
0.22
20
0.48
11
0.22
21
0.54
0
LINE
8
BLACK
6
CONTINUOUS
10
0.22
20
0.54
11
0.28
21
0.54
0
LINE
8
BLACK
6
CONTINUOUS
10
0.28
20
0.54
11
0.28
21
0.48
0
LINE
8
BLACK
6
CONTINUOUS
10
0.6272697637795276
20
0.9284185433070866
11
0.6314600787401574
21
0.9257256299212598
0
LINE
8
BLACK
6
CONTINUOUS
10
0.6314600787401574
20
0.9257256299212598
11
0.6347219291338583
21
0.9219612204724409
0
LINE
8
BLACK
6
CONTINUOUS
10
0.6347219291338583
20
0.9219612204724409
11
0.6363906299212598
21
0.9183072834645669
0
LINE
8
BLACK
6
CONTINUOUS
10
0.6363906299212598
20
0.9183072834645669
11
0.7493110236220473
21
0.9184055118110236
0
LINE
8
BLACK
6
CONTINUOUS
10
0.7493110236220473
20
0.9184055118110236
11
0.7504631496062992
21
0.9182920472440945
0
LINE
8
BLACK
6
CONTINUOUS
10
0.7504631496062992
20
0.9182920472440945
11
0.7513449212598425
21
0.9179267716535433
0
LINE
8
BLACK
6
CONTINUOUS
10
0.7513449212598425
20
0.9179267716535433
11
0.7525919291338582
21
0.9174102755905511
0
LINE
8
BLACK
6
CONTINUOUS
10
0.7525919291338582
20
0.9174102755905511
11
0.7941758267716535
21
0.8759868503937007
0
LINE
8
BLACK
6
CONTINUOUS
10
0.7941758267716535
20
0.8759868503937007
11
0.7949102755905512
21
0.8750919291338582
0
LINE
8
BLACK
6
CONTINUOUS
10
0.7949102755905512
20
0.8750919291338582
11
0.7950316929133858
21
0.874798779527559
0
LINE
8
BLACK
6
CONTINUOUS
10
0.7950316929133858
20
0.874798779527559
11
0.7957920472440945
21
0.8729631496062992
0
LINE
8
BLACK
6
CONTINUOUS
10
0.7957920472440945
20
0.8729631496062992
11
0.7958262992125984
21
0.86
0
LINE
8
BLACK
6
CONTINUOUS
10
0.7958262992125984
20
0.86
11
0.82
21
0.86
0
LINE
8
BLACK
6
CONTINUOUS
10
0.82
20
0.86
11
0.82
21
0.7999999999999999
0
LINE
8
BLACK
6
CONTINUOUS
10
0.82
20
0.7999999999999999
11
0.76
21
0.7999999999999999
0
LINE
8
BLACK
6
CONTINUOUS
10
0.76
20
0.7999999999999999
11
0.76
21
0.86
0
LINE
8
BLACK
6
CONTINUOUS
10
0.76
20
0.86
11
0.7841256692913385
21
0.86
0
LINE
8
BLACK
6
CONTINUOUS
10
0.7841256692913385
20
0.86
11
0.7841005511811023
21
0.8695091338582677
0
LINE
8
BLACK
6
CONTINUOUS
10
0.7841005511811023
20
0.8695091338582677
11
0.746760905511811
21
0.9067047244094488
0
LINE
8
BLACK
6
CONTINUOUS
10
0.746760905511811
20
0.9067047244094488
11
0.6363522440944882
21
0.9066087007874015
0
LINE
8
BLACK
6
CONTINUOUS
10
0.6363522440944882
20
0.9066087007874015
11
0.6347219291338583
21
0.9030387795275591
0
LINE
8
BLACK
6
CONTINUOUS
10
0.6347219291338583
20
0.9030387795275591
11
0.6314600787401574
21
0.8992743700787401
0
LINE
8
BLACK
6
CONTINUOUS
10
0.6314600787401574
20
0.8992743700787401
11
0.6272697637795276
21
0.8965814566929133
0
LINE
8
BLACK
6
CONTINUOUS
10
0.6272697637795276
20
0.8965814566929133
11
0.6224905118110237
21
0.8951781102362204
0
LINE
8
BLACK
6
CONTINUOUS
10
0.6224905118110237
20
0.8951781102362204
11
0.6175094881889763
21
0.8951781102362204
0
LINE
8
BLACK
6
CONTINUOUS
10
0.6175094881889763
20
0.8951781102362204
11
0.6127302362204724
21
0.8965814566929133
0
LINE
8
BLACK
6
CONTINUOUS
10
0.6127302362204724
20
0.8965814566929133
11
0.6085399212598425
21
0.8992743700787401
0
LINE
8
BLACK
6
CONTINUOUS
10
0.6085399212598425
20
0.8992743700787401
11
0.6052780708661417
21
0.9030387795275591
0
LINE
8
BLACK
6
CONTINUOUS
10
0.6052780708661417
20
0.9030387795275591
11
0.6032088582677165
21
0.9075696850393701
0
LINE
8
BLACK
6
CONTINUOUS
10
0.6032088582677165
20
0.9075696850393701
11
0.6025
21
0.9125
0
LINE
8
BLACK
6
CONTINUOUS
10
0.6025
20
0.9125
11
0.6032088582677165
21
0.9174303149606299
0
LINE
8
BLACK
6
CONTINUOUS
10
0.6032088582677165
20
0.9174303149606299
11
0.6052780708661417
21
0.9219612204724409
0
LINE
8
BLACK
6
CONTINUOUS
10
0.6052780708661417
20
0.9219612204724409
11
0.6085399212598425
21
0.9257256299212598
0
LINE
8
BLACK
6
CONTINUOUS
10
0.6085399212598425
20
0.9257256299212598
11
0.6127302362204724
21
0.9284185433070866
0
LINE
8
BLACK
6
CONTINUOUS
10
0.6127302362204724
20
0.9284185433070866
11
0.6175094881889763
21
0.9298218897637796
0
LINE
8
BLACK
6
CONTINUOUS
10
0.6175094881889763
20
0.9298218897637796
11
0.6224905118110237
21
0.9298218897637796
0
LINE
8
BLACK
6
CONTINUOUS
10
0.6224905118110237
20
0.9298218897637796
11
0.6272697637795276
21
0.9284185433070866
0
LINE
8
BLACK
6
CONTINUOUS
10
0.1825
20
1.082823622047244
11
0.198248031496063
21
1.0828740157480314
0
LINE
8
BLACK
6
CONTINUOUS
10
0.198248031496063
20
1.0828740157480314
11
0.1997841732283465
21
1.0827227165354329
0
LINE
8
BLACK
6
CONTINUOUS
10
0.1997841732283465
20
1.0827227165354329
11
0.2026225984251968
21
1.0815470078740157
0
LINE
8
BLACK
6
CONTINUOUS
10
0.2026225984251968
20
1.0815470078740157
11
0.2323873622047244
21
1.0519815748031496
0
LINE
8
BLACK
6
CONTINUOUS
10
0.2323873622047244
20
1.0519815748031496
11
0.3344695275590551
21
1.0521259448818898
0
LINE
8
BLACK
6
CONTINUOUS
10
0.3344695275590551
20
1.0521259448818898
11
0.335993031496063
21
1.0519758661417322
0
LINE
8
BLACK
6
CONTINUOUS
10
0.335993031496063
20
1.0519758661417322
11
0.7054958661417323
21
1.0521259448818898
0
LINE
8
BLACK
6
CONTINUOUS
10
0.7054958661417323
20
1.0521259448818898
11
0.7070320078740158
21
1.0519746456692913
0
LINE
8
BLACK
6
CONTINUOUS
10
0.7070320078740158
20
1.0519746456692913
11
0.7098704330708662
21
1.0507989370078741
0
LINE
8
BLACK
6
CONTINUOUS
10
0.7098704330708662
20
1.0507989370078741
11
0.7978688188976378
21
0.9629908267716535
0
LINE
8
BLACK
6
CONTINUOUS
10
0.7978688188976378
20
0.9629908267716535
11
0.8007440551181102
21
0.9638351181102361
0
LINE
8
BLACK
6
CONTINUOUS
10
0.8007440551181102
20
0.9638351181102361
11
0.8057250787401574
21
0.9638351181102361
0
LINE
8
BLACK
6
CONTINUOUS
10
0.8057250787401574
20
0.9638351181102361
11
0.8105043307086613
21
0.9624317716535433
0
LINE
8
BLACK
6
CONTINUOUS
10
0.8105043307086613
20
0.9624317716535433
11
0.8146946456692913
21
0.9597388582677165
0
LINE
8
BLACK
6
CONTINUOUS
10
0.8146946456692913
20
0.9597388582677165
11
0.8179564960629921
21
0.9559744488188976
0
LINE
8
BLACK
6
CONTINUOUS
10
0.8179564960629921
20
0.9559744488188976
11
0.8200257086614173
21
0.9514435433070866
0
LINE
8
BLACK
6
CONTINUOUS
10
0.8200257086614173
20
0.9514435433070866
11
0.8207345669291338
21
0.9465132283464567
0
LINE
8
BLACK
6
CONTINUOUS
10
0.8207345669291338
20
0.9465132283464567
11
0.8200257086614173
21
0.9415829133858268
0
LINE
8
BLACK
6
CONTINUOUS
10
0.8200257086614173
20
0.9415829133858268
11
0.8179564960629921
21
0.9370520078740158
0
LINE
8
BLACK
6
CONTINUOUS
10
0.8179564960629921
20
0.9370520078740158
11
0.8146946456692913
21
0.9332875984251968
0
LINE
8
BLACK
6
CONTINUOUS
10
0.8146946456692913
20
0.9332875984251968
11
0.8105043307086613
21
0.93059468503937
0
LINE
8
BLACK
6
CONTINUOUS
10
0.8105043307086613
20
0.93059468503937
11
0.8057250787401574
21
0.9291913385826771
0
LINE
8
BLACK
6
CONTINUOUS
10
0.8057250787401574
20
0.9291913385826771
11
0.8007440551181102
21
0.9291913385826771
0
LINE
8
BLACK
6
CONTINUOUS
10
0.8007440551181102
20
0.9291913385826771
11
0.7959648031496063
21
0.93059468503937
0
LINE
8
BLACK
6
CONTINUOUS
10
0.7959648031496063
20
0.93059468503937
11
0.7917744881889763
21
0.9332875984251968
0
LINE
8
BLACK
6
CONTINUOUS
10
0.7917744881889763
20
0.9332875984251968
11
0.7885126377952756
21
0.9370520078740158
0
LINE
8
BLACK
6
CONTINUOUS
10
0.7885126377952756
20
0.9370520078740158
11
0.7864434251968504
21
0.9415829133858268
0
LINE
8
BLACK
6
CONTINUOUS
10
0.7864434251968504
20
0.9415829133858268
11
0.7857345669291338
21
0.9465132283464567
0
LINE
8
BLACK
6
CONTINUOUS
10
0.7857345669291338
20
0.9465132283464567
11
0.7864434251968504
21
0.9514435433070866
0
LINE
8
BLACK
6
CONTINUOUS
10
0.7864434251968504
20
0.9514435433070866
11
0.7867296456692913
21
0.9520703149606299
0
LINE
8
BLACK
6
CONTINUOUS
10
0.7867296456692913
20
0.9520703149606299
11
0.7020897244094488
21
1.0365272047244094
0
LINE
8
BLACK
6
CONTINUOUS
10
0.7020897244094488
20
1.0365272047244094
11
0.3344695275590551
21
1.0363779133858269
0
LINE
8
BLACK
6
CONTINUOUS
10
0.3344695275590551
20
1.0363779133858269
11
0.3329768503937008
21
1.0365249212598424
0
LINE
8
BLACK
6
CONTINUOUS
10
0.3329768503937008
20
1.0365249212598424
11
0.2289961023622047
21
1.0363779133858269
0
LINE
8
BLACK
6
CONTINUOUS
10
0.2289961023622047
20
1.0363779133858269
11
0.2274599606299212
21
1.0365292125984251
0
LINE
8
BLACK
6
CONTINUOUS
10
0.2274599606299212
20
1.0365292125984251
11
0.2246215354330709
21
1.0377049212598426
0
LINE
8
BLACK
6
CONTINUOUS
10
0.2246215354330709
20
1.0377049212598426
11
0.1948655905511811
21
1.0672615354330708
0
LINE
8
BLACK
6
CONTINUOUS
10
0.1948655905511811
20
1.0672615354330708
11
0.1825
21
1.067221968503937
0
LINE
8
BLACK
6
CONTINUOUS
10
0.1825
20
1.067221968503937
11
0.1825
21
1.0449999999999999
0
LINE
8
BLACK
6
CONTINUOUS
10
0.1825
20
1.0449999999999999
11
0.1225
21
1.0449999999999999
0
LINE
8
BLACK
6
CONTINUOUS
10
0.1225
20
1.0449999999999999
11
0.1225
21
1.105
0
LINE
8
BLACK
6
CONTINUOUS
10
0.1225
20
1.105
11
0.1825
21
1.105
0
LINE
8
BLACK
6
CONTINUOUS
10
0.1825
20
1.105
11
0.1825
21
1.082823622047244
0
LINE
8
BLACK
6
CONTINUOUS
10
0.1825
20
0.945
11
0.1225
21
0.945
0
LINE
8
BLACK
6
CONTINUOUS
10
0.1225
20
0.945
11
0.1225
21
1.0049999999999999
0
LINE
8
BLACK
6
CONTINUOUS
10
0.1225
20
1.0049999999999999
11
0.1825
21
1.0049999999999999
0
LINE
8
BLACK
6
CONTINUOUS
10
0.1825
20
1.0049999999999999
11
0.1825
21
0.945
0
LINE
8
BLACK
6
CONTINUOUS
10
0.9391835826771653
20
1.1095716141732284
11
0.9398408267716535
21
1.1092993700787401
0
LINE
8
BLACK
6
CONTINUOUS
10
0.9398408267716535
20
1.1092993700787401
11
0.9413123622047244
21
1.1086898425196849
0
LINE
8
BLACK
6
CONTINUOUS
10
0.9413123622047244
20
1.1086898425196849
11
0.9441758267716536
21
1.1059868503937007
0
LINE
8
BLACK
6
CONTINUOUS
10
0.9441758267716536
20
1.1059868503937007
11
0.9449102755905512
21
1.1050919291338583
0
LINE
8
BLACK
6
CONTINUOUS
10
0.9449102755905512
20
1.1050919291338583
11
0.9451854724409449
21
1.1044275196850393
0
LINE
8
BLACK
6
CONTINUOUS
10
0.9451854724409449
20
1.1044275196850393
11
0.9457920472440945
21
1.1029631496062993
0
LINE
8
BLACK
6
CONTINUOUS
10
0.9457920472440945
20
1.1029631496062993
11
0.9458262992125984
21
1.0900000000000001
0
LINE
8
BLACK
6
CONTINUOUS
10
0.9458262992125984
20
1.0900000000000001
11
0.97
21
1.0900000000000001
0
LINE
8
BLACK
6
CONTINUOUS
10
0.97
20
1.0900000000000001
11
0.97
21
1.03
0
LINE
8
BLACK
6
CONTINUOUS
10
0.97
20
1.03
11
0.91
21
1.03
0
LINE
8
BLACK
6
CONTINUOUS
10
0.91
20
1.03
11
0.91
21
1.0900000000000001
0
LINE
8
BLACK
6
CONTINUOUS
10
0.91
20
1.0900000000000001
11
0.9341256692913386
21
1.0900000000000001
0
LINE
8
BLACK
6
CONTINUOUS
10
0.9341256692913386
20
1.0900000000000001
11
0.9341045669291338
21
1.097985
0
LINE
8
BLACK
6
CONTINUOUS
10
0.9341045669291338
20
1.097985
11
0.7110950393700787
21
1.0978751574803149
0
LINE
8
BLACK
6
CONTINUOUS
10
0.7110950393700787
20
1.0978751574803149
11
0.7106511811023621
21
1.0974264173228345
0
LINE
8
BLACK
6
CONTINUOUS
10
0.7106511811023621
20
1.0974264173228345
11
0.7117911417322834
21
1.09493031496063
0
LINE
8
BLACK
6
CONTINUOUS
10
0.7117911417322834
20
1.09493031496063
11
0.7125
21
1.0900000000000001
0
LINE
8
BLACK
6
CONTINUOUS
10
0.7125
20
1.0900000000000001
11
0.7117911417322834
21
1.08506968503937
0
LINE
8
BLACK
6
CONTINUOUS
10
0.7117911417322834
20
1.08506968503937
11
0.7097219291338582
21
1.0805387795275589
0
LINE
8
BLACK
6
CONTINUOUS
10
0.7097219291338582
20
1.0805387795275589
11
0.7064600787401575
21
1.0767743700787402
0
LINE
8
BLACK
6
CONTINUOUS
10
0.7064600787401575
20
1.0767743700787402
11
0.7022697637795275
21
1.0740814566929133
0
LINE
8
BLACK
6
CONTINUOUS
10
0.7022697637795275
20
1.0740814566929133
11
0.6974905118110236
21
1.0726781102362204
0
LINE
8
BLACK
6
CONTINUOUS
10
0.6974905118110236
20
1.0726781102362204
11
0.6925094881889764
21
1.0726781102362204
0
LINE
8
BLACK
6
CONTINUOUS
10
0.6925094881889764
20
1.0726781102362204
11
0.6877302362204725
21
1.0740814566929133
0
LINE
8
BLACK
6
CONTINUOUS
10
0.6877302362204725
20
1.0740814566929133
11
0.6835399212598425
21
1.0767743700787402
0
LINE
8
BLACK
6
CONTINUOUS
10
0.6835399212598425
20
1.0767743700787402
11
0.6802780708661417
21
1.0805387795275589
0
LINE
8
BLACK
6
CONTINUOUS
10
0.6802780708661417
20
1.0805387795275589
11
0.6782088582677165
21
1.08506968503937
0
LINE
8
BLACK
6
CONTINUOUS
10
0.6782088582677165
20
1.08506968503937
11
0.6775
21
1.0900000000000001
0
LINE
8
BLACK
6
CONTINUOUS
10
0.6775
20
1.0900000000000001
11
0.6782088582677165
21
1.09493031496063
0
LINE
8
BLACK
6
CONTINUOUS
10
0.6782088582677165
20
1.09493031496063
11
0.6802780708661417
21
1.099461220472441
0
LINE
8
BLACK
6
CONTINUOUS
10
0.6802780708661417
20
1.099461220472441
11
0.6835399212598425
21
1.1032256299212597
0
LINE
8
BLACK
6
CONTINUOUS
10
0.6835399212598425
20
1.1032256299212597
11
0.6877302362204725
21
1.1059185433070866
0
LINE
8
BLACK
6
CONTINUOUS
10
0.6877302362204725
20
1.1059185433070866
11
0.6925094881889764
21
1.1073218897637795
0
LINE
8
BLACK
6
CONTINUOUS
10
0.6925094881889764
20
1.1073218897637795
11
0.6974905118110236
21
1.1073218897637795
0
LINE
8
BLACK
6
CONTINUOUS
10
0.6974905118110236
20
1.1073218897637795
11
0.7022697637795275
21
1.1059185433070866
0
LINE
8
BLACK
6
CONTINUOUS
10
0.7022697637795275
20
1.1059185433070866
11
0.7024650393700788
21
1.1057930314960629
0
LINE
8
BLACK
6
CONTINUOUS
10
0.7024650393700788
20
1.1057930314960629
11
0.7046037401574803
21
1.1079553937007873
0
LINE
8
BLACK
6
CONTINUOUS
10
0.7046037401574803
20
1.1079553937007873
11
0.7054986614173229
21
1.1086898425196849
0
LINE
8
BLACK
6
CONTINUOUS
10
0.7054986614173229
20
1.1086898425196849
11
0.7069701968503936
21
1.1092993700787401
0
LINE
8
BLACK
6
CONTINUOUS
10
0.7069701968503936
20
1.1092993700787401
11
0.7076274409448818
21
1.1095716141732284
0
LINE
8
BLACK
6
CONTINUOUS
10
0.7076274409448818
20
1.1095716141732284
11
0.9380314566929133
21
1.1096850787401575
0
LINE
8
BLACK
6
CONTINUOUS
10
0.9380314566929133
20
1.1096850787401575
11
0.9391835826771653
21
1.1095716141732284
0
LINE
8
BLACK
6
CONTINUOUS
10
1.0700000000000001
20
1.03
11
1.01
21
1.03
0
LINE
8
BLACK
6
CONTINUOUS
10
1.01
20
1.03
11
1.01
21
1.0900000000000001
0
LINE
8
BLACK
6
CONTINUOUS
10
1.01
20
1.0900000000000001
11
1.0700000000000001
21
1.0900000000000001
0
LINE
8
BLACK
6
CONTINUOUS
10
1.0700000000000001
20
1.0900000000000001
11
1.0700000000000001
21
1.03
0
LINE
8
BLACK
6
CONTINUOUS
10
0.97
20
1.1299999999999999
11
0.91
21
1.1299999999999999
0
LINE
8
BLACK
6
CONTINUOUS
10
0.91
20
1.1299999999999999
11
0.91
21
1.1899999999999999
0
LINE
8
BLACK
6
CONTINUOUS
10
0.91
20
1.1899999999999999
11
0.97
21
1.1899999999999999
0
LINE
8
BLACK
6
CONTINUOUS
10
0.97
20
1.1899999999999999
11
0.97
21
1.1299999999999999
0
LINE
8
BLACK
6
CONTINUOUS
10
0.63
20
1.3174999999999999
11
0.6097703543307087
21
1.3174999999999999
0
LINE
8
BLACK
6
CONTINUOUS
10
0.6097703543307087
20
1.3174999999999999
11
0.6098283858267717
21
1.3016629921259841
0
LINE
8
BLACK
6
CONTINUOUS
10
0.6098283858267717
20
1.3016629921259841
11
0.6529927952755905
21
1.2587415748031496
0
LINE
8
BLACK
6
CONTINUOUS
10
0.6529927952755905
20
1.2587415748031496
11
0.6541041338582677
21
1.2573873228346457
0
LINE
8
BLACK
6
CONTINUOUS
10
0.6541041338582677
20
1.2573873228346457
11
0.6770519291338583
21
1.234656653543307
0
LINE
8
BLACK
6
CONTINUOUS
10
0.6770519291338583
20
1.234656653543307
11
1.0246850393700788
21
1.2348425196850394
0
LINE
8
BLACK
6
CONTINUOUS
10
1.0246850393700788
20
1.2348425196850394
11
1.0266052362204725
21
1.2346533858267716
0
LINE
8
BLACK
6
CONTINUOUS
10
1.0266052362204725
20
1.2346533858267716
11
1.0301532677165355
21
1.2331837401574803
0
LINE
8
BLACK
6
CONTINUOUS
10
1.0301532677165355
20
1.2331837401574803
11
1.0301556692913385
21
1.2331812992125983
0
LINE
8
BLACK
6
CONTINUOUS
10
1.0301556692913385
20
1.2331812992125983
11
1.0469597244094488
21
1.2166447637795275
0
LINE
8
BLACK
6
CONTINUOUS
10
1.0469597244094488
20
1.2166447637795275
11
1.0481835433070865
21
1.2151534251968503
0
LINE
8
BLACK
6
CONTINUOUS
10
1.0481835433070865
20
1.2151534251968503
11
1.0481837401574803
21
1.2151532677165353
0
LINE
8
BLACK
6
CONTINUOUS
10
1.0481837401574803
20
1.2151532677165353
11
1.0496533858267716
21
1.2116052362204723
0
LINE
8
BLACK
6
CONTINUOUS
10
1.0496533858267716
20
1.2116052362204723
11
1.0497325590551181
21
1.1899999999999999
0
LINE
8
BLACK
6
CONTINUOUS
10
1.0497325590551181
20
1.1899999999999999
11
1.0700000000000001
21
1.1899999999999999
0
LINE
8
BLACK
6
CONTINUOUS
10
1.0700000000000001
20
1.1899999999999999
11
1.0700000000000001
21
1.1299999999999999
0
LINE
8
BLACK
6
CONTINUOUS
10
1.0700000000000001
20
1.1299999999999999
11
1.01
21
1.1299999999999999
0
LINE
8
BLACK
6
CONTINUOUS
10
1.01
20
1.1299999999999999
11
1.01
21
1.1899999999999999
0
LINE
8
BLACK
6
CONTINUOUS
10
1.01
20
1.1899999999999999
11
1.0302296456692912
21
1.1899999999999999
0
LINE
8
BLACK
6
CONTINUOUS
10
1.0302296456692912
20
1.1899999999999999
11
1.0301717322834645
21
1.2057919291338581
0
LINE
8
BLACK
6
CONTINUOUS
10
1.0301717322834645
20
1.2057919291338581
11
1.0204658661417323
21
1.2153433070866142
0
LINE
8
BLACK
6
CONTINUOUS
10
1.0204658661417323
20
1.2153433070866142
11
0.6728149606299213
21
1.2151574803149605
0
LINE
8
BLACK
6
CONTINUOUS
10
0.6728149606299213
20
1.2151574803149605
11
0.6708951574803149
21
1.2153465748031496
0
LINE
8
BLACK
6
CONTINUOUS
10
0.6708951574803149
20
1.2153465748031496
11
0.6708948031496063
21
1.2153465748031496
0
LINE
8
BLACK
6
CONTINUOUS
10
0.6708948031496063
20
1.2153465748031496
11
0.6673467716535433
21
1.2168162204724409
0
LINE
8
BLACK
6
CONTINUOUS
10
0.6673467716535433
20
1.2168162204724409
11
0.6390733858267716
21
1.244822125984252
0
LINE
8
BLACK
6
CONTINUOUS
10
0.6390733858267716
20
1.244822125984252
11
0.6379175196850394
21
1.2462305511811023
0
LINE
8
BLACK
6
CONTINUOUS
10
0.6379175196850394
20
1.2462305511811023
11
0.5999022440944882
21
1.2840318503937007
0
LINE
8
BLACK
6
CONTINUOUS
10
0.5999022440944882
20
1.2840318503937007
11
0.5418218897637795
21
1.2257174015748031
0
LINE
8
BLACK
6
CONTINUOUS
10
0.5418218897637795
20
1.2257174015748031
11
0.5403305511811024
21
1.2244935433070865
0
LINE
8
BLACK
6
CONTINUOUS
10
0.5403305511811024
20
1.2244935433070865
11
0.5403303937007874
21
1.2244933858267717
0
LINE
8
BLACK
6
CONTINUOUS
10
0.5403303937007874
20
1.2244933858267717
11
0.5367823622047244
21
1.2230237401574804
0
LINE
8
BLACK
6
CONTINUOUS
10
0.5367823622047244
20
1.2230237401574804
11
0.4944175984251968
21
1.2228346062992126
0
LINE
8
BLACK
6
CONTINUOUS
10
0.4944175984251968
20
1.2228346062992126
11
0.4925356299212598
21
1.2230199606299212
0
LINE
8
BLACK
6
CONTINUOUS
10
0.4925356299212598
20
1.2230199606299212
11
0.3198182283464567
21
1.2228488582677166
0
LINE
8
BLACK
6
CONTINUOUS
10
0.3198182283464567
20
1.2228488582677166
11
0.3168744094488189
21
1.2194514960629921
0
LINE
8
BLACK
6
CONTINUOUS
10
0.3168744094488189
20
1.2194514960629921
11
0.312684094488189
21
1.2167585826771654
0
LINE
8
BLACK
6
CONTINUOUS
10
0.312684094488189
20
1.2167585826771654
11
0.307904842519685
21
1.2153552362204725
0
LINE
8
BLACK
6
CONTINUOUS
10
0.307904842519685
20
1.2153552362204725
11
0.3029238188976378
21
1.2153552362204725
0
LINE
8
BLACK
6
CONTINUOUS
10
0.3029238188976378
20
1.2153552362204725
11
0.2981445669291338
21
1.2167585826771654
0
LINE
8
BLACK
6
CONTINUOUS
10
0.2981445669291338
20
1.2167585826771654
11
0.2939542519685039
21
1.2194514960629921
0
LINE
8
BLACK
6
CONTINUOUS
10
0.2939542519685039
20
1.2194514960629921
11
0.2906924015748031
21
1.223215905511811
0
LINE
8
BLACK
6
CONTINUOUS
10
0.2906924015748031
20
1.223215905511811
11
0.288623188976378
21
1.227746811023622
0
LINE
8
BLACK
6
CONTINUOUS
10
0.288623188976378
20
1.227746811023622
11
0.2879143307086614
21
1.2326771259842519
0
LINE
8
BLACK
6
CONTINUOUS
10
0.2879143307086614
20
1.2326771259842519
11
0.288623188976378
21
1.2376074409448818
0
LINE
8
BLACK
6
CONTINUOUS
10
0.288623188976378
20
1.2376074409448818
11
0.2906924015748031
21
1.2421383464566929
0
LINE
8
BLACK
6
CONTINUOUS
10
0.2906924015748031
20
1.2421383464566929
11
0.2939542519685039
21
1.2459027559055118
0
LINE
8
BLACK
6
CONTINUOUS
10
0.2939542519685039
20
1.2459027559055118
11
0.2981445669291338
21
1.2485956692913385
0
LINE
8
BLACK
6
CONTINUOUS
10
0.2981445669291338
20
1.2485956692913385
11
0.3029238188976378
21
1.2499990157480314
0
LINE
8
BLACK
6
CONTINUOUS
10
0.3029238188976378
20
1.2499990157480314
11
0.307904842519685
21
1.2499990157480314
0
LINE
8
BLACK
6
CONTINUOUS
10
0.307904842519685
20
1.2499990157480314
11
0.312684094488189
21
1.2485956692913385
0
LINE
8
BLACK
6
CONTINUOUS
10
0.312684094488189
20
1.2485956692913385
11
0.3168744094488189
21
1.2459027559055118
0
LINE
8
BLACK
6
CONTINUOUS
10
0.3168744094488189
20
1.2459027559055118
11
0.3199555905511811
21
1.242346811023622
0
LINE
8
BLACK
6
CONTINUOUS
10
0.3199555905511811
20
1.242346811023622
11
0.4944175984251968
21
1.2425196456692913
0
LINE
8
BLACK
6
CONTINUOUS
10
0.4944175984251968
20
1.2425196456692913
11
0.4961712598425197
21
1.2423468897637795
0
LINE
8
BLACK
6
CONTINUOUS
10
0.4961712598425197
20
1.2423468897637795
11
0.5310180708661417
21
1.2425024803149607
0
LINE
8
BLACK
6
CONTINUOUS
10
0.5310180708661417
20
1.2425024803149607
11
0.5903240551181103
21
1.3020475196850394
0
LINE
8
BLACK
6
CONTINUOUS
10
0.5903240551181103
20
1.3020475196850394
11
0.5902674409448819
21
1.3174999999999999
0
LINE
8
BLACK
6
CONTINUOUS
10
0.5902674409448819
20
1.3174999999999999
11
0.57
21
1.3174999999999999
0
LINE
8
BLACK
6
CONTINUOUS
10
0.57
20
1.3174999999999999
11
0.57
21
1.3774999999999999
0
LINE
8
BLACK
6
CONTINUOUS
10
0.57
20
1.3774999999999999
11
0.63
21
1.3774999999999999
0
LINE
8
BLACK
6
CONTINUOUS
10
0.63
20
1.3774999999999999
11
0.63
21
1.3174999999999999
0
LINE
8
BLACK
6
CONTINUOUS
10
0.1825
20
1.145
11
0.1225
21
1.145
0
LINE
8
BLACK
6
CONTINUOUS
10
0.1225
20
1.145
11
0.1225
21
1.2050000000000001
0
LINE
8
BLACK
6
CONTINUOUS
10
0.1225
20
1.2050000000000001
11
0.1825
21
1.2050000000000001
0
LINE
8
BLACK
6
CONTINUOUS
10
0.1825
20
1.2050000000000001
11
0.1825
21
1.145
0
LINE
8
BLACK
6
CONTINUOUS
10
0.53
20
1.3174999999999999
11
0.47
21
1.3174999999999999
0
LINE
8
BLACK
6
CONTINUOUS
10
0.47
20
1.3174999999999999
11
0.47
21
1.3774999999999999
0
LINE
8
BLACK
6
CONTINUOUS
10
0.47
20
1.3774999999999999
11
0.53
21
1.3774999999999999
0
LINE
8
BLACK
6
CONTINUOUS
10
0.53
20
1.3774999999999999
11
0.53
21
1.3174999999999999
0
LINE
8
BLACK
6
CONTINUOUS
10
0.73
20
1.3174999999999999
11
0.67
21
1.3174999999999999
0
LINE
8
BLACK
6
CONTINUOUS
10
0.67
20
1.3174999999999999
11
0.67
21
1.3774999999999999
0
LINE
8
BLACK
6
CONTINUOUS
10
0.67
20
1.3774999999999999
11
0.73
21
1.3774999999999999
0
LINE
8
BLACK
6
CONTINUOUS
10
0.73
20
1.3774999999999999
11
0.73
21
1.3174999999999999
0
LINE
8
BLACK
6
CONTINUOUS
10
0.53
20
1.4175
11
0.47
21
1.4175
0
LINE
8
BLACK
6
CONTINUOUS
10
0.47
20
1.4175
11
0.47
21
1.4775
0
LINE
8
BLACK
6
CONTINUOUS
10
0.47
20
1.4775
11
0.53
21
1.4775
0
LINE
8
BLACK
6
CONTINUOUS
10
0.53
20
1.4775
11
0.53
21
1.4175
0
LINE
8
BLACK
6
CONTINUOUS
10
0.63
20
1.4175
11
0.57
21
1.4175
0
LINE
8
BLACK
6
CONTINUOUS
10
0.57
20
1.4175
11
0.57
21
1.4775
0
LINE
8
BLACK
6
CONTINUOUS
10
0.57
20
1.4775
11
0.63
21
1.4775
0
LINE
8
BLACK
6
CONTINUOUS
10
0.63
20
1.4775
11
0.63
21
1.4175
0
LINE
8
BLACK
6
CONTINUOUS
10
0.73
20
1.4175
11
0.67
21
1.4175
0
LINE
8
BLACK
6
CONTINUOUS
10
0.67
20
1.4175
11
0.67
21
1.4775
0
LINE
8
BLACK
6
CONTINUOUS
10
0.67
20
1.4775
11
0.73
21
1.4775
0
LINE
8
BLACK
6
CONTINUOUS
10
0.73
20
1.4775
11
0.73
21
1.4175
0
LINE
8
BLACK
6
CONTINUOUS
10
1.1857331102362205
20
1.5872243307086613
11
1.1875635433070866
21
1.5851118897637795
0
LINE
8
BLACK
6
CONTINUOUS
10
1.1875635433070866
20
1.5851118897637795
11
1.188011811023622
21
1.5830511811023622
0
LINE
8
BLACK
6
CONTINUOUS
10
1.188011811023622
20
1.5830511811023622
11
1.188011811023622
21
0.0169488188976378
0
LINE
8
BLACK
6
CONTINUOUS
10
1.188011811023622
20
0.0169488188976378
11
1.1872243307086614
21
0.0142668897637795
0
LINE
8
BLACK
6
CONTINUOUS
10
1.1872243307086614
20
0.0142668897637795
11
1.1851118897637796
21
0.0124364566929134
0
LINE
8
BLACK
6
CONTINUOUS
10
1.1851118897637796
20
0.0124364566929134
11
1.1830511811023621
21
0.011988188976378
0
LINE
8
BLACK
6
CONTINUOUS
10
1.1830511811023621
20
0.011988188976378
11
0.0169488188976378
21
0.011988188976378
0
LINE
8
BLACK
6
CONTINUOUS
10
0.0169488188976378
20
0.011988188976378
11
0.0142668897637795
21
0.0127756692913386
0
LINE
8
BLACK
6
CONTINUOUS
10
0.0142668897637795
20
0.0127756692913386
11
0.0124364566929134
21
0.0148881102362205
0
LINE
8
BLACK
6
CONTINUOUS
10
0.0124364566929134
20
0.0148881102362205
11
0.011988188976378
21
0.0169488188976378
0
LINE
8
BLACK
6
CONTINUOUS
10
0.011988188976378
20
0.0169488188976378
11
0.011988188976378
21
0.5419153149606299
0
LINE
8
BLACK
6
CONTINUOUS
10
0.011988188976378
20
0.5419153149606299
11
0.011988188976378
21
1.20691531496063
0
LINE
8
BLACK
6
CONTINUOUS
10
0.011988188976378
20
1.20691531496063
11
0.011988188976378
21
1.5830511811023622
0
LINE
8
BLACK
6
CONTINUOUS
10
0.011988188976378
20
1.5830511811023622
11
0.0127756692913386
21
1.5857331102362204
0
LINE
8
BLACK
6
CONTINUOUS
10
0.0127756692913386
20
1.5857331102362204
11
0.0148881102362205
21
1.5875635433070865
0
LINE
8
BLACK
6
CONTINUOUS
10
0.0148881102362205
20
1.5875635433070865
11
0.0169488188976378
21
1.5880118110236221
0
LINE
8
BLACK
6
CONTINUOUS
10
0.0169488188976378
20
1.5880118110236221
11
1.1830511811023621
21
1.5880118110236221
0
LINE
8
BLACK
6
CONTINUOUS
10
1.1830511811023621
20
1.5880118110236221
11
1.1857331102362205
21
1.5872243307086613
0
LINE
8
BLACK
6
CONTINUOUS
10
0.4249803149606299
20
0.3330846456692914
11
0.4252365748031496
21
0.330700905511811
0
LINE
8
BLACK
6
CONTINUOUS
10
0.4252365748031496
20
0.330700905511811
11
0.4252366535433071
21
0.3307005905511811
0
LINE
8
BLACK
6
CONTINUOUS
10
0.4252366535433071
20
0.3307005905511811
11
0.4272484251968504
21
0.325306968503937
0
LINE
8
BLACK
6
CONTINUOUS
10
0.4272484251968504
20
0.325306968503937
11
0.4272485039370079
21
0.3253067716535433
0
LINE
8
BLACK
6
CONTINUOUS
10
0.4272485039370079
20
0.3253067716535433
11
0.4306983464566929
21
0.3206983464566929
0
LINE
8
BLACK
6
CONTINUOUS
10
0.4306983464566929
20
0.3206983464566929
11
0.4353067716535433
21
0.3172485039370079
0
LINE
8
BLACK
6
CONTINUOUS
10
0.4353067716535433
20
0.3172485039370079
11
0.435306968503937
21
0.3172484251968504
0
LINE
8
BLACK
6
CONTINUOUS
10
0.435306968503937
20
0.3172484251968504
11
0.4380572047244095
21
0.3162226377952756
0
LINE
8
BLACK
6
CONTINUOUS
10
0.4380572047244095
20
0.3162226377952756
11
0.440294842519685
21
0.3145475590551181
0
LINE
8
BLACK
6
CONTINUOUS
10
0.440294842519685
20
0.3145475590551181
11
0.4412716141732284
21
0.3119286614173228
0
LINE
8
BLACK
6
CONTINUOUS
10
0.4412716141732284
20
0.3119286614173228
11
0.4406774409448819
21
0.3091974015748031
0
LINE
8
BLACK
6
CONTINUOUS
10
0.4406774409448819
20
0.3091974015748031
11
0.4387009842519685
21
0.3072209448818898
0
LINE
8
BLACK
6
CONTINUOUS
10
0.4387009842519685
20
0.3072209448818898
11
0.4380572047244095
21
0.306926968503937
0
LINE
8
BLACK
6
CONTINUOUS
10
0.4380572047244095
20
0.306926968503937
11
0.4366014173228346
21
0.306383937007874
0
LINE
8
BLACK
6
CONTINUOUS
10
0.4366014173228346
20
0.306383937007874
11
0.4353069291338583
21
0.3059011417322834
0
LINE
8
BLACK
6
CONTINUOUS
10
0.4353069291338583
20
0.3059011417322834
11
0.4353068503937008
21
0.3059011023622047
0
LINE
8
BLACK
6
CONTINUOUS
10
0.4353068503937008
20
0.3059011023622047
11
0.4353067716535433
21
0.305901062992126
0
LINE
8
BLACK
6
CONTINUOUS
10
0.4353067716535433
20
0.305901062992126
11
0.4306983464566929
21
0.3024512204724409
0
LINE
8
BLACK
6
CONTINUOUS
10
0.4306983464566929
20
0.3024512204724409
11
0.4272485039370079
21
0.2978427952755905
0
LINE
8
BLACK
6
CONTINUOUS
10
0.4272485039370079
20
0.2978427952755905
11
0.4272484251968504
21
0.2978425984251968
0
LINE
8
BLACK
6
CONTINUOUS
10
0.4272484251968504
20
0.2978425984251968
11
0.4252366535433071
21
0.2924489763779528
0
LINE
8
BLACK
6
CONTINUOUS
10
0.4252366535433071
20
0.2924489763779528
11
0.4252365748031496
21
0.2924486614173228
0
LINE
8
BLACK
6
CONTINUOUS
10
0.4252365748031496
20
0.2924486614173228
11
0.4249803149606299
21
0.2900649212598425
0
LINE
8
BLACK
6
CONTINUOUS
10
0.4249803149606299
20
0.2900649212598425
11
0.4249803149606299
21
0.1362342519685039
0
LINE
8
BLACK
6
CONTINUOUS
10
0.4249803149606299
20
0.1362342519685039
11
0.4252365748031496
21
0.1338505118110236
0
LINE
8
BLACK
6
CONTINUOUS
10
0.4252365748031496
20
0.1338505118110236
11
0.4252366535433071
21
0.1338501968503937
0
LINE
8
BLACK
6
CONTINUOUS
10
0.4252366535433071
20
0.1338501968503937
11
0.4272484251968504
21
0.1284565748031496
0
LINE
8
BLACK
6
CONTINUOUS
10
0.4272484251968504
20
0.1284565748031496
11
0.4272485039370079
21
0.1284563779527559
0
LINE
8
BLACK
6
CONTINUOUS
10
0.4272485039370079
20
0.1284563779527559
11
0.4306983464566929
21
0.1238479527559055
0
LINE
8
BLACK
6
CONTINUOUS
10
0.4306983464566929
20
0.1238479527559055
11
0.4353067716535433
21
0.1203981102362205
0
LINE
8
BLACK
6
CONTINUOUS
10
0.4353067716535433
20
0.1203981102362205
11
0.435306968503937
21
0.120398031496063
0
LINE
8
BLACK
6
CONTINUOUS
10
0.435306968503937
20
0.120398031496063
11
0.4407005905511811
21
0.1183862598425197
0
LINE
8
BLACK
6
CONTINUOUS
10
0.4407005905511811
20
0.1183862598425197
11
0.440700905511811
21
0.1183861811023622
0
LINE
8
BLACK
6
CONTINUOUS
10
0.440700905511811
20
0.1183861811023622
11
0.4430846456692913
21
0.1181299212598425
0
LINE
8
BLACK
6
CONTINUOUS
10
0.4430846456692913
20
0.1181299212598425
11
0.4430851181102362
21
0.1181299212598425
0
LINE
8
BLACK
6
CONTINUOUS
10
0.4430851181102362
20
0.1181299212598425
11
0.5969153149606299
21
0.1181299212598425
0
LINE
8
BLACK
6
CONTINUOUS
10
0.5969153149606299
20
0.1181299212598425
11
0.5992990551181102
21
0.1183861811023622
0
LINE
8
BLACK
6
CONTINUOUS
10
0.5992990551181102
20
0.1183861811023622
11
0.5992993700787401
21
0.1183862598425197
0
LINE
8
BLACK
6
CONTINUOUS
10
0.5992993700787401
20
0.1183862598425197
11
0.6046929921259843
21
0.120398031496063
0
LINE
8
BLACK
6
CONTINUOUS
10
0.6046929921259843
20
0.120398031496063
11
0.6046931889763779
21
0.1203981102362205
0
LINE
8
BLACK
6
CONTINUOUS
10
0.6046931889763779
20
0.1203981102362205
11
0.6093016141732284
21
0.1238479527559055
0
LINE
8
BLACK
6
CONTINUOUS
10
0.6093016141732284
20
0.1238479527559055
11
0.6127514566929134
21
0.1284563779527559
0
LINE
8
BLACK
6
CONTINUOUS
10
0.6127514566929134
20
0.1284563779527559
11
0.6127515354330708
21
0.1284565748031496
0
LINE
8
BLACK
6
CONTINUOUS
10
0.6127515354330708
20
0.1284565748031496
11
0.6147633070866142
21
0.1338501968503937
0
LINE
8
BLACK
6
CONTINUOUS
10
0.6147633070866142
20
0.1338501968503937
11
0.6147633858267716
21
0.1338505118110236
0
LINE
8
BLACK
6
CONTINUOUS
10
0.6147633858267716
20
0.1338505118110236
11
0.6150196456692913
21
0.1362342519685039
0
LINE
8
BLACK
6
CONTINUOUS
10
0.6150196456692913
20
0.1362342519685039
11
0.6150196850393701
21
0.1362349212598425
0
LINE
8
BLACK
6
CONTINUOUS
10
0.6150196850393701
20
0.1362349212598425
11
0.6150196850393701
21
0.2900642519685039
0
LINE
8
BLACK
6
CONTINUOUS
10
0.6150196850393701
20
0.2900642519685039
11
0.6150196456692913
21
0.2900649212598425
0
LINE
8
BLACK
6
CONTINUOUS
10
0.6150196456692913
20
0.2900649212598425
11
0.6147633858267716
21
0.2924486614173228
0
LINE
8
BLACK
6
CONTINUOUS
10
0.6147633858267716
20
0.2924486614173228
11
0.6147633070866142
21
0.2924489763779528
0
LINE
8
BLACK
6
CONTINUOUS
10
0.6147633070866142
20
0.2924489763779528
11
0.6144866141732284
21
0.293190748031496
0
LINE
8
BLACK
6
CONTINUOUS
10
0.6144866141732284
20
0.293190748031496
11
0.6127515354330708
21
0.2978426771653543
0
LINE
8
BLACK
6
CONTINUOUS
10
0.6127515354330708
20
0.2978426771653543
11
0.6093016141732284
21
0.3024512204724409
0
LINE
8
BLACK
6
CONTINUOUS
10
0.6093016141732284
20
0.3024512204724409
11
0.6046930708661418
21
0.3059011417322834
0
LINE
8
BLACK
6
CONTINUOUS
10
0.6046930708661418
20
0.3059011417322834
11
0.6019426377952756
21
0.306926968503937
0
LINE
8
BLACK
6
CONTINUOUS
10
0.6019426377952756
20
0.306926968503937
11
0.5997051574803149
21
0.3086020078740158
0
LINE
8
BLACK
6
CONTINUOUS
10
0.5997051574803149
20
0.3086020078740158
11
0.5987283464566929
21
0.3112209448818898
0
LINE
8
BLACK
6
CONTINUOUS
10
0.5987283464566929
20
0.3112209448818898
11
0.5993225196850394
21
0.3139522047244094
0
LINE
8
BLACK
6
CONTINUOUS
10
0.5993225196850394
20
0.3139522047244094
11
0.6012989763779527
21
0.3159286614173228
0
LINE
8
BLACK
6
CONTINUOUS
10
0.6012989763779527
20
0.3159286614173228
11
0.6019422834645669
21
0.3162224409448819
0
LINE
8
BLACK
6
CONTINUOUS
10
0.6019422834645669
20
0.3162224409448819
11
0.6046930708661418
21
0.3172484645669291
0
LINE
8
BLACK
6
CONTINUOUS
10
0.6046930708661418
20
0.3172484645669291
11
0.6046931102362204
21
0.3172485039370079
0
LINE
8
BLACK
6
CONTINUOUS
10
0.6046931102362204
20
0.3172485039370079
11
0.6046932283464567
21
0.3172485433070866
0
LINE
8
BLACK
6
CONTINUOUS
10
0.6046932283464567
20
0.3172485433070866
11
0.6093016141732284
21
0.3206983464566929
0
LINE
8
BLACK
6
CONTINUOUS
10
0.6093016141732284
20
0.3206983464566929
11
0.6127514566929134
21
0.3253067716535433
0
LINE
8
BLACK
6
CONTINUOUS
10
0.6127514566929134
20
0.3253067716535433
11
0.6127515354330708
21
0.325306968503937
0
LINE
8
BLACK
6
CONTINUOUS
10
0.6127515354330708
20
0.325306968503937
11
0.6147633070866142
21
0.3307005905511811
0
LINE
8
BLACK
6
CONTINUOUS
10
0.6147633070866142
20
0.3307005905511811
11
0.6147633858267716
21
0.330700905511811
0
LINE
8
BLACK
6
CONTINUOUS
10
0.6147633858267716
20
0.330700905511811
11
0.6150196456692913
21
0.3330846456692914
0
LINE
8
BLACK
6
CONTINUOUS
10
0.6150196456692913
20
0.3330846456692914
11
0.6150196850393701
21
0.3330853149606299
0
LINE
8
BLACK
6
CONTINUOUS
10
0.6150196850393701
20
0.3330853149606299
11
0.6150196850393701
21
0.4869146456692913
0
LINE
8
BLACK
6
CONTINUOUS
10
0.6150196850393701
20
0.4869146456692913
11
0.6150196456692913
21
0.4869153149606299
0
LINE
8
BLACK
6
CONTINUOUS
10
0.6150196456692913
20
0.4869153149606299
11
0.6147633858267716
21
0.4892990551181102
0
LINE
8
BLACK
6
CONTINUOUS
10
0.6147633858267716
20
0.4892990551181102
11
0.6147633070866142
21
0.4892993700787401
0
LINE
8
BLACK
6
CONTINUOUS
10
0.6147633070866142
20
0.4892993700787401
11
0.6144866141732284
21
0.4900411417322835
0
LINE
8
BLACK
6
CONTINUOUS
10
0.6144866141732284
20
0.4900411417322835
11
0.6127515354330708
21
0.4946930708661417
0
LINE
8
BLACK
6
CONTINUOUS
10
0.6127515354330708
20
0.4946930708661417
11
0.6093016141732284
21
0.4993016141732283
0
LINE
8
BLACK
6
CONTINUOUS
10
0.6093016141732284
20
0.4993016141732283
11
0.6046930708661418
21
0.5027515354330708
0
LINE
8
BLACK
6
CONTINUOUS
10
0.6046930708661418
20
0.5027515354330708
11
0.599299251968504
21
0.5047633464566929
0
LINE
8
BLACK
6
CONTINUOUS
10
0.599299251968504
20
0.5047633464566929
11
0.5992991732283465
21
0.5047633464566929
0
LINE
8
BLACK
6
CONTINUOUS
10
0.5992991732283465
20
0.5047633464566929
11
0.5992990551181102
21
0.5047633858267716
0
LINE
8
BLACK
6
CONTINUOUS
10
0.5992990551181102
20
0.5047633858267716
11
0.5969153149606299
21
0.5050196456692914
0
LINE
8
BLACK
6
CONTINUOUS
10
0.5969153149606299
20
0.5050196456692914
11
0.596915157480315
21
0.5050196456692914
0
LINE
8
BLACK
6
CONTINUOUS
10
0.596915157480315
20
0.5050196456692914
11
0.5969148818897637
21
0.5050196850393701
0
LINE
8
BLACK
6
CONTINUOUS
10
0.5969148818897637
20
0.5050196850393701
11
0.4430851181102362
21
0.5050196850393701
0
LINE
8
BLACK
6
CONTINUOUS
10
0.4430851181102362
20
0.5050196850393701
11
0.4430848425196851
21
0.5050196456692914
0
LINE
8
BLACK
6
CONTINUOUS
10
0.4430848425196851
20
0.5050196456692914
11
0.4430846456692913
21
0.5050196456692914
0
LINE
8
BLACK
6
CONTINUOUS
10
0.4430846456692913
20
0.5050196456692914
11
0.440700905511811
21
0.5047633858267716
0
LINE
8
BLACK
6
CONTINUOUS
10
0.440700905511811
20
0.5047633858267716
11
0.4407005905511811
21
0.5047633070866142
0
LINE
8
BLACK
6
CONTINUOUS
10
0.4407005905511811
20
0.5047633070866142
11
0.437632874015748
21
0.5036190551181102
0
LINE
8
BLACK
6
CONTINUOUS
10
0.437632874015748
20
0.5036190551181102
11
0.4353069291338583
21
0.5027515354330708
0
LINE
8
BLACK
6
CONTINUOUS
10
0.4353069291338583
20
0.5027515354330708
11
0.4353068503937008
21
0.5027514960629921
0
LINE
8
BLACK
6
CONTINUOUS
10
0.4353068503937008
20
0.5027514960629921
11
0.4353067716535433
21
0.5027514566929133
0
LINE
8
BLACK
6
CONTINUOUS
10
0.4353067716535433
20
0.5027514566929133
11
0.4306983464566929
21
0.4993016141732283
0
LINE
8
BLACK
6
CONTINUOUS
10
0.4306983464566929
20
0.4993016141732283
11
0.4272485039370079
21
0.4946931889763779
0
LINE
8
BLACK
6
CONTINUOUS
10
0.4272485039370079
20
0.4946931889763779
11
0.4272484251968504
21
0.4946929921259842
0
LINE
8
BLACK
6
CONTINUOUS
10
0.4272484251968504
20
0.4946929921259842
11
0.4252366535433071
21
0.4892993700787401
0
LINE
8
BLACK
6
CONTINUOUS
10
0.4252366535433071
20
0.4892993700787401
11
0.4252365748031496
21
0.4892990551181102
0
LINE
8
BLACK
6
CONTINUOUS
10
0.4252365748031496
20
0.4892990551181102
11
0.4249803149606299
21
0.4869153149606299
0
LINE
8
BLACK
6
CONTINUOUS
10
0.4249803149606299
20
0.4869153149606299
11
0.4249803149606299
21
0.3330846456692914
0
LINE
8
BLACK
6
CONTINUOUS
10
0.6249803149606299
20
0.3330846456692914
11
0.6252365748031496
21
0.330700905511811
0
LINE
8
BLACK
6
CONTINUOUS
10
0.6252365748031496
20
0.330700905511811
11
0.625236653543307
21
0.3307005905511811
0
LINE
8
BLACK
6
CONTINUOUS
10
0.625236653543307
20
0.3307005905511811
11
0.6272484251968504
21
0.325306968503937
0
LINE
8
BLACK
6
CONTINUOUS
10
0.6272484251968504
20
0.325306968503937
11
0.6272485039370078
21
0.3253067716535433
0
LINE
8
BLACK
6
CONTINUOUS
10
0.6272485039370078
20
0.3253067716535433
11
0.6306983464566929
21
0.3206983464566929
0
LINE
8
BLACK
6
CONTINUOUS
10
0.6306983464566929
20
0.3206983464566929
11
0.6353067716535433
21
0.3172485039370079
0
LINE
8
BLACK
6
CONTINUOUS
10
0.6353067716535433
20
0.3172485039370079
11
0.635306968503937
21
0.3172484251968504
0
LINE
8
BLACK
6
CONTINUOUS
10
0.635306968503937
20
0.3172484251968504
11
0.6380572047244094
21
0.3162226377952756
0
LINE
8
BLACK
6
CONTINUOUS
10
0.6380572047244094
20
0.3162226377952756
11
0.640294842519685
21
0.3145475590551181
0
LINE
8
BLACK
6
CONTINUOUS
10
0.640294842519685
20
0.3145475590551181
11
0.6412716141732283
21
0.3119286614173228
0
LINE
8
BLACK
6
CONTINUOUS
10
0.6412716141732283
20
0.3119286614173228
11
0.6406774409448819
21
0.3091974015748031
0
LINE
8
BLACK
6
CONTINUOUS
10
0.6406774409448819
20
0.3091974015748031
11
0.6387009842519685
21
0.3072209448818898
0
LINE
8
BLACK
6
CONTINUOUS
10
0.6387009842519685
20
0.3072209448818898
11
0.6380572047244094
21
0.306926968503937
0
LINE
8
BLACK
6
CONTINUOUS
10
0.6380572047244094
20
0.306926968503937
11
0.6366014173228346
21
0.306383937007874
0
LINE
8
BLACK
6
CONTINUOUS
10
0.6366014173228346
20
0.306383937007874
11
0.6353069291338582
21
0.3059011417322834
0
LINE
8
BLACK
6
CONTINUOUS
10
0.6353069291338582
20
0.3059011417322834
11
0.6353068503937008
21
0.3059011023622047
0
LINE
8
BLACK
6
CONTINUOUS
10
0.6353068503937008
20
0.3059011023622047
11
0.6353067716535433
21
0.305901062992126
0
LINE
8
BLACK
6
CONTINUOUS
10
0.6353067716535433
20
0.305901062992126
11
0.6306983464566929
21
0.3024512204724409
0
LINE
8
BLACK
6
CONTINUOUS
10
0.6306983464566929
20
0.3024512204724409
11
0.6272485039370078
21
0.2978427952755905
0
LINE
8
BLACK
6
CONTINUOUS
10
0.6272485039370078
20
0.2978427952755905
11
0.6272484251968504
21
0.2978425984251968
0
LINE
8
BLACK
6
CONTINUOUS
10
0.6272484251968504
20
0.2978425984251968
11
0.625236653543307
21
0.2924489763779528
0
LINE
8
BLACK
6
CONTINUOUS
10
0.625236653543307
20
0.2924489763779528
11
0.6252365748031496
21
0.2924486614173228
0
LINE
8
BLACK
6
CONTINUOUS
10
0.6252365748031496
20
0.2924486614173228
11
0.6249803149606299
21
0.2900649212598425
0
LINE
8
BLACK
6
CONTINUOUS
10
0.6249803149606299
20
0.2900649212598425
11
0.6249803149606299
21
0.1362342519685039
0
LINE
8
BLACK
6
CONTINUOUS
10
0.6249803149606299
20
0.1362342519685039
11
0.6252365748031496
21
0.1338505118110236
0
LINE
8
BLACK
6
CONTINUOUS
10
0.6252365748031496
20
0.1338505118110236
11
0.625236653543307
21
0.1338501968503937
0
LINE
8
BLACK
6
CONTINUOUS
10
0.625236653543307
20
0.1338501968503937
11
0.6272484251968504
21
0.1284565748031496
0
LINE
8
BLACK
6
CONTINUOUS
10
0.6272484251968504
20
0.1284565748031496
11
0.6272485039370078
21
0.1284563779527559
0
LINE
8
BLACK
6
CONTINUOUS
10
0.6272485039370078
20
0.1284563779527559
11
0.6306983464566929
21
0.1238479527559055
0
LINE
8
BLACK
6
CONTINUOUS
10
0.6306983464566929
20
0.1238479527559055
11
0.6353067716535433
21
0.1203981102362205
0
LINE
8
BLACK
6
CONTINUOUS
10
0.6353067716535433
20
0.1203981102362205
11
0.635306968503937
21
0.120398031496063
0
LINE
8
BLACK
6
CONTINUOUS
10
0.635306968503937
20
0.120398031496063
11
0.6407005905511811
21
0.1183862598425197
0
LINE
8
BLACK
6
CONTINUOUS
10
0.6407005905511811
20
0.1183862598425197
11
0.640700905511811
21
0.1183861811023622
0
LINE
8
BLACK
6
CONTINUOUS
10
0.640700905511811
20
0.1183861811023622
11
0.6430846456692914
21
0.1181299212598425
0
LINE
8
BLACK
6
CONTINUOUS
10
0.6430846456692914
20
0.1181299212598425
11
0.6430851181102362
21
0.1181299212598425
0
LINE
8
BLACK
6
CONTINUOUS
10
0.6430851181102362
20
0.1181299212598425
11
0.79691531496063
21
0.1181299212598425
0
LINE
8
BLACK
6
CONTINUOUS
10
0.79691531496063
20
0.1181299212598425
11
0.7992990551181102
21
0.1183861811023622
0
LINE
8
BLACK
6
CONTINUOUS
10
0.7992990551181102
20
0.1183861811023622
11
0.7992993700787402
21
0.1183862598425197
0
LINE
8
BLACK
6
CONTINUOUS
10
0.7992993700787402
20
0.1183862598425197
11
0.8046929921259842
21
0.120398031496063
0
LINE
8
BLACK
6
CONTINUOUS
10
0.8046929921259842
20
0.120398031496063
11
0.804693188976378
21
0.1203981102362205
0
LINE
8
BLACK
6
CONTINUOUS
10
0.804693188976378
20
0.1203981102362205
11
0.8093016141732283
21
0.1238479527559055
0
LINE
8
BLACK
6
CONTINUOUS
10
0.8093016141732283
20
0.1238479527559055
11
0.8127514566929134
21
0.1284563779527559
0
LINE
8
BLACK
6
CONTINUOUS
10
0.8127514566929134
20
0.1284563779527559
11
0.8127515354330709
21
0.1284565748031496
0
LINE
8
BLACK
6
CONTINUOUS
10
0.8127515354330709
20
0.1284565748031496
11
0.8147633070866142
21
0.1338501968503937
0
LINE
8
BLACK
6
CONTINUOUS
10
0.8147633070866142
20
0.1338501968503937
11
0.8147633858267717
21
0.1338505118110236
0
LINE
8
BLACK
6
CONTINUOUS
10
0.8147633858267717
20
0.1338505118110236
11
0.8150196456692913
21
0.1362342519685039
0
LINE
8
BLACK
6
CONTINUOUS
10
0.8150196456692913
20
0.1362342519685039
11
0.8150196850393701
21
0.1362349212598425
0
LINE
8
BLACK
6
CONTINUOUS
10
0.8150196850393701
20
0.1362349212598425
11
0.8150196850393701
21
0.2900642519685039
0
LINE
8
BLACK
6
CONTINUOUS
10
0.8150196850393701
20
0.2900642519685039
11
0.8150196456692913
21
0.2900649212598425
0
LINE
8
BLACK
6
CONTINUOUS
10
0.8150196456692913
20
0.2900649212598425
11
0.8147633858267717
21
0.2924486614173228
0
LINE
8
BLACK
6
CONTINUOUS
10
0.8147633858267717
20
0.2924486614173228
11
0.8147633070866142
21
0.2924489763779528
0
LINE
8
BLACK
6
CONTINUOUS
10
0.8147633070866142
20
0.2924489763779528
11
0.8144866141732283
21
0.293190748031496
0
LINE
8
BLACK
6
CONTINUOUS
10
0.8144866141732283
20
0.293190748031496
11
0.8127515354330709
21
0.2978426771653543
0
LINE
8
BLACK
6
CONTINUOUS
10
0.8127515354330709
20
0.2978426771653543
11
0.8093016141732283
21
0.3024512204724409
0
LINE
8
BLACK
6
CONTINUOUS
10
0.8093016141732283
20
0.3024512204724409
11
0.8046930708661417
21
0.3059011417322834
0
LINE
8
BLACK
6
CONTINUOUS
10
0.8046930708661417
20
0.3059011417322834
11
0.8019426377952755
21
0.306926968503937
0
LINE
8
BLACK
6
CONTINUOUS
10
0.8019426377952755
20
0.306926968503937
11
0.7997051574803149
21
0.3086020078740158
0
LINE
8
BLACK
6
CONTINUOUS
10
0.7997051574803149
20
0.3086020078740158
11
0.7987283464566929
21
0.3112209448818898
0
LINE
8
BLACK
6
CONTINUOUS
10
0.7987283464566929
20
0.3112209448818898
11
0.7993225196850393
21
0.3139522047244094
0
LINE
8
BLACK
6
CONTINUOUS
10
0.7993225196850393
20
0.3139522047244094
11
0.8012989763779528
21
0.3159286614173228
0
LINE
8
BLACK
6
CONTINUOUS
10
0.8012989763779528
20
0.3159286614173228
11
0.8019422834645669
21
0.3162224409448819
0
LINE
8
BLACK
6
CONTINUOUS
10
0.8019422834645669
20
0.3162224409448819
11
0.8046930708661417
21
0.3172484645669291
0
LINE
8
BLACK
6
CONTINUOUS
10
0.8046930708661417
20
0.3172484645669291
11
0.8046931102362205
21
0.3172485039370079
0
LINE
8
BLACK
6
CONTINUOUS
10
0.8046931102362205
20
0.3172485039370079
11
0.8046932283464566
21
0.3172485433070866
0
LINE
8
BLACK
6
CONTINUOUS
10
0.8046932283464566
20
0.3172485433070866
11
0.8093016141732283
21
0.3206983464566929
0
LINE
8
BLACK
6
CONTINUOUS
10
0.8093016141732283
20
0.3206983464566929
11
0.8127514566929134
21
0.3253067716535433
0
LINE
8
BLACK
6
CONTINUOUS
10
0.8127514566929134
20
0.3253067716535433
11
0.8127515354330709
21
0.325306968503937
0
LINE
8
BLACK
6
CONTINUOUS
10
0.8127515354330709
20
0.325306968503937
11
0.8147633070866142
21
0.3307005905511811
0
LINE
8
BLACK
6
CONTINUOUS
10
0.8147633070866142
20
0.3307005905511811
11
0.8147633858267717
21
0.330700905511811
0
LINE
8
BLACK
6
CONTINUOUS
10
0.8147633858267717
20
0.330700905511811
11
0.8150196456692913
21
0.3330846456692914
0
LINE
8
BLACK
6
CONTINUOUS
10
0.8150196456692913
20
0.3330846456692914
11
0.8150196850393701
21
0.3330853149606299
0
LINE
8
BLACK
6
CONTINUOUS
10
0.8150196850393701
20
0.3330853149606299
11
0.8150196850393701
21
0.4869146456692913
0
LINE
8
BLACK
6
CONTINUOUS
10
0.8150196850393701
20
0.4869146456692913
11
0.8150196456692913
21
0.4869153149606299
0
LINE
8
BLACK
6
CONTINUOUS
10
0.8150196456692913
20
0.4869153149606299
11
0.8147633858267717
21
0.4892990551181102
0
LINE
8
BLACK
6
CONTINUOUS
10
0.8147633858267717
20
0.4892990551181102
11
0.8147633070866142
21
0.4892993700787401
0
LINE
8
BLACK
6
CONTINUOUS
10
0.8147633070866142
20
0.4892993700787401
11
0.8144866141732283
21
0.4900411417322835
0
LINE
8
BLACK
6
CONTINUOUS
10
0.8144866141732283
20
0.4900411417322835
11
0.8127515354330709
21
0.4946930708661417
0
LINE
8
BLACK
6
CONTINUOUS
10
0.8127515354330709
20
0.4946930708661417
11
0.8093016141732283
21
0.4993016141732283
0
LINE
8
BLACK
6
CONTINUOUS
10
0.8093016141732283
20
0.4993016141732283
11
0.8046930708661417
21
0.5027515354330708
0
LINE
8
BLACK
6
CONTINUOUS
10
0.8046930708661417
20
0.5027515354330708
11
0.7992992519685039
21
0.5047633464566929
0
LINE
8
BLACK
6
CONTINUOUS
10
0.7992992519685039
20
0.5047633464566929
11
0.7992991732283464
21
0.5047633464566929
0
LINE
8
BLACK
6
CONTINUOUS
10
0.7992991732283464
20
0.5047633464566929
11
0.7992990551181102
21
0.5047633858267716
0
LINE
8
BLACK
6
CONTINUOUS
10
0.7992990551181102
20
0.5047633858267716
11
0.79691531496063
21
0.5050196456692914
0
LINE
8
BLACK
6
CONTINUOUS
10
0.79691531496063
20
0.5050196456692914
11
0.7969151574803149
21
0.5050196456692914
0
LINE
8
BLACK
6
CONTINUOUS
10
0.7969151574803149
20
0.5050196456692914
11
0.7969148818897638
21
0.5050196850393701
0
LINE
8
BLACK
6
CONTINUOUS
10
0.7969148818897638
20
0.5050196850393701
11
0.6430851181102362
21
0.5050196850393701
0
LINE
8
BLACK
6
CONTINUOUS
10
0.6430851181102362
20
0.5050196850393701
11
0.643084842519685
21
0.5050196456692914
0
LINE
8
BLACK
6
CONTINUOUS
10
0.643084842519685
20
0.5050196456692914
11
0.6430846456692914
21
0.5050196456692914
0
LINE
8
BLACK
6
CONTINUOUS
10
0.6430846456692914
20
0.5050196456692914
11
0.640700905511811
21
0.5047633858267716
0
LINE
8
BLACK
6
CONTINUOUS
10
0.640700905511811
20
0.5047633858267716
11
0.6407005905511811
21
0.5047633070866142
0
LINE
8
BLACK
6
CONTINUOUS
10
0.6407005905511811
20
0.5047633070866142
11
0.637632874015748
21
0.5036190551181102
0
LINE
8
BLACK
6
CONTINUOUS
10
0.637632874015748
20
0.5036190551181102
11
0.6353069291338582
21
0.5027515354330708
0
LINE
8
BLACK
6
CONTINUOUS
10
0.6353069291338582
20
0.5027515354330708
11
0.6353068503937008
21
0.5027514960629921
0
LINE
8
BLACK
6
CONTINUOUS
10
0.6353068503937008
20
0.5027514960629921
11
0.6353067716535433
21
0.5027514566929133
0
LINE
8
BLACK
6
CONTINUOUS
10
0.6353067716535433
20
0.5027514566929133
11
0.6306983464566929
21
0.4993016141732283
0
LINE
8
BLACK
6
CONTINUOUS
10
0.6306983464566929
20
0.4993016141732283
11
0.6272485039370078
21
0.4946931889763779
0
LINE
8
BLACK
6
CONTINUOUS
10
0.6272485039370078
20
0.4946931889763779
11
0.6272484251968504
21
0.4946929921259842
0
LINE
8
BLACK
6
CONTINUOUS
10
0.6272484251968504
20
0.4946929921259842
11
0.625236653543307
21
0.4892993700787401
0
LINE
8
BLACK
6
CONTINUOUS
10
0.625236653543307
20
0.4892993700787401
11
0.6252365748031496
21
0.4892990551181102
0
LINE
8
BLACK
6
CONTINUOUS
10
0.6252365748031496
20
0.4892990551181102
11
0.6249803149606299
21
0.4869153149606299
0
LINE
8
BLACK
6
CONTINUOUS
10
0.6249803149606299
20
0.4869153149606299
11
0.6249803149606299
21
0.3330846456692914
0
LINE
8
BLACK
6
CONTINUOUS
10
0.0999803149606299
20
0.4780846456692913
11
0.1002365748031496
21
0.475700905511811
0
LINE
8
BLACK
6
CONTINUOUS
10
0.1002365748031496
20
0.475700905511811
11
0.1002366535433071
21
0.4757005905511811
0
LINE
8
BLACK
6
CONTINUOUS
10
0.1002366535433071
20
0.4757005905511811
11
0.1022484251968504
21
0.470306968503937
0
LINE
8
BLACK
6
CONTINUOUS
10
0.1022484251968504
20
0.470306968503937
11
0.1022485039370079
21
0.4703067716535433
0
LINE
8
BLACK
6
CONTINUOUS
10
0.1022485039370079
20
0.4703067716535433
11
0.1056983464566929
21
0.4656983464566929
0
LINE
8
BLACK
6
CONTINUOUS
10
0.1056983464566929
20
0.4656983464566929
11
0.1103067716535433
21
0.4622485039370078
0
LINE
8
BLACK
6
CONTINUOUS
10
0.1103067716535433
20
0.4622485039370078
11
0.110306968503937
21
0.4622484251968504
0
LINE
8
BLACK
6
CONTINUOUS
10
0.110306968503937
20
0.4622484251968504
11
0.1157005905511811
21
0.4602366535433071
0
LINE
8
BLACK
6
CONTINUOUS
10
0.1157005905511811
20
0.4602366535433071
11
0.115700905511811
21
0.4602365748031496
0
LINE
8
BLACK
6
CONTINUOUS
10
0.115700905511811
20
0.4602365748031496
11
0.1180846456692913
21
0.4599803149606299
0
LINE
8
BLACK
6
CONTINUOUS
10
0.1180846456692913
20
0.4599803149606299
11
0.1180851181102362
21
0.4599803149606299
0
LINE
8
BLACK
6
CONTINUOUS
10
0.1180851181102362
20
0.4599803149606299
11
0.1819153149606299
21
0.4599803149606299
0
LINE
8
BLACK
6
CONTINUOUS
10
0.1819153149606299
20
0.4599803149606299
11
0.1842990551181102
21
0.4602365748031496
0
LINE
8
BLACK
6
CONTINUOUS
10
0.1842990551181102
20
0.4602365748031496
11
0.1842993700787401
21
0.4602366535433071
0
LINE
8
BLACK
6
CONTINUOUS
10
0.1842993700787401
20
0.4602366535433071
11
0.1896929921259843
21
0.4622484251968504
0
LINE
8
BLACK
6
CONTINUOUS
10
0.1896929921259843
20
0.4622484251968504
11
0.1896931889763779
21
0.4622485039370078
0
LINE
8
BLACK
6
CONTINUOUS
10
0.1896931889763779
20
0.4622485039370078
11
0.1943016141732283
21
0.4656983858267716
0
LINE
8
BLACK
6
CONTINUOUS
10
0.1943016141732283
20
0.4656983858267716
11
0.1960288582677165
21
0.4680056299212598
0
LINE
8
BLACK
6
CONTINUOUS
10
0.1960288582677165
20
0.4680056299212598
11
0.1982664960629921
21
0.4696806692913386
0
LINE
8
BLACK
6
CONTINUOUS
10
0.1982664960629921
20
0.4696806692913386
11
0.2010544881889764
21
0.4698800393700787
0
LINE
8
BLACK
6
CONTINUOUS
10
0.2010544881889764
20
0.4698800393700787
11
0.2035077165354331
21
0.4685404724409449
0
LINE
8
BLACK
6
CONTINUOUS
10
0.2035077165354331
20
0.4685404724409449
11
0.2039711417322835
21
0.4680056299212598
0
LINE
8
BLACK
6
CONTINUOUS
10
0.2039711417322835
20
0.4680056299212598
11
0.2056983464566929
21
0.4656983858267716
0
LINE
8
BLACK
6
CONTINUOUS
10
0.2056983464566929
20
0.4656983858267716
11
0.2103067716535433
21
0.4622485039370078
0
LINE
8
BLACK
6
CONTINUOUS
10
0.2103067716535433
20
0.4622485039370078
11
0.210306968503937
21
0.4622484251968504
0
LINE
8
BLACK
6
CONTINUOUS
10
0.210306968503937
20
0.4622484251968504
11
0.2157005905511811
21
0.4602366535433071
0
LINE
8
BLACK
6
CONTINUOUS
10
0.2157005905511811
20
0.4602366535433071
11
0.215700905511811
21
0.4602365748031496
0
LINE
8
BLACK
6
CONTINUOUS
10
0.215700905511811
20
0.4602365748031496
11
0.2180846456692913
21
0.4599803149606299
0
LINE
8
BLACK
6
CONTINUOUS
10
0.2180846456692913
20
0.4599803149606299
11
0.2180851181102362
21
0.4599803149606299
0
LINE
8
BLACK
6
CONTINUOUS
10
0.2180851181102362
20
0.4599803149606299
11
0.2819153149606299
21
0.4599803149606299
0
LINE
8
BLACK
6
CONTINUOUS
10
0.2819153149606299
20
0.4599803149606299
11
0.2842990551181102
21
0.4602365748031496
0
LINE
8
BLACK
6
CONTINUOUS
10
0.2842990551181102
20
0.4602365748031496
11
0.2842993700787402
21
0.4602366535433071
0
LINE
8
BLACK
6
CONTINUOUS
10
0.2842993700787402
20
0.4602366535433071
11
0.2896929921259843
21
0.4622484251968504
0
LINE
8
BLACK
6
CONTINUOUS
10
0.2896929921259843
20
0.4622484251968504
11
0.289693188976378
21
0.4622485039370078
0
LINE
8
BLACK
6
CONTINUOUS
10
0.289693188976378
20
0.4622485039370078
11
0.2943016141732284
21
0.4656983464566929
0
LINE
8
BLACK
6
CONTINUOUS
10
0.2943016141732284
20
0.4656983464566929
11
0.2977514566929134
21
0.4703067716535433
0
LINE
8
BLACK
6
CONTINUOUS
10
0.2977514566929134
20
0.4703067716535433
11
0.2977515354330709
21
0.470306968503937
0
LINE
8
BLACK
6
CONTINUOUS
10
0.2977515354330709
20
0.470306968503937
11
0.2997633070866141
21
0.4757005905511811
0
LINE
8
BLACK
6
CONTINUOUS
10
0.2997633070866141
20
0.4757005905511811
11
0.2997633858267716
21
0.475700905511811
0
LINE
8
BLACK
6
CONTINUOUS
10
0.2997633858267716
20
0.475700905511811
11
0.3000196456692913
21
0.4780846456692913
0
LINE
8
BLACK
6
CONTINUOUS
10
0.3000196456692913
20
0.4780846456692913
11
0.3000196850393701
21
0.4780853149606299
0
LINE
8
BLACK
6
CONTINUOUS
10
0.3000196850393701
20
0.4780853149606299
11
0.3000196850393701
21
0.4869153149606299
0
LINE
8
BLACK
6
CONTINUOUS
10
0.3000196850393701
20
0.4869153149606299
11
0.3000196850393701
21
0.5419146456692914
0
LINE
8
BLACK
6
CONTINUOUS
10
0.3000196850393701
20
0.5419146456692914
11
0.3000196456692913
21
0.5419153149606299
0
LINE
8
BLACK
6
CONTINUOUS
10
0.3000196456692913
20
0.5419153149606299
11
0.2997633858267716
21
0.5442990551181103
0
LINE
8
BLACK
6
CONTINUOUS
10
0.2997633858267716
20
0.5442990551181103
11
0.2997633070866141
21
0.5442993700787402
0
LINE
8
BLACK
6
CONTINUOUS
10
0.2997633070866141
20
0.5442993700787402
11
0.2994866141732284
21
0.5450411417322835
0
LINE
8
BLACK
6
CONTINUOUS
10
0.2994866141732284
20
0.5450411417322835
11
0.2977515354330709
21
0.5496930708661417
0
LINE
8
BLACK
6
CONTINUOUS
10
0.2977515354330709
20
0.5496930708661417
11
0.2943016141732284
21
0.5543016141732283
0
LINE
8
BLACK
6
CONTINUOUS
10
0.2943016141732284
20
0.5543016141732283
11
0.2896930708661417
21
0.5577515354330709
0
LINE
8
BLACK
6
CONTINUOUS
10
0.2896930708661417
20
0.5577515354330709
11
0.2842992519685039
21
0.5597633464566929
0
LINE
8
BLACK
6
CONTINUOUS
10
0.2842992519685039
20
0.5597633464566929
11
0.2842991732283465
21
0.5597633464566929
0
LINE
8
BLACK
6
CONTINUOUS
10
0.2842991732283465
20
0.5597633464566929
11
0.2842990551181102
21
0.5597633858267717
0
LINE
8
BLACK
6
CONTINUOUS
10
0.2842990551181102
20
0.5597633858267717
11
0.2819153149606299
21
0.5600196456692913
0
LINE
8
BLACK
6
CONTINUOUS
10
0.2819153149606299
20
0.5600196456692913
11
0.281915157480315
21
0.5600196456692913
0
LINE
8
BLACK
6
CONTINUOUS
10
0.281915157480315
20
0.5600196456692913
11
0.2819148818897638
21
0.5600196850393701
0
LINE
8
BLACK
6
CONTINUOUS
10
0.2819148818897638
20
0.5600196850393701
11
0.2180851181102362
21
0.5600196850393701
0
LINE
8
BLACK
6
CONTINUOUS
10
0.2180851181102362
20
0.5600196850393701
11
0.218084842519685
21
0.5600196456692913
0
LINE
8
BLACK
6
CONTINUOUS
10
0.218084842519685
20
0.5600196456692913
11
0.2180846456692913
21
0.5600196456692913
0
LINE
8
BLACK
6
CONTINUOUS
10
0.2180846456692913
20
0.5600196456692913
11
0.215700905511811
21
0.5597633858267717
0
LINE
8
BLACK
6
CONTINUOUS
10
0.215700905511811
20
0.5597633858267717
11
0.2157005905511811
21
0.5597633070866141
0
LINE
8
BLACK
6
CONTINUOUS
10
0.2157005905511811
20
0.5597633070866141
11
0.212632874015748
21
0.5586190551181103
0
LINE
8
BLACK
6
CONTINUOUS
10
0.212632874015748
20
0.5586190551181103
11
0.2103069291338583
21
0.5577515354330709
0
LINE
8
BLACK
6
CONTINUOUS
10
0.2103069291338583
20
0.5577515354330709
11
0.2103068503937008
21
0.5577514960629921
0
LINE
8
BLACK
6
CONTINUOUS
10
0.2103068503937008
20
0.5577514960629921
11
0.2103067716535433
21
0.5577514566929134
0
LINE
8
BLACK
6
CONTINUOUS
10
0.2103067716535433
20
0.5577514566929134
11
0.2056983464566929
21
0.5543016141732283
0
LINE
8
BLACK
6
CONTINUOUS
10
0.2056983464566929
20
0.5543016141732283
11
0.2039711811023622
21
0.5519943700787402
0
LINE
8
BLACK
6
CONTINUOUS
10
0.2039711811023622
20
0.5519943700787402
11
0.2017335433070866
21
0.5503192913385827
0
LINE
8
BLACK
6
CONTINUOUS
10
0.2017335433070866
20
0.5503192913385827
11
0.1989455118110236
21
0.5501199212598425
0
LINE
8
BLACK
6
CONTINUOUS
10
0.1989455118110236
20
0.5501199212598425
11
0.1964922834645669
21
0.5514594881889764
0
LINE
8
BLACK
6
CONTINUOUS
10
0.1964922834645669
20
0.5514594881889764
11
0.1960288188976378
21
0.5519943700787402
0
LINE
8
BLACK
6
CONTINUOUS
10
0.1960288188976378
20
0.5519943700787402
11
0.1943016141732283
21
0.5543016141732283
0
LINE
8
BLACK
6
CONTINUOUS
10
0.1943016141732283
20
0.5543016141732283
11
0.1896931889763779
21
0.5577514566929134
0
LINE
8
BLACK
6
CONTINUOUS
10
0.1896931889763779
20
0.5577514566929134
11
0.1896931496062992
21
0.5577514566929134
0
LINE
8
BLACK
6
CONTINUOUS
10
0.1896931496062992
20
0.5577514566929134
11
0.1896930708661417
21
0.5577515354330709
0
LINE
8
BLACK
6
CONTINUOUS
10
0.1896930708661417
20
0.5577515354330709
11
0.1842992519685039
21
0.5597633464566929
0
LINE
8
BLACK
6
CONTINUOUS
10
0.1842992519685039
20
0.5597633464566929
11
0.1842991732283465
21
0.5597633464566929
0
LINE
8
BLACK
6
CONTINUOUS
10
0.1842991732283465
20
0.5597633464566929
11
0.1842990551181102
21
0.5597633858267717
0
LINE
8
BLACK
6
CONTINUOUS
10
0.1842990551181102
20
0.5597633858267717
11
0.1819153149606299
21
0.5600196456692913
0
LINE
8
BLACK
6
CONTINUOUS
10
0.1819153149606299
20
0.5600196456692913
11
0.1819151574803149
21
0.5600196456692913
0
LINE
8
BLACK
6
CONTINUOUS
10
0.1819151574803149
20
0.5600196456692913
11
0.1819148818897638
21
0.5600196850393701
0
LINE
8
BLACK
6
CONTINUOUS
10
0.1819148818897638
20
0.5600196850393701
11
0.1180851181102362
21
0.5600196850393701
0
LINE
8
BLACK
6
CONTINUOUS
10
0.1180851181102362
20
0.5600196850393701
11
0.118084842519685
21
0.5600196456692913
0
LINE
8
BLACK
6
CONTINUOUS
10
0.118084842519685
20
0.5600196456692913
11
0.1180846456692913
21
0.5600196456692913
0
LINE
8
BLACK
6
CONTINUOUS
10
0.1180846456692913
20
0.5600196456692913
11
0.115700905511811
21
0.5597633858267717
0
LINE
8
BLACK
6
CONTINUOUS
10
0.115700905511811
20
0.5597633858267717
11
0.1157005905511811
21
0.5597633070866141
0
LINE
8
BLACK
6
CONTINUOUS
10
0.1157005905511811
20
0.5597633070866141
11
0.112632874015748
21
0.5586190551181103
0
LINE
8
BLACK
6
CONTINUOUS
10
0.112632874015748
20
0.5586190551181103
11
0.1103069291338583
21
0.5577515354330709
0
LINE
8
BLACK
6
CONTINUOUS
10
0.1103069291338583
20
0.5577515354330709
11
0.1103068503937008
21
0.5577514960629921
0
LINE
8
BLACK
6
CONTINUOUS
10
0.1103068503937008
20
0.5577514960629921
11
0.1103067716535433
21
0.5577514566929134
0
LINE
8
BLACK
6
CONTINUOUS
10
0.1103067716535433
20
0.5577514566929134
11
0.1056983464566929
21
0.5543016141732283
0
LINE
8
BLACK
6
CONTINUOUS
10
0.1056983464566929
20
0.5543016141732283
11
0.1022485039370079
21
0.549693188976378
0
LINE
8
BLACK
6
CONTINUOUS
10
0.1022485039370079
20
0.549693188976378
11
0.1022484251968504
21
0.5496929921259842
0
LINE
8
BLACK
6
CONTINUOUS
10
0.1022484251968504
20
0.5496929921259842
11
0.1002366535433071
21
0.5442993700787402
0
LINE
8
BLACK
6
CONTINUOUS
10
0.1002366535433071
20
0.5442993700787402
11
0.1002365748031496
21
0.5442990551181103
0
LINE
8
BLACK
6
CONTINUOUS
10
0.1002365748031496
20
0.5442990551181103
11
0.0999803149606299
21
0.5419153149606299
0
LINE
8
BLACK
6
CONTINUOUS
10
0.0999803149606299
20
0.5419153149606299
11
0.0999803149606299
21
0.4780846456692913
0
LINE
8
BLACK
6
CONTINUOUS
10
0.1024803149606299
20
1.1430846456692914
11
0.1027365748031496
21
1.1407009055118109
0
LINE
8
BLACK
6
CONTINUOUS
10
0.1027365748031496
20
1.1407009055118109
11
0.1027366535433071
21
1.1407005905511811
0
LINE
8
BLACK
6
CONTINUOUS
10
0.1027366535433071
20
1.1407005905511811
11
0.1047484251968504
21
1.135306968503937
0
LINE
8
BLACK
6
CONTINUOUS
10
0.1047484251968504
20
1.135306968503937
11
0.1047485039370079
21
1.1353067716535432
0
LINE
8
BLACK
6
CONTINUOUS
10
0.1047485039370079
20
1.1353067716535432
11
0.1081983858267716
21
1.1306983464566929
0
LINE
8
BLACK
6
CONTINUOUS
10
0.1081983858267716
20
1.1306983464566929
11
0.1105056299212598
21
1.1289711417322834
0
LINE
8
BLACK
6
CONTINUOUS
10
0.1105056299212598
20
1.1289711417322834
11
0.1121806692913386
21
1.1267335039370079
0
LINE
8
BLACK
6
CONTINUOUS
10
0.1121806692913386
20
1.1267335039370079
11
0.1123800393700787
21
1.1239455118110235
0
LINE
8
BLACK
6
CONTINUOUS
10
0.1123800393700787
20
1.1239455118110235
11
0.1110404724409449
21
1.1214922834645669
0
LINE
8
BLACK
6
CONTINUOUS
10
0.1110404724409449
20
1.1214922834645669
11
0.1105056299212598
21
1.1210288582677166
0
LINE
8
BLACK
6
CONTINUOUS
10
0.1105056299212598
20
1.1210288582677166
11
0.1081983858267716
21
1.1193016141732284
0
LINE
8
BLACK
6
CONTINUOUS
10
0.1081983858267716
20
1.1193016141732284
11
0.1047485039370079
21
1.114693188976378
0
LINE
8
BLACK
6
CONTINUOUS
10
0.1047485039370079
20
1.114693188976378
11
0.1047484251968504
21
1.1146929921259843
0
LINE
8
BLACK
6
CONTINUOUS
10
0.1047484251968504
20
1.1146929921259843
11
0.1027366535433071
21
1.1092993700787401
0
LINE
8
BLACK
6
CONTINUOUS
10
0.1027366535433071
20
1.1092993700787401
11
0.1027365748031496
21
1.1092990551181101
0
LINE
8
BLACK
6
CONTINUOUS
10
0.1027365748031496
20
1.1092990551181101
11
0.1024803149606299
21
1.1069153149606299
0
LINE
8
BLACK
6
CONTINUOUS
10
0.1024803149606299
20
1.1069153149606299
11
0.1024803149606299
21
1.0430846456692913
0
LINE
8
BLACK
6
CONTINUOUS
10
0.1024803149606299
20
1.0430846456692913
11
0.1027365748031496
21
1.040700905511811
0
LINE
8
BLACK
6
CONTINUOUS
10
0.1027365748031496
20
1.040700905511811
11
0.1027366535433071
21
1.040700590551181
0
LINE
8
BLACK
6
CONTINUOUS
10
0.1027366535433071
20
1.040700590551181
11
0.1047484251968504
21
1.0353069685039369
0
LINE
8
BLACK
6
CONTINUOUS
10
0.1047484251968504
20
1.0353069685039369
11
0.1047485039370079
21
1.0353067716535433
0
LINE
8
BLACK
6
CONTINUOUS
10
0.1047485039370079
20
1.0353067716535433
11
0.1081983858267716
21
1.0306983464566928
0
LINE
8
BLACK
6
CONTINUOUS
10
0.1081983858267716
20
1.0306983464566928
11
0.1105056299212598
21
1.0289711417322835
0
LINE
8
BLACK
6
CONTINUOUS
10
0.1105056299212598
20
1.0289711417322835
11
0.1121806692913386
21
1.0267335039370078
0
LINE
8
BLACK
6
CONTINUOUS
10
0.1121806692913386
20
1.0267335039370078
11
0.1123800393700787
21
1.0239455118110237
0
LINE
8
BLACK
6
CONTINUOUS
10
0.1123800393700787
20
1.0239455118110237
11
0.1110404724409449
21
1.021492283464567
0
LINE
8
BLACK
6
CONTINUOUS
10
0.1110404724409449
20
1.021492283464567
11
0.1105056299212598
21
1.0210288582677165
0
LINE
8
BLACK
6
CONTINUOUS
10
0.1105056299212598
20
1.0210288582677165
11
0.1081983858267716
21
1.0193016141732283
0
LINE
8
BLACK
6
CONTINUOUS
10
0.1081983858267716
20
1.0193016141732283
11
0.1047485039370079
21
1.0146931889763779
0
LINE
8
BLACK
6
CONTINUOUS
10
0.1047485039370079
20
1.0146931889763779
11
0.1047484251968504
21
1.0146929921259842
0
LINE
8
BLACK
6
CONTINUOUS
10
0.1047484251968504
20
1.0146929921259842
11
0.1027366535433071
21
1.00929937007874
0
LINE
8
BLACK
6
CONTINUOUS
10
0.1027366535433071
20
1.00929937007874
11
0.1027365748031496
21
1.0092990551181102
0
LINE
8
BLACK
6
CONTINUOUS
10
0.1027365748031496
20
1.0092990551181102
11
0.1024803149606299
21
1.0069153149606298
0
LINE
8
BLACK
6
CONTINUOUS
10
0.1024803149606299
20
1.0069153149606298
11
0.1024803149606299
21
0.9430846456692913
0
LINE
8
BLACK
6
CONTINUOUS
10
0.1024803149606299
20
0.9430846456692913
11
0.1027365748031496
21
0.940700905511811
0
LINE
8
BLACK
6
CONTINUOUS
10
0.1027365748031496
20
0.940700905511811
11
0.1027366535433071
21
0.940700590551181
0
LINE
8
BLACK
6
CONTINUOUS
10
0.1027366535433071
20
0.940700590551181
11
0.1047484251968504
21
0.935306968503937
0
LINE
8
BLACK
6
CONTINUOUS
10
0.1047484251968504
20
0.935306968503937
11
0.1047485039370079
21
0.9353067716535433
0
LINE
8
BLACK
6
CONTINUOUS
10
0.1047485039370079
20
0.9353067716535433
11
0.1081983464566929
21
0.9306983464566929
0
LINE
8
BLACK
6
CONTINUOUS
10
0.1081983464566929
20
0.9306983464566929
11
0.1128067716535433
21
0.9272485039370079
0
LINE
8
BLACK
6
CONTINUOUS
10
0.1128067716535433
20
0.9272485039370079
11
0.112806968503937
21
0.9272484251968504
0
LINE
8
BLACK
6
CONTINUOUS
10
0.112806968503937
20
0.9272484251968504
11
0.1182005905511811
21
0.9252366535433071
0
LINE
8
BLACK
6
CONTINUOUS
10
0.1182005905511811
20
0.9252366535433071
11
0.118200905511811
21
0.9252365748031496
0
LINE
8
BLACK
6
CONTINUOUS
10
0.118200905511811
20
0.9252365748031496
11
0.1205846456692913
21
0.9249803149606299
0
LINE
8
BLACK
6
CONTINUOUS
10
0.1205846456692913
20
0.9249803149606299
11
0.1205851181102362
21
0.9249803149606299
0
LINE
8
BLACK
6
CONTINUOUS
10
0.1205851181102362
20
0.9249803149606299
11
0.1844153149606299
21
0.9249803149606299
0
LINE
8
BLACK
6
CONTINUOUS
10
0.1844153149606299
20
0.9249803149606299
11
0.1867990551181102
21
0.9252365748031496
0
LINE
8
BLACK
6
CONTINUOUS
10
0.1867990551181102
20
0.9252365748031496
11
0.1867993700787401
21
0.9252366535433071
0
LINE
8
BLACK
6
CONTINUOUS
10
0.1867993700787401
20
0.9252366535433071
11
0.1921929921259843
21
0.9272484251968504
0
LINE
8
BLACK
6
CONTINUOUS
10
0.1921929921259843
20
0.9272484251968504
11
0.1921931889763779
21
0.9272485039370079
0
LINE
8
BLACK
6
CONTINUOUS
10
0.1921931889763779
20
0.9272485039370079
11
0.1968016141732283
21
0.9306983464566929
0
LINE
8
BLACK
6
CONTINUOUS
10
0.1968016141732283
20
0.9306983464566929
11
0.2002514566929134
21
0.9353067716535433
0
LINE
8
BLACK
6
CONTINUOUS
10
0.2002514566929134
20
0.9353067716535433
11
0.2002515354330709
21
0.935306968503937
0
LINE
8
BLACK
6
CONTINUOUS
10
0.2002515354330709
20
0.935306968503937
11
0.200314094488189
21
0.9354746062992125
0
LINE
8
BLACK
6
CONTINUOUS
10
0.200314094488189
20
0.9354746062992125
11
0.2011190551181102
21
0.937632874015748
0
LINE
8
BLACK
6
CONTINUOUS
10
0.2011190551181102
20
0.937632874015748
11
0.2022633070866142
21
0.940700590551181
0
LINE
8
BLACK
6
CONTINUOUS
10
0.2022633070866142
20
0.940700590551181
11
0.2022633858267716
21
0.940700905511811
0
LINE
8
BLACK
6
CONTINUOUS
10
0.2022633858267716
20
0.940700905511811
11
0.2025196456692913
21
0.9430846456692913
0
LINE
8
BLACK
6
CONTINUOUS
10
0.2025196456692913
20
0.9430846456692913
11
0.2025196850393701
21
0.9430853149606299
0
LINE
8
BLACK
6
CONTINUOUS
10
0.2025196850393701
20
0.9430853149606299
11
0.2025196850393701
21
1.0069146456692912
0
LINE
8
BLACK
6
CONTINUOUS
10
0.2025196850393701
20
1.0069146456692912
11
0.2025196456692913
21
1.0069153149606298
0
LINE
8
BLACK
6
CONTINUOUS
10
0.2025196456692913
20
1.0069153149606298
11
0.2022633858267716
21
1.0092990551181102
0
LINE
8
BLACK
6
CONTINUOUS
10
0.2022633858267716
20
1.0092990551181102
11
0.2022633070866142
21
1.00929937007874
0
LINE
8
BLACK
6
CONTINUOUS
10
0.2022633070866142
20
1.00929937007874
11
0.2011633464566929
21
1.0122484251968504
0
LINE
8
BLACK
6
CONTINUOUS
10
0.2011633464566929
20
1.0122484251968504
11
0.2002515354330709
21
1.0146930708661417
0
LINE
8
BLACK
6
CONTINUOUS
10
0.2002515354330709
20
1.0146930708661417
11
0.1994989763779527
21
1.0156983464566929
0
LINE
8
BLACK
6
CONTINUOUS
10
0.1994989763779527
20
1.0156983464566929
11
0.1968016141732283
21
1.0193016141732283
0
LINE
8
BLACK
6
CONTINUOUS
10
0.1968016141732283
20
1.0193016141732283
11
0.1944943700787402
21
1.0210288188976377
0
LINE
8
BLACK
6
CONTINUOUS
10
0.1944943700787402
20
1.0210288188976377
11
0.1928192913385827
21
1.0232664566929133
0
LINE
8
BLACK
6
CONTINUOUS
10
0.1928192913385827
20
1.0232664566929133
11
0.1926199212598425
21
1.0260544881889764
0
LINE
8
BLACK
6
CONTINUOUS
10
0.1926199212598425
20
1.0260544881889764
11
0.1939594881889764
21
1.028507716535433
0
LINE
8
BLACK
6
CONTINUOUS
10
0.1939594881889764
20
1.028507716535433
11
0.1944943700787402
21
1.0289711811023621
0
LINE
8
BLACK
6
CONTINUOUS
10
0.1944943700787402
20
1.0289711811023621
11
0.1969636220472441
21
1.0308196456692913
0
LINE
8
BLACK
6
CONTINUOUS
10
0.1969636220472441
20
1.0308196456692913
11
0.1995825196850394
21
1.0317964566929134
0
LINE
8
BLACK
6
CONTINUOUS
10
0.1995825196850394
20
1.0317964566929134
11
0.2023137795275591
21
1.0312023228346456
0
LINE
8
BLACK
6
CONTINUOUS
10
0.2023137795275591
20
1.0312023228346456
11
0.203444094488189
21
1.0303561811023623
0
LINE
8
BLACK
6
CONTINUOUS
10
0.203444094488189
20
1.0303561811023623
11
0.211214842519685
21
1.0225854724409449
0
LINE
8
BLACK
6
CONTINUOUS
10
0.211214842519685
20
1.0225854724409449
11
0.2112149212598425
21
1.0225853937007874
0
LINE
8
BLACK
6
CONTINUOUS
10
0.2112149212598425
20
1.0225853937007874
11
0.2157834251968504
21
1.0195328346456694
0
LINE
8
BLACK
6
CONTINUOUS
10
0.2157834251968504
20
1.0195328346456694
11
0.2178861417322835
21
1.0186618897637796
0
LINE
8
BLACK
6
CONTINUOUS
10
0.2178861417322835
20
1.0186618897637796
11
0.2208596456692913
21
1.0174301968503936
0
LINE
8
BLACK
6
CONTINUOUS
10
0.2208596456692913
20
1.0174301968503936
11
0.2208597637795275
21
1.0174301574803148
0
LINE
8
BLACK
6
CONTINUOUS
10
0.2208597637795275
20
1.0174301574803148
11
0.2224005118110236
21
1.0171236614173229
0
LINE
8
BLACK
6
CONTINUOUS
10
0.2224005118110236
20
1.0171236614173229
11
0.2254819291338583
21
1.0165107480314961
0
LINE
8
BLACK
6
CONTINUOUS
10
0.2254819291338583
20
1.0165107480314961
11
0.225481968503937
21
1.0165107086614174
0
LINE
8
BLACK
6
CONTINUOUS
10
0.225481968503937
20
1.0165107086614174
11
0.2262485039370079
21
1.0163582283464567
0
LINE
8
BLACK
6
CONTINUOUS
10
0.2262485039370079
20
1.0163582283464567
11
0.2262487795275591
21
1.0163582283464567
0
LINE
8
BLACK
6
CONTINUOUS
10
0.2262487795275591
20
1.0163582283464567
11
0.2262488188976378
21
1.0163582283464567
0
LINE
8
BLACK
6
CONTINUOUS
10
0.2262488188976378
20
1.0163582283464567
11
0.3317222440944882
21
1.0163582283464567
0
LINE
8
BLACK
6
CONTINUOUS
10
0.3317222440944882
20
1.0163582283464567
11
0.6918871653543307
21
1.0163582283464567
0
LINE
8
BLACK
6
CONTINUOUS
10
0.6918871653543307
20
1.0163582283464567
11
0.6945690944881889
21
1.0155707480314959
0
LINE
8
BLACK
6
CONTINUOUS
10
0.6945690944881889
20
1.0155707480314959
11
0.6953946456692913
21
1.0149054330708662
0
LINE
8
BLACK
6
CONTINUOUS
10
0.6953946456692913
20
1.0149054330708662
11
0.7493590944881889
21
0.9609409842519685
0
LINE
8
BLACK
6
CONTINUOUS
10
0.7493590944881889
20
0.9609409842519685
11
0.7644690551181103
21
0.9458310236220472
0
LINE
8
BLACK
6
CONTINUOUS
10
0.7644690551181103
20
0.9458310236220472
11
0.7658086220472441
21
0.9433777952755905
0
LINE
8
BLACK
6
CONTINUOUS
10
0.7658086220472441
20
0.9433777952755905
11
0.7658980708661417
21
0.9428095669291339
0
LINE
8
BLACK
6
CONTINUOUS
10
0.7658980708661417
20
0.9428095669291339
11
0.7660231889763779
21
0.9415392125984252
0
LINE
8
BLACK
6
CONTINUOUS
10
0.7660231889763779
20
0.9415392125984252
11
0.7655023622047243
21
0.938793031496063
0
LINE
8
BLACK
6
CONTINUOUS
10
0.7655023622047243
20
0.938793031496063
11
0.7635795275590551
21
0.9367643700787401
0
LINE
8
BLACK
6
CONTINUOUS
10
0.7635795275590551
20
0.9367643700787401
11
0.7608651574803149
21
0.9360972834645669
0
LINE
8
BLACK
6
CONTINUOUS
10
0.7608651574803149
20
0.9360972834645669
11
0.759188188976378
21
0.9364699606299213
0
LINE
8
BLACK
6
CONTINUOUS
10
0.759188188976378
20
0.9364699606299213
11
0.7568731102362205
21
0.9374288976377952
0
LINE
8
BLACK
6
CONTINUOUS
10
0.7568731102362205
20
0.9374288976377952
11
0.7518644488188976
21
0.9384251968503937
0
LINE
8
BLACK
6
CONTINUOUS
10
0.7518644488188976
20
0.9384251968503937
11
0.6493275984251968
21
0.9384251968503937
0
LINE
8
BLACK
6
CONTINUOUS
10
0.6493275984251968
20
0.9384251968503937
11
0.6466456692913386
21
0.9392126771653543
0
LINE
8
BLACK
6
CONTINUOUS
10
0.6466456692913386
20
0.9392126771653543
11
0.6461806299212598
21
0.9395512204724409
0
LINE
8
BLACK
6
CONTINUOUS
10
0.6461806299212598
20
0.9395512204724409
11
0.6418750787401575
21
0.9430846456692913
0
LINE
8
BLACK
6
CONTINUOUS
10
0.6418750787401575
20
0.9430846456692913
11
0.6409457874015748
21
0.9438472834645669
0
LINE
8
BLACK
6
CONTINUOUS
10
0.6409457874015748
20
0.9438472834645669
11
0.6409457874015748
21
0.9438473228346457
0
LINE
8
BLACK
6
CONTINUOUS
10
0.6409457874015748
20
0.9438473228346457
11
0.6409457086614173
21
0.9438473622047244
0
LINE
8
BLACK
6
CONTINUOUS
10
0.6409457086614173
20
0.9438473622047244
11
0.6409456692913386
21
0.9438474015748032
0
LINE
8
BLACK
6
CONTINUOUS
10
0.6409456692913386
20
0.9438474015748032
11
0.6344276377952756
21
0.9473313779527559
0
LINE
8
BLACK
6
CONTINUOUS
10
0.6344276377952756
20
0.9473313779527559
11
0.6273551574803149
21
0.949476811023622
0
LINE
8
BLACK
6
CONTINUOUS
10
0.6273551574803149
20
0.949476811023622
11
0.6273549212598425
21
0.949476811023622
0
LINE
8
BLACK
6
CONTINUOUS
10
0.6273549212598425
20
0.949476811023622
11
0.6273548818897637
21
0.9494768503937008
0
LINE
8
BLACK
6
CONTINUOUS
10
0.6273548818897637
20
0.9494768503937008
11
0.6200001181102363
21
0.9502012204724409
0
LINE
8
BLACK
6
CONTINUOUS
10
0.6200001181102363
20
0.9502012204724409
11
0.6199998818897637
21
0.9502012204724409
0
LINE
8
BLACK
6
CONTINUOUS
10
0.6199998818897637
20
0.9502012204724409
11
0.6126451181102363
21
0.9494768503937008
0
LINE
8
BLACK
6
CONTINUOUS
10
0.6126451181102363
20
0.9494768503937008
11
0.6126450393700787
21
0.9494768503937008
0
LINE
8
BLACK
6
CONTINUOUS
10
0.6126450393700787
20
0.9494768503937008
11
0.6126449212598425
21
0.949476811023622
0
LINE
8
BLACK
6
CONTINUOUS
10
0.6126449212598425
20
0.949476811023622
11
0.612644842519685
21
0.949476811023622
0
LINE
8
BLACK
6
CONTINUOUS
10
0.612644842519685
20
0.949476811023622
11
0.6055723622047244
21
0.9473313779527559
0
LINE
8
BLACK
6
CONTINUOUS
10
0.6055723622047244
20
0.9473313779527559
11
0.5990543307086614
21
0.9438474015748032
0
LINE
8
BLACK
6
CONTINUOUS
10
0.5990543307086614
20
0.9438474015748032
11
0.593341220472441
21
0.939158779527559
0
LINE
8
BLACK
6
CONTINUOUS
10
0.593341220472441
20
0.939158779527559
11
0.5901799606299213
21
0.9353067716535433
0
LINE
8
BLACK
6
CONTINUOUS
10
0.5901799606299213
20
0.9353067716535433
11
0.5886525984251968
21
0.9334456692913385
0
LINE
8
BLACK
6
CONTINUOUS
10
0.5886525984251968
20
0.9334456692913385
11
0.5851686614173228
21
0.9269277559055118
0
LINE
8
BLACK
6
CONTINUOUS
10
0.5851686614173228
20
0.9269277559055118
11
0.5851685826771653
21
0.9269275196850394
0
LINE
8
BLACK
6
CONTINUOUS
10
0.5851685826771653
20
0.9269275196850394
11
0.5830231102362204
21
0.9198549212598425
0
LINE
8
BLACK
6
CONTINUOUS
10
0.5830231102362204
20
0.9198549212598425
11
0.5830231102362204
21
0.919854842519685
0
LINE
8
BLACK
6
CONTINUOUS
10
0.5830231102362204
20
0.919854842519685
11
0.582298779527559
21
0.9125001181102362
0
LINE
8
BLACK
6
CONTINUOUS
10
0.582298779527559
20
0.9125001181102362
11
0.582298779527559
21
0.912499842519685
0
LINE
8
BLACK
6
CONTINUOUS
10
0.582298779527559
20
0.912499842519685
11
0.5830231102362204
21
0.9051451181102362
0
LINE
8
BLACK
6
CONTINUOUS
10
0.5830231102362204
20
0.9051451181102362
11
0.5830231102362204
21
0.9051450393700787
0
LINE
8
BLACK
6
CONTINUOUS
10
0.5830231102362204
20
0.9051450393700787
11
0.5851685826771653
21
0.8980724409448819
0
LINE
8
BLACK
6
CONTINUOUS
10
0.5851685826771653
20
0.8980724409448819
11
0.5851686614173228
21
0.8980722047244094
0
LINE
8
BLACK
6
CONTINUOUS
10
0.5851686614173228
20
0.8980722047244094
11
0.5886525984251968
21
0.8915542913385827
0
LINE
8
BLACK
6
CONTINUOUS
10
0.5886525984251968
20
0.8915542913385827
11
0.593341220472441
21
0.885841220472441
0
LINE
8
BLACK
6
CONTINUOUS
10
0.593341220472441
20
0.885841220472441
11
0.5990542913385827
21
0.8811525984251968
0
LINE
8
BLACK
6
CONTINUOUS
10
0.5990542913385827
20
0.8811525984251968
11
0.6055722047244094
21
0.8776686614173228
0
LINE
8
BLACK
6
CONTINUOUS
10
0.6055722047244094
20
0.8776686614173228
11
0.6055724409448818
21
0.8776685826771653
0
LINE
8
BLACK
6
CONTINUOUS
10
0.6055724409448818
20
0.8776685826771653
11
0.6126450787401575
21
0.8755231102362204
0
LINE
8
BLACK
6
CONTINUOUS
10
0.6126450787401575
20
0.8755231102362204
11
0.6199998818897637
21
0.874798779527559
0
LINE
8
BLACK
6
CONTINUOUS
10
0.6199998818897637
20
0.874798779527559
11
0.62
21
0.874798779527559
0
LINE
8
BLACK
6
CONTINUOUS
10
0.62
20
0.874798779527559
11
0.6200001181102363
21
0.874798779527559
0
LINE
8
BLACK
6
CONTINUOUS
10
0.6200001181102363
20
0.874798779527559
11
0.627354842519685
21
0.8755231102362204
0
LINE
8
BLACK
6
CONTINUOUS
10
0.627354842519685
20
0.8755231102362204
11
0.6273549212598425
21
0.8755231102362204
0
LINE
8
BLACK
6
CONTINUOUS
10
0.6273549212598425
20
0.8755231102362204
11
0.6344275196850394
21
0.8776685826771653
0
LINE
8
BLACK
6
CONTINUOUS
10
0.6344275196850394
20
0.8776685826771653
11
0.6344277559055118
21
0.8776686614173228
0
LINE
8
BLACK
6
CONTINUOUS
10
0.6344277559055118
20
0.8776686614173228
11
0.6409457874015748
21
0.8811526377952755
0
LINE
8
BLACK
6
CONTINUOUS
10
0.6409457874015748
20
0.8811526377952755
11
0.6409457874015748
21
0.8811526771653543
0
LINE
8
BLACK
6
CONTINUOUS
10
0.6409457874015748
20
0.8811526771653543
11
0.6461806299212598
21
0.8854487795275591
0
LINE
8
BLACK
6
CONTINUOUS
10
0.6461806299212598
20
0.8854487795275591
11
0.6487533464566929
21
0.8865414566929134
0
LINE
8
BLACK
6
CONTINUOUS
10
0.6487533464566929
20
0.8865414566929134
11
0.6493275984251968
21
0.8865748031496062
0
LINE
8
BLACK
6
CONTINUOUS
10
0.6493275984251968
20
0.8865748031496062
11
0.7365176771653543
21
0.8865748031496062
0
LINE
8
BLACK
6
CONTINUOUS
10
0.7365176771653543
20
0.8865748031496062
11
0.7391996062992126
21
0.8857873228346457
0
LINE
8
BLACK
6
CONTINUOUS
10
0.7391996062992126
20
0.8857873228346457
11
0.7400253937007873
21
0.8851218503937007
0
LINE
8
BLACK
6
CONTINUOUS
10
0.7400253937007873
20
0.8851218503937007
11
0.7448625196850394
21
0.8802846456692913
0
LINE
8
BLACK
6
CONTINUOUS
10
0.7448625196850394
20
0.8802846456692913
11
0.7462020866141732
21
0.8778313779527559
0
LINE
8
BLACK
6
CONTINUOUS
10
0.7462020866141732
20
0.8778313779527559
11
0.7460026377952755
21
0.8750433858267717
0
LINE
8
BLACK
6
CONTINUOUS
10
0.7460026377952755
20
0.8750433858267717
11
0.7453259842519685
21
0.8738041732283465
0
LINE
8
BLACK
6
CONTINUOUS
10
0.7453259842519685
20
0.8738041732283465
11
0.7422485039370078
21
0.8696931889763779
0
LINE
8
BLACK
6
CONTINUOUS
10
0.7422485039370078
20
0.8696931889763779
11
0.7422484251968504
21
0.8696929921259843
0
LINE
8
BLACK
6
CONTINUOUS
10
0.7422484251968504
20
0.8696929921259843
11
0.740236653543307
21
0.8642993700787401
0
LINE
8
BLACK
6
CONTINUOUS
10
0.740236653543307
20
0.8642993700787401
11
0.7402365748031496
21
0.8642990551181102
0
LINE
8
BLACK
6
CONTINUOUS
10
0.7402365748031496
20
0.8642990551181102
11
0.7399803149606299
21
0.8619153149606299
0
LINE
8
BLACK
6
CONTINUOUS
10
0.7399803149606299
20
0.8619153149606299
11
0.7399803149606299
21
0.7980846456692913
0
LINE
8
BLACK
6
CONTINUOUS
10
0.7399803149606299
20
0.7980846456692913
11
0.7402365748031496
21
0.7957009055118111
0
LINE
8
BLACK
6
CONTINUOUS
10
0.7402365748031496
20
0.7957009055118111
11
0.740236653543307
21
0.795700590551181
0
LINE
8
BLACK
6
CONTINUOUS
10
0.740236653543307
20
0.795700590551181
11
0.7422484251968504
21
0.790306968503937
0
LINE
8
BLACK
6
CONTINUOUS
10
0.7422484251968504
20
0.790306968503937
11
0.7422485039370078
21
0.7903067716535432
0
LINE
8
BLACK
6
CONTINUOUS
10
0.7422485039370078
20
0.7903067716535432
11
0.7456983464566929
21
0.7856983464566929
0
LINE
8
BLACK
6
CONTINUOUS
10
0.7456983464566929
20
0.7856983464566929
11
0.7503067716535433
21
0.7822485039370078
0
LINE
8
BLACK
6
CONTINUOUS
10
0.7503067716535433
20
0.7822485039370078
11
0.750306968503937
21
0.7822484251968503
0
LINE
8
BLACK
6
CONTINUOUS
10
0.750306968503937
20
0.7822484251968503
11
0.7557005905511811
21
0.7802366535433071
0
LINE
8
BLACK
6
CONTINUOUS
10
0.7557005905511811
20
0.7802366535433071
11
0.755700905511811
21
0.7802365748031496
0
LINE
8
BLACK
6
CONTINUOUS
10
0.755700905511811
20
0.7802365748031496
11
0.7580846456692913
21
0.7799803149606299
0
LINE
8
BLACK
6
CONTINUOUS
10
0.7580846456692913
20
0.7799803149606299
11
0.7580851181102362
21
0.7799803149606299
0
LINE
8
BLACK
6
CONTINUOUS
10
0.7580851181102362
20
0.7799803149606299
11
0.8219153149606299
21
0.7799803149606299
0
LINE
8
BLACK
6
CONTINUOUS
10
0.8219153149606299
20
0.7799803149606299
11
0.8242990551181102
21
0.7802365748031496
0
LINE
8
BLACK
6
CONTINUOUS
10
0.8242990551181102
20
0.7802365748031496
11
0.8242993700787401
21
0.7802366535433071
0
LINE
8
BLACK
6
CONTINUOUS
10
0.8242993700787401
20
0.7802366535433071
11
0.8296929921259842
21
0.7822484251968503
0
LINE
8
BLACK
6
CONTINUOUS
10
0.8296929921259842
20
0.7822484251968503
11
0.8296931889763779
21
0.7822485039370078
0
LINE
8
BLACK
6
CONTINUOUS
10
0.8296931889763779
20
0.7822485039370078
11
0.8343016141732283
21
0.7856983464566929
0
LINE
8
BLACK
6
CONTINUOUS
10
0.8343016141732283
20
0.7856983464566929
11
0.8377514566929134
21
0.7903067716535432
0
LINE
8
BLACK
6
CONTINUOUS
10
0.8377514566929134
20
0.7903067716535432
11
0.8377515354330708
21
0.790306968503937
0
LINE
8
BLACK
6
CONTINUOUS
10
0.8377515354330708
20
0.790306968503937
11
0.8397633070866142
21
0.795700590551181
0
LINE
8
BLACK
6
CONTINUOUS
10
0.8397633070866142
20
0.795700590551181
11
0.8397633858267717
21
0.7957009055118111
0
LINE
8
BLACK
6
CONTINUOUS
10
0.8397633858267717
20
0.7957009055118111
11
0.8400196456692913
21
0.7980846456692913
0
LINE
8
BLACK
6
CONTINUOUS
10
0.8400196456692913
20
0.7980846456692913
11
0.8400196850393701
21
0.79808531496063
0
LINE
8
BLACK
6
CONTINUOUS
10
0.8400196850393701
20
0.79808531496063
11
0.8400196850393701
21
0.8619146456692913
0
LINE
8
BLACK
6
CONTINUOUS
10
0.8400196850393701
20
0.8619146456692913
11
0.8400196456692913
21
0.8619153149606299
0
LINE
8
BLACK
6
CONTINUOUS
10
0.8400196456692913
20
0.8619153149606299
11
0.8397633858267717
21
0.8642990551181102
0
LINE
8
BLACK
6
CONTINUOUS
10
0.8397633858267717
20
0.8642990551181102
11
0.8397633070866142
21
0.8642993700787401
0
LINE
8
BLACK
6
CONTINUOUS
10
0.8397633070866142
20
0.8642993700787401
11
0.8394866141732283
21
0.8650411417322834
0
LINE
8
BLACK
6
CONTINUOUS
10
0.8394866141732283
20
0.8650411417322834
11
0.8377515354330708
21
0.8696930708661417
0
LINE
8
BLACK
6
CONTINUOUS
10
0.8377515354330708
20
0.8696930708661417
11
0.8343016141732283
21
0.8743016141732284
0
LINE
8
BLACK
6
CONTINUOUS
10
0.8343016141732283
20
0.8743016141732284
11
0.8336374803149607
21
0.874798779527559
0
LINE
8
BLACK
6
CONTINUOUS
10
0.8336374803149607
20
0.874798779527559
11
0.8296931889763779
21
0.8777514566929133
0
LINE
8
BLACK
6
CONTINUOUS
10
0.8296931889763779
20
0.8777514566929133
11
0.8296931496062991
21
0.8777514566929133
0
LINE
8
BLACK
6
CONTINUOUS
10
0.8296931496062991
20
0.8777514566929133
11
0.8296930708661417
21
0.8777515354330708
0
LINE
8
BLACK
6
CONTINUOUS
10
0.8296930708661417
20
0.8777515354330708
11
0.824299251968504
21
0.8797633464566929
0
LINE
8
BLACK
6
CONTINUOUS
10
0.824299251968504
20
0.8797633464566929
11
0.8242991732283464
21
0.8797633464566929
0
LINE
8
BLACK
6
CONTINUOUS
10
0.8242991732283464
20
0.8797633464566929
11
0.8242990551181102
21
0.8797633858267716
0
LINE
8
BLACK
6
CONTINUOUS
10
0.8242990551181102
20
0.8797633858267716
11
0.8219153149606299
21
0.8800196456692914
0
LINE
8
BLACK
6
CONTINUOUS
10
0.8219153149606299
20
0.8800196456692914
11
0.821915157480315
21
0.8800196456692914
0
LINE
8
BLACK
6
CONTINUOUS
10
0.821915157480315
20
0.8800196456692914
11
0.8219148818897638
21
0.88001968503937
0
LINE
8
BLACK
6
CONTINUOUS
10
0.8219148818897638
20
0.88001968503937
11
0.8219146456692913
21
0.88001968503937
0
LINE
8
BLACK
6
CONTINUOUS
10
0.8219146456692913
20
0.88001968503937
11
0.8179756692913386
21
0.88001968503937
0
LINE
8
BLACK
6
CONTINUOUS
10
0.8179756692913386
20
0.88001968503937
11
0.8152937401574804
21
0.8808071653543307
0
LINE
8
BLACK
6
CONTINUOUS
10
0.8152937401574804
20
0.8808071653543307
11
0.8134633070866142
21
0.8829196062992126
0
LINE
8
BLACK
6
CONTINUOUS
10
0.8134633070866142
20
0.8829196062992126
11
0.8133926377952756
21
0.8830820078740157
0
LINE
8
BLACK
6
CONTINUOUS
10
0.8133926377952756
20
0.8830820078740157
11
0.8129746456692913
21
0.8840911023622047
0
LINE
8
BLACK
6
CONTINUOUS
10
0.8129746456692913
20
0.8840911023622047
11
0.8129746062992126
21
0.8840911811023622
0
LINE
8
BLACK
6
CONTINUOUS
10
0.8129746062992126
20
0.8840911811023622
11
0.8129746062992126
21
0.8840912204724409
0
LINE
8
BLACK
6
CONTINUOUS
10
0.8129746062992126
20
0.8840912204724409
11
0.8101374409448818
21
0.8883373622047244
0
LINE
8
BLACK
6
CONTINUOUS
10
0.8101374409448818
20
0.8883373622047244
11
0.7979833070866141
21
0.9004914566929134
0
LINE
8
BLACK
6
CONTINUOUS
10
0.7979833070866141
20
0.9004914566929134
11
0.7966438188976378
21
0.9029446062992126
0
LINE
8
BLACK
6
CONTINUOUS
10
0.7966438188976378
20
0.9029446062992126
11
0.796843188976378
21
0.9057325984251968
0
LINE
8
BLACK
6
CONTINUOUS
10
0.796843188976378
20
0.9057325984251968
11
0.7985182677165354
21
0.9079702362204725
0
LINE
8
BLACK
6
CONTINUOUS
10
0.7985182677165354
20
0.9079702362204725
11
0.8011371653543307
21
0.9089470472440945
0
LINE
8
BLACK
6
CONTINUOUS
10
0.8011371653543307
20
0.9089470472440945
11
0.8019771653543307
21
0.9089358267716535
0
LINE
8
BLACK
6
CONTINUOUS
10
0.8019771653543307
20
0.9089358267716535
11
0.802913188976378
21
0.9088436220472441
0
LINE
8
BLACK
6
CONTINUOUS
10
0.802913188976378
20
0.9088436220472441
11
0.8032345669291339
21
0.9088120078740157
0
LINE
8
BLACK
6
CONTINUOUS
10
0.8032345669291339
20
0.9088120078740157
11
0.8032346456692914
21
0.9088120078740157
0
LINE
8
BLACK
6
CONTINUOUS
10
0.8032346456692914
20
0.9088120078740157
11
0.80323468503937
21
0.9088120078740157
0
LINE
8
BLACK
6
CONTINUOUS
10
0.80323468503937
20
0.9088120078740157
11
0.8105894094488189
21
0.9095363385826771
0
LINE
8
BLACK
6
CONTINUOUS
10
0.8105894094488189
20
0.9095363385826771
11
0.8105894881889764
21
0.9095363385826771
0
LINE
8
BLACK
6
CONTINUOUS
10
0.8105894881889764
20
0.9095363385826771
11
0.8176620866141732
21
0.911681811023622
0
LINE
8
BLACK
6
CONTINUOUS
10
0.8176620866141732
20
0.911681811023622
11
0.8176623228346457
21
0.9116818897637795
0
LINE
8
BLACK
6
CONTINUOUS
10
0.8176623228346457
20
0.9116818897637795
11
0.8241802362204724
21
0.9151658267716535
0
LINE
8
BLACK
6
CONTINUOUS
10
0.8241802362204724
20
0.9151658267716535
11
0.8298933464566929
21
0.9198544488188977
0
LINE
8
BLACK
6
CONTINUOUS
10
0.8298933464566929
20
0.9198544488188977
11
0.834581968503937
21
0.9255675590551181
0
LINE
8
BLACK
6
CONTINUOUS
10
0.834581968503937
20
0.9255675590551181
11
0.8380659448818898
21
0.9320855905511811
0
LINE
8
BLACK
6
CONTINUOUS
10
0.8380659448818898
20
0.9320855905511811
11
0.8402113779527559
21
0.9391580708661417
0
LINE
8
BLACK
6
CONTINUOUS
10
0.8402113779527559
20
0.9391580708661417
11
0.8402113779527559
21
0.9391581496062992
0
LINE
8
BLACK
6
CONTINUOUS
10
0.8402113779527559
20
0.9391581496062992
11
0.8402114173228347
21
0.9391582677165354
0
LINE
8
BLACK
6
CONTINUOUS
10
0.8402114173228347
20
0.9391582677165354
11
0.8402114173228347
21
0.9391583464566929
0
LINE
8
BLACK
6
CONTINUOUS
10
0.8402114173228347
20
0.9391583464566929
11
0.8409357874015748
21
0.9465130708661417
0
LINE
8
BLACK
6
CONTINUOUS
10
0.8409357874015748
20
0.9465130708661417
11
0.8409357874015748
21
0.9465133464566929
0
LINE
8
BLACK
6
CONTINUOUS
10
0.8409357874015748
20
0.9465133464566929
11
0.8402114173228347
21
0.9538680708661417
0
LINE
8
BLACK
6
CONTINUOUS
10
0.8402114173228347
20
0.9538680708661417
11
0.8402114173228347
21
0.9538681496062992
0
LINE
8
BLACK
6
CONTINUOUS
10
0.8402114173228347
20
0.9538681496062992
11
0.8402113779527559
21
0.9538681889763779
0
LINE
8
BLACK
6
CONTINUOUS
10
0.8402113779527559
20
0.9538681889763779
11
0.8402113779527559
21
0.9538683858267716
0
LINE
8
BLACK
6
CONTINUOUS
10
0.8402113779527559
20
0.9538683858267716
11
0.8380659448818898
21
0.9609408661417322
0
LINE
8
BLACK
6
CONTINUOUS
10
0.8380659448818898
20
0.9609408661417322
11
0.834581968503937
21
0.9674588976377952
0
LINE
8
BLACK
6
CONTINUOUS
10
0.834581968503937
20
0.9674588976377952
11
0.8298933464566929
21
0.9731720078740157
0
LINE
8
BLACK
6
CONTINUOUS
10
0.8298933464566929
20
0.9731720078740157
11
0.8241802362204724
21
0.9778606299212598
0
LINE
8
BLACK
6
CONTINUOUS
10
0.8241802362204724
20
0.9778606299212598
11
0.8176622047244094
21
0.9813446062992126
0
LINE
8
BLACK
6
CONTINUOUS
10
0.8176622047244094
20
0.9813446062992126
11
0.8105897244094488
21
0.9834900393700787
0
LINE
8
BLACK
6
CONTINUOUS
10
0.8105897244094488
20
0.9834900393700787
11
0.8105893700787401
21
0.9834900393700787
0
LINE
8
BLACK
6
CONTINUOUS
10
0.8105893700787401
20
0.9834900393700787
11
0.8105893700787401
21
0.9834900787401575
0
LINE
8
BLACK
6
CONTINUOUS
10
0.8105893700787401
20
0.9834900787401575
11
0.8095294881889764
21
0.9835944488188976
0
LINE
8
BLACK
6
CONTINUOUS
10
0.8095294881889764
20
0.9835944488188976
11
0.8069381889763779
21
0.9838496456692913
0
LINE
8
BLACK
6
CONTINUOUS
10
0.8069381889763779
20
0.9838496456692913
11
0.8043463779527559
21
0.9848961417322835
0
LINE
8
BLACK
6
CONTINUOUS
10
0.8043463779527559
20
0.9848961417322835
11
0.8039170472440945
21
0.9852783464566929
0
LINE
8
BLACK
6
CONTINUOUS
10
0.8039170472440945
20
0.9852783464566929
11
0.7267289763779528
21
1.0624664173228346
0
LINE
8
BLACK
6
CONTINUOUS
10
0.7267289763779528
20
1.0624664173228346
11
0.7253894488188977
21
1.0649195669291338
0
LINE
8
BLACK
6
CONTINUOUS
10
0.7253894488188977
20
1.0649195669291338
11
0.7255888582677166
21
1.0677075590551182
0
LINE
8
BLACK
6
CONTINUOUS
10
0.7255888582677166
20
1.0677075590551182
11
0.7262373622047243
21
1.0688346062992127
0
LINE
8
BLACK
6
CONTINUOUS
10
0.7262373622047243
20
1.0688346062992127
11
0.726211968503937
21
1.0688516141732283
0
LINE
8
BLACK
6
CONTINUOUS
10
0.726211968503937
20
1.0688516141732283
11
0.7263473228346456
21
1.0690541732283465
0
LINE
8
BLACK
6
CONTINUOUS
10
0.7263473228346456
20
1.0690541732283465
11
0.7296495275590551
21
1.0752321653543306
0
LINE
8
BLACK
6
CONTINUOUS
10
0.7296495275590551
20
1.0752321653543306
11
0.7316082677165354
21
1.0772261811023622
0
LINE
8
BLACK
6
CONTINUOUS
10
0.7316082677165354
20
1.0772261811023622
11
0.7340244094488189
21
1.0778543700787402
0
LINE
8
BLACK
6
CONTINUOUS
10
0.7340244094488189
20
1.0778543700787402
11
0.8099999999999999
21
1.0778543700787402
0
LINE
8
BLACK
6
CONTINUOUS
10
0.8099999999999999
20
1.0778543700787402
11
0.8099999999999999
21
1.0900000000000001
0
LINE
8
BLACK
6
CONTINUOUS
10
0.8099999999999999
20
1.0900000000000001
11
0.87
21
1.0900000000000001
0
LINE
8
BLACK
6
CONTINUOUS
10
0.87
20
1.0900000000000001
11
0.87
21
1.0778543700787402
0
LINE
8
BLACK
6
CONTINUOUS
10
0.87
20
1.0778543700787402
11
0.88501968503937
21
1.0778543700787402
0
LINE
8
BLACK
6
CONTINUOUS
10
0.88501968503937
20
1.0778543700787402
11
0.8877016141732283
21
1.0770668897637794
0
LINE
8
BLACK
6
CONTINUOUS
10
0.8877016141732283
20
1.0770668897637794
11
0.8895320472440945
21
1.0749544488188976
0
LINE
8
BLACK
6
CONTINUOUS
10
0.8895320472440945
20
1.0749544488188976
11
0.8899803149606299
21
1.0728937401574803
0
LINE
8
BLACK
6
CONTINUOUS
10
0.8899803149606299
20
1.0728937401574803
11
0.8899803149606299
21
1.0280846456692914
0
LINE
8
BLACK
6
CONTINUOUS
10
0.8899803149606299
20
1.0280846456692914
11
0.8902365748031495
21
1.0257009055118109
0
LINE
8
BLACK
6
CONTINUOUS
10
0.8902365748031495
20
1.0257009055118109
11
0.8902366535433071
21
1.0257005905511811
0
LINE
8
BLACK
6
CONTINUOUS
10
0.8902366535433071
20
1.0257005905511811
11
0.8922484251968503
21
1.020306968503937
0
LINE
8
BLACK
6
CONTINUOUS
10
0.8922484251968503
20
1.020306968503937
11
0.8922485039370078
21
1.0203067716535432
0
LINE
8
BLACK
6
CONTINUOUS
10
0.8922485039370078
20
1.0203067716535432
11
0.8956983464566929
21
1.0156983464566929
0
LINE
8
BLACK
6
CONTINUOUS
10
0.8956983464566929
20
1.0156983464566929
11
0.9003067716535433
21
1.0122485039370079
0
LINE
8
BLACK
6
CONTINUOUS
10
0.9003067716535433
20
1.0122485039370079
11
0.900306968503937
21
1.0122484251968504
0
LINE
8
BLACK
6
CONTINUOUS
10
0.900306968503937
20
1.0122484251968504
11
0.9057005905511811
21
1.0102366535433072
0
LINE
8
BLACK
6
CONTINUOUS
10
0.9057005905511811
20
1.0102366535433072
11
0.905700905511811
21
1.0102365748031497
0
LINE
8
BLACK
6
CONTINUOUS
10
0.905700905511811
20
1.0102365748031497
11
0.9080846456692914
21
1.0099803149606299
0
LINE
8
BLACK
6
CONTINUOUS
10
0.9080846456692914
20
1.0099803149606299
11
0.9080851181102362
21
1.0099803149606299
0
LINE
8
BLACK
6
CONTINUOUS
10
0.9080851181102362
20
1.0099803149606299
11
0.9719153149606299
21
1.0099803149606299
0
LINE
8
BLACK
6
CONTINUOUS
10
0.9719153149606299
20
1.0099803149606299
11
0.9742990551181102
21
1.0102365748031497
0
LINE
8
BLACK
6
CONTINUOUS
10
0.9742990551181102
20
1.0102365748031497
11
0.9742993700787401
21
1.0102366535433072
0
LINE
8
BLACK
6
CONTINUOUS
10
0.9742993700787401
20
1.0102366535433072
11
0.9796929921259843
21
1.0122484251968504
0
LINE
8
BLACK
6
CONTINUOUS
10
0.9796929921259843
20
1.0122484251968504
11
0.9796931889763779
21
1.0122485039370079
0
LINE
8
BLACK
6
CONTINUOUS
10
0.9796931889763779
20
1.0122485039370079
11
0.9843016141732284
21
1.0156983858267716
0
LINE
8
BLACK
6
CONTINUOUS
10
0.9843016141732284
20
1.0156983858267716
11
0.9860288582677165
21
1.0180056299212599
0
LINE
8
BLACK
6
CONTINUOUS
10
0.9860288582677165
20
1.0180056299212599
11
0.9882664960629921
21
1.0196806692913385
0
LINE
8
BLACK
6
CONTINUOUS
10
0.9882664960629921
20
1.0196806692913385
11
0.9910544881889763
21
1.0198800393700787
0
LINE
8
BLACK
6
CONTINUOUS
10
0.9910544881889763
20
1.0198800393700787
11
0.993507716535433
21
1.0185404724409448
0
LINE
8
BLACK
6
CONTINUOUS
10
0.993507716535433
20
1.0185404724409448
11
0.9939711417322834
21
1.0180056299212599
0
LINE
8
BLACK
6
CONTINUOUS
10
0.9939711417322834
20
1.0180056299212599
11
0.9956983464566929
21
1.0156983858267716
0
LINE
8
BLACK
6
CONTINUOUS
10
0.9956983464566929
20
1.0156983858267716
11
1.0003067716535432
21
1.0122485039370079
0
LINE
8
BLACK
6
CONTINUOUS
10
1.0003067716535432
20
1.0122485039370079
11
1.000306968503937
21
1.0122484251968504
0
LINE
8
BLACK
6
CONTINUOUS
10
1.000306968503937
20
1.0122484251968504
11
1.0057005905511811
21
1.0102366535433072
0
LINE
8
BLACK
6
CONTINUOUS
10
1.0057005905511811
20
1.0102366535433072
11
1.0057009055118109
21
1.0102365748031497
0
LINE
8
BLACK
6
CONTINUOUS
10
1.0057009055118109
20
1.0102365748031497
11
1.0080846456692913
21
1.0099803149606299
0
LINE
8
BLACK
6
CONTINUOUS
10
1.0080846456692913
20
1.0099803149606299
11
1.0080851181102362
21
1.0099803149606299
0
LINE
8
BLACK
6
CONTINUOUS
10
1.0080851181102362
20
1.0099803149606299
11
1.07191531496063
21
1.0099803149606299
0
LINE
8
BLACK
6
CONTINUOUS
10
1.07191531496063
20
1.0099803149606299
11
1.0742990551181102
21
1.0102365748031497
0
LINE
8
BLACK
6
CONTINUOUS
10
1.0742990551181102
20
1.0102365748031497
11
1.0742993700787402
21
1.0102366535433072
0
LINE
8
BLACK
6
CONTINUOUS
10
1.0742993700787402
20
1.0102366535433072
11
1.0796929921259841
21
1.0122484251968504
0
LINE
8
BLACK
6
CONTINUOUS
10
1.0796929921259841
20
1.0122484251968504
11
1.0796931889763779
21
1.0122485039370079
0
LINE
8
BLACK
6
CONTINUOUS
10
1.0796931889763779
20
1.0122485039370079
11
1.0843016141732282
21
1.0156983464566929
0
LINE
8
BLACK
6
CONTINUOUS
10
1.0843016141732282
20
1.0156983464566929
11
1.0877514566929134
21
1.0203067716535432
0
LINE
8
BLACK
6
CONTINUOUS
10
1.0877514566929134
20
1.0203067716535432
11
1.0877515354330709
21
1.020306968503937
0
LINE
8
BLACK
6
CONTINUOUS
10
1.0877515354330709
20
1.020306968503937
11
1.0897633070866142
21
1.0257005905511811
0
LINE
8
BLACK
6
CONTINUOUS
10
1.0897633070866142
20
1.0257005905511811
11
1.0897633858267717
21
1.0257009055118109
0
LINE
8
BLACK
6
CONTINUOUS
10
1.0897633858267717
20
1.0257009055118109
11
1.0900196456692912
21
1.0280846456692914
0
LINE
8
BLACK
6
CONTINUOUS
10
1.0900196456692912
20
1.0280846456692914
11
1.09001968503937
21
1.0280853149606299
0
LINE
8
BLACK
6
CONTINUOUS
10
1.09001968503937
20
1.0280853149606299
11
1.09001968503937
21
1.0919146456692914
0
LINE
8
BLACK
6
CONTINUOUS
10
1.09001968503937
20
1.0919146456692914
11
1.0900196456692912
21
1.09191531496063
0
LINE
8
BLACK
6
CONTINUOUS
10
1.0900196456692912
20
1.09191531496063
11
1.0897633858267717
21
1.0942990551181102
0
LINE
8
BLACK
6
CONTINUOUS
10
1.0897633858267717
20
1.0942990551181102
11
1.0897633070866142
21
1.0942993700787402
0
LINE
8
BLACK
6
CONTINUOUS
10
1.0897633070866142
20
1.0942993700787402
11
1.0894866141732282
21
1.0950411417322834
0
LINE
8
BLACK
6
CONTINUOUS
10
1.0894866141732282
20
1.0950411417322834
11
1.0877515354330709
21
1.0996930708661417
0
LINE
8
BLACK
6
CONTINUOUS
10
1.0877515354330709
20
1.0996930708661417
11
1.0877320078740158
21
1.0997191338582677
0
LINE
8
BLACK
6
CONTINUOUS
10
1.0877320078740158
20
1.0997191338582677
11
1.0843016141732282
21
1.1043016141732283
0
LINE
8
BLACK
6
CONTINUOUS
10
1.0843016141732282
20
1.1043016141732283
11
1.0819943700787402
21
1.1060288188976377
0
LINE
8
BLACK
6
CONTINUOUS
10
1.0819943700787402
20
1.1060288188976377
11
1.0803192913385826
21
1.1082664566929135
0
LINE
8
BLACK
6
CONTINUOUS
10
1.0803192913385826
20
1.1082664566929135
11
1.0801199212598425
21
1.1110544881889763
0
LINE
8
BLACK
6
CONTINUOUS
10
1.0801199212598425
20
1.1110544881889763
11
1.0814594881889763
21
1.113507716535433
0
LINE
8
BLACK
6
CONTINUOUS
10
1.0814594881889763
20
1.113507716535433
11
1.0819943700787402
21
1.1139711811023623
0
LINE
8
BLACK
6
CONTINUOUS
10
1.0819943700787402
20
1.1139711811023623
11
1.0843016141732282
21
1.115698346456693
0
LINE
8
BLACK
6
CONTINUOUS
10
1.0843016141732282
20
1.115698346456693
11
1.0877514566929134
21
1.1203067716535433
0
LINE
8
BLACK
6
CONTINUOUS
10
1.0877514566929134
20
1.1203067716535433
11
1.0877515354330709
21
1.1203069685039371
0
LINE
8
BLACK
6
CONTINUOUS
10
1.0877515354330709
20
1.1203069685039371
11
1.0897633070866142
21
1.125700590551181
0
LINE
8
BLACK
6
CONTINUOUS
10
1.0897633070866142
20
1.125700590551181
11
1.0897633858267717
21
1.125700905511811
0
LINE
8
BLACK
6
CONTINUOUS
10
1.0897633858267717
20
1.125700905511811
11
1.0900196456692912
21
1.1280846456692912
0
LINE
8
BLACK
6
CONTINUOUS
10
1.0900196456692912
20
1.1280846456692912
11
1.09001968503937
21
1.1280853149606298
0
LINE
8
BLACK
6
CONTINUOUS
10
1.09001968503937
20
1.1280853149606298
11
1.09001968503937
21
1.1919146456692913
0
LINE
8
BLACK
6
CONTINUOUS
10
1.09001968503937
20
1.1919146456692913
11
1.0900196456692912
21
1.1919153149606299
0
LINE
8
BLACK
6
CONTINUOUS
10
1.0900196456692912
20
1.1919153149606299
11
1.0897633858267717
21
1.1942990551181103
0
LINE
8
BLACK
6
CONTINUOUS
10
1.0897633858267717
20
1.1942990551181103
11
1.0897633070866142
21
1.1942993700787401
0
LINE
8
BLACK
6
CONTINUOUS
10
1.0897633070866142
20
1.1942993700787401
11
1.0892407874015748
21
1.1957002362204725
0
LINE
8
BLACK
6
CONTINUOUS
10
1.0892407874015748
20
1.1957002362204725
11
1.0877515354330709
21
1.1996930708661417
0
LINE
8
BLACK
6
CONTINUOUS
10
1.0877515354330709
20
1.1996930708661417
11
1.0861708661417322
21
1.2018045669291337
0
LINE
8
BLACK
6
CONTINUOUS
10
1.0861708661417322
20
1.2018045669291337
11
1.0843016141732282
21
1.2043016141732283
0
LINE
8
BLACK
6
CONTINUOUS
10
1.0843016141732282
20
1.2043016141732283
11
1.0796931889763779
21
1.2077514566929133
0
LINE
8
BLACK
6
CONTINUOUS
10
1.0796931889763779
20
1.2077514566929133
11
1.0796931496062991
21
1.2077514566929133
0
LINE
8
BLACK
6
CONTINUOUS
10
1.0796931496062991
20
1.2077514566929133
11
1.0796930708661416
21
1.2077515354330708
0
LINE
8
BLACK
6
CONTINUOUS
10
1.0796930708661416
20
1.2077515354330708
11
1.074299251968504
21
1.2097633464566928
0
LINE
8
BLACK
6
CONTINUOUS
10
1.074299251968504
20
1.2097633464566928
11
1.073971220472441
21
1.2097985826771653
0
LINE
8
BLACK
6
CONTINUOUS
10
1.073971220472441
20
1.2097985826771653
11
1.0713888976377952
21
1.2108681496062992
0
LINE
8
BLACK
6
CONTINUOUS
10
1.0713888976377952
20
1.2108681496062992
11
1.06979468503937
21
1.2131640551181102
0
LINE
8
BLACK
6
CONTINUOUS
10
1.06979468503937
20
1.2131640551181102
11
1.069636062992126
21
1.2137630708661418
0
LINE
8
BLACK
6
CONTINUOUS
10
1.069636062992126
20
1.2137630708661418
11
1.0687146456692913
21
1.2183953149606299
0
LINE
8
BLACK
6
CONTINUOUS
10
1.0687146456692913
20
1.2183953149606299
11
1.0687146456692913
21
1.2183953543307087
0
LINE
8
BLACK
6
CONTINUOUS
10
1.0687146456692913
20
1.2183953543307087
11
1.0687146062992126
21
1.2183953543307087
0
LINE
8
BLACK
6
CONTINUOUS
10
1.0687146062992126
20
1.2183953543307087
11
1.0687146062992126
21
1.2183955118110237
0
LINE
8
BLACK
6
CONTINUOUS
10
1.0687146062992126
20
1.2183955118110237
11
1.0686580708661417
21
1.2185320866141731
0
LINE
8
BLACK
6
CONTINUOUS
10
1.0686580708661417
20
1.2185320866141731
11
1.0664635433070866
21
1.2238301181102362
0
LINE
8
BLACK
6
CONTINUOUS
10
1.0664635433070866
20
1.2238301181102362
11
1.0631955118110237
21
1.2287210629921259
0
LINE
8
BLACK
6
CONTINUOUS
10
1.0631955118110237
20
1.2287210629921259
11
1.0437210629921259
21
1.2481955118110235
0
LINE
8
BLACK
6
CONTINUOUS
10
1.0437210629921259
20
1.2481955118110235
11
1.0388300787401574
21
1.2514635433070866
0
LINE
8
BLACK
6
CONTINUOUS
10
1.0388300787401574
20
1.2514635433070866
11
1.0333955511811024
21
1.2537146062992126
0
LINE
8
BLACK
6
CONTINUOUS
10
1.0333955511811024
20
1.2537146062992126
11
1.028326062992126
21
1.2547229921259841
0
LINE
8
BLACK
6
CONTINUOUS
10
1.028326062992126
20
1.2547229921259841
11
1.0276262204724409
21
1.2548622047244093
0
LINE
8
BLACK
6
CONTINUOUS
10
1.0276262204724409
20
1.2548622047244093
11
1.0276260629921259
21
1.2548622047244093
0
LINE
8
BLACK
6
CONTINUOUS
10
1.0276260629921259
20
1.2548622047244093
11
0.6872390157480315
21
1.2548622047244093
0
LINE
8
BLACK
6
CONTINUOUS
10
0.6872390157480315
20
1.2548622047244093
11
0.6845570866141732
21
1.2556496850393701
0
LINE
8
BLACK
6
CONTINUOUS
10
0.6845570866141732
20
1.2556496850393701
11
0.6837313385826771
21
1.2563151574803149
0
LINE
8
BLACK
6
CONTINUOUS
10
0.6837313385826771
20
1.2563151574803149
11
0.6440825590551181
21
1.2959639370078739
0
LINE
8
BLACK
6
CONTINUOUS
10
0.6440825590551181
20
1.2959639370078739
11
0.6427429527559055
21
1.2984171653543306
0
LINE
8
BLACK
6
CONTINUOUS
10
0.6427429527559055
20
1.2984171653543306
11
0.6429423622047244
21
1.301205157480315
0
LINE
8
BLACK
6
CONTINUOUS
10
0.6429423622047244
20
1.301205157480315
11
0.6440825590551181
21
1.3029792913385827
0
LINE
8
BLACK
6
CONTINUOUS
10
0.6440825590551181
20
1.3029792913385827
11
0.6443015748031496
21
1.3031983070866142
0
LINE
8
BLACK
6
CONTINUOUS
10
0.6443015748031496
20
1.3031983070866142
11
0.6460288582677165
21
1.3055056299212597
0
LINE
8
BLACK
6
CONTINUOUS
10
0.6460288582677165
20
1.3055056299212597
11
0.6482664960629921
21
1.3071806692913386
0
LINE
8
BLACK
6
CONTINUOUS
10
0.6482664960629921
20
1.3071806692913386
11
0.6510544881889764
21
1.3073800393700787
0
LINE
8
BLACK
6
CONTINUOUS
10
0.6510544881889764
20
1.3073800393700787
11
0.653507716535433
21
1.3060404724409449
0
LINE
8
BLACK
6
CONTINUOUS
10
0.653507716535433
20
1.3060404724409449
11
0.6539711417322834
21
1.3055056299212597
0
LINE
8
BLACK
6
CONTINUOUS
10
0.6539711417322834
20
1.3055056299212597
11
0.6556983464566929
21
1.3031983858267717
0
LINE
8
BLACK
6
CONTINUOUS
10
0.6556983464566929
20
1.3031983858267717
11
0.6603067716535433
21
1.2997485039370078
0
LINE
8
BLACK
6
CONTINUOUS
10
0.6603067716535433
20
1.2997485039370078
11
0.660306968503937
21
1.2997484251968503
0
LINE
8
BLACK
6
CONTINUOUS
10
0.660306968503937
20
1.2997484251968503
11
0.6657005905511811
21
1.297736653543307
0
LINE
8
BLACK
6
CONTINUOUS
10
0.6657005905511811
20
1.297736653543307
11
0.665700905511811
21
1.2977365748031495
0
LINE
8
BLACK
6
CONTINUOUS
10
0.665700905511811
20
1.2977365748031495
11
0.6680846456692914
21
1.29748031496063
0
LINE
8
BLACK
6
CONTINUOUS
10
0.6680846456692914
20
1.29748031496063
11
0.6680851181102362
21
1.29748031496063
0
LINE
8
BLACK
6
CONTINUOUS
10
0.6680851181102362
20
1.29748031496063
11
0.7319153149606299
21
1.29748031496063
0
LINE
8
BLACK
6
CONTINUOUS
10
0.7319153149606299
20
1.29748031496063
11
0.7342990551181102
21
1.2977365748031495
0
LINE
8
BLACK
6
CONTINUOUS
10
0.7342990551181102
20
1.2977365748031495
11
0.7342993700787401
21
1.297736653543307
0
LINE
8
BLACK
6
CONTINUOUS
10
0.7342993700787401
20
1.297736653543307
11
0.7396929921259843
21
1.2997484251968503
0
LINE
8
BLACK
6
CONTINUOUS
10
0.7396929921259843
20
1.2997484251968503
11
0.7396931889763779
21
1.2997485039370078
0
LINE
8
BLACK
6
CONTINUOUS
10
0.7396931889763779
20
1.2997485039370078
11
0.7443016141732284
21
1.303198346456693
0
LINE
8
BLACK
6
CONTINUOUS
10
0.7443016141732284
20
1.303198346456693
11
0.7477514566929133
21
1.3078067716535433
0
LINE
8
BLACK
6
CONTINUOUS
10
0.7477514566929133
20
1.3078067716535433
11
0.7477515354330708
21
1.3078069685039371
0
LINE
8
BLACK
6
CONTINUOUS
10
0.7477515354330708
20
1.3078069685039371
11
0.7497633070866142
21
1.313200590551181
0
LINE
8
BLACK
6
CONTINUOUS
10
0.7497633070866142
20
1.313200590551181
11
0.7497633858267716
21
1.313200905511811
0
LINE
8
BLACK
6
CONTINUOUS
10
0.7497633858267716
20
1.313200905511811
11
0.7500196456692914
21
1.3155846456692912
0
LINE
8
BLACK
6
CONTINUOUS
10
0.7500196456692914
20
1.3155846456692912
11
0.7500196850393701
21
1.3155853149606298
0
LINE
8
BLACK
6
CONTINUOUS
10
0.7500196850393701
20
1.3155853149606298
11
0.7500196850393701
21
1.3794146456692913
0
LINE
8
BLACK
6
CONTINUOUS
10
0.7500196850393701
20
1.3794146456692913
11
0.7500196456692914
21
1.3794153149606299
0
LINE
8
BLACK
6
CONTINUOUS
10
0.7500196456692914
20
1.3794153149606299
11
0.7497633858267716
21
1.3817990551181103
0
LINE
8
BLACK
6
CONTINUOUS
10
0.7497633858267716
20
1.3817990551181103
11
0.7497633070866142
21
1.3817993700787401
0
LINE
8
BLACK
6
CONTINUOUS
10
0.7497633070866142
20
1.3817993700787401
11
0.7494866141732284
21
1.3825411417322835
0
LINE
8
BLACK
6
CONTINUOUS
10
0.7494866141732284
20
1.3825411417322835
11
0.7477515354330708
21
1.3871930708661417
0
LINE
8
BLACK
6
CONTINUOUS
10
0.7477515354330708
20
1.3871930708661417
11
0.7443016141732284
21
1.3918016141732283
0
LINE
8
BLACK
6
CONTINUOUS
10
0.7443016141732284
20
1.3918016141732283
11
0.7419943700787401
21
1.3935288188976378
0
LINE
8
BLACK
6
CONTINUOUS
10
0.7419943700787401
20
1.3935288188976378
11
0.7403192913385827
21
1.3957664566929133
0
LINE
8
BLACK
6
CONTINUOUS
10
0.7403192913385827
20
1.3957664566929133
11
0.7401199212598425
21
1.3985544881889764
0
LINE
8
BLACK
6
CONTINUOUS
10
0.7401199212598425
20
1.3985544881889764
11
0.7414594881889763
21
1.4010077165354331
0
LINE
8
BLACK
6
CONTINUOUS
10
0.7414594881889763
20
1.4010077165354331
11
0.7419943700787401
21
1.4014711811023621
0
LINE
8
BLACK
6
CONTINUOUS
10
0.7419943700787401
20
1.4014711811023621
11
0.7443016141732284
21
1.4031983464566928
0
LINE
8
BLACK
6
CONTINUOUS
10
0.7443016141732284
20
1.4031983464566928
11
0.7477514566929133
21
1.4078067716535432
0
LINE
8
BLACK
6
CONTINUOUS
10
0.7477514566929133
20
1.4078067716535432
11
0.7477515354330708
21
1.4078069685039369
0
LINE
8
BLACK
6
CONTINUOUS
10
0.7477515354330708
20
1.4078069685039369
11
0.7497633070866142
21
1.4132005905511811
0
LINE
8
BLACK
6
CONTINUOUS
10
0.7497633070866142
20
1.4132005905511811
11
0.7497633858267716
21
1.4132009055118111
0
LINE
8
BLACK
6
CONTINUOUS
10
0.7497633858267716
20
1.4132009055118111
11
0.7500196456692914
21
1.4155846456692913
0
LINE
8
BLACK
6
CONTINUOUS
10
0.7500196456692914
20
1.4155846456692913
11
0.7500196850393701
21
1.4155853149606299
0
LINE
8
BLACK
6
CONTINUOUS
10
0.7500196850393701
20
1.4155853149606299
11
0.7500196850393701
21
1.4794146456692914
0
LINE
8
BLACK
6
CONTINUOUS
10
0.7500196850393701
20
1.4794146456692914
11
0.7500196456692914
21
1.4794153149606299
0
LINE
8
BLACK
6
CONTINUOUS
10
0.7500196456692914
20
1.4794153149606299
11
0.7497633858267716
21
1.4817990551181102
0
LINE
8
BLACK
6
CONTINUOUS
10
0.7497633858267716
20
1.4817990551181102
11
0.7497633070866142
21
1.4817993700787402
0
LINE
8
BLACK
6
CONTINUOUS
10
0.7497633070866142
20
1.4817993700787402
11
0.7494866141732284
21
1.4825411417322834
0
LINE
8
BLACK
6
CONTINUOUS
10
0.7494866141732284
20
1.4825411417322834
11
0.7477515354330708
21
1.4871930708661416
0
LINE
8
BLACK
6
CONTINUOUS
10
0.7477515354330708
20
1.4871930708661416
11
0.7443016141732284
21
1.4918016141732282
0
LINE
8
BLACK
6
CONTINUOUS
10
0.7443016141732284
20
1.4918016141732282
11
0.7396930708661417
21
1.4952515354330709
0
LINE
8
BLACK
6
CONTINUOUS
10
0.7396930708661417
20
1.4952515354330709
11
0.7342992519685039
21
1.4972633464566929
0
LINE
8
BLACK
6
CONTINUOUS
10
0.7342992519685039
20
1.4972633464566929
11
0.7342991732283465
21
1.4972633464566929
0
LINE
8
BLACK
6
CONTINUOUS
10
0.7342991732283465
20
1.4972633464566929
11
0.7342990551181102
21
1.4972633858267717
0
LINE
8
BLACK
6
CONTINUOUS
10
0.7342990551181102
20
1.4972633858267717
11
0.7319153149606299
21
1.4975196456692914
0
LINE
8
BLACK
6
CONTINUOUS
10
0.7319153149606299
20
1.4975196456692914
11
0.731915157480315
21
1.4975196456692914
0
LINE
8
BLACK
6
CONTINUOUS
10
0.731915157480315
20
1.4975196456692914
11
0.7319148818897637
21
1.4975196850393699
0
LINE
8
BLACK
6
CONTINUOUS
10
0.7319148818897637
20
1.4975196850393699
11
0.6680851181102362
21
1.4975196850393699
0
LINE
8
BLACK
6
CONTINUOUS
10
0.6680851181102362
20
1.4975196850393699
11
0.668084842519685
21
1.4975196456692914
0
LINE
8
BLACK
6
CONTINUOUS
10
0.668084842519685
20
1.4975196456692914
11
0.6680846456692914
21
1.4975196456692914
0
LINE
8
BLACK
6
CONTINUOUS
10
0.6680846456692914
20
1.4975196456692914
11
0.665700905511811
21
1.4972633858267717
0
LINE
8
BLACK
6
CONTINUOUS
10
0.665700905511811
20
1.4972633858267717
11
0.6657005905511811
21
1.4972633070866141
0
LINE
8
BLACK
6
CONTINUOUS
10
0.6657005905511811
20
1.4972633070866141
11
0.662632874015748
21
1.4961190551181103
0
LINE
8
BLACK
6
CONTINUOUS
10
0.662632874015748
20
1.4961190551181103
11
0.6603069291338582
21
1.4952515354330709
0
LINE
8
BLACK
6
CONTINUOUS
10
0.6603069291338582
20
1.4952515354330709
11
0.6603068503937007
21
1.4952514960629921
0
LINE
8
BLACK
6
CONTINUOUS
10
0.6603068503937007
20
1.4952514960629921
11
0.6603067716535433
21
1.4952514566929134
0
LINE
8
BLACK
6
CONTINUOUS
10
0.6603067716535433
20
1.4952514566929134
11
0.6556983464566929
21
1.4918016141732282
0
LINE
8
BLACK
6
CONTINUOUS
10
0.6556983464566929
20
1.4918016141732282
11
0.6539711811023622
21
1.4894943700787402
0
LINE
8
BLACK
6
CONTINUOUS
10
0.6539711811023622
20
1.4894943700787402
11
0.6517335433070865
21
1.4878192913385826
0
LINE
8
BLACK
6
CONTINUOUS
10
0.6517335433070865
20
1.4878192913385826
11
0.6489455118110236
21
1.4876199212598424
0
LINE
8
BLACK
6
CONTINUOUS
10
0.6489455118110236
20
1.4876199212598424
11
0.6464922834645669
21
1.4889594881889763
0
LINE
8
BLACK
6
CONTINUOUS
10
0.6464922834645669
20
1.4889594881889763
11
0.6460288188976377
21
1.4894943700787402
0
LINE
8
BLACK
6
CONTINUOUS
10
0.6460288188976377
20
1.4894943700787402
11
0.6443016141732283
21
1.4918016141732282
0
LINE
8
BLACK
6
CONTINUOUS
10
0.6443016141732283
20
1.4918016141732282
11
0.6396931889763779
21
1.4952514566929134
0
LINE
8
BLACK
6
CONTINUOUS
10
0.6396931889763779
20
1.4952514566929134
11
0.6396931496062992
21
1.4952514566929134
0
LINE
8
BLACK
6
CONTINUOUS
10
0.6396931496062992
20
1.4952514566929134
11
0.6396930708661417
21
1.4952515354330709
0
LINE
8
BLACK
6
CONTINUOUS
10
0.6396930708661417
20
1.4952515354330709
11
0.6342992519685039
21
1.4972633464566929
0
LINE
8
BLACK
6
CONTINUOUS
10
0.6342992519685039
20
1.4972633464566929
11
0.6342991732283464
21
1.4972633464566929
0
LINE
8
BLACK
6
CONTINUOUS
10
0.6342991732283464
20
1.4972633464566929
11
0.6342990551181102
21
1.4972633858267717
0
LINE
8
BLACK
6
CONTINUOUS
10
0.6342990551181102
20
1.4972633858267717
11
0.6319153149606299
21
1.4975196456692914
0
LINE
8
BLACK
6
CONTINUOUS
10
0.6319153149606299
20
1.4975196456692914
11
0.6319151574803149
21
1.4975196456692914
0
LINE
8
BLACK
6
CONTINUOUS
10
0.6319151574803149
20
1.4975196456692914
11
0.6319148818897637
21
1.4975196850393699
0
LINE
8
BLACK
6
CONTINUOUS
10
0.6319148818897637
20
1.4975196850393699
11
0.5680851181102362
21
1.4975196850393699
0
LINE
8
BLACK
6
CONTINUOUS
10
0.5680851181102362
20
1.4975196850393699
11
0.5680848425196851
21
1.4975196456692914
0
LINE
8
BLACK
6
CONTINUOUS
10
0.5680848425196851
20
1.4975196456692914
11
0.5680846456692913
21
1.4975196456692914
0
LINE
8
BLACK
6
CONTINUOUS
10
0.5680846456692913
20
1.4975196456692914
11
0.565700905511811
21
1.4972633858267717
0
LINE
8
BLACK
6
CONTINUOUS
10
0.565700905511811
20
1.4972633858267717
11
0.565700590551181
21
1.4972633070866141
0
LINE
8
BLACK
6
CONTINUOUS
10
0.565700590551181
20
1.4972633070866141
11
0.562632874015748
21
1.4961190551181103
0
LINE
8
BLACK
6
CONTINUOUS
10
0.562632874015748
20
1.4961190551181103
11
0.5603069291338583
21
1.4952515354330709
0
LINE
8
BLACK
6
CONTINUOUS
10
0.5603069291338583
20
1.4952515354330709
11
0.5603068503937008
21
1.4952514960629921
0
LINE
8
BLACK
6
CONTINUOUS
10
0.5603068503937008
20
1.4952514960629921
11
0.5603067716535433
21
1.4952514566929134
0
LINE
8
BLACK
6
CONTINUOUS
10
0.5603067716535433
20
1.4952514566929134
11
0.5556983464566929
21
1.4918016141732282
0
LINE
8
BLACK
6
CONTINUOUS
10
0.5556983464566929
20
1.4918016141732282
11
0.5539711811023622
21
1.4894943700787402
0
LINE
8
BLACK
6
CONTINUOUS
10
0.5539711811023622
20
1.4894943700787402
11
0.5517335433070866
21
1.4878192913385826
0
LINE
8
BLACK
6
CONTINUOUS
10
0.5517335433070866
20
1.4878192913385826
11
0.5489455118110236
21
1.4876199212598424
0
LINE
8
BLACK
6
CONTINUOUS
10
0.5489455118110236
20
1.4876199212598424
11
0.5464922834645669
21
1.4889594881889763
0
LINE
8
BLACK
6
CONTINUOUS
10
0.5464922834645669
20
1.4889594881889763
11
0.5460288188976378
21
1.4894943700787402
0
LINE
8
BLACK
6
CONTINUOUS
10
0.5460288188976378
20
1.4894943700787402
11
0.5443016141732283
21
1.4918016141732282
0
LINE
8
BLACK
6
CONTINUOUS
10
0.5443016141732283
20
1.4918016141732282
11
0.539693188976378
21
1.4952514566929134
0
LINE
8
BLACK
6
CONTINUOUS
10
0.539693188976378
20
1.4952514566929134
11
0.5396931496062992
21
1.4952514566929134
0
LINE
8
BLACK
6
CONTINUOUS
10
0.5396931496062992
20
1.4952514566929134
11
0.5396930708661417
21
1.4952515354330709
0
LINE
8
BLACK
6
CONTINUOUS
10
0.5396930708661417
20
1.4952515354330709
11
0.5342992519685039
21
1.4972633464566929
0
LINE
8
BLACK
6
CONTINUOUS
10
0.5342992519685039
20
1.4972633464566929
11
0.5342991732283464
21
1.4972633464566929
0
LINE
8
BLACK
6
CONTINUOUS
10
0.5342991732283464
20
1.4972633464566929
11
0.5342990551181103
21
1.4972633858267717
0
LINE
8
BLACK
6
CONTINUOUS
10
0.5342990551181103
20
1.4972633858267717
11
0.5319153149606299
21
1.4975196456692914
0
LINE
8
BLACK
6
CONTINUOUS
10
0.5319153149606299
20
1.4975196456692914
11
0.5319151574803149
21
1.4975196456692914
0
LINE
8
BLACK
6
CONTINUOUS
10
0.5319151574803149
20
1.4975196456692914
11
0.5319148818897638
21
1.4975196850393699
0
LINE
8
BLACK
6
CONTINUOUS
10
0.5319148818897638
20
1.4975196850393699
11
0.4680851181102362
21
1.4975196850393699
0
LINE
8
BLACK
6
CONTINUOUS
10
0.4680851181102362
20
1.4975196850393699
11
0.468084842519685
21
1.4975196456692914
0
LINE
8
BLACK
6
CONTINUOUS
10
0.468084842519685
20
1.4975196456692914
11
0.4680846456692913
21
1.4975196456692914
0
LINE
8
BLACK
6
CONTINUOUS
10
0.4680846456692913
20
1.4975196456692914
11
0.465700905511811
21
1.4972633858267717
0
LINE
8
BLACK
6
CONTINUOUS
10
0.465700905511811
20
1.4972633858267717
11
0.4657005905511811
21
1.4972633070866141
0
LINE
8
BLACK
6
CONTINUOUS
10
0.4657005905511811
20
1.4972633070866141
11
0.462632874015748
21
1.4961190551181103
0
LINE
8
BLACK
6
CONTINUOUS
10
0.462632874015748
20
1.4961190551181103
11
0.4603069291338582
21
1.4952515354330709
0
LINE
8
BLACK
6
CONTINUOUS
10
0.4603069291338582
20
1.4952515354330709
11
0.4603068503937008
21
1.4952514960629921
0
LINE
8
BLACK
6
CONTINUOUS
10
0.4603068503937008
20
1.4952514960629921
11
0.4603067716535433
21
1.4952514566929134
0
LINE
8
BLACK
6
CONTINUOUS
10
0.4603067716535433
20
1.4952514566929134
11
0.4556983464566929
21
1.4918016141732282
0
LINE
8
BLACK
6
CONTINUOUS
10
0.4556983464566929
20
1.4918016141732282
11
0.4522485039370079
21
1.4871931889763779
0
LINE
8
BLACK
6
CONTINUOUS
10
0.4522485039370079
20
1.4871931889763779
11
0.4522484251968504
21
1.4871929921259843
0
LINE
8
BLACK
6
CONTINUOUS
10
0.4522484251968504
20
1.4871929921259843
11
0.4502366535433071
21
1.4817993700787402
0
LINE
8
BLACK
6
CONTINUOUS
10
0.4502366535433071
20
1.4817993700787402
11
0.4502365748031496
21
1.4817990551181102
0
LINE
8
BLACK
6
CONTINUOUS
10
0.4502365748031496
20
1.4817990551181102
11
0.4499803149606299
21
1.4794153149606299
0
LINE
8
BLACK
6
CONTINUOUS
10
0.4499803149606299
20
1.4794153149606299
11
0.4499803149606299
21
1.4155846456692913
0
LINE
8
BLACK
6
CONTINUOUS
10
0.4499803149606299
20
1.4155846456692913
11
0.4502365748031496
21
1.4132009055118111
0
LINE
8
BLACK
6
CONTINUOUS
10
0.4502365748031496
20
1.4132009055118111
11
0.4502366535433071
21
1.4132005905511811
0
LINE
8
BLACK
6
CONTINUOUS
10
0.4502366535433071
20
1.4132005905511811
11
0.4522484251968504
21
1.4078069685039369
0
LINE
8
BLACK
6
CONTINUOUS
10
0.4522484251968504
20
1.4078069685039369
11
0.4522485039370079
21
1.4078067716535432
0
LINE
8
BLACK
6
CONTINUOUS
10
0.4522485039370079
20
1.4078067716535432
11
0.4556983858267716
21
1.4031983464566928
0
LINE
8
BLACK
6
CONTINUOUS
10
0.4556983858267716
20
1.4031983464566928
11
0.4580056299212598
21
1.4014711417322834
0
LINE
8
BLACK
6
CONTINUOUS
10
0.4580056299212598
20
1.4014711417322834
11
0.4596806692913386
21
1.3992335039370078
0
LINE
8
BLACK
6
CONTINUOUS
10
0.4596806692913386
20
1.3992335039370078
11
0.4598800393700787
21
1.3964455118110235
0
LINE
8
BLACK
6
CONTINUOUS
10
0.4598800393700787
20
1.3964455118110235
11
0.4585404724409449
21
1.3939922834645668
0
LINE
8
BLACK
6
CONTINUOUS
10
0.4585404724409449
20
1.3939922834645668
11
0.4580056299212598
21
1.3935288582677166
0
LINE
8
BLACK
6
CONTINUOUS
10
0.4580056299212598
20
1.3935288582677166
11
0.4556983858267716
21
1.3918016141732283
0
LINE
8
BLACK
6
CONTINUOUS
10
0.4556983858267716
20
1.3918016141732283
11
0.4522485039370079
21
1.387193188976378
0
LINE
8
BLACK
6
CONTINUOUS
10
0.4522485039370079
20
1.387193188976378
11
0.4522484251968504
21
1.3871929921259842
0
LINE
8
BLACK
6
CONTINUOUS
10
0.4522484251968504
20
1.3871929921259842
11
0.4502366535433071
21
1.3817993700787401
0
LINE
8
BLACK
6
CONTINUOUS
10
0.4502366535433071
20
1.3817993700787401
11
0.4502365748031496
21
1.3817990551181103
0
LINE
8
BLACK
6
CONTINUOUS
10
0.4502365748031496
20
1.3817990551181103
11
0.4499803149606299
21
1.3794153149606299
0
LINE
8
BLACK
6
CONTINUOUS
10
0.4499803149606299
20
1.3794153149606299
11
0.4499803149606299
21
1.3155846456692912
0
LINE
8
BLACK
6
CONTINUOUS
10
0.4499803149606299
20
1.3155846456692912
11
0.4502365748031496
21
1.313200905511811
0
LINE
8
BLACK
6
CONTINUOUS
10
0.4502365748031496
20
1.313200905511811
11
0.4502366535433071
21
1.313200590551181
0
LINE
8
BLACK
6
CONTINUOUS
10
0.4502366535433071
20
1.313200590551181
11
0.4522484251968504
21
1.3078069685039371
0
LINE
8
BLACK
6
CONTINUOUS
10
0.4522484251968504
20
1.3078069685039371
11
0.4522485039370079
21
1.3078067716535433
0
LINE
8
BLACK
6
CONTINUOUS
10
0.4522485039370079
20
1.3078067716535433
11
0.4556983464566929
21
1.303198346456693
0
LINE
8
BLACK
6
CONTINUOUS
10
0.4556983464566929
20
1.303198346456693
11
0.4603067716535433
21
1.2997485039370078
0
LINE
8
BLACK
6
CONTINUOUS
10
0.4603067716535433
20
1.2997485039370078
11
0.460306968503937
21
1.2997484251968503
0
LINE
8
BLACK
6
CONTINUOUS
10
0.460306968503937
20
1.2997484251968503
11
0.4657005905511811
21
1.297736653543307
0
LINE
8
BLACK
6
CONTINUOUS
10
0.4657005905511811
20
1.297736653543307
11
0.465700905511811
21
1.2977365748031495
0
LINE
8
BLACK
6
CONTINUOUS
10
0.465700905511811
20
1.2977365748031495
11
0.4680846456692913
21
1.29748031496063
0
LINE
8
BLACK
6
CONTINUOUS
10
0.4680846456692913
20
1.29748031496063
11
0.4680851181102362
21
1.29748031496063
0
LINE
8
BLACK
6
CONTINUOUS
10
0.4680851181102362
20
1.29748031496063
11
0.5319153149606299
21
1.29748031496063
0
LINE
8
BLACK
6
CONTINUOUS
10
0.5319153149606299
20
1.29748031496063
11
0.5342990551181103
21
1.2977365748031495
0
LINE
8
BLACK
6
CONTINUOUS
10
0.5342990551181103
20
1.2977365748031495
11
0.5342993700787402
21
1.297736653543307
0
LINE
8
BLACK
6
CONTINUOUS
10
0.5342993700787402
20
1.297736653543307
11
0.5396929921259842
21
1.2997484251968503
0
LINE
8
BLACK
6
CONTINUOUS
10
0.5396929921259842
20
1.2997484251968503
11
0.539693188976378
21
1.2997485039370078
0
LINE
8
BLACK
6
CONTINUOUS
10
0.539693188976378
20
1.2997485039370078
11
0.5443016141732283
21
1.3031983858267717
0
LINE
8
BLACK
6
CONTINUOUS
10
0.5443016141732283
20
1.3031983858267717
11
0.5460288582677165
21
1.3055056299212597
0
LINE
8
BLACK
6
CONTINUOUS
10
0.5460288582677165
20
1.3055056299212597
11
0.5482664960629922
21
1.3071806692913386
0
LINE
8
BLACK
6
CONTINUOUS
10
0.5482664960629922
20
1.3071806692913386
11
0.5510544881889764
21
1.3073800393700787
0
LINE
8
BLACK
6
CONTINUOUS
10
0.5510544881889764
20
1.3073800393700787
11
0.5535077165354331
21
1.3060404724409449
0
LINE
8
BLACK
6
CONTINUOUS
10
0.5535077165354331
20
1.3060404724409449
11
0.5539711417322835
21
1.3055056299212597
0
LINE
8
BLACK
6
CONTINUOUS
10
0.5539711417322835
20
1.3055056299212597
11
0.5556983858267717
21
1.3031983070866142
0
LINE
8
BLACK
6
CONTINUOUS
10
0.5556983858267717
20
1.3031983070866142
11
0.5559174409448818
21
1.3029792913385827
0
LINE
8
BLACK
6
CONTINUOUS
10
0.5559174409448818
20
1.3029792913385827
11
0.5572570472440945
21
1.300526062992126
0
LINE
8
BLACK
6
CONTINUOUS
10
0.5572570472440945
20
1.300526062992126
11
0.5570576377952756
21
1.2977380708661417
0
LINE
8
BLACK
6
CONTINUOUS
10
0.5570576377952756
20
1.2977380708661417
11
0.5559174409448818
21
1.2959639370078739
0
LINE
8
BLACK
6
CONTINUOUS
10
0.5559174409448818
20
1.2959639370078739
11
0.5239457874015748
21
1.2639922834645669
0
LINE
8
BLACK
6
CONTINUOUS
10
0.5239457874015748
20
1.2639922834645669
11
0.521492559055118
21
1.2626526771653543
0
LINE
8
BLACK
6
CONTINUOUS
10
0.521492559055118
20
1.2626526771653543
11
0.5204381102362204
21
1.2625393307086614
0
LINE
8
BLACK
6
CONTINUOUS
10
0.5204381102362204
20
1.2625393307086614
11
0.3299446456692913
21
1.2625393307086614
0
LINE
8
BLACK
6
CONTINUOUS
10
0.3299446456692913
20
1.2625393307086614
11
0.327262716535433
21
1.263326811023622
0
LINE
8
BLACK
6
CONTINUOUS
10
0.327262716535433
20
1.263326811023622
11
0.3267975984251968
21
1.2636653937007873
0
LINE
8
BLACK
6
CONTINUOUS
10
0.3267975984251968
20
1.2636653937007873
11
0.32636
21
1.2640245275590551
0
LINE
8
BLACK
6
CONTINUOUS
10
0.32636
20
1.2640245275590551
11
0.319841968503937
21
1.2675085039370078
0
LINE
8
BLACK
6
CONTINUOUS
10
0.319841968503937
20
1.2675085039370078
11
0.3127694881889764
21
1.2696539370078739
0
LINE
8
BLACK
6
CONTINUOUS
10
0.3127694881889764
20
1.2696539370078739
11
0.3127692519685039
21
1.2696539370078739
0
LINE
8
BLACK
6
CONTINUOUS
10
0.3127692519685039
20
1.2696539370078739
11
0.3127692125984252
21
1.2696539763779526
0
LINE
8
BLACK
6
CONTINUOUS
10
0.3127692125984252
20
1.2696539763779526
11
0.3054144488188976
21
1.2703783464566929
0
LINE
8
BLACK
6
CONTINUOUS
10
0.3054144488188976
20
1.2703783464566929
11
0.3054142125984252
21
1.2703783464566929
0
LINE
8
BLACK
6
CONTINUOUS
10
0.3054142125984252
20
1.2703783464566929
11
0.2980594488188976
21
1.2696539763779526
0
LINE
8
BLACK
6
CONTINUOUS
10
0.2980594488188976
20
1.2696539763779526
11
0.2980593700787402
21
1.2696539763779526
0
LINE
8
BLACK
6
CONTINUOUS
10
0.2980593700787402
20
1.2696539763779526
11
0.2980592519685039
21
1.2696539370078739
0
LINE
8
BLACK
6
CONTINUOUS
10
0.2980592519685039
20
1.2696539370078739
11
0.2980591732283465
21
1.2696539370078739
0
LINE
8
BLACK
6
CONTINUOUS
10
0.2980591732283465
20
1.2696539370078739
11
0.2909866929133858
21
1.2675085039370078
0
LINE
8
BLACK
6
CONTINUOUS
10
0.2909866929133858
20
1.2675085039370078
11
0.2844686614173229
21
1.2640245275590551
0
LINE
8
BLACK
6
CONTINUOUS
10
0.2844686614173229
20
1.2640245275590551
11
0.2787555511811023
21
1.259335905511811
0
LINE
8
BLACK
6
CONTINUOUS
10
0.2787555511811023
20
1.259335905511811
11
0.2762764960629921
21
1.2563151574803149
0
LINE
8
BLACK
6
CONTINUOUS
10
0.2762764960629921
20
1.2563151574803149
11
0.2740669291338583
21
1.2536227952755905
0
LINE
8
BLACK
6
CONTINUOUS
10
0.2740669291338583
20
1.2536227952755905
11
0.2705829921259842
21
1.2471048818897637
0
LINE
8
BLACK
6
CONTINUOUS
10
0.2705829921259842
20
1.2471048818897637
11
0.2705829133858267
21
1.2471046456692914
0
LINE
8
BLACK
6
CONTINUOUS
10
0.2705829133858267
20
1.2471046456692914
11
0.2684374409448819
21
1.2400320472440944
0
LINE
8
BLACK
6
CONTINUOUS
10
0.2684374409448819
20
1.2400320472440944
11
0.2684374409448819
21
1.2400319685039369
0
LINE
8
BLACK
6
CONTINUOUS
10
0.2684374409448819
20
1.2400319685039369
11
0.2677131102362205
21
1.2326772440944882
0
LINE
8
BLACK
6
CONTINUOUS
10
0.2677131102362205
20
1.2326772440944882
11
0.2677131102362205
21
1.2326769685039369
0
LINE
8
BLACK
6
CONTINUOUS
10
0.2677131102362205
20
1.2326769685039369
11
0.2684374409448819
21
1.2253222440944882
0
LINE
8
BLACK
6
CONTINUOUS
10
0.2684374409448819
20
1.2253222440944882
11
0.2684374409448819
21
1.2253221653543307
0
LINE
8
BLACK
6
CONTINUOUS
10
0.2684374409448819
20
1.2253221653543307
11
0.2705829133858267
21
1.2182495669291338
0
LINE
8
BLACK
6
CONTINUOUS
10
0.2705829133858267
20
1.2182495669291338
11
0.2705829921259842
21
1.2182493307086615
0
LINE
8
BLACK
6
CONTINUOUS
10
0.2705829921259842
20
1.2182493307086615
11
0.2740669291338583
21
1.2117314173228346
0
LINE
8
BLACK
6
CONTINUOUS
10
0.2740669291338583
20
1.2117314173228346
11
0.2787555511811023
21
1.2060183464566929
0
LINE
8
BLACK
6
CONTINUOUS
10
0.2787555511811023
20
1.2060183464566929
11
0.2844686220472441
21
1.2013297244094487
0
LINE
8
BLACK
6
CONTINUOUS
10
0.2844686220472441
20
1.2013297244094487
11
0.2909865354330708
21
1.1978457874015749
0
LINE
8
BLACK
6
CONTINUOUS
10
0.2909865354330708
20
1.1978457874015749
11
0.2909867716535433
21
1.1978457086614174
0
LINE
8
BLACK
6
CONTINUOUS
10
0.2909867716535433
20
1.1978457086614174
11
0.2980594094488189
21
1.1957002362204725
0
LINE
8
BLACK
6
CONTINUOUS
10
0.2980594094488189
20
1.1957002362204725
11
0.3054142125984252
21
1.194975905511811
0
LINE
8
BLACK
6
CONTINUOUS
10
0.3054142125984252
20
1.194975905511811
11
0.3054143307086614
21
1.194975905511811
0
LINE
8
BLACK
6
CONTINUOUS
10
0.3054143307086614
20
1.194975905511811
11
0.3054144488188976
21
1.194975905511811
0
LINE
8
BLACK
6
CONTINUOUS
10
0.3054144488188976
20
1.194975905511811
11
0.3127691732283465
21
1.1957002362204725
0
LINE
8
BLACK
6
CONTINUOUS
10
0.3127691732283465
20
1.1957002362204725
11
0.3127692519685039
21
1.1957002362204725
0
LINE
8
BLACK
6
CONTINUOUS
10
0.3127692519685039
20
1.1957002362204725
11
0.3198418503937008
21
1.1978457086614174
0
LINE
8
BLACK
6
CONTINUOUS
10
0.3198418503937008
20
1.1978457086614174
11
0.3198420866141732
21
1.1978457874015749
0
LINE
8
BLACK
6
CONTINUOUS
10
0.3198420866141732
20
1.1978457874015749
11
0.32636
21
1.2013297244094487
0
LINE
8
BLACK
6
CONTINUOUS
10
0.32636
20
1.2013297244094487
11
0.3267975984251968
21
1.2016888582677165
0
LINE
8
BLACK
6
CONTINUOUS
10
0.3267975984251968
20
1.2016888582677165
11
0.3293703149606299
21
1.2027815748031496
0
LINE
8
BLACK
6
CONTINUOUS
10
0.3293703149606299
20
1.2027815748031496
11
0.3299446456692913
21
1.2028149212598425
0
LINE
8
BLACK
6
CONTINUOUS
10
0.3299446456692913
20
1.2028149212598425
11
0.5378035433070866
21
1.2028149212598425
0
LINE
8
BLACK
6
CONTINUOUS
10
0.5378035433070866
20
1.2028149212598425
11
0.5406879527559055
21
1.2033886614173228
0
LINE
8
BLACK
6
CONTINUOUS
10
0.5406879527559055
20
1.2033886614173228
11
0.5406879921259843
21
1.2033887007874016
0
LINE
8
BLACK
6
CONTINUOUS
10
0.5406879921259843
20
1.2033887007874016
11
0.5435726771653543
21
1.2039625196850394
0
LINE
8
BLACK
6
CONTINUOUS
10
0.5435726771653543
20
1.2039625196850394
11
0.5490072047244094
21
1.2062135826771654
0
LINE
8
BLACK
6
CONTINUOUS
10
0.5490072047244094
20
1.2062135826771654
11
0.553898188976378
21
1.2094816141732283
0
LINE
8
BLACK
6
CONTINUOUS
10
0.553898188976378
20
1.2094816141732283
11
0.5964923228346457
21
1.2520757480314961
0
LINE
8
BLACK
6
CONTINUOUS
10
0.5964923228346457
20
1.2520757480314961
11
0.5989455511811024
21
1.2534153543307087
0
LINE
8
BLACK
6
CONTINUOUS
10
0.5989455511811024
20
1.2534153543307087
11
0.6017335433070866
21
1.2532159448818898
0
LINE
8
BLACK
6
CONTINUOUS
10
0.6017335433070866
20
1.2532159448818898
11
0.6035076771653544
21
1.2520757480314961
0
LINE
8
BLACK
6
CONTINUOUS
10
0.6035076771653544
20
1.2520757480314961
11
0.6228375984251968
21
1.2327458267716536
0
LINE
8
BLACK
6
CONTINUOUS
10
0.6228375984251968
20
1.2327458267716536
11
0.6308200393700787
21
1.2247633858267717
0
LINE
8
BLACK
6
CONTINUOUS
10
0.6308200393700787
20
1.2247633858267717
11
0.6537788188976378
21
1.2018045669291337
0
LINE
8
BLACK
6
CONTINUOUS
10
0.6537788188976378
20
1.2018045669291337
11
0.6537788582677165
21
1.201804527559055
0
LINE
8
BLACK
6
CONTINUOUS
10
0.6537788582677165
20
1.201804527559055
11
0.6580998031496063
21
1.1989174015748032
0
LINE
8
BLACK
6
CONTINUOUS
10
0.6580998031496063
20
1.1989174015748032
11
0.6586699212598425
21
1.1985364566929133
0
LINE
8
BLACK
6
CONTINUOUS
10
0.6586699212598425
20
1.1985364566929133
11
0.6641043307086614
21
1.1962854330708661
0
LINE
8
BLACK
6
CONTINUOUS
10
0.6641043307086614
20
1.1962854330708661
11
0.6641044488188976
21
1.1962853937007873
0
LINE
8
BLACK
6
CONTINUOUS
10
0.6641044488188976
20
1.1962853937007873
11
0.6698736220472441
21
1.1951377952755906
0
LINE
8
BLACK
6
CONTINUOUS
10
0.6698736220472441
20
1.1951377952755906
11
0.669873779527559
21
1.1951377952755906
0
LINE
8
BLACK
6
CONTINUOUS
10
0.669873779527559
20
1.1951377952755906
11
0.6698738188976378
21
1.1951377952755906
0
LINE
8
BLACK
6
CONTINUOUS
10
0.6698738188976378
20
1.1951377952755906
11
0.6757561023622047
21
1.1951377952755906
0
LINE
8
BLACK
6
CONTINUOUS
10
0.6757561023622047
20
1.1951377952755906
11
0.88501968503937
21
1.1951377952755906
0
LINE
8
BLACK
6
CONTINUOUS
10
0.88501968503937
20
1.1951377952755906
11
0.8877016141732283
21
1.1943503149606298
0
LINE
8
BLACK
6
CONTINUOUS
10
0.8877016141732283
20
1.1943503149606298
11
0.8895320472440945
21
1.192237874015748
0
LINE
8
BLACK
6
CONTINUOUS
10
0.8895320472440945
20
1.192237874015748
11
0.8899803149606299
21
1.1901771653543307
0
LINE
8
BLACK
6
CONTINUOUS
10
0.8899803149606299
20
1.1901771653543307
11
0.8899803149606299
21
1.1346653937007873
0
LINE
8
BLACK
6
CONTINUOUS
10
0.8899803149606299
20
1.1346653937007873
11
0.8891928346456692
21
1.1319834645669291
0
LINE
8
BLACK
6
CONTINUOUS
10
0.8891928346456692
20
1.1319834645669291
11
0.8870803937007874
21
1.1301530314960631
0
LINE
8
BLACK
6
CONTINUOUS
10
0.8870803937007874
20
1.1301530314960631
11
0.88501968503937
21
1.1297047637795274
0
LINE
8
BLACK
6
CONTINUOUS
10
0.88501968503937
20
1.1297047637795274
11
0.7062261417322835
21
1.1297047637795274
0
LINE
8
BLACK
6
CONTINUOUS
10
0.7062261417322835
20
1.1297047637795274
11
0.7012174803149606
21
1.1287084645669292
0
LINE
8
BLACK
6
CONTINUOUS
10
0.7012174803149606
20
1.1287084645669292
11
0.7012172834645669
21
1.1287083858267717
0
LINE
8
BLACK
6
CONTINUOUS
10
0.7012172834645669
20
1.1287083858267717
11
0.6992064173228346
21
1.1278754724409448
0
LINE
8
BLACK
6
CONTINUOUS
10
0.6992064173228346
20
1.1278754724409448
11
0.6968218110236221
21
1.1275217716535433
0
LINE
8
BLACK
6
CONTINUOUS
10
0.6968218110236221
20
1.1275217716535433
11
0.6961822047244094
21
1.1275847637795275
0
LINE
8
BLACK
6
CONTINUOUS
10
0.6961822047244094
20
1.1275847637795275
11
0.6950000393700787
21
1.1277012204724408
0
LINE
8
BLACK
6
CONTINUOUS
10
0.6950000393700787
20
1.1277012204724408
11
0.6949998818897638
21
1.1277012204724408
0
LINE
8
BLACK
6
CONTINUOUS
10
0.6949998818897638
20
1.1277012204724408
11
0.6876451181102362
21
1.1269768503937008
0
LINE
8
BLACK
6
CONTINUOUS
10
0.6876451181102362
20
1.1269768503937008
11
0.6876450393700787
21
1.1269768503937008
0
LINE
8
BLACK
6
CONTINUOUS
10
0.6876450393700787
20
1.1269768503937008
11
0.6876449212598426
21
1.126976811023622
0
LINE
8
BLACK
6
CONTINUOUS
10
0.6876449212598426
20
1.126976811023622
11
0.6876448425196851
21
1.126976811023622
0
LINE
8
BLACK
6
CONTINUOUS
10
0.6876448425196851
20
1.126976811023622
11
0.6805723622047244
21
1.1248313779527559
0
LINE
8
BLACK
6
CONTINUOUS
10
0.6805723622047244
20
1.1248313779527559
11
0.6740543307086614
21
1.1213474015748031
0
LINE
8
BLACK
6
CONTINUOUS
10
0.6740543307086614
20
1.1213474015748031
11
0.6683412204724409
21
1.1166587795275591
0
LINE
8
BLACK
6
CONTINUOUS
10
0.6683412204724409
20
1.1166587795275591
11
0.6647217716535433
21
1.1122484645669291
0
LINE
8
BLACK
6
CONTINUOUS
10
0.6647217716535433
20
1.1122484645669291
11
0.6636525984251969
21
1.1109456692913386
0
LINE
8
BLACK
6
CONTINUOUS
10
0.6636525984251969
20
1.1109456692913386
11
0.6601686614173228
21
1.1044277559055118
0
LINE
8
BLACK
6
CONTINUOUS
10
0.6601686614173228
20
1.1044277559055118
11
0.6601685826771654
21
1.1044275196850393
0
LINE
8
BLACK
6
CONTINUOUS
10
0.6601685826771654
20
1.1044275196850393
11
0.6580231102362205
21
1.0973549212598426
0
LINE
8
BLACK
6
CONTINUOUS
10
0.6580231102362205
20
1.0973549212598426
11
0.6580231102362205
21
1.0973548425196851
0
LINE
8
BLACK
6
CONTINUOUS
10
0.6580231102362205
20
1.0973548425196851
11
0.657298779527559
21
1.0900001181102361
0
LINE
8
BLACK
6
CONTINUOUS
10
0.657298779527559
20
1.0900001181102361
11
0.657298779527559
21
1.0899998425196851
0
LINE
8
BLACK
6
CONTINUOUS
10
0.657298779527559
20
1.0899998425196851
11
0.6580231102362205
21
1.0826451181102361
0
LINE
8
BLACK
6
CONTINUOUS
10
0.6580231102362205
20
1.0826451181102361
11
0.6580231889763779
21
1.0826448031496063
0
LINE
8
BLACK
6
CONTINUOUS
10
0.6580231889763779
20
1.0826448031496063
11
0.6592664960629921
21
1.0785462992125985
0
LINE
8
BLACK
6
CONTINUOUS
10
0.6592664960629921
20
1.0785462992125985
11
0.6592914566929133
21
1.0757512598425196
0
LINE
8
BLACK
6
CONTINUOUS
10
0.6592914566929133
20
1.0757512598425196
11
0.6578013779527558
21
1.0733864173228347
0
LINE
8
BLACK
6
CONTINUOUS
10
0.6578013779527558
20
1.0733864173228347
11
0.6552692913385827
21
1.0722026377952756
0
LINE
8
BLACK
6
CONTINUOUS
10
0.6552692913385827
20
1.0722026377952756
11
0.6545194881889763
21
1.0721456299212597
0
LINE
8
BLACK
6
CONTINUOUS
10
0.6545194881889763
20
1.0721456299212597
11
0.2426048031496063
21
1.0721456299212597
0
LINE
8
BLACK
6
CONTINUOUS
10
0.2426048031496063
20
1.0721456299212597
11
0.239922874015748
21
1.0729331102362205
0
LINE
8
BLACK
6
CONTINUOUS
10
0.239922874015748
20
1.0729331102362205
11
0.2390972834645669
21
1.0735983858267717
0
LINE
8
BLACK
6
CONTINUOUS
10
0.2390972834645669
20
1.0735983858267717
11
0.2160292519685039
21
1.0966664566929134
0
LINE
8
BLACK
6
CONTINUOUS
10
0.2160292519685039
20
1.0966664566929134
11
0.2114606692913386
21
1.0997190944881889
0
LINE
8
BLACK
6
CONTINUOUS
10
0.2114606692913386
20
1.0997190944881889
11
0.2078222834645669
21
1.1012261417322835
0
LINE
8
BLACK
6
CONTINUOUS
10
0.2078222834645669
20
1.1012261417322835
11
0.2078221653543307
21
1.1012261417322835
0
LINE
8
BLACK
6
CONTINUOUS
10
0.2078221653543307
20
1.1012261417322835
11
0.207822125984252
21
1.101226220472441
0
LINE
8
BLACK
6
CONTINUOUS
10
0.207822125984252
20
1.101226220472441
11
0.2063845669291338
21
1.1018216929133857
0
LINE
8
BLACK
6
CONTINUOUS
10
0.2063845669291338
20
1.1018216929133857
11
0.2063843700787402
21
1.1018217322834645
0
LINE
8
BLACK
6
CONTINUOUS
10
0.2063843700787402
20
1.1018217322834645
11
0.2063843307086614
21
1.1018217716535432
0
LINE
8
BLACK
6
CONTINUOUS
10
0.2063843307086614
20
1.1018217716535432
11
0.2063842519685039
21
1.1018217716535432
0
LINE
8
BLACK
6
CONTINUOUS
10
0.2063842519685039
20
1.1018217716535432
11
0.2061511417322835
21
1.1018925196850393
0
LINE
8
BLACK
6
CONTINUOUS
10
0.2061511417322835
20
1.1018925196850393
11
0.2061754724409449
21
1.1019728346456692
0
LINE
8
BLACK
6
CONTINUOUS
10
0.2061754724409449
20
1.1019728346456692
11
0.2040366929133858
21
1.1030909448818897
0
LINE
8
BLACK
6
CONTINUOUS
10
0.2040366929133858
20
1.1030909448818897
11
0.2026529133858268
21
1.105519527559055
0
LINE
8
BLACK
6
CONTINUOUS
10
0.2026529133858268
20
1.105519527559055
11
0.2025196850393701
21
1.1066615748031496
0
LINE
8
BLACK
6
CONTINUOUS
10
0.2025196850393701
20
1.1066615748031496
11
0.2025196850393701
21
1.1069146456692913
0
LINE
8
BLACK
6
CONTINUOUS
10
0.2025196850393701
20
1.1069146456692913
11
0.2025196456692913
21
1.1069153149606299
0
LINE
8
BLACK
6
CONTINUOUS
10
0.2025196456692913
20
1.1069153149606299
11
0.2022633858267716
21
1.1092990551181101
0
LINE
8
BLACK
6
CONTINUOUS
10
0.2022633858267716
20
1.1092990551181101
11
0.2022633070866142
21
1.1092993700787401
0
LINE
8
BLACK
6
CONTINUOUS
10
0.2022633070866142
20
1.1092993700787401
11
0.2013553937007874
21
1.1117335039370078
0
LINE
8
BLACK
6
CONTINUOUS
10
0.2013553937007874
20
1.1117335039370078
11
0.2002515354330709
21
1.1146930708661418
0
LINE
8
BLACK
6
CONTINUOUS
10
0.2002515354330709
20
1.1146930708661418
11
0.1994989763779527
21
1.115698346456693
0
LINE
8
BLACK
6
CONTINUOUS
10
0.1994989763779527
20
1.115698346456693
11
0.1968016141732283
21
1.1193016141732284
0
LINE
8
BLACK
6
CONTINUOUS
10
0.1968016141732283
20
1.1193016141732284
11
0.1944943700787402
21
1.1210288188976378
0
LINE
8
BLACK
6
CONTINUOUS
10
0.1944943700787402
20
1.1210288188976378
11
0.1928192913385827
21
1.1232664566929134
0
LINE
8
BLACK
6
CONTINUOUS
10
0.1928192913385827
20
1.1232664566929134
11
0.1926199212598425
21
1.1260544881889762
0
LINE
8
BLACK
6
CONTINUOUS
10
0.1926199212598425
20
1.1260544881889762
11
0.1939594881889764
21
1.1285077165354331
0
LINE
8
BLACK
6
CONTINUOUS
10
0.1939594881889764
20
1.1285077165354331
11
0.1944943700787402
21
1.1289711811023622
0
LINE
8
BLACK
6
CONTINUOUS
10
0.1944943700787402
20
1.1289711811023622
11
0.1968016141732283
21
1.1306983464566929
0
LINE
8
BLACK
6
CONTINUOUS
10
0.1968016141732283
20
1.1306983464566929
11
0.2002514566929134
21
1.1353067716535432
0
LINE
8
BLACK
6
CONTINUOUS
10
0.2002514566929134
20
1.1353067716535432
11
0.2002515354330709
21
1.135306968503937
0
LINE
8
BLACK
6
CONTINUOUS
10
0.2002515354330709
20
1.135306968503937
11
0.2022633070866142
21
1.1407005905511811
0
LINE
8
BLACK
6
CONTINUOUS
10
0.2022633070866142
20
1.1407005905511811
11
0.2022633858267716
21
1.1407009055118109
0
LINE
8
BLACK
6
CONTINUOUS
10
0.2022633858267716
20
1.1407009055118109
11
0.2025196456692913
21
1.1430846456692914
0
LINE
8
BLACK
6
CONTINUOUS
10
0.2025196456692913
20
1.1430846456692914
11
0.2025196850393701
21
1.1430853149606299
0
LINE
8
BLACK
6
CONTINUOUS
10
0.2025196850393701
20
1.1430853149606299
11
0.2025196850393701
21
1.2069146456692914
0
LINE
8
BLACK
6
CONTINUOUS
10
0.2025196850393701
20
1.2069146456692914
11
0.2025196456692913
21
1.20691531496063
0
LINE
8
BLACK
6
CONTINUOUS
10
0.2025196456692913
20
1.20691531496063
11
0.2022633858267716
21
1.2092990551181102
0
LINE
8
BLACK
6
CONTINUOUS
10
0.2022633858267716
20
1.2092990551181102
11
0.2022633070866142
21
1.2092993700787402
0
LINE
8
BLACK
6
CONTINUOUS
10
0.2022633070866142
20
1.2092993700787402
11
0.2019866141732283
21
1.2100411417322834
0
LINE
8
BLACK
6
CONTINUOUS
10
0.2019866141732283
20
1.2100411417322834
11
0.2002515354330709
21
1.2146930708661416
0
LINE
8
BLACK
6
CONTINUOUS
10
0.2002515354330709
20
1.2146930708661416
11
0.1968016141732283
21
1.2193016141732282
0
LINE
8
BLACK
6
CONTINUOUS
10
0.1968016141732283
20
1.2193016141732282
11
0.1921930708661417
21
1.2227515354330709
0
LINE
8
BLACK
6
CONTINUOUS
10
0.1921930708661417
20
1.2227515354330709
11
0.1867992519685039
21
1.2247633464566929
0
LINE
8
BLACK
6
CONTINUOUS
10
0.1867992519685039
20
1.2247633464566929
11
0.1867991732283465
21
1.2247633464566929
0
LINE
8
BLACK
6
CONTINUOUS
10
0.1867991732283465
20
1.2247633464566929
11
0.1867990551181102
21
1.2247633858267717
0
LINE
8
BLACK
6
CONTINUOUS
10
0.1867990551181102
20
1.2247633858267717
11
0.1844153149606299
21
1.2250196456692912
0
LINE
8
BLACK
6
CONTINUOUS
10
0.1844153149606299
20
1.2250196456692912
11
0.184415157480315
21
1.2250196456692912
0
LINE
8
BLACK
6
CONTINUOUS
10
0.184415157480315
20
1.2250196456692912
11
0.1844148818897638
21
1.22501968503937
0
LINE
8
BLACK
6
CONTINUOUS
10
0.1844148818897638
20
1.22501968503937
11
0.1205851181102362
21
1.22501968503937
0
LINE
8
BLACK
6
CONTINUOUS
10
0.1205851181102362
20
1.22501968503937
11
0.120584842519685
21
1.2250196456692912
0
LINE
8
BLACK
6
CONTINUOUS
10
0.120584842519685
20
1.2250196456692912
11
0.1205846456692913
21
1.2250196456692912
0
LINE
8
BLACK
6
CONTINUOUS
10
0.1205846456692913
20
1.2250196456692912
11
0.118200905511811
21
1.2247633858267717
0
LINE
8
BLACK
6
CONTINUOUS
10
0.118200905511811
20
1.2247633858267717
11
0.1182005905511811
21
1.2247633070866142
0
LINE
8
BLACK
6
CONTINUOUS
10
0.1182005905511811
20
1.2247633070866142
11
0.1156987007874016
21
1.2238301181102362
0
LINE
8
BLACK
6
CONTINUOUS
10
0.1156987007874016
20
1.2238301181102362
11
0.1128069291338583
21
1.2227515354330709
0
LINE
8
BLACK
6
CONTINUOUS
10
0.1128069291338583
20
1.2227515354330709
11
0.1128068503937008
21
1.2227514960629922
0
LINE
8
BLACK
6
CONTINUOUS
10
0.1128068503937008
20
1.2227514960629922
11
0.1128067716535433
21
1.2227514566929134
0
LINE
8
BLACK
6
CONTINUOUS
10
0.1128067716535433
20
1.2227514566929134
11
0.1081983464566929
21
1.2193016141732282
0
LINE
8
BLACK
6
CONTINUOUS
10
0.1081983464566929
20
1.2193016141732282
11
0.1047485039370079
21
1.2146931889763779
0
LINE
8
BLACK
6
CONTINUOUS
10
0.1047485039370079
20
1.2146931889763779
11
0.1047484251968504
21
1.2146929921259841
0
LINE
8
BLACK
6
CONTINUOUS
10
0.1047484251968504
20
1.2146929921259841
11
0.1027366535433071
21
1.2092993700787402
0
LINE
8
BLACK
6
CONTINUOUS
10
0.1027366535433071
20
1.2092993700787402
11
0.1027365748031496
21
1.2092990551181102
0
LINE
8
BLACK
6
CONTINUOUS
10
0.1027365748031496
20
1.2092990551181102
11
0.1024803149606299
21
1.20691531496063
0
LINE
8
BLACK
6
CONTINUOUS
10
0.1024803149606299
20
1.20691531496063
11
0.1024803149606299
21
1.1430846456692914
0
CIRCLE
8
BLACK
10
0.15
20
0.61
40
0.0068897637795276
0
CIRCLE
8
BLACK
10
0.25
20
0.61
40
0.0068897637795276
0
CIRCLE
8
BLACK
10
0.15
20
0.51
40
0.0068897637795276
0
CIRCLE
8
BLACK
10
0.25
20
0.51
40
0.0068897637795276
0
CIRCLE
8
BLACK
10
0.15
20
0.41
40
0.0068897637795276
0
CIRCLE
8
BLACK
10
0.25
20
0.41
40
0.0068897637795276
0
CIRCLE
8
BLACK
10
0.89
20
0.83
40
0.0068897637795276
0
CIRCLE
8
BLACK
10
0.79
20
0.83
40
0.0068897637795276
0
CIRCLE
8
BLACK
10
1.04
20
1.0600000000000001
40
0.0068897637795276
0
CIRCLE
8
BLACK
10
0.9399999999999999
20
1.0600000000000001
40
0.0068897637795276
0
CIRCLE
8
BLACK
10
1.04
20
1.1599999999999999
40
0.0068897637795276
0
CIRCLE
8
BLACK
10
0.9399999999999999
20
1.1599999999999999
40
0.0068897637795276
0
CIRCLE
8
BLACK
10
0.7999999999999999
20
1.4475
40
0.0068897637795276
0
CIRCLE
8
BLACK
10
0.7999999999999999
20
1.3474999999999999
40
0.0068897637795276
0
CIRCLE
8
BLACK
10
0.7
20
1.4475
40
0.0068897637795276
0
CIRCLE
8
BLACK
10
0.7
20
1.3474999999999999
40
0.0068897637795276
0
CIRCLE
8
BLACK
10
0.6
20
1.4475
40
0.0068897637795276
0
CIRCLE
8
BLACK
10
0.6
20
1.3474999999999999
40
0.0068897637795276
0
CIRCLE
8
BLACK
10
0.5
20
1.4475
40
0.0068897637795276
0
CIRCLE
8
BLACK
10
0.5
20
1.3474999999999999
40
0.0068897637795276
0
CIRCLE
8
BLACK
10
0.4
20
1.4475
40
0.0068897637795276
0
CIRCLE
8
BLACK
10
0.4
20
1.3474999999999999
40
0.0068897637795276
0
CIRCLE
8
BLACK
10
0.2
20
1.3999999999999999
40
0.0068897637795276
0
CIRCLE
8
BLACK
10
1.
20
0.2
40
0.0068897637795276
0
CIRCLE
8
BLACK
10
1.
20
1.3999999999999999
40
0.0068897637795276
0
CIRCLE
8
BLACK
10
0.2
20
0.2
40
0.0068897637795276
0
CIRCLE
8
BLACK
10
0.72
20
0.2131496062992126
40
0.0068897637795276
0
CIRCLE
8
BLACK
10
0.72
20
0.41
40
0.0068897637795276
0
CIRCLE
8
BLACK
10
0.52
20
0.2131496062992126
40
0.0068897637795276
0
CIRCLE
8
BLACK
10
0.52
20
0.41
40
0.0068897637795276
0
CIRCLE
8
BLACK
10
0.1525
20
1.175
40
0.0068897637795276
0
CIRCLE
8
BLACK
10
0.1525
20
1.075
40
0.0068897637795276
0
CIRCLE
8
BLACK
10
0.1525
20
0.975
40
0.0068897637795276
0
CIRCLE
8
BLACK
10
0.84
20
1.0600000000000001
40
0.0068897637795276
0
CIRCLE
8
BLACK
10
0.84
20
1.1599999999999999
40
0.0068897637795276
0
CIRCLE
8
BLACK
10
0.3054143307086614
20
1.2326771259842519
40
0.0125
0
CIRCLE
8
BLACK
10
0.62
20
0.9125
40
0.0125
0
CIRCLE
8
BLACK
10
0.695
20
1.0900000000000001
40
0.0125
0
CIRCLE
8
BLACK
10
0.8032345669291339
20
0.9465132283464567
40
0.0125
  0
ENDSEC
  0
EOF
