  0
SECTION
  2
HEADER
  9
$ANGBASE
  50
0.0
  9
$ANGDIR
  70
1
  9
$MEASUREMENT
  70
0
  0
ENDSEC
  0
SECTION
  2
TABLES
  0
TABLE
  2
LTYPE
  70
4
  0
LTYPE
  5
40F
  2
CONTINUOUS
  70
0
  3
Solid line
  72
65
  73
0
  40
0.0
  0
LTYPE
  5
410
  2
DASHDOT
 70
0
  3
Dash Dot ____ _ ____ _
 72
65
 73
4
 40
2.0
 49
1.25
 49
-0.25
 49
0.25
 49
-0.25
  0
LTYPE
  5
411
  2
DASHED
 70
0
  3
Dashed __ __ __ __ __
 72
65
 73
2
 40
0.75
 49
0.5
 49
-0.25
  0
LTYPE
  5
43B
  2
DOTTED
 70
0
  3
Dotted .  .  .  .
 72
65
 73
2
 40
0.2
 49
0.0
 49
-0.2
  0
ENDTAB
  0
TABLE
  2
STYLE
  70
4
  0
STYLE
  2
KICAD
  70
0
  40
0
  41
1
  42
1
  50
0
  71
0
  3
isocp.shx
  0
STYLE
  2
KICADB
  70
0
  40
0
  41
1
  42
1
  50
0
  71
0
  3
isocp.shx
  0
STYLE
  2
KICADI
  70
0
  40
0
  41
1
  42
1
  50
15
  71
0
  3
isocp.shx
  0
STYLE
  2
KICADBI
  70
0
  40
0
  41
1
  42
1
  50
15
  71
0
  3
isocp.shx
  0
ENDTAB
  0
TABLE
  2
LAYER
  70
1
  0
LAYER
  2
BLACK
  70
0
  62
7
  6
CONTINUOUS
  0
ENDTAB
  0
ENDSEC
  0
SECTION
  2
ENTITIES
0
LINE
8
BLACK
6
CONTINUOUS
10
0.595
20
0.1381496062992126
11
0.445
21
0.1381496062992126
0
LINE
8
BLACK
6
CONTINUOUS
10
0.445
20
0.1381496062992126
11
0.445
21
0.2881496062992126
0
LINE
8
BLACK
6
CONTINUOUS
10
0.445
20
0.2881496062992126
11
0.595
21
0.2881496062992126
0
LINE
8
BLACK
6
CONTINUOUS
10
0.595
20
0.2881496062992126
11
0.595
21
0.1381496062992126
0
LINE
8
BLACK
6
CONTINUOUS
10
0.595
20
0.335
11
0.445
21
0.335
0
LINE
8
BLACK
6
CONTINUOUS
10
0.445
20
0.335
11
0.445
21
0.485
0
LINE
8
BLACK
6
CONTINUOUS
10
0.445
20
0.485
11
0.595
21
0.485
0
LINE
8
BLACK
6
CONTINUOUS
10
0.595
20
0.485
11
0.595
21
0.335
0
LINE
8
BLACK
6
CONTINUOUS
10
0.7949999999999999
20
0.1381496062992126
11
0.645
21
0.1381496062992126
0
LINE
8
BLACK
6
CONTINUOUS
10
0.645
20
0.1381496062992126
11
0.645
21
0.2881496062992126
0
LINE
8
BLACK
6
CONTINUOUS
10
0.645
20
0.2881496062992126
11
0.7949999999999999
21
0.2881496062992126
0
LINE
8
BLACK
6
CONTINUOUS
10
0.7949999999999999
20
0.2881496062992126
11
0.7949999999999999
21
0.1381496062992126
0
LINE
8
BLACK
6
CONTINUOUS
10
0.7949999999999999
20
0.335
11
0.645
21
0.335
0
LINE
8
BLACK
6
CONTINUOUS
10
0.645
20
0.335
11
0.645
21
0.485
0
LINE
8
BLACK
6
CONTINUOUS
10
0.645
20
0.485
11
0.7949999999999999
21
0.485
0
LINE
8
BLACK
6
CONTINUOUS
10
0.7949999999999999
20
0.485
11
0.7949999999999999
21
0.335
0
LINE
8
BLACK
6
CONTINUOUS
10
0.18
20
0.48
11
0.12
21
0.48
0
LINE
8
BLACK
6
CONTINUOUS
10
0.12
20
0.48
11
0.12
21
0.54
0
LINE
8
BLACK
6
CONTINUOUS
10
0.12
20
0.54
11
0.18
21
0.54
0
LINE
8
BLACK
6
CONTINUOUS
10
0.18
20
0.54
11
0.18
21
0.48
0
LINE
8
BLACK
6
CONTINUOUS
10
0.28
20
0.48
11
0.22
21
0.48
0
LINE
8
BLACK
6
CONTINUOUS
10
0.22
20
0.48
11
0.22
21
0.54
0
LINE
8
BLACK
6
CONTINUOUS
10
0.22
20
0.54
11
0.28
21
0.54
0
LINE
8
BLACK
6
CONTINUOUS
10
0.28
20
0.54
11
0.28
21
0.48
0
LINE
8
BLACK
6
CONTINUOUS
10
0.6272697637795276
20
0.9284185433070866
11
0.6314600787401574
21
0.9257256299212598
0
LINE
8
BLACK
6
CONTINUOUS
10
0.6314600787401574
20
0.9257256299212598
11
0.6347219291338583
21
0.9219612204724409
0
LINE
8
BLACK
6
CONTINUOUS
10
0.6347219291338583
20
0.9219612204724409
11
0.6363457874015748
21
0.9184055118110236
0
LINE
8
BLACK
6
CONTINUOUS
10
0.6363457874015748
20
0.9184055118110236
11
0.7493110236220473
21
0.9184055118110236
0
LINE
8
BLACK
6
CONTINUOUS
10
0.7493110236220473
20
0.9184055118110236
11
0.7500620078740158
21
0.9182042913385826
0
LINE
8
BLACK
6
CONTINUOUS
10
0.7500620078740158
20
0.9182042913385826
11
0.7508394881889764
21
0.9182042913385826
0
LINE
8
BLACK
6
CONTINUOUS
10
0.7508394881889764
20
0.9182042913385826
11
0.7515127952755906
21
0.9178155511811024
0
LINE
8
BLACK
6
CONTINUOUS
10
0.7515127952755906
20
0.9178155511811024
11
0.7522637795275591
21
0.9176143307086614
0
LINE
8
BLACK
6
CONTINUOUS
10
0.7522637795275591
20
0.9176143307086614
11
0.7528135433070866
21
0.9170645275590551
0
LINE
8
BLACK
6
CONTINUOUS
10
0.7528135433070866
20
0.9170645275590551
11
0.7534868503937008
21
0.9166758267716535
0
LINE
8
BLACK
6
CONTINUOUS
10
0.7534868503937008
20
0.9166758267716535
11
0.7941758267716535
21
0.8759868503937007
0
LINE
8
BLACK
6
CONTINUOUS
10
0.7941758267716535
20
0.8759868503937007
11
0.794564527559055
21
0.8753135433070866
0
LINE
8
BLACK
6
CONTINUOUS
10
0.794564527559055
20
0.8753135433070866
11
0.7951143307086614
21
0.874763779527559
0
LINE
8
BLACK
6
CONTINUOUS
10
0.7951143307086614
20
0.874763779527559
11
0.7953155511811023
21
0.8740127952755905
0
LINE
8
BLACK
6
CONTINUOUS
10
0.7953155511811023
20
0.8740127952755905
11
0.7957042913385827
21
0.8733394881889763
0
LINE
8
BLACK
6
CONTINUOUS
10
0.7957042913385827
20
0.8733394881889763
11
0.7957042913385827
21
0.872561968503937
0
LINE
8
BLACK
6
CONTINUOUS
10
0.7957042913385827
20
0.872561968503937
11
0.7959055118110236
21
0.8718110236220472
0
LINE
8
BLACK
6
CONTINUOUS
10
0.7959055118110236
20
0.8718110236220472
11
0.7959055118110236
21
0.86
0
LINE
8
BLACK
6
CONTINUOUS
10
0.7959055118110236
20
0.86
11
0.82
21
0.86
0
LINE
8
BLACK
6
CONTINUOUS
10
0.82
20
0.86
11
0.82
21
0.7999999999999999
0
LINE
8
BLACK
6
CONTINUOUS
10
0.82
20
0.7999999999999999
11
0.76
21
0.7999999999999999
0
LINE
8
BLACK
6
CONTINUOUS
10
0.76
20
0.7999999999999999
11
0.76
21
0.86
0
LINE
8
BLACK
6
CONTINUOUS
10
0.76
20
0.86
11
0.7840944881889763
21
0.86
0
LINE
8
BLACK
6
CONTINUOUS
10
0.7840944881889763
20
0.86
11
0.7840944881889763
21
0.8693648818897638
0
LINE
8
BLACK
6
CONTINUOUS
10
0.7840944881889763
20
0.8693648818897638
11
0.7468648818897637
21
0.9065944881889764
0
LINE
8
BLACK
6
CONTINUOUS
10
0.7468648818897637
20
0.9065944881889764
11
0.6363457874015748
21
0.9065944881889764
0
LINE
8
BLACK
6
CONTINUOUS
10
0.6363457874015748
20
0.9065944881889764
11
0.6347219291338583
21
0.9030387795275591
0
LINE
8
BLACK
6
CONTINUOUS
10
0.6347219291338583
20
0.9030387795275591
11
0.6314600787401574
21
0.8992743700787401
0
LINE
8
BLACK
6
CONTINUOUS
10
0.6314600787401574
20
0.8992743700787401
11
0.6272697637795276
21
0.8965814566929133
0
LINE
8
BLACK
6
CONTINUOUS
10
0.6272697637795276
20
0.8965814566929133
11
0.6224905118110237
21
0.8951781102362204
0
LINE
8
BLACK
6
CONTINUOUS
10
0.6224905118110237
20
0.8951781102362204
11
0.6175094881889763
21
0.8951781102362204
0
LINE
8
BLACK
6
CONTINUOUS
10
0.6175094881889763
20
0.8951781102362204
11
0.6127302362204724
21
0.8965814566929133
0
LINE
8
BLACK
6
CONTINUOUS
10
0.6127302362204724
20
0.8965814566929133
11
0.6085399212598425
21
0.8992743700787401
0
LINE
8
BLACK
6
CONTINUOUS
10
0.6085399212598425
20
0.8992743700787401
11
0.6052780708661417
21
0.9030387795275591
0
LINE
8
BLACK
6
CONTINUOUS
10
0.6052780708661417
20
0.9030387795275591
11
0.6032088582677165
21
0.9075696850393701
0
LINE
8
BLACK
6
CONTINUOUS
10
0.6032088582677165
20
0.9075696850393701
11
0.6025
21
0.9125
0
LINE
8
BLACK
6
CONTINUOUS
10
0.6025
20
0.9125
11
0.6032088582677165
21
0.9174303149606299
0
LINE
8
BLACK
6
CONTINUOUS
10
0.6032088582677165
20
0.9174303149606299
11
0.6052780708661417
21
0.9219612204724409
0
LINE
8
BLACK
6
CONTINUOUS
10
0.6052780708661417
20
0.9219612204724409
11
0.6085399212598425
21
0.9257256299212598
0
LINE
8
BLACK
6
CONTINUOUS
10
0.6085399212598425
20
0.9257256299212598
11
0.6127302362204724
21
0.9284185433070866
0
LINE
8
BLACK
6
CONTINUOUS
10
0.6127302362204724
20
0.9284185433070866
11
0.6175094881889763
21
0.9298218897637796
0
LINE
8
BLACK
6
CONTINUOUS
10
0.6175094881889763
20
0.9298218897637796
11
0.6224905118110237
21
0.9298218897637796
0
LINE
8
BLACK
6
CONTINUOUS
10
0.6224905118110237
20
0.9298218897637796
11
0.6272697637795276
21
0.9284185433070866
0
LINE
8
BLACK
6
CONTINUOUS
10
0.1825
20
1.0828740157480314
11
0.198248031496063
21
1.0828740157480314
0
LINE
8
BLACK
6
CONTINUOUS
10
0.198248031496063
20
1.0828740157480314
11
0.1995359448818897
21
1.0825800393700786
0
LINE
8
BLACK
6
CONTINUOUS
10
0.1995359448818897
20
1.0825800393700786
11
0.2008486614173228
21
1.0824321653543307
0
LINE
8
BLACK
6
CONTINUOUS
10
0.2008486614173228
20
1.0824321653543307
11
0.2012278346456693
21
1.0821938976377952
0
LINE
8
BLACK
6
CONTINUOUS
10
0.2012278346456693
20
1.0821938976377952
11
0.2016644488188976
21
1.082094251968504
0
LINE
8
BLACK
6
CONTINUOUS
10
0.2016644488188976
20
1.082094251968504
11
0.2026973228346457
21
1.0812705118110235
0
LINE
8
BLACK
6
CONTINUOUS
10
0.2026973228346457
20
1.0812705118110235
11
0.2038157874015748
21
1.0805677559055118
0
LINE
8
BLACK
6
CONTINUOUS
10
0.2038157874015748
20
1.0805677559055118
11
0.2322576377952756
21
1.0521259448818898
0
LINE
8
BLACK
6
CONTINUOUS
10
0.2322576377952756
20
1.0521259448818898
11
0.3344695275590551
21
1.0521259448818898
0
LINE
8
BLACK
6
CONTINUOUS
10
0.3344695275590551
20
1.0521259448818898
11
0.7054958661417323
21
1.0521259448818898
0
LINE
8
BLACK
6
CONTINUOUS
10
0.7054958661417323
20
1.0521259448818898
11
0.706783779527559
21
1.051831968503937
0
LINE
8
BLACK
6
CONTINUOUS
10
0.706783779527559
20
1.051831968503937
11
0.7080964960629921
21
1.0516840944881889
0
LINE
8
BLACK
6
CONTINUOUS
10
0.7080964960629921
20
1.0516840944881889
11
0.7084756692913385
21
1.0514458267716535
0
LINE
8
BLACK
6
CONTINUOUS
10
0.7084756692913385
20
1.0514458267716535
11
0.7089122834645669
21
1.0513461811023621
0
LINE
8
BLACK
6
CONTINUOUS
10
0.7089122834645669
20
1.0513461811023621
11
0.7099451574803149
21
1.0505224409448819
0
LINE
8
BLACK
6
CONTINUOUS
10
0.7099451574803149
20
1.0505224409448819
11
0.711063622047244
21
1.04981968503937
0
LINE
8
BLACK
6
CONTINUOUS
10
0.711063622047244
20
1.04981968503937
11
0.7978870866141732
21
0.9629962204724409
0
LINE
8
BLACK
6
CONTINUOUS
10
0.7978870866141732
20
0.9629962204724409
11
0.8007440551181102
21
0.9638351181102361
0
LINE
8
BLACK
6
CONTINUOUS
10
0.8007440551181102
20
0.9638351181102361
11
0.8057250787401574
21
0.9638351181102361
0
LINE
8
BLACK
6
CONTINUOUS
10
0.8057250787401574
20
0.9638351181102361
11
0.8105043307086613
21
0.9624317716535433
0
LINE
8
BLACK
6
CONTINUOUS
10
0.8105043307086613
20
0.9624317716535433
11
0.8146946456692913
21
0.9597388582677165
0
LINE
8
BLACK
6
CONTINUOUS
10
0.8146946456692913
20
0.9597388582677165
11
0.8179564960629921
21
0.9559744488188976
0
LINE
8
BLACK
6
CONTINUOUS
10
0.8179564960629921
20
0.9559744488188976
11
0.8200257086614173
21
0.9514435433070866
0
LINE
8
BLACK
6
CONTINUOUS
10
0.8200257086614173
20
0.9514435433070866
11
0.8207345669291338
21
0.9465132283464567
0
LINE
8
BLACK
6
CONTINUOUS
10
0.8207345669291338
20
0.9465132283464567
11
0.8200257086614173
21
0.9415829133858268
0
LINE
8
BLACK
6
CONTINUOUS
10
0.8200257086614173
20
0.9415829133858268
11
0.8179564960629921
21
0.9370520078740158
0
LINE
8
BLACK
6
CONTINUOUS
10
0.8179564960629921
20
0.9370520078740158
11
0.8146946456692913
21
0.9332875984251968
0
LINE
8
BLACK
6
CONTINUOUS
10
0.8146946456692913
20
0.9332875984251968
11
0.8105043307086613
21
0.93059468503937
0
LINE
8
BLACK
6
CONTINUOUS
10
0.8105043307086613
20
0.93059468503937
11
0.8057250787401574
21
0.9291913385826771
0
LINE
8
BLACK
6
CONTINUOUS
10
0.8057250787401574
20
0.9291913385826771
11
0.8007440551181102
21
0.9291913385826771
0
LINE
8
BLACK
6
CONTINUOUS
10
0.8007440551181102
20
0.9291913385826771
11
0.7959648031496063
21
0.93059468503937
0
LINE
8
BLACK
6
CONTINUOUS
10
0.7959648031496063
20
0.93059468503937
11
0.7917744881889763
21
0.9332875984251968
0
LINE
8
BLACK
6
CONTINUOUS
10
0.7917744881889763
20
0.9332875984251968
11
0.7885126377952756
21
0.9370520078740158
0
LINE
8
BLACK
6
CONTINUOUS
10
0.7885126377952756
20
0.9370520078740158
11
0.7864434251968504
21
0.9415829133858268
0
LINE
8
BLACK
6
CONTINUOUS
10
0.7864434251968504
20
0.9415829133858268
11
0.7857345669291338
21
0.9465132283464567
0
LINE
8
BLACK
6
CONTINUOUS
10
0.7857345669291338
20
0.9465132283464567
11
0.7864434251968504
21
0.9514435433070866
0
LINE
8
BLACK
6
CONTINUOUS
10
0.7864434251968504
20
0.9514435433070866
11
0.7866707874015748
21
0.9519414173228347
0
LINE
8
BLACK
6
CONTINUOUS
10
0.7866707874015748
20
0.9519414173228347
11
0.7022343700787401
21
1.0363779133858269
0
LINE
8
BLACK
6
CONTINUOUS
10
0.7022343700787401
20
1.0363779133858269
11
0.3344695275590551
21
1.0363779133858269
0
LINE
8
BLACK
6
CONTINUOUS
10
0.3344695275590551
20
1.0363779133858269
11
0.2289961023622047
21
1.0363779133858269
0
LINE
8
BLACK
6
CONTINUOUS
10
0.2289961023622047
20
1.0363779133858269
11
0.2277081496062992
21
1.0366718503937007
0
LINE
8
BLACK
6
CONTINUOUS
10
0.2277081496062992
20
1.0366718503937007
11
0.2263954724409449
21
1.0368197637795276
0
LINE
8
BLACK
6
CONTINUOUS
10
0.2263954724409449
20
1.0368197637795276
11
0.2260162598425197
21
1.0370579921259842
0
LINE
8
BLACK
6
CONTINUOUS
10
0.2260162598425197
20
1.0370579921259842
11
0.2255796850393701
21
1.0371576771653543
0
LINE
8
BLACK
6
CONTINUOUS
10
0.2255796850393701
20
1.0371576771653543
11
0.2245468503937008
21
1.0379812992125983
0
LINE
8
BLACK
6
CONTINUOUS
10
0.2245468503937008
20
1.0379812992125983
11
0.2234283070866142
21
1.0386841732283465
0
LINE
8
BLACK
6
CONTINUOUS
10
0.2234283070866142
20
1.0386841732283465
11
0.1949865354330709
21
1.0671259842519685
0
LINE
8
BLACK
6
CONTINUOUS
10
0.1949865354330709
20
1.0671259842519685
11
0.1825
21
1.0671259842519685
0
LINE
8
BLACK
6
CONTINUOUS
10
0.1825
20
1.0671259842519685
11
0.1825
21
1.0449999999999999
0
LINE
8
BLACK
6
CONTINUOUS
10
0.1825
20
1.0449999999999999
11
0.1225
21
1.0449999999999999
0
LINE
8
BLACK
6
CONTINUOUS
10
0.1225
20
1.0449999999999999
11
0.1225
21
1.105
0
LINE
8
BLACK
6
CONTINUOUS
10
0.1225
20
1.105
11
0.1825
21
1.105
0
LINE
8
BLACK
6
CONTINUOUS
10
0.1825
20
1.105
11
0.1825
21
1.0828740157480314
0
LINE
8
BLACK
6
CONTINUOUS
10
0.1825
20
0.945
11
0.1225
21
0.945
0
LINE
8
BLACK
6
CONTINUOUS
10
0.1225
20
0.945
11
0.1225
21
1.0049999999999999
0
LINE
8
BLACK
6
CONTINUOUS
10
0.1225
20
1.0049999999999999
11
0.1825
21
1.0049999999999999
0
LINE
8
BLACK
6
CONTINUOUS
10
0.1825
20
1.0049999999999999
11
0.1825
21
0.945
0
LINE
8
BLACK
6
CONTINUOUS
10
0.9387824409448818
20
1.1094838582677164
11
0.9395599212598424
21
1.1094838582677164
0
LINE
8
BLACK
6
CONTINUOUS
10
0.9395599212598424
20
1.1094838582677164
11
0.9402332283464566
21
1.1090951181102362
0
LINE
8
BLACK
6
CONTINUOUS
10
0.9402332283464566
20
1.1090951181102362
11
0.9409842125984251
21
1.1088938976377953
0
LINE
8
BLACK
6
CONTINUOUS
10
0.9409842125984251
20
1.1088938976377953
11
0.9415339763779528
21
1.108344094488189
0
LINE
8
BLACK
6
CONTINUOUS
10
0.9415339763779528
20
1.108344094488189
11
0.9422072834645669
21
1.1079553937007873
0
LINE
8
BLACK
6
CONTINUOUS
10
0.9422072834645669
20
1.1079553937007873
11
0.9441758267716536
21
1.1059868503937007
0
LINE
8
BLACK
6
CONTINUOUS
10
0.9441758267716536
20
1.1059868503937007
11
0.9445645275590551
21
1.1053135433070866
0
LINE
8
BLACK
6
CONTINUOUS
10
0.9445645275590551
20
1.1053135433070866
11
0.9451143307086614
21
1.1047637795275591
0
LINE
8
BLACK
6
CONTINUOUS
10
0.9451143307086614
20
1.1047637795275591
11
0.9453155511811023
21
1.1040127952755905
0
LINE
8
BLACK
6
CONTINUOUS
10
0.9453155511811023
20
1.1040127952755905
11
0.9457042913385827
21
1.1033394881889764
0
LINE
8
BLACK
6
CONTINUOUS
10
0.9457042913385827
20
1.1033394881889764
11
0.9457042913385827
21
1.102561968503937
0
LINE
8
BLACK
6
CONTINUOUS
10
0.9457042913385827
20
1.102561968503937
11
0.9459055118110236
21
1.1018110236220473
0
LINE
8
BLACK
6
CONTINUOUS
10
0.9459055118110236
20
1.1018110236220473
11
0.9459055118110236
21
1.0900000000000001
0
LINE
8
BLACK
6
CONTINUOUS
10
0.9459055118110236
20
1.0900000000000001
11
0.97
21
1.0900000000000001
0
LINE
8
BLACK
6
CONTINUOUS
10
0.97
20
1.0900000000000001
11
0.97
21
1.03
0
LINE
8
BLACK
6
CONTINUOUS
10
0.97
20
1.03
11
0.91
21
1.03
0
LINE
8
BLACK
6
CONTINUOUS
10
0.91
20
1.03
11
0.91
21
1.0900000000000001
0
LINE
8
BLACK
6
CONTINUOUS
10
0.91
20
1.0900000000000001
11
0.9340944881889763
21
1.0900000000000001
0
LINE
8
BLACK
6
CONTINUOUS
10
0.9340944881889763
20
1.0900000000000001
11
0.9340944881889763
21
1.0978740551181103
0
LINE
8
BLACK
6
CONTINUOUS
10
0.9340944881889763
20
1.0978740551181103
11
0.7112257086614173
21
1.0978740551181103
0
LINE
8
BLACK
6
CONTINUOUS
10
0.7112257086614173
20
1.0978740551181103
11
0.7106909448818898
21
1.0973392913385827
0
LINE
8
BLACK
6
CONTINUOUS
10
0.7106909448818898
20
1.0973392913385827
11
0.7117911417322834
21
1.09493031496063
0
LINE
8
BLACK
6
CONTINUOUS
10
0.7117911417322834
20
1.09493031496063
11
0.7125
21
1.0900000000000001
0
LINE
8
BLACK
6
CONTINUOUS
10
0.7125
20
1.0900000000000001
11
0.7117911417322834
21
1.08506968503937
0
LINE
8
BLACK
6
CONTINUOUS
10
0.7117911417322834
20
1.08506968503937
11
0.7097219291338582
21
1.0805387795275589
0
LINE
8
BLACK
6
CONTINUOUS
10
0.7097219291338582
20
1.0805387795275589
11
0.7064600787401575
21
1.0767743700787402
0
LINE
8
BLACK
6
CONTINUOUS
10
0.7064600787401575
20
1.0767743700787402
11
0.7022697637795275
21
1.0740814566929133
0
LINE
8
BLACK
6
CONTINUOUS
10
0.7022697637795275
20
1.0740814566929133
11
0.6974905118110236
21
1.0726781102362204
0
LINE
8
BLACK
6
CONTINUOUS
10
0.6974905118110236
20
1.0726781102362204
11
0.6925094881889764
21
1.0726781102362204
0
LINE
8
BLACK
6
CONTINUOUS
10
0.6925094881889764
20
1.0726781102362204
11
0.6877302362204725
21
1.0740814566929133
0
LINE
8
BLACK
6
CONTINUOUS
10
0.6877302362204725
20
1.0740814566929133
11
0.6835399212598425
21
1.0767743700787402
0
LINE
8
BLACK
6
CONTINUOUS
10
0.6835399212598425
20
1.0767743700787402
11
0.6802780708661417
21
1.0805387795275589
0
LINE
8
BLACK
6
CONTINUOUS
10
0.6802780708661417
20
1.0805387795275589
11
0.6782088582677165
21
1.08506968503937
0
LINE
8
BLACK
6
CONTINUOUS
10
0.6782088582677165
20
1.08506968503937
11
0.6775
21
1.0900000000000001
0
LINE
8
BLACK
6
CONTINUOUS
10
0.6775
20
1.0900000000000001
11
0.6782088582677165
21
1.09493031496063
0
LINE
8
BLACK
6
CONTINUOUS
10
0.6782088582677165
20
1.09493031496063
11
0.6802780708661417
21
1.099461220472441
0
LINE
8
BLACK
6
CONTINUOUS
10
0.6802780708661417
20
1.099461220472441
11
0.6835399212598425
21
1.1032256299212597
0
LINE
8
BLACK
6
CONTINUOUS
10
0.6835399212598425
20
1.1032256299212597
11
0.6877302362204725
21
1.1059185433070866
0
LINE
8
BLACK
6
CONTINUOUS
10
0.6877302362204725
20
1.1059185433070866
11
0.6925094881889764
21
1.1073218897637795
0
LINE
8
BLACK
6
CONTINUOUS
10
0.6925094881889764
20
1.1073218897637795
11
0.6974905118110236
21
1.1073218897637795
0
LINE
8
BLACK
6
CONTINUOUS
10
0.6974905118110236
20
1.1073218897637795
11
0.7022697637795275
21
1.1059185433070866
0
LINE
8
BLACK
6
CONTINUOUS
10
0.7022697637795275
20
1.1059185433070866
11
0.7024506299212598
21
1.1058022834645669
0
LINE
8
BLACK
6
CONTINUOUS
10
0.7024506299212598
20
1.1058022834645669
11
0.7046037401574803
21
1.1079553937007873
0
LINE
8
BLACK
6
CONTINUOUS
10
0.7046037401574803
20
1.1079553937007873
11
0.7052770078740157
21
1.108344094488189
0
LINE
8
BLACK
6
CONTINUOUS
10
0.7052770078740157
20
1.108344094488189
11
0.705826811023622
21
1.1088938976377953
0
LINE
8
BLACK
6
CONTINUOUS
10
0.705826811023622
20
1.1088938976377953
11
0.7065777559055118
21
1.1090951181102362
0
LINE
8
BLACK
6
CONTINUOUS
10
0.7065777559055118
20
1.1090951181102362
11
0.7072511023622047
21
1.1094838582677164
0
LINE
8
BLACK
6
CONTINUOUS
10
0.7072511023622047
20
1.1094838582677164
11
0.7080285826771653
21
1.1094838582677164
0
LINE
8
BLACK
6
CONTINUOUS
10
0.7080285826771653
20
1.1094838582677164
11
0.7087795669291338
21
1.1096850787401575
0
LINE
8
BLACK
6
CONTINUOUS
10
0.7087795669291338
20
1.1096850787401575
11
0.9380314566929133
21
1.1096850787401575
0
LINE
8
BLACK
6
CONTINUOUS
10
0.9380314566929133
20
1.1096850787401575
11
0.9387824409448818
21
1.1094838582677164
0
LINE
8
BLACK
6
CONTINUOUS
10
1.0700000000000001
20
1.03
11
1.01
21
1.03
0
LINE
8
BLACK
6
CONTINUOUS
10
1.01
20
1.03
11
1.01
21
1.0900000000000001
0
LINE
8
BLACK
6
CONTINUOUS
10
1.01
20
1.0900000000000001
11
1.0700000000000001
21
1.0900000000000001
0
LINE
8
BLACK
6
CONTINUOUS
10
1.0700000000000001
20
1.0900000000000001
11
1.0700000000000001
21
1.03
0
LINE
8
BLACK
6
CONTINUOUS
10
0.97
20
1.1299999999999999
11
0.91
21
1.1299999999999999
0
LINE
8
BLACK
6
CONTINUOUS
10
0.91
20
1.1299999999999999
11
0.91
21
1.1899999999999999
0
LINE
8
BLACK
6
CONTINUOUS
10
0.91
20
1.1899999999999999
11
0.97
21
1.1899999999999999
0
LINE
8
BLACK
6
CONTINUOUS
10
0.97
20
1.1899999999999999
11
0.97
21
1.1299999999999999
0
LINE
8
BLACK
6
CONTINUOUS
10
0.63
20
1.3174999999999999
11
0.6098425196850393
21
1.3174999999999999
0
LINE
8
BLACK
6
CONTINUOUS
10
0.6098425196850393
20
1.3174999999999999
11
0.6098425196850393
21
1.3018918503937007
0
LINE
8
BLACK
6
CONTINUOUS
10
0.6098425196850393
20
1.3018918503937007
11
0.6529926771653544
21
1.2587416535433071
0
LINE
8
BLACK
6
CONTINUOUS
10
0.6529926771653544
20
1.2587416535433071
11
0.6529928346456693
21
1.2587415748031496
0
LINE
8
BLACK
6
CONTINUOUS
10
0.6529928346456693
20
1.2587415748031496
11
0.6768918503937008
21
1.2348425196850394
0
LINE
8
BLACK
6
CONTINUOUS
10
0.6768918503937008
20
1.2348425196850394
11
1.0246850393700788
21
1.2348425196850394
0
LINE
8
BLACK
6
CONTINUOUS
10
1.0246850393700788
20
1.2348425196850394
11
1.0284516141732283
21
1.2340933070866142
0
LINE
8
BLACK
6
CONTINUOUS
10
1.0284516141732283
20
1.2340933070866142
11
1.0316447637795276
21
1.2319597244094489
0
LINE
8
BLACK
6
CONTINUOUS
10
1.0316447637795276
20
1.2319597244094489
11
1.0469597244094488
21
1.2166447637795275
0
LINE
8
BLACK
6
CONTINUOUS
10
1.0469597244094488
20
1.2166447637795275
11
1.0490933070866142
21
1.2134516141732283
0
LINE
8
BLACK
6
CONTINUOUS
10
1.0490933070866142
20
1.2134516141732283
11
1.0498425196850394
21
1.2096850393700787
0
LINE
8
BLACK
6
CONTINUOUS
10
1.0498425196850394
20
1.2096850393700787
11
1.0498425196850394
21
1.1899999999999999
0
LINE
8
BLACK
6
CONTINUOUS
10
1.0498425196850394
20
1.1899999999999999
11
1.0700000000000001
21
1.1899999999999999
0
LINE
8
BLACK
6
CONTINUOUS
10
1.0700000000000001
20
1.1899999999999999
11
1.0700000000000001
21
1.1299999999999999
0
LINE
8
BLACK
6
CONTINUOUS
10
1.0700000000000001
20
1.1299999999999999
11
1.01
21
1.1299999999999999
0
LINE
8
BLACK
6
CONTINUOUS
10
1.01
20
1.1299999999999999
11
1.01
21
1.1899999999999999
0
LINE
8
BLACK
6
CONTINUOUS
10
1.01
20
1.1899999999999999
11
1.0301574803149607
21
1.1899999999999999
0
LINE
8
BLACK
6
CONTINUOUS
10
1.0301574803149607
20
1.1899999999999999
11
1.0301574803149607
21
1.2056081102362204
0
LINE
8
BLACK
6
CONTINUOUS
10
1.0301574803149607
20
1.2056081102362204
11
1.0206081102362206
21
1.2151574803149605
0
LINE
8
BLACK
6
CONTINUOUS
10
1.0206081102362206
20
1.2151574803149605
11
0.672815157480315
21
1.2151574803149605
0
LINE
8
BLACK
6
CONTINUOUS
10
0.672815157480315
20
1.2151574803149605
11
0.6728149606299213
21
1.2151574409448818
0
LINE
8
BLACK
6
CONTINUOUS
10
0.6728149606299213
20
1.2151574409448818
11
0.6696733070866142
21
1.2157823622047244
0
LINE
8
BLACK
6
CONTINUOUS
10
0.6696733070866142
20
1.2157823622047244
11
0.6690483858267716
21
1.2159066929133857
0
LINE
8
BLACK
6
CONTINUOUS
10
0.6690483858267716
20
1.2159066929133857
11
0.6658552362204724
21
1.2180402755905511
0
LINE
8
BLACK
6
CONTINUOUS
10
0.6658552362204724
20
1.2180402755905511
11
0.6658551181102362
21
1.2180403937007873
0
LINE
8
BLACK
6
CONTINUOUS
10
0.6658551181102362
20
1.2180403937007873
11
0.6390733858267716
21
1.244822125984252
0
LINE
8
BLACK
6
CONTINUOUS
10
0.6390733858267716
20
1.244822125984252
11
0.6390732677165354
21
1.2448222440944881
0
LINE
8
BLACK
6
CONTINUOUS
10
0.6390732677165354
20
1.2448222440944881
11
0.6
21
1.2838955118110236
0
LINE
8
BLACK
6
CONTINUOUS
10
0.6
20
1.2838955118110236
11
0.5418218897637795
21
1.2257174015748031
0
LINE
8
BLACK
6
CONTINUOUS
10
0.5418218897637795
20
1.2257174015748031
11
0.5386287401574803
21
1.2235838188976378
0
LINE
8
BLACK
6
CONTINUOUS
10
0.5386287401574803
20
1.2235838188976378
11
0.5348621653543307
21
1.2228346062992126
0
LINE
8
BLACK
6
CONTINUOUS
10
0.5348621653543307
20
1.2228346062992126
11
0.4944175984251968
21
1.2228346062992126
0
LINE
8
BLACK
6
CONTINUOUS
10
0.4944175984251968
20
1.2228346062992126
11
0.3198058661417323
21
1.2228346062992126
0
LINE
8
BLACK
6
CONTINUOUS
10
0.3198058661417323
20
1.2228346062992126
11
0.3168744094488189
21
1.2194514960629921
0
LINE
8
BLACK
6
CONTINUOUS
10
0.3168744094488189
20
1.2194514960629921
11
0.312684094488189
21
1.2167585826771654
0
LINE
8
BLACK
6
CONTINUOUS
10
0.312684094488189
20
1.2167585826771654
11
0.307904842519685
21
1.2153552362204725
0
LINE
8
BLACK
6
CONTINUOUS
10
0.307904842519685
20
1.2153552362204725
11
0.3029238188976378
21
1.2153552362204725
0
LINE
8
BLACK
6
CONTINUOUS
10
0.3029238188976378
20
1.2153552362204725
11
0.2981445669291338
21
1.2167585826771654
0
LINE
8
BLACK
6
CONTINUOUS
10
0.2981445669291338
20
1.2167585826771654
11
0.2939542519685039
21
1.2194514960629921
0
LINE
8
BLACK
6
CONTINUOUS
10
0.2939542519685039
20
1.2194514960629921
11
0.2906924015748031
21
1.223215905511811
0
LINE
8
BLACK
6
CONTINUOUS
10
0.2906924015748031
20
1.223215905511811
11
0.288623188976378
21
1.227746811023622
0
LINE
8
BLACK
6
CONTINUOUS
10
0.288623188976378
20
1.227746811023622
11
0.2879143307086614
21
1.2326771259842519
0
LINE
8
BLACK
6
CONTINUOUS
10
0.2879143307086614
20
1.2326771259842519
11
0.288623188976378
21
1.2376074409448818
0
LINE
8
BLACK
6
CONTINUOUS
10
0.288623188976378
20
1.2376074409448818
11
0.2906924015748031
21
1.2421383464566929
0
LINE
8
BLACK
6
CONTINUOUS
10
0.2906924015748031
20
1.2421383464566929
11
0.2939542519685039
21
1.2459027559055118
0
LINE
8
BLACK
6
CONTINUOUS
10
0.2939542519685039
20
1.2459027559055118
11
0.2981445669291338
21
1.2485956692913385
0
LINE
8
BLACK
6
CONTINUOUS
10
0.2981445669291338
20
1.2485956692913385
11
0.3029238188976378
21
1.2499990157480314
0
LINE
8
BLACK
6
CONTINUOUS
10
0.3029238188976378
20
1.2499990157480314
11
0.307904842519685
21
1.2499990157480314
0
LINE
8
BLACK
6
CONTINUOUS
10
0.307904842519685
20
1.2499990157480314
11
0.312684094488189
21
1.2485956692913385
0
LINE
8
BLACK
6
CONTINUOUS
10
0.312684094488189
20
1.2485956692913385
11
0.3168744094488189
21
1.2459027559055118
0
LINE
8
BLACK
6
CONTINUOUS
10
0.3168744094488189
20
1.2459027559055118
11
0.3198058661417323
21
1.2425196456692913
0
LINE
8
BLACK
6
CONTINUOUS
10
0.3198058661417323
20
1.2425196456692913
11
0.4944175984251968
21
1.2425196456692913
0
LINE
8
BLACK
6
CONTINUOUS
10
0.4944175984251968
20
1.2425196456692913
11
0.5307852362204725
21
1.2425196456692913
0
LINE
8
BLACK
6
CONTINUOUS
10
0.5307852362204725
20
1.2425196456692913
11
0.5901574803149606
21
1.3018918897637795
0
LINE
8
BLACK
6
CONTINUOUS
10
0.5901574803149606
20
1.3018918897637795
11
0.5901574803149606
21
1.3174999999999999
0
LINE
8
BLACK
6
CONTINUOUS
10
0.5901574803149606
20
1.3174999999999999
11
0.57
21
1.3174999999999999
0
LINE
8
BLACK
6
CONTINUOUS
10
0.57
20
1.3174999999999999
11
0.57
21
1.3774999999999999
0
LINE
8
BLACK
6
CONTINUOUS
10
0.57
20
1.3774999999999999
11
0.63
21
1.3774999999999999
0
LINE
8
BLACK
6
CONTINUOUS
10
0.63
20
1.3774999999999999
11
0.63
21
1.3174999999999999
0
LINE
8
BLACK
6
CONTINUOUS
10
0.1825
20
1.145
11
0.1225
21
1.145
0
LINE
8
BLACK
6
CONTINUOUS
10
0.1225
20
1.145
11
0.1225
21
1.2050000000000001
0
LINE
8
BLACK
6
CONTINUOUS
10
0.1225
20
1.2050000000000001
11
0.1825
21
1.2050000000000001
0
LINE
8
BLACK
6
CONTINUOUS
10
0.1825
20
1.2050000000000001
11
0.1825
21
1.145
0
LINE
8
BLACK
6
CONTINUOUS
10
0.53
20
1.3174999999999999
11
0.47
21
1.3174999999999999
0
LINE
8
BLACK
6
CONTINUOUS
10
0.47
20
1.3174999999999999
11
0.47
21
1.3774999999999999
0
LINE
8
BLACK
6
CONTINUOUS
10
0.47
20
1.3774999999999999
11
0.53
21
1.3774999999999999
0
LINE
8
BLACK
6
CONTINUOUS
10
0.53
20
1.3774999999999999
11
0.53
21
1.3174999999999999
0
LINE
8
BLACK
6
CONTINUOUS
10
0.73
20
1.3174999999999999
11
0.67
21
1.3174999999999999
0
LINE
8
BLACK
6
CONTINUOUS
10
0.67
20
1.3174999999999999
11
0.67
21
1.3774999999999999
0
LINE
8
BLACK
6
CONTINUOUS
10
0.67
20
1.3774999999999999
11
0.73
21
1.3774999999999999
0
LINE
8
BLACK
6
CONTINUOUS
10
0.73
20
1.3774999999999999
11
0.73
21
1.3174999999999999
0
LINE
8
BLACK
6
CONTINUOUS
10
0.53
20
1.4175
11
0.47
21
1.4175
0
LINE
8
BLACK
6
CONTINUOUS
10
0.47
20
1.4175
11
0.47
21
1.4775
0
LINE
8
BLACK
6
CONTINUOUS
10
0.47
20
1.4775
11
0.53
21
1.4775
0
LINE
8
BLACK
6
CONTINUOUS
10
0.53
20
1.4775
11
0.53
21
1.4175
0
LINE
8
BLACK
6
CONTINUOUS
10
0.63
20
1.4175
11
0.57
21
1.4175
0
LINE
8
BLACK
6
CONTINUOUS
10
0.57
20
1.4175
11
0.57
21
1.4775
0
LINE
8
BLACK
6
CONTINUOUS
10
0.57
20
1.4775
11
0.63
21
1.4775
0
LINE
8
BLACK
6
CONTINUOUS
10
0.63
20
1.4775
11
0.63
21
1.4175
0
LINE
8
BLACK
6
CONTINUOUS
10
0.73
20
1.4175
11
0.67
21
1.4175
0
LINE
8
BLACK
6
CONTINUOUS
10
0.67
20
1.4175
11
0.67
21
1.4775
0
LINE
8
BLACK
6
CONTINUOUS
10
0.67
20
1.4775
11
0.73
21
1.4775
0
LINE
8
BLACK
6
CONTINUOUS
10
0.73
20
1.4775
11
0.73
21
1.4175
0
LINE
8
BLACK
6
CONTINUOUS
10
1.1857331102362205
20
1.5872243307086613
11
1.1875635433070866
21
1.5851118897637795
0
LINE
8
BLACK
6
CONTINUOUS
10
1.1875635433070866
20
1.5851118897637795
11
1.188011811023622
21
1.5830511811023622
0
LINE
8
BLACK
6
CONTINUOUS
10
1.188011811023622
20
1.5830511811023622
11
1.188011811023622
21
0.0169488188976378
0
LINE
8
BLACK
6
CONTINUOUS
10
1.188011811023622
20
0.0169488188976378
11
1.1872243307086614
21
0.0142668897637795
0
LINE
8
BLACK
6
CONTINUOUS
10
1.1872243307086614
20
0.0142668897637795
11
1.1851118897637796
21
0.0124364566929134
0
LINE
8
BLACK
6
CONTINUOUS
10
1.1851118897637796
20
0.0124364566929134
11
1.1830511811023621
21
0.011988188976378
0
LINE
8
BLACK
6
CONTINUOUS
10
1.1830511811023621
20
0.011988188976378
11
0.0169488188976378
21
0.011988188976378
0
LINE
8
BLACK
6
CONTINUOUS
10
0.0169488188976378
20
0.011988188976378
11
0.0142668897637795
21
0.0127756692913386
0
LINE
8
BLACK
6
CONTINUOUS
10
0.0142668897637795
20
0.0127756692913386
11
0.0124364566929134
21
0.0148881102362205
0
LINE
8
BLACK
6
CONTINUOUS
10
0.0124364566929134
20
0.0148881102362205
11
0.011988188976378
21
0.0169488188976378
0
LINE
8
BLACK
6
CONTINUOUS
10
0.011988188976378
20
0.0169488188976378
11
0.011988188976378
21
0.1362342519685039
0
LINE
8
BLACK
6
CONTINUOUS
10
0.011988188976378
20
0.1362342519685039
11
0.011988188976378
21
0.4780846456692913
0
LINE
8
BLACK
6
CONTINUOUS
10
0.011988188976378
20
0.4780846456692913
11
0.011988188976378
21
0.9430846456692913
0
LINE
8
BLACK
6
CONTINUOUS
10
0.011988188976378
20
0.9430846456692913
11
0.011988188976378
21
1.5830511811023622
0
LINE
8
BLACK
6
CONTINUOUS
10
0.011988188976378
20
1.5830511811023622
11
0.0127756692913386
21
1.5857331102362204
0
LINE
8
BLACK
6
CONTINUOUS
10
0.0127756692913386
20
1.5857331102362204
11
0.0148881102362205
21
1.5875635433070865
0
LINE
8
BLACK
6
CONTINUOUS
10
0.0148881102362205
20
1.5875635433070865
11
0.0169488188976378
21
1.5880118110236221
0
LINE
8
BLACK
6
CONTINUOUS
10
0.0169488188976378
20
1.5880118110236221
11
1.1830511811023621
21
1.5880118110236221
0
LINE
8
BLACK
6
CONTINUOUS
10
1.1830511811023621
20
1.5880118110236221
11
1.1857331102362205
21
1.5872243307086613
0
LINE
8
BLACK
6
CONTINUOUS
10
0.4430848425196851
20
0.5050196456692914
11
0.4430846456692913
21
0.5050196456692914
0
LINE
8
BLACK
6
CONTINUOUS
10
0.4430846456692913
20
0.5050196456692914
11
0.440700905511811
21
0.5047633858267716
0
LINE
8
BLACK
6
CONTINUOUS
10
0.440700905511811
20
0.5047633858267716
11
0.4407005905511811
21
0.5047633070866142
0
LINE
8
BLACK
6
CONTINUOUS
10
0.4407005905511811
20
0.5047633070866142
11
0.437632874015748
21
0.5036190551181102
0
LINE
8
BLACK
6
CONTINUOUS
10
0.437632874015748
20
0.5036190551181102
11
0.4353069291338583
21
0.5027515354330708
0
LINE
8
BLACK
6
CONTINUOUS
10
0.4353069291338583
20
0.5027515354330708
11
0.4353068503937008
21
0.5027514960629921
0
LINE
8
BLACK
6
CONTINUOUS
10
0.4353068503937008
20
0.5027514960629921
11
0.4353067716535433
21
0.5027514566929133
0
LINE
8
BLACK
6
CONTINUOUS
10
0.4353067716535433
20
0.5027514566929133
11
0.4306983464566929
21
0.4993016141732283
0
LINE
8
BLACK
6
CONTINUOUS
10
0.4306983464566929
20
0.4993016141732283
11
0.4272485039370079
21
0.4946931889763779
0
LINE
8
BLACK
6
CONTINUOUS
10
0.4272485039370079
20
0.4946931889763779
11
0.4272484251968504
21
0.4946929921259842
0
LINE
8
BLACK
6
CONTINUOUS
10
0.4272484251968504
20
0.4946929921259842
11
0.4252366535433071
21
0.4892993700787401
0
LINE
8
BLACK
6
CONTINUOUS
10
0.4252366535433071
20
0.4892993700787401
11
0.4252365748031496
21
0.4892990551181102
0
LINE
8
BLACK
6
CONTINUOUS
10
0.4252365748031496
20
0.4892990551181102
11
0.4249803149606299
21
0.4869153149606299
0
LINE
8
BLACK
6
CONTINUOUS
10
0.4249803149606299
20
0.4869153149606299
11
0.4249803149606299
21
0.3330846456692914
0
LINE
8
BLACK
6
CONTINUOUS
10
0.4249803149606299
20
0.3330846456692914
11
0.4252365748031496
21
0.330700905511811
0
LINE
8
BLACK
6
CONTINUOUS
10
0.4252365748031496
20
0.330700905511811
11
0.4252366535433071
21
0.3307005905511811
0
LINE
8
BLACK
6
CONTINUOUS
10
0.4252366535433071
20
0.3307005905511811
11
0.4272484251968504
21
0.325306968503937
0
LINE
8
BLACK
6
CONTINUOUS
10
0.4272484251968504
20
0.325306968503937
11
0.4272485039370079
21
0.3253067716535433
0
LINE
8
BLACK
6
CONTINUOUS
10
0.4272485039370079
20
0.3253067716535433
11
0.4306983464566929
21
0.3206983464566929
0
LINE
8
BLACK
6
CONTINUOUS
10
0.4306983464566929
20
0.3206983464566929
11
0.4353067716535433
21
0.3172485039370079
0
LINE
8
BLACK
6
CONTINUOUS
10
0.4353067716535433
20
0.3172485039370079
11
0.435306968503937
21
0.3172484251968504
0
LINE
8
BLACK
6
CONTINUOUS
10
0.435306968503937
20
0.3172484251968504
11
0.4380572047244095
21
0.3162226377952756
0
LINE
8
BLACK
6
CONTINUOUS
10
0.4380572047244095
20
0.3162226377952756
11
0.440294842519685
21
0.3145475590551181
0
LINE
8
BLACK
6
CONTINUOUS
10
0.440294842519685
20
0.3145475590551181
11
0.4412716141732284
21
0.3119286614173228
0
LINE
8
BLACK
6
CONTINUOUS
10
0.4412716141732284
20
0.3119286614173228
11
0.4406774409448819
21
0.3091974015748031
0
LINE
8
BLACK
6
CONTINUOUS
10
0.4406774409448819
20
0.3091974015748031
11
0.4387009842519685
21
0.3072209448818898
0
LINE
8
BLACK
6
CONTINUOUS
10
0.4387009842519685
20
0.3072209448818898
11
0.4380572047244095
21
0.306926968503937
0
LINE
8
BLACK
6
CONTINUOUS
10
0.4380572047244095
20
0.306926968503937
11
0.4366014173228346
21
0.306383937007874
0
LINE
8
BLACK
6
CONTINUOUS
10
0.4366014173228346
20
0.306383937007874
11
0.4353069291338583
21
0.3059011417322834
0
LINE
8
BLACK
6
CONTINUOUS
10
0.4353069291338583
20
0.3059011417322834
11
0.4353068503937008
21
0.3059011023622047
0
LINE
8
BLACK
6
CONTINUOUS
10
0.4353068503937008
20
0.3059011023622047
11
0.4353067716535433
21
0.305901062992126
0
LINE
8
BLACK
6
CONTINUOUS
10
0.4353067716535433
20
0.305901062992126
11
0.4306983464566929
21
0.3024512204724409
0
LINE
8
BLACK
6
CONTINUOUS
10
0.4306983464566929
20
0.3024512204724409
11
0.4272485039370079
21
0.2978427952755905
0
LINE
8
BLACK
6
CONTINUOUS
10
0.4272485039370079
20
0.2978427952755905
11
0.4272484251968504
21
0.2978425984251968
0
LINE
8
BLACK
6
CONTINUOUS
10
0.4272484251968504
20
0.2978425984251968
11
0.4252366535433071
21
0.2924489763779528
0
LINE
8
BLACK
6
CONTINUOUS
10
0.4252366535433071
20
0.2924489763779528
11
0.4252365748031496
21
0.2924486614173228
0
LINE
8
BLACK
6
CONTINUOUS
10
0.4252365748031496
20
0.2924486614173228
11
0.4249803149606299
21
0.2900649212598425
0
LINE
8
BLACK
6
CONTINUOUS
10
0.4249803149606299
20
0.2900649212598425
11
0.4249803149606299
21
0.1362342519685039
0
LINE
8
BLACK
6
CONTINUOUS
10
0.4249803149606299
20
0.1362342519685039
11
0.4252365748031496
21
0.1338505118110236
0
LINE
8
BLACK
6
CONTINUOUS
10
0.4252365748031496
20
0.1338505118110236
11
0.4252366535433071
21
0.1338501968503937
0
LINE
8
BLACK
6
CONTINUOUS
10
0.4252366535433071
20
0.1338501968503937
11
0.4272484251968504
21
0.1284565748031496
0
LINE
8
BLACK
6
CONTINUOUS
10
0.4272484251968504
20
0.1284565748031496
11
0.4272485039370079
21
0.1284563779527559
0
LINE
8
BLACK
6
CONTINUOUS
10
0.4272485039370079
20
0.1284563779527559
11
0.4306983464566929
21
0.1238479527559055
0
LINE
8
BLACK
6
CONTINUOUS
10
0.4306983464566929
20
0.1238479527559055
11
0.4353067716535433
21
0.1203981102362205
0
LINE
8
BLACK
6
CONTINUOUS
10
0.4353067716535433
20
0.1203981102362205
11
0.435306968503937
21
0.120398031496063
0
LINE
8
BLACK
6
CONTINUOUS
10
0.435306968503937
20
0.120398031496063
11
0.4407005905511811
21
0.1183862598425197
0
LINE
8
BLACK
6
CONTINUOUS
10
0.4407005905511811
20
0.1183862598425197
11
0.440700905511811
21
0.1183861811023622
0
LINE
8
BLACK
6
CONTINUOUS
10
0.440700905511811
20
0.1183861811023622
11
0.4430846456692913
21
0.1181299212598425
0
LINE
8
BLACK
6
CONTINUOUS
10
0.4430846456692913
20
0.1181299212598425
11
0.4430851181102362
21
0.1181299212598425
0
LINE
8
BLACK
6
CONTINUOUS
10
0.4430851181102362
20
0.1181299212598425
11
0.5969153149606299
21
0.1181299212598425
0
LINE
8
BLACK
6
CONTINUOUS
10
0.5969153149606299
20
0.1181299212598425
11
0.5992990551181102
21
0.1183861811023622
0
LINE
8
BLACK
6
CONTINUOUS
10
0.5992990551181102
20
0.1183861811023622
11
0.5992993700787401
21
0.1183862598425197
0
LINE
8
BLACK
6
CONTINUOUS
10
0.5992993700787401
20
0.1183862598425197
11
0.6046929921259843
21
0.120398031496063
0
LINE
8
BLACK
6
CONTINUOUS
10
0.6046929921259843
20
0.120398031496063
11
0.6046931889763779
21
0.1203981102362205
0
LINE
8
BLACK
6
CONTINUOUS
10
0.6046931889763779
20
0.1203981102362205
11
0.6093016141732284
21
0.1238479527559055
0
LINE
8
BLACK
6
CONTINUOUS
10
0.6093016141732284
20
0.1238479527559055
11
0.6127514566929134
21
0.1284563779527559
0
LINE
8
BLACK
6
CONTINUOUS
10
0.6127514566929134
20
0.1284563779527559
11
0.6127515354330708
21
0.1284565748031496
0
LINE
8
BLACK
6
CONTINUOUS
10
0.6127515354330708
20
0.1284565748031496
11
0.6147633070866142
21
0.1338501968503937
0
LINE
8
BLACK
6
CONTINUOUS
10
0.6147633070866142
20
0.1338501968503937
11
0.6147633858267716
21
0.1338505118110236
0
LINE
8
BLACK
6
CONTINUOUS
10
0.6147633858267716
20
0.1338505118110236
11
0.6150196456692913
21
0.1362342519685039
0
LINE
8
BLACK
6
CONTINUOUS
10
0.6150196456692913
20
0.1362342519685039
11
0.6150196850393701
21
0.1362349212598425
0
LINE
8
BLACK
6
CONTINUOUS
10
0.6150196850393701
20
0.1362349212598425
11
0.6150196850393701
21
0.2900642519685039
0
LINE
8
BLACK
6
CONTINUOUS
10
0.6150196850393701
20
0.2900642519685039
11
0.6150196456692913
21
0.2900649212598425
0
LINE
8
BLACK
6
CONTINUOUS
10
0.6150196456692913
20
0.2900649212598425
11
0.6147633858267716
21
0.2924486614173228
0
LINE
8
BLACK
6
CONTINUOUS
10
0.6147633858267716
20
0.2924486614173228
11
0.6147633070866142
21
0.2924489763779528
0
LINE
8
BLACK
6
CONTINUOUS
10
0.6147633070866142
20
0.2924489763779528
11
0.6144866141732284
21
0.293190748031496
0
LINE
8
BLACK
6
CONTINUOUS
10
0.6144866141732284
20
0.293190748031496
11
0.6127515354330708
21
0.2978426771653543
0
LINE
8
BLACK
6
CONTINUOUS
10
0.6127515354330708
20
0.2978426771653543
11
0.6093016141732284
21
0.3024512204724409
0
LINE
8
BLACK
6
CONTINUOUS
10
0.6093016141732284
20
0.3024512204724409
11
0.6046930708661418
21
0.3059011417322834
0
LINE
8
BLACK
6
CONTINUOUS
10
0.6046930708661418
20
0.3059011417322834
11
0.6019426377952756
21
0.306926968503937
0
LINE
8
BLACK
6
CONTINUOUS
10
0.6019426377952756
20
0.306926968503937
11
0.5997051574803149
21
0.3086020078740158
0
LINE
8
BLACK
6
CONTINUOUS
10
0.5997051574803149
20
0.3086020078740158
11
0.5987283464566929
21
0.3112209448818898
0
LINE
8
BLACK
6
CONTINUOUS
10
0.5987283464566929
20
0.3112209448818898
11
0.5993225196850394
21
0.3139522047244094
0
LINE
8
BLACK
6
CONTINUOUS
10
0.5993225196850394
20
0.3139522047244094
11
0.6012989763779527
21
0.3159286614173228
0
LINE
8
BLACK
6
CONTINUOUS
10
0.6012989763779527
20
0.3159286614173228
11
0.6019422834645669
21
0.3162224409448819
0
LINE
8
BLACK
6
CONTINUOUS
10
0.6019422834645669
20
0.3162224409448819
11
0.6046930708661418
21
0.3172484645669291
0
LINE
8
BLACK
6
CONTINUOUS
10
0.6046930708661418
20
0.3172484645669291
11
0.6046931102362204
21
0.3172485039370079
0
LINE
8
BLACK
6
CONTINUOUS
10
0.6046931102362204
20
0.3172485039370079
11
0.6046932283464567
21
0.3172485433070866
0
LINE
8
BLACK
6
CONTINUOUS
10
0.6046932283464567
20
0.3172485433070866
11
0.6093016141732284
21
0.3206983464566929
0
LINE
8
BLACK
6
CONTINUOUS
10
0.6093016141732284
20
0.3206983464566929
11
0.6127514566929134
21
0.3253067716535433
0
LINE
8
BLACK
6
CONTINUOUS
10
0.6127514566929134
20
0.3253067716535433
11
0.6127515354330708
21
0.325306968503937
0
LINE
8
BLACK
6
CONTINUOUS
10
0.6127515354330708
20
0.325306968503937
11
0.6147633070866142
21
0.3307005905511811
0
LINE
8
BLACK
6
CONTINUOUS
10
0.6147633070866142
20
0.3307005905511811
11
0.6147633858267716
21
0.330700905511811
0
LINE
8
BLACK
6
CONTINUOUS
10
0.6147633858267716
20
0.330700905511811
11
0.6150196456692913
21
0.3330846456692914
0
LINE
8
BLACK
6
CONTINUOUS
10
0.6150196456692913
20
0.3330846456692914
11
0.6150196850393701
21
0.3330853149606299
0
LINE
8
BLACK
6
CONTINUOUS
10
0.6150196850393701
20
0.3330853149606299
11
0.6150196850393701
21
0.4869146456692913
0
LINE
8
BLACK
6
CONTINUOUS
10
0.6150196850393701
20
0.4869146456692913
11
0.6150196456692913
21
0.4869153149606299
0
LINE
8
BLACK
6
CONTINUOUS
10
0.6150196456692913
20
0.4869153149606299
11
0.6147633858267716
21
0.4892990551181102
0
LINE
8
BLACK
6
CONTINUOUS
10
0.6147633858267716
20
0.4892990551181102
11
0.6147633070866142
21
0.4892993700787401
0
LINE
8
BLACK
6
CONTINUOUS
10
0.6147633070866142
20
0.4892993700787401
11
0.6144866141732284
21
0.4900411417322835
0
LINE
8
BLACK
6
CONTINUOUS
10
0.6144866141732284
20
0.4900411417322835
11
0.6127515354330708
21
0.4946930708661417
0
LINE
8
BLACK
6
CONTINUOUS
10
0.6127515354330708
20
0.4946930708661417
11
0.6093016141732284
21
0.4993016141732283
0
LINE
8
BLACK
6
CONTINUOUS
10
0.6093016141732284
20
0.4993016141732283
11
0.6046930708661418
21
0.5027515354330708
0
LINE
8
BLACK
6
CONTINUOUS
10
0.6046930708661418
20
0.5027515354330708
11
0.599299251968504
21
0.5047633464566929
0
LINE
8
BLACK
6
CONTINUOUS
10
0.599299251968504
20
0.5047633464566929
11
0.5992991732283465
21
0.5047633464566929
0
LINE
8
BLACK
6
CONTINUOUS
10
0.5992991732283465
20
0.5047633464566929
11
0.5992990551181102
21
0.5047633858267716
0
LINE
8
BLACK
6
CONTINUOUS
10
0.5992990551181102
20
0.5047633858267716
11
0.5969153149606299
21
0.5050196456692914
0
LINE
8
BLACK
6
CONTINUOUS
10
0.5969153149606299
20
0.5050196456692914
11
0.596915157480315
21
0.5050196456692914
0
LINE
8
BLACK
6
CONTINUOUS
10
0.596915157480315
20
0.5050196456692914
11
0.5969148818897637
21
0.5050196850393701
0
LINE
8
BLACK
6
CONTINUOUS
10
0.5969148818897637
20
0.5050196850393701
11
0.4430851181102362
21
0.5050196850393701
0
LINE
8
BLACK
6
CONTINUOUS
10
0.4430851181102362
20
0.5050196850393701
11
0.4430848425196851
21
0.5050196456692914
0
LINE
8
BLACK
6
CONTINUOUS
10
0.6252365748031496
20
0.1338505118110236
11
0.625236653543307
21
0.1338501968503937
0
LINE
8
BLACK
6
CONTINUOUS
10
0.625236653543307
20
0.1338501968503937
11
0.6272484251968504
21
0.1284565748031496
0
LINE
8
BLACK
6
CONTINUOUS
10
0.6272484251968504
20
0.1284565748031496
11
0.6272485039370078
21
0.1284563779527559
0
LINE
8
BLACK
6
CONTINUOUS
10
0.6272485039370078
20
0.1284563779527559
11
0.6306983464566929
21
0.1238479527559055
0
LINE
8
BLACK
6
CONTINUOUS
10
0.6306983464566929
20
0.1238479527559055
11
0.6353067716535433
21
0.1203981102362205
0
LINE
8
BLACK
6
CONTINUOUS
10
0.6353067716535433
20
0.1203981102362205
11
0.635306968503937
21
0.120398031496063
0
LINE
8
BLACK
6
CONTINUOUS
10
0.635306968503937
20
0.120398031496063
11
0.6407005905511811
21
0.1183862598425197
0
LINE
8
BLACK
6
CONTINUOUS
10
0.6407005905511811
20
0.1183862598425197
11
0.640700905511811
21
0.1183861811023622
0
LINE
8
BLACK
6
CONTINUOUS
10
0.640700905511811
20
0.1183861811023622
11
0.6430846456692914
21
0.1181299212598425
0
LINE
8
BLACK
6
CONTINUOUS
10
0.6430846456692914
20
0.1181299212598425
11
0.6430851181102362
21
0.1181299212598425
0
LINE
8
BLACK
6
CONTINUOUS
10
0.6430851181102362
20
0.1181299212598425
11
0.79691531496063
21
0.1181299212598425
0
LINE
8
BLACK
6
CONTINUOUS
10
0.79691531496063
20
0.1181299212598425
11
0.7992990551181102
21
0.1183861811023622
0
LINE
8
BLACK
6
CONTINUOUS
10
0.7992990551181102
20
0.1183861811023622
11
0.7992993700787402
21
0.1183862598425197
0
LINE
8
BLACK
6
CONTINUOUS
10
0.7992993700787402
20
0.1183862598425197
11
0.8046929921259842
21
0.120398031496063
0
LINE
8
BLACK
6
CONTINUOUS
10
0.8046929921259842
20
0.120398031496063
11
0.804693188976378
21
0.1203981102362205
0
LINE
8
BLACK
6
CONTINUOUS
10
0.804693188976378
20
0.1203981102362205
11
0.8093016141732283
21
0.1238479527559055
0
LINE
8
BLACK
6
CONTINUOUS
10
0.8093016141732283
20
0.1238479527559055
11
0.8127514566929134
21
0.1284563779527559
0
LINE
8
BLACK
6
CONTINUOUS
10
0.8127514566929134
20
0.1284563779527559
11
0.8127515354330709
21
0.1284565748031496
0
LINE
8
BLACK
6
CONTINUOUS
10
0.8127515354330709
20
0.1284565748031496
11
0.8147633070866142
21
0.1338501968503937
0
LINE
8
BLACK
6
CONTINUOUS
10
0.8147633070866142
20
0.1338501968503937
11
0.8147633858267717
21
0.1338505118110236
0
LINE
8
BLACK
6
CONTINUOUS
10
0.8147633858267717
20
0.1338505118110236
11
0.8150196456692913
21
0.1362342519685039
0
LINE
8
BLACK
6
CONTINUOUS
10
0.8150196456692913
20
0.1362342519685039
11
0.8150196850393701
21
0.1362349212598425
0
LINE
8
BLACK
6
CONTINUOUS
10
0.8150196850393701
20
0.1362349212598425
11
0.8150196850393701
21
0.2900642519685039
0
LINE
8
BLACK
6
CONTINUOUS
10
0.8150196850393701
20
0.2900642519685039
11
0.8150196456692913
21
0.2900649212598425
0
LINE
8
BLACK
6
CONTINUOUS
10
0.8150196456692913
20
0.2900649212598425
11
0.8147633858267717
21
0.2924486614173228
0
LINE
8
BLACK
6
CONTINUOUS
10
0.8147633858267717
20
0.2924486614173228
11
0.8147633070866142
21
0.2924489763779528
0
LINE
8
BLACK
6
CONTINUOUS
10
0.8147633070866142
20
0.2924489763779528
11
0.8144866141732283
21
0.293190748031496
0
LINE
8
BLACK
6
CONTINUOUS
10
0.8144866141732283
20
0.293190748031496
11
0.8127515354330709
21
0.2978426771653543
0
LINE
8
BLACK
6
CONTINUOUS
10
0.8127515354330709
20
0.2978426771653543
11
0.8093016141732283
21
0.3024512204724409
0
LINE
8
BLACK
6
CONTINUOUS
10
0.8093016141732283
20
0.3024512204724409
11
0.8046930708661417
21
0.3059011417322834
0
LINE
8
BLACK
6
CONTINUOUS
10
0.8046930708661417
20
0.3059011417322834
11
0.8019426377952755
21
0.306926968503937
0
LINE
8
BLACK
6
CONTINUOUS
10
0.8019426377952755
20
0.306926968503937
11
0.7997051574803149
21
0.3086020078740158
0
LINE
8
BLACK
6
CONTINUOUS
10
0.7997051574803149
20
0.3086020078740158
11
0.7987283464566929
21
0.3112209448818898
0
LINE
8
BLACK
6
CONTINUOUS
10
0.7987283464566929
20
0.3112209448818898
11
0.7993225196850393
21
0.3139522047244094
0
LINE
8
BLACK
6
CONTINUOUS
10
0.7993225196850393
20
0.3139522047244094
11
0.8012989763779528
21
0.3159286614173228
0
LINE
8
BLACK
6
CONTINUOUS
10
0.8012989763779528
20
0.3159286614173228
11
0.8019422834645669
21
0.3162224409448819
0
LINE
8
BLACK
6
CONTINUOUS
10
0.8019422834645669
20
0.3162224409448819
11
0.8046930708661417
21
0.3172484645669291
0
LINE
8
BLACK
6
CONTINUOUS
10
0.8046930708661417
20
0.3172484645669291
11
0.8046931102362205
21
0.3172485039370079
0
LINE
8
BLACK
6
CONTINUOUS
10
0.8046931102362205
20
0.3172485039370079
11
0.8046932283464566
21
0.3172485433070866
0
LINE
8
BLACK
6
CONTINUOUS
10
0.8046932283464566
20
0.3172485433070866
11
0.8093016141732283
21
0.3206983464566929
0
LINE
8
BLACK
6
CONTINUOUS
10
0.8093016141732283
20
0.3206983464566929
11
0.8127514566929134
21
0.3253067716535433
0
LINE
8
BLACK
6
CONTINUOUS
10
0.8127514566929134
20
0.3253067716535433
11
0.8127515354330709
21
0.325306968503937
0
LINE
8
BLACK
6
CONTINUOUS
10
0.8127515354330709
20
0.325306968503937
11
0.8147633070866142
21
0.3307005905511811
0
LINE
8
BLACK
6
CONTINUOUS
10
0.8147633070866142
20
0.3307005905511811
11
0.8147633858267717
21
0.330700905511811
0
LINE
8
BLACK
6
CONTINUOUS
10
0.8147633858267717
20
0.330700905511811
11
0.8150196456692913
21
0.3330846456692914
0
LINE
8
BLACK
6
CONTINUOUS
10
0.8150196456692913
20
0.3330846456692914
11
0.8150196850393701
21
0.3330853149606299
0
LINE
8
BLACK
6
CONTINUOUS
10
0.8150196850393701
20
0.3330853149606299
11
0.8150196850393701
21
0.4869146456692913
0
LINE
8
BLACK
6
CONTINUOUS
10
0.8150196850393701
20
0.4869146456692913
11
0.8150196456692913
21
0.4869153149606299
0
LINE
8
BLACK
6
CONTINUOUS
10
0.8150196456692913
20
0.4869153149606299
11
0.8147633858267717
21
0.4892990551181102
0
LINE
8
BLACK
6
CONTINUOUS
10
0.8147633858267717
20
0.4892990551181102
11
0.8147633070866142
21
0.4892993700787401
0
LINE
8
BLACK
6
CONTINUOUS
10
0.8147633070866142
20
0.4892993700787401
11
0.8144866141732283
21
0.4900411417322835
0
LINE
8
BLACK
6
CONTINUOUS
10
0.8144866141732283
20
0.4900411417322835
11
0.8127515354330709
21
0.4946930708661417
0
LINE
8
BLACK
6
CONTINUOUS
10
0.8127515354330709
20
0.4946930708661417
11
0.8093016141732283
21
0.4993016141732283
0
LINE
8
BLACK
6
CONTINUOUS
10
0.8093016141732283
20
0.4993016141732283
11
0.8046930708661417
21
0.5027515354330708
0
LINE
8
BLACK
6
CONTINUOUS
10
0.8046930708661417
20
0.5027515354330708
11
0.7992992519685039
21
0.5047633464566929
0
LINE
8
BLACK
6
CONTINUOUS
10
0.7992992519685039
20
0.5047633464566929
11
0.7992991732283464
21
0.5047633464566929
0
LINE
8
BLACK
6
CONTINUOUS
10
0.7992991732283464
20
0.5047633464566929
11
0.7992990551181102
21
0.5047633858267716
0
LINE
8
BLACK
6
CONTINUOUS
10
0.7992990551181102
20
0.5047633858267716
11
0.79691531496063
21
0.5050196456692914
0
LINE
8
BLACK
6
CONTINUOUS
10
0.79691531496063
20
0.5050196456692914
11
0.7969151574803149
21
0.5050196456692914
0
LINE
8
BLACK
6
CONTINUOUS
10
0.7969151574803149
20
0.5050196456692914
11
0.7969148818897638
21
0.5050196850393701
0
LINE
8
BLACK
6
CONTINUOUS
10
0.7969148818897638
20
0.5050196850393701
11
0.6430851181102362
21
0.5050196850393701
0
LINE
8
BLACK
6
CONTINUOUS
10
0.6430851181102362
20
0.5050196850393701
11
0.643084842519685
21
0.5050196456692914
0
LINE
8
BLACK
6
CONTINUOUS
10
0.643084842519685
20
0.5050196456692914
11
0.6430846456692914
21
0.5050196456692914
0
LINE
8
BLACK
6
CONTINUOUS
10
0.6430846456692914
20
0.5050196456692914
11
0.640700905511811
21
0.5047633858267716
0
LINE
8
BLACK
6
CONTINUOUS
10
0.640700905511811
20
0.5047633858267716
11
0.6407005905511811
21
0.5047633070866142
0
LINE
8
BLACK
6
CONTINUOUS
10
0.6407005905511811
20
0.5047633070866142
11
0.637632874015748
21
0.5036190551181102
0
LINE
8
BLACK
6
CONTINUOUS
10
0.637632874015748
20
0.5036190551181102
11
0.6353069291338582
21
0.5027515354330708
0
LINE
8
BLACK
6
CONTINUOUS
10
0.6353069291338582
20
0.5027515354330708
11
0.6353068503937008
21
0.5027514960629921
0
LINE
8
BLACK
6
CONTINUOUS
10
0.6353068503937008
20
0.5027514960629921
11
0.6353067716535433
21
0.5027514566929133
0
LINE
8
BLACK
6
CONTINUOUS
10
0.6353067716535433
20
0.5027514566929133
11
0.6306983464566929
21
0.4993016141732283
0
LINE
8
BLACK
6
CONTINUOUS
10
0.6306983464566929
20
0.4993016141732283
11
0.6272485039370078
21
0.4946931889763779
0
LINE
8
BLACK
6
CONTINUOUS
10
0.6272485039370078
20
0.4946931889763779
11
0.6272484251968504
21
0.4946929921259842
0
LINE
8
BLACK
6
CONTINUOUS
10
0.6272484251968504
20
0.4946929921259842
11
0.625236653543307
21
0.4892993700787401
0
LINE
8
BLACK
6
CONTINUOUS
10
0.625236653543307
20
0.4892993700787401
11
0.6252365748031496
21
0.4892990551181102
0
LINE
8
BLACK
6
CONTINUOUS
10
0.6252365748031496
20
0.4892990551181102
11
0.6249803149606299
21
0.4869153149606299
0
LINE
8
BLACK
6
CONTINUOUS
10
0.6249803149606299
20
0.4869153149606299
11
0.6249803149606299
21
0.3330846456692914
0
LINE
8
BLACK
6
CONTINUOUS
10
0.6249803149606299
20
0.3330846456692914
11
0.6252365748031496
21
0.330700905511811
0
LINE
8
BLACK
6
CONTINUOUS
10
0.6252365748031496
20
0.330700905511811
11
0.625236653543307
21
0.3307005905511811
0
LINE
8
BLACK
6
CONTINUOUS
10
0.625236653543307
20
0.3307005905511811
11
0.6272484251968504
21
0.325306968503937
0
LINE
8
BLACK
6
CONTINUOUS
10
0.6272484251968504
20
0.325306968503937
11
0.6272485039370078
21
0.3253067716535433
0
LINE
8
BLACK
6
CONTINUOUS
10
0.6272485039370078
20
0.3253067716535433
11
0.6306983464566929
21
0.3206983464566929
0
LINE
8
BLACK
6
CONTINUOUS
10
0.6306983464566929
20
0.3206983464566929
11
0.6353067716535433
21
0.3172485039370079
0
LINE
8
BLACK
6
CONTINUOUS
10
0.6353067716535433
20
0.3172485039370079
11
0.635306968503937
21
0.3172484251968504
0
LINE
8
BLACK
6
CONTINUOUS
10
0.635306968503937
20
0.3172484251968504
11
0.6380572047244094
21
0.3162226377952756
0
LINE
8
BLACK
6
CONTINUOUS
10
0.6380572047244094
20
0.3162226377952756
11
0.640294842519685
21
0.3145475590551181
0
LINE
8
BLACK
6
CONTINUOUS
10
0.640294842519685
20
0.3145475590551181
11
0.6412716141732283
21
0.3119286614173228
0
LINE
8
BLACK
6
CONTINUOUS
10
0.6412716141732283
20
0.3119286614173228
11
0.6406774409448819
21
0.3091974015748031
0
LINE
8
BLACK
6
CONTINUOUS
10
0.6406774409448819
20
0.3091974015748031
11
0.6387009842519685
21
0.3072209448818898
0
LINE
8
BLACK
6
CONTINUOUS
10
0.6387009842519685
20
0.3072209448818898
11
0.6380572047244094
21
0.306926968503937
0
LINE
8
BLACK
6
CONTINUOUS
10
0.6380572047244094
20
0.306926968503937
11
0.6366014173228346
21
0.306383937007874
0
LINE
8
BLACK
6
CONTINUOUS
10
0.6366014173228346
20
0.306383937007874
11
0.6353069291338582
21
0.3059011417322834
0
LINE
8
BLACK
6
CONTINUOUS
10
0.6353069291338582
20
0.3059011417322834
11
0.6353068503937008
21
0.3059011023622047
0
LINE
8
BLACK
6
CONTINUOUS
10
0.6353068503937008
20
0.3059011023622047
11
0.6353067716535433
21
0.305901062992126
0
LINE
8
BLACK
6
CONTINUOUS
10
0.6353067716535433
20
0.305901062992126
11
0.6306983464566929
21
0.3024512204724409
0
LINE
8
BLACK
6
CONTINUOUS
10
0.6306983464566929
20
0.3024512204724409
11
0.6272485039370078
21
0.2978427952755905
0
LINE
8
BLACK
6
CONTINUOUS
10
0.6272485039370078
20
0.2978427952755905
11
0.6272484251968504
21
0.2978425984251968
0
LINE
8
BLACK
6
CONTINUOUS
10
0.6272484251968504
20
0.2978425984251968
11
0.625236653543307
21
0.2924489763779528
0
LINE
8
BLACK
6
CONTINUOUS
10
0.625236653543307
20
0.2924489763779528
11
0.6252365748031496
21
0.2924486614173228
0
LINE
8
BLACK
6
CONTINUOUS
10
0.6252365748031496
20
0.2924486614173228
11
0.6249803149606299
21
0.2900649212598425
0
LINE
8
BLACK
6
CONTINUOUS
10
0.6249803149606299
20
0.2900649212598425
11
0.6249803149606299
21
0.1362342519685039
0
LINE
8
BLACK
6
CONTINUOUS
10
0.6249803149606299
20
0.1362342519685039
11
0.6252365748031496
21
0.1338505118110236
0
LINE
8
BLACK
6
CONTINUOUS
10
0.1002365748031496
20
0.475700905511811
11
0.1002366535433071
21
0.4757005905511811
0
LINE
8
BLACK
6
CONTINUOUS
10
0.1002366535433071
20
0.4757005905511811
11
0.1022484251968504
21
0.470306968503937
0
LINE
8
BLACK
6
CONTINUOUS
10
0.1022484251968504
20
0.470306968503937
11
0.1022485039370079
21
0.4703067716535433
0
LINE
8
BLACK
6
CONTINUOUS
10
0.1022485039370079
20
0.4703067716535433
11
0.1056983464566929
21
0.4656983464566929
0
LINE
8
BLACK
6
CONTINUOUS
10
0.1056983464566929
20
0.4656983464566929
11
0.1103067716535433
21
0.4622485039370078
0
LINE
8
BLACK
6
CONTINUOUS
10
0.1103067716535433
20
0.4622485039370078
11
0.110306968503937
21
0.4622484251968504
0
LINE
8
BLACK
6
CONTINUOUS
10
0.110306968503937
20
0.4622484251968504
11
0.1157005905511811
21
0.4602366535433071
0
LINE
8
BLACK
6
CONTINUOUS
10
0.1157005905511811
20
0.4602366535433071
11
0.115700905511811
21
0.4602365748031496
0
LINE
8
BLACK
6
CONTINUOUS
10
0.115700905511811
20
0.4602365748031496
11
0.1180846456692913
21
0.4599803149606299
0
LINE
8
BLACK
6
CONTINUOUS
10
0.1180846456692913
20
0.4599803149606299
11
0.1180851181102362
21
0.4599803149606299
0
LINE
8
BLACK
6
CONTINUOUS
10
0.1180851181102362
20
0.4599803149606299
11
0.1819153149606299
21
0.4599803149606299
0
LINE
8
BLACK
6
CONTINUOUS
10
0.1819153149606299
20
0.4599803149606299
11
0.1842990551181102
21
0.4602365748031496
0
LINE
8
BLACK
6
CONTINUOUS
10
0.1842990551181102
20
0.4602365748031496
11
0.1842993700787401
21
0.4602366535433071
0
LINE
8
BLACK
6
CONTINUOUS
10
0.1842993700787401
20
0.4602366535433071
11
0.1896929921259843
21
0.4622484251968504
0
LINE
8
BLACK
6
CONTINUOUS
10
0.1896929921259843
20
0.4622484251968504
11
0.1896931889763779
21
0.4622485039370078
0
LINE
8
BLACK
6
CONTINUOUS
10
0.1896931889763779
20
0.4622485039370078
11
0.1943016141732283
21
0.4656983858267716
0
LINE
8
BLACK
6
CONTINUOUS
10
0.1943016141732283
20
0.4656983858267716
11
0.1960288582677165
21
0.4680056299212598
0
LINE
8
BLACK
6
CONTINUOUS
10
0.1960288582677165
20
0.4680056299212598
11
0.1982664960629921
21
0.4696806692913386
0
LINE
8
BLACK
6
CONTINUOUS
10
0.1982664960629921
20
0.4696806692913386
11
0.2010544881889764
21
0.4698800393700787
0
LINE
8
BLACK
6
CONTINUOUS
10
0.2010544881889764
20
0.4698800393700787
11
0.2035077165354331
21
0.4685404724409449
0
LINE
8
BLACK
6
CONTINUOUS
10
0.2035077165354331
20
0.4685404724409449
11
0.2039711417322835
21
0.4680056299212598
0
LINE
8
BLACK
6
CONTINUOUS
10
0.2039711417322835
20
0.4680056299212598
11
0.2056983464566929
21
0.4656983858267716
0
LINE
8
BLACK
6
CONTINUOUS
10
0.2056983464566929
20
0.4656983858267716
11
0.2103067716535433
21
0.4622485039370078
0
LINE
8
BLACK
6
CONTINUOUS
10
0.2103067716535433
20
0.4622485039370078
11
0.210306968503937
21
0.4622484251968504
0
LINE
8
BLACK
6
CONTINUOUS
10
0.210306968503937
20
0.4622484251968504
11
0.2157005905511811
21
0.4602366535433071
0
LINE
8
BLACK
6
CONTINUOUS
10
0.2157005905511811
20
0.4602366535433071
11
0.215700905511811
21
0.4602365748031496
0
LINE
8
BLACK
6
CONTINUOUS
10
0.215700905511811
20
0.4602365748031496
11
0.2180846456692913
21
0.4599803149606299
0
LINE
8
BLACK
6
CONTINUOUS
10
0.2180846456692913
20
0.4599803149606299
11
0.2180851181102362
21
0.4599803149606299
0
LINE
8
BLACK
6
CONTINUOUS
10
0.2180851181102362
20
0.4599803149606299
11
0.2819153149606299
21
0.4599803149606299
0
LINE
8
BLACK
6
CONTINUOUS
10
0.2819153149606299
20
0.4599803149606299
11
0.2842990551181102
21
0.4602365748031496
0
LINE
8
BLACK
6
CONTINUOUS
10
0.2842990551181102
20
0.4602365748031496
11
0.2842993700787402
21
0.4602366535433071
0
LINE
8
BLACK
6
CONTINUOUS
10
0.2842993700787402
20
0.4602366535433071
11
0.2896929921259843
21
0.4622484251968504
0
LINE
8
BLACK
6
CONTINUOUS
10
0.2896929921259843
20
0.4622484251968504
11
0.289693188976378
21
0.4622485039370078
0
LINE
8
BLACK
6
CONTINUOUS
10
0.289693188976378
20
0.4622485039370078
11
0.2943016141732284
21
0.4656983464566929
0
LINE
8
BLACK
6
CONTINUOUS
10
0.2943016141732284
20
0.4656983464566929
11
0.2977514566929134
21
0.4703067716535433
0
LINE
8
BLACK
6
CONTINUOUS
10
0.2977514566929134
20
0.4703067716535433
11
0.2977515354330709
21
0.470306968503937
0
LINE
8
BLACK
6
CONTINUOUS
10
0.2977515354330709
20
0.470306968503937
11
0.2997633070866141
21
0.4757005905511811
0
LINE
8
BLACK
6
CONTINUOUS
10
0.2997633070866141
20
0.4757005905511811
11
0.2997633858267716
21
0.475700905511811
0
LINE
8
BLACK
6
CONTINUOUS
10
0.2997633858267716
20
0.475700905511811
11
0.3000196456692913
21
0.4780846456692913
0
LINE
8
BLACK
6
CONTINUOUS
10
0.3000196456692913
20
0.4780846456692913
11
0.3000196850393701
21
0.4780853149606299
0
LINE
8
BLACK
6
CONTINUOUS
10
0.3000196850393701
20
0.4780853149606299
11
0.3000196850393701
21
0.5419146456692914
0
LINE
8
BLACK
6
CONTINUOUS
10
0.3000196850393701
20
0.5419146456692914
11
0.3000196456692913
21
0.5419153149606299
0
LINE
8
BLACK
6
CONTINUOUS
10
0.3000196456692913
20
0.5419153149606299
11
0.2997633858267716
21
0.5442990551181103
0
LINE
8
BLACK
6
CONTINUOUS
10
0.2997633858267716
20
0.5442990551181103
11
0.2997633070866141
21
0.5442993700787402
0
LINE
8
BLACK
6
CONTINUOUS
10
0.2997633070866141
20
0.5442993700787402
11
0.2994866141732284
21
0.5450411417322835
0
LINE
8
BLACK
6
CONTINUOUS
10
0.2994866141732284
20
0.5450411417322835
11
0.2977515354330709
21
0.5496930708661417
0
LINE
8
BLACK
6
CONTINUOUS
10
0.2977515354330709
20
0.5496930708661417
11
0.2943016141732284
21
0.5543016141732283
0
LINE
8
BLACK
6
CONTINUOUS
10
0.2943016141732284
20
0.5543016141732283
11
0.2896930708661417
21
0.5577515354330709
0
LINE
8
BLACK
6
CONTINUOUS
10
0.2896930708661417
20
0.5577515354330709
11
0.2842992519685039
21
0.5597633464566929
0
LINE
8
BLACK
6
CONTINUOUS
10
0.2842992519685039
20
0.5597633464566929
11
0.2842991732283465
21
0.5597633464566929
0
LINE
8
BLACK
6
CONTINUOUS
10
0.2842991732283465
20
0.5597633464566929
11
0.2842990551181102
21
0.5597633858267717
0
LINE
8
BLACK
6
CONTINUOUS
10
0.2842990551181102
20
0.5597633858267717
11
0.2819153149606299
21
0.5600196456692913
0
LINE
8
BLACK
6
CONTINUOUS
10
0.2819153149606299
20
0.5600196456692913
11
0.281915157480315
21
0.5600196456692913
0
LINE
8
BLACK
6
CONTINUOUS
10
0.281915157480315
20
0.5600196456692913
11
0.2819148818897638
21
0.5600196850393701
0
LINE
8
BLACK
6
CONTINUOUS
10
0.2819148818897638
20
0.5600196850393701
11
0.2180851181102362
21
0.5600196850393701
0
LINE
8
BLACK
6
CONTINUOUS
10
0.2180851181102362
20
0.5600196850393701
11
0.218084842519685
21
0.5600196456692913
0
LINE
8
BLACK
6
CONTINUOUS
10
0.218084842519685
20
0.5600196456692913
11
0.2180846456692913
21
0.5600196456692913
0
LINE
8
BLACK
6
CONTINUOUS
10
0.2180846456692913
20
0.5600196456692913
11
0.215700905511811
21
0.5597633858267717
0
LINE
8
BLACK
6
CONTINUOUS
10
0.215700905511811
20
0.5597633858267717
11
0.2157005905511811
21
0.5597633070866141
0
LINE
8
BLACK
6
CONTINUOUS
10
0.2157005905511811
20
0.5597633070866141
11
0.212632874015748
21
0.5586190551181103
0
LINE
8
BLACK
6
CONTINUOUS
10
0.212632874015748
20
0.5586190551181103
11
0.2103069291338583
21
0.5577515354330709
0
LINE
8
BLACK
6
CONTINUOUS
10
0.2103069291338583
20
0.5577515354330709
11
0.2103068503937008
21
0.5577514960629921
0
LINE
8
BLACK
6
CONTINUOUS
10
0.2103068503937008
20
0.5577514960629921
11
0.2103067716535433
21
0.5577514566929134
0
LINE
8
BLACK
6
CONTINUOUS
10
0.2103067716535433
20
0.5577514566929134
11
0.2056983464566929
21
0.5543016141732283
0
LINE
8
BLACK
6
CONTINUOUS
10
0.2056983464566929
20
0.5543016141732283
11
0.2039711811023622
21
0.5519943700787402
0
LINE
8
BLACK
6
CONTINUOUS
10
0.2039711811023622
20
0.5519943700787402
11
0.2017335433070866
21
0.5503192913385827
0
LINE
8
BLACK
6
CONTINUOUS
10
0.2017335433070866
20
0.5503192913385827
11
0.1989455118110236
21
0.5501199212598425
0
LINE
8
BLACK
6
CONTINUOUS
10
0.1989455118110236
20
0.5501199212598425
11
0.1964922834645669
21
0.5514594881889764
0
LINE
8
BLACK
6
CONTINUOUS
10
0.1964922834645669
20
0.5514594881889764
11
0.1960288188976378
21
0.5519943700787402
0
LINE
8
BLACK
6
CONTINUOUS
10
0.1960288188976378
20
0.5519943700787402
11
0.1943016141732283
21
0.5543016141732283
0
LINE
8
BLACK
6
CONTINUOUS
10
0.1943016141732283
20
0.5543016141732283
11
0.1896931889763779
21
0.5577514566929134
0
LINE
8
BLACK
6
CONTINUOUS
10
0.1896931889763779
20
0.5577514566929134
11
0.1896931496062992
21
0.5577514566929134
0
LINE
8
BLACK
6
CONTINUOUS
10
0.1896931496062992
20
0.5577514566929134
11
0.1896930708661417
21
0.5577515354330709
0
LINE
8
BLACK
6
CONTINUOUS
10
0.1896930708661417
20
0.5577515354330709
11
0.1842992519685039
21
0.5597633464566929
0
LINE
8
BLACK
6
CONTINUOUS
10
0.1842992519685039
20
0.5597633464566929
11
0.1842991732283465
21
0.5597633464566929
0
LINE
8
BLACK
6
CONTINUOUS
10
0.1842991732283465
20
0.5597633464566929
11
0.1842990551181102
21
0.5597633858267717
0
LINE
8
BLACK
6
CONTINUOUS
10
0.1842990551181102
20
0.5597633858267717
11
0.1819153149606299
21
0.5600196456692913
0
LINE
8
BLACK
6
CONTINUOUS
10
0.1819153149606299
20
0.5600196456692913
11
0.1819151574803149
21
0.5600196456692913
0
LINE
8
BLACK
6
CONTINUOUS
10
0.1819151574803149
20
0.5600196456692913
11
0.1819148818897638
21
0.5600196850393701
0
LINE
8
BLACK
6
CONTINUOUS
10
0.1819148818897638
20
0.5600196850393701
11
0.1180851181102362
21
0.5600196850393701
0
LINE
8
BLACK
6
CONTINUOUS
10
0.1180851181102362
20
0.5600196850393701
11
0.118084842519685
21
0.5600196456692913
0
LINE
8
BLACK
6
CONTINUOUS
10
0.118084842519685
20
0.5600196456692913
11
0.1180846456692913
21
0.5600196456692913
0
LINE
8
BLACK
6
CONTINUOUS
10
0.1180846456692913
20
0.5600196456692913
11
0.115700905511811
21
0.5597633858267717
0
LINE
8
BLACK
6
CONTINUOUS
10
0.115700905511811
20
0.5597633858267717
11
0.1157005905511811
21
0.5597633070866141
0
LINE
8
BLACK
6
CONTINUOUS
10
0.1157005905511811
20
0.5597633070866141
11
0.112632874015748
21
0.5586190551181103
0
LINE
8
BLACK
6
CONTINUOUS
10
0.112632874015748
20
0.5586190551181103
11
0.1103069291338583
21
0.5577515354330709
0
LINE
8
BLACK
6
CONTINUOUS
10
0.1103069291338583
20
0.5577515354330709
11
0.1103068503937008
21
0.5577514960629921
0
LINE
8
BLACK
6
CONTINUOUS
10
0.1103068503937008
20
0.5577514960629921
11
0.1103067716535433
21
0.5577514566929134
0
LINE
8
BLACK
6
CONTINUOUS
10
0.1103067716535433
20
0.5577514566929134
11
0.1056983464566929
21
0.5543016141732283
0
LINE
8
BLACK
6
CONTINUOUS
10
0.1056983464566929
20
0.5543016141732283
11
0.1022485039370079
21
0.549693188976378
0
LINE
8
BLACK
6
CONTINUOUS
10
0.1022485039370079
20
0.549693188976378
11
0.1022484251968504
21
0.5496929921259842
0
LINE
8
BLACK
6
CONTINUOUS
10
0.1022484251968504
20
0.5496929921259842
11
0.1002366535433071
21
0.5442993700787402
0
LINE
8
BLACK
6
CONTINUOUS
10
0.1002366535433071
20
0.5442993700787402
11
0.1002365748031496
21
0.5442990551181103
0
LINE
8
BLACK
6
CONTINUOUS
10
0.1002365748031496
20
0.5442990551181103
11
0.0999803149606299
21
0.5419153149606299
0
LINE
8
BLACK
6
CONTINUOUS
10
0.0999803149606299
20
0.5419153149606299
11
0.0999803149606299
21
0.4780846456692913
0
LINE
8
BLACK
6
CONTINUOUS
10
0.0999803149606299
20
0.4780846456692913
11
0.1002365748031496
21
0.475700905511811
0
LINE
8
BLACK
6
CONTINUOUS
10
0.1027365748031496
20
0.940700905511811
11
0.1027366535433071
21
0.940700590551181
0
LINE
8
BLACK
6
CONTINUOUS
10
0.1027366535433071
20
0.940700590551181
11
0.1047484251968504
21
0.935306968503937
0
LINE
8
BLACK
6
CONTINUOUS
10
0.1047484251968504
20
0.935306968503937
11
0.1047485039370079
21
0.9353067716535433
0
LINE
8
BLACK
6
CONTINUOUS
10
0.1047485039370079
20
0.9353067716535433
11
0.1081983464566929
21
0.9306983464566929
0
LINE
8
BLACK
6
CONTINUOUS
10
0.1081983464566929
20
0.9306983464566929
11
0.1128067716535433
21
0.9272485039370079
0
LINE
8
BLACK
6
CONTINUOUS
10
0.1128067716535433
20
0.9272485039370079
11
0.112806968503937
21
0.9272484251968504
0
LINE
8
BLACK
6
CONTINUOUS
10
0.112806968503937
20
0.9272484251968504
11
0.1182005905511811
21
0.9252366535433071
0
LINE
8
BLACK
6
CONTINUOUS
10
0.1182005905511811
20
0.9252366535433071
11
0.118200905511811
21
0.9252365748031496
0
LINE
8
BLACK
6
CONTINUOUS
10
0.118200905511811
20
0.9252365748031496
11
0.1205846456692913
21
0.9249803149606299
0
LINE
8
BLACK
6
CONTINUOUS
10
0.1205846456692913
20
0.9249803149606299
11
0.1205851181102362
21
0.9249803149606299
0
LINE
8
BLACK
6
CONTINUOUS
10
0.1205851181102362
20
0.9249803149606299
11
0.1844153149606299
21
0.9249803149606299
0
LINE
8
BLACK
6
CONTINUOUS
10
0.1844153149606299
20
0.9249803149606299
11
0.1867990551181102
21
0.9252365748031496
0
LINE
8
BLACK
6
CONTINUOUS
10
0.1867990551181102
20
0.9252365748031496
11
0.1867993700787401
21
0.9252366535433071
0
LINE
8
BLACK
6
CONTINUOUS
10
0.1867993700787401
20
0.9252366535433071
11
0.1921929921259843
21
0.9272484251968504
0
LINE
8
BLACK
6
CONTINUOUS
10
0.1921929921259843
20
0.9272484251968504
11
0.1921931889763779
21
0.9272485039370079
0
LINE
8
BLACK
6
CONTINUOUS
10
0.1921931889763779
20
0.9272485039370079
11
0.1968016141732283
21
0.9306983464566929
0
LINE
8
BLACK
6
CONTINUOUS
10
0.1968016141732283
20
0.9306983464566929
11
0.2002514566929134
21
0.9353067716535433
0
LINE
8
BLACK
6
CONTINUOUS
10
0.2002514566929134
20
0.9353067716535433
11
0.2002515354330709
21
0.935306968503937
0
LINE
8
BLACK
6
CONTINUOUS
10
0.2002515354330709
20
0.935306968503937
11
0.2006326377952756
21
0.9363286614173228
0
LINE
8
BLACK
6
CONTINUOUS
10
0.2006326377952756
20
0.9363286614173228
11
0.201245905511811
21
0.9379729527559055
0
LINE
8
BLACK
6
CONTINUOUS
10
0.201245905511811
20
0.9379729527559055
11
0.2022633070866142
21
0.940700590551181
0
LINE
8
BLACK
6
CONTINUOUS
10
0.2022633070866142
20
0.940700590551181
11
0.2022633858267716
21
0.940700905511811
0
LINE
8
BLACK
6
CONTINUOUS
10
0.2022633858267716
20
0.940700905511811
11
0.2025196456692913
21
0.9430846456692913
0
LINE
8
BLACK
6
CONTINUOUS
10
0.2025196456692913
20
0.9430846456692913
11
0.2025196850393701
21
0.9430853149606299
0
LINE
8
BLACK
6
CONTINUOUS
10
0.2025196850393701
20
0.9430853149606299
11
0.2025196850393701
21
1.0069146456692912
0
LINE
8
BLACK
6
CONTINUOUS
10
0.2025196850393701
20
1.0069146456692912
11
0.2025196456692913
21
1.0069153149606298
0
LINE
8
BLACK
6
CONTINUOUS
10
0.2025196456692913
20
1.0069153149606298
11
0.2022633858267716
21
1.0092990551181102
0
LINE
8
BLACK
6
CONTINUOUS
10
0.2022633858267716
20
1.0092990551181102
11
0.2022633070866142
21
1.00929937007874
0
LINE
8
BLACK
6
CONTINUOUS
10
0.2022633070866142
20
1.00929937007874
11
0.2011633464566929
21
1.0122484251968504
0
LINE
8
BLACK
6
CONTINUOUS
10
0.2011633464566929
20
1.0122484251968504
11
0.2002515354330709
21
1.0146930708661417
0
LINE
8
BLACK
6
CONTINUOUS
10
0.2002515354330709
20
1.0146930708661417
11
0.1994989763779527
21
1.0156983464566929
0
LINE
8
BLACK
6
CONTINUOUS
10
0.1994989763779527
20
1.0156983464566929
11
0.1968016141732283
21
1.0193016141732283
0
LINE
8
BLACK
6
CONTINUOUS
10
0.1968016141732283
20
1.0193016141732283
11
0.1944943700787402
21
1.0210288188976377
0
LINE
8
BLACK
6
CONTINUOUS
10
0.1944943700787402
20
1.0210288188976377
11
0.1928192913385827
21
1.0232664566929133
0
LINE
8
BLACK
6
CONTINUOUS
10
0.1928192913385827
20
1.0232664566929133
11
0.1926199212598425
21
1.0260544881889764
0
LINE
8
BLACK
6
CONTINUOUS
10
0.1926199212598425
20
1.0260544881889764
11
0.1939594881889764
21
1.028507716535433
0
LINE
8
BLACK
6
CONTINUOUS
10
0.1939594881889764
20
1.028507716535433
11
0.1944943700787402
21
1.0289711811023621
0
LINE
8
BLACK
6
CONTINUOUS
10
0.1944943700787402
20
1.0289711811023621
11
0.1969636614173228
21
1.03081968503937
0
LINE
8
BLACK
6
CONTINUOUS
10
0.1969636614173228
20
1.03081968503937
11
0.1995825590551181
21
1.0317964960629922
0
LINE
8
BLACK
6
CONTINUOUS
10
0.1995825590551181
20
1.0317964960629922
11
0.2023138188976378
21
1.0312023622047244
0
LINE
8
BLACK
6
CONTINUOUS
10
0.2023138188976378
20
1.0312023622047244
11
0.2034441338582677
21
1.0303561811023623
0
LINE
8
BLACK
6
CONTINUOUS
10
0.2034441338582677
20
1.0303561811023623
11
0.2085698031496063
21
1.0252305118110236
0
LINE
8
BLACK
6
CONTINUOUS
10
0.2085698031496063
20
1.0252305118110236
11
0.2087751574803149
21
1.0250124015748032
0
LINE
8
BLACK
6
CONTINUOUS
10
0.2087751574803149
20
1.0250124015748032
11
0.2103632677165354
21
1.0232198031496063
0
LINE
8
BLACK
6
CONTINUOUS
10
0.2103632677165354
20
1.0232198031496063
11
0.2123336614173228
21
1.02185968503937
0
LINE
8
BLACK
6
CONTINUOUS
10
0.2123336614173228
20
1.02185968503937
11
0.2125748031496063
21
1.0216822834645669
0
LINE
8
BLACK
6
CONTINUOUS
10
0.2125748031496063
20
1.0216822834645669
11
0.2144595669291338
21
1.0202056692913386
0
LINE
8
BLACK
6
CONTINUOUS
10
0.2144595669291338
20
1.0202056692913386
11
0.2144597637795276
21
1.0202055905511811
0
LINE
8
BLACK
6
CONTINUOUS
10
0.2144597637795276
20
1.0202055905511811
11
0.2148258267716535
21
1.0200408267716534
0
LINE
8
BLACK
6
CONTINUOUS
10
0.2148258267716535
20
1.0200408267716534
11
0.2156073622047244
21
1.0196000393700788
0
LINE
8
BLACK
6
CONTINUOUS
10
0.2156073622047244
20
1.0196000393700788
11
0.2159378346456693
21
1.0193719291338583
0
LINE
8
BLACK
6
CONTINUOUS
10
0.2159378346456693
20
1.0193719291338583
11
0.2159380708661417
21
1.0193718110236221
0
LINE
8
BLACK
6
CONTINUOUS
10
0.2159380708661417
20
1.0193718110236221
11
0.2181768897637795
21
1.0185227165354331
0
LINE
8
BLACK
6
CONTINUOUS
10
0.2181768897637795
20
1.0185227165354331
11
0.2184535826771654
21
1.0184081102362204
0
LINE
8
BLACK
6
CONTINUOUS
10
0.2184535826771654
20
1.0184081102362204
11
0.2206364566929134
21
1.0174257086614173
0
LINE
8
BLACK
6
CONTINUOUS
10
0.2206364566929134
20
1.0174257086614173
11
0.2206369291338583
21
1.0174255511811023
0
LINE
8
BLACK
6
CONTINUOUS
10
0.2206369291338583
20
1.0174255511811023
11
0.2210317716535433
21
1.0173531889763778
0
LINE
8
BLACK
6
CONTINUOUS
10
0.2210317716535433
20
1.0173531889763778
11
0.2218958267716535
21
1.0171123228346457
0
LINE
8
BLACK
6
CONTINUOUS
10
0.2218958267716535
20
1.0171123228346457
11
0.2222714960629921
21
1.0169698818897637
0
LINE
8
BLACK
6
CONTINUOUS
10
0.2222714960629921
20
1.0169698818897637
11
0.2222715748031496
21
1.0169698425196849
0
LINE
8
BLACK
6
CONTINUOUS
10
0.2222715748031496
20
1.0169698425196849
11
0.2222716535433071
21
1.0169698425196849
0
LINE
8
BLACK
6
CONTINUOUS
10
0.2222716535433071
20
1.0169698425196849
11
0.2234501968503937
21
1.0168266929133858
0
LINE
8
BLACK
6
CONTINUOUS
10
0.2234501968503937
20
1.0168266929133858
11
0.2246485039370079
21
1.0166811811023622
0
LINE
8
BLACK
6
CONTINUOUS
10
0.2246485039370079
20
1.0166811811023622
11
0.2249443700787402
21
1.0166361417322833
0
LINE
8
BLACK
6
CONTINUOUS
10
0.2249443700787402
20
1.0166361417322833
11
0.2272994488188976
21
1.0162046456692913
0
LINE
8
BLACK
6
CONTINUOUS
10
0.2272994488188976
20
1.0162046456692913
11
0.2272994881889764
21
1.0162046456692913
0
LINE
8
BLACK
6
CONTINUOUS
10
0.2272994881889764
20
1.0162046456692913
11
0.2272995275590551
21
1.0162046456692913
0
LINE
8
BLACK
6
CONTINUOUS
10
0.2272995275590551
20
1.0162046456692913
11
0.229688937007874
21
1.0163491732283465
0
LINE
8
BLACK
6
CONTINUOUS
10
0.229688937007874
20
1.0163491732283465
11
0.2299884251968504
21
1.0163582283464567
0
LINE
8
BLACK
6
CONTINUOUS
10
0.2299884251968504
20
1.0163582283464567
11
0.3327821653543307
21
1.0163582283464567
0
LINE
8
BLACK
6
CONTINUOUS
10
0.3327821653543307
20
1.0163582283464567
11
0.6918872047244095
21
1.0163582283464567
0
LINE
8
BLACK
6
CONTINUOUS
10
0.6918872047244095
20
1.0163582283464567
11
0.6945691338582677
21
1.0155707480314959
0
LINE
8
BLACK
6
CONTINUOUS
10
0.6945691338582677
20
1.0155707480314959
11
0.6953946850393701
21
1.0149054330708662
0
LINE
8
BLACK
6
CONTINUOUS
10
0.6953946850393701
20
1.0149054330708662
11
0.7493591338582677
21
0.9609409842519685
0
LINE
8
BLACK
6
CONTINUOUS
10
0.7493591338582677
20
0.9609409842519685
11
0.7644690551181103
21
0.9458310629921259
0
LINE
8
BLACK
6
CONTINUOUS
10
0.7644690551181103
20
0.9458310629921259
11
0.7658086220472441
21
0.9433778346456693
0
LINE
8
BLACK
6
CONTINUOUS
10
0.7658086220472441
20
0.9433778346456693
11
0.7658980708661417
21
0.9428095669291339
0
LINE
8
BLACK
6
CONTINUOUS
10
0.7658980708661417
20
0.9428095669291339
11
0.7660003937007874
21
0.9417705511811023
0
LINE
8
BLACK
6
CONTINUOUS
10
0.7660003937007874
20
0.9417705511811023
11
0.7654795669291339
21
0.9390243700787402
0
LINE
8
BLACK
6
CONTINUOUS
10
0.7654795669291339
20
0.9390243700787402
11
0.7635566929133858
21
0.9369957086614173
0
LINE
8
BLACK
6
CONTINUOUS
10
0.7635566929133858
20
0.9369957086614173
11
0.7608423228346457
21
0.9363286614173228
0
LINE
8
BLACK
6
CONTINUOUS
10
0.7608423228346457
20
0.9363286614173228
11
0.7592577165354331
21
0.9367746456692914
0
LINE
8
BLACK
6
CONTINUOUS
10
0.7592577165354331
20
0.9367746456692914
11
0.7592207874015748
21
0.9366813385826771
0
LINE
8
BLACK
6
CONTINUOUS
10
0.7592207874015748
20
0.9366813385826771
11
0.7589307874015748
21
0.9367961023622047
0
LINE
8
BLACK
6
CONTINUOUS
10
0.7589307874015748
20
0.9367961023622047
11
0.7589305905511811
21
0.9367962204724409
0
LINE
8
BLACK
6
CONTINUOUS
10
0.7589305905511811
20
0.9367962204724409
11
0.7581126771653544
21
0.9370061811023622
0
LINE
8
BLACK
6
CONTINUOUS
10
0.7581126771653544
20
0.9370061811023622
11
0.7573767322834646
21
0.9372581102362204
0
LINE
8
BLACK
6
CONTINUOUS
10
0.7573767322834646
20
0.9372581102362204
11
0.7566014173228346
21
0.9375937007874016
0
LINE
8
BLACK
6
CONTINUOUS
10
0.7566014173228346
20
0.9375937007874016
11
0.7548039763779527
21
0.9378783070866141
0
LINE
8
BLACK
6
CONTINUOUS
10
0.7548039763779527
20
0.9378783070866141
11
0.754347874015748
21
0.9379727952755905
0
LINE
8
BLACK
6
CONTINUOUS
10
0.754347874015748
20
0.9379727952755905
11
0.7525861417322834
21
0.9384251968503937
0
LINE
8
BLACK
6
CONTINUOUS
10
0.7525861417322834
20
0.9384251968503937
11
0.7525860629921259
21
0.9384251968503937
0
LINE
8
BLACK
6
CONTINUOUS
10
0.7525860629921259
20
0.9384251968503937
11
0.7517417716535433
21
0.9384251968503937
0
LINE
8
BLACK
6
CONTINUOUS
10
0.7517417716535433
20
0.9384251968503937
11
0.7509658267716536
21
0.9384862204724409
0
LINE
8
BLACK
6
CONTINUOUS
10
0.7509658267716536
20
0.9384862204724409
11
0.750131811023622
21
0.9386183464566928
0
LINE
8
BLACK
6
CONTINUOUS
10
0.750131811023622
20
0.9386183464566928
11
0.7483212204724409
21
0.9384471653543307
0
LINE
8
BLACK
6
CONTINUOUS
10
0.7483212204724409
20
0.9384471653543307
11
0.7478544881889764
21
0.9384251968503937
0
LINE
8
BLACK
6
CONTINUOUS
10
0.7478544881889764
20
0.9384251968503937
11
0.6493275984251968
21
0.9384251968503937
0
LINE
8
BLACK
6
CONTINUOUS
10
0.6493275984251968
20
0.9384251968503937
11
0.6466456692913386
21
0.9392126771653543
0
LINE
8
BLACK
6
CONTINUOUS
10
0.6466456692913386
20
0.9392126771653543
11
0.6461806299212598
21
0.9395512204724409
0
LINE
8
BLACK
6
CONTINUOUS
10
0.6461806299212598
20
0.9395512204724409
11
0.6418750787401575
21
0.9430846456692913
0
LINE
8
BLACK
6
CONTINUOUS
10
0.6418750787401575
20
0.9430846456692913
11
0.6409457874015748
21
0.9438472834645669
0
LINE
8
BLACK
6
CONTINUOUS
10
0.6409457874015748
20
0.9438472834645669
11
0.6409457874015748
21
0.9438473228346457
0
LINE
8
BLACK
6
CONTINUOUS
10
0.6409457874015748
20
0.9438473228346457
11
0.6409457086614173
21
0.9438473622047244
0
LINE
8
BLACK
6
CONTINUOUS
10
0.6409457086614173
20
0.9438473622047244
11
0.6409456692913386
21
0.9438474015748032
0
LINE
8
BLACK
6
CONTINUOUS
10
0.6409456692913386
20
0.9438474015748032
11
0.6344276377952756
21
0.9473313779527559
0
LINE
8
BLACK
6
CONTINUOUS
10
0.6344276377952756
20
0.9473313779527559
11
0.6273551574803149
21
0.949476811023622
0
LINE
8
BLACK
6
CONTINUOUS
10
0.6273551574803149
20
0.949476811023622
11
0.6273549212598425
21
0.949476811023622
0
LINE
8
BLACK
6
CONTINUOUS
10
0.6273549212598425
20
0.949476811023622
11
0.6273548818897637
21
0.9494768503937008
0
LINE
8
BLACK
6
CONTINUOUS
10
0.6273548818897637
20
0.9494768503937008
11
0.6200001181102363
21
0.9502012204724409
0
LINE
8
BLACK
6
CONTINUOUS
10
0.6200001181102363
20
0.9502012204724409
11
0.6199998818897637
21
0.9502012204724409
0
LINE
8
BLACK
6
CONTINUOUS
10
0.6199998818897637
20
0.9502012204724409
11
0.6126451181102363
21
0.9494768503937008
0
LINE
8
BLACK
6
CONTINUOUS
10
0.6126451181102363
20
0.9494768503937008
11
0.6126450393700787
21
0.9494768503937008
0
LINE
8
BLACK
6
CONTINUOUS
10
0.6126450393700787
20
0.9494768503937008
11
0.6126449212598425
21
0.949476811023622
0
LINE
8
BLACK
6
CONTINUOUS
10
0.6126449212598425
20
0.949476811023622
11
0.612644842519685
21
0.949476811023622
0
LINE
8
BLACK
6
CONTINUOUS
10
0.612644842519685
20
0.949476811023622
11
0.6055723622047244
21
0.9473313779527559
0
LINE
8
BLACK
6
CONTINUOUS
10
0.6055723622047244
20
0.9473313779527559
11
0.5990543307086614
21
0.9438474015748032
0
LINE
8
BLACK
6
CONTINUOUS
10
0.5990543307086614
20
0.9438474015748032
11
0.593341220472441
21
0.939158779527559
0
LINE
8
BLACK
6
CONTINUOUS
10
0.593341220472441
20
0.939158779527559
11
0.5901799606299213
21
0.9353067716535433
0
LINE
8
BLACK
6
CONTINUOUS
10
0.5901799606299213
20
0.9353067716535433
11
0.5886525984251968
21
0.9334456692913385
0
LINE
8
BLACK
6
CONTINUOUS
10
0.5886525984251968
20
0.9334456692913385
11
0.5851686614173228
21
0.9269277559055118
0
LINE
8
BLACK
6
CONTINUOUS
10
0.5851686614173228
20
0.9269277559055118
11
0.5851685826771653
21
0.9269275196850394
0
LINE
8
BLACK
6
CONTINUOUS
10
0.5851685826771653
20
0.9269275196850394
11
0.5830231102362204
21
0.9198549212598425
0
LINE
8
BLACK
6
CONTINUOUS
10
0.5830231102362204
20
0.9198549212598425
11
0.5830231102362204
21
0.919854842519685
0
LINE
8
BLACK
6
CONTINUOUS
10
0.5830231102362204
20
0.919854842519685
11
0.582298779527559
21
0.9125001181102362
0
LINE
8
BLACK
6
CONTINUOUS
10
0.582298779527559
20
0.9125001181102362
11
0.582298779527559
21
0.912499842519685
0
LINE
8
BLACK
6
CONTINUOUS
10
0.582298779527559
20
0.912499842519685
11
0.5830231102362204
21
0.9051451181102362
0
LINE
8
BLACK
6
CONTINUOUS
10
0.5830231102362204
20
0.9051451181102362
11
0.5830231102362204
21
0.9051450393700787
0
LINE
8
BLACK
6
CONTINUOUS
10
0.5830231102362204
20
0.9051450393700787
11
0.5851685826771653
21
0.8980724409448819
0
LINE
8
BLACK
6
CONTINUOUS
10
0.5851685826771653
20
0.8980724409448819
11
0.5851686614173228
21
0.8980722047244094
0
LINE
8
BLACK
6
CONTINUOUS
10
0.5851686614173228
20
0.8980722047244094
11
0.5886525984251968
21
0.8915542913385827
0
LINE
8
BLACK
6
CONTINUOUS
10
0.5886525984251968
20
0.8915542913385827
11
0.593341220472441
21
0.885841220472441
0
LINE
8
BLACK
6
CONTINUOUS
10
0.593341220472441
20
0.885841220472441
11
0.5990542913385827
21
0.8811525984251968
0
LINE
8
BLACK
6
CONTINUOUS
10
0.5990542913385827
20
0.8811525984251968
11
0.6055722047244094
21
0.8776686614173228
0
LINE
8
BLACK
6
CONTINUOUS
10
0.6055722047244094
20
0.8776686614173228
11
0.6055724409448818
21
0.8776685826771653
0
LINE
8
BLACK
6
CONTINUOUS
10
0.6055724409448818
20
0.8776685826771653
11
0.6126450787401575
21
0.8755231102362204
0
LINE
8
BLACK
6
CONTINUOUS
10
0.6126450787401575
20
0.8755231102362204
11
0.6199998818897637
21
0.874798779527559
0
LINE
8
BLACK
6
CONTINUOUS
10
0.6199998818897637
20
0.874798779527559
11
0.62
21
0.874798779527559
0
LINE
8
BLACK
6
CONTINUOUS
10
0.62
20
0.874798779527559
11
0.6200001181102363
21
0.874798779527559
0
LINE
8
BLACK
6
CONTINUOUS
10
0.6200001181102363
20
0.874798779527559
11
0.627354842519685
21
0.8755231102362204
0
LINE
8
BLACK
6
CONTINUOUS
10
0.627354842519685
20
0.8755231102362204
11
0.6273549212598425
21
0.8755231102362204
0
LINE
8
BLACK
6
CONTINUOUS
10
0.6273549212598425
20
0.8755231102362204
11
0.6344275196850394
21
0.8776685826771653
0
LINE
8
BLACK
6
CONTINUOUS
10
0.6344275196850394
20
0.8776685826771653
11
0.6344277559055118
21
0.8776686614173228
0
LINE
8
BLACK
6
CONTINUOUS
10
0.6344277559055118
20
0.8776686614173228
11
0.6409457874015748
21
0.8811526377952755
0
LINE
8
BLACK
6
CONTINUOUS
10
0.6409457874015748
20
0.8811526377952755
11
0.6409457874015748
21
0.8811526771653543
0
LINE
8
BLACK
6
CONTINUOUS
10
0.6409457874015748
20
0.8811526771653543
11
0.6461806299212598
21
0.8854487795275591
0
LINE
8
BLACK
6
CONTINUOUS
10
0.6461806299212598
20
0.8854487795275591
11
0.6487533464566929
21
0.8865414566929134
0
LINE
8
BLACK
6
CONTINUOUS
10
0.6487533464566929
20
0.8865414566929134
11
0.6493275984251968
21
0.8865748031496062
0
LINE
8
BLACK
6
CONTINUOUS
10
0.6493275984251968
20
0.8865748031496062
11
0.7365176771653543
21
0.8865748031496062
0
LINE
8
BLACK
6
CONTINUOUS
10
0.7365176771653543
20
0.8865748031496062
11
0.7391996062992126
21
0.8857873228346457
0
LINE
8
BLACK
6
CONTINUOUS
10
0.7391996062992126
20
0.8857873228346457
11
0.7400253937007873
21
0.8851218503937007
0
LINE
8
BLACK
6
CONTINUOUS
10
0.7400253937007873
20
0.8851218503937007
11
0.7448625196850394
21
0.8802846456692913
0
LINE
8
BLACK
6
CONTINUOUS
10
0.7448625196850394
20
0.8802846456692913
11
0.7462020866141732
21
0.8778313779527559
0
LINE
8
BLACK
6
CONTINUOUS
10
0.7462020866141732
20
0.8778313779527559
11
0.7460026377952755
21
0.8750433858267717
0
LINE
8
BLACK
6
CONTINUOUS
10
0.7460026377952755
20
0.8750433858267717
11
0.7453259842519685
21
0.8738041732283465
0
LINE
8
BLACK
6
CONTINUOUS
10
0.7453259842519685
20
0.8738041732283465
11
0.7422485039370078
21
0.8696931889763779
0
LINE
8
BLACK
6
CONTINUOUS
10
0.7422485039370078
20
0.8696931889763779
11
0.7422484251968504
21
0.8696929921259843
0
LINE
8
BLACK
6
CONTINUOUS
10
0.7422484251968504
20
0.8696929921259843
11
0.740236653543307
21
0.8642993700787401
0
LINE
8
BLACK
6
CONTINUOUS
10
0.740236653543307
20
0.8642993700787401
11
0.7402365748031496
21
0.8642990551181102
0
LINE
8
BLACK
6
CONTINUOUS
10
0.7402365748031496
20
0.8642990551181102
11
0.7399803149606299
21
0.8619153149606299
0
LINE
8
BLACK
6
CONTINUOUS
10
0.7399803149606299
20
0.8619153149606299
11
0.7399803149606299
21
0.7980846456692913
0
LINE
8
BLACK
6
CONTINUOUS
10
0.7399803149606299
20
0.7980846456692913
11
0.7402365748031496
21
0.7957009055118111
0
LINE
8
BLACK
6
CONTINUOUS
10
0.7402365748031496
20
0.7957009055118111
11
0.740236653543307
21
0.795700590551181
0
LINE
8
BLACK
6
CONTINUOUS
10
0.740236653543307
20
0.795700590551181
11
0.7422484251968504
21
0.790306968503937
0
LINE
8
BLACK
6
CONTINUOUS
10
0.7422484251968504
20
0.790306968503937
11
0.7422485039370078
21
0.7903067716535432
0
LINE
8
BLACK
6
CONTINUOUS
10
0.7422485039370078
20
0.7903067716535432
11
0.7456983464566929
21
0.7856983464566929
0
LINE
8
BLACK
6
CONTINUOUS
10
0.7456983464566929
20
0.7856983464566929
11
0.7503067716535433
21
0.7822485039370078
0
LINE
8
BLACK
6
CONTINUOUS
10
0.7503067716535433
20
0.7822485039370078
11
0.750306968503937
21
0.7822484251968503
0
LINE
8
BLACK
6
CONTINUOUS
10
0.750306968503937
20
0.7822484251968503
11
0.7557005905511811
21
0.7802366535433071
0
LINE
8
BLACK
6
CONTINUOUS
10
0.7557005905511811
20
0.7802366535433071
11
0.755700905511811
21
0.7802365748031496
0
LINE
8
BLACK
6
CONTINUOUS
10
0.755700905511811
20
0.7802365748031496
11
0.7580846456692913
21
0.7799803149606299
0
LINE
8
BLACK
6
CONTINUOUS
10
0.7580846456692913
20
0.7799803149606299
11
0.7580851181102362
21
0.7799803149606299
0
LINE
8
BLACK
6
CONTINUOUS
10
0.7580851181102362
20
0.7799803149606299
11
0.8219153149606299
21
0.7799803149606299
0
LINE
8
BLACK
6
CONTINUOUS
10
0.8219153149606299
20
0.7799803149606299
11
0.8242990551181102
21
0.7802365748031496
0
LINE
8
BLACK
6
CONTINUOUS
10
0.8242990551181102
20
0.7802365748031496
11
0.8242993700787401
21
0.7802366535433071
0
LINE
8
BLACK
6
CONTINUOUS
10
0.8242993700787401
20
0.7802366535433071
11
0.8296929921259842
21
0.7822484251968503
0
LINE
8
BLACK
6
CONTINUOUS
10
0.8296929921259842
20
0.7822484251968503
11
0.8296931889763779
21
0.7822485039370078
0
LINE
8
BLACK
6
CONTINUOUS
10
0.8296931889763779
20
0.7822485039370078
11
0.8343016141732283
21
0.7856983464566929
0
LINE
8
BLACK
6
CONTINUOUS
10
0.8343016141732283
20
0.7856983464566929
11
0.8377514566929134
21
0.7903067716535432
0
LINE
8
BLACK
6
CONTINUOUS
10
0.8377514566929134
20
0.7903067716535432
11
0.8377515354330708
21
0.790306968503937
0
LINE
8
BLACK
6
CONTINUOUS
10
0.8377515354330708
20
0.790306968503937
11
0.8397633070866142
21
0.795700590551181
0
LINE
8
BLACK
6
CONTINUOUS
10
0.8397633070866142
20
0.795700590551181
11
0.8397633858267717
21
0.7957009055118111
0
LINE
8
BLACK
6
CONTINUOUS
10
0.8397633858267717
20
0.7957009055118111
11
0.8400196456692913
21
0.7980846456692913
0
LINE
8
BLACK
6
CONTINUOUS
10
0.8400196456692913
20
0.7980846456692913
11
0.8400196850393701
21
0.79808531496063
0
LINE
8
BLACK
6
CONTINUOUS
10
0.8400196850393701
20
0.79808531496063
11
0.8400196850393701
21
0.8619146456692913
0
LINE
8
BLACK
6
CONTINUOUS
10
0.8400196850393701
20
0.8619146456692913
11
0.8400196456692913
21
0.8619153149606299
0
LINE
8
BLACK
6
CONTINUOUS
10
0.8400196456692913
20
0.8619153149606299
11
0.8397633858267717
21
0.8642990551181102
0
LINE
8
BLACK
6
CONTINUOUS
10
0.8397633858267717
20
0.8642990551181102
11
0.8397633070866142
21
0.8642993700787401
0
LINE
8
BLACK
6
CONTINUOUS
10
0.8397633070866142
20
0.8642993700787401
11
0.8394866141732283
21
0.8650411417322834
0
LINE
8
BLACK
6
CONTINUOUS
10
0.8394866141732283
20
0.8650411417322834
11
0.8377515354330708
21
0.8696930708661417
0
LINE
8
BLACK
6
CONTINUOUS
10
0.8377515354330708
20
0.8696930708661417
11
0.8343016141732283
21
0.8743016141732284
0
LINE
8
BLACK
6
CONTINUOUS
10
0.8343016141732283
20
0.8743016141732284
11
0.8336374803149607
21
0.874798779527559
0
LINE
8
BLACK
6
CONTINUOUS
10
0.8336374803149607
20
0.874798779527559
11
0.8296931889763779
21
0.8777514566929133
0
LINE
8
BLACK
6
CONTINUOUS
10
0.8296931889763779
20
0.8777514566929133
11
0.8296931496062991
21
0.8777514566929133
0
LINE
8
BLACK
6
CONTINUOUS
10
0.8296931496062991
20
0.8777514566929133
11
0.8296930708661417
21
0.8777515354330708
0
LINE
8
BLACK
6
CONTINUOUS
10
0.8296930708661417
20
0.8777515354330708
11
0.824299251968504
21
0.8797633464566929
0
LINE
8
BLACK
6
CONTINUOUS
10
0.824299251968504
20
0.8797633464566929
11
0.8242991732283464
21
0.8797633464566929
0
LINE
8
BLACK
6
CONTINUOUS
10
0.8242991732283464
20
0.8797633464566929
11
0.8242990551181102
21
0.8797633858267716
0
LINE
8
BLACK
6
CONTINUOUS
10
0.8242990551181102
20
0.8797633858267716
11
0.8219153149606299
21
0.8800196456692914
0
LINE
8
BLACK
6
CONTINUOUS
10
0.8219153149606299
20
0.8800196456692914
11
0.821915157480315
21
0.8800196456692914
0
LINE
8
BLACK
6
CONTINUOUS
10
0.821915157480315
20
0.8800196456692914
11
0.8219148818897638
21
0.88001968503937
0
LINE
8
BLACK
6
CONTINUOUS
10
0.8219148818897638
20
0.88001968503937
11
0.8219146456692913
21
0.88001968503937
0
LINE
8
BLACK
6
CONTINUOUS
10
0.8219146456692913
20
0.88001968503937
11
0.8180944881889763
21
0.88001968503937
0
LINE
8
BLACK
6
CONTINUOUS
10
0.8180944881889763
20
0.88001968503937
11
0.8154125590551181
21
0.8808071653543307
0
LINE
8
BLACK
6
CONTINUOUS
10
0.8154125590551181
20
0.8808071653543307
11
0.813824842519685
21
0.8824548818897637
0
LINE
8
BLACK
6
CONTINUOUS
10
0.813824842519685
20
0.8824548818897637
11
0.8135524803149606
21
0.8829153543307087
0
LINE
8
BLACK
6
CONTINUOUS
10
0.8135524803149606
20
0.8829153543307087
11
0.8132098031496063
21
0.8836148031496063
0
LINE
8
BLACK
6
CONTINUOUS
10
0.8132098031496063
20
0.8836148031496063
11
0.8128990157480315
21
0.8843998425196851
0
LINE
8
BLACK
6
CONTINUOUS
10
0.8128990157480315
20
0.8843998425196851
11
0.8118299212598425
21
0.8858712204724409
0
LINE
8
BLACK
6
CONTINUOUS
10
0.8118299212598425
20
0.8858712204724409
11
0.8115737007874015
21
0.8862612598425197
0
LINE
8
BLACK
6
CONTINUOUS
10
0.8115737007874015
20
0.8862612598425197
11
0.8106477559055117
21
0.8878270472440944
0
LINE
8
BLACK
6
CONTINUOUS
10
0.8106477559055117
20
0.8878270472440944
11
0.8100504330708661
21
0.8884242913385827
0
LINE
8
BLACK
6
CONTINUOUS
10
0.8100504330708661
20
0.8884242913385827
11
0.8095450393700787
21
0.8890161023622047
0
LINE
8
BLACK
6
CONTINUOUS
10
0.8095450393700787
20
0.8890161023622047
11
0.8090490157480315
21
0.8896988582677166
0
LINE
8
BLACK
6
CONTINUOUS
10
0.8090490157480315
20
0.8896988582677166
11
0.8090488582677166
21
0.889699094488189
0
LINE
8
BLACK
6
CONTINUOUS
10
0.8090488582677166
20
0.889699094488189
11
0.807646968503937
21
0.8908587401574803
0
LINE
8
BLACK
6
CONTINUOUS
10
0.807646968503937
20
0.8908587401574803
11
0.8073022440944881
21
0.8911724803149607
0
LINE
8
BLACK
6
CONTINUOUS
10
0.8073022440944881
20
0.8911724803149607
11
0.7979832677165354
21
0.9004914566929134
0
LINE
8
BLACK
6
CONTINUOUS
10
0.7979832677165354
20
0.9004914566929134
11
0.7966437401574803
21
0.9029446062992126
0
LINE
8
BLACK
6
CONTINUOUS
10
0.7966437401574803
20
0.9029446062992126
11
0.7968431496062992
21
0.9057325984251968
0
LINE
8
BLACK
6
CONTINUOUS
10
0.7968431496062992
20
0.9057325984251968
11
0.7985182283464567
21
0.9079702362204725
0
LINE
8
BLACK
6
CONTINUOUS
10
0.7985182283464567
20
0.9079702362204725
11
0.8011371259842519
21
0.9089470472440945
0
LINE
8
BLACK
6
CONTINUOUS
10
0.8011371259842519
20
0.9089470472440945
11
0.8019770866141732
21
0.9089358267716535
0
LINE
8
BLACK
6
CONTINUOUS
10
0.8019770866141732
20
0.9089358267716535
11
0.8030920866141732
21
0.9088260236220472
0
LINE
8
BLACK
6
CONTINUOUS
10
0.8030920866141732
20
0.9088260236220472
11
0.8032345669291339
21
0.9088120078740157
0
LINE
8
BLACK
6
CONTINUOUS
10
0.8032345669291339
20
0.9088120078740157
11
0.8032346062992126
21
0.9088120078740157
0
LINE
8
BLACK
6
CONTINUOUS
10
0.8032346062992126
20
0.9088120078740157
11
0.80323468503937
21
0.9088120078740157
0
LINE
8
BLACK
6
CONTINUOUS
10
0.80323468503937
20
0.9088120078740157
11
0.8105894094488189
21
0.9095363385826771
0
LINE
8
BLACK
6
CONTINUOUS
10
0.8105894094488189
20
0.9095363385826771
11
0.8105894881889764
21
0.9095363385826771
0
LINE
8
BLACK
6
CONTINUOUS
10
0.8105894881889764
20
0.9095363385826771
11
0.8176620866141732
21
0.911681811023622
0
LINE
8
BLACK
6
CONTINUOUS
10
0.8176620866141732
20
0.911681811023622
11
0.8176623228346457
21
0.9116818897637795
0
LINE
8
BLACK
6
CONTINUOUS
10
0.8176623228346457
20
0.9116818897637795
11
0.8241802362204724
21
0.9151658267716535
0
LINE
8
BLACK
6
CONTINUOUS
10
0.8241802362204724
20
0.9151658267716535
11
0.8298933464566929
21
0.9198544488188977
0
LINE
8
BLACK
6
CONTINUOUS
10
0.8298933464566929
20
0.9198544488188977
11
0.834581968503937
21
0.9255675590551181
0
LINE
8
BLACK
6
CONTINUOUS
10
0.834581968503937
20
0.9255675590551181
11
0.8380659448818898
21
0.9320855905511811
0
LINE
8
BLACK
6
CONTINUOUS
10
0.8380659448818898
20
0.9320855905511811
11
0.8402113779527559
21
0.9391580708661417
0
LINE
8
BLACK
6
CONTINUOUS
10
0.8402113779527559
20
0.9391580708661417
11
0.8402113779527559
21
0.9391581496062992
0
LINE
8
BLACK
6
CONTINUOUS
10
0.8402113779527559
20
0.9391581496062992
11
0.8402114173228347
21
0.9391582677165354
0
LINE
8
BLACK
6
CONTINUOUS
10
0.8402114173228347
20
0.9391582677165354
11
0.8402114173228347
21
0.9391583464566929
0
LINE
8
BLACK
6
CONTINUOUS
10
0.8402114173228347
20
0.9391583464566929
11
0.8409357874015748
21
0.9465130708661417
0
LINE
8
BLACK
6
CONTINUOUS
10
0.8409357874015748
20
0.9465130708661417
11
0.8409357874015748
21
0.9465133464566929
0
LINE
8
BLACK
6
CONTINUOUS
10
0.8409357874015748
20
0.9465133464566929
11
0.8402114173228347
21
0.9538680708661417
0
LINE
8
BLACK
6
CONTINUOUS
10
0.8402114173228347
20
0.9538680708661417
11
0.8402114173228347
21
0.9538681496062992
0
LINE
8
BLACK
6
CONTINUOUS
10
0.8402114173228347
20
0.9538681496062992
11
0.8402113779527559
21
0.9538681889763779
0
LINE
8
BLACK
6
CONTINUOUS
10
0.8402113779527559
20
0.9538681889763779
11
0.8402113779527559
21
0.9538683858267716
0
LINE
8
BLACK
6
CONTINUOUS
10
0.8402113779527559
20
0.9538683858267716
11
0.8380659448818898
21
0.9609408661417322
0
LINE
8
BLACK
6
CONTINUOUS
10
0.8380659448818898
20
0.9609408661417322
11
0.834581968503937
21
0.9674588976377952
0
LINE
8
BLACK
6
CONTINUOUS
10
0.834581968503937
20
0.9674588976377952
11
0.8298933464566929
21
0.9731720078740157
0
LINE
8
BLACK
6
CONTINUOUS
10
0.8298933464566929
20
0.9731720078740157
11
0.8241802362204724
21
0.9778606299212598
0
LINE
8
BLACK
6
CONTINUOUS
10
0.8241802362204724
20
0.9778606299212598
11
0.8176622047244094
21
0.9813446062992126
0
LINE
8
BLACK
6
CONTINUOUS
10
0.8176622047244094
20
0.9813446062992126
11
0.8105897244094488
21
0.9834900393700787
0
LINE
8
BLACK
6
CONTINUOUS
10
0.8105897244094488
20
0.9834900393700787
11
0.8069379921259843
21
0.9838496456692913
0
LINE
8
BLACK
6
CONTINUOUS
10
0.8069379921259843
20
0.9838496456692913
11
0.8043463779527559
21
0.9848961417322835
0
LINE
8
BLACK
6
CONTINUOUS
10
0.8043463779527559
20
0.9848961417322835
11
0.8039170078740158
21
0.9852783464566929
0
LINE
8
BLACK
6
CONTINUOUS
10
0.8039170078740158
20
0.9852783464566929
11
0.7267289763779528
21
1.0624663779527559
0
LINE
8
BLACK
6
CONTINUOUS
10
0.7267289763779528
20
1.0624663779527559
11
0.7253894488188977
21
1.0649195275590551
0
LINE
8
BLACK
6
CONTINUOUS
10
0.7253894488188977
20
1.0649195275590551
11
0.7255888582677166
21
1.0677075196850394
0
LINE
8
BLACK
6
CONTINUOUS
10
0.7255888582677166
20
1.0677075196850394
11
0.726237283464567
21
1.0688346456692912
0
LINE
8
BLACK
6
CONTINUOUS
10
0.726237283464567
20
1.0688346456692912
11
0.726211968503937
21
1.0688516141732283
0
LINE
8
BLACK
6
CONTINUOUS
10
0.726211968503937
20
1.0688516141732283
11
0.7263473228346456
21
1.0690541732283465
0
LINE
8
BLACK
6
CONTINUOUS
10
0.7263473228346456
20
1.0690541732283465
11
0.7296495275590551
21
1.0752321653543306
0
LINE
8
BLACK
6
CONTINUOUS
10
0.7296495275590551
20
1.0752321653543306
11
0.7316082677165354
21
1.0772261811023622
0
LINE
8
BLACK
6
CONTINUOUS
10
0.7316082677165354
20
1.0772261811023622
11
0.7340244094488189
21
1.0778543700787402
0
LINE
8
BLACK
6
CONTINUOUS
10
0.7340244094488189
20
1.0778543700787402
11
0.8099999999999999
21
1.0778543700787402
0
LINE
8
BLACK
6
CONTINUOUS
10
0.8099999999999999
20
1.0778543700787402
11
0.8099999999999999
21
1.0900000000000001
0
LINE
8
BLACK
6
CONTINUOUS
10
0.8099999999999999
20
1.0900000000000001
11
0.87
21
1.0900000000000001
0
LINE
8
BLACK
6
CONTINUOUS
10
0.87
20
1.0900000000000001
11
0.87
21
1.0778543700787402
0
LINE
8
BLACK
6
CONTINUOUS
10
0.87
20
1.0778543700787402
11
0.88501968503937
21
1.0778543700787402
0
LINE
8
BLACK
6
CONTINUOUS
10
0.88501968503937
20
1.0778543700787402
11
0.8877016141732283
21
1.0770668897637794
0
LINE
8
BLACK
6
CONTINUOUS
10
0.8877016141732283
20
1.0770668897637794
11
0.8895320472440945
21
1.0749544488188976
0
LINE
8
BLACK
6
CONTINUOUS
10
0.8895320472440945
20
1.0749544488188976
11
0.8899803149606299
21
1.0728937401574803
0
LINE
8
BLACK
6
CONTINUOUS
10
0.8899803149606299
20
1.0728937401574803
11
0.8899803149606299
21
1.0280846456692914
0
LINE
8
BLACK
6
CONTINUOUS
10
0.8899803149606299
20
1.0280846456692914
11
0.8902365748031495
21
1.0257009055118109
0
LINE
8
BLACK
6
CONTINUOUS
10
0.8902365748031495
20
1.0257009055118109
11
0.8902366535433071
21
1.0257005905511811
0
LINE
8
BLACK
6
CONTINUOUS
10
0.8902366535433071
20
1.0257005905511811
11
0.8922484251968503
21
1.020306968503937
0
LINE
8
BLACK
6
CONTINUOUS
10
0.8922484251968503
20
1.020306968503937
11
0.8922485039370078
21
1.0203067716535432
0
LINE
8
BLACK
6
CONTINUOUS
10
0.8922485039370078
20
1.0203067716535432
11
0.8956983464566929
21
1.0156983464566929
0
LINE
8
BLACK
6
CONTINUOUS
10
0.8956983464566929
20
1.0156983464566929
11
0.9003067716535433
21
1.0122485039370079
0
LINE
8
BLACK
6
CONTINUOUS
10
0.9003067716535433
20
1.0122485039370079
11
0.900306968503937
21
1.0122484251968504
0
LINE
8
BLACK
6
CONTINUOUS
10
0.900306968503937
20
1.0122484251968504
11
0.9057005905511811
21
1.0102366535433072
0
LINE
8
BLACK
6
CONTINUOUS
10
0.9057005905511811
20
1.0102366535433072
11
0.905700905511811
21
1.0102365748031497
0
LINE
8
BLACK
6
CONTINUOUS
10
0.905700905511811
20
1.0102365748031497
11
0.9080846456692914
21
1.0099803149606299
0
LINE
8
BLACK
6
CONTINUOUS
10
0.9080846456692914
20
1.0099803149606299
11
0.9080851181102362
21
1.0099803149606299
0
LINE
8
BLACK
6
CONTINUOUS
10
0.9080851181102362
20
1.0099803149606299
11
0.9719153149606299
21
1.0099803149606299
0
LINE
8
BLACK
6
CONTINUOUS
10
0.9719153149606299
20
1.0099803149606299
11
0.9742990551181102
21
1.0102365748031497
0
LINE
8
BLACK
6
CONTINUOUS
10
0.9742990551181102
20
1.0102365748031497
11
0.9742993700787401
21
1.0102366535433072
0
LINE
8
BLACK
6
CONTINUOUS
10
0.9742993700787401
20
1.0102366535433072
11
0.9796929921259843
21
1.0122484251968504
0
LINE
8
BLACK
6
CONTINUOUS
10
0.9796929921259843
20
1.0122484251968504
11
0.9796931889763779
21
1.0122485039370079
0
LINE
8
BLACK
6
CONTINUOUS
10
0.9796931889763779
20
1.0122485039370079
11
0.9843016141732284
21
1.0156983858267716
0
LINE
8
BLACK
6
CONTINUOUS
10
0.9843016141732284
20
1.0156983858267716
11
0.9860288582677165
21
1.0180056299212599
0
LINE
8
BLACK
6
CONTINUOUS
10
0.9860288582677165
20
1.0180056299212599
11
0.9882664960629921
21
1.0196806692913385
0
LINE
8
BLACK
6
CONTINUOUS
10
0.9882664960629921
20
1.0196806692913385
11
0.9910544881889763
21
1.0198800393700787
0
LINE
8
BLACK
6
CONTINUOUS
10
0.9910544881889763
20
1.0198800393700787
11
0.993507716535433
21
1.0185404724409448
0
LINE
8
BLACK
6
CONTINUOUS
10
0.993507716535433
20
1.0185404724409448
11
0.9939711417322834
21
1.0180056299212599
0
LINE
8
BLACK
6
CONTINUOUS
10
0.9939711417322834
20
1.0180056299212599
11
0.9956983464566929
21
1.0156983858267716
0
LINE
8
BLACK
6
CONTINUOUS
10
0.9956983464566929
20
1.0156983858267716
11
1.0003067716535432
21
1.0122485039370079
0
LINE
8
BLACK
6
CONTINUOUS
10
1.0003067716535432
20
1.0122485039370079
11
1.000306968503937
21
1.0122484251968504
0
LINE
8
BLACK
6
CONTINUOUS
10
1.000306968503937
20
1.0122484251968504
11
1.0057005905511811
21
1.0102366535433072
0
LINE
8
BLACK
6
CONTINUOUS
10
1.0057005905511811
20
1.0102366535433072
11
1.0057009055118109
21
1.0102365748031497
0
LINE
8
BLACK
6
CONTINUOUS
10
1.0057009055118109
20
1.0102365748031497
11
1.0080846456692913
21
1.0099803149606299
0
LINE
8
BLACK
6
CONTINUOUS
10
1.0080846456692913
20
1.0099803149606299
11
1.0080851181102362
21
1.0099803149606299
0
LINE
8
BLACK
6
CONTINUOUS
10
1.0080851181102362
20
1.0099803149606299
11
1.07191531496063
21
1.0099803149606299
0
LINE
8
BLACK
6
CONTINUOUS
10
1.07191531496063
20
1.0099803149606299
11
1.0742990551181102
21
1.0102365748031497
0
LINE
8
BLACK
6
CONTINUOUS
10
1.0742990551181102
20
1.0102365748031497
11
1.0742993700787402
21
1.0102366535433072
0
LINE
8
BLACK
6
CONTINUOUS
10
1.0742993700787402
20
1.0102366535433072
11
1.0796929921259841
21
1.0122484251968504
0
LINE
8
BLACK
6
CONTINUOUS
10
1.0796929921259841
20
1.0122484251968504
11
1.0796931889763779
21
1.0122485039370079
0
LINE
8
BLACK
6
CONTINUOUS
10
1.0796931889763779
20
1.0122485039370079
11
1.0843016141732282
21
1.0156983464566929
0
LINE
8
BLACK
6
CONTINUOUS
10
1.0843016141732282
20
1.0156983464566929
11
1.0877514566929134
21
1.0203067716535432
0
LINE
8
BLACK
6
CONTINUOUS
10
1.0877514566929134
20
1.0203067716535432
11
1.0877515354330709
21
1.020306968503937
0
LINE
8
BLACK
6
CONTINUOUS
10
1.0877515354330709
20
1.020306968503937
11
1.0883307086614173
21
1.02185968503937
0
LINE
8
BLACK
6
CONTINUOUS
10
1.0883307086614173
20
1.02185968503937
11
1.0891086614173229
21
1.0239455118110237
0
LINE
8
BLACK
6
CONTINUOUS
10
1.0891086614173229
20
1.0239455118110237
11
1.0897633070866142
21
1.0257005905511811
0
LINE
8
BLACK
6
CONTINUOUS
10
1.0897633070866142
20
1.0257005905511811
11
1.0897633858267717
21
1.0257009055118109
0
LINE
8
BLACK
6
CONTINUOUS
10
1.0897633858267717
20
1.0257009055118109
11
1.0900196456692912
21
1.0280846456692914
0
LINE
8
BLACK
6
CONTINUOUS
10
1.0900196456692912
20
1.0280846456692914
11
1.09001968503937
21
1.0280853149606299
0
LINE
8
BLACK
6
CONTINUOUS
10
1.09001968503937
20
1.0280853149606299
11
1.09001968503937
21
1.0919146456692914
0
LINE
8
BLACK
6
CONTINUOUS
10
1.09001968503937
20
1.0919146456692914
11
1.0900196456692912
21
1.09191531496063
0
LINE
8
BLACK
6
CONTINUOUS
10
1.0900196456692912
20
1.09191531496063
11
1.0897633858267717
21
1.0942990551181102
0
LINE
8
BLACK
6
CONTINUOUS
10
1.0897633858267717
20
1.0942990551181102
11
1.0897633070866142
21
1.0942993700787402
0
LINE
8
BLACK
6
CONTINUOUS
10
1.0897633070866142
20
1.0942993700787402
11
1.0885435826771652
21
1.0975694881889764
0
LINE
8
BLACK
6
CONTINUOUS
10
1.0885435826771652
20
1.0975694881889764
11
1.0877515354330709
21
1.0996930708661417
0
LINE
8
BLACK
6
CONTINUOUS
10
1.0877515354330709
20
1.0996930708661417
11
1.0876114960629921
21
1.0998801181102362
0
LINE
8
BLACK
6
CONTINUOUS
10
1.0876114960629921
20
1.0998801181102362
11
1.0843016141732282
21
1.1043016141732283
0
LINE
8
BLACK
6
CONTINUOUS
10
1.0843016141732282
20
1.1043016141732283
11
1.0819943700787402
21
1.1060288188976377
0
LINE
8
BLACK
6
CONTINUOUS
10
1.0819943700787402
20
1.1060288188976377
11
1.0803192913385826
21
1.1082664566929135
0
LINE
8
BLACK
6
CONTINUOUS
10
1.0803192913385826
20
1.1082664566929135
11
1.0801199212598425
21
1.1110544881889763
0
LINE
8
BLACK
6
CONTINUOUS
10
1.0801199212598425
20
1.1110544881889763
11
1.0814594881889763
21
1.113507716535433
0
LINE
8
BLACK
6
CONTINUOUS
10
1.0814594881889763
20
1.113507716535433
11
1.0819943700787402
21
1.1139711811023623
0
LINE
8
BLACK
6
CONTINUOUS
10
1.0819943700787402
20
1.1139711811023623
11
1.0843016141732282
21
1.115698346456693
0
LINE
8
BLACK
6
CONTINUOUS
10
1.0843016141732282
20
1.115698346456693
11
1.0877514566929134
21
1.1203067716535433
0
LINE
8
BLACK
6
CONTINUOUS
10
1.0877514566929134
20
1.1203067716535433
11
1.0877515354330709
21
1.1203069685039371
0
LINE
8
BLACK
6
CONTINUOUS
10
1.0877515354330709
20
1.1203069685039371
11
1.0897633070866142
21
1.125700590551181
0
LINE
8
BLACK
6
CONTINUOUS
10
1.0897633070866142
20
1.125700590551181
11
1.0897633858267717
21
1.125700905511811
0
LINE
8
BLACK
6
CONTINUOUS
10
1.0897633858267717
20
1.125700905511811
11
1.0900196456692912
21
1.1280846456692912
0
LINE
8
BLACK
6
CONTINUOUS
10
1.0900196456692912
20
1.1280846456692912
11
1.09001968503937
21
1.1280853149606298
0
LINE
8
BLACK
6
CONTINUOUS
10
1.09001968503937
20
1.1280853149606298
11
1.09001968503937
21
1.1919146456692913
0
LINE
8
BLACK
6
CONTINUOUS
10
1.09001968503937
20
1.1919146456692913
11
1.0900196456692912
21
1.1919153149606299
0
LINE
8
BLACK
6
CONTINUOUS
10
1.0900196456692912
20
1.1919153149606299
11
1.0897633858267717
21
1.1942990551181103
0
LINE
8
BLACK
6
CONTINUOUS
10
1.0897633858267717
20
1.1942990551181103
11
1.0897633070866142
21
1.1942993700787401
0
LINE
8
BLACK
6
CONTINUOUS
10
1.0897633070866142
20
1.1942993700787401
11
1.0892407874015748
21
1.1957002362204725
0
LINE
8
BLACK
6
CONTINUOUS
10
1.0892407874015748
20
1.1957002362204725
11
1.0877515354330709
21
1.1996930708661417
0
LINE
8
BLACK
6
CONTINUOUS
10
1.0877515354330709
20
1.1996930708661417
11
1.0861757874015747
21
1.2017979921259843
0
LINE
8
BLACK
6
CONTINUOUS
10
1.0861757874015747
20
1.2017979921259843
11
1.0843016141732282
21
1.2043016141732283
0
LINE
8
BLACK
6
CONTINUOUS
10
1.0843016141732282
20
1.2043016141732283
11
1.0796931889763779
21
1.2077514566929133
0
LINE
8
BLACK
6
CONTINUOUS
10
1.0796931889763779
20
1.2077514566929133
11
1.0796931496062991
21
1.2077514566929133
0
LINE
8
BLACK
6
CONTINUOUS
10
1.0796931496062991
20
1.2077514566929133
11
1.0796930708661416
21
1.2077515354330708
0
LINE
8
BLACK
6
CONTINUOUS
10
1.0796930708661416
20
1.2077515354330708
11
1.074299251968504
21
1.2097633464566928
0
LINE
8
BLACK
6
CONTINUOUS
10
1.074299251968504
20
1.2097633464566928
11
1.0739844094488189
21
1.2097971653543307
0
LINE
8
BLACK
6
CONTINUOUS
10
1.0739844094488189
20
1.2097971653543307
11
1.0714020866141731
21
1.2108666929133858
0
LINE
8
BLACK
6
CONTINUOUS
10
1.0714020866141731
20
1.2108666929133858
11
1.0698078346456692
21
1.2131626377952756
0
LINE
8
BLACK
6
CONTINUOUS
10
1.0698078346456692
20
1.2131626377952756
11
1.0695727559055117
21
1.2142971259842519
0
LINE
8
BLACK
6
CONTINUOUS
10
1.0695727559055117
20
1.2142971259842519
11
1.0694443700787402
21
1.215764842519685
0
LINE
8
BLACK
6
CONTINUOUS
10
1.0694443700787402
20
1.215764842519685
11
1.0694442913385827
21
1.2157649606299212
0
LINE
8
BLACK
6
CONTINUOUS
10
1.0694442913385827
20
1.2157649606299212
11
1.0693859055118109
21
1.2160479921259841
0
LINE
8
BLACK
6
CONTINUOUS
10
1.0693859055118109
20
1.2160479921259841
11
1.0693885826771654
21
1.2160485433070867
0
LINE
8
BLACK
6
CONTINUOUS
10
1.0693885826771654
20
1.2160485433070867
11
1.0693244488188975
21
1.2163378346456692
0
LINE
8
BLACK
6
CONTINUOUS
10
1.0693244488188975
20
1.2163378346456692
11
1.0693217716535433
21
1.2163372047244094
0
LINE
8
BLACK
6
CONTINUOUS
10
1.0693217716535433
20
1.2163372047244094
11
1.0692550787401573
21
1.2166184645669291
0
LINE
8
BLACK
6
CONTINUOUS
10
1.0692550787401573
20
1.2166184645669291
11
1.0692550787401573
21
1.2166186220472441
0
LINE
8
BLACK
6
CONTINUOUS
10
1.0692550787401573
20
1.2166186220472441
11
1.0682335039370079
21
1.2194253543307085
0
LINE
8
BLACK
6
CONTINUOUS
10
1.0682335039370079
20
1.2194253543307085
11
1.0681881496062993
21
1.219555748031496
0
LINE
8
BLACK
6
CONTINUOUS
10
1.0681881496062993
20
1.219555748031496
11
1.0672485826771654
21
1.2223912598425197
0
LINE
8
BLACK
6
CONTINUOUS
10
1.0672485826771654
20
1.2223912598425197
11
1.0672483070866141
21
1.222391653543307
0
LINE
8
BLACK
6
CONTINUOUS
10
1.0672483070866141
20
1.222391653543307
11
1.0671263779527558
21
1.2226532677165354
0
LINE
8
BLACK
6
CONTINUOUS
10
1.0671263779527558
20
1.2226532677165354
11
1.0671288188976378
21
1.222654409448819
0
LINE
8
BLACK
6
CONTINUOUS
10
1.0671288188976378
20
1.222654409448819
11
1.0669995669291339
21
1.2229213779527559
0
LINE
8
BLACK
6
CONTINUOUS
10
1.0669995669291339
20
1.2229213779527559
11
1.0669972047244094
21
1.2229201968503938
0
LINE
8
BLACK
6
CONTINUOUS
10
1.0669972047244094
20
1.2229201968503938
11
1.0668675984251967
21
1.2231781102362205
0
LINE
8
BLACK
6
CONTINUOUS
10
1.0668675984251967
20
1.2231781102362205
11
1.0668675196850395
21
1.2231784251968503
0
LINE
8
BLACK
6
CONTINUOUS
10
1.0668675196850395
20
1.2231784251968503
11
1.065226811023622
21
1.2256728740157481
0
LINE
8
BLACK
6
CONTINUOUS
10
1.065226811023622
20
1.2256728740157481
11
1.065149842519685
21
1.2257937401574803
0
LINE
8
BLACK
6
CONTINUOUS
10
1.065149842519685
20
1.2257937401574803
11
1.0635838582677166
21
1.228332716535433
0
LINE
8
BLACK
6
CONTINUOUS
10
1.0635838582677166
20
1.228332716535433
11
1.0635835039370078
21
1.228333031496063
0
LINE
8
BLACK
6
CONTINUOUS
10
1.0635835039370078
20
1.228333031496063
11
1.0634046062992126
21
1.2285593700787401
0
LINE
8
BLACK
6
CONTINUOUS
10
1.0634046062992126
20
1.2285593700787401
11
1.0634067322834646
21
1.2285610236220472
0
LINE
8
BLACK
6
CONTINUOUS
10
1.0634067322834646
20
1.2285610236220472
11
1.0632194881889763
21
1.2287909055118109
0
LINE
8
BLACK
6
CONTINUOUS
10
1.0632194881889763
20
1.2287909055118109
11
1.0632174409448818
21
1.2287892125984252
0
LINE
8
BLACK
6
CONTINUOUS
10
1.0632174409448818
20
1.2287892125984252
11
1.0630317716535433
21
1.2290103937007875
0
LINE
8
BLACK
6
CONTINUOUS
10
1.0630317716535433
20
1.2290103937007875
11
1.0630315354330708
21
1.2290107874015748
0
LINE
8
BLACK
6
CONTINUOUS
10
1.0630315354330708
20
1.2290107874015748
11
1.0608578740157479
21
1.2310614566929134
0
LINE
8
BLACK
6
CONTINUOUS
10
1.0608578740157479
20
1.2310614566929134
11
1.0607571259842519
21
1.2311593700787402
0
LINE
8
BLACK
6
CONTINUOUS
10
1.0607571259842519
20
1.2311593700787402
11
1.047594527559055
21
1.2443219685039371
0
LINE
8
BLACK
6
CONTINUOUS
10
1.047594527559055
20
1.2443219685039371
11
1.0471236614173227
21
1.2448668110236221
0
LINE
8
BLACK
6
CONTINUOUS
10
1.0471236614173227
20
1.2448668110236221
11
1.0465538976377953
21
1.2456322047244095
0
LINE
8
BLACK
6
CONTINUOUS
10
1.0465538976377953
20
1.2456322047244095
11
1.0450444881889764
21
1.2468987007874015
0
LINE
8
BLACK
6
CONTINUOUS
10
1.0450444881889764
20
1.2468987007874015
11
1.044725748031496
21
1.2471907480314961
0
LINE
8
BLACK
6
CONTINUOUS
10
1.044725748031496
20
1.2471907480314961
11
1.0445709055118111
21
1.2473456692913385
0
LINE
8
BLACK
6
CONTINUOUS
10
1.0445709055118111
20
1.2473456692913385
11
1.0436016929133858
21
1.248111968503937
0
LINE
8
BLACK
6
CONTINUOUS
10
1.0436016929133858
20
1.248111968503937
11
1.0434954724409449
21
1.2481984645669291
0
LINE
8
BLACK
6
CONTINUOUS
10
1.0434954724409449
20
1.2481984645669291
11
1.0412062992125983
21
1.2501193700787401
0
LINE
8
BLACK
6
CONTINUOUS
10
1.0412062992125983
20
1.2501193700787401
11
1.041206062992126
21
1.2501194488188976
0
LINE
8
BLACK
6
CONTINUOUS
10
1.041206062992126
20
1.2501194488188976
11
1.0412059842519685
21
1.2501195669291338
0
LINE
8
BLACK
6
CONTINUOUS
10
1.0412059842519685
20
1.2501195669291338
11
1.0409648818897637
21
1.2502781889763779
0
LINE
8
BLACK
6
CONTINUOUS
10
1.0409648818897637
20
1.2502781889763779
11
1.0409663385826771
21
1.2502803937007874
0
LINE
8
BLACK
6
CONTINUOUS
10
1.0409663385826771
20
1.2502803937007874
11
1.0407160236220472
21
1.2504398818897637
0
LINE
8
BLACK
6
CONTINUOUS
10
1.0407160236220472
20
1.2504398818897637
11
1.0407146062992125
21
1.2504375984251968
0
LINE
8
BLACK
6
CONTINUOUS
10
1.0407146062992125
20
1.2504375984251968
11
1.0404685433070866
21
1.25058937007874
0
LINE
8
BLACK
6
CONTINUOUS
10
1.0404685433070866
20
1.25058937007874
11
1.0377640551181102
21
1.2518504724409449
0
LINE
8
BLACK
6
CONTINUOUS
10
1.0377640551181102
20
1.2518504724409449
11
1.0376354330708661
21
1.2519126771653544
0
LINE
8
BLACK
6
CONTINUOUS
10
1.0376354330708661
20
1.2519126771653544
11
1.034968031496063
21
1.2532523228346457
0
LINE
8
BLACK
6
CONTINUOUS
10
1.034968031496063
20
1.2532523228346457
11
1.0349677559055117
21
1.2532523622047245
0
LINE
8
BLACK
6
CONTINUOUS
10
1.0349677559055117
20
1.2532523622047245
11
1.0346964960629921
21
1.2533511417322833
0
LINE
8
BLACK
6
CONTINUOUS
10
1.0346964960629921
20
1.2533511417322833
11
1.0346974015748032
21
1.2533537007874016
0
LINE
8
BLACK
6
CONTINUOUS
10
1.0346974015748032
20
1.2533537007874016
11
1.0344172047244093
21
1.2534511023622048
0
LINE
8
BLACK
6
CONTINUOUS
10
1.0344172047244093
20
1.2534511023622048
11
1.034416377952756
21
1.2534485826771653
0
LINE
8
BLACK
6
CONTINUOUS
10
1.034416377952756
20
1.2534485826771653
11
1.0341420078740158
21
1.2535394881889763
0
LINE
8
BLACK
6
CONTINUOUS
10
1.0341420078740158
20
1.2535394881889763
11
1.0312179527559056
21
1.2541432283464566
0
LINE
8
BLACK
6
CONTINUOUS
10
1.0312179527559056
20
1.2541432283464566
11
1.0310786220472441
21
1.254174094488189
0
LINE
8
BLACK
6
CONTINUOUS
10
1.0310786220472441
20
1.254174094488189
11
1.0281754330708661
21
1.2548622047244093
0
LINE
8
BLACK
6
CONTINUOUS
10
1.0281754330708661
20
1.2548622047244093
11
1.0281753937007874
21
1.2548622047244093
0
LINE
8
BLACK
6
CONTINUOUS
10
1.0281753937007874
20
1.2548622047244093
11
1.0278885039370078
21
1.254895748031496
0
LINE
8
BLACK
6
CONTINUOUS
10
1.0278885039370078
20
1.254895748031496
11
1.0278887795275591
21
1.2548983858267717
0
LINE
8
BLACK
6
CONTINUOUS
10
1.0278887795275591
20
1.2548983858267717
11
1.0275935826771654
21
1.2549285433070865
0
LINE
8
BLACK
6
CONTINUOUS
10
1.0275935826771654
20
1.2549285433070865
11
1.0275933858267716
21
1.2549259448818897
0
LINE
8
BLACK
6
CONTINUOUS
10
1.0275933858267716
20
1.2549259448818897
11
1.0273057086614172
21
1.2549510629921259
0
LINE
8
BLACK
6
CONTINUOUS
10
1.0273057086614172
20
1.2549510629921259
11
1.0273054330708662
21
1.2549511417322834
0
LINE
8
BLACK
6
CONTINUOUS
10
1.0273054330708662
20
1.2549511417322834
11
1.0243637401574803
21
1.2548655118110237
0
LINE
8
BLACK
6
CONTINUOUS
10
1.0243637401574803
20
1.2548655118110237
11
1.0243205118110237
21
1.2548642913385826
0
LINE
8
BLACK
6
CONTINUOUS
10
1.0243205118110237
20
1.2548642913385826
11
1.0241762598425197
21
1.2548622047244093
0
LINE
8
BLACK
6
CONTINUOUS
10
1.0241762598425197
20
1.2548622047244093
11
0.6872390157480315
21
1.2548622047244093
0
LINE
8
BLACK
6
CONTINUOUS
10
0.6872390157480315
20
1.2548622047244093
11
0.6845570866141732
21
1.2556496850393701
0
LINE
8
BLACK
6
CONTINUOUS
10
0.6845570866141732
20
1.2556496850393701
11
0.6837313385826771
21
1.2563151574803149
0
LINE
8
BLACK
6
CONTINUOUS
10
0.6837313385826771
20
1.2563151574803149
11
0.6440825590551181
21
1.2959639370078739
0
LINE
8
BLACK
6
CONTINUOUS
10
0.6440825590551181
20
1.2959639370078739
11
0.6427429527559055
21
1.2984171653543306
0
LINE
8
BLACK
6
CONTINUOUS
10
0.6427429527559055
20
1.2984171653543306
11
0.6429423622047244
21
1.301205157480315
0
LINE
8
BLACK
6
CONTINUOUS
10
0.6429423622047244
20
1.301205157480315
11
0.6440825590551181
21
1.3029792913385827
0
LINE
8
BLACK
6
CONTINUOUS
10
0.6440825590551181
20
1.3029792913385827
11
0.6443015748031496
21
1.3031983070866142
0
LINE
8
BLACK
6
CONTINUOUS
10
0.6443015748031496
20
1.3031983070866142
11
0.6460288582677165
21
1.3055056299212597
0
LINE
8
BLACK
6
CONTINUOUS
10
0.6460288582677165
20
1.3055056299212597
11
0.6482664960629921
21
1.3071806692913386
0
LINE
8
BLACK
6
CONTINUOUS
10
0.6482664960629921
20
1.3071806692913386
11
0.6510544881889764
21
1.3073800393700787
0
LINE
8
BLACK
6
CONTINUOUS
10
0.6510544881889764
20
1.3073800393700787
11
0.653507716535433
21
1.3060404724409449
0
LINE
8
BLACK
6
CONTINUOUS
10
0.653507716535433
20
1.3060404724409449
11
0.6539711417322834
21
1.3055056299212597
0
LINE
8
BLACK
6
CONTINUOUS
10
0.6539711417322834
20
1.3055056299212597
11
0.6556983464566929
21
1.3031983858267717
0
LINE
8
BLACK
6
CONTINUOUS
10
0.6556983464566929
20
1.3031983858267717
11
0.6603067716535433
21
1.2997485039370078
0
LINE
8
BLACK
6
CONTINUOUS
10
0.6603067716535433
20
1.2997485039370078
11
0.660306968503937
21
1.2997484251968503
0
LINE
8
BLACK
6
CONTINUOUS
10
0.660306968503937
20
1.2997484251968503
11
0.6657005905511811
21
1.297736653543307
0
LINE
8
BLACK
6
CONTINUOUS
10
0.6657005905511811
20
1.297736653543307
11
0.665700905511811
21
1.2977365748031495
0
LINE
8
BLACK
6
CONTINUOUS
10
0.665700905511811
20
1.2977365748031495
11
0.6680846456692914
21
1.29748031496063
0
LINE
8
BLACK
6
CONTINUOUS
10
0.6680846456692914
20
1.29748031496063
11
0.6680851181102362
21
1.29748031496063
0
LINE
8
BLACK
6
CONTINUOUS
10
0.6680851181102362
20
1.29748031496063
11
0.7319153149606299
21
1.29748031496063
0
LINE
8
BLACK
6
CONTINUOUS
10
0.7319153149606299
20
1.29748031496063
11
0.7342990551181102
21
1.2977365748031495
0
LINE
8
BLACK
6
CONTINUOUS
10
0.7342990551181102
20
1.2977365748031495
11
0.7342993700787401
21
1.297736653543307
0
LINE
8
BLACK
6
CONTINUOUS
10
0.7342993700787401
20
1.297736653543307
11
0.7396929921259843
21
1.2997484251968503
0
LINE
8
BLACK
6
CONTINUOUS
10
0.7396929921259843
20
1.2997484251968503
11
0.7396931889763779
21
1.2997485039370078
0
LINE
8
BLACK
6
CONTINUOUS
10
0.7396931889763779
20
1.2997485039370078
11
0.7443016141732284
21
1.303198346456693
0
LINE
8
BLACK
6
CONTINUOUS
10
0.7443016141732284
20
1.303198346456693
11
0.7477514566929133
21
1.3078067716535433
0
LINE
8
BLACK
6
CONTINUOUS
10
0.7477514566929133
20
1.3078067716535433
11
0.7477515354330708
21
1.3078069685039371
0
LINE
8
BLACK
6
CONTINUOUS
10
0.7477515354330708
20
1.3078069685039371
11
0.7497633070866142
21
1.313200590551181
0
LINE
8
BLACK
6
CONTINUOUS
10
0.7497633070866142
20
1.313200590551181
11
0.7497633858267716
21
1.313200905511811
0
LINE
8
BLACK
6
CONTINUOUS
10
0.7497633858267716
20
1.313200905511811
11
0.7500196456692914
21
1.3155846456692912
0
LINE
8
BLACK
6
CONTINUOUS
10
0.7500196456692914
20
1.3155846456692912
11
0.7500196850393701
21
1.3155853149606298
0
LINE
8
BLACK
6
CONTINUOUS
10
0.7500196850393701
20
1.3155853149606298
11
0.7500196850393701
21
1.3794146456692913
0
LINE
8
BLACK
6
CONTINUOUS
10
0.7500196850393701
20
1.3794146456692913
11
0.7500196456692914
21
1.3794153149606299
0
LINE
8
BLACK
6
CONTINUOUS
10
0.7500196456692914
20
1.3794153149606299
11
0.7497633858267716
21
1.3817990551181103
0
LINE
8
BLACK
6
CONTINUOUS
10
0.7497633858267716
20
1.3817990551181103
11
0.7497633070866142
21
1.3817993700787401
0
LINE
8
BLACK
6
CONTINUOUS
10
0.7497633070866142
20
1.3817993700787401
11
0.7494866141732284
21
1.3825411417322835
0
LINE
8
BLACK
6
CONTINUOUS
10
0.7494866141732284
20
1.3825411417322835
11
0.7477515354330708
21
1.3871930708661417
0
LINE
8
BLACK
6
CONTINUOUS
10
0.7477515354330708
20
1.3871930708661417
11
0.7443016141732284
21
1.3918016141732283
0
LINE
8
BLACK
6
CONTINUOUS
10
0.7443016141732284
20
1.3918016141732283
11
0.7419943700787401
21
1.3935288188976378
0
LINE
8
BLACK
6
CONTINUOUS
10
0.7419943700787401
20
1.3935288188976378
11
0.7403192913385827
21
1.3957664566929133
0
LINE
8
BLACK
6
CONTINUOUS
10
0.7403192913385827
20
1.3957664566929133
11
0.7401199212598425
21
1.3985544881889764
0
LINE
8
BLACK
6
CONTINUOUS
10
0.7401199212598425
20
1.3985544881889764
11
0.7414594881889763
21
1.4010077165354331
0
LINE
8
BLACK
6
CONTINUOUS
10
0.7414594881889763
20
1.4010077165354331
11
0.7419943700787401
21
1.4014711811023621
0
LINE
8
BLACK
6
CONTINUOUS
10
0.7419943700787401
20
1.4014711811023621
11
0.7443016141732284
21
1.4031983464566928
0
LINE
8
BLACK
6
CONTINUOUS
10
0.7443016141732284
20
1.4031983464566928
11
0.7477514566929133
21
1.4078067716535432
0
LINE
8
BLACK
6
CONTINUOUS
10
0.7477514566929133
20
1.4078067716535432
11
0.7477515354330708
21
1.4078069685039369
0
LINE
8
BLACK
6
CONTINUOUS
10
0.7477515354330708
20
1.4078069685039369
11
0.7497633070866142
21
1.4132005905511811
0
LINE
8
BLACK
6
CONTINUOUS
10
0.7497633070866142
20
1.4132005905511811
11
0.7497633858267716
21
1.4132009055118111
0
LINE
8
BLACK
6
CONTINUOUS
10
0.7497633858267716
20
1.4132009055118111
11
0.7500196456692914
21
1.4155846456692913
0
LINE
8
BLACK
6
CONTINUOUS
10
0.7500196456692914
20
1.4155846456692913
11
0.7500196850393701
21
1.4155853149606299
0
LINE
8
BLACK
6
CONTINUOUS
10
0.7500196850393701
20
1.4155853149606299
11
0.7500196850393701
21
1.4794146456692914
0
LINE
8
BLACK
6
CONTINUOUS
10
0.7500196850393701
20
1.4794146456692914
11
0.7500196456692914
21
1.4794153149606299
0
LINE
8
BLACK
6
CONTINUOUS
10
0.7500196456692914
20
1.4794153149606299
11
0.7497633858267716
21
1.4817990551181102
0
LINE
8
BLACK
6
CONTINUOUS
10
0.7497633858267716
20
1.4817990551181102
11
0.7497633070866142
21
1.4817993700787402
0
LINE
8
BLACK
6
CONTINUOUS
10
0.7497633070866142
20
1.4817993700787402
11
0.7494866141732284
21
1.4825411417322834
0
LINE
8
BLACK
6
CONTINUOUS
10
0.7494866141732284
20
1.4825411417322834
11
0.7477515354330708
21
1.4871930708661416
0
LINE
8
BLACK
6
CONTINUOUS
10
0.7477515354330708
20
1.4871930708661416
11
0.7443016141732284
21
1.4918016141732282
0
LINE
8
BLACK
6
CONTINUOUS
10
0.7443016141732284
20
1.4918016141732282
11
0.7396930708661417
21
1.4952515354330709
0
LINE
8
BLACK
6
CONTINUOUS
10
0.7396930708661417
20
1.4952515354330709
11
0.7342992519685039
21
1.4972633464566929
0
LINE
8
BLACK
6
CONTINUOUS
10
0.7342992519685039
20
1.4972633464566929
11
0.7342991732283465
21
1.4972633464566929
0
LINE
8
BLACK
6
CONTINUOUS
10
0.7342991732283465
20
1.4972633464566929
11
0.7342990551181102
21
1.4972633858267717
0
LINE
8
BLACK
6
CONTINUOUS
10
0.7342990551181102
20
1.4972633858267717
11
0.7319153149606299
21
1.4975196456692914
0
LINE
8
BLACK
6
CONTINUOUS
10
0.7319153149606299
20
1.4975196456692914
11
0.731915157480315
21
1.4975196456692914
0
LINE
8
BLACK
6
CONTINUOUS
10
0.731915157480315
20
1.4975196456692914
11
0.7319148818897637
21
1.4975196850393699
0
LINE
8
BLACK
6
CONTINUOUS
10
0.7319148818897637
20
1.4975196850393699
11
0.6680851181102362
21
1.4975196850393699
0
LINE
8
BLACK
6
CONTINUOUS
10
0.6680851181102362
20
1.4975196850393699
11
0.668084842519685
21
1.4975196456692914
0
LINE
8
BLACK
6
CONTINUOUS
10
0.668084842519685
20
1.4975196456692914
11
0.6680846456692914
21
1.4975196456692914
0
LINE
8
BLACK
6
CONTINUOUS
10
0.6680846456692914
20
1.4975196456692914
11
0.665700905511811
21
1.4972633858267717
0
LINE
8
BLACK
6
CONTINUOUS
10
0.665700905511811
20
1.4972633858267717
11
0.6657005905511811
21
1.4972633070866141
0
LINE
8
BLACK
6
CONTINUOUS
10
0.6657005905511811
20
1.4972633070866141
11
0.662632874015748
21
1.4961190551181103
0
LINE
8
BLACK
6
CONTINUOUS
10
0.662632874015748
20
1.4961190551181103
11
0.6603069291338582
21
1.4952515354330709
0
LINE
8
BLACK
6
CONTINUOUS
10
0.6603069291338582
20
1.4952515354330709
11
0.6603068503937007
21
1.4952514960629921
0
LINE
8
BLACK
6
CONTINUOUS
10
0.6603068503937007
20
1.4952514960629921
11
0.6603067716535433
21
1.4952514566929134
0
LINE
8
BLACK
6
CONTINUOUS
10
0.6603067716535433
20
1.4952514566929134
11
0.6556983464566929
21
1.4918016141732282
0
LINE
8
BLACK
6
CONTINUOUS
10
0.6556983464566929
20
1.4918016141732282
11
0.6539711811023622
21
1.4894943700787402
0
LINE
8
BLACK
6
CONTINUOUS
10
0.6539711811023622
20
1.4894943700787402
11
0.6517335433070865
21
1.4878192913385826
0
LINE
8
BLACK
6
CONTINUOUS
10
0.6517335433070865
20
1.4878192913385826
11
0.6489455118110236
21
1.4876199212598424
0
LINE
8
BLACK
6
CONTINUOUS
10
0.6489455118110236
20
1.4876199212598424
11
0.6464922834645669
21
1.4889594881889763
0
LINE
8
BLACK
6
CONTINUOUS
10
0.6464922834645669
20
1.4889594881889763
11
0.6460288188976377
21
1.4894943700787402
0
LINE
8
BLACK
6
CONTINUOUS
10
0.6460288188976377
20
1.4894943700787402
11
0.6443016141732283
21
1.4918016141732282
0
LINE
8
BLACK
6
CONTINUOUS
10
0.6443016141732283
20
1.4918016141732282
11
0.6396931889763779
21
1.4952514566929134
0
LINE
8
BLACK
6
CONTINUOUS
10
0.6396931889763779
20
1.4952514566929134
11
0.6396931496062992
21
1.4952514566929134
0
LINE
8
BLACK
6
CONTINUOUS
10
0.6396931496062992
20
1.4952514566929134
11
0.6396930708661417
21
1.4952515354330709
0
LINE
8
BLACK
6
CONTINUOUS
10
0.6396930708661417
20
1.4952515354330709
11
0.6342992519685039
21
1.4972633464566929
0
LINE
8
BLACK
6
CONTINUOUS
10
0.6342992519685039
20
1.4972633464566929
11
0.6342991732283464
21
1.4972633464566929
0
LINE
8
BLACK
6
CONTINUOUS
10
0.6342991732283464
20
1.4972633464566929
11
0.6342990551181102
21
1.4972633858267717
0
LINE
8
BLACK
6
CONTINUOUS
10
0.6342990551181102
20
1.4972633858267717
11
0.6319153149606299
21
1.4975196456692914
0
LINE
8
BLACK
6
CONTINUOUS
10
0.6319153149606299
20
1.4975196456692914
11
0.6319151574803149
21
1.4975196456692914
0
LINE
8
BLACK
6
CONTINUOUS
10
0.6319151574803149
20
1.4975196456692914
11
0.6319148818897637
21
1.4975196850393699
0
LINE
8
BLACK
6
CONTINUOUS
10
0.6319148818897637
20
1.4975196850393699
11
0.5680851181102362
21
1.4975196850393699
0
LINE
8
BLACK
6
CONTINUOUS
10
0.5680851181102362
20
1.4975196850393699
11
0.5680848425196851
21
1.4975196456692914
0
LINE
8
BLACK
6
CONTINUOUS
10
0.5680848425196851
20
1.4975196456692914
11
0.5680846456692913
21
1.4975196456692914
0
LINE
8
BLACK
6
CONTINUOUS
10
0.5680846456692913
20
1.4975196456692914
11
0.565700905511811
21
1.4972633858267717
0
LINE
8
BLACK
6
CONTINUOUS
10
0.565700905511811
20
1.4972633858267717
11
0.565700590551181
21
1.4972633070866141
0
LINE
8
BLACK
6
CONTINUOUS
10
0.565700590551181
20
1.4972633070866141
11
0.562632874015748
21
1.4961190551181103
0
LINE
8
BLACK
6
CONTINUOUS
10
0.562632874015748
20
1.4961190551181103
11
0.5603069291338583
21
1.4952515354330709
0
LINE
8
BLACK
6
CONTINUOUS
10
0.5603069291338583
20
1.4952515354330709
11
0.5603068503937008
21
1.4952514960629921
0
LINE
8
BLACK
6
CONTINUOUS
10
0.5603068503937008
20
1.4952514960629921
11
0.5603067716535433
21
1.4952514566929134
0
LINE
8
BLACK
6
CONTINUOUS
10
0.5603067716535433
20
1.4952514566929134
11
0.5556983464566929
21
1.4918016141732282
0
LINE
8
BLACK
6
CONTINUOUS
10
0.5556983464566929
20
1.4918016141732282
11
0.5539711811023622
21
1.4894943700787402
0
LINE
8
BLACK
6
CONTINUOUS
10
0.5539711811023622
20
1.4894943700787402
11
0.5517335433070866
21
1.4878192913385826
0
LINE
8
BLACK
6
CONTINUOUS
10
0.5517335433070866
20
1.4878192913385826
11
0.5489455118110236
21
1.4876199212598424
0
LINE
8
BLACK
6
CONTINUOUS
10
0.5489455118110236
20
1.4876199212598424
11
0.5464922834645669
21
1.4889594881889763
0
LINE
8
BLACK
6
CONTINUOUS
10
0.5464922834645669
20
1.4889594881889763
11
0.5460288188976378
21
1.4894943700787402
0
LINE
8
BLACK
6
CONTINUOUS
10
0.5460288188976378
20
1.4894943700787402
11
0.5443016141732283
21
1.4918016141732282
0
LINE
8
BLACK
6
CONTINUOUS
10
0.5443016141732283
20
1.4918016141732282
11
0.539693188976378
21
1.4952514566929134
0
LINE
8
BLACK
6
CONTINUOUS
10
0.539693188976378
20
1.4952514566929134
11
0.5396931496062992
21
1.4952514566929134
0
LINE
8
BLACK
6
CONTINUOUS
10
0.5396931496062992
20
1.4952514566929134
11
0.5396930708661417
21
1.4952515354330709
0
LINE
8
BLACK
6
CONTINUOUS
10
0.5396930708661417
20
1.4952515354330709
11
0.5342992519685039
21
1.4972633464566929
0
LINE
8
BLACK
6
CONTINUOUS
10
0.5342992519685039
20
1.4972633464566929
11
0.5342991732283464
21
1.4972633464566929
0
LINE
8
BLACK
6
CONTINUOUS
10
0.5342991732283464
20
1.4972633464566929
11
0.5342990551181103
21
1.4972633858267717
0
LINE
8
BLACK
6
CONTINUOUS
10
0.5342990551181103
20
1.4972633858267717
11
0.5319153149606299
21
1.4975196456692914
0
LINE
8
BLACK
6
CONTINUOUS
10
0.5319153149606299
20
1.4975196456692914
11
0.5319151574803149
21
1.4975196456692914
0
LINE
8
BLACK
6
CONTINUOUS
10
0.5319151574803149
20
1.4975196456692914
11
0.5319148818897638
21
1.4975196850393699
0
LINE
8
BLACK
6
CONTINUOUS
10
0.5319148818897638
20
1.4975196850393699
11
0.4680851181102362
21
1.4975196850393699
0
LINE
8
BLACK
6
CONTINUOUS
10
0.4680851181102362
20
1.4975196850393699
11
0.468084842519685
21
1.4975196456692914
0
LINE
8
BLACK
6
CONTINUOUS
10
0.468084842519685
20
1.4975196456692914
11
0.4680846456692913
21
1.4975196456692914
0
LINE
8
BLACK
6
CONTINUOUS
10
0.4680846456692913
20
1.4975196456692914
11
0.465700905511811
21
1.4972633858267717
0
LINE
8
BLACK
6
CONTINUOUS
10
0.465700905511811
20
1.4972633858267717
11
0.4657005905511811
21
1.4972633070866141
0
LINE
8
BLACK
6
CONTINUOUS
10
0.4657005905511811
20
1.4972633070866141
11
0.462632874015748
21
1.4961190551181103
0
LINE
8
BLACK
6
CONTINUOUS
10
0.462632874015748
20
1.4961190551181103
11
0.4603069291338582
21
1.4952515354330709
0
LINE
8
BLACK
6
CONTINUOUS
10
0.4603069291338582
20
1.4952515354330709
11
0.4603068503937008
21
1.4952514960629921
0
LINE
8
BLACK
6
CONTINUOUS
10
0.4603068503937008
20
1.4952514960629921
11
0.4603067716535433
21
1.4952514566929134
0
LINE
8
BLACK
6
CONTINUOUS
10
0.4603067716535433
20
1.4952514566929134
11
0.4556983464566929
21
1.4918016141732282
0
LINE
8
BLACK
6
CONTINUOUS
10
0.4556983464566929
20
1.4918016141732282
11
0.4522485039370079
21
1.4871931889763779
0
LINE
8
BLACK
6
CONTINUOUS
10
0.4522485039370079
20
1.4871931889763779
11
0.4522484251968504
21
1.4871929921259843
0
LINE
8
BLACK
6
CONTINUOUS
10
0.4522484251968504
20
1.4871929921259843
11
0.4502366535433071
21
1.4817993700787402
0
LINE
8
BLACK
6
CONTINUOUS
10
0.4502366535433071
20
1.4817993700787402
11
0.4502365748031496
21
1.4817990551181102
0
LINE
8
BLACK
6
CONTINUOUS
10
0.4502365748031496
20
1.4817990551181102
11
0.4499803149606299
21
1.4794153149606299
0
LINE
8
BLACK
6
CONTINUOUS
10
0.4499803149606299
20
1.4794153149606299
11
0.4499803149606299
21
1.4155846456692913
0
LINE
8
BLACK
6
CONTINUOUS
10
0.4499803149606299
20
1.4155846456692913
11
0.4502365748031496
21
1.4132009055118111
0
LINE
8
BLACK
6
CONTINUOUS
10
0.4502365748031496
20
1.4132009055118111
11
0.4502366535433071
21
1.4132005905511811
0
LINE
8
BLACK
6
CONTINUOUS
10
0.4502366535433071
20
1.4132005905511811
11
0.4522484251968504
21
1.4078069685039369
0
LINE
8
BLACK
6
CONTINUOUS
10
0.4522484251968504
20
1.4078069685039369
11
0.4522485039370079
21
1.4078067716535432
0
LINE
8
BLACK
6
CONTINUOUS
10
0.4522485039370079
20
1.4078067716535432
11
0.4556983858267716
21
1.4031983464566928
0
LINE
8
BLACK
6
CONTINUOUS
10
0.4556983858267716
20
1.4031983464566928
11
0.4580056299212598
21
1.4014711417322834
0
LINE
8
BLACK
6
CONTINUOUS
10
0.4580056299212598
20
1.4014711417322834
11
0.4596806692913386
21
1.3992335039370078
0
LINE
8
BLACK
6
CONTINUOUS
10
0.4596806692913386
20
1.3992335039370078
11
0.4598800393700787
21
1.3964455118110235
0
LINE
8
BLACK
6
CONTINUOUS
10
0.4598800393700787
20
1.3964455118110235
11
0.4585404724409449
21
1.3939922834645668
0
LINE
8
BLACK
6
CONTINUOUS
10
0.4585404724409449
20
1.3939922834645668
11
0.4580056299212598
21
1.3935288582677166
0
LINE
8
BLACK
6
CONTINUOUS
10
0.4580056299212598
20
1.3935288582677166
11
0.4556983858267716
21
1.3918016141732283
0
LINE
8
BLACK
6
CONTINUOUS
10
0.4556983858267716
20
1.3918016141732283
11
0.4522485039370079
21
1.387193188976378
0
LINE
8
BLACK
6
CONTINUOUS
10
0.4522485039370079
20
1.387193188976378
11
0.4522484251968504
21
1.3871929921259842
0
LINE
8
BLACK
6
CONTINUOUS
10
0.4522484251968504
20
1.3871929921259842
11
0.4502366535433071
21
1.3817993700787401
0
LINE
8
BLACK
6
CONTINUOUS
10
0.4502366535433071
20
1.3817993700787401
11
0.4502365748031496
21
1.3817990551181103
0
LINE
8
BLACK
6
CONTINUOUS
10
0.4502365748031496
20
1.3817990551181103
11
0.4499803149606299
21
1.3794153149606299
0
LINE
8
BLACK
6
CONTINUOUS
10
0.4499803149606299
20
1.3794153149606299
11
0.4499803149606299
21
1.3155846456692912
0
LINE
8
BLACK
6
CONTINUOUS
10
0.4499803149606299
20
1.3155846456692912
11
0.4502365748031496
21
1.313200905511811
0
LINE
8
BLACK
6
CONTINUOUS
10
0.4502365748031496
20
1.313200905511811
11
0.4502366535433071
21
1.313200590551181
0
LINE
8
BLACK
6
CONTINUOUS
10
0.4502366535433071
20
1.313200590551181
11
0.4522484251968504
21
1.3078069685039371
0
LINE
8
BLACK
6
CONTINUOUS
10
0.4522484251968504
20
1.3078069685039371
11
0.4522485039370079
21
1.3078067716535433
0
LINE
8
BLACK
6
CONTINUOUS
10
0.4522485039370079
20
1.3078067716535433
11
0.4556983464566929
21
1.303198346456693
0
LINE
8
BLACK
6
CONTINUOUS
10
0.4556983464566929
20
1.303198346456693
11
0.4603067716535433
21
1.2997485039370078
0
LINE
8
BLACK
6
CONTINUOUS
10
0.4603067716535433
20
1.2997485039370078
11
0.460306968503937
21
1.2997484251968503
0
LINE
8
BLACK
6
CONTINUOUS
10
0.460306968503937
20
1.2997484251968503
11
0.4657005905511811
21
1.297736653543307
0
LINE
8
BLACK
6
CONTINUOUS
10
0.4657005905511811
20
1.297736653543307
11
0.465700905511811
21
1.2977365748031495
0
LINE
8
BLACK
6
CONTINUOUS
10
0.465700905511811
20
1.2977365748031495
11
0.4680846456692913
21
1.29748031496063
0
LINE
8
BLACK
6
CONTINUOUS
10
0.4680846456692913
20
1.29748031496063
11
0.4680851181102362
21
1.29748031496063
0
LINE
8
BLACK
6
CONTINUOUS
10
0.4680851181102362
20
1.29748031496063
11
0.5319153149606299
21
1.29748031496063
0
LINE
8
BLACK
6
CONTINUOUS
10
0.5319153149606299
20
1.29748031496063
11
0.5342990551181103
21
1.2977365748031495
0
LINE
8
BLACK
6
CONTINUOUS
10
0.5342990551181103
20
1.2977365748031495
11
0.5342993700787402
21
1.297736653543307
0
LINE
8
BLACK
6
CONTINUOUS
10
0.5342993700787402
20
1.297736653543307
11
0.5396929921259842
21
1.2997484251968503
0
LINE
8
BLACK
6
CONTINUOUS
10
0.5396929921259842
20
1.2997484251968503
11
0.539693188976378
21
1.2997485039370078
0
LINE
8
BLACK
6
CONTINUOUS
10
0.539693188976378
20
1.2997485039370078
11
0.5443016141732283
21
1.3031983858267717
0
LINE
8
BLACK
6
CONTINUOUS
10
0.5443016141732283
20
1.3031983858267717
11
0.5460288582677165
21
1.3055056299212597
0
LINE
8
BLACK
6
CONTINUOUS
10
0.5460288582677165
20
1.3055056299212597
11
0.5482664960629922
21
1.3071806692913386
0
LINE
8
BLACK
6
CONTINUOUS
10
0.5482664960629922
20
1.3071806692913386
11
0.5510544881889764
21
1.3073800393700787
0
LINE
8
BLACK
6
CONTINUOUS
10
0.5510544881889764
20
1.3073800393700787
11
0.5535077165354331
21
1.3060404724409449
0
LINE
8
BLACK
6
CONTINUOUS
10
0.5535077165354331
20
1.3060404724409449
11
0.5539711417322835
21
1.3055056299212597
0
LINE
8
BLACK
6
CONTINUOUS
10
0.5539711417322835
20
1.3055056299212597
11
0.5556983858267717
21
1.3031983070866142
0
LINE
8
BLACK
6
CONTINUOUS
10
0.5556983858267717
20
1.3031983070866142
11
0.5559174409448818
21
1.3029792913385827
0
LINE
8
BLACK
6
CONTINUOUS
10
0.5559174409448818
20
1.3029792913385827
11
0.5572570472440945
21
1.300526062992126
0
LINE
8
BLACK
6
CONTINUOUS
10
0.5572570472440945
20
1.300526062992126
11
0.5570576377952756
21
1.2977380708661417
0
LINE
8
BLACK
6
CONTINUOUS
10
0.5570576377952756
20
1.2977380708661417
11
0.5559174409448818
21
1.2959639370078739
0
LINE
8
BLACK
6
CONTINUOUS
10
0.5559174409448818
20
1.2959639370078739
11
0.5239457874015748
21
1.2639922834645669
0
LINE
8
BLACK
6
CONTINUOUS
10
0.5239457874015748
20
1.2639922834645669
11
0.521492559055118
21
1.2626526771653543
0
LINE
8
BLACK
6
CONTINUOUS
10
0.521492559055118
20
1.2626526771653543
11
0.5204381102362204
21
1.2625393307086614
0
LINE
8
BLACK
6
CONTINUOUS
10
0.5204381102362204
20
1.2625393307086614
11
0.3299446456692913
21
1.2625393307086614
0
LINE
8
BLACK
6
CONTINUOUS
10
0.3299446456692913
20
1.2625393307086614
11
0.327262716535433
21
1.263326811023622
0
LINE
8
BLACK
6
CONTINUOUS
10
0.327262716535433
20
1.263326811023622
11
0.3267975984251968
21
1.2636653937007873
0
LINE
8
BLACK
6
CONTINUOUS
10
0.3267975984251968
20
1.2636653937007873
11
0.32636
21
1.2640245275590551
0
LINE
8
BLACK
6
CONTINUOUS
10
0.32636
20
1.2640245275590551
11
0.319841968503937
21
1.2675085039370078
0
LINE
8
BLACK
6
CONTINUOUS
10
0.319841968503937
20
1.2675085039370078
11
0.3127694881889764
21
1.2696539370078739
0
LINE
8
BLACK
6
CONTINUOUS
10
0.3127694881889764
20
1.2696539370078739
11
0.3127692519685039
21
1.2696539370078739
0
LINE
8
BLACK
6
CONTINUOUS
10
0.3127692519685039
20
1.2696539370078739
11
0.3127692125984252
21
1.2696539763779526
0
LINE
8
BLACK
6
CONTINUOUS
10
0.3127692125984252
20
1.2696539763779526
11
0.3054144488188976
21
1.2703783464566929
0
LINE
8
BLACK
6
CONTINUOUS
10
0.3054144488188976
20
1.2703783464566929
11
0.3054142125984252
21
1.2703783464566929
0
LINE
8
BLACK
6
CONTINUOUS
10
0.3054142125984252
20
1.2703783464566929
11
0.2980594488188976
21
1.2696539763779526
0
LINE
8
BLACK
6
CONTINUOUS
10
0.2980594488188976
20
1.2696539763779526
11
0.2980593700787402
21
1.2696539763779526
0
LINE
8
BLACK
6
CONTINUOUS
10
0.2980593700787402
20
1.2696539763779526
11
0.2980592519685039
21
1.2696539370078739
0
LINE
8
BLACK
6
CONTINUOUS
10
0.2980592519685039
20
1.2696539370078739
11
0.2980591732283465
21
1.2696539370078739
0
LINE
8
BLACK
6
CONTINUOUS
10
0.2980591732283465
20
1.2696539370078739
11
0.2909866929133858
21
1.2675085039370078
0
LINE
8
BLACK
6
CONTINUOUS
10
0.2909866929133858
20
1.2675085039370078
11
0.2844686614173229
21
1.2640245275590551
0
LINE
8
BLACK
6
CONTINUOUS
10
0.2844686614173229
20
1.2640245275590551
11
0.2787555511811023
21
1.259335905511811
0
LINE
8
BLACK
6
CONTINUOUS
10
0.2787555511811023
20
1.259335905511811
11
0.2751137795275591
21
1.2548983858267717
0
LINE
8
BLACK
6
CONTINUOUS
10
0.2751137795275591
20
1.2548983858267717
11
0.2740669291338583
21
1.2536227952755905
0
LINE
8
BLACK
6
CONTINUOUS
10
0.2740669291338583
20
1.2536227952755905
11
0.2705829921259842
21
1.2471048818897637
0
LINE
8
BLACK
6
CONTINUOUS
10
0.2705829921259842
20
1.2471048818897637
11
0.2705829133858267
21
1.2471046456692914
0
LINE
8
BLACK
6
CONTINUOUS
10
0.2705829133858267
20
1.2471046456692914
11
0.2684374409448819
21
1.2400320472440944
0
LINE
8
BLACK
6
CONTINUOUS
10
0.2684374409448819
20
1.2400320472440944
11
0.2684374409448819
21
1.2400319685039369
0
LINE
8
BLACK
6
CONTINUOUS
10
0.2684374409448819
20
1.2400319685039369
11
0.2677131102362205
21
1.2326772440944882
0
LINE
8
BLACK
6
CONTINUOUS
10
0.2677131102362205
20
1.2326772440944882
11
0.2677131102362205
21
1.2326769685039369
0
LINE
8
BLACK
6
CONTINUOUS
10
0.2677131102362205
20
1.2326769685039369
11
0.2684374409448819
21
1.2253222440944882
0
LINE
8
BLACK
6
CONTINUOUS
10
0.2684374409448819
20
1.2253222440944882
11
0.2684374409448819
21
1.2253221653543307
0
LINE
8
BLACK
6
CONTINUOUS
10
0.2684374409448819
20
1.2253221653543307
11
0.2705829133858267
21
1.2182495669291338
0
LINE
8
BLACK
6
CONTINUOUS
10
0.2705829133858267
20
1.2182495669291338
11
0.2705829921259842
21
1.2182493307086615
0
LINE
8
BLACK
6
CONTINUOUS
10
0.2705829921259842
20
1.2182493307086615
11
0.2740669291338583
21
1.2117314173228346
0
LINE
8
BLACK
6
CONTINUOUS
10
0.2740669291338583
20
1.2117314173228346
11
0.2787555511811023
21
1.2060183464566929
0
LINE
8
BLACK
6
CONTINUOUS
10
0.2787555511811023
20
1.2060183464566929
11
0.2844686220472441
21
1.2013297244094487
0
LINE
8
BLACK
6
CONTINUOUS
10
0.2844686220472441
20
1.2013297244094487
11
0.2909865354330708
21
1.1978457874015749
0
LINE
8
BLACK
6
CONTINUOUS
10
0.2909865354330708
20
1.1978457874015749
11
0.2909867716535433
21
1.1978457086614174
0
LINE
8
BLACK
6
CONTINUOUS
10
0.2909867716535433
20
1.1978457086614174
11
0.2980594094488189
21
1.1957002362204725
0
LINE
8
BLACK
6
CONTINUOUS
10
0.2980594094488189
20
1.1957002362204725
11
0.3054142125984252
21
1.194975905511811
0
LINE
8
BLACK
6
CONTINUOUS
10
0.3054142125984252
20
1.194975905511811
11
0.3054143307086614
21
1.194975905511811
0
LINE
8
BLACK
6
CONTINUOUS
10
0.3054143307086614
20
1.194975905511811
11
0.3054144488188976
21
1.194975905511811
0
LINE
8
BLACK
6
CONTINUOUS
10
0.3054144488188976
20
1.194975905511811
11
0.3127691732283465
21
1.1957002362204725
0
LINE
8
BLACK
6
CONTINUOUS
10
0.3127691732283465
20
1.1957002362204725
11
0.3127692519685039
21
1.1957002362204725
0
LINE
8
BLACK
6
CONTINUOUS
10
0.3127692519685039
20
1.1957002362204725
11
0.3198418503937008
21
1.1978457086614174
0
LINE
8
BLACK
6
CONTINUOUS
10
0.3198418503937008
20
1.1978457086614174
11
0.3198420866141732
21
1.1978457874015749
0
LINE
8
BLACK
6
CONTINUOUS
10
0.3198420866141732
20
1.1978457874015749
11
0.32636
21
1.2013297244094487
0
LINE
8
BLACK
6
CONTINUOUS
10
0.32636
20
1.2013297244094487
11
0.3267975984251968
21
1.2016888582677165
0
LINE
8
BLACK
6
CONTINUOUS
10
0.3267975984251968
20
1.2016888582677165
11
0.3293703149606299
21
1.2027815748031496
0
LINE
8
BLACK
6
CONTINUOUS
10
0.3293703149606299
20
1.2027815748031496
11
0.3299446456692913
21
1.2028149212598425
0
LINE
8
BLACK
6
CONTINUOUS
10
0.3299446456692913
20
1.2028149212598425
11
0.4909272047244094
21
1.2028149212598425
0
LINE
8
BLACK
6
CONTINUOUS
10
0.4909272047244094
20
1.2028149212598425
11
0.5323251181102362
21
1.2028149212598425
0
LINE
8
BLACK
6
CONTINUOUS
10
0.5323251181102362
20
1.2028149212598425
11
0.5330440157480315
21
1.2027625590551181
0
LINE
8
BLACK
6
CONTINUOUS
10
0.5330440157480315
20
1.2027625590551181
11
0.5339876377952756
21
1.2026243307086615
0
LINE
8
BLACK
6
CONTINUOUS
10
0.5339876377952756
20
1.2026243307086615
11
0.5339876771653543
21
1.2026243307086615
0
LINE
8
BLACK
6
CONTINUOUS
10
0.5339876771653543
20
1.2026243307086615
11
0.5339877165354331
21
1.2026243307086615
0
LINE
8
BLACK
6
CONTINUOUS
10
0.5339877165354331
20
1.2026243307086615
11
0.5359505905511811
21
1.2027960629921259
0
LINE
8
BLACK
6
CONTINUOUS
10
0.5359505905511811
20
1.2027960629921259
11
0.5363829133858268
21
1.2028149212598425
0
LINE
8
BLACK
6
CONTINUOUS
10
0.5363829133858268
20
1.2028149212598425
11
0.5366017322834645
21
1.2028149212598425
0
LINE
8
BLACK
6
CONTINUOUS
10
0.5366017322834645
20
1.2028149212598425
11
0.5378262992125984
21
1.2029580314960631
0
LINE
8
BLACK
6
CONTINUOUS
10
0.5378262992125984
20
1.2029580314960631
11
0.5379697244094488
21
1.2029726771653544
0
LINE
8
BLACK
6
CONTINUOUS
10
0.5379697244094488
20
1.2029726771653544
11
0.5409416141732283
21
1.2032326771653543
0
LINE
8
BLACK
6
CONTINUOUS
10
0.5409416141732283
20
1.2032326771653543
11
0.5412246062992125
21
1.2032911417322834
0
LINE
8
BLACK
6
CONTINUOUS
10
0.5412246062992125
20
1.2032911417322834
11
0.5412251181102362
21
1.2032885826771653
0
LINE
8
BLACK
6
CONTINUOUS
10
0.5412251181102362
20
1.2032885826771653
11
0.5415152755905511
21
1.2033529133858267
0
LINE
8
BLACK
6
CONTINUOUS
10
0.5415152755905511
20
1.2033529133858267
11
0.5415147244094488
21
1.203355433070866
0
LINE
8
BLACK
6
CONTINUOUS
10
0.5415147244094488
20
1.203355433070866
11
0.5417958661417323
21
1.2034220472440944
0
LINE
8
BLACK
6
CONTINUOUS
10
0.5417958661417323
20
1.2034220472440944
11
0.5443385433070866
21
1.2043475196850393
0
LINE
8
BLACK
6
CONTINUOUS
10
0.5443385433070866
20
1.2043475196850393
11
0.5446002755905511
21
1.2044427952755905
0
LINE
8
BLACK
6
CONTINUOUS
10
0.5446002755905511
20
1.2044427952755905
11
0.5447363385826771
21
1.2044900787401573
0
LINE
8
BLACK
6
CONTINUOUS
10
0.5447363385826771
20
1.2044900787401573
11
0.5475682677165354
21
1.2054284645669291
0
LINE
8
BLACK
6
CONTINUOUS
10
0.5475682677165354
20
1.2054284645669291
11
0.5478301968503937
21
1.2055506299212597
0
LINE
8
BLACK
6
CONTINUOUS
10
0.5478301968503937
20
1.2055506299212597
11
0.5478312992125984
21
1.2055482283464567
0
LINE
8
BLACK
6
CONTINUOUS
10
0.5478312992125984
20
1.2055482283464567
11
0.5480984645669291
21
1.2056775590551181
0
LINE
8
BLACK
6
CONTINUOUS
10
0.5480984645669291
20
1.2056775590551181
11
0.5480973228346456
21
1.2056798818897638
0
LINE
8
BLACK
6
CONTINUOUS
10
0.5480973228346456
20
1.2056798818897638
11
0.5483554724409448
21
1.205809527559055
0
LINE
8
BLACK
6
CONTINUOUS
10
0.5483554724409448
20
1.205809527559055
11
0.5508497244094488
21
1.2074500393700787
0
LINE
8
BLACK
6
CONTINUOUS
10
0.5508497244094488
20
1.2074500393700787
11
0.5509695275590551
21
1.2075263779527559
0
LINE
8
BLACK
6
CONTINUOUS
10
0.5509695275590551
20
1.2075263779527559
11
0.553509842519685
21
1.2090932677165354
0
LINE
8
BLACK
6
CONTINUOUS
10
0.553509842519685
20
1.2090932677165354
11
0.5535099606299212
21
1.2090933464566929
0
LINE
8
BLACK
6
CONTINUOUS
10
0.5535099606299212
20
1.2090933464566929
11
0.5537364960629921
21
1.2092724803149606
0
LINE
8
BLACK
6
CONTINUOUS
10
0.5537364960629921
20
1.2092724803149606
11
0.5537381496062992
21
1.2092703543307086
0
LINE
8
BLACK
6
CONTINUOUS
10
0.5537381496062992
20
1.2092703543307086
11
0.5539681496062993
21
1.2094577559055117
0
LINE
8
BLACK
6
CONTINUOUS
10
0.5539681496062993
20
1.2094577559055117
11
0.5539664960629921
21
1.2094597637795275
0
LINE
8
BLACK
6
CONTINUOUS
10
0.5539664960629921
20
1.2094597637795275
11
0.5541878346456692
21
1.2096455118110236
0
LINE
8
BLACK
6
CONTINUOUS
10
0.5541878346456692
20
1.2096455118110236
11
0.5562366141732283
21
1.2118170866141733
0
LINE
8
BLACK
6
CONTINUOUS
10
0.5562366141732283
20
1.2118170866141733
11
0.5563371653543306
21
1.2119205905511812
0
LINE
8
BLACK
6
CONTINUOUS
10
0.5563371653543306
20
1.2119205905511812
11
0.5964923228346457
21
1.2520757480314961
0
LINE
8
BLACK
6
CONTINUOUS
10
0.5964923228346457
20
1.2520757480314961
11
0.5989455511811024
21
1.2534153543307087
0
LINE
8
BLACK
6
CONTINUOUS
10
0.5989455511811024
20
1.2534153543307087
11
0.6017335433070866
21
1.2532159448818898
0
LINE
8
BLACK
6
CONTINUOUS
10
0.6017335433070866
20
1.2532159448818898
11
0.6035075984251969
21
1.2520757874015749
0
LINE
8
BLACK
6
CONTINUOUS
10
0.6035075984251969
20
1.2520757874015749
11
0.6155511417322834
21
1.240032283464567
0
LINE
8
BLACK
6
CONTINUOUS
10
0.6155511417322834
20
1.240032283464567
11
0.6224492519685039
21
1.2331341732283465
0
LINE
8
BLACK
6
CONTINUOUS
10
0.6224492519685039
20
1.2331341732283465
11
0.6499053149606299
21
1.2056780314960629
0
LINE
8
BLACK
6
CONTINUOUS
10
0.6499053149606299
20
1.2056780314960629
11
0.6503764960629921
21
1.2051327952755906
0
LINE
8
BLACK
6
CONTINUOUS
10
0.6503764960629921
20
1.2051327952755906
11
0.6509458661417322
21
1.204368031496063
0
LINE
8
BLACK
6
CONTINUOUS
10
0.6509458661417322
20
1.204368031496063
11
0.6509461811023622
21
1.2043676771653542
0
LINE
8
BLACK
6
CONTINUOUS
10
0.6509461811023622
20
1.2043676771653542
11
0.6524553937007874
21
1.2031012598425197
0
LINE
8
BLACK
6
CONTINUOUS
10
0.6524553937007874
20
1.2031012598425197
11
0.6527738188976377
21
1.2028095275590551
0
LINE
8
BLACK
6
CONTINUOUS
10
0.6527738188976377
20
1.2028095275590551
11
0.6529288582677165
21
1.2026544881889762
0
LINE
8
BLACK
6
CONTINUOUS
10
0.6529288582677165
20
1.2026544881889762
11
0.6538970078740157
21
1.201888937007874
0
LINE
8
BLACK
6
CONTINUOUS
10
0.6538970078740157
20
1.201888937007874
11
0.6540086220472441
21
1.2017979921259843
0
LINE
8
BLACK
6
CONTINUOUS
10
0.6540086220472441
20
1.2017979921259843
11
0.6562938582677165
21
1.1998805118110236
0
LINE
8
BLACK
6
CONTINUOUS
10
0.6562938582677165
20
1.1998805118110236
11
0.6565350787401575
21
1.1997218503937008
0
LINE
8
BLACK
6
CONTINUOUS
10
0.6565350787401575
20
1.1997218503937008
11
0.6565336614173228
21
1.1997197244094489
0
LINE
8
BLACK
6
CONTINUOUS
10
0.6565336614173228
20
1.1997197244094489
11
0.6567842519685039
21
1.1995601181102362
0
LINE
8
BLACK
6
CONTINUOUS
10
0.6567842519685039
20
1.1995601181102362
11
0.6567855905511811
21
1.1995622834645669
0
LINE
8
BLACK
6
CONTINUOUS
10
0.6567855905511811
20
1.1995622834645669
11
0.6570311811023621
21
1.1994107480314959
0
LINE
8
BLACK
6
CONTINUOUS
10
0.6570311811023621
20
1.1994107480314959
11
0.6597357086614173
21
1.1981496062992125
0
LINE
8
BLACK
6
CONTINUOUS
10
0.6597357086614173
20
1.1981496062992125
11
0.6598653937007873
21
1.198086811023622
0
LINE
8
BLACK
6
CONTINUOUS
10
0.6598653937007873
20
1.198086811023622
11
0.662531811023622
21
1.196747716535433
0
LINE
8
BLACK
6
CONTINUOUS
10
0.662531811023622
20
1.196747716535433
11
0.6628033070866142
21
1.1966489370078739
0
LINE
8
BLACK
6
CONTINUOUS
10
0.6628033070866142
20
1.1966489370078739
11
0.6628024015748031
21
1.1966464960629921
0
LINE
8
BLACK
6
CONTINUOUS
10
0.6628024015748031
20
1.1966464960629921
11
0.663083188976378
21
1.1965488976377952
0
LINE
8
BLACK
6
CONTINUOUS
10
0.663083188976378
20
1.1965488976377952
11
0.6630840157480314
21
1.1965512992125984
0
LINE
8
BLACK
6
CONTINUOUS
10
0.6630840157480314
20
1.1965512992125984
11
0.6633580708661417
21
1.1964604330708661
0
LINE
8
BLACK
6
CONTINUOUS
10
0.6633580708661417
20
1.1964604330708661
11
0.6662822834645669
21
1.1958566141732283
0
LINE
8
BLACK
6
CONTINUOUS
10
0.6662822834645669
20
1.1958566141732283
11
0.6664229921259842
21
1.1958254330708662
0
LINE
8
BLACK
6
CONTINUOUS
10
0.6664229921259842
20
1.1958254330708662
11
0.6693245275590551
21
1.1951377952755906
0
LINE
8
BLACK
6
CONTINUOUS
10
0.6693245275590551
20
1.1951377952755906
11
0.6696115748031496
21
1.195104251968504
0
LINE
8
BLACK
6
CONTINUOUS
10
0.6696115748031496
20
1.195104251968504
11
0.6696112598425197
21
1.1951015748031495
0
LINE
8
BLACK
6
CONTINUOUS
10
0.6696112598425197
20
1.1951015748031495
11
0.6699064173228346
21
1.1950714173228347
0
LINE
8
BLACK
6
CONTINUOUS
10
0.6699064173228346
20
1.1950714173228347
11
0.669906653543307
21
1.1950740551181103
0
LINE
8
BLACK
6
CONTINUOUS
10
0.669906653543307
20
1.1950740551181103
11
0.6701945275590551
21
1.1950488582677166
0
LINE
8
BLACK
6
CONTINUOUS
10
0.6701945275590551
20
1.1950488582677166
11
0.6701945669291338
21
1.1950488582677166
0
LINE
8
BLACK
6
CONTINUOUS
10
0.6701945669291338
20
1.1950488582677166
11
0.6701946062992126
21
1.1950488582677166
0
LINE
8
BLACK
6
CONTINUOUS
10
0.6701946062992126
20
1.1950488582677166
11
0.6725634251968504
21
1.1951177559055117
0
LINE
8
BLACK
6
CONTINUOUS
10
0.6725634251968504
20
1.1951177559055117
11
0.6731795275590551
21
1.1951357086614174
0
LINE
8
BLACK
6
CONTINUOUS
10
0.6731795275590551
20
1.1951357086614174
11
0.6733237795275591
21
1.1951377952755906
0
LINE
8
BLACK
6
CONTINUOUS
10
0.6733237795275591
20
1.1951377952755906
11
0.88501968503937
21
1.1951377952755906
0
LINE
8
BLACK
6
CONTINUOUS
10
0.88501968503937
20
1.1951377952755906
11
0.8877016141732283
21
1.1943503149606298
0
LINE
8
BLACK
6
CONTINUOUS
10
0.8877016141732283
20
1.1943503149606298
11
0.8895320472440945
21
1.192237874015748
0
LINE
8
BLACK
6
CONTINUOUS
10
0.8895320472440945
20
1.192237874015748
11
0.8899803149606299
21
1.1901771653543307
0
LINE
8
BLACK
6
CONTINUOUS
10
0.8899803149606299
20
1.1901771653543307
11
0.8899803149606299
21
1.1346653937007873
0
LINE
8
BLACK
6
CONTINUOUS
10
0.8899803149606299
20
1.1346653937007873
11
0.8891928346456692
21
1.1319834645669291
0
LINE
8
BLACK
6
CONTINUOUS
10
0.8891928346456692
20
1.1319834645669291
11
0.8870803937007874
21
1.1301530314960631
0
LINE
8
BLACK
6
CONTINUOUS
10
0.8870803937007874
20
1.1301530314960631
11
0.88501968503937
21
1.1297047637795274
0
LINE
8
BLACK
6
CONTINUOUS
10
0.88501968503937
20
1.1297047637795274
11
0.7121894488188977
21
1.1297047637795274
0
LINE
8
BLACK
6
CONTINUOUS
10
0.7121894488188977
20
1.1297047637795274
11
0.7115503937007874
21
1.1297752755905512
0
LINE
8
BLACK
6
CONTINUOUS
10
0.7115503937007874
20
1.1297752755905512
11
0.7115494881889763
21
1.1297654724409449
0
LINE
8
BLACK
6
CONTINUOUS
10
0.7115494881889763
20
1.1297654724409449
11
0.7112387401574803
21
1.1297948425196851
0
LINE
8
BLACK
6
CONTINUOUS
10
0.7112387401574803
20
1.1297948425196851
11
0.7084500787401574
21
1.1297072047244094
0
LINE
8
BLACK
6
CONTINUOUS
10
0.7084500787401574
20
1.1297072047244094
11
0.7082942519685039
21
1.1297047637795274
0
LINE
8
BLACK
6
CONTINUOUS
10
0.7082942519685039
20
1.1297047637795274
11
0.7071483858267716
21
1.1297047637795274
0
LINE
8
BLACK
6
CONTINUOUS
10
0.7071483858267716
20
1.1297047637795274
11
0.7069747244094488
21
1.1296827952755906
0
LINE
8
BLACK
6
CONTINUOUS
10
0.7069747244094488
20
1.1296827952755906
11
0.7065095275590551
21
1.1296461811023621
0
LINE
8
BLACK
6
CONTINUOUS
10
0.7065095275590551
20
1.1296461811023621
11
0.7046917322834646
21
1.129589094488189
0
LINE
8
BLACK
6
CONTINUOUS
10
0.7046917322834646
20
1.129589094488189
11
0.7038809842519684
21
1.1293535433070865
0
LINE
8
BLACK
6
CONTINUOUS
10
0.7038809842519684
20
1.1293535433070865
11
0.7031188582677165
21
1.129195748031496
0
LINE
8
BLACK
6
CONTINUOUS
10
0.7031188582677165
20
1.129195748031496
11
0.7025973228346456
21
1.129129842519685
0
LINE
8
BLACK
6
CONTINUOUS
10
0.7025973228346456
20
1.129129842519685
11
0.7022809842519685
21
1.1290898818897637
0
LINE
8
BLACK
6
CONTINUOUS
10
0.7022809842519685
20
1.1290898818897637
11
0.700589251968504
21
1.1284200787401575
0
LINE
8
BLACK
6
CONTINUOUS
10
0.700589251968504
20
1.1284200787401575
11
0.7001481496062992
21
1.1282690551181103
0
LINE
8
BLACK
6
CONTINUOUS
10
0.7001481496062992
20
1.1282690551181103
11
0.6984016141732283
21
1.127761653543307
0
LINE
8
BLACK
6
CONTINUOUS
10
0.6984016141732283
20
1.127761653543307
11
0.6984015354330708
21
1.1277616141732283
0
LINE
8
BLACK
6
CONTINUOUS
10
0.6984015354330708
20
1.1277616141732283
11
0.6983034251968504
21
1.1277331102362205
0
LINE
8
BLACK
6
CONTINUOUS
10
0.6983034251968504
20
1.1277331102362205
11
0.6964332283464567
21
1.1275600393700786
0
LINE
8
BLACK
6
CONTINUOUS
10
0.6964332283464567
20
1.1275600393700786
11
0.695
21
1.1277012204724408
0
LINE
8
BLACK
6
CONTINUOUS
10
0.695
20
1.1277012204724408
11
0.6949999606299212
21
1.1277011811023623
0
LINE
8
BLACK
6
CONTINUOUS
10
0.6949999606299212
20
1.1277011811023623
11
0.6949999606299212
21
1.1277012204724408
0
LINE
8
BLACK
6
CONTINUOUS
10
0.6949999606299212
20
1.1277012204724408
11
0.6949998818897638
21
1.1277012204724408
0
LINE
8
BLACK
6
CONTINUOUS
10
0.6949998818897638
20
1.1277012204724408
11
0.6876451181102362
21
1.1269768503937008
0
LINE
8
BLACK
6
CONTINUOUS
10
0.6876451181102362
20
1.1269768503937008
11
0.6876450393700787
21
1.1269768503937008
0
LINE
8
BLACK
6
CONTINUOUS
10
0.6876450393700787
20
1.1269768503937008
11
0.6876449212598426
21
1.126976811023622
0
LINE
8
BLACK
6
CONTINUOUS
10
0.6876449212598426
20
1.126976811023622
11
0.6876448425196851
21
1.126976811023622
0
LINE
8
BLACK
6
CONTINUOUS
10
0.6876448425196851
20
1.126976811023622
11
0.6805723622047244
21
1.1248313779527559
0
LINE
8
BLACK
6
CONTINUOUS
10
0.6805723622047244
20
1.1248313779527559
11
0.6740543307086614
21
1.1213474015748031
0
LINE
8
BLACK
6
CONTINUOUS
10
0.6740543307086614
20
1.1213474015748031
11
0.6683412204724409
21
1.1166587795275591
0
LINE
8
BLACK
6
CONTINUOUS
10
0.6683412204724409
20
1.1166587795275591
11
0.6647217716535433
21
1.1122484645669291
0
LINE
8
BLACK
6
CONTINUOUS
10
0.6647217716535433
20
1.1122484645669291
11
0.6636525984251969
21
1.1109456692913386
0
LINE
8
BLACK
6
CONTINUOUS
10
0.6636525984251969
20
1.1109456692913386
11
0.6601686614173228
21
1.1044277559055118
0
LINE
8
BLACK
6
CONTINUOUS
10
0.6601686614173228
20
1.1044277559055118
11
0.6601685826771654
21
1.1044275196850393
0
LINE
8
BLACK
6
CONTINUOUS
10
0.6601685826771654
20
1.1044275196850393
11
0.6580231102362205
21
1.0973549212598426
0
LINE
8
BLACK
6
CONTINUOUS
10
0.6580231102362205
20
1.0973549212598426
11
0.6580231102362205
21
1.0973548425196851
0
LINE
8
BLACK
6
CONTINUOUS
10
0.6580231102362205
20
1.0973548425196851
11
0.657298779527559
21
1.0900001181102361
0
LINE
8
BLACK
6
CONTINUOUS
10
0.657298779527559
20
1.0900001181102361
11
0.657298779527559
21
1.0899998425196851
0
LINE
8
BLACK
6
CONTINUOUS
10
0.657298779527559
20
1.0899998425196851
11
0.6580231102362205
21
1.0826451181102361
0
LINE
8
BLACK
6
CONTINUOUS
10
0.6580231102362205
20
1.0826451181102361
11
0.6580231889763779
21
1.0826448031496063
0
LINE
8
BLACK
6
CONTINUOUS
10
0.6580231889763779
20
1.0826448031496063
11
0.6592664960629921
21
1.0785462992125985
0
LINE
8
BLACK
6
CONTINUOUS
10
0.6592664960629921
20
1.0785462992125985
11
0.6592914566929133
21
1.0757512598425196
0
LINE
8
BLACK
6
CONTINUOUS
10
0.6592914566929133
20
1.0757512598425196
11
0.6578013779527558
21
1.0733864173228347
0
LINE
8
BLACK
6
CONTINUOUS
10
0.6578013779527558
20
1.0733864173228347
11
0.6552692913385827
21
1.0722026377952756
0
LINE
8
BLACK
6
CONTINUOUS
10
0.6552692913385827
20
1.0722026377952756
11
0.6545194881889763
21
1.0721456299212597
0
LINE
8
BLACK
6
CONTINUOUS
10
0.6545194881889763
20
1.0721456299212597
11
0.2426048031496063
21
1.0721456299212597
0
LINE
8
BLACK
6
CONTINUOUS
10
0.2426048031496063
20
1.0721456299212597
11
0.239922874015748
21
1.0729331102362205
0
LINE
8
BLACK
6
CONTINUOUS
10
0.239922874015748
20
1.0729331102362205
11
0.239097125984252
21
1.0735985433070865
0
LINE
8
BLACK
6
CONTINUOUS
10
0.239097125984252
20
1.0735985433070865
11
0.2341493700787401
21
1.0785462992125985
0
LINE
8
BLACK
6
CONTINUOUS
10
0.2341493700787401
20
1.0785462992125985
11
0.2186733858267716
21
1.0940222047244095
0
LINE
8
BLACK
6
CONTINUOUS
10
0.2186733858267716
20
1.0940222047244095
11
0.2184692519685039
21
1.0942390551181103
0
LINE
8
BLACK
6
CONTINUOUS
10
0.2184692519685039
20
1.0942390551181103
11
0.2168808267716535
21
1.0960320866141733
0
LINE
8
BLACK
6
CONTINUOUS
10
0.2168808267716535
20
1.0960320866141733
11
0.2149092519685039
21
1.0973929133858267
0
LINE
8
BLACK
6
CONTINUOUS
10
0.2149092519685039
20
1.0973929133858267
11
0.2146708661417323
21
1.0975683070866142
0
LINE
8
BLACK
6
CONTINUOUS
10
0.2146708661417323
20
1.0975683070866142
11
0.2127844881889764
21
1.0990462598425197
0
LINE
8
BLACK
6
CONTINUOUS
10
0.2127844881889764
20
1.0990462598425197
11
0.212418188976378
21
1.0992110629921259
0
LINE
8
BLACK
6
CONTINUOUS
10
0.212418188976378
20
1.0992110629921259
11
0.2116364566929134
21
1.0996520078740157
0
LINE
8
BLACK
6
CONTINUOUS
10
0.2116364566929134
20
1.0996520078740157
11
0.2113061023622047
21
1.0998800787401575
0
LINE
8
BLACK
6
CONTINUOUS
10
0.2113061023622047
20
1.0998800787401575
11
0.2090670078740157
21
1.1007292125984252
0
LINE
8
BLACK
6
CONTINUOUS
10
0.2090670078740157
20
1.1007292125984252
11
0.2087912204724409
21
1.1008434251968504
0
LINE
8
BLACK
6
CONTINUOUS
10
0.2087912204724409
20
1.1008434251968504
11
0.2066074409448819
21
1.1018263385826772
0
LINE
8
BLACK
6
CONTINUOUS
10
0.2066074409448819
20
1.1018263385826772
11
0.2065866141732284
21
1.1018301574803149
0
LINE
8
BLACK
6
CONTINUOUS
10
0.2065866141732284
20
1.1018301574803149
11
0.2065726771653543
21
1.1018371653543306
0
LINE
8
BLACK
6
CONTINUOUS
10
0.2065726771653543
20
1.1018371653543306
11
0.2063207086614173
21
1.1019157086614173
0
LINE
8
BLACK
6
CONTINUOUS
10
0.2063207086614173
20
1.1019157086614173
11
0.2063337401574803
21
1.1019575590551181
0
LINE
8
BLACK
6
CONTINUOUS
10
0.2063337401574803
20
1.1019575590551181
11
0.2040904724409449
21
1.1030879133858267
0
LINE
8
BLACK
6
CONTINUOUS
10
0.2040904724409449
20
1.1030879133858267
11
0.2026705511811024
21
1.1054955118110237
0
LINE
8
BLACK
6
CONTINUOUS
10
0.2026705511811024
20
1.1054955118110237
11
0.2025196850393701
21
1.1067096062992126
0
LINE
8
BLACK
6
CONTINUOUS
10
0.2025196850393701
20
1.1067096062992126
11
0.2025196850393701
21
1.1069146456692913
0
LINE
8
BLACK
6
CONTINUOUS
10
0.2025196850393701
20
1.1069146456692913
11
0.2025196456692913
21
1.1069153149606299
0
LINE
8
BLACK
6
CONTINUOUS
10
0.2025196456692913
20
1.1069153149606299
11
0.2022633858267716
21
1.1092990551181101
0
LINE
8
BLACK
6
CONTINUOUS
10
0.2022633858267716
20
1.1092990551181101
11
0.2022633070866142
21
1.1092993700787401
0
LINE
8
BLACK
6
CONTINUOUS
10
0.2022633070866142
20
1.1092993700787401
11
0.2013553937007874
21
1.1117335039370078
0
LINE
8
BLACK
6
CONTINUOUS
10
0.2013553937007874
20
1.1117335039370078
11
0.2002515354330709
21
1.1146930708661418
0
LINE
8
BLACK
6
CONTINUOUS
10
0.2002515354330709
20
1.1146930708661418
11
0.1994989763779527
21
1.115698346456693
0
LINE
8
BLACK
6
CONTINUOUS
10
0.1994989763779527
20
1.115698346456693
11
0.1968016141732283
21
1.1193016141732284
0
LINE
8
BLACK
6
CONTINUOUS
10
0.1968016141732283
20
1.1193016141732284
11
0.1944943700787402
21
1.1210288188976378
0
LINE
8
BLACK
6
CONTINUOUS
10
0.1944943700787402
20
1.1210288188976378
11
0.1928192913385827
21
1.1232664566929134
0
LINE
8
BLACK
6
CONTINUOUS
10
0.1928192913385827
20
1.1232664566929134
11
0.1926199212598425
21
1.1260544881889762
0
LINE
8
BLACK
6
CONTINUOUS
10
0.1926199212598425
20
1.1260544881889762
11
0.1939594881889764
21
1.1285077165354331
0
LINE
8
BLACK
6
CONTINUOUS
10
0.1939594881889764
20
1.1285077165354331
11
0.1944943700787402
21
1.1289711811023622
0
LINE
8
BLACK
6
CONTINUOUS
10
0.1944943700787402
20
1.1289711811023622
11
0.1968016141732283
21
1.1306983464566929
0
LINE
8
BLACK
6
CONTINUOUS
10
0.1968016141732283
20
1.1306983464566929
11
0.2002514566929134
21
1.1353067716535432
0
LINE
8
BLACK
6
CONTINUOUS
10
0.2002514566929134
20
1.1353067716535432
11
0.2002515354330709
21
1.135306968503937
0
LINE
8
BLACK
6
CONTINUOUS
10
0.2002515354330709
20
1.135306968503937
11
0.2022633070866142
21
1.1407005905511811
0
LINE
8
BLACK
6
CONTINUOUS
10
0.2022633070866142
20
1.1407005905511811
11
0.2022633858267716
21
1.1407009055118109
0
LINE
8
BLACK
6
CONTINUOUS
10
0.2022633858267716
20
1.1407009055118109
11
0.2025196456692913
21
1.1430846456692914
0
LINE
8
BLACK
6
CONTINUOUS
10
0.2025196456692913
20
1.1430846456692914
11
0.2025196850393701
21
1.1430853149606299
0
LINE
8
BLACK
6
CONTINUOUS
10
0.2025196850393701
20
1.1430853149606299
11
0.2025196850393701
21
1.2069146456692914
0
LINE
8
BLACK
6
CONTINUOUS
10
0.2025196850393701
20
1.2069146456692914
11
0.2025196456692913
21
1.20691531496063
0
LINE
8
BLACK
6
CONTINUOUS
10
0.2025196456692913
20
1.20691531496063
11
0.2022633858267716
21
1.2092990551181102
0
LINE
8
BLACK
6
CONTINUOUS
10
0.2022633858267716
20
1.2092990551181102
11
0.2022633070866142
21
1.2092993700787402
0
LINE
8
BLACK
6
CONTINUOUS
10
0.2022633070866142
20
1.2092993700787402
11
0.2016787007874016
21
1.2108666929133858
0
LINE
8
BLACK
6
CONTINUOUS
10
0.2016787007874016
20
1.2108666929133858
11
0.2002515354330709
21
1.2146930708661416
0
LINE
8
BLACK
6
CONTINUOUS
10
0.2002515354330709
20
1.2146930708661416
11
0.1991368503937008
21
1.2161820866141733
0
LINE
8
BLACK
6
CONTINUOUS
10
0.1991368503937008
20
1.2161820866141733
11
0.1968016141732283
21
1.2193016141732282
0
LINE
8
BLACK
6
CONTINUOUS
10
0.1968016141732283
20
1.2193016141732282
11
0.1921931889763779
21
1.2227514566929134
0
LINE
8
BLACK
6
CONTINUOUS
10
0.1921931889763779
20
1.2227514566929134
11
0.1921931496062992
21
1.2227514566929134
0
LINE
8
BLACK
6
CONTINUOUS
10
0.1921931496062992
20
1.2227514566929134
11
0.1921930708661417
21
1.2227515354330709
0
LINE
8
BLACK
6
CONTINUOUS
10
0.1921930708661417
20
1.2227515354330709
11
0.1867992519685039
21
1.2247633464566929
0
LINE
8
BLACK
6
CONTINUOUS
10
0.1867992519685039
20
1.2247633464566929
11
0.1867991732283465
21
1.2247633464566929
0
LINE
8
BLACK
6
CONTINUOUS
10
0.1867991732283465
20
1.2247633464566929
11
0.1867990551181102
21
1.2247633858267717
0
LINE
8
BLACK
6
CONTINUOUS
10
0.1867990551181102
20
1.2247633858267717
11
0.1844153149606299
21
1.2250196456692912
0
LINE
8
BLACK
6
CONTINUOUS
10
0.1844153149606299
20
1.2250196456692912
11
0.184415157480315
21
1.2250196456692912
0
LINE
8
BLACK
6
CONTINUOUS
10
0.184415157480315
20
1.2250196456692912
11
0.1844148818897638
21
1.22501968503937
0
LINE
8
BLACK
6
CONTINUOUS
10
0.1844148818897638
20
1.22501968503937
11
0.1205851181102362
21
1.22501968503937
0
LINE
8
BLACK
6
CONTINUOUS
10
0.1205851181102362
20
1.22501968503937
11
0.120584842519685
21
1.2250196456692912
0
LINE
8
BLACK
6
CONTINUOUS
10
0.120584842519685
20
1.2250196456692912
11
0.1205846456692913
21
1.2250196456692912
0
LINE
8
BLACK
6
CONTINUOUS
10
0.1205846456692913
20
1.2250196456692912
11
0.118200905511811
21
1.2247633858267717
0
LINE
8
BLACK
6
CONTINUOUS
10
0.118200905511811
20
1.2247633858267717
11
0.1182005905511811
21
1.2247633070866142
0
LINE
8
BLACK
6
CONTINUOUS
10
0.1182005905511811
20
1.2247633070866142
11
0.115132874015748
21
1.2236190551181103
0
LINE
8
BLACK
6
CONTINUOUS
10
0.115132874015748
20
1.2236190551181103
11
0.1128069291338583
21
1.2227515354330709
0
LINE
8
BLACK
6
CONTINUOUS
10
0.1128069291338583
20
1.2227515354330709
11
0.1128068503937008
21
1.2227514960629922
0
LINE
8
BLACK
6
CONTINUOUS
10
0.1128068503937008
20
1.2227514960629922
11
0.1128067716535433
21
1.2227514566929134
0
LINE
8
BLACK
6
CONTINUOUS
10
0.1128067716535433
20
1.2227514566929134
11
0.1081983464566929
21
1.2193016141732282
0
LINE
8
BLACK
6
CONTINUOUS
10
0.1081983464566929
20
1.2193016141732282
11
0.1047485039370079
21
1.2146931889763779
0
LINE
8
BLACK
6
CONTINUOUS
10
0.1047485039370079
20
1.2146931889763779
11
0.1047484251968504
21
1.2146929921259841
0
LINE
8
BLACK
6
CONTINUOUS
10
0.1047484251968504
20
1.2146929921259841
11
0.1027366535433071
21
1.2092993700787402
0
LINE
8
BLACK
6
CONTINUOUS
10
0.1027366535433071
20
1.2092993700787402
11
0.1027365748031496
21
1.2092990551181102
0
LINE
8
BLACK
6
CONTINUOUS
10
0.1027365748031496
20
1.2092990551181102
11
0.1024803149606299
21
1.20691531496063
0
LINE
8
BLACK
6
CONTINUOUS
10
0.1024803149606299
20
1.20691531496063
11
0.1024803149606299
21
1.1430846456692914
0
LINE
8
BLACK
6
CONTINUOUS
10
0.1024803149606299
20
1.1430846456692914
11
0.1027365748031496
21
1.1407009055118109
0
LINE
8
BLACK
6
CONTINUOUS
10
0.1027365748031496
20
1.1407009055118109
11
0.1027366535433071
21
1.1407005905511811
0
LINE
8
BLACK
6
CONTINUOUS
10
0.1027366535433071
20
1.1407005905511811
11
0.1047484251968504
21
1.135306968503937
0
LINE
8
BLACK
6
CONTINUOUS
10
0.1047484251968504
20
1.135306968503937
11
0.1047485039370079
21
1.1353067716535432
0
LINE
8
BLACK
6
CONTINUOUS
10
0.1047485039370079
20
1.1353067716535432
11
0.1081983858267716
21
1.1306983464566929
0
LINE
8
BLACK
6
CONTINUOUS
10
0.1081983858267716
20
1.1306983464566929
11
0.1105056299212598
21
1.1289711417322834
0
LINE
8
BLACK
6
CONTINUOUS
10
0.1105056299212598
20
1.1289711417322834
11
0.1121806692913386
21
1.1267335039370079
0
LINE
8
BLACK
6
CONTINUOUS
10
0.1121806692913386
20
1.1267335039370079
11
0.1123800393700787
21
1.1239455118110235
0
LINE
8
BLACK
6
CONTINUOUS
10
0.1123800393700787
20
1.1239455118110235
11
0.1110404724409449
21
1.1214922834645669
0
LINE
8
BLACK
6
CONTINUOUS
10
0.1110404724409449
20
1.1214922834645669
11
0.1105056299212598
21
1.1210288582677166
0
LINE
8
BLACK
6
CONTINUOUS
10
0.1105056299212598
20
1.1210288582677166
11
0.1081983858267716
21
1.1193016141732284
0
LINE
8
BLACK
6
CONTINUOUS
10
0.1081983858267716
20
1.1193016141732284
11
0.1047485039370079
21
1.114693188976378
0
LINE
8
BLACK
6
CONTINUOUS
10
0.1047485039370079
20
1.114693188976378
11
0.1047484251968504
21
1.1146929921259843
0
LINE
8
BLACK
6
CONTINUOUS
10
0.1047484251968504
20
1.1146929921259843
11
0.1027366535433071
21
1.1092993700787401
0
LINE
8
BLACK
6
CONTINUOUS
10
0.1027366535433071
20
1.1092993700787401
11
0.1027365748031496
21
1.1092990551181101
0
LINE
8
BLACK
6
CONTINUOUS
10
0.1027365748031496
20
1.1092990551181101
11
0.1024803149606299
21
1.1069153149606299
0
LINE
8
BLACK
6
CONTINUOUS
10
0.1024803149606299
20
1.1069153149606299
11
0.1024803149606299
21
1.0430846456692913
0
LINE
8
BLACK
6
CONTINUOUS
10
0.1024803149606299
20
1.0430846456692913
11
0.1027365748031496
21
1.040700905511811
0
LINE
8
BLACK
6
CONTINUOUS
10
0.1027365748031496
20
1.040700905511811
11
0.1027366535433071
21
1.040700590551181
0
LINE
8
BLACK
6
CONTINUOUS
10
0.1027366535433071
20
1.040700590551181
11
0.1047484251968504
21
1.0353069685039369
0
LINE
8
BLACK
6
CONTINUOUS
10
0.1047484251968504
20
1.0353069685039369
11
0.1047485039370079
21
1.0353067716535433
0
LINE
8
BLACK
6
CONTINUOUS
10
0.1047485039370079
20
1.0353067716535433
11
0.1081983858267716
21
1.0306983464566928
0
LINE
8
BLACK
6
CONTINUOUS
10
0.1081983858267716
20
1.0306983464566928
11
0.1105056299212598
21
1.0289711417322835
0
LINE
8
BLACK
6
CONTINUOUS
10
0.1105056299212598
20
1.0289711417322835
11
0.1121806692913386
21
1.0267335039370078
0
LINE
8
BLACK
6
CONTINUOUS
10
0.1121806692913386
20
1.0267335039370078
11
0.1123800393700787
21
1.0239455118110237
0
LINE
8
BLACK
6
CONTINUOUS
10
0.1123800393700787
20
1.0239455118110237
11
0.1110404724409449
21
1.021492283464567
0
LINE
8
BLACK
6
CONTINUOUS
10
0.1110404724409449
20
1.021492283464567
11
0.1105056299212598
21
1.0210288582677165
0
LINE
8
BLACK
6
CONTINUOUS
10
0.1105056299212598
20
1.0210288582677165
11
0.1081983858267716
21
1.0193016141732283
0
LINE
8
BLACK
6
CONTINUOUS
10
0.1081983858267716
20
1.0193016141732283
11
0.1047485039370079
21
1.0146931889763779
0
LINE
8
BLACK
6
CONTINUOUS
10
0.1047485039370079
20
1.0146931889763779
11
0.1047484251968504
21
1.0146929921259842
0
LINE
8
BLACK
6
CONTINUOUS
10
0.1047484251968504
20
1.0146929921259842
11
0.1027366535433071
21
1.00929937007874
0
LINE
8
BLACK
6
CONTINUOUS
10
0.1027366535433071
20
1.00929937007874
11
0.1027365748031496
21
1.0092990551181102
0
LINE
8
BLACK
6
CONTINUOUS
10
0.1027365748031496
20
1.0092990551181102
11
0.1024803149606299
21
1.0069153149606298
0
LINE
8
BLACK
6
CONTINUOUS
10
0.1024803149606299
20
1.0069153149606298
11
0.1024803149606299
21
0.9430846456692913
0
LINE
8
BLACK
6
CONTINUOUS
10
0.1024803149606299
20
0.9430846456692913
11
0.1027365748031496
21
0.940700905511811
0
CIRCLE
8
BLACK
10
0.15
20
0.61
40
0.0068897637795276
0
CIRCLE
8
BLACK
10
0.25
20
0.61
40
0.0068897637795276
0
CIRCLE
8
BLACK
10
0.15
20
0.51
40
0.0068897637795276
0
CIRCLE
8
BLACK
10
0.25
20
0.51
40
0.0068897637795276
0
CIRCLE
8
BLACK
10
0.15
20
0.41
40
0.0068897637795276
0
CIRCLE
8
BLACK
10
0.25
20
0.41
40
0.0068897637795276
0
CIRCLE
8
BLACK
10
0.89
20
0.83
40
0.0068897637795276
0
CIRCLE
8
BLACK
10
0.79
20
0.83
40
0.0068897637795276
0
CIRCLE
8
BLACK
10
1.04
20
1.0600000000000001
40
0.0068897637795276
0
CIRCLE
8
BLACK
10
0.9399999999999999
20
1.0600000000000001
40
0.0068897637795276
0
CIRCLE
8
BLACK
10
1.04
20
1.1599999999999999
40
0.0068897637795276
0
CIRCLE
8
BLACK
10
0.9399999999999999
20
1.1599999999999999
40
0.0068897637795276
0
CIRCLE
8
BLACK
10
0.7999999999999999
20
1.4475
40
0.0068897637795276
0
CIRCLE
8
BLACK
10
0.7999999999999999
20
1.3474999999999999
40
0.0068897637795276
0
CIRCLE
8
BLACK
10
0.7
20
1.4475
40
0.0068897637795276
0
CIRCLE
8
BLACK
10
0.7
20
1.3474999999999999
40
0.0068897637795276
0
CIRCLE
8
BLACK
10
0.6
20
1.4475
40
0.0068897637795276
0
CIRCLE
8
BLACK
10
0.6
20
1.3474999999999999
40
0.0068897637795276
0
CIRCLE
8
BLACK
10
0.5
20
1.4475
40
0.0068897637795276
0
CIRCLE
8
BLACK
10
0.5
20
1.3474999999999999
40
0.0068897637795276
0
CIRCLE
8
BLACK
10
0.4
20
1.4475
40
0.0068897637795276
0
CIRCLE
8
BLACK
10
0.4
20
1.3474999999999999
40
0.0068897637795276
0
CIRCLE
8
BLACK
10
0.2
20
1.3999999999999999
40
0.0068897637795276
0
CIRCLE
8
BLACK
10
1.
20
0.2
40
0.0068897637795276
0
CIRCLE
8
BLACK
10
1.
20
1.3999999999999999
40
0.0068897637795276
0
CIRCLE
8
BLACK
10
0.2
20
0.2
40
0.0068897637795276
0
CIRCLE
8
BLACK
10
0.72
20
0.2131496062992126
40
0.0068897637795276
0
CIRCLE
8
BLACK
10
0.72
20
0.41
40
0.0068897637795276
0
CIRCLE
8
BLACK
10
0.52
20
0.2131496062992126
40
0.0068897637795276
0
CIRCLE
8
BLACK
10
0.52
20
0.41
40
0.0068897637795276
0
CIRCLE
8
BLACK
10
0.1525
20
1.175
40
0.0068897637795276
0
CIRCLE
8
BLACK
10
0.1525
20
1.075
40
0.0068897637795276
0
CIRCLE
8
BLACK
10
0.1525
20
0.975
40
0.0068897637795276
0
CIRCLE
8
BLACK
10
0.84
20
1.0600000000000001
40
0.0068897637795276
0
CIRCLE
8
BLACK
10
0.84
20
1.1599999999999999
40
0.0068897637795276
0
CIRCLE
8
BLACK
10
0.3054143307086614
20
1.2326771259842519
40
0.0125
0
CIRCLE
8
BLACK
10
0.62
20
0.9125
40
0.0125
0
CIRCLE
8
BLACK
10
0.695
20
1.0900000000000001
40
0.0125
0
CIRCLE
8
BLACK
10
0.8032345669291339
20
0.9465132283464567
40
0.0125
  0
ENDSEC
  0
EOF
