  0
SECTION
  2
HEADER
  9
$ANGBASE
  50
0.0
  9
$ANGDIR
  70
1
  9
$MEASUREMENT
  70
0
  0
ENDSEC
  0
SECTION
  2
TABLES
  0
TABLE
  2
LTYPE
  70
4
  0
LTYPE
  5
40F
  2
CONTINUOUS
  70
0
  3
Solid line
  72
65
  73
0
  40
0.0
  0
LTYPE
  5
410
  2
DASHDOT
 70
0
  3
Dash Dot ____ _ ____ _
 72
65
 73
4
 40
2.0
 49
1.25
 49
-0.25
 49
0.25
 49
-0.25
  0
LTYPE
  5
411
  2
DASHED
 70
0
  3
Dashed __ __ __ __ __
 72
65
 73
2
 40
0.75
 49
0.5
 49
-0.25
  0
LTYPE
  5
43B
  2
DOTTED
 70
0
  3
Dotted .  .  .  .
 72
65
 73
2
 40
0.2
 49
0.0
 49
-0.2
  0
ENDTAB
  0
TABLE
  2
STYLE
  70
4
  0
STYLE
  2
KICAD
  70
0
  40
0
  41
1
  42
1
  50
0
  71
0
  3
isocp.shx
  0
STYLE
  2
KICADB
  70
0
  40
0
  41
1
  42
1
  50
0
  71
0
  3
isocp.shx
  0
STYLE
  2
KICADI
  70
0
  40
0
  41
1
  42
1
  50
15
  71
0
  3
isocp.shx
  0
STYLE
  2
KICADBI
  70
0
  40
0
  41
1
  42
1
  50
15
  71
0
  3
isocp.shx
  0
ENDTAB
  0
TABLE
  2
LAYER
  70
1
  0
LAYER
  2
BLACK
  70
0
  62
7
  6
CONTINUOUS
  0
ENDTAB
  0
ENDSEC
  0
SECTION
  2
ENTITIES
0
LINE
8
BLACK
6
CONTINUOUS
10
0.2205096456692913
20
0.3163158661417323
11
0.2338744094488189
21
0.3131483858267716
0
LINE
8
BLACK
6
CONTINUOUS
10
0.2338744094488189
20
0.3131483858267716
11
0.246781062992126
21
0.3084507086614173
0
LINE
8
BLACK
6
CONTINUOUS
10
0.246781062992126
20
0.3084507086614173
11
0.2590551181102362
21
0.3022864566929134
0
LINE
8
BLACK
6
CONTINUOUS
10
0.2590551181102362
20
0.3022864566929134
11
0.2705305511811024
21
0.2947389763779528
0
LINE
8
BLACK
6
CONTINUOUS
10
0.2705305511811024
20
0.2947389763779528
11
0.2810521653543307
21
0.2859102755905512
0
LINE
8
BLACK
6
CONTINUOUS
10
0.2810521653543307
20
0.2859102755905512
11
0.2904776771653543
21
0.2759198031496063
0
LINE
8
BLACK
6
CONTINUOUS
10
0.2904776771653543
20
0.2759198031496063
11
0.2986796456692913
21
0.2649026377952756
0
LINE
8
BLACK
6
CONTINUOUS
10
0.2986796456692913
20
0.2649026377952756
11
0.3055471653543307
21
0.2530077952755905
0
LINE
8
BLACK
6
CONTINUOUS
10
0.3055471653543307
20
0.2530077952755905
11
0.3109873228346456
21
0.240396062992126
0
LINE
8
BLACK
6
CONTINUOUS
10
0.3109873228346456
20
0.240396062992126
11
0.3149265748031496
21
0.2272381102362205
0
LINE
8
BLACK
6
CONTINUOUS
10
0.3149265748031496
20
0.2272381102362205
11
0.3173116141732283
21
0.2137117716535433
0
LINE
8
BLACK
6
CONTINUOUS
10
0.3173116141732283
20
0.2137117716535433
11
0.3181102362204724
21
0.2
0
LINE
8
BLACK
6
CONTINUOUS
10
0.3181102362204724
20
0.2
11
0.3173116141732283
21
0.1862882283464567
0
LINE
8
BLACK
6
CONTINUOUS
10
0.3173116141732283
20
0.1862882283464567
11
0.3149265748031496
21
0.1727618897637795
0
LINE
8
BLACK
6
CONTINUOUS
10
0.3149265748031496
20
0.1727618897637795
11
0.3109873228346456
21
0.159603937007874
0
LINE
8
BLACK
6
CONTINUOUS
10
0.3109873228346456
20
0.159603937007874
11
0.3055471653543307
21
0.1469922047244094
0
LINE
8
BLACK
6
CONTINUOUS
10
0.3055471653543307
20
0.1469922047244094
11
0.2986796456692913
21
0.1350973622047244
0
LINE
8
BLACK
6
CONTINUOUS
10
0.2986796456692913
20
0.1350973622047244
11
0.2904776771653543
21
0.1240801968503937
0
LINE
8
BLACK
6
CONTINUOUS
10
0.2904776771653543
20
0.1240801968503937
11
0.2810521653543307
21
0.1140897244094488
0
LINE
8
BLACK
6
CONTINUOUS
10
0.2810521653543307
20
0.1140897244094488
11
0.2705305511811024
21
0.1052610236220472
0
LINE
8
BLACK
6
CONTINUOUS
10
0.2705305511811024
20
0.1052610236220472
11
0.2590551181102362
21
0.0977135433070866
0
LINE
8
BLACK
6
CONTINUOUS
10
0.2590551181102362
20
0.0977135433070866
11
0.246781062992126
21
0.0915492913385827
0
LINE
8
BLACK
6
CONTINUOUS
10
0.246781062992126
20
0.0915492913385827
11
0.2338744094488189
21
0.0868516141732283
0
LINE
8
BLACK
6
CONTINUOUS
10
0.2338744094488189
20
0.0868516141732283
11
0.2205096456692913
21
0.0836841338582677
0
LINE
8
BLACK
6
CONTINUOUS
10
0.2205096456692913
20
0.0836841338582677
11
0.2068674803149606
21
0.0820896062992126
0
LINE
8
BLACK
6
CONTINUOUS
10
0.2068674803149606
20
0.0820896062992126
11
0.1931325196850394
21
0.0820896062992126
0
LINE
8
BLACK
6
CONTINUOUS
10
0.1931325196850394
20
0.0820896062992126
11
0.1794903543307086
21
0.0836841338582677
0
LINE
8
BLACK
6
CONTINUOUS
10
0.1794903543307086
20
0.0836841338582677
11
0.1661255905511811
21
0.0868516141732283
0
LINE
8
BLACK
6
CONTINUOUS
10
0.1661255905511811
20
0.0868516141732283
11
0.153218937007874
21
0.0915492913385827
0
LINE
8
BLACK
6
CONTINUOUS
10
0.153218937007874
20
0.0915492913385827
11
0.1409448818897638
21
0.0977135433070866
0
LINE
8
BLACK
6
CONTINUOUS
10
0.1409448818897638
20
0.0977135433070866
11
0.1294694488188976
21
0.1052610236220472
0
LINE
8
BLACK
6
CONTINUOUS
10
0.1294694488188976
20
0.1052610236220472
11
0.1189478346456693
21
0.1140897244094488
0
LINE
8
BLACK
6
CONTINUOUS
10
0.1189478346456693
20
0.1140897244094488
11
0.1095223228346457
21
0.1240801968503937
0
LINE
8
BLACK
6
CONTINUOUS
10
0.1095223228346457
20
0.1240801968503937
11
0.1013203543307087
21
0.1350973622047244
0
LINE
8
BLACK
6
CONTINUOUS
10
0.1013203543307087
20
0.1350973622047244
11
0.0944528346456693
21
0.1469922047244094
0
LINE
8
BLACK
6
CONTINUOUS
10
0.0944528346456693
20
0.1469922047244094
11
0.0890126771653543
21
0.159603937007874
0
LINE
8
BLACK
6
CONTINUOUS
10
0.0890126771653543
20
0.159603937007874
11
0.0850734251968504
21
0.1727618897637795
0
LINE
8
BLACK
6
CONTINUOUS
10
0.0850734251968504
20
0.1727618897637795
11
0.0826883858267717
21
0.1862882283464567
0
LINE
8
BLACK
6
CONTINUOUS
10
0.0826883858267717
20
0.1862882283464567
11
0.0818897637795276
21
0.2
0
LINE
8
BLACK
6
CONTINUOUS
10
0.0818897637795276
20
0.2
11
0.0826883858267717
21
0.2137117716535433
0
LINE
8
BLACK
6
CONTINUOUS
10
0.0826883858267717
20
0.2137117716535433
11
0.0850734251968504
21
0.2272381102362205
0
LINE
8
BLACK
6
CONTINUOUS
10
0.0850734251968504
20
0.2272381102362205
11
0.0890126771653543
21
0.240396062992126
0
LINE
8
BLACK
6
CONTINUOUS
10
0.0890126771653543
20
0.240396062992126
11
0.0944528346456693
21
0.2530077952755905
0
LINE
8
BLACK
6
CONTINUOUS
10
0.0944528346456693
20
0.2530077952755905
11
0.1013203543307087
21
0.2649026377952756
0
LINE
8
BLACK
6
CONTINUOUS
10
0.1013203543307087
20
0.2649026377952756
11
0.1095223228346457
21
0.2759198031496063
0
LINE
8
BLACK
6
CONTINUOUS
10
0.1095223228346457
20
0.2759198031496063
11
0.1189478346456693
21
0.2859102755905512
0
LINE
8
BLACK
6
CONTINUOUS
10
0.1189478346456693
20
0.2859102755905512
11
0.1294694488188976
21
0.2947389763779528
0
LINE
8
BLACK
6
CONTINUOUS
10
0.1294694488188976
20
0.2947389763779528
11
0.1409448818897638
21
0.3022864566929134
0
LINE
8
BLACK
6
CONTINUOUS
10
0.1409448818897638
20
0.3022864566929134
11
0.153218937007874
21
0.3084507086614173
0
LINE
8
BLACK
6
CONTINUOUS
10
0.153218937007874
20
0.3084507086614173
11
0.1661255905511811
21
0.3131483858267716
0
LINE
8
BLACK
6
CONTINUOUS
10
0.1661255905511811
20
0.3131483858267716
11
0.1794903543307086
21
0.3163158661417323
0
LINE
8
BLACK
6
CONTINUOUS
10
0.1794903543307086
20
0.3163158661417323
11
0.1931325196850394
21
0.3179103937007874
0
LINE
8
BLACK
6
CONTINUOUS
10
0.1931325196850394
20
0.3179103937007874
11
0.2068674803149606
21
0.3179103937007874
0
LINE
8
BLACK
6
CONTINUOUS
10
0.2068674803149606
20
0.3179103937007874
11
0.2205096456692913
21
0.3163158661417323
0
LINE
8
BLACK
6
CONTINUOUS
10
1.0205096456692913
20
0.3163158661417323
11
1.0338744094488188
21
0.3131483858267716
0
LINE
8
BLACK
6
CONTINUOUS
10
1.0338744094488188
20
0.3131483858267716
11
1.0467810629921259
21
0.3084507086614173
0
LINE
8
BLACK
6
CONTINUOUS
10
1.0467810629921259
20
0.3084507086614173
11
1.0590551181102361
21
0.3022864566929134
0
LINE
8
BLACK
6
CONTINUOUS
10
1.0590551181102361
20
0.3022864566929134
11
1.0705305511811023
21
0.2947389763779528
0
LINE
8
BLACK
6
CONTINUOUS
10
1.0705305511811023
20
0.2947389763779528
11
1.0810521653543306
21
0.2859102755905512
0
LINE
8
BLACK
6
CONTINUOUS
10
1.0810521653543306
20
0.2859102755905512
11
1.0904776771653544
21
0.2759198031496063
0
LINE
8
BLACK
6
CONTINUOUS
10
1.0904776771653544
20
0.2759198031496063
11
1.0986796456692913
21
0.2649026377952756
0
LINE
8
BLACK
6
CONTINUOUS
10
1.0986796456692913
20
0.2649026377952756
11
1.1055471653543307
21
0.2530077952755905
0
LINE
8
BLACK
6
CONTINUOUS
10
1.1055471653543307
20
0.2530077952755905
11
1.1109873228346456
21
0.240396062992126
0
LINE
8
BLACK
6
CONTINUOUS
10
1.1109873228346456
20
0.240396062992126
11
1.1149265748031496
21
0.2272381102362205
0
LINE
8
BLACK
6
CONTINUOUS
10
1.1149265748031496
20
0.2272381102362205
11
1.1173116141732282
21
0.2137117716535433
0
LINE
8
BLACK
6
CONTINUOUS
10
1.1173116141732282
20
0.2137117716535433
11
1.1181102362204725
21
0.2
0
LINE
8
BLACK
6
CONTINUOUS
10
1.1181102362204725
20
0.2
11
1.1173116141732282
21
0.1862882283464567
0
LINE
8
BLACK
6
CONTINUOUS
10
1.1173116141732282
20
0.1862882283464567
11
1.1149265748031496
21
0.1727618897637795
0
LINE
8
BLACK
6
CONTINUOUS
10
1.1149265748031496
20
0.1727618897637795
11
1.1109873228346456
21
0.159603937007874
0
LINE
8
BLACK
6
CONTINUOUS
10
1.1109873228346456
20
0.159603937007874
11
1.1055471653543307
21
0.1469922047244094
0
LINE
8
BLACK
6
CONTINUOUS
10
1.1055471653543307
20
0.1469922047244094
11
1.0986796456692913
21
0.1350973622047244
0
LINE
8
BLACK
6
CONTINUOUS
10
1.0986796456692913
20
0.1350973622047244
11
1.0904776771653544
21
0.1240801968503937
0
LINE
8
BLACK
6
CONTINUOUS
10
1.0904776771653544
20
0.1240801968503937
11
1.0810521653543306
21
0.1140897244094488
0
LINE
8
BLACK
6
CONTINUOUS
10
1.0810521653543306
20
0.1140897244094488
11
1.0705305511811023
21
0.1052610236220472
0
LINE
8
BLACK
6
CONTINUOUS
10
1.0705305511811023
20
0.1052610236220472
11
1.0590551181102361
21
0.0977135433070866
0
LINE
8
BLACK
6
CONTINUOUS
10
1.0590551181102361
20
0.0977135433070866
11
1.0467810629921259
21
0.0915492913385827
0
LINE
8
BLACK
6
CONTINUOUS
10
1.0467810629921259
20
0.0915492913385827
11
1.0338744094488188
21
0.0868516141732283
0
LINE
8
BLACK
6
CONTINUOUS
10
1.0338744094488188
20
0.0868516141732283
11
1.0205096456692913
21
0.0836841338582677
0
LINE
8
BLACK
6
CONTINUOUS
10
1.0205096456692913
20
0.0836841338582677
11
1.0068674803149607
21
0.0820896062992126
0
LINE
8
BLACK
6
CONTINUOUS
10
1.0068674803149607
20
0.0820896062992126
11
0.9931325196850393
21
0.0820896062992126
0
LINE
8
BLACK
6
CONTINUOUS
10
0.9931325196850393
20
0.0820896062992126
11
0.9794903543307086
21
0.0836841338582677
0
LINE
8
BLACK
6
CONTINUOUS
10
0.9794903543307086
20
0.0836841338582677
11
0.9661255905511811
21
0.0868516141732283
0
LINE
8
BLACK
6
CONTINUOUS
10
0.9661255905511811
20
0.0868516141732283
11
0.953218937007874
21
0.0915492913385827
0
LINE
8
BLACK
6
CONTINUOUS
10
0.953218937007874
20
0.0915492913385827
11
0.9409448818897638
21
0.0977135433070866
0
LINE
8
BLACK
6
CONTINUOUS
10
0.9409448818897638
20
0.0977135433070866
11
0.9294694488188976
21
0.1052610236220472
0
LINE
8
BLACK
6
CONTINUOUS
10
0.9294694488188976
20
0.1052610236220472
11
0.9189478346456693
21
0.1140897244094488
0
LINE
8
BLACK
6
CONTINUOUS
10
0.9189478346456693
20
0.1140897244094488
11
0.9095223228346456
21
0.1240801968503937
0
LINE
8
BLACK
6
CONTINUOUS
10
0.9095223228346456
20
0.1240801968503937
11
0.9013203543307087
21
0.1350973622047244
0
LINE
8
BLACK
6
CONTINUOUS
10
0.9013203543307087
20
0.1350973622047244
11
0.8944528346456693
21
0.1469922047244094
0
LINE
8
BLACK
6
CONTINUOUS
10
0.8944528346456693
20
0.1469922047244094
11
0.8890126771653543
21
0.159603937007874
0
LINE
8
BLACK
6
CONTINUOUS
10
0.8890126771653543
20
0.159603937007874
11
0.8850734251968504
21
0.1727618897637795
0
LINE
8
BLACK
6
CONTINUOUS
10
0.8850734251968504
20
0.1727618897637795
11
0.8826883858267717
21
0.1862882283464567
0
LINE
8
BLACK
6
CONTINUOUS
10
0.8826883858267717
20
0.1862882283464567
11
0.8818897637795275
21
0.2
0
LINE
8
BLACK
6
CONTINUOUS
10
0.8818897637795275
20
0.2
11
0.8826883858267717
21
0.2137117716535433
0
LINE
8
BLACK
6
CONTINUOUS
10
0.8826883858267717
20
0.2137117716535433
11
0.8850734251968504
21
0.2272381102362205
0
LINE
8
BLACK
6
CONTINUOUS
10
0.8850734251968504
20
0.2272381102362205
11
0.8890126771653543
21
0.240396062992126
0
LINE
8
BLACK
6
CONTINUOUS
10
0.8890126771653543
20
0.240396062992126
11
0.8944528346456693
21
0.2530077952755905
0
LINE
8
BLACK
6
CONTINUOUS
10
0.8944528346456693
20
0.2530077952755905
11
0.9013203543307087
21
0.2649026377952756
0
LINE
8
BLACK
6
CONTINUOUS
10
0.9013203543307087
20
0.2649026377952756
11
0.9095223228346456
21
0.2759198031496063
0
LINE
8
BLACK
6
CONTINUOUS
10
0.9095223228346456
20
0.2759198031496063
11
0.9189478346456693
21
0.2859102755905512
0
LINE
8
BLACK
6
CONTINUOUS
10
0.9189478346456693
20
0.2859102755905512
11
0.9294694488188976
21
0.2947389763779528
0
LINE
8
BLACK
6
CONTINUOUS
10
0.9294694488188976
20
0.2947389763779528
11
0.9409448818897638
21
0.3022864566929134
0
LINE
8
BLACK
6
CONTINUOUS
10
0.9409448818897638
20
0.3022864566929134
11
0.953218937007874
21
0.3084507086614173
0
LINE
8
BLACK
6
CONTINUOUS
10
0.953218937007874
20
0.3084507086614173
11
0.9661255905511811
21
0.3131483858267716
0
LINE
8
BLACK
6
CONTINUOUS
10
0.9661255905511811
20
0.3131483858267716
11
0.9794903543307086
21
0.3163158661417323
0
LINE
8
BLACK
6
CONTINUOUS
10
0.9794903543307086
20
0.3163158661417323
11
0.9931325196850393
21
0.3179103937007874
0
LINE
8
BLACK
6
CONTINUOUS
10
0.9931325196850393
20
0.3179103937007874
11
1.0068674803149607
21
0.3179103937007874
0
LINE
8
BLACK
6
CONTINUOUS
10
1.0068674803149607
20
0.3179103937007874
11
1.0205096456692913
21
0.3163158661417323
0
LINE
8
BLACK
6
CONTINUOUS
10
0.595
20
0.1381496062992126
11
0.445
21
0.1381496062992126
0
LINE
8
BLACK
6
CONTINUOUS
10
0.445
20
0.1381496062992126
11
0.445
21
0.2881496062992126
0
LINE
8
BLACK
6
CONTINUOUS
10
0.445
20
0.2881496062992126
11
0.595
21
0.2881496062992126
0
LINE
8
BLACK
6
CONTINUOUS
10
0.595
20
0.2881496062992126
11
0.595
21
0.1381496062992126
0
LINE
8
BLACK
6
CONTINUOUS
10
0.7949999999999999
20
0.1381496062992126
11
0.645
21
0.1381496062992126
0
LINE
8
BLACK
6
CONTINUOUS
10
0.645
20
0.1381496062992126
11
0.645
21
0.2881496062992126
0
LINE
8
BLACK
6
CONTINUOUS
10
0.645
20
0.2881496062992126
11
0.7949999999999999
21
0.2881496062992126
0
LINE
8
BLACK
6
CONTINUOUS
10
0.7949999999999999
20
0.2881496062992126
11
0.7949999999999999
21
0.1381496062992126
0
LINE
8
BLACK
6
CONTINUOUS
10
0.595
20
0.335
11
0.445
21
0.335
0
LINE
8
BLACK
6
CONTINUOUS
10
0.445
20
0.335
11
0.445
21
0.485
0
LINE
8
BLACK
6
CONTINUOUS
10
0.445
20
0.485
11
0.595
21
0.485
0
LINE
8
BLACK
6
CONTINUOUS
10
0.595
20
0.485
11
0.595
21
0.335
0
LINE
8
BLACK
6
CONTINUOUS
10
0.7949999999999999
20
0.335
11
0.645
21
0.335
0
LINE
8
BLACK
6
CONTINUOUS
10
0.645
20
0.335
11
0.645
21
0.485
0
LINE
8
BLACK
6
CONTINUOUS
10
0.645
20
0.485
11
0.7949999999999999
21
0.485
0
LINE
8
BLACK
6
CONTINUOUS
10
0.7949999999999999
20
0.485
11
0.7949999999999999
21
0.335
0
LINE
8
BLACK
6
CONTINUOUS
10
0.18
20
0.38
11
0.12
21
0.38
0
LINE
8
BLACK
6
CONTINUOUS
10
0.12
20
0.38
11
0.12
21
0.44
0
LINE
8
BLACK
6
CONTINUOUS
10
0.12
20
0.44
11
0.18
21
0.44
0
LINE
8
BLACK
6
CONTINUOUS
10
0.18
20
0.44
11
0.18
21
0.38
0
LINE
8
BLACK
6
CONTINUOUS
10
0.28
20
0.38
11
0.22
21
0.38
0
LINE
8
BLACK
6
CONTINUOUS
10
0.22
20
0.38
11
0.22
21
0.44
0
LINE
8
BLACK
6
CONTINUOUS
10
0.22
20
0.44
11
0.28
21
0.44
0
LINE
8
BLACK
6
CONTINUOUS
10
0.28
20
0.44
11
0.28
21
0.38
0
LINE
8
BLACK
6
CONTINUOUS
10
0.18
20
0.48
11
0.12
21
0.48
0
LINE
8
BLACK
6
CONTINUOUS
10
0.12
20
0.48
11
0.12
21
0.54
0
LINE
8
BLACK
6
CONTINUOUS
10
0.12
20
0.54
11
0.18
21
0.54
0
LINE
8
BLACK
6
CONTINUOUS
10
0.18
20
0.54
11
0.18
21
0.48
0
LINE
8
BLACK
6
CONTINUOUS
10
0.28
20
0.48
11
0.22
21
0.48
0
LINE
8
BLACK
6
CONTINUOUS
10
0.22
20
0.48
11
0.22
21
0.54
0
LINE
8
BLACK
6
CONTINUOUS
10
0.22
20
0.54
11
0.28
21
0.54
0
LINE
8
BLACK
6
CONTINUOUS
10
0.28
20
0.54
11
0.28
21
0.48
0
LINE
8
BLACK
6
CONTINUOUS
10
0.18
20
0.58
11
0.12
21
0.58
0
LINE
8
BLACK
6
CONTINUOUS
10
0.12
20
0.58
11
0.12
21
0.64
0
LINE
8
BLACK
6
CONTINUOUS
10
0.12
20
0.64
11
0.18
21
0.64
0
LINE
8
BLACK
6
CONTINUOUS
10
0.18
20
0.64
11
0.18
21
0.58
0
LINE
8
BLACK
6
CONTINUOUS
10
0.28
20
0.58
11
0.22
21
0.58
0
LINE
8
BLACK
6
CONTINUOUS
10
0.22
20
0.58
11
0.22
21
0.64
0
LINE
8
BLACK
6
CONTINUOUS
10
0.22
20
0.64
11
0.28
21
0.64
0
LINE
8
BLACK
6
CONTINUOUS
10
0.28
20
0.64
11
0.28
21
0.58
0
LINE
8
BLACK
6
CONTINUOUS
10
0.82
20
0.7999999999999999
11
0.76
21
0.7999999999999999
0
LINE
8
BLACK
6
CONTINUOUS
10
0.76
20
0.7999999999999999
11
0.76
21
0.86
0
LINE
8
BLACK
6
CONTINUOUS
10
0.76
20
0.86
11
0.82
21
0.86
0
LINE
8
BLACK
6
CONTINUOUS
10
0.82
20
0.86
11
0.82
21
0.7999999999999999
0
LINE
8
BLACK
6
CONTINUOUS
10
0.9199999999999999
20
0.7999999999999999
11
0.86
21
0.7999999999999999
0
LINE
8
BLACK
6
CONTINUOUS
10
0.86
20
0.7999999999999999
11
0.86
21
0.86
0
LINE
8
BLACK
6
CONTINUOUS
10
0.86
20
0.86
11
0.9199999999999999
21
0.86
0
LINE
8
BLACK
6
CONTINUOUS
10
0.9199999999999999
20
0.86
11
0.9199999999999999
21
0.7999999999999999
0
LINE
8
BLACK
6
CONTINUOUS
10
0.1825
20
0.945
11
0.1225
21
0.945
0
LINE
8
BLACK
6
CONTINUOUS
10
0.1225
20
0.945
11
0.1225
21
1.0049999999999999
0
LINE
8
BLACK
6
CONTINUOUS
10
0.1225
20
1.0049999999999999
11
0.1825
21
1.0049999999999999
0
LINE
8
BLACK
6
CONTINUOUS
10
0.1825
20
1.0049999999999999
11
0.1825
21
0.945
0
LINE
8
BLACK
6
CONTINUOUS
10
0.87
20
1.03
11
0.8099999999999999
21
1.03
0
LINE
8
BLACK
6
CONTINUOUS
10
0.8099999999999999
20
1.03
11
0.8099999999999999
21
1.0900000000000001
0
LINE
8
BLACK
6
CONTINUOUS
10
0.8099999999999999
20
1.0900000000000001
11
0.87
21
1.0900000000000001
0
LINE
8
BLACK
6
CONTINUOUS
10
0.87
20
1.0900000000000001
11
0.87
21
1.03
0
LINE
8
BLACK
6
CONTINUOUS
10
0.97
20
1.03
11
0.91
21
1.03
0
LINE
8
BLACK
6
CONTINUOUS
10
0.91
20
1.03
11
0.91
21
1.0900000000000001
0
LINE
8
BLACK
6
CONTINUOUS
10
0.91
20
1.0900000000000001
11
0.97
21
1.0900000000000001
0
LINE
8
BLACK
6
CONTINUOUS
10
0.97
20
1.0900000000000001
11
0.97
21
1.03
0
LINE
8
BLACK
6
CONTINUOUS
10
1.0700000000000001
20
1.03
11
1.01
21
1.03
0
LINE
8
BLACK
6
CONTINUOUS
10
1.01
20
1.03
11
1.01
21
1.0900000000000001
0
LINE
8
BLACK
6
CONTINUOUS
10
1.01
20
1.0900000000000001
11
1.0700000000000001
21
1.0900000000000001
0
LINE
8
BLACK
6
CONTINUOUS
10
1.0700000000000001
20
1.0900000000000001
11
1.0700000000000001
21
1.03
0
LINE
8
BLACK
6
CONTINUOUS
10
0.1825
20
1.0449999999999999
11
0.1225
21
1.0449999999999999
0
LINE
8
BLACK
6
CONTINUOUS
10
0.1225
20
1.0449999999999999
11
0.1225
21
1.105
0
LINE
8
BLACK
6
CONTINUOUS
10
0.1225
20
1.105
11
0.1825
21
1.105
0
LINE
8
BLACK
6
CONTINUOUS
10
0.1825
20
1.105
11
0.1825
21
1.0449999999999999
0
LINE
8
BLACK
6
CONTINUOUS
10
0.87
20
1.1299999999999999
11
0.8099999999999999
21
1.1299999999999999
0
LINE
8
BLACK
6
CONTINUOUS
10
0.8099999999999999
20
1.1299999999999999
11
0.8099999999999999
21
1.1899999999999999
0
LINE
8
BLACK
6
CONTINUOUS
10
0.8099999999999999
20
1.1899999999999999
11
0.87
21
1.1899999999999999
0
LINE
8
BLACK
6
CONTINUOUS
10
0.87
20
1.1899999999999999
11
0.87
21
1.1299999999999999
0
LINE
8
BLACK
6
CONTINUOUS
10
0.97
20
1.1299999999999999
11
0.91
21
1.1299999999999999
0
LINE
8
BLACK
6
CONTINUOUS
10
0.91
20
1.1299999999999999
11
0.91
21
1.1899999999999999
0
LINE
8
BLACK
6
CONTINUOUS
10
0.91
20
1.1899999999999999
11
0.97
21
1.1899999999999999
0
LINE
8
BLACK
6
CONTINUOUS
10
0.97
20
1.1899999999999999
11
0.97
21
1.1299999999999999
0
LINE
8
BLACK
6
CONTINUOUS
10
1.0700000000000001
20
1.1299999999999999
11
1.01
21
1.1299999999999999
0
LINE
8
BLACK
6
CONTINUOUS
10
1.01
20
1.1299999999999999
11
1.01
21
1.1899999999999999
0
LINE
8
BLACK
6
CONTINUOUS
10
1.01
20
1.1899999999999999
11
1.0700000000000001
21
1.1899999999999999
0
LINE
8
BLACK
6
CONTINUOUS
10
1.0700000000000001
20
1.1899999999999999
11
1.0700000000000001
21
1.1299999999999999
0
LINE
8
BLACK
6
CONTINUOUS
10
0.1825
20
1.145
11
0.1225
21
1.145
0
LINE
8
BLACK
6
CONTINUOUS
10
0.1225
20
1.145
11
0.1225
21
1.2050000000000001
0
LINE
8
BLACK
6
CONTINUOUS
10
0.1225
20
1.2050000000000001
11
0.1825
21
1.2050000000000001
0
LINE
8
BLACK
6
CONTINUOUS
10
0.1825
20
1.2050000000000001
11
0.1825
21
1.145
0
LINE
8
BLACK
6
CONTINUOUS
10
0.2205096456692913
20
1.5163158661417322
11
0.2338744094488189
21
1.5131483858267716
0
LINE
8
BLACK
6
CONTINUOUS
10
0.2338744094488189
20
1.5131483858267716
11
0.246781062992126
21
1.5084507086614174
0
LINE
8
BLACK
6
CONTINUOUS
10
0.246781062992126
20
1.5084507086614174
11
0.2590551181102362
21
1.5022864566929133
0
LINE
8
BLACK
6
CONTINUOUS
10
0.2590551181102362
20
1.5022864566929133
11
0.2705305511811024
21
1.4947389763779528
0
LINE
8
BLACK
6
CONTINUOUS
10
0.2705305511811024
20
1.4947389763779528
11
0.2810521653543307
21
1.4859102755905511
0
LINE
8
BLACK
6
CONTINUOUS
10
0.2810521653543307
20
1.4859102755905511
11
0.2904776771653543
21
1.4759198031496064
0
LINE
8
BLACK
6
CONTINUOUS
10
0.2904776771653543
20
1.4759198031496064
11
0.2986796456692913
21
1.4649026377952756
0
LINE
8
BLACK
6
CONTINUOUS
10
0.2986796456692913
20
1.4649026377952756
11
0.3055471653543307
21
1.4530077952755904
0
LINE
8
BLACK
6
CONTINUOUS
10
0.3055471653543307
20
1.4530077952755904
11
0.3109873228346456
21
1.440396062992126
0
LINE
8
BLACK
6
CONTINUOUS
10
0.3109873228346456
20
1.440396062992126
11
0.3149265748031496
21
1.4272381102362204
0
LINE
8
BLACK
6
CONTINUOUS
10
0.3149265748031496
20
1.4272381102362204
11
0.3173116141732283
21
1.4137117716535432
0
LINE
8
BLACK
6
CONTINUOUS
10
0.3173116141732283
20
1.4137117716535432
11
0.3181102362204724
21
1.3999999999999999
0
LINE
8
BLACK
6
CONTINUOUS
10
0.3181102362204724
20
1.3999999999999999
11
0.3173116141732283
21
1.3862882283464566
0
LINE
8
BLACK
6
CONTINUOUS
10
0.3173116141732283
20
1.3862882283464566
11
0.3149265748031496
21
1.3727618897637794
0
LINE
8
BLACK
6
CONTINUOUS
10
0.3149265748031496
20
1.3727618897637794
11
0.3109873228346456
21
1.3596039370078741
0
LINE
8
BLACK
6
CONTINUOUS
10
0.3109873228346456
20
1.3596039370078741
11
0.3055471653543307
21
1.3469922047244094
0
LINE
8
BLACK
6
CONTINUOUS
10
0.3055471653543307
20
1.3469922047244094
11
0.2986796456692913
21
1.3350973622047244
0
LINE
8
BLACK
6
CONTINUOUS
10
0.2986796456692913
20
1.3350973622047244
11
0.2904776771653543
21
1.3240801968503937
0
LINE
8
BLACK
6
CONTINUOUS
10
0.2904776771653543
20
1.3240801968503937
11
0.2810521653543307
21
1.3140897244094487
0
LINE
8
BLACK
6
CONTINUOUS
10
0.2810521653543307
20
1.3140897244094487
11
0.2705305511811024
21
1.3052610236220472
0
LINE
8
BLACK
6
CONTINUOUS
10
0.2705305511811024
20
1.3052610236220472
11
0.2590551181102362
21
1.2977135433070865
0
LINE
8
BLACK
6
CONTINUOUS
10
0.2590551181102362
20
1.2977135433070865
11
0.246781062992126
21
1.2915492913385827
0
LINE
8
BLACK
6
CONTINUOUS
10
0.246781062992126
20
1.2915492913385827
11
0.2338744094488189
21
1.2868516141732282
0
LINE
8
BLACK
6
CONTINUOUS
10
0.2338744094488189
20
1.2868516141732282
11
0.2205096456692913
21
1.2836841338582676
0
LINE
8
BLACK
6
CONTINUOUS
10
0.2205096456692913
20
1.2836841338582676
11
0.2068674803149606
21
1.2820896062992126
0
LINE
8
BLACK
6
CONTINUOUS
10
0.2068674803149606
20
1.2820896062992126
11
0.1931325196850394
21
1.2820896062992126
0
LINE
8
BLACK
6
CONTINUOUS
10
0.1931325196850394
20
1.2820896062992126
11
0.1794903543307086
21
1.2836841338582676
0
LINE
8
BLACK
6
CONTINUOUS
10
0.1794903543307086
20
1.2836841338582676
11
0.1661255905511811
21
1.2868516141732282
0
LINE
8
BLACK
6
CONTINUOUS
10
0.1661255905511811
20
1.2868516141732282
11
0.153218937007874
21
1.2915492913385827
0
LINE
8
BLACK
6
CONTINUOUS
10
0.153218937007874
20
1.2915492913385827
11
0.1409448818897638
21
1.2977135433070865
0
LINE
8
BLACK
6
CONTINUOUS
10
0.1409448818897638
20
1.2977135433070865
11
0.1294694488188976
21
1.3052610236220472
0
LINE
8
BLACK
6
CONTINUOUS
10
0.1294694488188976
20
1.3052610236220472
11
0.1189478346456693
21
1.3140897244094487
0
LINE
8
BLACK
6
CONTINUOUS
10
0.1189478346456693
20
1.3140897244094487
11
0.1095223228346457
21
1.3240801968503937
0
LINE
8
BLACK
6
CONTINUOUS
10
0.1095223228346457
20
1.3240801968503937
11
0.1013203543307087
21
1.3350973622047244
0
LINE
8
BLACK
6
CONTINUOUS
10
0.1013203543307087
20
1.3350973622047244
11
0.0944528346456693
21
1.3469922047244094
0
LINE
8
BLACK
6
CONTINUOUS
10
0.0944528346456693
20
1.3469922047244094
11
0.0890126771653543
21
1.3596039370078741
0
LINE
8
BLACK
6
CONTINUOUS
10
0.0890126771653543
20
1.3596039370078741
11
0.0850734251968504
21
1.3727618897637794
0
LINE
8
BLACK
6
CONTINUOUS
10
0.0850734251968504
20
1.3727618897637794
11
0.0826883858267717
21
1.3862882283464566
0
LINE
8
BLACK
6
CONTINUOUS
10
0.0826883858267717
20
1.3862882283464566
11
0.0818897637795276
21
1.3999999999999999
0
LINE
8
BLACK
6
CONTINUOUS
10
0.0818897637795276
20
1.3999999999999999
11
0.0826883858267717
21
1.4137117716535432
0
LINE
8
BLACK
6
CONTINUOUS
10
0.0826883858267717
20
1.4137117716535432
11
0.0850734251968504
21
1.4272381102362204
0
LINE
8
BLACK
6
CONTINUOUS
10
0.0850734251968504
20
1.4272381102362204
11
0.0890126771653543
21
1.440396062992126
0
LINE
8
BLACK
6
CONTINUOUS
10
0.0890126771653543
20
1.440396062992126
11
0.0944528346456693
21
1.4530077952755904
0
LINE
8
BLACK
6
CONTINUOUS
10
0.0944528346456693
20
1.4530077952755904
11
0.1013203543307087
21
1.4649026377952756
0
LINE
8
BLACK
6
CONTINUOUS
10
0.1013203543307087
20
1.4649026377952756
11
0.1095223228346457
21
1.4759198031496064
0
LINE
8
BLACK
6
CONTINUOUS
10
0.1095223228346457
20
1.4759198031496064
11
0.1189478346456693
21
1.4859102755905511
0
LINE
8
BLACK
6
CONTINUOUS
10
0.1189478346456693
20
1.4859102755905511
11
0.1294694488188976
21
1.4947389763779528
0
LINE
8
BLACK
6
CONTINUOUS
10
0.1294694488188976
20
1.4947389763779528
11
0.1409448818897638
21
1.5022864566929133
0
LINE
8
BLACK
6
CONTINUOUS
10
0.1409448818897638
20
1.5022864566929133
11
0.153218937007874
21
1.5084507086614174
0
LINE
8
BLACK
6
CONTINUOUS
10
0.153218937007874
20
1.5084507086614174
11
0.1661255905511811
21
1.5131483858267716
0
LINE
8
BLACK
6
CONTINUOUS
10
0.1661255905511811
20
1.5131483858267716
11
0.1794903543307086
21
1.5163158661417322
0
LINE
8
BLACK
6
CONTINUOUS
10
0.1794903543307086
20
1.5163158661417322
11
0.1931325196850394
21
1.5179103937007874
0
LINE
8
BLACK
6
CONTINUOUS
10
0.1931325196850394
20
1.5179103937007874
11
0.2068674803149606
21
1.5179103937007874
0
LINE
8
BLACK
6
CONTINUOUS
10
0.2068674803149606
20
1.5179103937007874
11
0.2205096456692913
21
1.5163158661417322
0
LINE
8
BLACK
6
CONTINUOUS
10
1.0205096456692913
20
1.5163158661417322
11
1.0338744094488188
21
1.5131483858267716
0
LINE
8
BLACK
6
CONTINUOUS
10
1.0338744094488188
20
1.5131483858267716
11
1.0467810629921259
21
1.5084507086614174
0
LINE
8
BLACK
6
CONTINUOUS
10
1.0467810629921259
20
1.5084507086614174
11
1.0590551181102361
21
1.5022864566929133
0
LINE
8
BLACK
6
CONTINUOUS
10
1.0590551181102361
20
1.5022864566929133
11
1.0705305511811023
21
1.4947389763779528
0
LINE
8
BLACK
6
CONTINUOUS
10
1.0705305511811023
20
1.4947389763779528
11
1.0810521653543306
21
1.4859102755905511
0
LINE
8
BLACK
6
CONTINUOUS
10
1.0810521653543306
20
1.4859102755905511
11
1.0904776771653544
21
1.4759198031496064
0
LINE
8
BLACK
6
CONTINUOUS
10
1.0904776771653544
20
1.4759198031496064
11
1.0986796456692913
21
1.4649026377952756
0
LINE
8
BLACK
6
CONTINUOUS
10
1.0986796456692913
20
1.4649026377952756
11
1.1055471653543307
21
1.4530077952755904
0
LINE
8
BLACK
6
CONTINUOUS
10
1.1055471653543307
20
1.4530077952755904
11
1.1109873228346456
21
1.440396062992126
0
LINE
8
BLACK
6
CONTINUOUS
10
1.1109873228346456
20
1.440396062992126
11
1.1149265748031496
21
1.4272381102362204
0
LINE
8
BLACK
6
CONTINUOUS
10
1.1149265748031496
20
1.4272381102362204
11
1.1173116141732282
21
1.4137117716535432
0
LINE
8
BLACK
6
CONTINUOUS
10
1.1173116141732282
20
1.4137117716535432
11
1.1181102362204725
21
1.3999999999999999
0
LINE
8
BLACK
6
CONTINUOUS
10
1.1181102362204725
20
1.3999999999999999
11
1.1173116141732282
21
1.3862882283464566
0
LINE
8
BLACK
6
CONTINUOUS
10
1.1173116141732282
20
1.3862882283464566
11
1.1149265748031496
21
1.3727618897637794
0
LINE
8
BLACK
6
CONTINUOUS
10
1.1149265748031496
20
1.3727618897637794
11
1.1109873228346456
21
1.3596039370078741
0
LINE
8
BLACK
6
CONTINUOUS
10
1.1109873228346456
20
1.3596039370078741
11
1.1055471653543307
21
1.3469922047244094
0
LINE
8
BLACK
6
CONTINUOUS
10
1.1055471653543307
20
1.3469922047244094
11
1.0986796456692913
21
1.3350973622047244
0
LINE
8
BLACK
6
CONTINUOUS
10
1.0986796456692913
20
1.3350973622047244
11
1.0904776771653544
21
1.3240801968503937
0
LINE
8
BLACK
6
CONTINUOUS
10
1.0904776771653544
20
1.3240801968503937
11
1.0810521653543306
21
1.3140897244094487
0
LINE
8
BLACK
6
CONTINUOUS
10
1.0810521653543306
20
1.3140897244094487
11
1.0705305511811023
21
1.3052610236220472
0
LINE
8
BLACK
6
CONTINUOUS
10
1.0705305511811023
20
1.3052610236220472
11
1.0590551181102361
21
1.2977135433070865
0
LINE
8
BLACK
6
CONTINUOUS
10
1.0590551181102361
20
1.2977135433070865
11
1.0467810629921259
21
1.2915492913385827
0
LINE
8
BLACK
6
CONTINUOUS
10
1.0467810629921259
20
1.2915492913385827
11
1.0338744094488188
21
1.2868516141732282
0
LINE
8
BLACK
6
CONTINUOUS
10
1.0338744094488188
20
1.2868516141732282
11
1.0205096456692913
21
1.2836841338582676
0
LINE
8
BLACK
6
CONTINUOUS
10
1.0205096456692913
20
1.2836841338582676
11
1.0068674803149607
21
1.2820896062992126
0
LINE
8
BLACK
6
CONTINUOUS
10
1.0068674803149607
20
1.2820896062992126
11
0.9931325196850393
21
1.2820896062992126
0
LINE
8
BLACK
6
CONTINUOUS
10
0.9931325196850393
20
1.2820896062992126
11
0.9794903543307086
21
1.2836841338582676
0
LINE
8
BLACK
6
CONTINUOUS
10
0.9794903543307086
20
1.2836841338582676
11
0.9661255905511811
21
1.2868516141732282
0
LINE
8
BLACK
6
CONTINUOUS
10
0.9661255905511811
20
1.2868516141732282
11
0.953218937007874
21
1.2915492913385827
0
LINE
8
BLACK
6
CONTINUOUS
10
0.953218937007874
20
1.2915492913385827
11
0.9409448818897638
21
1.2977135433070865
0
LINE
8
BLACK
6
CONTINUOUS
10
0.9409448818897638
20
1.2977135433070865
11
0.9294694488188976
21
1.3052610236220472
0
LINE
8
BLACK
6
CONTINUOUS
10
0.9294694488188976
20
1.3052610236220472
11
0.9189478346456693
21
1.3140897244094487
0
LINE
8
BLACK
6
CONTINUOUS
10
0.9189478346456693
20
1.3140897244094487
11
0.9095223228346456
21
1.3240801968503937
0
LINE
8
BLACK
6
CONTINUOUS
10
0.9095223228346456
20
1.3240801968503937
11
0.9013203543307087
21
1.3350973622047244
0
LINE
8
BLACK
6
CONTINUOUS
10
0.9013203543307087
20
1.3350973622047244
11
0.8944528346456693
21
1.3469922047244094
0
LINE
8
BLACK
6
CONTINUOUS
10
0.8944528346456693
20
1.3469922047244094
11
0.8890126771653543
21
1.3596039370078741
0
LINE
8
BLACK
6
CONTINUOUS
10
0.8890126771653543
20
1.3596039370078741
11
0.8850734251968504
21
1.3727618897637794
0
LINE
8
BLACK
6
CONTINUOUS
10
0.8850734251968504
20
1.3727618897637794
11
0.8826883858267717
21
1.3862882283464566
0
LINE
8
BLACK
6
CONTINUOUS
10
0.8826883858267717
20
1.3862882283464566
11
0.8818897637795275
21
1.3999999999999999
0
LINE
8
BLACK
6
CONTINUOUS
10
0.8818897637795275
20
1.3999999999999999
11
0.8826883858267717
21
1.4137117716535432
0
LINE
8
BLACK
6
CONTINUOUS
10
0.8826883858267717
20
1.4137117716535432
11
0.8850734251968504
21
1.4272381102362204
0
LINE
8
BLACK
6
CONTINUOUS
10
0.8850734251968504
20
1.4272381102362204
11
0.8890126771653543
21
1.440396062992126
0
LINE
8
BLACK
6
CONTINUOUS
10
0.8890126771653543
20
1.440396062992126
11
0.8944528346456693
21
1.4530077952755904
0
LINE
8
BLACK
6
CONTINUOUS
10
0.8944528346456693
20
1.4530077952755904
11
0.9013203543307087
21
1.4649026377952756
0
LINE
8
BLACK
6
CONTINUOUS
10
0.9013203543307087
20
1.4649026377952756
11
0.9095223228346456
21
1.4759198031496064
0
LINE
8
BLACK
6
CONTINUOUS
10
0.9095223228346456
20
1.4759198031496064
11
0.9189478346456693
21
1.4859102755905511
0
LINE
8
BLACK
6
CONTINUOUS
10
0.9189478346456693
20
1.4859102755905511
11
0.9294694488188976
21
1.4947389763779528
0
LINE
8
BLACK
6
CONTINUOUS
10
0.9294694488188976
20
1.4947389763779528
11
0.9409448818897638
21
1.5022864566929133
0
LINE
8
BLACK
6
CONTINUOUS
10
0.9409448818897638
20
1.5022864566929133
11
0.953218937007874
21
1.5084507086614174
0
LINE
8
BLACK
6
CONTINUOUS
10
0.953218937007874
20
1.5084507086614174
11
0.9661255905511811
21
1.5131483858267716
0
LINE
8
BLACK
6
CONTINUOUS
10
0.9661255905511811
20
1.5131483858267716
11
0.9794903543307086
21
1.5163158661417322
0
LINE
8
BLACK
6
CONTINUOUS
10
0.9794903543307086
20
1.5163158661417322
11
0.9931325196850393
21
1.5179103937007874
0
LINE
8
BLACK
6
CONTINUOUS
10
0.9931325196850393
20
1.5179103937007874
11
1.0068674803149607
21
1.5179103937007874
0
LINE
8
BLACK
6
CONTINUOUS
10
1.0068674803149607
20
1.5179103937007874
11
1.0205096456692913
21
1.5163158661417322
0
LINE
8
BLACK
6
CONTINUOUS
10
0.43
20
1.3174999999999999
11
0.37
21
1.3174999999999999
0
LINE
8
BLACK
6
CONTINUOUS
10
0.37
20
1.3174999999999999
11
0.37
21
1.3774999999999999
0
LINE
8
BLACK
6
CONTINUOUS
10
0.37
20
1.3774999999999999
11
0.43
21
1.3774999999999999
0
LINE
8
BLACK
6
CONTINUOUS
10
0.43
20
1.3774999999999999
11
0.43
21
1.3174999999999999
0
LINE
8
BLACK
6
CONTINUOUS
10
0.53
20
1.3174999999999999
11
0.47
21
1.3174999999999999
0
LINE
8
BLACK
6
CONTINUOUS
10
0.47
20
1.3174999999999999
11
0.47
21
1.3774999999999999
0
LINE
8
BLACK
6
CONTINUOUS
10
0.47
20
1.3774999999999999
11
0.53
21
1.3774999999999999
0
LINE
8
BLACK
6
CONTINUOUS
10
0.53
20
1.3774999999999999
11
0.53
21
1.3174999999999999
0
LINE
8
BLACK
6
CONTINUOUS
10
0.63
20
1.3174999999999999
11
0.57
21
1.3174999999999999
0
LINE
8
BLACK
6
CONTINUOUS
10
0.57
20
1.3174999999999999
11
0.57
21
1.3774999999999999
0
LINE
8
BLACK
6
CONTINUOUS
10
0.57
20
1.3774999999999999
11
0.63
21
1.3774999999999999
0
LINE
8
BLACK
6
CONTINUOUS
10
0.63
20
1.3774999999999999
11
0.63
21
1.3174999999999999
0
LINE
8
BLACK
6
CONTINUOUS
10
0.73
20
1.3174999999999999
11
0.67
21
1.3174999999999999
0
LINE
8
BLACK
6
CONTINUOUS
10
0.67
20
1.3174999999999999
11
0.67
21
1.3774999999999999
0
LINE
8
BLACK
6
CONTINUOUS
10
0.67
20
1.3774999999999999
11
0.73
21
1.3774999999999999
0
LINE
8
BLACK
6
CONTINUOUS
10
0.73
20
1.3774999999999999
11
0.73
21
1.3174999999999999
0
LINE
8
BLACK
6
CONTINUOUS
10
0.83
20
1.3174999999999999
11
0.77
21
1.3174999999999999
0
LINE
8
BLACK
6
CONTINUOUS
10
0.77
20
1.3174999999999999
11
0.77
21
1.3774999999999999
0
LINE
8
BLACK
6
CONTINUOUS
10
0.77
20
1.3774999999999999
11
0.83
21
1.3774999999999999
0
LINE
8
BLACK
6
CONTINUOUS
10
0.83
20
1.3774999999999999
11
0.83
21
1.3174999999999999
0
LINE
8
BLACK
6
CONTINUOUS
10
0.43
20
1.4175
11
0.37
21
1.4175
0
LINE
8
BLACK
6
CONTINUOUS
10
0.37
20
1.4175
11
0.37
21
1.4775
0
LINE
8
BLACK
6
CONTINUOUS
10
0.37
20
1.4775
11
0.43
21
1.4775
0
LINE
8
BLACK
6
CONTINUOUS
10
0.43
20
1.4775
11
0.43
21
1.4175
0
LINE
8
BLACK
6
CONTINUOUS
10
0.53
20
1.4175
11
0.47
21
1.4175
0
LINE
8
BLACK
6
CONTINUOUS
10
0.47
20
1.4175
11
0.47
21
1.4775
0
LINE
8
BLACK
6
CONTINUOUS
10
0.47
20
1.4775
11
0.53
21
1.4775
0
LINE
8
BLACK
6
CONTINUOUS
10
0.53
20
1.4775
11
0.53
21
1.4175
0
LINE
8
BLACK
6
CONTINUOUS
10
0.63
20
1.4175
11
0.57
21
1.4175
0
LINE
8
BLACK
6
CONTINUOUS
10
0.57
20
1.4175
11
0.57
21
1.4775
0
LINE
8
BLACK
6
CONTINUOUS
10
0.57
20
1.4775
11
0.63
21
1.4775
0
LINE
8
BLACK
6
CONTINUOUS
10
0.63
20
1.4775
11
0.63
21
1.4175
0
LINE
8
BLACK
6
CONTINUOUS
10
0.73
20
1.4175
11
0.67
21
1.4175
0
LINE
8
BLACK
6
CONTINUOUS
10
0.67
20
1.4175
11
0.67
21
1.4775
0
LINE
8
BLACK
6
CONTINUOUS
10
0.67
20
1.4775
11
0.73
21
1.4775
0
LINE
8
BLACK
6
CONTINUOUS
10
0.73
20
1.4775
11
0.73
21
1.4175
0
LINE
8
BLACK
6
CONTINUOUS
10
0.83
20
1.4175
11
0.77
21
1.4175
0
LINE
8
BLACK
6
CONTINUOUS
10
0.77
20
1.4175
11
0.77
21
1.4775
0
LINE
8
BLACK
6
CONTINUOUS
10
0.77
20
1.4775
11
0.83
21
1.4775
0
LINE
8
BLACK
6
CONTINUOUS
10
0.83
20
1.4775
11
0.83
21
1.4175
  0
ENDSEC
  0
EOF
