  0
SECTION
  2
HEADER
  9
$ANGBASE
  50
0.0
  9
$ANGDIR
  70
1
  9
$MEASUREMENT
  70
0
  0
ENDSEC
  0
SECTION
  2
TABLES
  0
TABLE
  2
LTYPE
  70
4
  0
LTYPE
  5
40F
  2
CONTINUOUS
  70
0
  3
Solid line
  72
65
  73
0
  40
0.0
  0
LTYPE
  5
410
  2
DASHDOT
 70
0
  3
Dash Dot ____ _ ____ _
 72
65
 73
4
 40
2.0
 49
1.25
 49
-0.25
 49
0.25
 49
-0.25
  0
LTYPE
  5
411
  2
DASHED
 70
0
  3
Dashed __ __ __ __ __
 72
65
 73
2
 40
0.75
 49
0.5
 49
-0.25
  0
LTYPE
  5
43B
  2
DOTTED
 70
0
  3
Dotted .  .  .  .
 72
65
 73
2
 40
0.2
 49
0.0
 49
-0.2
  0
ENDTAB
  0
TABLE
  2
STYLE
  70
4
  0
STYLE
  2
KICAD
  70
0
  40
0
  41
1
  42
1
  50
0
  71
0
  3
isocp.shx
  0
STYLE
  2
KICADB
  70
0
  40
0
  41
1
  42
1
  50
0
  71
0
  3
isocp.shx
  0
STYLE
  2
KICADI
  70
0
  40
0
  41
1
  42
1
  50
15
  71
0
  3
isocp.shx
  0
STYLE
  2
KICADBI
  70
0
  40
0
  41
1
  42
1
  50
15
  71
0
  3
isocp.shx
  0
ENDTAB
  0
TABLE
  2
LAYER
  70
1
  0
LAYER
  2
BLACK
  70
0
  62
7
  6
CONTINUOUS
  0
ENDTAB
  0
ENDSEC
  0
SECTION
  2
ENTITIES
0
LINE
8
BLACK
6
CONTINUOUS
10
0.0323491
20
1.56494
11
0.033433
21
1.56657
0
LINE
8
BLACK
6
CONTINUOUS
10
0.033433
20
1.56657
11
0.0350551
21
1.56765
0
LINE
8
BLACK
6
CONTINUOUS
10
0.0350551
20
1.56765
11
0.0369685
21
1.56803
0
LINE
8
BLACK
6
CONTINUOUS
10
0.0369685
20
1.56803
11
1.16303
21
1.56803
0
LINE
8
BLACK
6
CONTINUOUS
10
1.16303
20
1.56803
11
1.16494
21
1.56765
0
LINE
8
BLACK
6
CONTINUOUS
10
1.16494
20
1.56765
11
1.16657
21
1.56657
0
LINE
8
BLACK
6
CONTINUOUS
10
1.16657
20
1.56657
11
1.16765
21
1.56494
0
LINE
8
BLACK
6
CONTINUOUS
10
1.16765
20
1.56494
11
1.16803
21
1.56303
0
LINE
8
BLACK
6
CONTINUOUS
10
1.16803
20
1.56303
11
1.16803
21
0.0369685
0
LINE
8
BLACK
6
CONTINUOUS
10
1.16803
20
0.0369685
11
1.16765
21
0.0350551
0
LINE
8
BLACK
6
CONTINUOUS
10
1.16765
20
0.0350551
11
1.16657
21
0.033433
0
LINE
8
BLACK
6
CONTINUOUS
10
1.16657
20
0.033433
11
1.16494
21
0.0323491
0
LINE
8
BLACK
6
CONTINUOUS
10
1.16494
20
0.0323491
11
1.16303
21
0.0319685
0
LINE
8
BLACK
6
CONTINUOUS
10
1.16303
20
0.0319685
11
0.0369685
21
0.0319685
0
LINE
8
BLACK
6
CONTINUOUS
10
0.0369685
20
0.0319685
11
0.0350551
21
0.0323491
0
LINE
8
BLACK
6
CONTINUOUS
10
0.0350551
20
0.0323491
11
0.033433
21
0.033433
0
LINE
8
BLACK
6
CONTINUOUS
10
0.033433
20
0.033433
11
0.0323491
21
0.0350551
0
LINE
8
BLACK
6
CONTINUOUS
10
0.0323491
20
0.0350551
11
0.0319685
21
0.0369685
0
LINE
8
BLACK
6
CONTINUOUS
10
0.0319685
20
0.0369685
11
0.0319685
21
1.56303
0
LINE
8
BLACK
6
CONTINUOUS
10
0.0319685
20
1.56303
11
0.0323491
21
1.56494
0
LINE
8
BLACK
6
CONTINUOUS
10
0.105492
20
0.465673
11
0.112138
21
0.461186
0
LINE
8
BLACK
6
CONTINUOUS
10
0.112138
20
0.461186
11
0.120496
21
0.45951
0
LINE
8
BLACK
6
CONTINUOUS
10
0.120496
20
0.45951
11
0.179519
21
0.45951
0
LINE
8
BLACK
6
CONTINUOUS
10
0.179519
20
0.45951
11
0.187612
21
0.46108
0
LINE
8
BLACK
6
CONTINUOUS
10
0.187612
20
0.46108
11
0.194327
21
0.465492
0
LINE
8
BLACK
6
CONTINUOUS
10
0.194327
20
0.465492
11
0.195845
21
0.46774
0
LINE
8
BLACK
6
CONTINUOUS
10
0.195845
20
0.46774
11
0.197231
21
0.469113
0
LINE
8
BLACK
6
CONTINUOUS
10
0.197231
20
0.469113
11
0.199037
21
0.469851
0
LINE
8
BLACK
6
CONTINUOUS
10
0.199037
20
0.469851
11
0.200988
21
0.469842
0
LINE
8
BLACK
6
CONTINUOUS
10
0.200988
20
0.469842
11
0.202786
21
0.469087
0
LINE
8
BLACK
6
CONTINUOUS
10
0.202786
20
0.469087
11
0.204168
21
0.467688
0
LINE
8
BLACK
6
CONTINUOUS
10
0.204168
20
0.467688
11
0.205492
21
0.465673
0
LINE
8
BLACK
6
CONTINUOUS
10
0.205492
20
0.465673
11
0.212138
21
0.461186
0
LINE
8
BLACK
6
CONTINUOUS
10
0.212138
20
0.461186
11
0.220496
21
0.45951
0
LINE
8
BLACK
6
CONTINUOUS
10
0.220496
20
0.45951
11
0.279519
21
0.45951
0
LINE
8
BLACK
6
CONTINUOUS
10
0.279519
20
0.45951
11
0.287612
21
0.46108
0
LINE
8
BLACK
6
CONTINUOUS
10
0.287612
20
0.46108
11
0.294327
21
0.465492
0
LINE
8
BLACK
6
CONTINUOUS
10
0.294327
20
0.465492
11
0.298814
21
0.472138
0
LINE
8
BLACK
6
CONTINUOUS
10
0.298814
20
0.472138
11
0.30049
21
0.480496
0
LINE
8
BLACK
6
CONTINUOUS
10
0.30049
20
0.480496
11
0.30049
21
0.539519
0
LINE
8
BLACK
6
CONTINUOUS
10
0.30049
20
0.539519
11
0.29892
21
0.547612
0
LINE
8
BLACK
6
CONTINUOUS
10
0.29892
20
0.547612
11
0.294508
21
0.554327
0
LINE
8
BLACK
6
CONTINUOUS
10
0.294508
20
0.554327
11
0.287862
21
0.558814
0
LINE
8
BLACK
6
CONTINUOUS
10
0.287862
20
0.558814
11
0.279504
21
0.56049
0
LINE
8
BLACK
6
CONTINUOUS
10
0.279504
20
0.56049
11
0.220481
21
0.56049
0
LINE
8
BLACK
6
CONTINUOUS
10
0.220481
20
0.56049
11
0.212388
21
0.55892
0
LINE
8
BLACK
6
CONTINUOUS
10
0.212388
20
0.55892
11
0.205673
21
0.554508
0
LINE
8
BLACK
6
CONTINUOUS
10
0.205673
20
0.554508
11
0.204155
21
0.55226
0
LINE
8
BLACK
6
CONTINUOUS
10
0.204155
20
0.55226
11
0.202769
21
0.550887
0
LINE
8
BLACK
6
CONTINUOUS
10
0.202769
20
0.550887
11
0.200963
21
0.550149
0
LINE
8
BLACK
6
CONTINUOUS
10
0.200963
20
0.550149
11
0.199012
21
0.550158
0
LINE
8
BLACK
6
CONTINUOUS
10
0.199012
20
0.550158
11
0.197214
21
0.550913
0
LINE
8
BLACK
6
CONTINUOUS
10
0.197214
20
0.550913
11
0.195832
21
0.552312
0
LINE
8
BLACK
6
CONTINUOUS
10
0.195832
20
0.552312
11
0.194508
21
0.554327
0
LINE
8
BLACK
6
CONTINUOUS
10
0.194508
20
0.554327
11
0.187862
21
0.558814
0
LINE
8
BLACK
6
CONTINUOUS
10
0.187862
20
0.558814
11
0.179504
21
0.56049
0
LINE
8
BLACK
6
CONTINUOUS
10
0.179504
20
0.56049
11
0.120481
21
0.56049
0
LINE
8
BLACK
6
CONTINUOUS
10
0.120481
20
0.56049
11
0.112388
21
0.55892
0
LINE
8
BLACK
6
CONTINUOUS
10
0.112388
20
0.55892
11
0.105673
21
0.554508
0
LINE
8
BLACK
6
CONTINUOUS
10
0.105673
20
0.554508
11
0.101186
21
0.547862
0
LINE
8
BLACK
6
CONTINUOUS
10
0.101186
20
0.547862
11
0.0995102
21
0.539504
0
LINE
8
BLACK
6
CONTINUOUS
10
0.0995102
20
0.539504
11
0.0995102
21
0.480481
0
LINE
8
BLACK
6
CONTINUOUS
10
0.0995102
20
0.480481
11
0.10108
21
0.472388
0
LINE
8
BLACK
6
CONTINUOUS
10
0.10108
20
0.472388
11
0.105492
21
0.465673
0
LINE
8
BLACK
6
CONTINUOUS
10
0.430492
20
0.123822
11
0.437138
21
0.119336
0
LINE
8
BLACK
6
CONTINUOUS
10
0.437138
20
0.119336
11
0.445496
21
0.11766
0
LINE
8
BLACK
6
CONTINUOUS
10
0.445496
20
0.11766
11
0.594519
21
0.11766
0
LINE
8
BLACK
6
CONTINUOUS
10
0.594519
20
0.11766
11
0.602612
21
0.11923
0
LINE
8
BLACK
6
CONTINUOUS
10
0.602612
20
0.11923
11
0.609327
21
0.123641
0
LINE
8
BLACK
6
CONTINUOUS
10
0.609327
20
0.123641
11
0.613814
21
0.130288
0
LINE
8
BLACK
6
CONTINUOUS
10
0.613814
20
0.130288
11
0.615089
21
0.13665
0
LINE
8
BLACK
6
CONTINUOUS
10
0.615089
20
0.13665
11
0.615839
21
0.138451
0
LINE
8
BLACK
6
CONTINUOUS
10
0.615839
20
0.138451
11
0.617221
21
0.139829
0
LINE
8
BLACK
6
CONTINUOUS
10
0.617221
20
0.139829
11
0.619024
21
0.140572
0
LINE
8
BLACK
6
CONTINUOUS
10
0.619024
20
0.140572
11
0.620975
21
0.140569
0
LINE
8
BLACK
6
CONTINUOUS
10
0.620975
20
0.140569
11
0.622776
21
0.13982
0
LINE
8
BLACK
6
CONTINUOUS
10
0.622776
20
0.13982
11
0.624154
21
0.138438
0
LINE
8
BLACK
6
CONTINUOUS
10
0.624154
20
0.138438
11
0.6249
21
0.136619
0
LINE
8
BLACK
6
CONTINUOUS
10
0.6249
20
0.136619
11
0.62608
21
0.130538
0
LINE
8
BLACK
6
CONTINUOUS
10
0.62608
20
0.130538
11
0.630492
21
0.123822
0
LINE
8
BLACK
6
CONTINUOUS
10
0.630492
20
0.123822
11
0.637138
21
0.119336
0
LINE
8
BLACK
6
CONTINUOUS
10
0.637138
20
0.119336
11
0.645496
21
0.11766
0
LINE
8
BLACK
6
CONTINUOUS
10
0.645496
20
0.11766
11
0.794519
21
0.11766
0
LINE
8
BLACK
6
CONTINUOUS
10
0.794519
20
0.11766
11
0.802612
21
0.11923
0
LINE
8
BLACK
6
CONTINUOUS
10
0.802612
20
0.11923
11
0.809327
21
0.123641
0
LINE
8
BLACK
6
CONTINUOUS
10
0.809327
20
0.123641
11
0.813814
21
0.130288
0
LINE
8
BLACK
6
CONTINUOUS
10
0.813814
20
0.130288
11
0.81549
21
0.138646
0
LINE
8
BLACK
6
CONTINUOUS
10
0.81549
20
0.138646
11
0.81549
21
0.287669
0
LINE
8
BLACK
6
CONTINUOUS
10
0.81549
20
0.287669
11
0.81392
21
0.295761
0
LINE
8
BLACK
6
CONTINUOUS
10
0.81392
20
0.295761
11
0.809508
21
0.302477
0
LINE
8
BLACK
6
CONTINUOUS
10
0.809508
20
0.302477
11
0.802117
21
0.307466
0
LINE
8
BLACK
6
CONTINUOUS
10
0.802117
20
0.307466
11
0.800744
21
0.308852
0
LINE
8
BLACK
6
CONTINUOUS
10
0.800744
20
0.308852
11
0.800006
21
0.310658
0
LINE
8
BLACK
6
CONTINUOUS
10
0.800006
20
0.310658
11
0.800015
21
0.312609
0
LINE
8
BLACK
6
CONTINUOUS
10
0.800015
20
0.312609
11
0.80077
21
0.314408
0
LINE
8
BLACK
6
CONTINUOUS
10
0.80077
20
0.314408
11
0.802169
21
0.31579
0
LINE
8
BLACK
6
CONTINUOUS
10
0.802169
20
0.31579
11
0.809327
21
0.320492
0
LINE
8
BLACK
6
CONTINUOUS
10
0.809327
20
0.320492
11
0.813814
21
0.327138
0
LINE
8
BLACK
6
CONTINUOUS
10
0.813814
20
0.327138
11
0.81549
21
0.335496
0
LINE
8
BLACK
6
CONTINUOUS
10
0.81549
20
0.335496
11
0.81549
21
0.484519
0
LINE
8
BLACK
6
CONTINUOUS
10
0.81549
20
0.484519
11
0.81392
21
0.492612
0
LINE
8
BLACK
6
CONTINUOUS
10
0.81392
20
0.492612
11
0.809508
21
0.499327
0
LINE
8
BLACK
6
CONTINUOUS
10
0.809508
20
0.499327
11
0.802862
21
0.503814
0
LINE
8
BLACK
6
CONTINUOUS
10
0.802862
20
0.503814
11
0.794504
21
0.50549
0
LINE
8
BLACK
6
CONTINUOUS
10
0.794504
20
0.50549
11
0.645481
21
0.50549
0
LINE
8
BLACK
6
CONTINUOUS
10
0.645481
20
0.50549
11
0.637388
21
0.50392
0
LINE
8
BLACK
6
CONTINUOUS
10
0.637388
20
0.50392
11
0.630673
21
0.499508
0
LINE
8
BLACK
6
CONTINUOUS
10
0.630673
20
0.499508
11
0.626186
21
0.492862
0
LINE
8
BLACK
6
CONTINUOUS
10
0.626186
20
0.492862
11
0.62491
21
0.486499
0
LINE
8
BLACK
6
CONTINUOUS
10
0.62491
20
0.486499
11
0.624161
21
0.484698
0
LINE
8
BLACK
6
CONTINUOUS
10
0.624161
20
0.484698
11
0.622779
21
0.483321
0
LINE
8
BLACK
6
CONTINUOUS
10
0.622779
20
0.483321
11
0.620976
21
0.482577
0
LINE
8
BLACK
6
CONTINUOUS
10
0.620976
20
0.482577
11
0.619025
21
0.48258
0
LINE
8
BLACK
6
CONTINUOUS
10
0.619025
20
0.48258
11
0.617224
21
0.48333
0
LINE
8
BLACK
6
CONTINUOUS
10
0.617224
20
0.48333
11
0.615846
21
0.484711
0
LINE
8
BLACK
6
CONTINUOUS
10
0.615846
20
0.484711
11
0.6151
21
0.48653
0
LINE
8
BLACK
6
CONTINUOUS
10
0.6151
20
0.48653
11
0.61392
21
0.492612
0
LINE
8
BLACK
6
CONTINUOUS
10
0.61392
20
0.492612
11
0.609508
21
0.499327
0
LINE
8
BLACK
6
CONTINUOUS
10
0.609508
20
0.499327
11
0.602862
21
0.503814
0
LINE
8
BLACK
6
CONTINUOUS
10
0.602862
20
0.503814
11
0.594504
21
0.50549
0
LINE
8
BLACK
6
CONTINUOUS
10
0.594504
20
0.50549
11
0.445481
21
0.50549
0
LINE
8
BLACK
6
CONTINUOUS
10
0.445481
20
0.50549
11
0.437388
21
0.50392
0
LINE
8
BLACK
6
CONTINUOUS
10
0.437388
20
0.50392
11
0.430673
21
0.499508
0
LINE
8
BLACK
6
CONTINUOUS
10
0.430673
20
0.499508
11
0.426186
21
0.492862
0
LINE
8
BLACK
6
CONTINUOUS
10
0.426186
20
0.492862
11
0.42451
21
0.484504
0
LINE
8
BLACK
6
CONTINUOUS
10
0.42451
20
0.484504
11
0.42451
21
0.335481
0
LINE
8
BLACK
6
CONTINUOUS
10
0.42451
20
0.335481
11
0.42608
21
0.327388
0
LINE
8
BLACK
6
CONTINUOUS
10
0.42608
20
0.327388
11
0.430492
21
0.320673
0
LINE
8
BLACK
6
CONTINUOUS
10
0.430492
20
0.320673
11
0.437883
21
0.315683
0
LINE
8
BLACK
6
CONTINUOUS
10
0.437883
20
0.315683
11
0.439256
21
0.314297
0
LINE
8
BLACK
6
CONTINUOUS
10
0.439256
20
0.314297
11
0.439994
21
0.312491
0
LINE
8
BLACK
6
CONTINUOUS
10
0.439994
20
0.312491
11
0.439985
21
0.310541
0
LINE
8
BLACK
6
CONTINUOUS
10
0.439985
20
0.310541
11
0.43923
21
0.308742
0
LINE
8
BLACK
6
CONTINUOUS
10
0.43923
20
0.308742
11
0.437831
21
0.30736
0
LINE
8
BLACK
6
CONTINUOUS
10
0.437831
20
0.30736
11
0.430673
21
0.302658
0
LINE
8
BLACK
6
CONTINUOUS
10
0.430673
20
0.302658
11
0.426186
21
0.296012
0
LINE
8
BLACK
6
CONTINUOUS
10
0.426186
20
0.296012
11
0.42451
21
0.287653
0
LINE
8
BLACK
6
CONTINUOUS
10
0.42451
20
0.287653
11
0.42451
21
0.13863
0
LINE
8
BLACK
6
CONTINUOUS
10
0.42451
20
0.13863
11
0.42608
21
0.130538
0
LINE
8
BLACK
6
CONTINUOUS
10
0.42608
20
0.130538
11
0.430492
21
0.123822
0
LINE
8
BLACK
6
CONTINUOUS
10
0.107992
20
0.930673
11
0.114638
21
0.926186
0
LINE
8
BLACK
6
CONTINUOUS
10
0.114638
20
0.926186
11
0.122996
21
0.92451
0
LINE
8
BLACK
6
CONTINUOUS
10
0.122996
20
0.92451
11
0.182019
21
0.92451
0
LINE
8
BLACK
6
CONTINUOUS
10
0.182019
20
0.92451
11
0.190112
21
0.92608
0
LINE
8
BLACK
6
CONTINUOUS
10
0.190112
20
0.92608
11
0.196827
21
0.930492
0
LINE
8
BLACK
6
CONTINUOUS
10
0.196827
20
0.930492
11
0.201314
21
0.937138
0
LINE
8
BLACK
6
CONTINUOUS
10
0.201314
20
0.937138
11
0.20299
21
0.945496
0
LINE
8
BLACK
6
CONTINUOUS
10
0.20299
20
0.945496
11
0.20299
21
1.00452
0
LINE
8
BLACK
6
CONTINUOUS
10
0.20299
20
1.00452
11
0.20142
21
1.01261
0
LINE
8
BLACK
6
CONTINUOUS
10
0.20142
20
1.01261
11
0.197008
21
1.01933
0
LINE
8
BLACK
6
CONTINUOUS
10
0.197008
20
1.01933
11
0.19476
21
1.02084
0
LINE
8
BLACK
6
CONTINUOUS
10
0.19476
20
1.02084
11
0.193387
21
1.02223
0
LINE
8
BLACK
6
CONTINUOUS
10
0.193387
20
1.02223
11
0.192649
21
1.02404
0
LINE
8
BLACK
6
CONTINUOUS
10
0.192649
20
1.02404
11
0.192658
21
1.02599
0
LINE
8
BLACK
6
CONTINUOUS
10
0.192658
20
1.02599
11
0.193413
21
1.02779
0
LINE
8
BLACK
6
CONTINUOUS
10
0.193413
20
1.02779
11
0.194812
21
1.02917
0
LINE
8
BLACK
6
CONTINUOUS
10
0.194812
20
1.02917
11
0.197354
21
1.03084
0
LINE
8
BLACK
6
CONTINUOUS
10
0.197354
20
1.03084
11
0.199162
21
1.03157
0
LINE
8
BLACK
6
CONTINUOUS
10
0.199162
20
1.03157
11
0.201113
21
1.03155
0
LINE
8
BLACK
6
CONTINUOUS
10
0.201113
20
1.03155
11
0.202909
21
1.03079
0
LINE
8
BLACK
6
CONTINUOUS
10
0.202909
20
1.03079
11
0.203634
21
1.03019
0
LINE
8
BLACK
6
CONTINUOUS
10
0.203634
20
1.03019
11
0.208938
21
1.02489
0
LINE
8
BLACK
6
CONTINUOUS
10
0.208938
20
1.02489
11
0.218367
21
1.01859
0
LINE
8
BLACK
6
CONTINUOUS
10
0.218367
20
1.01859
11
0.229489
21
1.01638
0
LINE
8
BLACK
6
CONTINUOUS
10
0.229489
20
1.01638
11
0.691879
21
1.01638
0
LINE
8
BLACK
6
CONTINUOUS
10
0.691879
20
1.01638
11
0.693792
21
1.016
0
LINE
8
BLACK
6
CONTINUOUS
10
0.693792
20
1.016
11
0.695415
21
1.01491
0
LINE
8
BLACK
6
CONTINUOUS
10
0.695415
20
1.01491
11
0.764267
21
0.946061
0
LINE
8
BLACK
6
CONTINUOUS
10
0.764267
20
0.946061
11
0.76535
21
0.944439
0
LINE
8
BLACK
6
CONTINUOUS
10
0.76535
20
0.944439
11
0.765731
21
0.942522
0
LINE
8
BLACK
6
CONTINUOUS
10
0.765731
20
0.942522
11
0.76573
21
0.94113
0
LINE
8
BLACK
6
CONTINUOUS
10
0.76573
20
0.94113
11
0.765348
21
0.939217
0
LINE
8
BLACK
6
CONTINUOUS
10
0.765348
20
0.939217
11
0.764262
21
0.937596
0
LINE
8
BLACK
6
CONTINUOUS
10
0.764262
20
0.937596
11
0.762639
21
0.936513
0
LINE
8
BLACK
6
CONTINUOUS
10
0.762639
20
0.936513
11
0.760726
21
0.936134
0
LINE
8
BLACK
6
CONTINUOUS
10
0.760726
20
0.936134
11
0.759754
21
0.93623
0
LINE
8
BLACK
6
CONTINUOUS
10
0.759754
20
0.93623
11
0.748819
21
0.938406
0
LINE
8
BLACK
6
CONTINUOUS
10
0.748819
20
0.938406
11
0.6492
21
0.938406
0
LINE
8
BLACK
6
CONTINUOUS
10
0.6492
20
0.938406
11
0.647287
21
0.938786
0
LINE
8
BLACK
6
CONTINUOUS
10
0.647287
20
0.938786
11
0.645661
21
0.939873
0
LINE
8
BLACK
6
CONTINUOUS
10
0.645661
20
0.939873
11
0.64127
21
0.944272
0
LINE
8
BLACK
6
CONTINUOUS
10
0.64127
20
0.944272
11
0.627492
21
0.949994
0
LINE
8
BLACK
6
CONTINUOUS
10
0.627492
20
0.949994
11
0.612574
21
0.950006
0
LINE
8
BLACK
6
CONTINUOUS
10
0.612574
20
0.950006
11
0.598786
21
0.944309
0
LINE
8
BLACK
6
CONTINUOUS
10
0.598786
20
0.944309
11
0.588228
21
0.93377
0
LINE
8
BLACK
6
CONTINUOUS
10
0.588228
20
0.93377
11
0.582506
21
0.919992
0
LINE
8
BLACK
6
CONTINUOUS
10
0.582506
20
0.919992
11
0.582494
21
0.905074
0
LINE
8
BLACK
6
CONTINUOUS
10
0.582494
20
0.905074
11
0.588191
21
0.891286
0
LINE
8
BLACK
6
CONTINUOUS
10
0.588191
20
0.891286
11
0.59873
21
0.880728
0
LINE
8
BLACK
6
CONTINUOUS
10
0.59873
20
0.880728
11
0.612508
21
0.875006
0
LINE
8
BLACK
6
CONTINUOUS
10
0.612508
20
0.875006
11
0.627426
21
0.874994
0
LINE
8
BLACK
6
CONTINUOUS
10
0.627426
20
0.874994
11
0.641214
21
0.880691
0
LINE
8
BLACK
6
CONTINUOUS
10
0.641214
20
0.880691
11
0.645665
21
0.885133
0
LINE
8
BLACK
6
CONTINUOUS
10
0.645665
20
0.885133
11
0.647288
21
0.886216
0
LINE
8
BLACK
6
CONTINUOUS
10
0.647288
20
0.886216
11
0.649197
21
0.886594
0
LINE
8
BLACK
6
CONTINUOUS
10
0.649197
20
0.886594
11
0.73651
21
0.886594
0
LINE
8
BLACK
6
CONTINUOUS
10
0.73651
20
0.886594
11
0.738423
21
0.886214
0
LINE
8
BLACK
6
CONTINUOUS
10
0.738423
20
0.886214
11
0.740045
21
0.88513
0
LINE
8
BLACK
6
CONTINUOUS
10
0.740045
20
0.88513
11
0.74477
21
0.880405
0
LINE
8
BLACK
6
CONTINUOUS
10
0.74477
20
0.880405
11
0.745854
21
0.878783
0
LINE
8
BLACK
6
CONTINUOUS
10
0.745854
20
0.878783
11
0.746234
21
0.87687
0
LINE
8
BLACK
6
CONTINUOUS
10
0.746234
20
0.87687
11
0.745854
21
0.874956
0
LINE
8
BLACK
6
CONTINUOUS
10
0.745854
20
0.874956
11
0.745378
21
0.874072
0
LINE
8
BLACK
6
CONTINUOUS
10
0.745378
20
0.874072
11
0.741186
21
0.867862
0
LINE
8
BLACK
6
CONTINUOUS
10
0.741186
20
0.867862
11
0.73951
21
0.859504
0
LINE
8
BLACK
6
CONTINUOUS
10
0.73951
20
0.859504
11
0.73951
21
0.800481
0
LINE
8
BLACK
6
CONTINUOUS
10
0.73951
20
0.800481
11
0.74108
21
0.792388
0
LINE
8
BLACK
6
CONTINUOUS
10
0.74108
20
0.792388
11
0.745492
21
0.785673
0
LINE
8
BLACK
6
CONTINUOUS
10
0.745492
20
0.785673
11
0.752138
21
0.781186
0
LINE
8
BLACK
6
CONTINUOUS
10
0.752138
20
0.781186
11
0.760496
21
0.77951
0
LINE
8
BLACK
6
CONTINUOUS
10
0.760496
20
0.77951
11
0.819519
21
0.77951
0
LINE
8
BLACK
6
CONTINUOUS
10
0.819519
20
0.77951
11
0.827612
21
0.78108
0
LINE
8
BLACK
6
CONTINUOUS
10
0.827612
20
0.78108
11
0.834327
21
0.785492
0
LINE
8
BLACK
6
CONTINUOUS
10
0.834327
20
0.785492
11
0.838814
21
0.792138
0
LINE
8
BLACK
6
CONTINUOUS
10
0.838814
20
0.792138
11
0.84049
21
0.800496
0
LINE
8
BLACK
6
CONTINUOUS
10
0.84049
20
0.800496
11
0.84049
21
0.859519
0
LINE
8
BLACK
6
CONTINUOUS
10
0.84049
20
0.859519
11
0.83892
21
0.867612
0
LINE
8
BLACK
6
CONTINUOUS
10
0.83892
20
0.867612
11
0.834508
21
0.874327
0
LINE
8
BLACK
6
CONTINUOUS
10
0.834508
20
0.874327
11
0.827862
21
0.878814
0
LINE
8
BLACK
6
CONTINUOUS
10
0.827862
20
0.878814
11
0.819504
21
0.88049
0
LINE
8
BLACK
6
CONTINUOUS
10
0.819504
20
0.88049
11
0.817316
21
0.88049
0
LINE
8
BLACK
6
CONTINUOUS
10
0.817316
20
0.88049
11
0.815402
21
0.88087
0
LINE
8
BLACK
6
CONTINUOUS
10
0.815402
20
0.88087
11
0.81378
21
0.881954
0
LINE
8
BLACK
6
CONTINUOUS
10
0.81378
20
0.881954
11
0.813158
21
0.882712
0
LINE
8
BLACK
6
CONTINUOUS
10
0.813158
20
0.882712
11
0.80797
21
0.890477
0
LINE
8
BLACK
6
CONTINUOUS
10
0.80797
20
0.890477
11
0.797968
21
0.900479
0
LINE
8
BLACK
6
CONTINUOUS
10
0.797968
20
0.900479
11
0.796884
21
0.902101
0
LINE
8
BLACK
6
CONTINUOUS
10
0.796884
20
0.902101
11
0.796503
21
0.904015
0
LINE
8
BLACK
6
CONTINUOUS
10
0.796503
20
0.904015
11
0.796884
21
0.905928
0
LINE
8
BLACK
6
CONTINUOUS
10
0.796884
20
0.905928
11
0.797968
21
0.90755
0
LINE
8
BLACK
6
CONTINUOUS
10
0.797968
20
0.90755
11
0.79959
21
0.908634
0
LINE
8
BLACK
6
CONTINUOUS
10
0.79959
20
0.908634
11
0.801508
21
0.909015
0
LINE
8
BLACK
6
CONTINUOUS
10
0.801508
20
0.909015
11
0.810661
21
0.909007
0
LINE
8
BLACK
6
CONTINUOUS
10
0.810661
20
0.909007
11
0.824449
21
0.914704
0
LINE
8
BLACK
6
CONTINUOUS
10
0.824449
20
0.914704
11
0.835007
21
0.925243
0
LINE
8
BLACK
6
CONTINUOUS
10
0.835007
20
0.925243
11
0.840728
21
0.939021
0
LINE
8
BLACK
6
CONTINUOUS
10
0.840728
20
0.939021
11
0.840741
21
0.95394
0
LINE
8
BLACK
6
CONTINUOUS
10
0.840741
20
0.95394
11
0.835044
21
0.967728
0
LINE
8
BLACK
6
CONTINUOUS
10
0.835044
20
0.967728
11
0.824504
21
0.978286
0
LINE
8
BLACK
6
CONTINUOUS
10
0.824504
20
0.978286
11
0.810727
21
0.984007
0
LINE
8
BLACK
6
CONTINUOUS
10
0.810727
20
0.984007
11
0.807224
21
0.98401
0
LINE
8
BLACK
6
CONTINUOUS
10
0.807224
20
0.98401
11
0.805311
21
0.984392
0
LINE
8
BLACK
6
CONTINUOUS
10
0.805311
20
0.984392
11
0.803693
21
0.985474
0
LINE
8
BLACK
6
CONTINUOUS
10
0.803693
20
0.985474
11
0.727141
21
1.06203
0
LINE
8
BLACK
6
CONTINUOUS
10
0.727141
20
1.06203
11
0.726057
21
1.06365
0
LINE
8
BLACK
6
CONTINUOUS
10
0.726057
20
1.06365
11
0.725676
21
1.06556
0
LINE
8
BLACK
6
CONTINUOUS
10
0.725676
20
1.06556
11
0.726057
21
1.06748
0
LINE
8
BLACK
6
CONTINUOUS
10
0.726057
20
1.06748
11
0.72657
21
1.06824
0
LINE
8
BLACK
6
CONTINUOUS
10
0.72657
20
1.06824
11
0.729289
21
1.07479
0
LINE
8
BLACK
6
CONTINUOUS
10
0.729289
20
1.07479
11
0.730375
21
1.07641
0
LINE
8
BLACK
6
CONTINUOUS
10
0.730375
20
1.07641
11
0.731998
21
1.0775
0
LINE
8
BLACK
6
CONTINUOUS
10
0.731998
20
1.0775
11
0.733907
21
1.07787
0
LINE
8
BLACK
6
CONTINUOUS
10
0.733907
20
1.07787
11
0.81
21
1.07787
0
LINE
8
BLACK
6
CONTINUOUS
10
0.81
20
1.07787
11
0.81
21
1.09
0
LINE
8
BLACK
6
CONTINUOUS
10
0.81
20
1.09
11
0.87
21
1.09
0
LINE
8
BLACK
6
CONTINUOUS
10
0.87
20
1.09
11
0.87
21
1.07787
0
LINE
8
BLACK
6
CONTINUOUS
10
0.87
20
1.07787
11
0.88451
21
1.07787
0
LINE
8
BLACK
6
CONTINUOUS
10
0.88451
20
1.07787
11
0.886424
21
1.07749
0
LINE
8
BLACK
6
CONTINUOUS
10
0.886424
20
1.07749
11
0.888046
21
1.07641
0
LINE
8
BLACK
6
CONTINUOUS
10
0.888046
20
1.07641
11
0.88913
21
1.07479
0
LINE
8
BLACK
6
CONTINUOUS
10
0.88913
20
1.07479
11
0.88951
21
1.07287
0
LINE
8
BLACK
6
CONTINUOUS
10
0.88951
20
1.07287
11
0.88951
21
1.03048
0
LINE
8
BLACK
6
CONTINUOUS
10
0.88951
20
1.03048
11
0.89108
21
1.02239
0
LINE
8
BLACK
6
CONTINUOUS
10
0.89108
20
1.02239
11
0.895492
21
1.01567
0
LINE
8
BLACK
6
CONTINUOUS
10
0.895492
20
1.01567
11
0.902138
21
1.01119
0
LINE
8
BLACK
6
CONTINUOUS
10
0.902138
20
1.01119
11
0.910496
21
1.00951
0
LINE
8
BLACK
6
CONTINUOUS
10
0.910496
20
1.00951
11
0.969519
21
1.00951
0
LINE
8
BLACK
6
CONTINUOUS
10
0.969519
20
1.00951
11
0.977612
21
1.01108
0
LINE
8
BLACK
6
CONTINUOUS
10
0.977612
20
1.01108
11
0.984327
21
1.01549
0
LINE
8
BLACK
6
CONTINUOUS
10
0.984327
20
1.01549
11
0.985845
21
1.01774
0
LINE
8
BLACK
6
CONTINUOUS
10
0.985845
20
1.01774
11
0.987231
21
1.01911
0
LINE
8
BLACK
6
CONTINUOUS
10
0.987231
20
1.01911
11
0.989037
21
1.01985
0
LINE
8
BLACK
6
CONTINUOUS
10
0.989037
20
1.01985
11
0.990988
21
1.01984
0
LINE
8
BLACK
6
CONTINUOUS
10
0.990988
20
1.01984
11
0.992786
21
1.01909
0
LINE
8
BLACK
6
CONTINUOUS
10
0.992786
20
1.01909
11
0.994168
21
1.01769
0
LINE
8
BLACK
6
CONTINUOUS
10
0.994168
20
1.01769
11
0.995492
21
1.01567
0
LINE
8
BLACK
6
CONTINUOUS
10
0.995492
20
1.01567
11
1.00214
21
1.01119
0
LINE
8
BLACK
6
CONTINUOUS
10
1.00214
20
1.01119
11
1.0105
21
1.00951
0
LINE
8
BLACK
6
CONTINUOUS
10
1.0105
20
1.00951
11
1.06952
21
1.00951
0
LINE
8
BLACK
6
CONTINUOUS
10
1.06952
20
1.00951
11
1.07761
21
1.01108
0
LINE
8
BLACK
6
CONTINUOUS
10
1.07761
20
1.01108
11
1.08433
21
1.01549
0
LINE
8
BLACK
6
CONTINUOUS
10
1.08433
20
1.01549
11
1.08881
21
1.02214
0
LINE
8
BLACK
6
CONTINUOUS
10
1.08881
20
1.02214
11
1.09049
21
1.0305
0
LINE
8
BLACK
6
CONTINUOUS
10
1.09049
20
1.0305
11
1.09049
21
1.08952
0
LINE
8
BLACK
6
CONTINUOUS
10
1.09049
20
1.08952
11
1.08892
21
1.09761
0
LINE
8
BLACK
6
CONTINUOUS
10
1.08892
20
1.09761
11
1.08451
21
1.10433
0
LINE
8
BLACK
6
CONTINUOUS
10
1.08451
20
1.10433
11
1.08226
21
1.10584
0
LINE
8
BLACK
6
CONTINUOUS
10
1.08226
20
1.10584
11
1.08089
21
1.10723
0
LINE
8
BLACK
6
CONTINUOUS
10
1.08089
20
1.10723
11
1.08015
21
1.10904
0
LINE
8
BLACK
6
CONTINUOUS
10
1.08015
20
1.10904
11
1.08016
21
1.11099
0
LINE
8
BLACK
6
CONTINUOUS
10
1.08016
20
1.11099
11
1.08091
21
1.11279
0
LINE
8
BLACK
6
CONTINUOUS
10
1.08091
20
1.11279
11
1.08231
21
1.11417
0
LINE
8
BLACK
6
CONTINUOUS
10
1.08231
20
1.11417
11
1.08433
21
1.11549
0
LINE
8
BLACK
6
CONTINUOUS
10
1.08433
20
1.11549
11
1.08881
21
1.12214
0
LINE
8
BLACK
6
CONTINUOUS
10
1.08881
20
1.12214
11
1.09049
21
1.1305
0
LINE
8
BLACK
6
CONTINUOUS
10
1.09049
20
1.1305
11
1.09049
21
1.18952
0
LINE
8
BLACK
6
CONTINUOUS
10
1.09049
20
1.18952
11
1.08892
21
1.19761
0
LINE
8
BLACK
6
CONTINUOUS
10
1.08892
20
1.19761
11
1.08451
21
1.20433
0
LINE
8
BLACK
6
CONTINUOUS
10
1.08451
20
1.20433
11
1.07786
21
1.20881
0
LINE
8
BLACK
6
CONTINUOUS
10
1.07786
20
1.20881
11
1.07286
21
1.20982
0
LINE
8
BLACK
6
CONTINUOUS
10
1.07286
20
1.20982
11
1.07106
21
1.21057
0
LINE
8
BLACK
6
CONTINUOUS
10
1.07106
20
1.21057
11
1.06968
21
1.21195
0
LINE
8
BLACK
6
CONTINUOUS
10
1.06968
20
1.21195
11
1.06894
21
1.21374
0
LINE
8
BLACK
6
CONTINUOUS
10
1.06894
20
1.21374
11
1.06748
21
1.22107
0
LINE
8
BLACK
6
CONTINUOUS
10
1.06748
20
1.22107
11
1.06075
21
1.23114
0
LINE
8
BLACK
6
CONTINUOUS
10
1.06075
20
1.23114
11
1.04614
21
1.24575
0
LINE
8
BLACK
6
CONTINUOUS
10
1.04614
20
1.24575
11
1.03607
21
1.25248
0
LINE
8
BLACK
6
CONTINUOUS
10
1.03607
20
1.25248
11
1.02419
21
1.25484
0
LINE
8
BLACK
6
CONTINUOUS
10
1.02419
20
1.25484
11
0.687247
21
1.25484
0
LINE
8
BLACK
6
CONTINUOUS
10
0.687247
20
1.25484
11
0.685334
21
1.25522
0
LINE
8
BLACK
6
CONTINUOUS
10
0.685334
20
1.25522
11
0.683712
21
1.25631
0
LINE
8
BLACK
6
CONTINUOUS
10
0.683712
20
1.25631
11
0.644264
21
1.29575
0
LINE
8
BLACK
6
CONTINUOUS
10
0.644264
20
1.29575
11
0.64318
21
1.29738
0
LINE
8
BLACK
6
CONTINUOUS
10
0.64318
20
1.29738
11
0.642799
21
1.29929
0
LINE
8
BLACK
6
CONTINUOUS
10
0.642799
20
1.29929
11
0.64318
21
1.3012
0
LINE
8
BLACK
6
CONTINUOUS
10
0.64318
20
1.3012
11
0.643803
21
1.30214
0
LINE
8
BLACK
6
CONTINUOUS
10
0.643803
20
1.30214
11
0.643766
21
1.30216
0
LINE
8
BLACK
6
CONTINUOUS
10
0.643766
20
1.30216
11
0.645845
21
1.30524
0
LINE
8
BLACK
6
CONTINUOUS
10
0.645845
20
1.30524
11
0.647231
21
1.30661
0
LINE
8
BLACK
6
CONTINUOUS
10
0.647231
20
1.30661
11
0.649037
21
1.30735
0
LINE
8
BLACK
6
CONTINUOUS
10
0.649037
20
1.30735
11
0.650988
21
1.30734
0
LINE
8
BLACK
6
CONTINUOUS
10
0.650988
20
1.30734
11
0.652786
21
1.30659
0
LINE
8
BLACK
6
CONTINUOUS
10
0.652786
20
1.30659
11
0.654168
21
1.30519
0
LINE
8
BLACK
6
CONTINUOUS
10
0.654168
20
1.30519
11
0.655492
21
1.30317
0
LINE
8
BLACK
6
CONTINUOUS
10
0.655492
20
1.30317
11
0.662138
21
1.29869
0
LINE
8
BLACK
6
CONTINUOUS
10
0.662138
20
1.29869
11
0.670496
21
1.29701
0
LINE
8
BLACK
6
CONTINUOUS
10
0.670496
20
1.29701
11
0.729519
21
1.29701
0
LINE
8
BLACK
6
CONTINUOUS
10
0.729519
20
1.29701
11
0.737612
21
1.29858
0
LINE
8
BLACK
6
CONTINUOUS
10
0.737612
20
1.29858
11
0.744327
21
1.30299
0
LINE
8
BLACK
6
CONTINUOUS
10
0.744327
20
1.30299
11
0.748814
21
1.30964
0
LINE
8
BLACK
6
CONTINUOUS
10
0.748814
20
1.30964
11
0.75049
21
1.318
0
LINE
8
BLACK
6
CONTINUOUS
10
0.75049
20
1.318
11
0.75049
21
1.37702
0
LINE
8
BLACK
6
CONTINUOUS
10
0.75049
20
1.37702
11
0.74892
21
1.38511
0
LINE
8
BLACK
6
CONTINUOUS
10
0.74892
20
1.38511
11
0.744508
21
1.39183
0
LINE
8
BLACK
6
CONTINUOUS
10
0.744508
20
1.39183
11
0.74226
21
1.39334
0
LINE
8
BLACK
6
CONTINUOUS
10
0.74226
20
1.39334
11
0.740887
21
1.39473
0
LINE
8
BLACK
6
CONTINUOUS
10
0.740887
20
1.39473
11
0.740149
21
1.39654
0
LINE
8
BLACK
6
CONTINUOUS
10
0.740149
20
1.39654
11
0.740158
21
1.39849
0
LINE
8
BLACK
6
CONTINUOUS
10
0.740158
20
1.39849
11
0.740913
21
1.40029
0
LINE
8
BLACK
6
CONTINUOUS
10
0.740913
20
1.40029
11
0.742312
21
1.40167
0
LINE
8
BLACK
6
CONTINUOUS
10
0.742312
20
1.40167
11
0.744327
21
1.40299
0
LINE
8
BLACK
6
CONTINUOUS
10
0.744327
20
1.40299
11
0.748814
21
1.40964
0
LINE
8
BLACK
6
CONTINUOUS
10
0.748814
20
1.40964
11
0.75049
21
1.418
0
LINE
8
BLACK
6
CONTINUOUS
10
0.75049
20
1.418
11
0.75049
21
1.47702
0
LINE
8
BLACK
6
CONTINUOUS
10
0.75049
20
1.47702
11
0.74892
21
1.48511
0
LINE
8
BLACK
6
CONTINUOUS
10
0.74892
20
1.48511
11
0.744508
21
1.49183
0
LINE
8
BLACK
6
CONTINUOUS
10
0.744508
20
1.49183
11
0.737862
21
1.49631
0
LINE
8
BLACK
6
CONTINUOUS
10
0.737862
20
1.49631
11
0.729504
21
1.49799
0
LINE
8
BLACK
6
CONTINUOUS
10
0.729504
20
1.49799
11
0.670481
21
1.49799
0
LINE
8
BLACK
6
CONTINUOUS
10
0.670481
20
1.49799
11
0.662388
21
1.49642
0
LINE
8
BLACK
6
CONTINUOUS
10
0.662388
20
1.49642
11
0.655673
21
1.49201
0
LINE
8
BLACK
6
CONTINUOUS
10
0.655673
20
1.49201
11
0.654155
21
1.48976
0
LINE
8
BLACK
6
CONTINUOUS
10
0.654155
20
1.48976
11
0.652769
21
1.48839
0
LINE
8
BLACK
6
CONTINUOUS
10
0.652769
20
1.48839
11
0.650963
21
1.48765
0
LINE
8
BLACK
6
CONTINUOUS
10
0.650963
20
1.48765
11
0.649012
21
1.48766
0
LINE
8
BLACK
6
CONTINUOUS
10
0.649012
20
1.48766
11
0.647214
21
1.48841
0
LINE
8
BLACK
6
CONTINUOUS
10
0.647214
20
1.48841
11
0.645832
21
1.48981
0
LINE
8
BLACK
6
CONTINUOUS
10
0.645832
20
1.48981
11
0.644508
21
1.49183
0
LINE
8
BLACK
6
CONTINUOUS
10
0.644508
20
1.49183
11
0.637862
21
1.49631
0
LINE
8
BLACK
6
CONTINUOUS
10
0.637862
20
1.49631
11
0.629504
21
1.49799
0
LINE
8
BLACK
6
CONTINUOUS
10
0.629504
20
1.49799
11
0.570481
21
1.49799
0
LINE
8
BLACK
6
CONTINUOUS
10
0.570481
20
1.49799
11
0.562388
21
1.49642
0
LINE
8
BLACK
6
CONTINUOUS
10
0.562388
20
1.49642
11
0.555673
21
1.49201
0
LINE
8
BLACK
6
CONTINUOUS
10
0.555673
20
1.49201
11
0.554155
21
1.48976
0
LINE
8
BLACK
6
CONTINUOUS
10
0.554155
20
1.48976
11
0.552769
21
1.48839
0
LINE
8
BLACK
6
CONTINUOUS
10
0.552769
20
1.48839
11
0.550963
21
1.48765
0
LINE
8
BLACK
6
CONTINUOUS
10
0.550963
20
1.48765
11
0.549012
21
1.48766
0
LINE
8
BLACK
6
CONTINUOUS
10
0.549012
20
1.48766
11
0.547214
21
1.48841
0
LINE
8
BLACK
6
CONTINUOUS
10
0.547214
20
1.48841
11
0.545832
21
1.48981
0
LINE
8
BLACK
6
CONTINUOUS
10
0.545832
20
1.48981
11
0.544508
21
1.49183
0
LINE
8
BLACK
6
CONTINUOUS
10
0.544508
20
1.49183
11
0.537862
21
1.49631
0
LINE
8
BLACK
6
CONTINUOUS
10
0.537862
20
1.49631
11
0.529504
21
1.49799
0
LINE
8
BLACK
6
CONTINUOUS
10
0.529504
20
1.49799
11
0.470481
21
1.49799
0
LINE
8
BLACK
6
CONTINUOUS
10
0.470481
20
1.49799
11
0.462388
21
1.49642
0
LINE
8
BLACK
6
CONTINUOUS
10
0.462388
20
1.49642
11
0.455673
21
1.49201
0
LINE
8
BLACK
6
CONTINUOUS
10
0.455673
20
1.49201
11
0.451186
21
1.48536
0
LINE
8
BLACK
6
CONTINUOUS
10
0.451186
20
1.48536
11
0.44951
21
1.477
0
LINE
8
BLACK
6
CONTINUOUS
10
0.44951
20
1.477
11
0.44951
21
1.41798
0
LINE
8
BLACK
6
CONTINUOUS
10
0.44951
20
1.41798
11
0.45108
21
1.40989
0
LINE
8
BLACK
6
CONTINUOUS
10
0.45108
20
1.40989
11
0.455492
21
1.40317
0
LINE
8
BLACK
6
CONTINUOUS
10
0.455492
20
1.40317
11
0.45774
21
1.40166
0
LINE
8
BLACK
6
CONTINUOUS
10
0.45774
20
1.40166
11
0.459113
21
1.40027
0
LINE
8
BLACK
6
CONTINUOUS
10
0.459113
20
1.40027
11
0.459851
21
1.39846
0
LINE
8
BLACK
6
CONTINUOUS
10
0.459851
20
1.39846
11
0.459842
21
1.39651
0
LINE
8
BLACK
6
CONTINUOUS
10
0.459842
20
1.39651
11
0.459087
21
1.39471
0
LINE
8
BLACK
6
CONTINUOUS
10
0.459087
20
1.39471
11
0.457688
21
1.39333
0
LINE
8
BLACK
6
CONTINUOUS
10
0.457688
20
1.39333
11
0.455673
21
1.39201
0
LINE
8
BLACK
6
CONTINUOUS
10
0.455673
20
1.39201
11
0.451186
21
1.38536
0
LINE
8
BLACK
6
CONTINUOUS
10
0.451186
20
1.38536
11
0.44951
21
1.377
0
LINE
8
BLACK
6
CONTINUOUS
10
0.44951
20
1.377
11
0.44951
21
1.31798
0
LINE
8
BLACK
6
CONTINUOUS
10
0.44951
20
1.31798
11
0.45108
21
1.30989
0
LINE
8
BLACK
6
CONTINUOUS
10
0.45108
20
1.30989
11
0.455492
21
1.30317
0
LINE
8
BLACK
6
CONTINUOUS
10
0.455492
20
1.30317
11
0.462138
21
1.29869
0
LINE
8
BLACK
6
CONTINUOUS
10
0.462138
20
1.29869
11
0.470496
21
1.29701
0
LINE
8
BLACK
6
CONTINUOUS
10
0.470496
20
1.29701
11
0.529519
21
1.29701
0
LINE
8
BLACK
6
CONTINUOUS
10
0.529519
20
1.29701
11
0.537612
21
1.29858
0
LINE
8
BLACK
6
CONTINUOUS
10
0.537612
20
1.29858
11
0.544327
21
1.30299
0
LINE
8
BLACK
6
CONTINUOUS
10
0.544327
20
1.30299
11
0.545845
21
1.30524
0
LINE
8
BLACK
6
CONTINUOUS
10
0.545845
20
1.30524
11
0.547231
21
1.30661
0
LINE
8
BLACK
6
CONTINUOUS
10
0.547231
20
1.30661
11
0.549037
21
1.30735
0
LINE
8
BLACK
6
CONTINUOUS
10
0.549037
20
1.30735
11
0.550988
21
1.30734
0
LINE
8
BLACK
6
CONTINUOUS
10
0.550988
20
1.30734
11
0.552786
21
1.30659
0
LINE
8
BLACK
6
CONTINUOUS
10
0.552786
20
1.30659
11
0.554168
21
1.30519
0
LINE
8
BLACK
6
CONTINUOUS
10
0.554168
20
1.30519
11
0.555786
21
1.30272
0
LINE
8
BLACK
6
CONTINUOUS
10
0.555786
20
1.30272
11
0.556414
21
1.30209
0
LINE
8
BLACK
6
CONTINUOUS
10
0.556414
20
1.30209
11
0.557152
21
1.30029
0
LINE
8
BLACK
6
CONTINUOUS
10
0.557152
20
1.30029
11
0.557143
21
1.29833
0
LINE
8
BLACK
6
CONTINUOUS
10
0.557143
20
1.29833
11
0.556388
21
1.29654
0
LINE
8
BLACK
6
CONTINUOUS
10
0.556388
20
1.29654
11
0.555779
21
1.2958
0
LINE
8
BLACK
6
CONTINUOUS
10
0.555779
20
1.2958
11
0.523965
21
1.26398
0
LINE
8
BLACK
6
CONTINUOUS
10
0.523965
20
1.26398
11
0.522343
21
1.2629
0
LINE
8
BLACK
6
CONTINUOUS
10
0.522343
20
1.2629
11
0.52043
21
1.26252
0
LINE
8
BLACK
6
CONTINUOUS
10
0.52043
20
1.26252
11
0.330684
21
1.26252
0
LINE
8
BLACK
6
CONTINUOUS
10
0.330684
20
1.26252
11
0.328771
21
1.2629
0
LINE
8
BLACK
6
CONTINUOUS
10
0.328771
20
1.2629
11
0.327146
21
1.26399
0
LINE
8
BLACK
6
CONTINUOUS
10
0.327146
20
1.26399
11
0.326684
21
1.26445
0
LINE
8
BLACK
6
CONTINUOUS
10
0.326684
20
1.26445
11
0.312906
21
1.27017
0
LINE
8
BLACK
6
CONTINUOUS
10
0.312906
20
1.27017
11
0.297988
21
1.27018
0
LINE
8
BLACK
6
CONTINUOUS
10
0.297988
20
1.27018
11
0.2842
21
1.26449
0
LINE
8
BLACK
6
CONTINUOUS
10
0.2842
20
1.26449
11
0.273642
21
1.25395
0
LINE
8
BLACK
6
CONTINUOUS
10
0.273642
20
1.25395
11
0.267921
21
1.24017
0
LINE
8
BLACK
6
CONTINUOUS
10
0.267921
20
1.24017
11
0.267908
21
1.22525
0
LINE
8
BLACK
6
CONTINUOUS
10
0.267908
20
1.22525
11
0.273605
21
1.21146
0
LINE
8
BLACK
6
CONTINUOUS
10
0.273605
20
1.21146
11
0.284145
21
1.2009
0
LINE
8
BLACK
6
CONTINUOUS
10
0.284145
20
1.2009
11
0.297922
21
1.19518
0
LINE
8
BLACK
6
CONTINUOUS
10
0.297922
20
1.19518
11
0.312841
21
1.19517
0
LINE
8
BLACK
6
CONTINUOUS
10
0.312841
20
1.19517
11
0.326629
21
1.20087
0
LINE
8
BLACK
6
CONTINUOUS
10
0.326629
20
1.20087
11
0.327135
21
1.20137
0
LINE
8
BLACK
6
CONTINUOUS
10
0.327135
20
1.20137
11
0.328758
21
1.20246
0
LINE
8
BLACK
6
CONTINUOUS
10
0.328758
20
1.20246
11
0.330668
21
1.20283
0
LINE
8
BLACK
6
CONTINUOUS
10
0.330668
20
1.20283
11
0.53437
21
1.20283
0
LINE
8
BLACK
6
CONTINUOUS
10
0.53437
20
1.20283
11
0.546245
21
1.2052
0
LINE
8
BLACK
6
CONTINUOUS
10
0.546245
20
1.2052
11
0.556312
21
1.21192
0
LINE
8
BLACK
6
CONTINUOUS
10
0.556312
20
1.21192
11
0.596464
21
1.25208
0
LINE
8
BLACK
6
CONTINUOUS
10
0.596464
20
1.25208
11
0.598087
21
1.25316
0
LINE
8
BLACK
6
CONTINUOUS
10
0.598087
20
1.25316
11
0.6
21
1.25354
0
LINE
8
BLACK
6
CONTINUOUS
10
0.6
20
1.25354
11
0.601913
21
1.25316
0
LINE
8
BLACK
6
CONTINUOUS
10
0.601913
20
1.25316
11
0.603536
21
1.25208
0
LINE
8
BLACK
6
CONTINUOUS
10
0.603536
20
1.25208
11
0.651365
21
1.20425
0
LINE
8
BLACK
6
CONTINUOUS
10
0.651365
20
1.20425
11
0.661432
21
1.19752
0
LINE
8
BLACK
6
CONTINUOUS
10
0.661432
20
1.19752
11
0.673308
21
1.19516
0
LINE
8
BLACK
6
CONTINUOUS
10
0.673308
20
1.19516
11
0.884542
21
1.19516
0
LINE
8
BLACK
6
CONTINUOUS
10
0.884542
20
1.19516
11
0.886455
21
1.19478
0
LINE
8
BLACK
6
CONTINUOUS
10
0.886455
20
1.19478
11
0.888077
21
1.19369
0
LINE
8
BLACK
6
CONTINUOUS
10
0.888077
20
1.19369
11
0.889161
21
1.19207
0
LINE
8
BLACK
6
CONTINUOUS
10
0.889161
20
1.19207
11
0.889542
21
1.19016
0
LINE
8
BLACK
6
CONTINUOUS
10
0.889542
20
1.19016
11
0.88951
21
1.18984
0
LINE
8
BLACK
6
CONTINUOUS
10
0.88951
20
1.18984
11
0.88951
21
1.13469
0
LINE
8
BLACK
6
CONTINUOUS
10
0.88951
20
1.13469
11
0.88913
21
1.13277
0
LINE
8
BLACK
6
CONTINUOUS
10
0.88913
20
1.13277
11
0.888046
21
1.13115
0
LINE
8
BLACK
6
CONTINUOUS
10
0.888046
20
1.13115
11
0.886424
21
1.13007
0
LINE
8
BLACK
6
CONTINUOUS
10
0.886424
20
1.13007
11
0.88451
21
1.12969
0
LINE
8
BLACK
6
CONTINUOUS
10
0.88451
20
1.12969
11
0.709272
21
1.12969
0
LINE
8
BLACK
6
CONTINUOUS
10
0.709272
20
1.12969
11
0.698758
21
1.12759
0
LINE
8
BLACK
6
CONTINUOUS
10
0.698758
20
1.12759
11
0.697778
21
1.1275
0
LINE
8
BLACK
6
CONTINUOUS
10
0.697778
20
1.1275
11
0.687574
21
1.12751
0
LINE
8
BLACK
6
CONTINUOUS
10
0.687574
20
1.12751
11
0.673786
21
1.12181
0
LINE
8
BLACK
6
CONTINUOUS
10
0.673786
20
1.12181
11
0.663228
21
1.11127
0
LINE
8
BLACK
6
CONTINUOUS
10
0.663228
20
1.11127
11
0.657506
21
1.09749
0
LINE
8
BLACK
6
CONTINUOUS
10
0.657506
20
1.09749
11
0.657494
21
1.08257
0
LINE
8
BLACK
6
CONTINUOUS
10
0.657494
20
1.08257
11
0.658955
21
1.07904
0
LINE
8
BLACK
6
CONTINUOUS
10
0.658955
20
1.07904
11
0.659334
21
1.07712
0
LINE
8
BLACK
6
CONTINUOUS
10
0.659334
20
1.07712
11
0.658952
21
1.07521
0
LINE
8
BLACK
6
CONTINUOUS
10
0.658952
20
1.07521
11
0.657867
21
1.07359
0
LINE
8
BLACK
6
CONTINUOUS
10
0.657867
20
1.07359
11
0.656244
21
1.0725
0
LINE
8
BLACK
6
CONTINUOUS
10
0.656244
20
1.0725
11
0.654334
21
1.07213
0
LINE
8
BLACK
6
CONTINUOUS
10
0.654334
20
1.07213
11
0.242613
21
1.07213
0
LINE
8
BLACK
6
CONTINUOUS
10
0.242613
20
1.07213
11
0.240699
21
1.07251
0
LINE
8
BLACK
6
CONTINUOUS
10
0.240699
20
1.07251
11
0.239077
21
1.07359
0
LINE
8
BLACK
6
CONTINUOUS
10
0.239077
20
1.07359
11
0.218306
21
1.09436
0
LINE
8
BLACK
6
CONTINUOUS
10
0.218306
20
1.09436
11
0.208877
21
1.10066
0
LINE
8
BLACK
6
CONTINUOUS
10
0.208877
20
1.10066
11
0.206825
21
1.10107
0
LINE
8
BLACK
6
CONTINUOUS
10
0.206825
20
1.10107
11
0.205023
21
1.10182
0
LINE
8
BLACK
6
CONTINUOUS
10
0.205023
20
1.10182
11
0.203643
21
1.1032
0
LINE
8
BLACK
6
CONTINUOUS
10
0.203643
20
1.1032
11
0.202892
21
1.10502
0
LINE
8
BLACK
6
CONTINUOUS
10
0.202892
20
1.10502
11
0.20142
21
1.11261
0
LINE
8
BLACK
6
CONTINUOUS
10
0.20142
20
1.11261
11
0.197008
21
1.11933
0
LINE
8
BLACK
6
CONTINUOUS
10
0.197008
20
1.11933
11
0.19476
21
1.12084
0
LINE
8
BLACK
6
CONTINUOUS
10
0.19476
20
1.12084
11
0.193387
21
1.12223
0
LINE
8
BLACK
6
CONTINUOUS
10
0.193387
20
1.12223
11
0.192649
21
1.12404
0
LINE
8
BLACK
6
CONTINUOUS
10
0.192649
20
1.12404
11
0.192658
21
1.12599
0
LINE
8
BLACK
6
CONTINUOUS
10
0.192658
20
1.12599
11
0.193413
21
1.12779
0
LINE
8
BLACK
6
CONTINUOUS
10
0.193413
20
1.12779
11
0.194812
21
1.12917
0
LINE
8
BLACK
6
CONTINUOUS
10
0.194812
20
1.12917
11
0.196827
21
1.13049
0
LINE
8
BLACK
6
CONTINUOUS
10
0.196827
20
1.13049
11
0.201314
21
1.13714
0
LINE
8
BLACK
6
CONTINUOUS
10
0.201314
20
1.13714
11
0.20299
21
1.1455
0
LINE
8
BLACK
6
CONTINUOUS
10
0.20299
20
1.1455
11
0.20299
21
1.20452
0
LINE
8
BLACK
6
CONTINUOUS
10
0.20299
20
1.20452
11
0.20142
21
1.21261
0
LINE
8
BLACK
6
CONTINUOUS
10
0.20142
20
1.21261
11
0.197008
21
1.21933
0
LINE
8
BLACK
6
CONTINUOUS
10
0.197008
20
1.21933
11
0.190362
21
1.22381
0
LINE
8
BLACK
6
CONTINUOUS
10
0.190362
20
1.22381
11
0.182004
21
1.22549
0
LINE
8
BLACK
6
CONTINUOUS
10
0.182004
20
1.22549
11
0.122981
21
1.22549
0
LINE
8
BLACK
6
CONTINUOUS
10
0.122981
20
1.22549
11
0.114888
21
1.22392
0
LINE
8
BLACK
6
CONTINUOUS
10
0.114888
20
1.22392
11
0.108173
21
1.21951
0
LINE
8
BLACK
6
CONTINUOUS
10
0.108173
20
1.21951
11
0.103686
21
1.21286
0
LINE
8
BLACK
6
CONTINUOUS
10
0.103686
20
1.21286
11
0.10201
21
1.2045
0
LINE
8
BLACK
6
CONTINUOUS
10
0.10201
20
1.2045
11
0.10201
21
1.14548
0
LINE
8
BLACK
6
CONTINUOUS
10
0.10201
20
1.14548
11
0.10358
21
1.13739
0
LINE
8
BLACK
6
CONTINUOUS
10
0.10358
20
1.13739
11
0.107992
21
1.13067
0
LINE
8
BLACK
6
CONTINUOUS
10
0.107992
20
1.13067
11
0.11024
21
1.12916
0
LINE
8
BLACK
6
CONTINUOUS
10
0.11024
20
1.12916
11
0.111613
21
1.12777
0
LINE
8
BLACK
6
CONTINUOUS
10
0.111613
20
1.12777
11
0.112351
21
1.12596
0
LINE
8
BLACK
6
CONTINUOUS
10
0.112351
20
1.12596
11
0.112342
21
1.12401
0
LINE
8
BLACK
6
CONTINUOUS
10
0.112342
20
1.12401
11
0.111587
21
1.12221
0
LINE
8
BLACK
6
CONTINUOUS
10
0.111587
20
1.12221
11
0.110188
21
1.12083
0
LINE
8
BLACK
6
CONTINUOUS
10
0.110188
20
1.12083
11
0.108173
21
1.11951
0
LINE
8
BLACK
6
CONTINUOUS
10
0.108173
20
1.11951
11
0.103686
21
1.11286
0
LINE
8
BLACK
6
CONTINUOUS
10
0.103686
20
1.11286
11
0.10201
21
1.1045
0
LINE
8
BLACK
6
CONTINUOUS
10
0.10201
20
1.1045
11
0.10201
21
1.04548
0
LINE
8
BLACK
6
CONTINUOUS
10
0.10201
20
1.04548
11
0.10358
21
1.03739
0
LINE
8
BLACK
6
CONTINUOUS
10
0.10358
20
1.03739
11
0.107992
21
1.03067
0
LINE
8
BLACK
6
CONTINUOUS
10
0.107992
20
1.03067
11
0.11024
21
1.02916
0
LINE
8
BLACK
6
CONTINUOUS
10
0.11024
20
1.02916
11
0.111613
21
1.02777
0
LINE
8
BLACK
6
CONTINUOUS
10
0.111613
20
1.02777
11
0.112351
21
1.02596
0
LINE
8
BLACK
6
CONTINUOUS
10
0.112351
20
1.02596
11
0.112342
21
1.02401
0
LINE
8
BLACK
6
CONTINUOUS
10
0.112342
20
1.02401
11
0.111587
21
1.02221
0
LINE
8
BLACK
6
CONTINUOUS
10
0.111587
20
1.02221
11
0.110188
21
1.02083
0
LINE
8
BLACK
6
CONTINUOUS
10
0.110188
20
1.02083
11
0.108173
21
1.01951
0
LINE
8
BLACK
6
CONTINUOUS
10
0.108173
20
1.01951
11
0.103686
21
1.01286
0
LINE
8
BLACK
6
CONTINUOUS
10
0.103686
20
1.01286
11
0.10201
21
1.0045
0
LINE
8
BLACK
6
CONTINUOUS
10
0.10201
20
1.0045
11
0.10201
21
0.945481
0
LINE
8
BLACK
6
CONTINUOUS
10
0.10201
20
0.945481
11
0.10358
21
0.937388
0
LINE
8
BLACK
6
CONTINUOUS
10
0.10358
20
0.937388
11
0.107992
21
0.930673
0
LINE
8
BLACK
6
CONTINUOUS
10
0.28
20
0.48
11
0.22
21
0.48
0
LINE
8
BLACK
6
CONTINUOUS
10
0.22
20
0.48
11
0.22
21
0.54
0
LINE
8
BLACK
6
CONTINUOUS
10
0.22
20
0.54
11
0.28
21
0.54
0
LINE
8
BLACK
6
CONTINUOUS
10
0.28
20
0.54
11
0.28
21
0.48
0
LINE
8
BLACK
6
CONTINUOUS
10
0.18
20
0.48
11
0.12
21
0.48
0
LINE
8
BLACK
6
CONTINUOUS
10
0.12
20
0.48
11
0.12
21
0.54
0
LINE
8
BLACK
6
CONTINUOUS
10
0.12
20
0.54
11
0.18
21
0.54
0
LINE
8
BLACK
6
CONTINUOUS
10
0.18
20
0.54
11
0.18
21
0.48
0
LINE
8
BLACK
6
CONTINUOUS
10
0.622587
20
0.929808
11
0.62734
21
0.928386
0
LINE
8
BLACK
6
CONTINUOUS
10
0.62734
20
0.928386
11
0.631504
21
0.925687
0
LINE
8
BLACK
6
CONTINUOUS
10
0.631504
20
0.925687
11
0.634743
21
0.921929
0
LINE
8
BLACK
6
CONTINUOUS
10
0.634743
20
0.921929
11
0.636345
21
0.918406
0
LINE
8
BLACK
6
CONTINUOUS
10
0.636345
20
0.918406
11
0.749311
21
0.918406
0
LINE
8
BLACK
6
CONTINUOUS
10
0.749311
20
0.918406
11
0.750062
21
0.918204
0
LINE
8
BLACK
6
CONTINUOUS
10
0.750062
20
0.918204
11
0.750839
21
0.918204
0
LINE
8
BLACK
6
CONTINUOUS
10
0.750839
20
0.918204
11
0.751513
21
0.917816
0
LINE
8
BLACK
6
CONTINUOUS
10
0.751513
20
0.917816
11
0.752264
21
0.917614
0
LINE
8
BLACK
6
CONTINUOUS
10
0.752264
20
0.917614
11
0.752814
21
0.917065
0
LINE
8
BLACK
6
CONTINUOUS
10
0.752814
20
0.917065
11
0.753487
21
0.916676
0
LINE
8
BLACK
6
CONTINUOUS
10
0.753487
20
0.916676
11
0.794176
21
0.875987
0
LINE
8
BLACK
6
CONTINUOUS
10
0.794176
20
0.875987
11
0.794565
21
0.875314
0
LINE
8
BLACK
6
CONTINUOUS
10
0.794565
20
0.875314
11
0.795114
21
0.874764
0
LINE
8
BLACK
6
CONTINUOUS
10
0.795114
20
0.874764
11
0.795316
21
0.874013
0
LINE
8
BLACK
6
CONTINUOUS
10
0.795316
20
0.874013
11
0.795704
21
0.873339
0
LINE
8
BLACK
6
CONTINUOUS
10
0.795704
20
0.873339
11
0.795704
21
0.872562
0
LINE
8
BLACK
6
CONTINUOUS
10
0.795704
20
0.872562
11
0.795906
21
0.871811
0
LINE
8
BLACK
6
CONTINUOUS
10
0.795906
20
0.871811
11
0.795906
21
0.86
0
LINE
8
BLACK
6
CONTINUOUS
10
0.795906
20
0.86
11
0.82
21
0.86
0
LINE
8
BLACK
6
CONTINUOUS
10
0.82
20
0.86
11
0.82
21
0.8
0
LINE
8
BLACK
6
CONTINUOUS
10
0.82
20
0.8
11
0.76
21
0.8
0
LINE
8
BLACK
6
CONTINUOUS
10
0.76
20
0.8
11
0.76
21
0.86
0
LINE
8
BLACK
6
CONTINUOUS
10
0.76
20
0.86
11
0.784094
21
0.86
0
LINE
8
BLACK
6
CONTINUOUS
10
0.784094
20
0.86
11
0.784094
21
0.869365
0
LINE
8
BLACK
6
CONTINUOUS
10
0.784094
20
0.869365
11
0.746865
21
0.906594
0
LINE
8
BLACK
6
CONTINUOUS
10
0.746865
20
0.906594
11
0.636388
21
0.906594
0
LINE
8
BLACK
6
CONTINUOUS
10
0.636388
20
0.906594
11
0.634508
21
0.902714
0
LINE
8
BLACK
6
CONTINUOUS
10
0.634508
20
0.902714
11
0.631178
21
0.899036
0
LINE
8
BLACK
6
CONTINUOUS
10
0.631178
20
0.899036
11
0.62695
21
0.896439
0
LINE
8
BLACK
6
CONTINUOUS
10
0.62695
20
0.896439
11
0.622163
21
0.895134
0
LINE
8
BLACK
6
CONTINUOUS
10
0.622163
20
0.895134
11
0.617202
21
0.895225
0
LINE
8
BLACK
6
CONTINUOUS
10
0.617202
20
0.895225
11
0.612466
21
0.896705
0
LINE
8
BLACK
6
CONTINUOUS
10
0.612466
20
0.896705
11
0.608336
21
0.899454
0
LINE
8
BLACK
6
CONTINUOUS
10
0.608336
20
0.899454
11
0.605143
21
0.903252
0
LINE
8
BLACK
6
CONTINUOUS
10
0.605143
20
0.903252
11
0.603145
21
0.907794
0
LINE
8
BLACK
6
CONTINUOUS
10
0.603145
20
0.907794
11
0.602501
21
0.912714
0
LINE
8
BLACK
6
CONTINUOUS
10
0.602501
20
0.912714
11
0.603265
21
0.917616
0
LINE
8
BLACK
6
CONTINUOUS
10
0.603265
20
0.917616
11
0.605373
21
0.922108
0
LINE
8
BLACK
6
CONTINUOUS
10
0.605373
20
0.922108
11
0.608658
21
0.925827
0
LINE
8
BLACK
6
CONTINUOUS
10
0.608658
20
0.925827
11
0.612854
21
0.928475
0
LINE
8
BLACK
6
CONTINUOUS
10
0.612854
20
0.928475
11
0.617625
21
0.929838
0
LINE
8
BLACK
6
CONTINUOUS
10
0.617625
20
0.929838
11
0.622587
21
0.929808
0
LINE
8
BLACK
6
CONTINUOUS
10
0.706791
20
1.05183
11
0.708098
21
1.05168
0
LINE
8
BLACK
6
CONTINUOUS
10
0.708098
20
1.05168
11
0.708482
21
1.05144
0
LINE
8
BLACK
6
CONTINUOUS
10
0.708482
20
1.05144
11
0.708923
21
1.05134
0
LINE
8
BLACK
6
CONTINUOUS
10
0.708923
20
1.05134
11
0.70995
21
1.05052
0
LINE
8
BLACK
6
CONTINUOUS
10
0.70995
20
1.05052
11
0.711064
21
1.04982
0
LINE
8
BLACK
6
CONTINUOUS
10
0.711064
20
1.04982
11
0.797883
21
0.963001
0
LINE
8
BLACK
6
CONTINUOUS
10
0.797883
20
0.963001
11
0.80086
21
0.963851
0
LINE
8
BLACK
6
CONTINUOUS
10
0.80086
20
0.963851
11
0.805821
21
0.963821
0
LINE
8
BLACK
6
CONTINUOUS
10
0.805821
20
0.963821
11
0.810575
21
0.962399
0
LINE
8
BLACK
6
CONTINUOUS
10
0.810575
20
0.962399
11
0.814739
21
0.959701
0
LINE
8
BLACK
6
CONTINUOUS
10
0.814739
20
0.959701
11
0.817977
21
0.955942
0
LINE
8
BLACK
6
CONTINUOUS
10
0.817977
20
0.955942
11
0.820031
21
0.951425
0
LINE
8
BLACK
6
CONTINUOUS
10
0.820031
20
0.951425
11
0.820735
21
0.946513
0
LINE
8
BLACK
6
CONTINUOUS
10
0.820735
20
0.946513
11
0.820729
21
0.946086
0
LINE
8
BLACK
6
CONTINUOUS
10
0.820729
20
0.946086
11
0.819906
21
0.941193
0
LINE
8
BLACK
6
CONTINUOUS
10
0.819906
20
0.941193
11
0.817743
21
0.936727
0
LINE
8
BLACK
6
CONTINUOUS
10
0.817743
20
0.936727
11
0.814413
21
0.933049
0
LINE
8
BLACK
6
CONTINUOUS
10
0.814413
20
0.933049
11
0.810185
21
0.930453
0
LINE
8
BLACK
6
CONTINUOUS
10
0.810185
20
0.930453
11
0.805398
21
0.929147
0
LINE
8
BLACK
6
CONTINUOUS
10
0.805398
20
0.929147
11
0.800437
21
0.929238
0
LINE
8
BLACK
6
CONTINUOUS
10
0.800437
20
0.929238
11
0.795701
21
0.930718
0
LINE
8
BLACK
6
CONTINUOUS
10
0.795701
20
0.930718
11
0.79157
21
0.933467
0
LINE
8
BLACK
6
CONTINUOUS
10
0.79157
20
0.933467
11
0.788378
21
0.937266
0
LINE
8
BLACK
6
CONTINUOUS
10
0.788378
20
0.937266
11
0.786379
21
0.941807
0
LINE
8
BLACK
6
CONTINUOUS
10
0.786379
20
0.941807
11
0.785736
21
0.946727
0
LINE
8
BLACK
6
CONTINUOUS
10
0.785736
20
0.946727
11
0.786499
21
0.95163
0
LINE
8
BLACK
6
CONTINUOUS
10
0.786499
20
0.95163
11
0.786654
21
0.951959
0
LINE
8
BLACK
6
CONTINUOUS
10
0.786654
20
0.951959
11
0.702234
21
1.03638
0
LINE
8
BLACK
6
CONTINUOUS
10
0.702234
20
1.03638
11
0.228982
21
1.03638
0
LINE
8
BLACK
6
CONTINUOUS
10
0.228982
20
1.03638
11
0.2277
21
1.03667
0
LINE
8
BLACK
6
CONTINUOUS
10
0.2277
20
1.03667
11
0.226394
21
1.03682
0
LINE
8
BLACK
6
CONTINUOUS
10
0.226394
20
1.03682
11
0.22601
21
1.03706
0
LINE
8
BLACK
6
CONTINUOUS
10
0.22601
20
1.03706
11
0.225569
21
1.03716
0
LINE
8
BLACK
6
CONTINUOUS
10
0.225569
20
1.03716
11
0.224542
21
1.03798
0
LINE
8
BLACK
6
CONTINUOUS
10
0.224542
20
1.03798
11
0.223428
21
1.03868
0
LINE
8
BLACK
6
CONTINUOUS
10
0.223428
20
1.03868
11
0.194986
21
1.06713
0
LINE
8
BLACK
6
CONTINUOUS
10
0.194986
20
1.06713
11
0.1825
21
1.06713
0
LINE
8
BLACK
6
CONTINUOUS
10
0.1825
20
1.06713
11
0.1825
21
1.045
0
LINE
8
BLACK
6
CONTINUOUS
10
0.1825
20
1.045
11
0.1225
21
1.045
0
LINE
8
BLACK
6
CONTINUOUS
10
0.1225
20
1.045
11
0.1225
21
1.105
0
LINE
8
BLACK
6
CONTINUOUS
10
0.1225
20
1.105
11
0.1825
21
1.105
0
LINE
8
BLACK
6
CONTINUOUS
10
0.1825
20
1.105
11
0.1825
21
1.08287
0
LINE
8
BLACK
6
CONTINUOUS
10
0.1825
20
1.08287
11
0.198262
21
1.08287
0
LINE
8
BLACK
6
CONTINUOUS
10
0.198262
20
1.08287
11
0.199544
21
1.08258
0
LINE
8
BLACK
6
CONTINUOUS
10
0.199544
20
1.08258
11
0.20085
21
1.08243
0
LINE
8
BLACK
6
CONTINUOUS
10
0.20085
20
1.08243
11
0.201234
21
1.08219
0
LINE
8
BLACK
6
CONTINUOUS
10
0.201234
20
1.08219
11
0.201675
21
1.08209
0
LINE
8
BLACK
6
CONTINUOUS
10
0.201675
20
1.08209
11
0.202702
21
1.08127
0
LINE
8
BLACK
6
CONTINUOUS
10
0.202702
20
1.08127
11
0.203816
21
1.08057
0
LINE
8
BLACK
6
CONTINUOUS
10
0.203816
20
1.08057
11
0.232258
21
1.05213
0
LINE
8
BLACK
6
CONTINUOUS
10
0.232258
20
1.05213
11
0.70551
21
1.05213
0
LINE
8
BLACK
6
CONTINUOUS
10
0.70551
20
1.05213
11
0.706791
21
1.05183
0
LINE
8
BLACK
6
CONTINUOUS
10
0.1825
20
0.945
11
0.1225
21
0.945
0
LINE
8
BLACK
6
CONTINUOUS
10
0.1225
20
0.945
11
0.1225
21
1.005
0
LINE
8
BLACK
6
CONTINUOUS
10
0.1225
20
1.005
11
0.1825
21
1.005
0
LINE
8
BLACK
6
CONTINUOUS
10
0.1825
20
1.005
11
0.1825
21
0.945
0
LINE
8
BLACK
6
CONTINUOUS
10
1.07
20
1.03
11
1.01
21
1.03
0
LINE
8
BLACK
6
CONTINUOUS
10
1.01
20
1.03
11
1.01
21
1.09
0
LINE
8
BLACK
6
CONTINUOUS
10
1.01
20
1.09
11
1.07
21
1.09
0
LINE
8
BLACK
6
CONTINUOUS
10
1.07
20
1.09
11
1.07
21
1.03
0
LINE
8
BLACK
6
CONTINUOUS
10
0.938782
20
1.10948
11
0.93956
21
1.10948
0
LINE
8
BLACK
6
CONTINUOUS
10
0.93956
20
1.10948
11
0.940233
21
1.1091
0
LINE
8
BLACK
6
CONTINUOUS
10
0.940233
20
1.1091
11
0.940984
21
1.10889
0
LINE
8
BLACK
6
CONTINUOUS
10
0.940984
20
1.10889
11
0.941534
21
1.10834
0
LINE
8
BLACK
6
CONTINUOUS
10
0.941534
20
1.10834
11
0.942207
21
1.10796
0
LINE
8
BLACK
6
CONTINUOUS
10
0.942207
20
1.10796
11
0.944176
21
1.10599
0
LINE
8
BLACK
6
CONTINUOUS
10
0.944176
20
1.10599
11
0.944565
21
1.10531
0
LINE
8
BLACK
6
CONTINUOUS
10
0.944565
20
1.10531
11
0.945114
21
1.10476
0
LINE
8
BLACK
6
CONTINUOUS
10
0.945114
20
1.10476
11
0.945316
21
1.10401
0
LINE
8
BLACK
6
CONTINUOUS
10
0.945316
20
1.10401
11
0.945704
21
1.10334
0
LINE
8
BLACK
6
CONTINUOUS
10
0.945704
20
1.10334
11
0.945704
21
1.10256
0
LINE
8
BLACK
6
CONTINUOUS
10
0.945704
20
1.10256
11
0.945906
21
1.10181
0
LINE
8
BLACK
6
CONTINUOUS
10
0.945906
20
1.10181
11
0.945906
21
1.09
0
LINE
8
BLACK
6
CONTINUOUS
10
0.945906
20
1.09
11
0.97
21
1.09
0
LINE
8
BLACK
6
CONTINUOUS
10
0.97
20
1.09
11
0.97
21
1.03
0
LINE
8
BLACK
6
CONTINUOUS
10
0.97
20
1.03
11
0.91
21
1.03
0
LINE
8
BLACK
6
CONTINUOUS
10
0.91
20
1.03
11
0.91
21
1.09
0
LINE
8
BLACK
6
CONTINUOUS
10
0.91
20
1.09
11
0.934094
21
1.09
0
LINE
8
BLACK
6
CONTINUOUS
10
0.934094
20
1.09
11
0.934094
21
1.09787
0
LINE
8
BLACK
6
CONTINUOUS
10
0.934094
20
1.09787
11
0.711226
21
1.09787
0
LINE
8
BLACK
6
CONTINUOUS
10
0.711226
20
1.09787
11
0.710692
21
1.09734
0
LINE
8
BLACK
6
CONTINUOUS
10
0.710692
20
1.09734
11
0.711797
21
1.09491
0
LINE
8
BLACK
6
CONTINUOUS
10
0.711797
20
1.09491
11
0.7125
21
1.09
0
LINE
8
BLACK
6
CONTINUOUS
10
0.7125
20
1.09
11
0.712495
21
1.08957
0
LINE
8
BLACK
6
CONTINUOUS
10
0.712495
20
1.08957
11
0.711672
21
1.08468
0
LINE
8
BLACK
6
CONTINUOUS
10
0.711672
20
1.08468
11
0.709508
21
1.08021
0
LINE
8
BLACK
6
CONTINUOUS
10
0.709508
20
1.08021
11
0.706178
21
1.07654
0
LINE
8
BLACK
6
CONTINUOUS
10
0.706178
20
1.07654
11
0.70195
21
1.07394
0
LINE
8
BLACK
6
CONTINUOUS
10
0.70195
20
1.07394
11
0.697163
21
1.07263
0
LINE
8
BLACK
6
CONTINUOUS
10
0.697163
20
1.07263
11
0.692202
21
1.07273
0
LINE
8
BLACK
6
CONTINUOUS
10
0.692202
20
1.07273
11
0.687466
21
1.0742
0
LINE
8
BLACK
6
CONTINUOUS
10
0.687466
20
1.0742
11
0.683336
21
1.07695
0
LINE
8
BLACK
6
CONTINUOUS
10
0.683336
20
1.07695
11
0.680143
21
1.08075
0
LINE
8
BLACK
6
CONTINUOUS
10
0.680143
20
1.08075
11
0.678145
21
1.08529
0
LINE
8
BLACK
6
CONTINUOUS
10
0.678145
20
1.08529
11
0.677501
21
1.09021
0
LINE
8
BLACK
6
CONTINUOUS
10
0.677501
20
1.09021
11
0.678265
21
1.09512
0
LINE
8
BLACK
6
CONTINUOUS
10
0.678265
20
1.09512
11
0.680373
21
1.09961
0
LINE
8
BLACK
6
CONTINUOUS
10
0.680373
20
1.09961
11
0.683658
21
1.10333
0
LINE
8
BLACK
6
CONTINUOUS
10
0.683658
20
1.10333
11
0.687854
21
1.10597
0
LINE
8
BLACK
6
CONTINUOUS
10
0.687854
20
1.10597
11
0.692625
21
1.10734
0
LINE
8
BLACK
6
CONTINUOUS
10
0.692625
20
1.10734
11
0.697587
21
1.10731
0
LINE
8
BLACK
6
CONTINUOUS
10
0.697587
20
1.10731
11
0.70234
21
1.10589
0
LINE
8
BLACK
6
CONTINUOUS
10
0.70234
20
1.10589
11
0.702458
21
1.10581
0
LINE
8
BLACK
6
CONTINUOUS
10
0.702458
20
1.10581
11
0.704604
21
1.10796
0
LINE
8
BLACK
6
CONTINUOUS
10
0.704604
20
1.10796
11
0.705277
21
1.10834
0
LINE
8
BLACK
6
CONTINUOUS
10
0.705277
20
1.10834
11
0.705827
21
1.10889
0
LINE
8
BLACK
6
CONTINUOUS
10
0.705827
20
1.10889
11
0.706578
21
1.1091
0
LINE
8
BLACK
6
CONTINUOUS
10
0.706578
20
1.1091
11
0.707251
21
1.10948
0
LINE
8
BLACK
6
CONTINUOUS
10
0.707251
20
1.10948
11
0.708029
21
1.10948
0
LINE
8
BLACK
6
CONTINUOUS
10
0.708029
20
1.10948
11
0.70878
21
1.10969
0
LINE
8
BLACK
6
CONTINUOUS
10
0.70878
20
1.10969
11
0.938031
21
1.10969
0
LINE
8
BLACK
6
CONTINUOUS
10
0.938031
20
1.10969
11
0.938782
21
1.10948
0
LINE
8
BLACK
6
CONTINUOUS
10
0.595
20
0.13815
11
0.445
21
0.13815
0
LINE
8
BLACK
6
CONTINUOUS
10
0.445
20
0.13815
11
0.445
21
0.28815
0
LINE
8
BLACK
6
CONTINUOUS
10
0.445
20
0.28815
11
0.595
21
0.28815
0
LINE
8
BLACK
6
CONTINUOUS
10
0.595
20
0.28815
11
0.595
21
0.13815
0
LINE
8
BLACK
6
CONTINUOUS
10
0.795
20
0.13815
11
0.645
21
0.13815
0
LINE
8
BLACK
6
CONTINUOUS
10
0.645
20
0.13815
11
0.645
21
0.28815
0
LINE
8
BLACK
6
CONTINUOUS
10
0.645
20
0.28815
11
0.795
21
0.28815
0
LINE
8
BLACK
6
CONTINUOUS
10
0.795
20
0.28815
11
0.795
21
0.13815
0
LINE
8
BLACK
6
CONTINUOUS
10
0.595
20
0.335
11
0.445
21
0.335
0
LINE
8
BLACK
6
CONTINUOUS
10
0.445
20
0.335
11
0.445
21
0.485
0
LINE
8
BLACK
6
CONTINUOUS
10
0.445
20
0.485
11
0.595
21
0.485
0
LINE
8
BLACK
6
CONTINUOUS
10
0.595
20
0.485
11
0.595
21
0.335
0
LINE
8
BLACK
6
CONTINUOUS
10
0.795
20
0.335
11
0.645
21
0.335
0
LINE
8
BLACK
6
CONTINUOUS
10
0.645
20
0.335
11
0.645
21
0.485
0
LINE
8
BLACK
6
CONTINUOUS
10
0.645
20
0.485
11
0.795
21
0.485
0
LINE
8
BLACK
6
CONTINUOUS
10
0.795
20
0.485
11
0.795
21
0.335
0
LINE
8
BLACK
6
CONTINUOUS
10
0.97
20
1.13
11
0.91
21
1.13
0
LINE
8
BLACK
6
CONTINUOUS
10
0.91
20
1.13
11
0.91
21
1.19
0
LINE
8
BLACK
6
CONTINUOUS
10
0.91
20
1.19
11
0.97
21
1.19
0
LINE
8
BLACK
6
CONTINUOUS
10
0.97
20
1.19
11
0.97
21
1.13
0
LINE
8
BLACK
6
CONTINUOUS
10
1.03164
20
1.23196
11
1.04696
21
1.21664
0
LINE
8
BLACK
6
CONTINUOUS
10
1.04696
20
1.21664
11
1.04909
21
1.21345
0
LINE
8
BLACK
6
CONTINUOUS
10
1.04909
20
1.21345
11
1.04984
21
1.20969
0
LINE
8
BLACK
6
CONTINUOUS
10
1.04984
20
1.20969
11
1.04984
21
1.19
0
LINE
8
BLACK
6
CONTINUOUS
10
1.04984
20
1.19
11
1.07
21
1.19
0
LINE
8
BLACK
6
CONTINUOUS
10
1.07
20
1.19
11
1.07
21
1.13
0
LINE
8
BLACK
6
CONTINUOUS
10
1.07
20
1.13
11
1.01
21
1.13
0
LINE
8
BLACK
6
CONTINUOUS
10
1.01
20
1.13
11
1.01
21
1.19
0
LINE
8
BLACK
6
CONTINUOUS
10
1.01
20
1.19
11
1.03016
21
1.19
0
LINE
8
BLACK
6
CONTINUOUS
10
1.03016
20
1.19
11
1.03016
21
1.20561
0
LINE
8
BLACK
6
CONTINUOUS
10
1.03016
20
1.20561
11
1.02061
21
1.21516
0
LINE
8
BLACK
6
CONTINUOUS
10
1.02061
20
1.21516
11
0.672815
21
1.21516
0
LINE
8
BLACK
6
CONTINUOUS
10
0.672815
20
1.21516
11
0.672815
21
1.21516
0
LINE
8
BLACK
6
CONTINUOUS
10
0.672815
20
1.21516
11
0.669673
21
1.21578
0
LINE
8
BLACK
6
CONTINUOUS
10
0.669673
20
1.21578
11
0.669048
21
1.21591
0
LINE
8
BLACK
6
CONTINUOUS
10
0.669048
20
1.21591
11
0.665855
21
1.21804
0
LINE
8
BLACK
6
CONTINUOUS
10
0.665855
20
1.21804
11
0.665855
21
1.21804
0
LINE
8
BLACK
6
CONTINUOUS
10
0.665855
20
1.21804
11
0.639073
21
1.24482
0
LINE
8
BLACK
6
CONTINUOUS
10
0.639073
20
1.24482
11
0.639073
21
1.24482
0
LINE
8
BLACK
6
CONTINUOUS
10
0.639073
20
1.24482
11
0.6
21
1.2839
0
LINE
8
BLACK
6
CONTINUOUS
10
0.6
20
1.2839
11
0.541822
21
1.22572
0
LINE
8
BLACK
6
CONTINUOUS
10
0.541822
20
1.22572
11
0.538629
21
1.22358
0
LINE
8
BLACK
6
CONTINUOUS
10
0.538629
20
1.22358
11
0.534862
21
1.22283
0
LINE
8
BLACK
6
CONTINUOUS
10
0.534862
20
1.22283
11
0.319871
21
1.22283
0
LINE
8
BLACK
6
CONTINUOUS
10
0.319871
20
1.22283
11
0.316593
21
1.21921
0
LINE
8
BLACK
6
CONTINUOUS
10
0.316593
20
1.21921
11
0.312364
21
1.21662
0
LINE
8
BLACK
6
CONTINUOUS
10
0.312364
20
1.21662
11
0.307577
21
1.21531
0
LINE
8
BLACK
6
CONTINUOUS
10
0.307577
20
1.21531
11
0.302616
21
1.2154
0
LINE
8
BLACK
6
CONTINUOUS
10
0.302616
20
1.2154
11
0.29788
21
1.21688
0
LINE
8
BLACK
6
CONTINUOUS
10
0.29788
20
1.21688
11
0.29375
21
1.21963
0
LINE
8
BLACK
6
CONTINUOUS
10
0.29375
20
1.21963
11
0.290557
21
1.22343
0
LINE
8
BLACK
6
CONTINUOUS
10
0.290557
20
1.22343
11
0.288559
21
1.22797
0
LINE
8
BLACK
6
CONTINUOUS
10
0.288559
20
1.22797
11
0.287916
21
1.23289
0
LINE
8
BLACK
6
CONTINUOUS
10
0.287916
20
1.23289
11
0.288679
21
1.23779
0
LINE
8
BLACK
6
CONTINUOUS
10
0.288679
20
1.23779
11
0.290788
21
1.24229
0
LINE
8
BLACK
6
CONTINUOUS
10
0.290788
20
1.24229
11
0.294072
21
1.246
0
LINE
8
BLACK
6
CONTINUOUS
10
0.294072
20
1.246
11
0.298269
21
1.24865
0
LINE
8
BLACK
6
CONTINUOUS
10
0.298269
20
1.24865
11
0.303039
21
1.25002
0
LINE
8
BLACK
6
CONTINUOUS
10
0.303039
20
1.25002
11
0.308001
21
1.24998
0
LINE
8
BLACK
6
CONTINUOUS
10
0.308001
20
1.24998
11
0.312755
21
1.24856
0
LINE
8
BLACK
6
CONTINUOUS
10
0.312755
20
1.24856
11
0.316918
21
1.24586
0
LINE
8
BLACK
6
CONTINUOUS
10
0.316918
20
1.24586
11
0.319801
21
1.24252
0
LINE
8
BLACK
6
CONTINUOUS
10
0.319801
20
1.24252
11
0.530785
21
1.24252
0
LINE
8
BLACK
6
CONTINUOUS
10
0.530785
20
1.24252
11
0.590157
21
1.30189
0
LINE
8
BLACK
6
CONTINUOUS
10
0.590157
20
1.30189
11
0.590157
21
1.3175
0
LINE
8
BLACK
6
CONTINUOUS
10
0.590157
20
1.3175
11
0.57
21
1.3175
0
LINE
8
BLACK
6
CONTINUOUS
10
0.57
20
1.3175
11
0.57
21
1.3775
0
LINE
8
BLACK
6
CONTINUOUS
10
0.57
20
1.3775
11
0.63
21
1.3775
0
LINE
8
BLACK
6
CONTINUOUS
10
0.63
20
1.3775
11
0.63
21
1.3175
0
LINE
8
BLACK
6
CONTINUOUS
10
0.63
20
1.3175
11
0.609843
21
1.3175
0
LINE
8
BLACK
6
CONTINUOUS
10
0.609843
20
1.3175
11
0.609843
21
1.30189
0
LINE
8
BLACK
6
CONTINUOUS
10
0.609843
20
1.30189
11
0.652993
21
1.25874
0
LINE
8
BLACK
6
CONTINUOUS
10
0.652993
20
1.25874
11
0.652993
21
1.25874
0
LINE
8
BLACK
6
CONTINUOUS
10
0.652993
20
1.25874
11
0.676892
21
1.23484
0
LINE
8
BLACK
6
CONTINUOUS
10
0.676892
20
1.23484
11
1.02469
21
1.23484
0
LINE
8
BLACK
6
CONTINUOUS
10
1.02469
20
1.23484
11
1.02845
21
1.23409
0
LINE
8
BLACK
6
CONTINUOUS
10
1.02845
20
1.23409
11
1.03164
21
1.23196
0
LINE
8
BLACK
6
CONTINUOUS
10
0.1825
20
1.145
11
0.1225
21
1.145
0
LINE
8
BLACK
6
CONTINUOUS
10
0.1225
20
1.145
11
0.1225
21
1.205
0
LINE
8
BLACK
6
CONTINUOUS
10
0.1225
20
1.205
11
0.1825
21
1.205
0
LINE
8
BLACK
6
CONTINUOUS
10
0.1825
20
1.205
11
0.1825
21
1.145
0
LINE
8
BLACK
6
CONTINUOUS
10
0.73
20
1.3175
11
0.67
21
1.3175
0
LINE
8
BLACK
6
CONTINUOUS
10
0.67
20
1.3175
11
0.67
21
1.3775
0
LINE
8
BLACK
6
CONTINUOUS
10
0.67
20
1.3775
11
0.73
21
1.3775
0
LINE
8
BLACK
6
CONTINUOUS
10
0.73
20
1.3775
11
0.73
21
1.3175
0
LINE
8
BLACK
6
CONTINUOUS
10
0.53
20
1.3175
11
0.47
21
1.3175
0
LINE
8
BLACK
6
CONTINUOUS
10
0.47
20
1.3175
11
0.47
21
1.3775
0
LINE
8
BLACK
6
CONTINUOUS
10
0.47
20
1.3775
11
0.53
21
1.3775
0
LINE
8
BLACK
6
CONTINUOUS
10
0.53
20
1.3775
11
0.53
21
1.3175
0
LINE
8
BLACK
6
CONTINUOUS
10
0.63
20
1.4175
11
0.57
21
1.4175
0
LINE
8
BLACK
6
CONTINUOUS
10
0.57
20
1.4175
11
0.57
21
1.4775
0
LINE
8
BLACK
6
CONTINUOUS
10
0.57
20
1.4775
11
0.63
21
1.4775
0
LINE
8
BLACK
6
CONTINUOUS
10
0.63
20
1.4775
11
0.63
21
1.4175
0
LINE
8
BLACK
6
CONTINUOUS
10
0.73
20
1.4175
11
0.67
21
1.4175
0
LINE
8
BLACK
6
CONTINUOUS
10
0.67
20
1.4175
11
0.67
21
1.4775
0
LINE
8
BLACK
6
CONTINUOUS
10
0.67
20
1.4775
11
0.73
21
1.4775
0
LINE
8
BLACK
6
CONTINUOUS
10
0.73
20
1.4775
11
0.73
21
1.4175
0
LINE
8
BLACK
6
CONTINUOUS
10
0.53
20
1.4175
11
0.47
21
1.4175
0
LINE
8
BLACK
6
CONTINUOUS
10
0.47
20
1.4175
11
0.47
21
1.4775
0
LINE
8
BLACK
6
CONTINUOUS
10
0.47
20
1.4775
11
0.53
21
1.4775
0
LINE
8
BLACK
6
CONTINUOUS
10
0.53
20
1.4775
11
0.53
21
1.4175
0
CIRCLE
8
BLACK
10
0.305414
20
1.23268
40
0.0125
0
CIRCLE
8
BLACK
10
0.62
20
0.9125
40
0.0125
0
CIRCLE
8
BLACK
10
0.695
20
1.09
40
0.0125
0
CIRCLE
8
BLACK
10
0.803235
20
0.946513
40
0.0125
  0
ENDSEC
  0
EOF
