  0
SECTION
  2
HEADER
  9
$ANGBASE
  50
0.0
  9
$ANGDIR
  70
1
  9
$MEASUREMENT
  70
0
  0
ENDSEC
  0
SECTION
  2
TABLES
  0
TABLE
  2
LTYPE
  70
4
  0
LTYPE
  5
40F
  2
CONTINUOUS
  70
0
  3
Solid line
  72
65
  73
0
  40
0.0
  0
LTYPE
  5
410
  2
DASHDOT
 70
0
  3
Dash Dot ____ _ ____ _
 72
65
 73
4
 40
2.0
 49
1.25
 49
-0.25
 49
0.25
 49
-0.25
  0
LTYPE
  5
411
  2
DASHED
 70
0
  3
Dashed __ __ __ __ __
 72
65
 73
2
 40
0.75
 49
0.5
 49
-0.25
  0
LTYPE
  5
43B
  2
DOTTED
 70
0
  3
Dotted .  .  .  .
 72
65
 73
2
 40
0.2
 49
0.0
 49
-0.2
  0
ENDTAB
  0
TABLE
  2
STYLE
  70
4
  0
STYLE
  2
KICAD
  70
0
  40
0
  41
1
  42
1
  50
0
  71
0
  3
isocp.shx
  0
STYLE
  2
KICADB
  70
0
  40
0
  41
1
  42
1
  50
0
  71
0
  3
isocp.shx
  0
STYLE
  2
KICADI
  70
0
  40
0
  41
1
  42
1
  50
15
  71
0
  3
isocp.shx
  0
STYLE
  2
KICADBI
  70
0
  40
0
  41
1
  42
1
  50
15
  71
0
  3
isocp.shx
  0
ENDTAB
  0
TABLE
  2
LAYER
  70
1
  0
LAYER
  2
BLACK
  70
0
  62
7
  6
CONTINUOUS
  0
ENDTAB
  0
ENDSEC
  0
SECTION
  2
ENTITIES
0
LINE
8
BLACK
6
CONTINUOUS
10
0.22051
20
0.316316
11
0.233874
21
0.313148
0
LINE
8
BLACK
6
CONTINUOUS
10
0.233874
20
0.313148
11
0.246781
21
0.308451
0
LINE
8
BLACK
6
CONTINUOUS
10
0.246781
20
0.308451
11
0.259055
21
0.302286
0
LINE
8
BLACK
6
CONTINUOUS
10
0.259055
20
0.302286
11
0.270531
21
0.294739
0
LINE
8
BLACK
6
CONTINUOUS
10
0.270531
20
0.294739
11
0.281052
21
0.28591
0
LINE
8
BLACK
6
CONTINUOUS
10
0.281052
20
0.28591
11
0.290478
21
0.27592
0
LINE
8
BLACK
6
CONTINUOUS
10
0.290478
20
0.27592
11
0.29868
21
0.264903
0
LINE
8
BLACK
6
CONTINUOUS
10
0.29868
20
0.264903
11
0.305547
21
0.253008
0
LINE
8
BLACK
6
CONTINUOUS
10
0.305547
20
0.253008
11
0.310987
21
0.240396
0
LINE
8
BLACK
6
CONTINUOUS
10
0.310987
20
0.240396
11
0.314927
21
0.227238
0
LINE
8
BLACK
6
CONTINUOUS
10
0.314927
20
0.227238
11
0.317312
21
0.213712
0
LINE
8
BLACK
6
CONTINUOUS
10
0.317312
20
0.213712
11
0.31811
21
0.2
0
LINE
8
BLACK
6
CONTINUOUS
10
0.31811
20
0.2
11
0.317312
21
0.186288
0
LINE
8
BLACK
6
CONTINUOUS
10
0.317312
20
0.186288
11
0.314927
21
0.172762
0
LINE
8
BLACK
6
CONTINUOUS
10
0.314927
20
0.172762
11
0.310987
21
0.159604
0
LINE
8
BLACK
6
CONTINUOUS
10
0.310987
20
0.159604
11
0.305547
21
0.146992
0
LINE
8
BLACK
6
CONTINUOUS
10
0.305547
20
0.146992
11
0.29868
21
0.135097
0
LINE
8
BLACK
6
CONTINUOUS
10
0.29868
20
0.135097
11
0.290478
21
0.12408
0
LINE
8
BLACK
6
CONTINUOUS
10
0.290478
20
0.12408
11
0.281052
21
0.11409
0
LINE
8
BLACK
6
CONTINUOUS
10
0.281052
20
0.11409
11
0.270531
21
0.105261
0
LINE
8
BLACK
6
CONTINUOUS
10
0.270531
20
0.105261
11
0.259055
21
0.0977135
0
LINE
8
BLACK
6
CONTINUOUS
10
0.259055
20
0.0977135
11
0.246781
21
0.0915493
0
LINE
8
BLACK
6
CONTINUOUS
10
0.246781
20
0.0915493
11
0.233874
21
0.0868516
0
LINE
8
BLACK
6
CONTINUOUS
10
0.233874
20
0.0868516
11
0.22051
21
0.0836841
0
LINE
8
BLACK
6
CONTINUOUS
10
0.22051
20
0.0836841
11
0.206867
21
0.0820896
0
LINE
8
BLACK
6
CONTINUOUS
10
0.206867
20
0.0820896
11
0.193133
21
0.0820896
0
LINE
8
BLACK
6
CONTINUOUS
10
0.193133
20
0.0820896
11
0.17949
21
0.0836841
0
LINE
8
BLACK
6
CONTINUOUS
10
0.17949
20
0.0836841
11
0.166126
21
0.0868516
0
LINE
8
BLACK
6
CONTINUOUS
10
0.166126
20
0.0868516
11
0.153219
21
0.0915493
0
LINE
8
BLACK
6
CONTINUOUS
10
0.153219
20
0.0915493
11
0.140945
21
0.0977135
0
LINE
8
BLACK
6
CONTINUOUS
10
0.140945
20
0.0977135
11
0.129469
21
0.105261
0
LINE
8
BLACK
6
CONTINUOUS
10
0.129469
20
0.105261
11
0.118948
21
0.11409
0
LINE
8
BLACK
6
CONTINUOUS
10
0.118948
20
0.11409
11
0.109522
21
0.12408
0
LINE
8
BLACK
6
CONTINUOUS
10
0.109522
20
0.12408
11
0.10132
21
0.135097
0
LINE
8
BLACK
6
CONTINUOUS
10
0.10132
20
0.135097
11
0.0944528
21
0.146992
0
LINE
8
BLACK
6
CONTINUOUS
10
0.0944528
20
0.146992
11
0.0890127
21
0.159604
0
LINE
8
BLACK
6
CONTINUOUS
10
0.0890127
20
0.159604
11
0.0850734
21
0.172762
0
LINE
8
BLACK
6
CONTINUOUS
10
0.0850734
20
0.172762
11
0.0826884
21
0.186288
0
LINE
8
BLACK
6
CONTINUOUS
10
0.0826884
20
0.186288
11
0.0818898
21
0.2
0
LINE
8
BLACK
6
CONTINUOUS
10
0.0818898
20
0.2
11
0.0826884
21
0.213712
0
LINE
8
BLACK
6
CONTINUOUS
10
0.0826884
20
0.213712
11
0.0850734
21
0.227238
0
LINE
8
BLACK
6
CONTINUOUS
10
0.0850734
20
0.227238
11
0.0890127
21
0.240396
0
LINE
8
BLACK
6
CONTINUOUS
10
0.0890127
20
0.240396
11
0.0944528
21
0.253008
0
LINE
8
BLACK
6
CONTINUOUS
10
0.0944528
20
0.253008
11
0.10132
21
0.264903
0
LINE
8
BLACK
6
CONTINUOUS
10
0.10132
20
0.264903
11
0.109522
21
0.27592
0
LINE
8
BLACK
6
CONTINUOUS
10
0.109522
20
0.27592
11
0.118948
21
0.28591
0
LINE
8
BLACK
6
CONTINUOUS
10
0.118948
20
0.28591
11
0.129469
21
0.294739
0
LINE
8
BLACK
6
CONTINUOUS
10
0.129469
20
0.294739
11
0.140945
21
0.302286
0
LINE
8
BLACK
6
CONTINUOUS
10
0.140945
20
0.302286
11
0.153219
21
0.308451
0
LINE
8
BLACK
6
CONTINUOUS
10
0.153219
20
0.308451
11
0.166126
21
0.313148
0
LINE
8
BLACK
6
CONTINUOUS
10
0.166126
20
0.313148
11
0.17949
21
0.316316
0
LINE
8
BLACK
6
CONTINUOUS
10
0.17949
20
0.316316
11
0.193133
21
0.31791
0
LINE
8
BLACK
6
CONTINUOUS
10
0.193133
20
0.31791
11
0.206867
21
0.31791
0
LINE
8
BLACK
6
CONTINUOUS
10
0.206867
20
0.31791
11
0.22051
21
0.316316
0
LINE
8
BLACK
6
CONTINUOUS
10
1.02051
20
0.316316
11
1.03387
21
0.313148
0
LINE
8
BLACK
6
CONTINUOUS
10
1.03387
20
0.313148
11
1.04678
21
0.308451
0
LINE
8
BLACK
6
CONTINUOUS
10
1.04678
20
0.308451
11
1.05906
21
0.302286
0
LINE
8
BLACK
6
CONTINUOUS
10
1.05906
20
0.302286
11
1.07053
21
0.294739
0
LINE
8
BLACK
6
CONTINUOUS
10
1.07053
20
0.294739
11
1.08105
21
0.28591
0
LINE
8
BLACK
6
CONTINUOUS
10
1.08105
20
0.28591
11
1.09048
21
0.27592
0
LINE
8
BLACK
6
CONTINUOUS
10
1.09048
20
0.27592
11
1.09868
21
0.264903
0
LINE
8
BLACK
6
CONTINUOUS
10
1.09868
20
0.264903
11
1.10555
21
0.253008
0
LINE
8
BLACK
6
CONTINUOUS
10
1.10555
20
0.253008
11
1.11099
21
0.240396
0
LINE
8
BLACK
6
CONTINUOUS
10
1.11099
20
0.240396
11
1.11493
21
0.227238
0
LINE
8
BLACK
6
CONTINUOUS
10
1.11493
20
0.227238
11
1.11731
21
0.213712
0
LINE
8
BLACK
6
CONTINUOUS
10
1.11731
20
0.213712
11
1.11811
21
0.2
0
LINE
8
BLACK
6
CONTINUOUS
10
1.11811
20
0.2
11
1.11731
21
0.186288
0
LINE
8
BLACK
6
CONTINUOUS
10
1.11731
20
0.186288
11
1.11493
21
0.172762
0
LINE
8
BLACK
6
CONTINUOUS
10
1.11493
20
0.172762
11
1.11099
21
0.159604
0
LINE
8
BLACK
6
CONTINUOUS
10
1.11099
20
0.159604
11
1.10555
21
0.146992
0
LINE
8
BLACK
6
CONTINUOUS
10
1.10555
20
0.146992
11
1.09868
21
0.135097
0
LINE
8
BLACK
6
CONTINUOUS
10
1.09868
20
0.135097
11
1.09048
21
0.12408
0
LINE
8
BLACK
6
CONTINUOUS
10
1.09048
20
0.12408
11
1.08105
21
0.11409
0
LINE
8
BLACK
6
CONTINUOUS
10
1.08105
20
0.11409
11
1.07053
21
0.105261
0
LINE
8
BLACK
6
CONTINUOUS
10
1.07053
20
0.105261
11
1.05906
21
0.0977135
0
LINE
8
BLACK
6
CONTINUOUS
10
1.05906
20
0.0977135
11
1.04678
21
0.0915493
0
LINE
8
BLACK
6
CONTINUOUS
10
1.04678
20
0.0915493
11
1.03387
21
0.0868516
0
LINE
8
BLACK
6
CONTINUOUS
10
1.03387
20
0.0868516
11
1.02051
21
0.0836841
0
LINE
8
BLACK
6
CONTINUOUS
10
1.02051
20
0.0836841
11
1.00687
21
0.0820896
0
LINE
8
BLACK
6
CONTINUOUS
10
1.00687
20
0.0820896
11
0.993133
21
0.0820896
0
LINE
8
BLACK
6
CONTINUOUS
10
0.993133
20
0.0820896
11
0.97949
21
0.0836841
0
LINE
8
BLACK
6
CONTINUOUS
10
0.97949
20
0.0836841
11
0.966126
21
0.0868516
0
LINE
8
BLACK
6
CONTINUOUS
10
0.966126
20
0.0868516
11
0.953219
21
0.0915493
0
LINE
8
BLACK
6
CONTINUOUS
10
0.953219
20
0.0915493
11
0.940945
21
0.0977135
0
LINE
8
BLACK
6
CONTINUOUS
10
0.940945
20
0.0977135
11
0.929469
21
0.105261
0
LINE
8
BLACK
6
CONTINUOUS
10
0.929469
20
0.105261
11
0.918948
21
0.11409
0
LINE
8
BLACK
6
CONTINUOUS
10
0.918948
20
0.11409
11
0.909522
21
0.12408
0
LINE
8
BLACK
6
CONTINUOUS
10
0.909522
20
0.12408
11
0.90132
21
0.135097
0
LINE
8
BLACK
6
CONTINUOUS
10
0.90132
20
0.135097
11
0.894453
21
0.146992
0
LINE
8
BLACK
6
CONTINUOUS
10
0.894453
20
0.146992
11
0.889013
21
0.159604
0
LINE
8
BLACK
6
CONTINUOUS
10
0.889013
20
0.159604
11
0.885073
21
0.172762
0
LINE
8
BLACK
6
CONTINUOUS
10
0.885073
20
0.172762
11
0.882688
21
0.186288
0
LINE
8
BLACK
6
CONTINUOUS
10
0.882688
20
0.186288
11
0.88189
21
0.2
0
LINE
8
BLACK
6
CONTINUOUS
10
0.88189
20
0.2
11
0.882688
21
0.213712
0
LINE
8
BLACK
6
CONTINUOUS
10
0.882688
20
0.213712
11
0.885073
21
0.227238
0
LINE
8
BLACK
6
CONTINUOUS
10
0.885073
20
0.227238
11
0.889013
21
0.240396
0
LINE
8
BLACK
6
CONTINUOUS
10
0.889013
20
0.240396
11
0.894453
21
0.253008
0
LINE
8
BLACK
6
CONTINUOUS
10
0.894453
20
0.253008
11
0.90132
21
0.264903
0
LINE
8
BLACK
6
CONTINUOUS
10
0.90132
20
0.264903
11
0.909522
21
0.27592
0
LINE
8
BLACK
6
CONTINUOUS
10
0.909522
20
0.27592
11
0.918948
21
0.28591
0
LINE
8
BLACK
6
CONTINUOUS
10
0.918948
20
0.28591
11
0.929469
21
0.294739
0
LINE
8
BLACK
6
CONTINUOUS
10
0.929469
20
0.294739
11
0.940945
21
0.302286
0
LINE
8
BLACK
6
CONTINUOUS
10
0.940945
20
0.302286
11
0.953219
21
0.308451
0
LINE
8
BLACK
6
CONTINUOUS
10
0.953219
20
0.308451
11
0.966126
21
0.313148
0
LINE
8
BLACK
6
CONTINUOUS
10
0.966126
20
0.313148
11
0.97949
21
0.316316
0
LINE
8
BLACK
6
CONTINUOUS
10
0.97949
20
0.316316
11
0.993133
21
0.31791
0
LINE
8
BLACK
6
CONTINUOUS
10
0.993133
20
0.31791
11
1.00687
21
0.31791
0
LINE
8
BLACK
6
CONTINUOUS
10
1.00687
20
0.31791
11
1.02051
21
0.316316
0
LINE
8
BLACK
6
CONTINUOUS
10
0.595
20
0.13815
11
0.445
21
0.13815
0
LINE
8
BLACK
6
CONTINUOUS
10
0.445
20
0.13815
11
0.445
21
0.28815
0
LINE
8
BLACK
6
CONTINUOUS
10
0.445
20
0.28815
11
0.595
21
0.28815
0
LINE
8
BLACK
6
CONTINUOUS
10
0.595
20
0.28815
11
0.595
21
0.13815
0
LINE
8
BLACK
6
CONTINUOUS
10
0.795
20
0.13815
11
0.645
21
0.13815
0
LINE
8
BLACK
6
CONTINUOUS
10
0.645
20
0.13815
11
0.645
21
0.28815
0
LINE
8
BLACK
6
CONTINUOUS
10
0.645
20
0.28815
11
0.795
21
0.28815
0
LINE
8
BLACK
6
CONTINUOUS
10
0.795
20
0.28815
11
0.795
21
0.13815
0
LINE
8
BLACK
6
CONTINUOUS
10
0.595
20
0.335
11
0.445
21
0.335
0
LINE
8
BLACK
6
CONTINUOUS
10
0.445
20
0.335
11
0.445
21
0.485
0
LINE
8
BLACK
6
CONTINUOUS
10
0.445
20
0.485
11
0.595
21
0.485
0
LINE
8
BLACK
6
CONTINUOUS
10
0.595
20
0.485
11
0.595
21
0.335
0
LINE
8
BLACK
6
CONTINUOUS
10
0.795
20
0.335
11
0.645
21
0.335
0
LINE
8
BLACK
6
CONTINUOUS
10
0.645
20
0.335
11
0.645
21
0.485
0
LINE
8
BLACK
6
CONTINUOUS
10
0.645
20
0.485
11
0.795
21
0.485
0
LINE
8
BLACK
6
CONTINUOUS
10
0.795
20
0.485
11
0.795
21
0.335
0
LINE
8
BLACK
6
CONTINUOUS
10
0.18
20
0.38
11
0.12
21
0.38
0
LINE
8
BLACK
6
CONTINUOUS
10
0.12
20
0.38
11
0.12
21
0.44
0
LINE
8
BLACK
6
CONTINUOUS
10
0.12
20
0.44
11
0.18
21
0.44
0
LINE
8
BLACK
6
CONTINUOUS
10
0.18
20
0.44
11
0.18
21
0.38
0
LINE
8
BLACK
6
CONTINUOUS
10
0.28
20
0.38
11
0.22
21
0.38
0
LINE
8
BLACK
6
CONTINUOUS
10
0.22
20
0.38
11
0.22
21
0.44
0
LINE
8
BLACK
6
CONTINUOUS
10
0.22
20
0.44
11
0.28
21
0.44
0
LINE
8
BLACK
6
CONTINUOUS
10
0.28
20
0.44
11
0.28
21
0.38
0
LINE
8
BLACK
6
CONTINUOUS
10
0.18
20
0.48
11
0.12
21
0.48
0
LINE
8
BLACK
6
CONTINUOUS
10
0.12
20
0.48
11
0.12
21
0.54
0
LINE
8
BLACK
6
CONTINUOUS
10
0.12
20
0.54
11
0.18
21
0.54
0
LINE
8
BLACK
6
CONTINUOUS
10
0.18
20
0.54
11
0.18
21
0.48
0
LINE
8
BLACK
6
CONTINUOUS
10
0.28
20
0.48
11
0.22
21
0.48
0
LINE
8
BLACK
6
CONTINUOUS
10
0.22
20
0.48
11
0.22
21
0.54
0
LINE
8
BLACK
6
CONTINUOUS
10
0.22
20
0.54
11
0.28
21
0.54
0
LINE
8
BLACK
6
CONTINUOUS
10
0.28
20
0.54
11
0.28
21
0.48
0
LINE
8
BLACK
6
CONTINUOUS
10
0.18
20
0.58
11
0.12
21
0.58
0
LINE
8
BLACK
6
CONTINUOUS
10
0.12
20
0.58
11
0.12
21
0.64
0
LINE
8
BLACK
6
CONTINUOUS
10
0.12
20
0.64
11
0.18
21
0.64
0
LINE
8
BLACK
6
CONTINUOUS
10
0.18
20
0.64
11
0.18
21
0.58
0
LINE
8
BLACK
6
CONTINUOUS
10
0.28
20
0.58
11
0.22
21
0.58
0
LINE
8
BLACK
6
CONTINUOUS
10
0.22
20
0.58
11
0.22
21
0.64
0
LINE
8
BLACK
6
CONTINUOUS
10
0.22
20
0.64
11
0.28
21
0.64
0
LINE
8
BLACK
6
CONTINUOUS
10
0.28
20
0.64
11
0.28
21
0.58
0
LINE
8
BLACK
6
CONTINUOUS
10
0.82
20
0.8
11
0.76
21
0.8
0
LINE
8
BLACK
6
CONTINUOUS
10
0.76
20
0.8
11
0.76
21
0.86
0
LINE
8
BLACK
6
CONTINUOUS
10
0.76
20
0.86
11
0.82
21
0.86
0
LINE
8
BLACK
6
CONTINUOUS
10
0.82
20
0.86
11
0.82
21
0.8
0
LINE
8
BLACK
6
CONTINUOUS
10
0.92
20
0.8
11
0.86
21
0.8
0
LINE
8
BLACK
6
CONTINUOUS
10
0.86
20
0.8
11
0.86
21
0.86
0
LINE
8
BLACK
6
CONTINUOUS
10
0.86
20
0.86
11
0.92
21
0.86
0
LINE
8
BLACK
6
CONTINUOUS
10
0.92
20
0.86
11
0.92
21
0.8
0
LINE
8
BLACK
6
CONTINUOUS
10
0.1825
20
0.945
11
0.1225
21
0.945
0
LINE
8
BLACK
6
CONTINUOUS
10
0.1225
20
0.945
11
0.1225
21
1.005
0
LINE
8
BLACK
6
CONTINUOUS
10
0.1225
20
1.005
11
0.1825
21
1.005
0
LINE
8
BLACK
6
CONTINUOUS
10
0.1825
20
1.005
11
0.1825
21
0.945
0
LINE
8
BLACK
6
CONTINUOUS
10
0.87
20
1.03
11
0.81
21
1.03
0
LINE
8
BLACK
6
CONTINUOUS
10
0.81
20
1.03
11
0.81
21
1.09
0
LINE
8
BLACK
6
CONTINUOUS
10
0.81
20
1.09
11
0.87
21
1.09
0
LINE
8
BLACK
6
CONTINUOUS
10
0.87
20
1.09
11
0.87
21
1.03
0
LINE
8
BLACK
6
CONTINUOUS
10
0.97
20
1.03
11
0.91
21
1.03
0
LINE
8
BLACK
6
CONTINUOUS
10
0.91
20
1.03
11
0.91
21
1.09
0
LINE
8
BLACK
6
CONTINUOUS
10
0.91
20
1.09
11
0.97
21
1.09
0
LINE
8
BLACK
6
CONTINUOUS
10
0.97
20
1.09
11
0.97
21
1.03
0
LINE
8
BLACK
6
CONTINUOUS
10
1.07
20
1.03
11
1.01
21
1.03
0
LINE
8
BLACK
6
CONTINUOUS
10
1.01
20
1.03
11
1.01
21
1.09
0
LINE
8
BLACK
6
CONTINUOUS
10
1.01
20
1.09
11
1.07
21
1.09
0
LINE
8
BLACK
6
CONTINUOUS
10
1.07
20
1.09
11
1.07
21
1.03
0
LINE
8
BLACK
6
CONTINUOUS
10
0.1825
20
1.045
11
0.1225
21
1.045
0
LINE
8
BLACK
6
CONTINUOUS
10
0.1225
20
1.045
11
0.1225
21
1.105
0
LINE
8
BLACK
6
CONTINUOUS
10
0.1225
20
1.105
11
0.1825
21
1.105
0
LINE
8
BLACK
6
CONTINUOUS
10
0.1825
20
1.105
11
0.1825
21
1.045
0
LINE
8
BLACK
6
CONTINUOUS
10
0.87
20
1.13
11
0.81
21
1.13
0
LINE
8
BLACK
6
CONTINUOUS
10
0.81
20
1.13
11
0.81
21
1.19
0
LINE
8
BLACK
6
CONTINUOUS
10
0.81
20
1.19
11
0.87
21
1.19
0
LINE
8
BLACK
6
CONTINUOUS
10
0.87
20
1.19
11
0.87
21
1.13
0
LINE
8
BLACK
6
CONTINUOUS
10
0.97
20
1.13
11
0.91
21
1.13
0
LINE
8
BLACK
6
CONTINUOUS
10
0.91
20
1.13
11
0.91
21
1.19
0
LINE
8
BLACK
6
CONTINUOUS
10
0.91
20
1.19
11
0.97
21
1.19
0
LINE
8
BLACK
6
CONTINUOUS
10
0.97
20
1.19
11
0.97
21
1.13
0
LINE
8
BLACK
6
CONTINUOUS
10
1.07
20
1.13
11
1.01
21
1.13
0
LINE
8
BLACK
6
CONTINUOUS
10
1.01
20
1.13
11
1.01
21
1.19
0
LINE
8
BLACK
6
CONTINUOUS
10
1.01
20
1.19
11
1.07
21
1.19
0
LINE
8
BLACK
6
CONTINUOUS
10
1.07
20
1.19
11
1.07
21
1.13
0
LINE
8
BLACK
6
CONTINUOUS
10
0.1825
20
1.145
11
0.1225
21
1.145
0
LINE
8
BLACK
6
CONTINUOUS
10
0.1225
20
1.145
11
0.1225
21
1.205
0
LINE
8
BLACK
6
CONTINUOUS
10
0.1225
20
1.205
11
0.1825
21
1.205
0
LINE
8
BLACK
6
CONTINUOUS
10
0.1825
20
1.205
11
0.1825
21
1.145
0
LINE
8
BLACK
6
CONTINUOUS
10
0.22051
20
1.51632
11
0.233874
21
1.51315
0
LINE
8
BLACK
6
CONTINUOUS
10
0.233874
20
1.51315
11
0.246781
21
1.50845
0
LINE
8
BLACK
6
CONTINUOUS
10
0.246781
20
1.50845
11
0.259055
21
1.50229
0
LINE
8
BLACK
6
CONTINUOUS
10
0.259055
20
1.50229
11
0.270531
21
1.49474
0
LINE
8
BLACK
6
CONTINUOUS
10
0.270531
20
1.49474
11
0.281052
21
1.48591
0
LINE
8
BLACK
6
CONTINUOUS
10
0.281052
20
1.48591
11
0.290478
21
1.47592
0
LINE
8
BLACK
6
CONTINUOUS
10
0.290478
20
1.47592
11
0.29868
21
1.4649
0
LINE
8
BLACK
6
CONTINUOUS
10
0.29868
20
1.4649
11
0.305547
21
1.45301
0
LINE
8
BLACK
6
CONTINUOUS
10
0.305547
20
1.45301
11
0.310987
21
1.4404
0
LINE
8
BLACK
6
CONTINUOUS
10
0.310987
20
1.4404
11
0.314927
21
1.42724
0
LINE
8
BLACK
6
CONTINUOUS
10
0.314927
20
1.42724
11
0.317312
21
1.41371
0
LINE
8
BLACK
6
CONTINUOUS
10
0.317312
20
1.41371
11
0.31811
21
1.4
0
LINE
8
BLACK
6
CONTINUOUS
10
0.31811
20
1.4
11
0.317312
21
1.38629
0
LINE
8
BLACK
6
CONTINUOUS
10
0.317312
20
1.38629
11
0.314927
21
1.37276
0
LINE
8
BLACK
6
CONTINUOUS
10
0.314927
20
1.37276
11
0.310987
21
1.3596
0
LINE
8
BLACK
6
CONTINUOUS
10
0.310987
20
1.3596
11
0.305547
21
1.34699
0
LINE
8
BLACK
6
CONTINUOUS
10
0.305547
20
1.34699
11
0.29868
21
1.3351
0
LINE
8
BLACK
6
CONTINUOUS
10
0.29868
20
1.3351
11
0.290478
21
1.32408
0
LINE
8
BLACK
6
CONTINUOUS
10
0.290478
20
1.32408
11
0.281052
21
1.31409
0
LINE
8
BLACK
6
CONTINUOUS
10
0.281052
20
1.31409
11
0.270531
21
1.30526
0
LINE
8
BLACK
6
CONTINUOUS
10
0.270531
20
1.30526
11
0.259055
21
1.29771
0
LINE
8
BLACK
6
CONTINUOUS
10
0.259055
20
1.29771
11
0.246781
21
1.29155
0
LINE
8
BLACK
6
CONTINUOUS
10
0.246781
20
1.29155
11
0.233874
21
1.28685
0
LINE
8
BLACK
6
CONTINUOUS
10
0.233874
20
1.28685
11
0.22051
21
1.28368
0
LINE
8
BLACK
6
CONTINUOUS
10
0.22051
20
1.28368
11
0.206867
21
1.28209
0
LINE
8
BLACK
6
CONTINUOUS
10
0.206867
20
1.28209
11
0.193133
21
1.28209
0
LINE
8
BLACK
6
CONTINUOUS
10
0.193133
20
1.28209
11
0.17949
21
1.28368
0
LINE
8
BLACK
6
CONTINUOUS
10
0.17949
20
1.28368
11
0.166126
21
1.28685
0
LINE
8
BLACK
6
CONTINUOUS
10
0.166126
20
1.28685
11
0.153219
21
1.29155
0
LINE
8
BLACK
6
CONTINUOUS
10
0.153219
20
1.29155
11
0.140945
21
1.29771
0
LINE
8
BLACK
6
CONTINUOUS
10
0.140945
20
1.29771
11
0.129469
21
1.30526
0
LINE
8
BLACK
6
CONTINUOUS
10
0.129469
20
1.30526
11
0.118948
21
1.31409
0
LINE
8
BLACK
6
CONTINUOUS
10
0.118948
20
1.31409
11
0.109522
21
1.32408
0
LINE
8
BLACK
6
CONTINUOUS
10
0.109522
20
1.32408
11
0.10132
21
1.3351
0
LINE
8
BLACK
6
CONTINUOUS
10
0.10132
20
1.3351
11
0.0944528
21
1.34699
0
LINE
8
BLACK
6
CONTINUOUS
10
0.0944528
20
1.34699
11
0.0890127
21
1.3596
0
LINE
8
BLACK
6
CONTINUOUS
10
0.0890127
20
1.3596
11
0.0850734
21
1.37276
0
LINE
8
BLACK
6
CONTINUOUS
10
0.0850734
20
1.37276
11
0.0826884
21
1.38629
0
LINE
8
BLACK
6
CONTINUOUS
10
0.0826884
20
1.38629
11
0.0818898
21
1.4
0
LINE
8
BLACK
6
CONTINUOUS
10
0.0818898
20
1.4
11
0.0826884
21
1.41371
0
LINE
8
BLACK
6
CONTINUOUS
10
0.0826884
20
1.41371
11
0.0850734
21
1.42724
0
LINE
8
BLACK
6
CONTINUOUS
10
0.0850734
20
1.42724
11
0.0890127
21
1.4404
0
LINE
8
BLACK
6
CONTINUOUS
10
0.0890127
20
1.4404
11
0.0944528
21
1.45301
0
LINE
8
BLACK
6
CONTINUOUS
10
0.0944528
20
1.45301
11
0.10132
21
1.4649
0
LINE
8
BLACK
6
CONTINUOUS
10
0.10132
20
1.4649
11
0.109522
21
1.47592
0
LINE
8
BLACK
6
CONTINUOUS
10
0.109522
20
1.47592
11
0.118948
21
1.48591
0
LINE
8
BLACK
6
CONTINUOUS
10
0.118948
20
1.48591
11
0.129469
21
1.49474
0
LINE
8
BLACK
6
CONTINUOUS
10
0.129469
20
1.49474
11
0.140945
21
1.50229
0
LINE
8
BLACK
6
CONTINUOUS
10
0.140945
20
1.50229
11
0.153219
21
1.50845
0
LINE
8
BLACK
6
CONTINUOUS
10
0.153219
20
1.50845
11
0.166126
21
1.51315
0
LINE
8
BLACK
6
CONTINUOUS
10
0.166126
20
1.51315
11
0.17949
21
1.51632
0
LINE
8
BLACK
6
CONTINUOUS
10
0.17949
20
1.51632
11
0.193133
21
1.51791
0
LINE
8
BLACK
6
CONTINUOUS
10
0.193133
20
1.51791
11
0.206867
21
1.51791
0
LINE
8
BLACK
6
CONTINUOUS
10
0.206867
20
1.51791
11
0.22051
21
1.51632
0
LINE
8
BLACK
6
CONTINUOUS
10
1.02051
20
1.51632
11
1.03387
21
1.51315
0
LINE
8
BLACK
6
CONTINUOUS
10
1.03387
20
1.51315
11
1.04678
21
1.50845
0
LINE
8
BLACK
6
CONTINUOUS
10
1.04678
20
1.50845
11
1.05906
21
1.50229
0
LINE
8
BLACK
6
CONTINUOUS
10
1.05906
20
1.50229
11
1.07053
21
1.49474
0
LINE
8
BLACK
6
CONTINUOUS
10
1.07053
20
1.49474
11
1.08105
21
1.48591
0
LINE
8
BLACK
6
CONTINUOUS
10
1.08105
20
1.48591
11
1.09048
21
1.47592
0
LINE
8
BLACK
6
CONTINUOUS
10
1.09048
20
1.47592
11
1.09868
21
1.4649
0
LINE
8
BLACK
6
CONTINUOUS
10
1.09868
20
1.4649
11
1.10555
21
1.45301
0
LINE
8
BLACK
6
CONTINUOUS
10
1.10555
20
1.45301
11
1.11099
21
1.4404
0
LINE
8
BLACK
6
CONTINUOUS
10
1.11099
20
1.4404
11
1.11493
21
1.42724
0
LINE
8
BLACK
6
CONTINUOUS
10
1.11493
20
1.42724
11
1.11731
21
1.41371
0
LINE
8
BLACK
6
CONTINUOUS
10
1.11731
20
1.41371
11
1.11811
21
1.4
0
LINE
8
BLACK
6
CONTINUOUS
10
1.11811
20
1.4
11
1.11731
21
1.38629
0
LINE
8
BLACK
6
CONTINUOUS
10
1.11731
20
1.38629
11
1.11493
21
1.37276
0
LINE
8
BLACK
6
CONTINUOUS
10
1.11493
20
1.37276
11
1.11099
21
1.3596
0
LINE
8
BLACK
6
CONTINUOUS
10
1.11099
20
1.3596
11
1.10555
21
1.34699
0
LINE
8
BLACK
6
CONTINUOUS
10
1.10555
20
1.34699
11
1.09868
21
1.3351
0
LINE
8
BLACK
6
CONTINUOUS
10
1.09868
20
1.3351
11
1.09048
21
1.32408
0
LINE
8
BLACK
6
CONTINUOUS
10
1.09048
20
1.32408
11
1.08105
21
1.31409
0
LINE
8
BLACK
6
CONTINUOUS
10
1.08105
20
1.31409
11
1.07053
21
1.30526
0
LINE
8
BLACK
6
CONTINUOUS
10
1.07053
20
1.30526
11
1.05906
21
1.29771
0
LINE
8
BLACK
6
CONTINUOUS
10
1.05906
20
1.29771
11
1.04678
21
1.29155
0
LINE
8
BLACK
6
CONTINUOUS
10
1.04678
20
1.29155
11
1.03387
21
1.28685
0
LINE
8
BLACK
6
CONTINUOUS
10
1.03387
20
1.28685
11
1.02051
21
1.28368
0
LINE
8
BLACK
6
CONTINUOUS
10
1.02051
20
1.28368
11
1.00687
21
1.28209
0
LINE
8
BLACK
6
CONTINUOUS
10
1.00687
20
1.28209
11
0.993133
21
1.28209
0
LINE
8
BLACK
6
CONTINUOUS
10
0.993133
20
1.28209
11
0.97949
21
1.28368
0
LINE
8
BLACK
6
CONTINUOUS
10
0.97949
20
1.28368
11
0.966126
21
1.28685
0
LINE
8
BLACK
6
CONTINUOUS
10
0.966126
20
1.28685
11
0.953219
21
1.29155
0
LINE
8
BLACK
6
CONTINUOUS
10
0.953219
20
1.29155
11
0.940945
21
1.29771
0
LINE
8
BLACK
6
CONTINUOUS
10
0.940945
20
1.29771
11
0.929469
21
1.30526
0
LINE
8
BLACK
6
CONTINUOUS
10
0.929469
20
1.30526
11
0.918948
21
1.31409
0
LINE
8
BLACK
6
CONTINUOUS
10
0.918948
20
1.31409
11
0.909522
21
1.32408
0
LINE
8
BLACK
6
CONTINUOUS
10
0.909522
20
1.32408
11
0.90132
21
1.3351
0
LINE
8
BLACK
6
CONTINUOUS
10
0.90132
20
1.3351
11
0.894453
21
1.34699
0
LINE
8
BLACK
6
CONTINUOUS
10
0.894453
20
1.34699
11
0.889013
21
1.3596
0
LINE
8
BLACK
6
CONTINUOUS
10
0.889013
20
1.3596
11
0.885073
21
1.37276
0
LINE
8
BLACK
6
CONTINUOUS
10
0.885073
20
1.37276
11
0.882688
21
1.38629
0
LINE
8
BLACK
6
CONTINUOUS
10
0.882688
20
1.38629
11
0.88189
21
1.4
0
LINE
8
BLACK
6
CONTINUOUS
10
0.88189
20
1.4
11
0.882688
21
1.41371
0
LINE
8
BLACK
6
CONTINUOUS
10
0.882688
20
1.41371
11
0.885073
21
1.42724
0
LINE
8
BLACK
6
CONTINUOUS
10
0.885073
20
1.42724
11
0.889013
21
1.4404
0
LINE
8
BLACK
6
CONTINUOUS
10
0.889013
20
1.4404
11
0.894453
21
1.45301
0
LINE
8
BLACK
6
CONTINUOUS
10
0.894453
20
1.45301
11
0.90132
21
1.4649
0
LINE
8
BLACK
6
CONTINUOUS
10
0.90132
20
1.4649
11
0.909522
21
1.47592
0
LINE
8
BLACK
6
CONTINUOUS
10
0.909522
20
1.47592
11
0.918948
21
1.48591
0
LINE
8
BLACK
6
CONTINUOUS
10
0.918948
20
1.48591
11
0.929469
21
1.49474
0
LINE
8
BLACK
6
CONTINUOUS
10
0.929469
20
1.49474
11
0.940945
21
1.50229
0
LINE
8
BLACK
6
CONTINUOUS
10
0.940945
20
1.50229
11
0.953219
21
1.50845
0
LINE
8
BLACK
6
CONTINUOUS
10
0.953219
20
1.50845
11
0.966126
21
1.51315
0
LINE
8
BLACK
6
CONTINUOUS
10
0.966126
20
1.51315
11
0.97949
21
1.51632
0
LINE
8
BLACK
6
CONTINUOUS
10
0.97949
20
1.51632
11
0.993133
21
1.51791
0
LINE
8
BLACK
6
CONTINUOUS
10
0.993133
20
1.51791
11
1.00687
21
1.51791
0
LINE
8
BLACK
6
CONTINUOUS
10
1.00687
20
1.51791
11
1.02051
21
1.51632
0
LINE
8
BLACK
6
CONTINUOUS
10
0.43
20
1.3175
11
0.37
21
1.3175
0
LINE
8
BLACK
6
CONTINUOUS
10
0.37
20
1.3175
11
0.37
21
1.3775
0
LINE
8
BLACK
6
CONTINUOUS
10
0.37
20
1.3775
11
0.43
21
1.3775
0
LINE
8
BLACK
6
CONTINUOUS
10
0.43
20
1.3775
11
0.43
21
1.3175
0
LINE
8
BLACK
6
CONTINUOUS
10
0.53
20
1.3175
11
0.47
21
1.3175
0
LINE
8
BLACK
6
CONTINUOUS
10
0.47
20
1.3175
11
0.47
21
1.3775
0
LINE
8
BLACK
6
CONTINUOUS
10
0.47
20
1.3775
11
0.53
21
1.3775
0
LINE
8
BLACK
6
CONTINUOUS
10
0.53
20
1.3775
11
0.53
21
1.3175
0
LINE
8
BLACK
6
CONTINUOUS
10
0.63
20
1.3175
11
0.57
21
1.3175
0
LINE
8
BLACK
6
CONTINUOUS
10
0.57
20
1.3175
11
0.57
21
1.3775
0
LINE
8
BLACK
6
CONTINUOUS
10
0.57
20
1.3775
11
0.63
21
1.3775
0
LINE
8
BLACK
6
CONTINUOUS
10
0.63
20
1.3775
11
0.63
21
1.3175
0
LINE
8
BLACK
6
CONTINUOUS
10
0.73
20
1.3175
11
0.67
21
1.3175
0
LINE
8
BLACK
6
CONTINUOUS
10
0.67
20
1.3175
11
0.67
21
1.3775
0
LINE
8
BLACK
6
CONTINUOUS
10
0.67
20
1.3775
11
0.73
21
1.3775
0
LINE
8
BLACK
6
CONTINUOUS
10
0.73
20
1.3775
11
0.73
21
1.3175
0
LINE
8
BLACK
6
CONTINUOUS
10
0.83
20
1.3175
11
0.77
21
1.3175
0
LINE
8
BLACK
6
CONTINUOUS
10
0.77
20
1.3175
11
0.77
21
1.3775
0
LINE
8
BLACK
6
CONTINUOUS
10
0.77
20
1.3775
11
0.83
21
1.3775
0
LINE
8
BLACK
6
CONTINUOUS
10
0.83
20
1.3775
11
0.83
21
1.3175
0
LINE
8
BLACK
6
CONTINUOUS
10
0.43
20
1.4175
11
0.37
21
1.4175
0
LINE
8
BLACK
6
CONTINUOUS
10
0.37
20
1.4175
11
0.37
21
1.4775
0
LINE
8
BLACK
6
CONTINUOUS
10
0.37
20
1.4775
11
0.43
21
1.4775
0
LINE
8
BLACK
6
CONTINUOUS
10
0.43
20
1.4775
11
0.43
21
1.4175
0
LINE
8
BLACK
6
CONTINUOUS
10
0.53
20
1.4175
11
0.47
21
1.4175
0
LINE
8
BLACK
6
CONTINUOUS
10
0.47
20
1.4175
11
0.47
21
1.4775
0
LINE
8
BLACK
6
CONTINUOUS
10
0.47
20
1.4775
11
0.53
21
1.4775
0
LINE
8
BLACK
6
CONTINUOUS
10
0.53
20
1.4775
11
0.53
21
1.4175
0
LINE
8
BLACK
6
CONTINUOUS
10
0.63
20
1.4175
11
0.57
21
1.4175
0
LINE
8
BLACK
6
CONTINUOUS
10
0.57
20
1.4175
11
0.57
21
1.4775
0
LINE
8
BLACK
6
CONTINUOUS
10
0.57
20
1.4775
11
0.63
21
1.4775
0
LINE
8
BLACK
6
CONTINUOUS
10
0.63
20
1.4775
11
0.63
21
1.4175
0
LINE
8
BLACK
6
CONTINUOUS
10
0.73
20
1.4175
11
0.67
21
1.4175
0
LINE
8
BLACK
6
CONTINUOUS
10
0.67
20
1.4175
11
0.67
21
1.4775
0
LINE
8
BLACK
6
CONTINUOUS
10
0.67
20
1.4775
11
0.73
21
1.4775
0
LINE
8
BLACK
6
CONTINUOUS
10
0.73
20
1.4775
11
0.73
21
1.4175
0
LINE
8
BLACK
6
CONTINUOUS
10
0.83
20
1.4175
11
0.77
21
1.4175
0
LINE
8
BLACK
6
CONTINUOUS
10
0.77
20
1.4175
11
0.77
21
1.4775
0
LINE
8
BLACK
6
CONTINUOUS
10
0.77
20
1.4775
11
0.83
21
1.4775
0
LINE
8
BLACK
6
CONTINUOUS
10
0.83
20
1.4775
11
0.83
21
1.4175
  0
ENDSEC
  0
EOF
