  0
SECTION
  2
HEADER
  9
$ANGBASE
  50
0.0
  9
$ANGDIR
  70
1
  9
$MEASUREMENT
  70
0
  0
ENDSEC
  0
SECTION
  2
TABLES
  0
TABLE
  2
LTYPE
  70
4
  0
LTYPE
  5
40F
  2
CONTINUOUS
  70
0
  3
Solid line
  72
65
  73
0
  40
0.0
  0
LTYPE
  5
410
  2
DASHDOT
 70
0
  3
Dash Dot ____ _ ____ _
 72
65
 73
4
 40
2.0
 49
1.25
 49
-0.25
 49
0.25
 49
-0.25
  0
LTYPE
  5
411
  2
DASHED
 70
0
  3
Dashed __ __ __ __ __
 72
65
 73
2
 40
0.75
 49
0.5
 49
-0.25
  0
LTYPE
  5
43B
  2
DOTTED
 70
0
  3
Dotted .  .  .  .
 72
65
 73
2
 40
0.2
 49
0.0
 49
-0.2
  0
ENDTAB
  0
TABLE
  2
STYLE
  70
4
  0
STYLE
  2
KICAD
  70
0
  40
0
  41
1
  42
1
  50
0
  71
0
  3
isocp.shx
  0
STYLE
  2
KICADB
  70
0
  40
0
  41
1
  42
1
  50
0
  71
0
  3
isocp.shx
  0
STYLE
  2
KICADI
  70
0
  40
0
  41
1
  42
1
  50
15
  71
0
  3
isocp.shx
  0
STYLE
  2
KICADBI
  70
0
  40
0
  41
1
  42
1
  50
15
  71
0
  3
isocp.shx
  0
ENDTAB
  0
TABLE
  2
LAYER
  70
1
  0
LAYER
  2
BLACK
  70
0
  62
7
  6
CONTINUOUS
  0
ENDTAB
  0
ENDSEC
  0
SECTION
  2
ENTITIES
0
LINE
8
BLACK
6
CONTINUOUS
10
0.0308072
20
1.5677
11
0.0329196
21
1.56953
0
LINE
8
BLACK
6
CONTINUOUS
10
0.0329196
20
1.56953
11
0.0349803
21
1.56998
0
LINE
8
BLACK
6
CONTINUOUS
10
0.0349803
20
1.56998
11
1.16502
21
1.56998
0
LINE
8
BLACK
6
CONTINUOUS
10
1.16502
20
1.56998
11
1.1677
21
1.56919
0
LINE
8
BLACK
6
CONTINUOUS
10
1.1677
20
1.56919
11
1.16953
21
1.56708
0
LINE
8
BLACK
6
CONTINUOUS
10
1.16953
20
1.56708
11
1.16998
21
1.56502
0
LINE
8
BLACK
6
CONTINUOUS
10
1.16998
20
1.56502
11
1.16998
21
0.0349803
0
LINE
8
BLACK
6
CONTINUOUS
10
1.16998
20
0.0349803
11
1.16919
21
0.0322984
0
LINE
8
BLACK
6
CONTINUOUS
10
1.16919
20
0.0322984
11
1.16708
21
0.030468
0
LINE
8
BLACK
6
CONTINUOUS
10
1.16708
20
0.030468
11
1.16502
21
0.0300197
0
LINE
8
BLACK
6
CONTINUOUS
10
1.16502
20
0.0300197
11
0.0349803
21
0.0300197
0
LINE
8
BLACK
6
CONTINUOUS
10
0.0349803
20
0.0300197
11
0.0322984
21
0.0308072
0
LINE
8
BLACK
6
CONTINUOUS
10
0.0322984
20
0.0308072
11
0.030468
21
0.0329196
0
LINE
8
BLACK
6
CONTINUOUS
10
0.030468
20
0.0329196
11
0.0300197
21
0.0349803
0
LINE
8
BLACK
6
CONTINUOUS
10
0.0300197
20
0.0349803
11
0.0300197
21
1.56502
0
LINE
8
BLACK
6
CONTINUOUS
10
0.0300197
20
1.56502
11
0.0308072
21
1.5677
0
LINE
8
BLACK
6
CONTINUOUS
10
0.102259
20
0.470287
11
0.105698
21
0.465698
0
LINE
8
BLACK
6
CONTINUOUS
10
0.105698
20
0.465698
11
0.110287
21
0.462259
0
LINE
8
BLACK
6
CONTINUOUS
10
0.110287
20
0.462259
11
0.115657
21
0.460246
0
LINE
8
BLACK
6
CONTINUOUS
10
0.115657
20
0.460246
11
0.118105
21
0.45998
0
LINE
8
BLACK
6
CONTINUOUS
10
0.118105
20
0.45998
11
0.181895
21
0.45998
0
LINE
8
BLACK
6
CONTINUOUS
10
0.181895
20
0.45998
11
0.184343
21
0.460246
0
LINE
8
BLACK
6
CONTINUOUS
10
0.184343
20
0.460246
11
0.189713
21
0.462259
0
LINE
8
BLACK
6
CONTINUOUS
10
0.189713
20
0.462259
11
0.194302
21
0.465698
0
LINE
8
BLACK
6
CONTINUOUS
10
0.194302
20
0.465698
11
0.19603
21
0.468005
0
LINE
8
BLACK
6
CONTINUOUS
10
0.19603
20
0.468005
11
0.198269
21
0.469679
0
LINE
8
BLACK
6
CONTINUOUS
10
0.198269
20
0.469679
11
0.201057
21
0.469877
0
LINE
8
BLACK
6
CONTINUOUS
10
0.201057
20
0.469877
11
0.20351
21
0.468536
0
LINE
8
BLACK
6
CONTINUOUS
10
0.20351
20
0.468536
11
0.203969
21
0.468005
0
LINE
8
BLACK
6
CONTINUOUS
10
0.203969
20
0.468005
11
0.205698
21
0.465698
0
LINE
8
BLACK
6
CONTINUOUS
10
0.205698
20
0.465698
11
0.210287
21
0.462259
0
LINE
8
BLACK
6
CONTINUOUS
10
0.210287
20
0.462259
11
0.215657
21
0.460246
0
LINE
8
BLACK
6
CONTINUOUS
10
0.215657
20
0.460246
11
0.218105
21
0.45998
0
LINE
8
BLACK
6
CONTINUOUS
10
0.218105
20
0.45998
11
0.281895
21
0.45998
0
LINE
8
BLACK
6
CONTINUOUS
10
0.281895
20
0.45998
11
0.284343
21
0.460246
0
LINE
8
BLACK
6
CONTINUOUS
10
0.284343
20
0.460246
11
0.289713
21
0.462259
0
LINE
8
BLACK
6
CONTINUOUS
10
0.289713
20
0.462259
11
0.294302
21
0.465698
0
LINE
8
BLACK
6
CONTINUOUS
10
0.294302
20
0.465698
11
0.297741
21
0.470287
0
LINE
8
BLACK
6
CONTINUOUS
10
0.297741
20
0.470287
11
0.299754
21
0.475657
0
LINE
8
BLACK
6
CONTINUOUS
10
0.299754
20
0.475657
11
0.30002
21
0.478105
0
LINE
8
BLACK
6
CONTINUOUS
10
0.30002
20
0.478105
11
0.30002
21
0.541895
0
LINE
8
BLACK
6
CONTINUOUS
10
0.30002
20
0.541895
11
0.299754
21
0.544343
0
LINE
8
BLACK
6
CONTINUOUS
10
0.299754
20
0.544343
11
0.297741
21
0.549713
0
LINE
8
BLACK
6
CONTINUOUS
10
0.297741
20
0.549713
11
0.294302
21
0.554302
0
LINE
8
BLACK
6
CONTINUOUS
10
0.294302
20
0.554302
11
0.289713
21
0.557741
0
LINE
8
BLACK
6
CONTINUOUS
10
0.289713
20
0.557741
11
0.284343
21
0.559754
0
LINE
8
BLACK
6
CONTINUOUS
10
0.284343
20
0.559754
11
0.281895
21
0.56002
0
LINE
8
BLACK
6
CONTINUOUS
10
0.281895
20
0.56002
11
0.218105
21
0.56002
0
LINE
8
BLACK
6
CONTINUOUS
10
0.218105
20
0.56002
11
0.215657
21
0.559754
0
LINE
8
BLACK
6
CONTINUOUS
10
0.215657
20
0.559754
11
0.210287
21
0.557741
0
LINE
8
BLACK
6
CONTINUOUS
10
0.210287
20
0.557741
11
0.205698
21
0.554302
0
LINE
8
BLACK
6
CONTINUOUS
10
0.205698
20
0.554302
11
0.205487
21
0.554019
0
LINE
8
BLACK
6
CONTINUOUS
10
0.205487
20
0.554019
11
0.20397
21
0.551995
0
LINE
8
BLACK
6
CONTINUOUS
10
0.20397
20
0.551995
11
0.201731
21
0.550321
0
LINE
8
BLACK
6
CONTINUOUS
10
0.201731
20
0.550321
11
0.198943
21
0.550123
0
LINE
8
BLACK
6
CONTINUOUS
10
0.198943
20
0.550123
11
0.19649
21
0.551464
0
LINE
8
BLACK
6
CONTINUOUS
10
0.19649
20
0.551464
11
0.19603
21
0.551995
0
LINE
8
BLACK
6
CONTINUOUS
10
0.19603
20
0.551995
11
0.194513
21
0.554019
0
LINE
8
BLACK
6
CONTINUOUS
10
0.194513
20
0.554019
11
0.194302
21
0.554302
0
LINE
8
BLACK
6
CONTINUOUS
10
0.194302
20
0.554302
11
0.189713
21
0.557741
0
LINE
8
BLACK
6
CONTINUOUS
10
0.189713
20
0.557741
11
0.184343
21
0.559754
0
LINE
8
BLACK
6
CONTINUOUS
10
0.184343
20
0.559754
11
0.181895
21
0.56002
0
LINE
8
BLACK
6
CONTINUOUS
10
0.181895
20
0.56002
11
0.118105
21
0.56002
0
LINE
8
BLACK
6
CONTINUOUS
10
0.118105
20
0.56002
11
0.115657
21
0.559754
0
LINE
8
BLACK
6
CONTINUOUS
10
0.115657
20
0.559754
11
0.110287
21
0.557741
0
LINE
8
BLACK
6
CONTINUOUS
10
0.110287
20
0.557741
11
0.105698
21
0.554302
0
LINE
8
BLACK
6
CONTINUOUS
10
0.105698
20
0.554302
11
0.102259
21
0.549713
0
LINE
8
BLACK
6
CONTINUOUS
10
0.102259
20
0.549713
11
0.100246
21
0.544343
0
LINE
8
BLACK
6
CONTINUOUS
10
0.100246
20
0.544343
11
0.0999803
21
0.541895
0
LINE
8
BLACK
6
CONTINUOUS
10
0.0999803
20
0.541895
11
0.0999803
21
0.478105
0
LINE
8
BLACK
6
CONTINUOUS
10
0.0999803
20
0.478105
11
0.100246
21
0.475657
0
LINE
8
BLACK
6
CONTINUOUS
10
0.100246
20
0.475657
11
0.102259
21
0.470287
0
LINE
8
BLACK
6
CONTINUOUS
10
0.627259
20
0.128437
11
0.630698
21
0.123848
0
LINE
8
BLACK
6
CONTINUOUS
10
0.630698
20
0.123848
11
0.635287
21
0.120409
0
LINE
8
BLACK
6
CONTINUOUS
10
0.635287
20
0.120409
11
0.640657
21
0.118396
0
LINE
8
BLACK
6
CONTINUOUS
10
0.640657
20
0.118396
11
0.643105
21
0.11813
0
LINE
8
BLACK
6
CONTINUOUS
10
0.643105
20
0.11813
11
0.796895
21
0.11813
0
LINE
8
BLACK
6
CONTINUOUS
10
0.796895
20
0.11813
11
0.799343
21
0.118396
0
LINE
8
BLACK
6
CONTINUOUS
10
0.799343
20
0.118396
11
0.804713
21
0.120409
0
LINE
8
BLACK
6
CONTINUOUS
10
0.804713
20
0.120409
11
0.809302
21
0.123848
0
LINE
8
BLACK
6
CONTINUOUS
10
0.809302
20
0.123848
11
0.812741
21
0.128437
0
LINE
8
BLACK
6
CONTINUOUS
10
0.812741
20
0.128437
11
0.814754
21
0.133806
0
LINE
8
BLACK
6
CONTINUOUS
10
0.814754
20
0.133806
11
0.81502
21
0.136255
0
LINE
8
BLACK
6
CONTINUOUS
10
0.81502
20
0.136255
11
0.81502
21
0.290045
0
LINE
8
BLACK
6
CONTINUOUS
10
0.81502
20
0.290045
11
0.814754
21
0.292493
0
LINE
8
BLACK
6
CONTINUOUS
10
0.814754
20
0.292493
11
0.812741
21
0.297862
0
LINE
8
BLACK
6
CONTINUOUS
10
0.812741
20
0.297862
11
0.809302
21
0.302451
0
LINE
8
BLACK
6
CONTINUOUS
10
0.809302
20
0.302451
11
0.804713
21
0.30589
0
LINE
8
BLACK
6
CONTINUOUS
10
0.804713
20
0.30589
11
0.804382
21
0.306014
0
LINE
8
BLACK
6
CONTINUOUS
10
0.804382
20
0.306014
11
0.804382
21
0.306014
0
LINE
8
BLACK
6
CONTINUOUS
10
0.804382
20
0.306014
11
0.80194
21
0.30693
0
LINE
8
BLACK
6
CONTINUOUS
10
0.80194
20
0.30693
11
0.799705
21
0.308609
0
LINE
8
BLACK
6
CONTINUOUS
10
0.799705
20
0.308609
11
0.798733
21
0.311229
0
LINE
8
BLACK
6
CONTINUOUS
10
0.798733
20
0.311229
11
0.799331
21
0.313959
0
LINE
8
BLACK
6
CONTINUOUS
10
0.799331
20
0.313959
11
0.801311
21
0.315933
0
LINE
8
BLACK
6
CONTINUOUS
10
0.801311
20
0.315933
11
0.80194
21
0.31622
0
LINE
8
BLACK
6
CONTINUOUS
10
0.80194
20
0.31622
11
0.804382
21
0.317135
0
LINE
8
BLACK
6
CONTINUOUS
10
0.804382
20
0.317135
11
0.804382
21
0.317135
0
LINE
8
BLACK
6
CONTINUOUS
10
0.804382
20
0.317135
11
0.804713
21
0.317259
0
LINE
8
BLACK
6
CONTINUOUS
10
0.804713
20
0.317259
11
0.809302
21
0.320698
0
LINE
8
BLACK
6
CONTINUOUS
10
0.809302
20
0.320698
11
0.812741
21
0.325287
0
LINE
8
BLACK
6
CONTINUOUS
10
0.812741
20
0.325287
11
0.814754
21
0.330657
0
LINE
8
BLACK
6
CONTINUOUS
10
0.814754
20
0.330657
11
0.81502
21
0.333105
0
LINE
8
BLACK
6
CONTINUOUS
10
0.81502
20
0.333105
11
0.81502
21
0.486895
0
LINE
8
BLACK
6
CONTINUOUS
10
0.81502
20
0.486895
11
0.814754
21
0.489343
0
LINE
8
BLACK
6
CONTINUOUS
10
0.814754
20
0.489343
11
0.812741
21
0.494713
0
LINE
8
BLACK
6
CONTINUOUS
10
0.812741
20
0.494713
11
0.809302
21
0.499302
0
LINE
8
BLACK
6
CONTINUOUS
10
0.809302
20
0.499302
11
0.804713
21
0.502741
0
LINE
8
BLACK
6
CONTINUOUS
10
0.804713
20
0.502741
11
0.799343
21
0.504754
0
LINE
8
BLACK
6
CONTINUOUS
10
0.799343
20
0.504754
11
0.796895
21
0.50502
0
LINE
8
BLACK
6
CONTINUOUS
10
0.796895
20
0.50502
11
0.643105
21
0.50502
0
LINE
8
BLACK
6
CONTINUOUS
10
0.643105
20
0.50502
11
0.640657
21
0.504754
0
LINE
8
BLACK
6
CONTINUOUS
10
0.640657
20
0.504754
11
0.635287
21
0.502741
0
LINE
8
BLACK
6
CONTINUOUS
10
0.635287
20
0.502741
11
0.630698
21
0.499302
0
LINE
8
BLACK
6
CONTINUOUS
10
0.630698
20
0.499302
11
0.627259
21
0.494713
0
LINE
8
BLACK
6
CONTINUOUS
10
0.627259
20
0.494713
11
0.625246
21
0.489343
0
LINE
8
BLACK
6
CONTINUOUS
10
0.625246
20
0.489343
11
0.62498
21
0.486895
0
LINE
8
BLACK
6
CONTINUOUS
10
0.62498
20
0.486895
11
0.62498
21
0.333105
0
LINE
8
BLACK
6
CONTINUOUS
10
0.62498
20
0.333105
11
0.625246
21
0.330657
0
LINE
8
BLACK
6
CONTINUOUS
10
0.625246
20
0.330657
11
0.627259
21
0.325287
0
LINE
8
BLACK
6
CONTINUOUS
10
0.627259
20
0.325287
11
0.630698
21
0.320698
0
LINE
8
BLACK
6
CONTINUOUS
10
0.630698
20
0.320698
11
0.635287
21
0.317259
0
LINE
8
BLACK
6
CONTINUOUS
10
0.635287
20
0.317259
11
0.635618
21
0.317135
0
LINE
8
BLACK
6
CONTINUOUS
10
0.635618
20
0.317135
11
0.635618
21
0.317135
0
LINE
8
BLACK
6
CONTINUOUS
10
0.635618
20
0.317135
11
0.63806
21
0.31622
0
LINE
8
BLACK
6
CONTINUOUS
10
0.63806
20
0.31622
11
0.640295
21
0.314541
0
LINE
8
BLACK
6
CONTINUOUS
10
0.640295
20
0.314541
11
0.641267
21
0.31192
0
LINE
8
BLACK
6
CONTINUOUS
10
0.641267
20
0.31192
11
0.640669
21
0.30919
0
LINE
8
BLACK
6
CONTINUOUS
10
0.640669
20
0.30919
11
0.638689
21
0.307217
0
LINE
8
BLACK
6
CONTINUOUS
10
0.638689
20
0.307217
11
0.63806
21
0.30693
0
LINE
8
BLACK
6
CONTINUOUS
10
0.63806
20
0.30693
11
0.635618
21
0.306014
0
LINE
8
BLACK
6
CONTINUOUS
10
0.635618
20
0.306014
11
0.635618
21
0.306014
0
LINE
8
BLACK
6
CONTINUOUS
10
0.635618
20
0.306014
11
0.635287
21
0.30589
0
LINE
8
BLACK
6
CONTINUOUS
10
0.635287
20
0.30589
11
0.630698
21
0.302451
0
LINE
8
BLACK
6
CONTINUOUS
10
0.630698
20
0.302451
11
0.627259
21
0.297862
0
LINE
8
BLACK
6
CONTINUOUS
10
0.627259
20
0.297862
11
0.625246
21
0.292493
0
LINE
8
BLACK
6
CONTINUOUS
10
0.625246
20
0.292493
11
0.62498
21
0.290045
0
LINE
8
BLACK
6
CONTINUOUS
10
0.62498
20
0.290045
11
0.62498
21
0.136255
0
LINE
8
BLACK
6
CONTINUOUS
10
0.62498
20
0.136255
11
0.625246
21
0.133806
0
LINE
8
BLACK
6
CONTINUOUS
10
0.625246
20
0.133806
11
0.627259
21
0.128437
0
LINE
8
BLACK
6
CONTINUOUS
10
0.427259
20
0.128437
11
0.430698
21
0.123848
0
LINE
8
BLACK
6
CONTINUOUS
10
0.430698
20
0.123848
11
0.435287
21
0.120409
0
LINE
8
BLACK
6
CONTINUOUS
10
0.435287
20
0.120409
11
0.440657
21
0.118396
0
LINE
8
BLACK
6
CONTINUOUS
10
0.440657
20
0.118396
11
0.443105
21
0.11813
0
LINE
8
BLACK
6
CONTINUOUS
10
0.443105
20
0.11813
11
0.596895
21
0.11813
0
LINE
8
BLACK
6
CONTINUOUS
10
0.596895
20
0.11813
11
0.599343
21
0.118396
0
LINE
8
BLACK
6
CONTINUOUS
10
0.599343
20
0.118396
11
0.604713
21
0.120409
0
LINE
8
BLACK
6
CONTINUOUS
10
0.604713
20
0.120409
11
0.609302
21
0.123848
0
LINE
8
BLACK
6
CONTINUOUS
10
0.609302
20
0.123848
11
0.612741
21
0.128437
0
LINE
8
BLACK
6
CONTINUOUS
10
0.612741
20
0.128437
11
0.614754
21
0.133806
0
LINE
8
BLACK
6
CONTINUOUS
10
0.614754
20
0.133806
11
0.61502
21
0.136255
0
LINE
8
BLACK
6
CONTINUOUS
10
0.61502
20
0.136255
11
0.61502
21
0.290045
0
LINE
8
BLACK
6
CONTINUOUS
10
0.61502
20
0.290045
11
0.614754
21
0.292493
0
LINE
8
BLACK
6
CONTINUOUS
10
0.614754
20
0.292493
11
0.612741
21
0.297862
0
LINE
8
BLACK
6
CONTINUOUS
10
0.612741
20
0.297862
11
0.609302
21
0.302451
0
LINE
8
BLACK
6
CONTINUOUS
10
0.609302
20
0.302451
11
0.604713
21
0.30589
0
LINE
8
BLACK
6
CONTINUOUS
10
0.604713
20
0.30589
11
0.604382
21
0.306014
0
LINE
8
BLACK
6
CONTINUOUS
10
0.604382
20
0.306014
11
0.604382
21
0.306014
0
LINE
8
BLACK
6
CONTINUOUS
10
0.604382
20
0.306014
11
0.60194
21
0.30693
0
LINE
8
BLACK
6
CONTINUOUS
10
0.60194
20
0.30693
11
0.599705
21
0.308609
0
LINE
8
BLACK
6
CONTINUOUS
10
0.599705
20
0.308609
11
0.598733
21
0.311229
0
LINE
8
BLACK
6
CONTINUOUS
10
0.598733
20
0.311229
11
0.599331
21
0.313959
0
LINE
8
BLACK
6
CONTINUOUS
10
0.599331
20
0.313959
11
0.601311
21
0.315933
0
LINE
8
BLACK
6
CONTINUOUS
10
0.601311
20
0.315933
11
0.60194
21
0.31622
0
LINE
8
BLACK
6
CONTINUOUS
10
0.60194
20
0.31622
11
0.604382
21
0.317135
0
LINE
8
BLACK
6
CONTINUOUS
10
0.604382
20
0.317135
11
0.604382
21
0.317135
0
LINE
8
BLACK
6
CONTINUOUS
10
0.604382
20
0.317135
11
0.604713
21
0.317259
0
LINE
8
BLACK
6
CONTINUOUS
10
0.604713
20
0.317259
11
0.609302
21
0.320698
0
LINE
8
BLACK
6
CONTINUOUS
10
0.609302
20
0.320698
11
0.612741
21
0.325287
0
LINE
8
BLACK
6
CONTINUOUS
10
0.612741
20
0.325287
11
0.614754
21
0.330657
0
LINE
8
BLACK
6
CONTINUOUS
10
0.614754
20
0.330657
11
0.61502
21
0.333105
0
LINE
8
BLACK
6
CONTINUOUS
10
0.61502
20
0.333105
11
0.61502
21
0.486895
0
LINE
8
BLACK
6
CONTINUOUS
10
0.61502
20
0.486895
11
0.614754
21
0.489343
0
LINE
8
BLACK
6
CONTINUOUS
10
0.614754
20
0.489343
11
0.612741
21
0.494713
0
LINE
8
BLACK
6
CONTINUOUS
10
0.612741
20
0.494713
11
0.609302
21
0.499302
0
LINE
8
BLACK
6
CONTINUOUS
10
0.609302
20
0.499302
11
0.604713
21
0.502741
0
LINE
8
BLACK
6
CONTINUOUS
10
0.604713
20
0.502741
11
0.599343
21
0.504754
0
LINE
8
BLACK
6
CONTINUOUS
10
0.599343
20
0.504754
11
0.596895
21
0.50502
0
LINE
8
BLACK
6
CONTINUOUS
10
0.596895
20
0.50502
11
0.443105
21
0.50502
0
LINE
8
BLACK
6
CONTINUOUS
10
0.443105
20
0.50502
11
0.440657
21
0.504754
0
LINE
8
BLACK
6
CONTINUOUS
10
0.440657
20
0.504754
11
0.435287
21
0.502741
0
LINE
8
BLACK
6
CONTINUOUS
10
0.435287
20
0.502741
11
0.430698
21
0.499302
0
LINE
8
BLACK
6
CONTINUOUS
10
0.430698
20
0.499302
11
0.427259
21
0.494713
0
LINE
8
BLACK
6
CONTINUOUS
10
0.427259
20
0.494713
11
0.425246
21
0.489343
0
LINE
8
BLACK
6
CONTINUOUS
10
0.425246
20
0.489343
11
0.42498
21
0.486895
0
LINE
8
BLACK
6
CONTINUOUS
10
0.42498
20
0.486895
11
0.42498
21
0.333105
0
LINE
8
BLACK
6
CONTINUOUS
10
0.42498
20
0.333105
11
0.425246
21
0.330657
0
LINE
8
BLACK
6
CONTINUOUS
10
0.425246
20
0.330657
11
0.427259
21
0.325287
0
LINE
8
BLACK
6
CONTINUOUS
10
0.427259
20
0.325287
11
0.430698
21
0.320698
0
LINE
8
BLACK
6
CONTINUOUS
10
0.430698
20
0.320698
11
0.435287
21
0.317259
0
LINE
8
BLACK
6
CONTINUOUS
10
0.435287
20
0.317259
11
0.435618
21
0.317135
0
LINE
8
BLACK
6
CONTINUOUS
10
0.435618
20
0.317135
11
0.435618
21
0.317135
0
LINE
8
BLACK
6
CONTINUOUS
10
0.435618
20
0.317135
11
0.43806
21
0.31622
0
LINE
8
BLACK
6
CONTINUOUS
10
0.43806
20
0.31622
11
0.440295
21
0.314541
0
LINE
8
BLACK
6
CONTINUOUS
10
0.440295
20
0.314541
11
0.441267
21
0.31192
0
LINE
8
BLACK
6
CONTINUOUS
10
0.441267
20
0.31192
11
0.440669
21
0.30919
0
LINE
8
BLACK
6
CONTINUOUS
10
0.440669
20
0.30919
11
0.438689
21
0.307217
0
LINE
8
BLACK
6
CONTINUOUS
10
0.438689
20
0.307217
11
0.43806
21
0.30693
0
LINE
8
BLACK
6
CONTINUOUS
10
0.43806
20
0.30693
11
0.435618
21
0.306014
0
LINE
8
BLACK
6
CONTINUOUS
10
0.435618
20
0.306014
11
0.435618
21
0.306014
0
LINE
8
BLACK
6
CONTINUOUS
10
0.435618
20
0.306014
11
0.435287
21
0.30589
0
LINE
8
BLACK
6
CONTINUOUS
10
0.435287
20
0.30589
11
0.430698
21
0.302451
0
LINE
8
BLACK
6
CONTINUOUS
10
0.430698
20
0.302451
11
0.427259
21
0.297862
0
LINE
8
BLACK
6
CONTINUOUS
10
0.427259
20
0.297862
11
0.425246
21
0.292493
0
LINE
8
BLACK
6
CONTINUOUS
10
0.425246
20
0.292493
11
0.42498
21
0.290045
0
LINE
8
BLACK
6
CONTINUOUS
10
0.42498
20
0.290045
11
0.42498
21
0.136255
0
LINE
8
BLACK
6
CONTINUOUS
10
0.42498
20
0.136255
11
0.425246
21
0.133806
0
LINE
8
BLACK
6
CONTINUOUS
10
0.425246
20
0.133806
11
0.427259
21
0.128437
0
LINE
8
BLACK
6
CONTINUOUS
10
0.104759
20
0.935287
11
0.108198
21
0.930698
0
LINE
8
BLACK
6
CONTINUOUS
10
0.108198
20
0.930698
11
0.112787
21
0.927259
0
LINE
8
BLACK
6
CONTINUOUS
10
0.112787
20
0.927259
11
0.118157
21
0.925246
0
LINE
8
BLACK
6
CONTINUOUS
10
0.118157
20
0.925246
11
0.120605
21
0.92498
0
LINE
8
BLACK
6
CONTINUOUS
10
0.120605
20
0.92498
11
0.184395
21
0.92498
0
LINE
8
BLACK
6
CONTINUOUS
10
0.184395
20
0.92498
11
0.186843
21
0.925246
0
LINE
8
BLACK
6
CONTINUOUS
10
0.186843
20
0.925246
11
0.192213
21
0.927259
0
LINE
8
BLACK
6
CONTINUOUS
10
0.192213
20
0.927259
11
0.196802
21
0.930698
0
LINE
8
BLACK
6
CONTINUOUS
10
0.196802
20
0.930698
11
0.200241
21
0.935287
0
LINE
8
BLACK
6
CONTINUOUS
10
0.200241
20
0.935287
11
0.202254
21
0.940657
0
LINE
8
BLACK
6
CONTINUOUS
10
0.202254
20
0.940657
11
0.20252
21
0.943105
0
LINE
8
BLACK
6
CONTINUOUS
10
0.20252
20
0.943105
11
0.20252
21
1.0069
0
LINE
8
BLACK
6
CONTINUOUS
10
0.20252
20
1.0069
11
0.202254
21
1.00934
0
LINE
8
BLACK
6
CONTINUOUS
10
0.202254
20
1.00934
11
0.200241
21
1.01471
0
LINE
8
BLACK
6
CONTINUOUS
10
0.200241
20
1.01471
11
0.196802
21
1.0193
0
LINE
8
BLACK
6
CONTINUOUS
10
0.196802
20
1.0193
11
0.194495
21
1.02103
0
LINE
8
BLACK
6
CONTINUOUS
10
0.194495
20
1.02103
11
0.192821
21
1.02327
0
LINE
8
BLACK
6
CONTINUOUS
10
0.192821
20
1.02327
11
0.192623
21
1.02606
0
LINE
8
BLACK
6
CONTINUOUS
10
0.192623
20
1.02606
11
0.193964
21
1.02851
0
LINE
8
BLACK
6
CONTINUOUS
10
0.193964
20
1.02851
11
0.194495
21
1.02897
0
LINE
8
BLACK
6
CONTINUOUS
10
0.194495
20
1.02897
11
0.196802
21
1.0307
0
LINE
8
BLACK
6
CONTINUOUS
10
0.196802
20
1.0307
11
0.196859
21
1.03062
0
LINE
8
BLACK
6
CONTINUOUS
10
0.196859
20
1.03062
11
0.198862
21
1.03172
0
LINE
8
BLACK
6
CONTINUOUS
10
0.198862
20
1.03172
11
0.20165
21
1.03152
0
LINE
8
BLACK
6
CONTINUOUS
10
0.20165
20
1.03152
11
0.203424
21
1.03038
0
LINE
8
BLACK
6
CONTINUOUS
10
0.203424
20
1.03038
11
0.206541
21
1.02726
0
LINE
8
BLACK
6
CONTINUOUS
10
0.206541
20
1.02726
11
0.208467
21
1.02533
0
LINE
8
BLACK
6
CONTINUOUS
10
0.208467
20
1.02533
11
0.208698
21
1.02509
0
LINE
8
BLACK
6
CONTINUOUS
10
0.208698
20
1.02509
11
0.210194
21
1.02337
0
LINE
8
BLACK
6
CONTINUOUS
10
0.210194
20
1.02337
11
0.212253
21
1.02192
0
LINE
8
BLACK
6
CONTINUOUS
10
0.212253
20
1.02192
11
0.21246
21
1.02177
0
LINE
8
BLACK
6
CONTINUOUS
10
0.21246
20
1.02177
11
0.21444
21
1.02022
0
LINE
8
BLACK
6
CONTINUOUS
10
0.21444
20
1.02022
11
0.214713
21
1.02009
0
LINE
8
BLACK
6
CONTINUOUS
10
0.214713
20
1.02009
11
0.214803
21
1.02004
0
LINE
8
BLACK
6
CONTINUOUS
10
0.214803
20
1.02004
11
0.215381
21
1.01971
0
LINE
8
BLACK
6
CONTINUOUS
10
0.215381
20
1.01971
11
0.215473
21
1.01966
0
LINE
8
BLACK
6
CONTINUOUS
10
0.215473
20
1.01966
11
0.215718
21
1.01949
0
LINE
8
BLACK
6
CONTINUOUS
10
0.215718
20
1.01949
11
0.215997
21
1.01938
0
LINE
8
BLACK
6
CONTINUOUS
10
0.215997
20
1.01938
11
0.215997
21
1.01938
0
LINE
8
BLACK
6
CONTINUOUS
10
0.215997
20
1.01938
11
0.218062
21
1.01857
0
LINE
8
BLACK
6
CONTINUOUS
10
0.218062
20
1.01857
11
0.218301
21
1.01847
0
LINE
8
BLACK
6
CONTINUOUS
10
0.218301
20
1.01847
11
0.220593
21
1.01744
0
LINE
8
BLACK
6
CONTINUOUS
10
0.220593
20
1.01744
11
0.220888
21
1.01738
0
LINE
8
BLACK
6
CONTINUOUS
10
0.220888
20
1.01738
11
0.220989
21
1.01735
0
LINE
8
BLACK
6
CONTINUOUS
10
0.220989
20
1.01735
11
0.221627
21
1.01717
0
LINE
8
BLACK
6
CONTINUOUS
10
0.221627
20
1.01717
11
0.221729
21
1.01714
0
LINE
8
BLACK
6
CONTINUOUS
10
0.221729
20
1.01714
11
0.222008
21
1.01704
0
LINE
8
BLACK
6
CONTINUOUS
10
0.222008
20
1.01704
11
0.222305
21
1.017
0
LINE
8
BLACK
6
CONTINUOUS
10
0.222305
20
1.017
11
0.224502
21
1.01671
0
LINE
8
BLACK
6
CONTINUOUS
10
0.224502
20
1.01671
11
0.224759
21
1.01667
0
LINE
8
BLACK
6
CONTINUOUS
10
0.224759
20
1.01667
11
0.226271
21
1.01639
0
LINE
8
BLACK
6
CONTINUOUS
10
0.226271
20
1.01639
11
0.227232
21
1.01621
0
LINE
8
BLACK
6
CONTINUOUS
10
0.227232
20
1.01621
11
0.22753
21
1.01623
0
LINE
8
BLACK
6
CONTINUOUS
10
0.22753
20
1.01623
11
0.22753
21
1.01623
0
LINE
8
BLACK
6
CONTINUOUS
10
0.22753
20
1.01623
11
0.22968
21
1.01635
0
LINE
8
BLACK
6
CONTINUOUS
10
0.22968
20
1.01635
11
0.229966
21
1.01636
0
LINE
8
BLACK
6
CONTINUOUS
10
0.229966
20
1.01636
11
0.691887
21
1.01636
0
LINE
8
BLACK
6
CONTINUOUS
10
0.691887
20
1.01636
11
0.694569
21
1.01557
0
LINE
8
BLACK
6
CONTINUOUS
10
0.694569
20
1.01557
11
0.695395
21
1.01491
0
LINE
8
BLACK
6
CONTINUOUS
10
0.695395
20
1.01491
11
0.764462
21
0.945838
0
LINE
8
BLACK
6
CONTINUOUS
10
0.764462
20
0.945838
11
0.765802
21
0.943385
0
LINE
8
BLACK
6
CONTINUOUS
10
0.765802
20
0.943385
11
0.765898
21
0.942746
0
LINE
8
BLACK
6
CONTINUOUS
10
0.765898
20
0.942746
11
0.765988
21
0.941667
0
LINE
8
BLACK
6
CONTINUOUS
10
0.765988
20
0.941667
11
0.765428
21
0.938929
0
LINE
8
BLACK
6
CONTINUOUS
10
0.765428
20
0.938929
11
0.763476
21
0.936928
0
LINE
8
BLACK
6
CONTINUOUS
10
0.763476
20
0.936928
11
0.760752
21
0.9363
0
LINE
8
BLACK
6
CONTINUOUS
10
0.760752
20
0.9363
11
0.759219
21
0.93664
0
LINE
8
BLACK
6
CONTINUOUS
10
0.759219
20
0.93664
11
0.759204
21
0.936646
0
LINE
8
BLACK
6
CONTINUOUS
10
0.759204
20
0.936646
11
0.758931
21
0.936796
0
LINE
8
BLACK
6
CONTINUOUS
10
0.758931
20
0.936796
11
0.758113
21
0.937006
0
LINE
8
BLACK
6
CONTINUOUS
10
0.758113
20
0.937006
11
0.757377
21
0.937258
0
LINE
8
BLACK
6
CONTINUOUS
10
0.757377
20
0.937258
11
0.756601
21
0.937594
0
LINE
8
BLACK
6
CONTINUOUS
10
0.756601
20
0.937594
11
0.754805
21
0.937878
0
LINE
8
BLACK
6
CONTINUOUS
10
0.754805
20
0.937878
11
0.754348
21
0.937973
0
LINE
8
BLACK
6
CONTINUOUS
10
0.754348
20
0.937973
11
0.753245
21
0.938256
0
LINE
8
BLACK
6
CONTINUOUS
10
0.753245
20
0.938256
11
0.752586
21
0.938425
0
LINE
8
BLACK
6
CONTINUOUS
10
0.752586
20
0.938425
11
0.751742
21
0.938425
0
LINE
8
BLACK
6
CONTINUOUS
10
0.751742
20
0.938425
11
0.750966
21
0.938486
0
LINE
8
BLACK
6
CONTINUOUS
10
0.750966
20
0.938486
11
0.75044
21
0.93857
0
LINE
8
BLACK
6
CONTINUOUS
10
0.75044
20
0.93857
11
0.750132
21
0.938618
0
LINE
8
BLACK
6
CONTINUOUS
10
0.750132
20
0.938618
11
0.748321
21
0.938447
0
LINE
8
BLACK
6
CONTINUOUS
10
0.748321
20
0.938447
11
0.747854
21
0.938425
0
LINE
8
BLACK
6
CONTINUOUS
10
0.747854
20
0.938425
11
0.649312
21
0.938425
0
LINE
8
BLACK
6
CONTINUOUS
10
0.649312
20
0.938425
11
0.64663
21
0.939213
0
LINE
8
BLACK
6
CONTINUOUS
10
0.64663
20
0.939213
11
0.64615
21
0.939564
0
LINE
8
BLACK
6
CONTINUOUS
10
0.64615
20
0.939564
11
0.644454
21
0.940966
0
LINE
8
BLACK
6
CONTINUOUS
10
0.644454
20
0.940966
11
0.641082
21
0.943756
0
LINE
8
BLACK
6
CONTINUOUS
10
0.641082
20
0.943756
11
0.63461
21
0.947255
0
LINE
8
BLACK
6
CONTINUOUS
10
0.63461
20
0.947255
11
0.631095
21
0.948343
0
LINE
8
BLACK
6
CONTINUOUS
10
0.631095
20
0.948343
11
0.627813
21
0.949359
0
LINE
8
BLACK
6
CONTINUOUS
10
0.627813
20
0.949359
11
0.627813
21
0.949359
0
LINE
8
BLACK
6
CONTINUOUS
10
0.627813
20
0.949359
11
0.627581
21
0.949431
0
LINE
8
BLACK
6
CONTINUOUS
10
0.627581
20
0.949431
11
0.62734
21
0.949457
0
LINE
8
BLACK
6
CONTINUOUS
10
0.62734
20
0.949457
11
0.62734
21
0.949457
0
LINE
8
BLACK
6
CONTINUOUS
10
0.62734
20
0.949457
11
0.620504
21
0.950175
0
LINE
8
BLACK
6
CONTINUOUS
10
0.620504
20
0.950175
11
0.620504
21
0.950175
0
LINE
8
BLACK
6
CONTINUOUS
10
0.620504
20
0.950175
11
0.620263
21
0.9502
0
LINE
8
BLACK
6
CONTINUOUS
10
0.620263
20
0.9502
11
0.615594
21
0.949775
0
LINE
8
BLACK
6
CONTINUOUS
10
0.615594
20
0.949775
11
0.613177
21
0.949555
0
LINE
8
BLACK
6
CONTINUOUS
10
0.613177
20
0.949555
11
0.613177
21
0.949555
0
LINE
8
BLACK
6
CONTINUOUS
10
0.613177
20
0.949555
11
0.612936
21
0.949533
0
LINE
8
BLACK
6
CONTINUOUS
10
0.612936
20
0.949533
11
0.612703
21
0.949465
0
LINE
8
BLACK
6
CONTINUOUS
10
0.612703
20
0.949465
11
0.612703
21
0.949465
0
LINE
8
BLACK
6
CONTINUOUS
10
0.612703
20
0.949465
11
0.607892
21
0.948049
0
LINE
8
BLACK
6
CONTINUOUS
10
0.607892
20
0.948049
11
0.605877
21
0.947456
0
LINE
8
BLACK
6
CONTINUOUS
10
0.605877
20
0.947456
11
0.599356
21
0.944047
0
LINE
8
BLACK
6
CONTINUOUS
10
0.599356
20
0.944047
11
0.593622
21
0.939436
0
LINE
8
BLACK
6
CONTINUOUS
10
0.593622
20
0.939436
11
0.588892
21
0.9338
0
LINE
8
BLACK
6
CONTINUOUS
10
0.588892
20
0.9338
11
0.588776
21
0.933588
0
LINE
8
BLACK
6
CONTINUOUS
10
0.588776
20
0.933588
11
0.588775
21
0.933588
0
LINE
8
BLACK
6
CONTINUOUS
10
0.588775
20
0.933588
11
0.587071
21
0.930487
0
LINE
8
BLACK
6
CONTINUOUS
10
0.587071
20
0.930487
11
0.585347
21
0.927352
0
LINE
8
BLACK
6
CONTINUOUS
10
0.585347
20
0.927352
11
0.583123
21
0.920339
0
LINE
8
BLACK
6
CONTINUOUS
10
0.583123
20
0.920339
11
0.582302
21
0.913026
0
LINE
8
BLACK
6
CONTINUOUS
10
0.582302
20
0.913026
11
0.582323
21
0.912784
0
LINE
8
BLACK
6
CONTINUOUS
10
0.582323
20
0.912784
11
0.582733
21
0.907901
0
LINE
8
BLACK
6
CONTINUOUS
10
0.582733
20
0.907901
11
0.582918
21
0.905694
0
LINE
8
BLACK
6
CONTINUOUS
10
0.582918
20
0.905694
11
0.584946
21
0.898621
0
LINE
8
BLACK
6
CONTINUOUS
10
0.584946
20
0.898621
11
0.58831
21
0.892077
0
LINE
8
BLACK
6
CONTINUOUS
10
0.58831
20
0.892077
11
0.58846
21
0.891887
0
LINE
8
BLACK
6
CONTINUOUS
10
0.58846
20
0.891887
11
0.58846
21
0.891887
0
LINE
8
BLACK
6
CONTINUOUS
10
0.58846
20
0.891887
11
0.592605
21
0.886657
0
LINE
8
BLACK
6
CONTINUOUS
10
0.592605
20
0.886657
11
0.59288
21
0.886311
0
LINE
8
BLACK
6
CONTINUOUS
10
0.59288
20
0.886311
11
0.593065
21
0.886153
0
LINE
8
BLACK
6
CONTINUOUS
10
0.593065
20
0.886153
11
0.596474
21
0.883252
0
LINE
8
BLACK
6
CONTINUOUS
10
0.596474
20
0.883252
11
0.598483
21
0.881542
0
LINE
8
BLACK
6
CONTINUOUS
10
0.598483
20
0.881542
11
0.604906
21
0.877952
0
LINE
8
BLACK
6
CONTINUOUS
10
0.604906
20
0.877952
11
0.611904
21
0.875678
0
LINE
8
BLACK
6
CONTINUOUS
10
0.611904
20
0.875678
11
0.61921
21
0.874807
0
LINE
8
BLACK
6
CONTINUOUS
10
0.61921
20
0.874807
11
0.619452
21
0.874826
0
LINE
8
BLACK
6
CONTINUOUS
10
0.619452
20
0.874826
11
0.619452
21
0.874826
0
LINE
8
BLACK
6
CONTINUOUS
10
0.619452
20
0.874826
11
0.621658
21
0.874995
0
LINE
8
BLACK
6
CONTINUOUS
10
0.621658
20
0.874995
11
0.626547
21
0.875372
0
LINE
8
BLACK
6
CONTINUOUS
10
0.626547
20
0.875372
11
0.633634
21
0.87735
0
LINE
8
BLACK
6
CONTINUOUS
10
0.633634
20
0.87735
11
0.63385
21
0.877459
0
LINE
8
BLACK
6
CONTINUOUS
10
0.63385
20
0.877459
11
0.63385
21
0.877459
0
LINE
8
BLACK
6
CONTINUOUS
10
0.63385
20
0.877459
11
0.636896
21
0.878998
0
LINE
8
BLACK
6
CONTINUOUS
10
0.636896
20
0.878998
11
0.640201
21
0.880668
0
LINE
8
BLACK
6
CONTINUOUS
10
0.640201
20
0.880668
11
0.64132
21
0.881542
0
LINE
8
BLACK
6
CONTINUOUS
10
0.64132
20
0.881542
11
0.645809
21
0.885049
0
LINE
8
BLACK
6
CONTINUOUS
10
0.645809
20
0.885049
11
0.645999
21
0.885198
0
LINE
8
BLACK
6
CONTINUOUS
10
0.645999
20
0.885198
11
0.646033
21
0.885237
0
LINE
8
BLACK
6
CONTINUOUS
10
0.646033
20
0.885237
11
0.648459
21
0.886486
0
LINE
8
BLACK
6
CONTINUOUS
10
0.648459
20
0.886486
11
0.649395
21
0.886575
0
LINE
8
BLACK
6
CONTINUOUS
10
0.649395
20
0.886575
11
0.736518
21
0.886575
0
LINE
8
BLACK
6
CONTINUOUS
10
0.736518
20
0.886575
11
0.7392
21
0.885787
0
LINE
8
BLACK
6
CONTINUOUS
10
0.7392
20
0.885787
11
0.740025
21
0.885122
0
LINE
8
BLACK
6
CONTINUOUS
10
0.740025
20
0.885122
11
0.744862
21
0.880285
0
LINE
8
BLACK
6
CONTINUOUS
10
0.744862
20
0.880285
11
0.746202
21
0.877832
0
LINE
8
BLACK
6
CONTINUOUS
10
0.746202
20
0.877832
11
0.746002
21
0.875044
0
LINE
8
BLACK
6
CONTINUOUS
10
0.746002
20
0.875044
11
0.745324
21
0.873802
0
LINE
8
BLACK
6
CONTINUOUS
10
0.745324
20
0.873802
11
0.742471
21
0.869996
0
LINE
8
BLACK
6
CONTINUOUS
10
0.742471
20
0.869996
11
0.742471
21
0.869996
0
LINE
8
BLACK
6
CONTINUOUS
10
0.742471
20
0.869996
11
0.742259
21
0.869713
0
LINE
8
BLACK
6
CONTINUOUS
10
0.742259
20
0.869713
11
0.740246
21
0.864343
0
LINE
8
BLACK
6
CONTINUOUS
10
0.740246
20
0.864343
11
0.73998
21
0.861895
0
LINE
8
BLACK
6
CONTINUOUS
10
0.73998
20
0.861895
11
0.73998
21
0.798105
0
LINE
8
BLACK
6
CONTINUOUS
10
0.73998
20
0.798105
11
0.740246
21
0.795657
0
LINE
8
BLACK
6
CONTINUOUS
10
0.740246
20
0.795657
11
0.742259
21
0.790287
0
LINE
8
BLACK
6
CONTINUOUS
10
0.742259
20
0.790287
11
0.745698
21
0.785698
0
LINE
8
BLACK
6
CONTINUOUS
10
0.745698
20
0.785698
11
0.750287
21
0.782259
0
LINE
8
BLACK
6
CONTINUOUS
10
0.750287
20
0.782259
11
0.755657
21
0.780246
0
LINE
8
BLACK
6
CONTINUOUS
10
0.755657
20
0.780246
11
0.758105
21
0.77998
0
LINE
8
BLACK
6
CONTINUOUS
10
0.758105
20
0.77998
11
0.821895
21
0.77998
0
LINE
8
BLACK
6
CONTINUOUS
10
0.821895
20
0.77998
11
0.824343
21
0.780246
0
LINE
8
BLACK
6
CONTINUOUS
10
0.824343
20
0.780246
11
0.829713
21
0.782259
0
LINE
8
BLACK
6
CONTINUOUS
10
0.829713
20
0.782259
11
0.834302
21
0.785698
0
LINE
8
BLACK
6
CONTINUOUS
10
0.834302
20
0.785698
11
0.837741
21
0.790287
0
LINE
8
BLACK
6
CONTINUOUS
10
0.837741
20
0.790287
11
0.839754
21
0.795657
0
LINE
8
BLACK
6
CONTINUOUS
10
0.839754
20
0.795657
11
0.84002
21
0.798105
0
LINE
8
BLACK
6
CONTINUOUS
10
0.84002
20
0.798105
11
0.84002
21
0.861895
0
LINE
8
BLACK
6
CONTINUOUS
10
0.84002
20
0.861895
11
0.839754
21
0.864343
0
LINE
8
BLACK
6
CONTINUOUS
10
0.839754
20
0.864343
11
0.837741
21
0.869713
0
LINE
8
BLACK
6
CONTINUOUS
10
0.837741
20
0.869713
11
0.834302
21
0.874302
0
LINE
8
BLACK
6
CONTINUOUS
10
0.834302
20
0.874302
11
0.829713
21
0.877741
0
LINE
8
BLACK
6
CONTINUOUS
10
0.829713
20
0.877741
11
0.824343
21
0.879754
0
LINE
8
BLACK
6
CONTINUOUS
10
0.824343
20
0.879754
11
0.821895
21
0.88002
0
LINE
8
BLACK
6
CONTINUOUS
10
0.821895
20
0.88002
11
0.818094
21
0.88002
0
LINE
8
BLACK
6
CONTINUOUS
10
0.818094
20
0.88002
11
0.815413
21
0.880807
0
LINE
8
BLACK
6
CONTINUOUS
10
0.815413
20
0.880807
11
0.813825
21
0.882455
0
LINE
8
BLACK
6
CONTINUOUS
10
0.813825
20
0.882455
11
0.813552
21
0.882916
0
LINE
8
BLACK
6
CONTINUOUS
10
0.813552
20
0.882916
11
0.81321
21
0.883614
0
LINE
8
BLACK
6
CONTINUOUS
10
0.81321
20
0.883614
11
0.812899
21
0.8844
0
LINE
8
BLACK
6
CONTINUOUS
10
0.812899
20
0.8844
11
0.81183
21
0.885871
0
LINE
8
BLACK
6
CONTINUOUS
10
0.81183
20
0.885871
11
0.811574
21
0.886262
0
LINE
8
BLACK
6
CONTINUOUS
10
0.811574
20
0.886262
11
0.810807
21
0.887558
0
LINE
8
BLACK
6
CONTINUOUS
10
0.810807
20
0.887558
11
0.810807
21
0.887558
0
LINE
8
BLACK
6
CONTINUOUS
10
0.810807
20
0.887558
11
0.810648
21
0.887827
0
LINE
8
BLACK
6
CONTINUOUS
10
0.810648
20
0.887827
11
0.810051
21
0.888424
0
LINE
8
BLACK
6
CONTINUOUS
10
0.810051
20
0.888424
11
0.809545
21
0.889016
0
LINE
8
BLACK
6
CONTINUOUS
10
0.809545
20
0.889016
11
0.809232
21
0.889447
0
LINE
8
BLACK
6
CONTINUOUS
10
0.809232
20
0.889447
11
0.809049
21
0.889699
0
LINE
8
BLACK
6
CONTINUOUS
10
0.809049
20
0.889699
11
0.807648
21
0.890858
0
LINE
8
BLACK
6
CONTINUOUS
10
0.807648
20
0.890858
11
0.807302
21
0.891173
0
LINE
8
BLACK
6
CONTINUOUS
10
0.807302
20
0.891173
11
0.798052
21
0.900422
0
LINE
8
BLACK
6
CONTINUOUS
10
0.798052
20
0.900422
11
0.796713
21
0.902876
0
LINE
8
BLACK
6
CONTINUOUS
10
0.796713
20
0.902876
11
0.796912
21
0.905664
0
LINE
8
BLACK
6
CONTINUOUS
10
0.796912
20
0.905664
11
0.798587
21
0.907901
0
LINE
8
BLACK
6
CONTINUOUS
10
0.798587
20
0.907901
11
0.801206
21
0.908878
0
LINE
8
BLACK
6
CONTINUOUS
10
0.801206
20
0.908878
11
0.802148
21
0.908856
0
LINE
8
BLACK
6
CONTINUOUS
10
0.802148
20
0.908856
11
0.802445
21
0.90882
0
LINE
8
BLACK
6
CONTINUOUS
10
0.802445
20
0.90882
11
0.802687
21
0.908839
0
LINE
8
BLACK
6
CONTINUOUS
10
0.802687
20
0.908839
11
0.802687
21
0.908839
0
LINE
8
BLACK
6
CONTINUOUS
10
0.802687
20
0.908839
11
0.804893
21
0.909009
0
LINE
8
BLACK
6
CONTINUOUS
10
0.804893
20
0.909009
11
0.809781
21
0.909385
0
LINE
8
BLACK
6
CONTINUOUS
10
0.809781
20
0.909385
11
0.816868
21
0.911363
0
LINE
8
BLACK
6
CONTINUOUS
10
0.816868
20
0.911363
11
0.817084
21
0.911473
0
LINE
8
BLACK
6
CONTINUOUS
10
0.817084
20
0.911473
11
0.817085
21
0.911473
0
LINE
8
BLACK
6
CONTINUOUS
10
0.817085
20
0.911473
11
0.820638
21
0.913268
0
LINE
8
BLACK
6
CONTINUOUS
10
0.820638
20
0.913268
11
0.823436
21
0.914681
0
LINE
8
BLACK
6
CONTINUOUS
10
0.823436
20
0.914681
11
0.829234
21
0.919211
0
LINE
8
BLACK
6
CONTINUOUS
10
0.829234
20
0.919211
11
0.829393
21
0.919395
0
LINE
8
BLACK
6
CONTINUOUS
10
0.829393
20
0.919395
11
0.829393
21
0.919395
0
LINE
8
BLACK
6
CONTINUOUS
10
0.829393
20
0.919395
11
0.833883
21
0.924597
0
LINE
8
BLACK
6
CONTINUOUS
10
0.833883
20
0.924597
11
0.834042
21
0.924781
0
LINE
8
BLACK
6
CONTINUOUS
10
0.834042
20
0.924781
11
0.837283
21
0.930487
0
LINE
8
BLACK
6
CONTINUOUS
10
0.837283
20
0.930487
11
0.837557
21
0.930968
0
LINE
8
BLACK
6
CONTINUOUS
10
0.837557
20
0.930968
11
0.837557
21
0.930968
0
LINE
8
BLACK
6
CONTINUOUS
10
0.837557
20
0.930968
11
0.837676
21
0.931179
0
LINE
8
BLACK
6
CONTINUOUS
10
0.837676
20
0.931179
11
0.838495
21
0.933641
0
LINE
8
BLACK
6
CONTINUOUS
10
0.838495
20
0.933641
11
0.839216
21
0.935807
0
LINE
8
BLACK
6
CONTINUOUS
10
0.839216
20
0.935807
11
0.839999
21
0.938161
0
LINE
8
BLACK
6
CONTINUOUS
10
0.839999
20
0.938161
11
0.840314
21
0.940657
0
LINE
8
BLACK
6
CONTINUOUS
10
0.840314
20
0.940657
11
0.840904
21
0.945323
0
LINE
8
BLACK
6
CONTINUOUS
10
0.840904
20
0.945323
11
0.840904
21
0.945323
0
LINE
8
BLACK
6
CONTINUOUS
10
0.840904
20
0.945323
11
0.840921
21
0.945461
0
LINE
8
BLACK
6
CONTINUOUS
10
0.840921
20
0.945461
11
0.840936
21
0.946513
0
LINE
8
BLACK
6
CONTINUOUS
10
0.840936
20
0.946513
11
0.840218
21
0.953836
0
LINE
8
BLACK
6
CONTINUOUS
10
0.840218
20
0.953836
11
0.838091
21
0.96088
0
LINE
8
BLACK
6
CONTINUOUS
10
0.838091
20
0.96088
11
0.834637
21
0.967377
0
LINE
8
BLACK
6
CONTINUOUS
10
0.834637
20
0.967377
11
0.834483
21
0.967565
0
LINE
8
BLACK
6
CONTINUOUS
10
0.834483
20
0.967565
11
0.83014
21
0.972891
0
LINE
8
BLACK
6
CONTINUOUS
10
0.83014
20
0.972891
11
0.830139
21
0.972891
0
LINE
8
BLACK
6
CONTINUOUS
10
0.830139
20
0.972891
11
0.829986
21
0.973079
0
LINE
8
BLACK
6
CONTINUOUS
10
0.829986
20
0.973079
11
0.829799
21
0.973233
0
LINE
8
BLACK
6
CONTINUOUS
10
0.829799
20
0.973233
11
0.824504
21
0.977614
0
LINE
8
BLACK
6
CONTINUOUS
10
0.824504
20
0.977614
11
0.824504
21
0.977614
0
LINE
8
BLACK
6
CONTINUOUS
10
0.824504
20
0.977614
11
0.824317
21
0.977769
0
LINE
8
BLACK
6
CONTINUOUS
10
0.824317
20
0.977769
11
0.817844
21
0.981269
0
LINE
8
BLACK
6
CONTINUOUS
10
0.817844
20
0.981269
11
0.810815
21
0.983444
0
LINE
8
BLACK
6
CONTINUOUS
10
0.810815
20
0.983444
11
0.810574
21
0.98347
0
LINE
8
BLACK
6
CONTINUOUS
10
0.810574
20
0.98347
11
0.810574
21
0.98347
0
LINE
8
BLACK
6
CONTINUOUS
10
0.810574
20
0.98347
11
0.808743
21
0.983662
0
LINE
8
BLACK
6
CONTINUOUS
10
0.808743
20
0.983662
11
0.806903
21
0.983856
0
LINE
8
BLACK
6
CONTINUOUS
10
0.806903
20
0.983856
11
0.804318
21
0.984919
0
LINE
8
BLACK
6
CONTINUOUS
10
0.804318
20
0.984919
11
0.803914
21
0.985281
0
LINE
8
BLACK
6
CONTINUOUS
10
0.803914
20
0.985281
11
0.726712
21
1.06248
0
LINE
8
BLACK
6
CONTINUOUS
10
0.726712
20
1.06248
11
0.725372
21
1.06494
0
LINE
8
BLACK
6
CONTINUOUS
10
0.725372
20
1.06494
11
0.725571
21
1.06772
0
LINE
8
BLACK
6
CONTINUOUS
10
0.725571
20
1.06772
11
0.725906
21
1.06844
0
LINE
8
BLACK
6
CONTINUOUS
10
0.725906
20
1.06844
11
0.729322
21
1.07445
0
LINE
8
BLACK
6
CONTINUOUS
10
0.729322
20
1.07445
11
0.729322
21
1.07445
0
LINE
8
BLACK
6
CONTINUOUS
10
0.729322
20
1.07445
11
0.729442
21
1.07467
0
LINE
8
BLACK
6
CONTINUOUS
10
0.729442
20
1.07467
11
0.729518
21
1.0749
0
LINE
8
BLACK
6
CONTINUOUS
10
0.729518
20
1.0749
11
0.729525
21
1.07491
0
LINE
8
BLACK
6
CONTINUOUS
10
0.729525
20
1.07491
11
0.731336
21
1.07704
0
LINE
8
BLACK
6
CONTINUOUS
10
0.731336
20
1.07704
11
0.734057
21
1.07785
0
LINE
8
BLACK
6
CONTINUOUS
10
0.734057
20
1.07785
11
0.81
21
1.07785
0
LINE
8
BLACK
6
CONTINUOUS
10
0.81
20
1.07785
11
0.81
21
1.09
0
LINE
8
BLACK
6
CONTINUOUS
10
0.81
20
1.09
11
0.87
21
1.09
0
LINE
8
BLACK
6
CONTINUOUS
10
0.87
20
1.09
11
0.87
21
1.07785
0
LINE
8
BLACK
6
CONTINUOUS
10
0.87
20
1.07785
11
0.88502
21
1.07785
0
LINE
8
BLACK
6
CONTINUOUS
10
0.88502
20
1.07785
11
0.887702
21
1.07707
0
LINE
8
BLACK
6
CONTINUOUS
10
0.887702
20
1.07707
11
0.889532
21
1.07495
0
LINE
8
BLACK
6
CONTINUOUS
10
0.889532
20
1.07495
11
0.88998
21
1.07289
0
LINE
8
BLACK
6
CONTINUOUS
10
0.88998
20
1.07289
11
0.88998
21
1.0281
0
LINE
8
BLACK
6
CONTINUOUS
10
0.88998
20
1.0281
11
0.890246
21
1.02566
0
LINE
8
BLACK
6
CONTINUOUS
10
0.890246
20
1.02566
11
0.892259
21
1.02029
0
LINE
8
BLACK
6
CONTINUOUS
10
0.892259
20
1.02029
11
0.895698
21
1.0157
0
LINE
8
BLACK
6
CONTINUOUS
10
0.895698
20
1.0157
11
0.900287
21
1.01226
0
LINE
8
BLACK
6
CONTINUOUS
10
0.900287
20
1.01226
11
0.905657
21
1.01025
0
LINE
8
BLACK
6
CONTINUOUS
10
0.905657
20
1.01025
11
0.908105
21
1.00998
0
LINE
8
BLACK
6
CONTINUOUS
10
0.908105
20
1.00998
11
0.971895
21
1.00998
0
LINE
8
BLACK
6
CONTINUOUS
10
0.971895
20
1.00998
11
0.974343
21
1.01025
0
LINE
8
BLACK
6
CONTINUOUS
10
0.974343
20
1.01025
11
0.979713
21
1.01226
0
LINE
8
BLACK
6
CONTINUOUS
10
0.979713
20
1.01226
11
0.984302
21
1.0157
0
LINE
8
BLACK
6
CONTINUOUS
10
0.984302
20
1.0157
11
0.98603
21
1.01801
0
LINE
8
BLACK
6
CONTINUOUS
10
0.98603
20
1.01801
11
0.988269
21
1.01968
0
LINE
8
BLACK
6
CONTINUOUS
10
0.988269
20
1.01968
11
0.991057
21
1.01988
0
LINE
8
BLACK
6
CONTINUOUS
10
0.991057
20
1.01988
11
0.99351
21
1.01854
0
LINE
8
BLACK
6
CONTINUOUS
10
0.99351
20
1.01854
11
0.993969
21
1.01801
0
LINE
8
BLACK
6
CONTINUOUS
10
0.993969
20
1.01801
11
0.995698
21
1.0157
0
LINE
8
BLACK
6
CONTINUOUS
10
0.995698
20
1.0157
11
1.00029
21
1.01226
0
LINE
8
BLACK
6
CONTINUOUS
10
1.00029
20
1.01226
11
1.00566
21
1.01025
0
LINE
8
BLACK
6
CONTINUOUS
10
1.00566
20
1.01025
11
1.0081
21
1.00998
0
LINE
8
BLACK
6
CONTINUOUS
10
1.0081
20
1.00998
11
1.0719
21
1.00998
0
LINE
8
BLACK
6
CONTINUOUS
10
1.0719
20
1.00998
11
1.07434
21
1.01025
0
LINE
8
BLACK
6
CONTINUOUS
10
1.07434
20
1.01025
11
1.07971
21
1.01226
0
LINE
8
BLACK
6
CONTINUOUS
10
1.07971
20
1.01226
11
1.0843
21
1.0157
0
LINE
8
BLACK
6
CONTINUOUS
10
1.0843
20
1.0157
11
1.08774
21
1.02029
0
LINE
8
BLACK
6
CONTINUOUS
10
1.08774
20
1.02029
11
1.08975
21
1.02566
0
LINE
8
BLACK
6
CONTINUOUS
10
1.08975
20
1.02566
11
1.09002
21
1.0281
0
LINE
8
BLACK
6
CONTINUOUS
10
1.09002
20
1.0281
11
1.09002
21
1.0919
0
LINE
8
BLACK
6
CONTINUOUS
10
1.09002
20
1.0919
11
1.08975
21
1.09434
0
LINE
8
BLACK
6
CONTINUOUS
10
1.08975
20
1.09434
11
1.08774
21
1.09971
0
LINE
8
BLACK
6
CONTINUOUS
10
1.08774
20
1.09971
11
1.0843
21
1.1043
0
LINE
8
BLACK
6
CONTINUOUS
10
1.0843
20
1.1043
11
1.08199
21
1.10603
0
LINE
8
BLACK
6
CONTINUOUS
10
1.08199
20
1.10603
11
1.08032
21
1.10827
0
LINE
8
BLACK
6
CONTINUOUS
10
1.08032
20
1.10827
11
1.08012
21
1.11106
0
LINE
8
BLACK
6
CONTINUOUS
10
1.08012
20
1.11106
11
1.08146
21
1.11351
0
LINE
8
BLACK
6
CONTINUOUS
10
1.08146
20
1.11351
11
1.08199
21
1.11397
0
LINE
8
BLACK
6
CONTINUOUS
10
1.08199
20
1.11397
11
1.0843
21
1.1157
0
LINE
8
BLACK
6
CONTINUOUS
10
1.0843
20
1.1157
11
1.08774
21
1.12029
0
LINE
8
BLACK
6
CONTINUOUS
10
1.08774
20
1.12029
11
1.08975
21
1.12566
0
LINE
8
BLACK
6
CONTINUOUS
10
1.08975
20
1.12566
11
1.09002
21
1.1281
0
LINE
8
BLACK
6
CONTINUOUS
10
1.09002
20
1.1281
11
1.09002
21
1.1919
0
LINE
8
BLACK
6
CONTINUOUS
10
1.09002
20
1.1919
11
1.08975
21
1.19434
0
LINE
8
BLACK
6
CONTINUOUS
10
1.08975
20
1.19434
11
1.08774
21
1.19971
0
LINE
8
BLACK
6
CONTINUOUS
10
1.08774
20
1.19971
11
1.0843
21
1.2043
0
LINE
8
BLACK
6
CONTINUOUS
10
1.0843
20
1.2043
11
1.07971
21
1.20774
0
LINE
8
BLACK
6
CONTINUOUS
10
1.07971
20
1.20774
11
1.07434
21
1.20975
0
LINE
8
BLACK
6
CONTINUOUS
10
1.07434
20
1.20975
11
1.07399
21
1.20979
0
LINE
8
BLACK
6
CONTINUOUS
10
1.07399
20
1.20979
11
1.07396
21
1.2098
0
LINE
8
BLACK
6
CONTINUOUS
10
1.07396
20
1.2098
11
1.07373
21
1.20986
0
LINE
8
BLACK
6
CONTINUOUS
10
1.07373
20
1.20986
11
1.07374
21
1.2099
0
LINE
8
BLACK
6
CONTINUOUS
10
1.07374
20
1.2099
11
1.07141
21
1.21086
0
LINE
8
BLACK
6
CONTINUOUS
10
1.07141
20
1.21086
11
1.06982
21
1.21316
0
LINE
8
BLACK
6
CONTINUOUS
10
1.06982
20
1.21316
11
1.06958
21
1.21432
0
LINE
8
BLACK
6
CONTINUOUS
10
1.06958
20
1.21432
11
1.06951
21
1.21529
0
LINE
8
BLACK
6
CONTINUOUS
10
1.06951
20
1.21529
11
1.06951
21
1.21529
0
LINE
8
BLACK
6
CONTINUOUS
10
1.06951
20
1.21529
11
1.06948
21
1.21558
0
LINE
8
BLACK
6
CONTINUOUS
10
1.06948
20
1.21558
11
1.06939
21
1.21585
0
LINE
8
BLACK
6
CONTINUOUS
10
1.06939
20
1.21585
11
1.06935
21
1.21609
0
LINE
8
BLACK
6
CONTINUOUS
10
1.06935
20
1.21609
11
1.06929
21
1.21632
0
LINE
8
BLACK
6
CONTINUOUS
10
1.06929
20
1.21632
11
1.06926
21
1.2166
0
LINE
8
BLACK
6
CONTINUOUS
10
1.06926
20
1.2166
11
1.06828
21
1.2193
0
LINE
8
BLACK
6
CONTINUOUS
10
1.06828
20
1.2193
11
1.06822
21
1.21947
0
LINE
8
BLACK
6
CONTINUOUS
10
1.06822
20
1.21947
11
1.06743
21
1.22193
0
LINE
8
BLACK
6
CONTINUOUS
10
1.06743
20
1.22193
11
1.06743
21
1.22193
0
LINE
8
BLACK
6
CONTINUOUS
10
1.06743
20
1.22193
11
1.06734
21
1.2222
0
LINE
8
BLACK
6
CONTINUOUS
10
1.06734
20
1.2222
11
1.06719
21
1.22245
0
LINE
8
BLACK
6
CONTINUOUS
10
1.06719
20
1.22245
11
1.06709
21
1.22266
0
LINE
8
BLACK
6
CONTINUOUS
10
1.06709
20
1.22266
11
1.06698
21
1.22288
0
LINE
8
BLACK
6
CONTINUOUS
10
1.06698
20
1.22288
11
1.06688
21
1.22315
0
LINE
8
BLACK
6
CONTINUOUS
10
1.06688
20
1.22315
11
1.06531
21
1.22555
0
LINE
8
BLACK
6
CONTINUOUS
10
1.06531
20
1.22555
11
1.06522
21
1.2257
0
LINE
8
BLACK
6
CONTINUOUS
10
1.06522
20
1.2257
11
1.06496
21
1.22611
0
LINE
8
BLACK
6
CONTINUOUS
10
1.06496
20
1.22611
11
1.06372
21
1.22815
0
LINE
8
BLACK
6
CONTINUOUS
10
1.06372
20
1.22815
11
1.06343
21
1.22848
0
LINE
8
BLACK
6
CONTINUOUS
10
1.06343
20
1.22848
11
1.06343
21
1.22848
0
LINE
8
BLACK
6
CONTINUOUS
10
1.06343
20
1.22848
11
1.06333
21
1.2286
0
LINE
8
BLACK
6
CONTINUOUS
10
1.06333
20
1.2286
11
1.06322
21
1.22873
0
LINE
8
BLACK
6
CONTINUOUS
10
1.06322
20
1.22873
11
1.06307
21
1.22897
0
LINE
8
BLACK
6
CONTINUOUS
10
1.06307
20
1.22897
11
1.06085
21
1.23107
0
LINE
8
BLACK
6
CONTINUOUS
10
1.06085
20
1.23107
11
1.06075
21
1.23116
0
LINE
8
BLACK
6
CONTINUOUS
10
1.06075
20
1.23116
11
1.04767
21
1.24425
0
LINE
8
BLACK
6
CONTINUOUS
10
1.04767
20
1.24425
11
1.04718
21
1.24482
0
LINE
8
BLACK
6
CONTINUOUS
10
1.04718
20
1.24482
11
1.04684
21
1.24527
0
LINE
8
BLACK
6
CONTINUOUS
10
1.04684
20
1.24527
11
1.04684
21
1.24527
0
LINE
8
BLACK
6
CONTINUOUS
10
1.04684
20
1.24527
11
1.04667
21
1.2455
0
LINE
8
BLACK
6
CONTINUOUS
10
1.04667
20
1.2455
11
1.04645
21
1.24569
0
LINE
8
BLACK
6
CONTINUOUS
10
1.04645
20
1.24569
11
1.04645
21
1.24569
0
LINE
8
BLACK
6
CONTINUOUS
10
1.04645
20
1.24569
11
1.04509
21
1.24685
0
LINE
8
BLACK
6
CONTINUOUS
10
1.04509
20
1.24685
11
1.04479
21
1.24712
0
LINE
8
BLACK
6
CONTINUOUS
10
1.04479
20
1.24712
11
1.04457
21
1.24735
0
LINE
8
BLACK
6
CONTINUOUS
10
1.04457
20
1.24735
11
1.04433
21
1.24754
0
LINE
8
BLACK
6
CONTINUOUS
10
1.04433
20
1.24754
11
1.04369
21
1.24804
0
LINE
8
BLACK
6
CONTINUOUS
10
1.04369
20
1.24804
11
1.04356
21
1.24815
0
LINE
8
BLACK
6
CONTINUOUS
10
1.04356
20
1.24815
11
1.04159
21
1.24983
0
LINE
8
BLACK
6
CONTINUOUS
10
1.04159
20
1.24983
11
1.04159
21
1.24983
0
LINE
8
BLACK
6
CONTINUOUS
10
1.04159
20
1.24983
11
1.04137
21
1.25001
0
LINE
8
BLACK
6
CONTINUOUS
10
1.04137
20
1.25001
11
1.04111
21
1.25014
0
LINE
8
BLACK
6
CONTINUOUS
10
1.04111
20
1.25014
11
1.04091
21
1.25028
0
LINE
8
BLACK
6
CONTINUOUS
10
1.04091
20
1.25028
11
1.04071
21
1.2504
0
LINE
8
BLACK
6
CONTINUOUS
10
1.04071
20
1.2504
11
1.04048
21
1.25058
0
LINE
8
BLACK
6
CONTINUOUS
10
1.04048
20
1.25058
11
1.03788
21
1.2518
0
LINE
8
BLACK
6
CONTINUOUS
10
1.03788
20
1.2518
11
1.03773
21
1.25187
0
LINE
8
BLACK
6
CONTINUOUS
10
1.03773
20
1.25187
11
1.03733
21
1.25208
0
LINE
8
BLACK
6
CONTINUOUS
10
1.03733
20
1.25208
11
1.03517
21
1.25318
0
LINE
8
BLACK
6
CONTINUOUS
10
1.03517
20
1.25318
11
1.03489
21
1.25325
0
LINE
8
BLACK
6
CONTINUOUS
10
1.03489
20
1.25325
11
1.03466
21
1.25333
0
LINE
8
BLACK
6
CONTINUOUS
10
1.03466
20
1.25333
11
1.03444
21
1.25341
0
LINE
8
BLACK
6
CONTINUOUS
10
1.03444
20
1.25341
11
1.03418
21
1.25353
0
LINE
8
BLACK
6
CONTINUOUS
10
1.03418
20
1.25353
11
1.03136
21
1.25411
0
LINE
8
BLACK
6
CONTINUOUS
10
1.03136
20
1.25411
11
1.03119
21
1.25415
0
LINE
8
BLACK
6
CONTINUOUS
10
1.03119
20
1.25415
11
1.03115
21
1.25416
0
LINE
8
BLACK
6
CONTINUOUS
10
1.03115
20
1.25416
11
1.0284
21
1.25483
0
LINE
8
BLACK
6
CONTINUOUS
10
1.0284
20
1.25483
11
1.02818
21
1.25485
0
LINE
8
BLACK
6
CONTINUOUS
10
1.02818
20
1.25485
11
1.02818
21
1.25485
0
LINE
8
BLACK
6
CONTINUOUS
10
1.02818
20
1.25485
11
1.02796
21
1.25486
0
LINE
8
BLACK
6
CONTINUOUS
10
1.02796
20
1.25486
11
1.02796
21
1.25486
0
LINE
8
BLACK
6
CONTINUOUS
10
1.02796
20
1.25486
11
1.0278
21
1.25487
0
LINE
8
BLACK
6
CONTINUOUS
10
1.0278
20
1.25487
11
1.02764
21
1.25489
0
LINE
8
BLACK
6
CONTINUOUS
10
1.02764
20
1.25489
11
1.02736
21
1.25495
0
LINE
8
BLACK
6
CONTINUOUS
10
1.02736
20
1.25495
11
1.02475
21
1.25488
0
LINE
8
BLACK
6
CONTINUOUS
10
1.02475
20
1.25488
11
1.02431
21
1.25486
0
LINE
8
BLACK
6
CONTINUOUS
10
1.02431
20
1.25486
11
1.02418
21
1.25486
0
LINE
8
BLACK
6
CONTINUOUS
10
1.02418
20
1.25486
11
0.687239
21
1.25486
0
LINE
8
BLACK
6
CONTINUOUS
10
0.687239
20
1.25486
11
0.684557
21
1.25565
0
LINE
8
BLACK
6
CONTINUOUS
10
0.684557
20
1.25565
11
0.683731
21
1.25632
0
LINE
8
BLACK
6
CONTINUOUS
10
0.683731
20
1.25632
11
0.644047
21
1.296
0
LINE
8
BLACK
6
CONTINUOUS
10
0.644047
20
1.296
11
0.642708
21
1.29845
0
LINE
8
BLACK
6
CONTINUOUS
10
0.642708
20
1.29845
11
0.642907
21
1.30124
0
LINE
8
BLACK
6
CONTINUOUS
10
0.642907
20
1.30124
11
0.644038
21
1.303
0
LINE
8
BLACK
6
CONTINUOUS
10
0.644038
20
1.303
11
0.644302
21
1.3032
0
LINE
8
BLACK
6
CONTINUOUS
10
0.644302
20
1.3032
11
0.64603
21
1.30551
0
LINE
8
BLACK
6
CONTINUOUS
10
0.64603
20
1.30551
11
0.648269
21
1.30718
0
LINE
8
BLACK
6
CONTINUOUS
10
0.648269
20
1.30718
11
0.651057
21
1.30738
0
LINE
8
BLACK
6
CONTINUOUS
10
0.651057
20
1.30738
11
0.65351
21
1.30604
0
LINE
8
BLACK
6
CONTINUOUS
10
0.65351
20
1.30604
11
0.653969
21
1.30551
0
LINE
8
BLACK
6
CONTINUOUS
10
0.653969
20
1.30551
11
0.655698
21
1.3032
0
LINE
8
BLACK
6
CONTINUOUS
10
0.655698
20
1.3032
11
0.660287
21
1.29976
0
LINE
8
BLACK
6
CONTINUOUS
10
0.660287
20
1.29976
11
0.665657
21
1.29775
0
LINE
8
BLACK
6
CONTINUOUS
10
0.665657
20
1.29775
11
0.668105
21
1.29748
0
LINE
8
BLACK
6
CONTINUOUS
10
0.668105
20
1.29748
11
0.731895
21
1.29748
0
LINE
8
BLACK
6
CONTINUOUS
10
0.731895
20
1.29748
11
0.734343
21
1.29775
0
LINE
8
BLACK
6
CONTINUOUS
10
0.734343
20
1.29775
11
0.739713
21
1.29976
0
LINE
8
BLACK
6
CONTINUOUS
10
0.739713
20
1.29976
11
0.744302
21
1.3032
0
LINE
8
BLACK
6
CONTINUOUS
10
0.744302
20
1.3032
11
0.747741
21
1.30779
0
LINE
8
BLACK
6
CONTINUOUS
10
0.747741
20
1.30779
11
0.749754
21
1.31316
0
LINE
8
BLACK
6
CONTINUOUS
10
0.749754
20
1.31316
11
0.75002
21
1.3156
0
LINE
8
BLACK
6
CONTINUOUS
10
0.75002
20
1.3156
11
0.75002
21
1.3794
0
LINE
8
BLACK
6
CONTINUOUS
10
0.75002
20
1.3794
11
0.749754
21
1.38184
0
LINE
8
BLACK
6
CONTINUOUS
10
0.749754
20
1.38184
11
0.747741
21
1.38721
0
LINE
8
BLACK
6
CONTINUOUS
10
0.747741
20
1.38721
11
0.744302
21
1.3918
0
LINE
8
BLACK
6
CONTINUOUS
10
0.744302
20
1.3918
11
0.741995
21
1.39353
0
LINE
8
BLACK
6
CONTINUOUS
10
0.741995
20
1.39353
11
0.740321
21
1.39577
0
LINE
8
BLACK
6
CONTINUOUS
10
0.740321
20
1.39577
11
0.740123
21
1.39856
0
LINE
8
BLACK
6
CONTINUOUS
10
0.740123
20
1.39856
11
0.741464
21
1.40101
0
LINE
8
BLACK
6
CONTINUOUS
10
0.741464
20
1.40101
11
0.741995
21
1.40147
0
LINE
8
BLACK
6
CONTINUOUS
10
0.741995
20
1.40147
11
0.744019
21
1.40299
0
LINE
8
BLACK
6
CONTINUOUS
10
0.744019
20
1.40299
11
0.744302
21
1.4032
0
LINE
8
BLACK
6
CONTINUOUS
10
0.744302
20
1.4032
11
0.747741
21
1.40779
0
LINE
8
BLACK
6
CONTINUOUS
10
0.747741
20
1.40779
11
0.749754
21
1.41316
0
LINE
8
BLACK
6
CONTINUOUS
10
0.749754
20
1.41316
11
0.75002
21
1.4156
0
LINE
8
BLACK
6
CONTINUOUS
10
0.75002
20
1.4156
11
0.75002
21
1.4794
0
LINE
8
BLACK
6
CONTINUOUS
10
0.75002
20
1.4794
11
0.749754
21
1.48184
0
LINE
8
BLACK
6
CONTINUOUS
10
0.749754
20
1.48184
11
0.747741
21
1.48721
0
LINE
8
BLACK
6
CONTINUOUS
10
0.747741
20
1.48721
11
0.744302
21
1.4918
0
LINE
8
BLACK
6
CONTINUOUS
10
0.744302
20
1.4918
11
0.739713
21
1.49524
0
LINE
8
BLACK
6
CONTINUOUS
10
0.739713
20
1.49524
11
0.734343
21
1.49725
0
LINE
8
BLACK
6
CONTINUOUS
10
0.734343
20
1.49725
11
0.731895
21
1.49752
0
LINE
8
BLACK
6
CONTINUOUS
10
0.731895
20
1.49752
11
0.668105
21
1.49752
0
LINE
8
BLACK
6
CONTINUOUS
10
0.668105
20
1.49752
11
0.665657
21
1.49725
0
LINE
8
BLACK
6
CONTINUOUS
10
0.665657
20
1.49725
11
0.660287
21
1.49524
0
LINE
8
BLACK
6
CONTINUOUS
10
0.660287
20
1.49524
11
0.655698
21
1.4918
0
LINE
8
BLACK
6
CONTINUOUS
10
0.655698
20
1.4918
11
0.655487
21
1.49152
0
LINE
8
BLACK
6
CONTINUOUS
10
0.655487
20
1.49152
11
0.65397
21
1.48949
0
LINE
8
BLACK
6
CONTINUOUS
10
0.65397
20
1.48949
11
0.651731
21
1.48782
0
LINE
8
BLACK
6
CONTINUOUS
10
0.651731
20
1.48782
11
0.648943
21
1.48762
0
LINE
8
BLACK
6
CONTINUOUS
10
0.648943
20
1.48762
11
0.64649
21
1.48896
0
LINE
8
BLACK
6
CONTINUOUS
10
0.64649
20
1.48896
11
0.64603
21
1.48949
0
LINE
8
BLACK
6
CONTINUOUS
10
0.64603
20
1.48949
11
0.644513
21
1.49152
0
LINE
8
BLACK
6
CONTINUOUS
10
0.644513
20
1.49152
11
0.644302
21
1.4918
0
LINE
8
BLACK
6
CONTINUOUS
10
0.644302
20
1.4918
11
0.639713
21
1.49524
0
LINE
8
BLACK
6
CONTINUOUS
10
0.639713
20
1.49524
11
0.634343
21
1.49725
0
LINE
8
BLACK
6
CONTINUOUS
10
0.634343
20
1.49725
11
0.631895
21
1.49752
0
LINE
8
BLACK
6
CONTINUOUS
10
0.631895
20
1.49752
11
0.568105
21
1.49752
0
LINE
8
BLACK
6
CONTINUOUS
10
0.568105
20
1.49752
11
0.565657
21
1.49725
0
LINE
8
BLACK
6
CONTINUOUS
10
0.565657
20
1.49725
11
0.560287
21
1.49524
0
LINE
8
BLACK
6
CONTINUOUS
10
0.560287
20
1.49524
11
0.555698
21
1.4918
0
LINE
8
BLACK
6
CONTINUOUS
10
0.555698
20
1.4918
11
0.555487
21
1.49152
0
LINE
8
BLACK
6
CONTINUOUS
10
0.555487
20
1.49152
11
0.55397
21
1.48949
0
LINE
8
BLACK
6
CONTINUOUS
10
0.55397
20
1.48949
11
0.551731
21
1.48782
0
LINE
8
BLACK
6
CONTINUOUS
10
0.551731
20
1.48782
11
0.548943
21
1.48762
0
LINE
8
BLACK
6
CONTINUOUS
10
0.548943
20
1.48762
11
0.54649
21
1.48896
0
LINE
8
BLACK
6
CONTINUOUS
10
0.54649
20
1.48896
11
0.54603
21
1.48949
0
LINE
8
BLACK
6
CONTINUOUS
10
0.54603
20
1.48949
11
0.544513
21
1.49152
0
LINE
8
BLACK
6
CONTINUOUS
10
0.544513
20
1.49152
11
0.544302
21
1.4918
0
LINE
8
BLACK
6
CONTINUOUS
10
0.544302
20
1.4918
11
0.539713
21
1.49524
0
LINE
8
BLACK
6
CONTINUOUS
10
0.539713
20
1.49524
11
0.534343
21
1.49725
0
LINE
8
BLACK
6
CONTINUOUS
10
0.534343
20
1.49725
11
0.531895
21
1.49752
0
LINE
8
BLACK
6
CONTINUOUS
10
0.531895
20
1.49752
11
0.468105
21
1.49752
0
LINE
8
BLACK
6
CONTINUOUS
10
0.468105
20
1.49752
11
0.465657
21
1.49725
0
LINE
8
BLACK
6
CONTINUOUS
10
0.465657
20
1.49725
11
0.460287
21
1.49524
0
LINE
8
BLACK
6
CONTINUOUS
10
0.460287
20
1.49524
11
0.455698
21
1.4918
0
LINE
8
BLACK
6
CONTINUOUS
10
0.455698
20
1.4918
11
0.452259
21
1.48721
0
LINE
8
BLACK
6
CONTINUOUS
10
0.452259
20
1.48721
11
0.450246
21
1.48184
0
LINE
8
BLACK
6
CONTINUOUS
10
0.450246
20
1.48184
11
0.44998
21
1.4794
0
LINE
8
BLACK
6
CONTINUOUS
10
0.44998
20
1.4794
11
0.44998
21
1.4156
0
LINE
8
BLACK
6
CONTINUOUS
10
0.44998
20
1.4156
11
0.450246
21
1.41316
0
LINE
8
BLACK
6
CONTINUOUS
10
0.450246
20
1.41316
11
0.452259
21
1.40779
0
LINE
8
BLACK
6
CONTINUOUS
10
0.452259
20
1.40779
11
0.455698
21
1.4032
0
LINE
8
BLACK
6
CONTINUOUS
10
0.455698
20
1.4032
11
0.455981
21
1.40299
0
LINE
8
BLACK
6
CONTINUOUS
10
0.455981
20
1.40299
11
0.458005
21
1.40147
0
LINE
8
BLACK
6
CONTINUOUS
10
0.458005
20
1.40147
11
0.459679
21
1.39923
0
LINE
8
BLACK
6
CONTINUOUS
10
0.459679
20
1.39923
11
0.459877
21
1.39644
0
LINE
8
BLACK
6
CONTINUOUS
10
0.459877
20
1.39644
11
0.458536
21
1.39399
0
LINE
8
BLACK
6
CONTINUOUS
10
0.458536
20
1.39399
11
0.458005
21
1.39353
0
LINE
8
BLACK
6
CONTINUOUS
10
0.458005
20
1.39353
11
0.455698
21
1.3918
0
LINE
8
BLACK
6
CONTINUOUS
10
0.455698
20
1.3918
11
0.452259
21
1.38721
0
LINE
8
BLACK
6
CONTINUOUS
10
0.452259
20
1.38721
11
0.450246
21
1.38184
0
LINE
8
BLACK
6
CONTINUOUS
10
0.450246
20
1.38184
11
0.44998
21
1.3794
0
LINE
8
BLACK
6
CONTINUOUS
10
0.44998
20
1.3794
11
0.44998
21
1.3156
0
LINE
8
BLACK
6
CONTINUOUS
10
0.44998
20
1.3156
11
0.450246
21
1.31316
0
LINE
8
BLACK
6
CONTINUOUS
10
0.450246
20
1.31316
11
0.452259
21
1.30779
0
LINE
8
BLACK
6
CONTINUOUS
10
0.452259
20
1.30779
11
0.455698
21
1.3032
0
LINE
8
BLACK
6
CONTINUOUS
10
0.455698
20
1.3032
11
0.460287
21
1.29976
0
LINE
8
BLACK
6
CONTINUOUS
10
0.460287
20
1.29976
11
0.465657
21
1.29775
0
LINE
8
BLACK
6
CONTINUOUS
10
0.465657
20
1.29775
11
0.468105
21
1.29748
0
LINE
8
BLACK
6
CONTINUOUS
10
0.468105
20
1.29748
11
0.531895
21
1.29748
0
LINE
8
BLACK
6
CONTINUOUS
10
0.531895
20
1.29748
11
0.534343
21
1.29775
0
LINE
8
BLACK
6
CONTINUOUS
10
0.534343
20
1.29775
11
0.539713
21
1.29976
0
LINE
8
BLACK
6
CONTINUOUS
10
0.539713
20
1.29976
11
0.544302
21
1.3032
0
LINE
8
BLACK
6
CONTINUOUS
10
0.544302
20
1.3032
11
0.54603
21
1.30551
0
LINE
8
BLACK
6
CONTINUOUS
10
0.54603
20
1.30551
11
0.548269
21
1.30718
0
LINE
8
BLACK
6
CONTINUOUS
10
0.548269
20
1.30718
11
0.551057
21
1.30738
0
LINE
8
BLACK
6
CONTINUOUS
10
0.551057
20
1.30738
11
0.55351
21
1.30604
0
LINE
8
BLACK
6
CONTINUOUS
10
0.55351
20
1.30604
11
0.553969
21
1.30551
0
LINE
8
BLACK
6
CONTINUOUS
10
0.553969
20
1.30551
11
0.555698
21
1.3032
0
LINE
8
BLACK
6
CONTINUOUS
10
0.555698
20
1.3032
11
0.555959
21
1.303
0
LINE
8
BLACK
6
CONTINUOUS
10
0.555959
20
1.303
11
0.557292
21
1.30056
0
LINE
8
BLACK
6
CONTINUOUS
10
0.557292
20
1.30056
11
0.557093
21
1.29777
0
LINE
8
BLACK
6
CONTINUOUS
10
0.557093
20
1.29777
11
0.555953
21
1.296
0
LINE
8
BLACK
6
CONTINUOUS
10
0.555953
20
1.296
11
0.523946
21
1.26399
0
LINE
8
BLACK
6
CONTINUOUS
10
0.523946
20
1.26399
11
0.521493
21
1.26265
0
LINE
8
BLACK
6
CONTINUOUS
10
0.521493
20
1.26265
11
0.520438
21
1.26254
0
LINE
8
BLACK
6
CONTINUOUS
10
0.520438
20
1.26254
11
0.329967
21
1.26254
0
LINE
8
BLACK
6
CONTINUOUS
10
0.329967
20
1.26254
11
0.327285
21
1.26333
0
LINE
8
BLACK
6
CONTINUOUS
10
0.327285
20
1.26333
11
0.326805
21
1.26368
0
LINE
8
BLACK
6
CONTINUOUS
10
0.326805
20
1.26368
11
0.326684
21
1.26378
0
LINE
8
BLACK
6
CONTINUOUS
10
0.326684
20
1.26378
11
0.326684
21
1.26378
0
LINE
8
BLACK
6
CONTINUOUS
10
0.326684
20
1.26378
11
0.326497
21
1.26393
0
LINE
8
BLACK
6
CONTINUOUS
10
0.326497
20
1.26393
11
0.320024
21
1.26743
0
LINE
8
BLACK
6
CONTINUOUS
10
0.320024
20
1.26743
11
0.31651
21
1.26852
0
LINE
8
BLACK
6
CONTINUOUS
10
0.31651
20
1.26852
11
0.313227
21
1.26954
0
LINE
8
BLACK
6
CONTINUOUS
10
0.313227
20
1.26954
11
0.313227
21
1.26954
0
LINE
8
BLACK
6
CONTINUOUS
10
0.313227
20
1.26954
11
0.312995
21
1.26961
0
LINE
8
BLACK
6
CONTINUOUS
10
0.312995
20
1.26961
11
0.312754
21
1.26963
0
LINE
8
BLACK
6
CONTINUOUS
10
0.312754
20
1.26963
11
0.312754
21
1.26963
0
LINE
8
BLACK
6
CONTINUOUS
10
0.312754
20
1.26963
11
0.305919
21
1.27035
0
LINE
8
BLACK
6
CONTINUOUS
10
0.305919
20
1.27035
11
0.305919
21
1.27035
0
LINE
8
BLACK
6
CONTINUOUS
10
0.305919
20
1.27035
11
0.305678
21
1.27038
0
LINE
8
BLACK
6
CONTINUOUS
10
0.305678
20
1.27038
11
0.301008
21
1.26995
0
LINE
8
BLACK
6
CONTINUOUS
10
0.301008
20
1.26995
11
0.298592
21
1.26973
0
LINE
8
BLACK
6
CONTINUOUS
10
0.298592
20
1.26973
11
0.298592
21
1.26973
0
LINE
8
BLACK
6
CONTINUOUS
10
0.298592
20
1.26973
11
0.29835
21
1.26971
0
LINE
8
BLACK
6
CONTINUOUS
10
0.29835
20
1.26971
11
0.298117
21
1.26964
0
LINE
8
BLACK
6
CONTINUOUS
10
0.298117
20
1.26964
11
0.298117
21
1.26964
0
LINE
8
BLACK
6
CONTINUOUS
10
0.298117
20
1.26964
11
0.293307
21
1.26823
0
LINE
8
BLACK
6
CONTINUOUS
10
0.293307
20
1.26823
11
0.291291
21
1.26763
0
LINE
8
BLACK
6
CONTINUOUS
10
0.291291
20
1.26763
11
0.284771
21
1.26422
0
LINE
8
BLACK
6
CONTINUOUS
10
0.284771
20
1.26422
11
0.279036
21
1.25961
0
LINE
8
BLACK
6
CONTINUOUS
10
0.279036
20
1.25961
11
0.274307
21
1.25398
0
LINE
8
BLACK
6
CONTINUOUS
10
0.274307
20
1.25398
11
0.27419
21
1.25376
0
LINE
8
BLACK
6
CONTINUOUS
10
0.27419
20
1.25376
11
0.27419
21
1.25376
0
LINE
8
BLACK
6
CONTINUOUS
10
0.27419
20
1.25376
11
0.272506
21
1.2507
0
LINE
8
BLACK
6
CONTINUOUS
10
0.272506
20
1.2507
11
0.270762
21
1.24753
0
LINE
8
BLACK
6
CONTINUOUS
10
0.270762
20
1.24753
11
0.270689
21
1.2473
0
LINE
8
BLACK
6
CONTINUOUS
10
0.270689
20
1.2473
11
0.270689
21
1.2473
0
LINE
8
BLACK
6
CONTINUOUS
10
0.270689
20
1.2473
11
0.270179
21
1.24569
0
LINE
8
BLACK
6
CONTINUOUS
10
0.270179
20
1.24569
11
0.268537
21
1.24052
0
LINE
8
BLACK
6
CONTINUOUS
10
0.268537
20
1.24052
11
0.267717
21
1.2332
0
LINE
8
BLACK
6
CONTINUOUS
10
0.267717
20
1.2332
11
0.267737
21
1.23296
0
LINE
8
BLACK
6
CONTINUOUS
10
0.267737
20
1.23296
11
0.268141
21
1.22815
0
LINE
8
BLACK
6
CONTINUOUS
10
0.268141
20
1.22815
11
0.268332
21
1.22587
0
LINE
8
BLACK
6
CONTINUOUS
10
0.268332
20
1.22587
11
0.270361
21
1.2188
0
LINE
8
BLACK
6
CONTINUOUS
10
0.270361
20
1.2188
11
0.273724
21
1.21225
0
LINE
8
BLACK
6
CONTINUOUS
10
0.273724
20
1.21225
11
0.273874
21
1.21206
0
LINE
8
BLACK
6
CONTINUOUS
10
0.273874
20
1.21206
11
0.273875
21
1.21206
0
LINE
8
BLACK
6
CONTINUOUS
10
0.273875
20
1.21206
11
0.277203
21
1.20786
0
LINE
8
BLACK
6
CONTINUOUS
10
0.277203
20
1.20786
11
0.278294
21
1.20649
0
LINE
8
BLACK
6
CONTINUOUS
10
0.278294
20
1.20649
11
0.278479
21
1.20633
0
LINE
8
BLACK
6
CONTINUOUS
10
0.278479
20
1.20633
11
0.2828
21
1.20265
0
LINE
8
BLACK
6
CONTINUOUS
10
0.2828
20
1.20265
11
0.283898
21
1.20172
0
LINE
8
BLACK
6
CONTINUOUS
10
0.283898
20
1.20172
11
0.290321
21
1.19813
0
LINE
8
BLACK
6
CONTINUOUS
10
0.290321
20
1.19813
11
0.297319
21
1.19586
0
LINE
8
BLACK
6
CONTINUOUS
10
0.297319
20
1.19586
11
0.304625
21
1.19498
0
LINE
8
BLACK
6
CONTINUOUS
10
0.304625
20
1.19498
11
0.304866
21
1.195
0
LINE
8
BLACK
6
CONTINUOUS
10
0.304866
20
1.195
11
0.304866
21
1.195
0
LINE
8
BLACK
6
CONTINUOUS
10
0.304866
20
1.195
11
0.307658
21
1.19522
0
LINE
8
BLACK
6
CONTINUOUS
10
0.307658
20
1.19522
11
0.311961
21
1.19555
0
LINE
8
BLACK
6
CONTINUOUS
10
0.311961
20
1.19555
11
0.319048
21
1.19753
0
LINE
8
BLACK
6
CONTINUOUS
10
0.319048
20
1.19753
11
0.319264
21
1.19764
0
LINE
8
BLACK
6
CONTINUOUS
10
0.319264
20
1.19764
11
0.319264
21
1.19764
0
LINE
8
BLACK
6
CONTINUOUS
10
0.319264
20
1.19764
11
0.322795
21
1.19942
0
LINE
8
BLACK
6
CONTINUOUS
10
0.322795
20
1.19942
11
0.325616
21
1.20084
0
LINE
8
BLACK
6
CONTINUOUS
10
0.325616
20
1.20084
11
0.325807
21
1.20099
0
LINE
8
BLACK
6
CONTINUOUS
10
0.325807
20
1.20099
11
0.325807
21
1.20099
0
LINE
8
BLACK
6
CONTINUOUS
10
0.325807
20
1.20099
11
0.326791
21
1.20176
0
LINE
8
BLACK
6
CONTINUOUS
10
0.326791
20
1.20176
11
0.329389
21
1.20279
0
LINE
8
BLACK
6
CONTINUOUS
10
0.329389
20
1.20279
11
0.329845
21
1.20281
0
LINE
8
BLACK
6
CONTINUOUS
10
0.329845
20
1.20281
11
0.532222
21
1.20281
0
LINE
8
BLACK
6
CONTINUOUS
10
0.532222
20
1.20281
11
0.532968
21
1.20276
0
LINE
8
BLACK
6
CONTINUOUS
10
0.532968
20
1.20276
11
0.533528
21
1.20267
0
LINE
8
BLACK
6
CONTINUOUS
10
0.533528
20
1.20267
11
0.533528
21
1.20267
0
LINE
8
BLACK
6
CONTINUOUS
10
0.533528
20
1.20267
11
0.533813
21
1.20263
0
LINE
8
BLACK
6
CONTINUOUS
10
0.533813
20
1.20263
11
0.5341
21
1.20265
0
LINE
8
BLACK
6
CONTINUOUS
10
0.5341
20
1.20265
11
0.5341
21
1.20265
0
LINE
8
BLACK
6
CONTINUOUS
10
0.5341
20
1.20265
11
0.535886
21
1.2028
0
LINE
8
BLACK
6
CONTINUOUS
10
0.535886
20
1.2028
11
0.536289
21
1.20281
0
LINE
8
BLACK
6
CONTINUOUS
10
0.536289
20
1.20281
11
0.536606
21
1.20281
0
LINE
8
BLACK
6
CONTINUOUS
10
0.536606
20
1.20281
11
0.537129
21
1.20288
0
LINE
8
BLACK
6
CONTINUOUS
10
0.537129
20
1.20288
11
0.537717
21
1.20294
0
LINE
8
BLACK
6
CONTINUOUS
10
0.537717
20
1.20294
11
0.537889
21
1.20296
0
LINE
8
BLACK
6
CONTINUOUS
10
0.537889
20
1.20296
11
0.540466
21
1.20317
0
LINE
8
BLACK
6
CONTINUOUS
10
0.540466
20
1.20317
11
0.540466
21
1.20317
0
LINE
8
BLACK
6
CONTINUOUS
10
0.540466
20
1.20317
11
0.540753
21
1.20319
0
LINE
8
BLACK
6
CONTINUOUS
10
0.540753
20
1.20319
11
0.541028
21
1.20328
0
LINE
8
BLACK
6
CONTINUOUS
10
0.541028
20
1.20328
11
0.541262
21
1.20333
0
LINE
8
BLACK
6
CONTINUOUS
10
0.541262
20
1.20333
11
0.541493
21
1.20338
0
LINE
8
BLACK
6
CONTINUOUS
10
0.541493
20
1.20338
11
0.541779
21
1.20342
0
LINE
8
BLACK
6
CONTINUOUS
10
0.541779
20
1.20342
11
0.544481
21
1.2044
0
LINE
8
BLACK
6
CONTINUOUS
10
0.544481
20
1.2044
11
0.544644
21
1.20445
0
LINE
8
BLACK
6
CONTINUOUS
10
0.544644
20
1.20445
11
0.547104
21
1.20525
0
LINE
8
BLACK
6
CONTINUOUS
10
0.547104
20
1.20525
11
0.547104
21
1.20525
0
LINE
8
BLACK
6
CONTINUOUS
10
0.547104
20
1.20525
11
0.547378
21
1.20534
0
LINE
8
BLACK
6
CONTINUOUS
10
0.547378
20
1.20534
11
0.547624
21
1.20549
0
LINE
8
BLACK
6
CONTINUOUS
10
0.547624
20
1.20549
11
0.54784
21
1.20559
0
LINE
8
BLACK
6
CONTINUOUS
10
0.54784
20
1.20559
11
0.548053
21
1.2057
0
LINE
8
BLACK
6
CONTINUOUS
10
0.548053
20
1.2057
11
0.548324
21
1.20579
0
LINE
8
BLACK
6
CONTINUOUS
10
0.548324
20
1.20579
11
0.549142
21
1.20633
0
LINE
8
BLACK
6
CONTINUOUS
10
0.549142
20
1.20633
11
0.550727
21
1.20737
0
LINE
8
BLACK
6
CONTINUOUS
10
0.550727
20
1.20737
11
0.550873
21
1.20746
0
LINE
8
BLACK
6
CONTINUOUS
10
0.550873
20
1.20746
11
0.553331
21
1.20895
0
LINE
8
BLACK
6
CONTINUOUS
10
0.553331
20
1.20895
11
0.553661
21
1.20924
0
LINE
8
BLACK
6
CONTINUOUS
10
0.553661
20
1.20924
11
0.553662
21
1.20924
0
LINE
8
BLACK
6
CONTINUOUS
10
0.553662
20
1.20924
11
0.553779
21
1.20935
0
LINE
8
BLACK
6
CONTINUOUS
10
0.553779
20
1.20935
11
0.553907
21
1.20945
0
LINE
8
BLACK
6
CONTINUOUS
10
0.553907
20
1.20945
11
0.554148
21
1.20961
0
LINE
8
BLACK
6
CONTINUOUS
10
0.554148
20
1.20961
11
0.556245
21
1.21183
0
LINE
8
BLACK
6
CONTINUOUS
10
0.556245
20
1.21183
11
0.556339
21
1.21192
0
LINE
8
BLACK
6
CONTINUOUS
10
0.556339
20
1.21192
11
0.596492
21
1.25208
0
LINE
8
BLACK
6
CONTINUOUS
10
0.596492
20
1.25208
11
0.598946
21
1.25342
0
LINE
8
BLACK
6
CONTINUOUS
10
0.598946
20
1.25342
11
0.601734
21
1.25322
0
LINE
8
BLACK
6
CONTINUOUS
10
0.601734
20
1.25322
11
0.603508
21
1.25208
0
LINE
8
BLACK
6
CONTINUOUS
10
0.603508
20
1.25208
11
0.649832
21
1.20575
0
LINE
8
BLACK
6
CONTINUOUS
10
0.649832
20
1.20575
11
0.65032
21
1.20518
0
LINE
8
BLACK
6
CONTINUOUS
10
0.65032
20
1.20518
11
0.650655
21
1.20473
0
LINE
8
BLACK
6
CONTINUOUS
10
0.650655
20
1.20473
11
0.650656
21
1.20473
0
LINE
8
BLACK
6
CONTINUOUS
10
0.650656
20
1.20473
11
0.650826
21
1.2045
0
LINE
8
BLACK
6
CONTINUOUS
10
0.650826
20
1.2045
11
0.651046
21
1.20431
0
LINE
8
BLACK
6
CONTINUOUS
10
0.651046
20
1.20431
11
0.651046
21
1.20431
0
LINE
8
BLACK
6
CONTINUOUS
10
0.651046
20
1.20431
11
0.652412
21
1.20315
0
LINE
8
BLACK
6
CONTINUOUS
10
0.652412
20
1.20315
11
0.652708
21
1.20288
0
LINE
8
BLACK
6
CONTINUOUS
10
0.652708
20
1.20288
11
0.652932
21
1.20265
0
LINE
8
BLACK
6
CONTINUOUS
10
0.652932
20
1.20265
11
0.653045
21
1.20256
0
LINE
8
BLACK
6
CONTINUOUS
10
0.653045
20
1.20256
11
0.653045
21
1.20256
0
LINE
8
BLACK
6
CONTINUOUS
10
0.653045
20
1.20256
11
0.65381
21
1.20196
0
LINE
8
BLACK
6
CONTINUOUS
10
0.65381
20
1.20196
11
0.653944
21
1.20185
0
LINE
8
BLACK
6
CONTINUOUS
10
0.653944
20
1.20185
11
0.656133
21
1.19999
0
LINE
8
BLACK
6
CONTINUOUS
10
0.656133
20
1.19999
11
0.65639
21
1.19986
0
LINE
8
BLACK
6
CONTINUOUS
10
0.65639
20
1.19986
11
0.656589
21
1.19972
0
LINE
8
BLACK
6
CONTINUOUS
10
0.656589
20
1.19972
11
0.65679
21
1.1996
0
LINE
8
BLACK
6
CONTINUOUS
10
0.65679
20
1.1996
11
0.657016
21
1.19942
0
LINE
8
BLACK
6
CONTINUOUS
10
0.657016
20
1.19942
11
0.657277
21
1.1993
0
LINE
8
BLACK
6
CONTINUOUS
10
0.657277
20
1.1993
11
0.657278
21
1.1993
0
LINE
8
BLACK
6
CONTINUOUS
10
0.657278
20
1.1993
11
0.659619
21
1.1982
0
LINE
8
BLACK
6
CONTINUOUS
10
0.659619
20
1.1982
11
0.659775
21
1.19813
0
LINE
8
BLACK
6
CONTINUOUS
10
0.659775
20
1.19813
11
0.660575
21
1.19772
0
LINE
8
BLACK
6
CONTINUOUS
10
0.660575
20
1.19772
11
0.66095
21
1.19753
0
LINE
8
BLACK
6
CONTINUOUS
10
0.66095
20
1.19753
11
0.662335
21
1.19682
0
LINE
8
BLACK
6
CONTINUOUS
10
0.662335
20
1.19682
11
0.662615
21
1.19675
0
LINE
8
BLACK
6
CONTINUOUS
10
0.662615
20
1.19675
11
0.662837
21
1.19667
0
LINE
8
BLACK
6
CONTINUOUS
10
0.662837
20
1.19667
11
0.663064
21
1.19659
0
LINE
8
BLACK
6
CONTINUOUS
10
0.663064
20
1.19659
11
0.663325
21
1.19647
0
LINE
8
BLACK
6
CONTINUOUS
10
0.663325
20
1.19647
11
0.666139
21
1.19589
0
LINE
8
BLACK
6
CONTINUOUS
10
0.666139
20
1.19589
11
0.666307
21
1.19585
0
LINE
8
BLACK
6
CONTINUOUS
10
0.666307
20
1.19585
11
0.669099
21
1.19517
0
LINE
8
BLACK
6
CONTINUOUS
10
0.669099
20
1.19517
11
0.669319
21
1.19515
0
LINE
8
BLACK
6
CONTINUOUS
10
0.669319
20
1.19515
11
0.669319
21
1.19515
0
LINE
8
BLACK
6
CONTINUOUS
10
0.669319
20
1.19515
11
0.669538
21
1.19514
0
LINE
8
BLACK
6
CONTINUOUS
10
0.669538
20
1.19514
11
0.669538
21
1.19514
0
LINE
8
BLACK
6
CONTINUOUS
10
0.669538
20
1.19514
11
0.669694
21
1.19513
0
LINE
8
BLACK
6
CONTINUOUS
10
0.669694
20
1.19513
11
0.66986
21
1.19511
0
LINE
8
BLACK
6
CONTINUOUS
10
0.66986
20
1.19511
11
0.670142
21
1.19505
0
LINE
8
BLACK
6
CONTINUOUS
10
0.670142
20
1.19505
11
0.673191
21
1.19514
0
LINE
8
BLACK
6
CONTINUOUS
10
0.673191
20
1.19514
11
0.673325
21
1.19514
0
LINE
8
BLACK
6
CONTINUOUS
10
0.673325
20
1.19514
11
0.88502
21
1.19514
0
LINE
8
BLACK
6
CONTINUOUS
10
0.88502
20
1.19514
11
0.887702
21
1.19435
0
LINE
8
BLACK
6
CONTINUOUS
10
0.887702
20
1.19435
11
0.889532
21
1.19224
0
LINE
8
BLACK
6
CONTINUOUS
10
0.889532
20
1.19224
11
0.88998
21
1.19018
0
LINE
8
BLACK
6
CONTINUOUS
10
0.88998
20
1.19018
11
0.88998
21
1.13467
0
LINE
8
BLACK
6
CONTINUOUS
10
0.88998
20
1.13467
11
0.889193
21
1.13198
0
LINE
8
BLACK
6
CONTINUOUS
10
0.889193
20
1.13198
11
0.88708
21
1.13015
0
LINE
8
BLACK
6
CONTINUOUS
10
0.88708
20
1.13015
11
0.88502
21
1.1297
0
LINE
8
BLACK
6
CONTINUOUS
10
0.88502
20
1.1297
11
0.71201
21
1.1297
0
LINE
8
BLACK
6
CONTINUOUS
10
0.71201
20
1.1297
11
0.711543
21
1.12973
0
LINE
8
BLACK
6
CONTINUOUS
10
0.711543
20
1.12973
11
0.711543
21
1.12973
0
LINE
8
BLACK
6
CONTINUOUS
10
0.711543
20
1.12973
11
0.711239
21
1.12979
0
LINE
8
BLACK
6
CONTINUOUS
10
0.711239
20
1.12979
11
0.709073
21
1.12973
0
LINE
8
BLACK
6
CONTINUOUS
10
0.709073
20
1.12973
11
0.70845
21
1.12971
0
LINE
8
BLACK
6
CONTINUOUS
10
0.70845
20
1.12971
11
0.708294
21
1.1297
0
LINE
8
BLACK
6
CONTINUOUS
10
0.708294
20
1.1297
11
0.707148
21
1.1297
0
LINE
8
BLACK
6
CONTINUOUS
10
0.707148
20
1.1297
11
0.706975
21
1.12968
0
LINE
8
BLACK
6
CONTINUOUS
10
0.706975
20
1.12968
11
0.706509
21
1.12965
0
LINE
8
BLACK
6
CONTINUOUS
10
0.706509
20
1.12965
11
0.704692
21
1.12959
0
LINE
8
BLACK
6
CONTINUOUS
10
0.704692
20
1.12959
11
0.703881
21
1.12935
0
LINE
8
BLACK
6
CONTINUOUS
10
0.703881
20
1.12935
11
0.703119
21
1.1292
0
LINE
8
BLACK
6
CONTINUOUS
10
0.703119
20
1.1292
11
0.702844
21
1.12916
0
LINE
8
BLACK
6
CONTINUOUS
10
0.702844
20
1.12916
11
0.70259
21
1.12913
0
LINE
8
BLACK
6
CONTINUOUS
10
0.70259
20
1.12913
11
0.70259
21
1.12913
0
LINE
8
BLACK
6
CONTINUOUS
10
0.70259
20
1.12913
11
0.702281
21
1.12909
0
LINE
8
BLACK
6
CONTINUOUS
10
0.702281
20
1.12909
11
0.701991
21
1.12898
0
LINE
8
BLACK
6
CONTINUOUS
10
0.701991
20
1.12898
11
0.701991
21
1.12898
0
LINE
8
BLACK
6
CONTINUOUS
10
0.701991
20
1.12898
11
0.70059
21
1.12842
0
LINE
8
BLACK
6
CONTINUOUS
10
0.70059
20
1.12842
11
0.700148
21
1.12827
0
LINE
8
BLACK
6
CONTINUOUS
10
0.700148
20
1.12827
11
0.698402
21
1.12776
0
LINE
8
BLACK
6
CONTINUOUS
10
0.698402
20
1.12776
11
0.698402
21
1.12776
0
LINE
8
BLACK
6
CONTINUOUS
10
0.698402
20
1.12776
11
0.698371
21
1.12787
0
LINE
8
BLACK
6
CONTINUOUS
10
0.698371
20
1.12787
11
0.696459
21
1.12757
0
LINE
8
BLACK
6
CONTINUOUS
10
0.696459
20
1.12757
11
0.695505
21
1.12767
0
LINE
8
BLACK
6
CONTINUOUS
10
0.695505
20
1.12767
11
0.695504
21
1.12767
0
LINE
8
BLACK
6
CONTINUOUS
10
0.695504
20
1.12767
11
0.695263
21
1.1277
0
LINE
8
BLACK
6
CONTINUOUS
10
0.695263
20
1.1277
11
0.692287
21
1.12743
0
LINE
8
BLACK
6
CONTINUOUS
10
0.692287
20
1.12743
11
0.688177
21
1.12706
0
LINE
8
BLACK
6
CONTINUOUS
10
0.688177
20
1.12706
11
0.688177
21
1.12706
0
LINE
8
BLACK
6
CONTINUOUS
10
0.688177
20
1.12706
11
0.687936
21
1.12703
0
LINE
8
BLACK
6
CONTINUOUS
10
0.687936
20
1.12703
11
0.687703
21
1.12696
0
LINE
8
BLACK
6
CONTINUOUS
10
0.687703
20
1.12696
11
0.687703
21
1.12696
0
LINE
8
BLACK
6
CONTINUOUS
10
0.687703
20
1.12696
11
0.684309
21
1.12597
0
LINE
8
BLACK
6
CONTINUOUS
10
0.684309
20
1.12597
11
0.680877
21
1.12496
0
LINE
8
BLACK
6
CONTINUOUS
10
0.680877
20
1.12496
11
0.680662
21
1.12484
0
LINE
8
BLACK
6
CONTINUOUS
10
0.680662
20
1.12484
11
0.67664
21
1.12274
0
LINE
8
BLACK
6
CONTINUOUS
10
0.67664
20
1.12274
11
0.674356
21
1.12155
0
LINE
8
BLACK
6
CONTINUOUS
10
0.674356
20
1.12155
11
0.668622
21
1.11694
0
LINE
8
BLACK
6
CONTINUOUS
10
0.668622
20
1.11694
11
0.666132
21
1.11397
0
LINE
8
BLACK
6
CONTINUOUS
10
0.666132
20
1.11397
11
0.664254
21
1.11173
0
LINE
8
BLACK
6
CONTINUOUS
10
0.664254
20
1.11173
11
0.663892
21
1.1113
0
LINE
8
BLACK
6
CONTINUOUS
10
0.663892
20
1.1113
11
0.663776
21
1.11109
0
LINE
8
BLACK
6
CONTINUOUS
10
0.663776
20
1.11109
11
0.663775
21
1.11109
0
LINE
8
BLACK
6
CONTINUOUS
10
0.663775
20
1.11109
11
0.661471
21
1.1069
0
LINE
8
BLACK
6
CONTINUOUS
10
0.661471
20
1.1069
11
0.660347
21
1.10485
0
LINE
8
BLACK
6
CONTINUOUS
10
0.660347
20
1.10485
11
0.660274
21
1.10462
0
LINE
8
BLACK
6
CONTINUOUS
10
0.660274
20
1.10462
11
0.660274
21
1.10462
0
LINE
8
BLACK
6
CONTINUOUS
10
0.660274
20
1.10462
11
0.660083
21
1.10402
0
LINE
8
BLACK
6
CONTINUOUS
10
0.660083
20
1.10402
11
0.658123
21
1.09784
0
LINE
8
BLACK
6
CONTINUOUS
10
0.658123
20
1.09784
11
0.657302
21
1.09053
0
LINE
8
BLACK
6
CONTINUOUS
10
0.657302
20
1.09053
11
0.657918
21
1.08319
0
LINE
8
BLACK
6
CONTINUOUS
10
0.657918
20
1.08319
11
0.657985
21
1.08296
0
LINE
8
BLACK
6
CONTINUOUS
10
0.657985
20
1.08296
11
0.657985
21
1.08296
0
LINE
8
BLACK
6
CONTINUOUS
10
0.657985
20
1.08296
11
0.659272
21
1.07847
0
LINE
8
BLACK
6
CONTINUOUS
10
0.659272
20
1.07847
11
0.659254
21
1.07568
0
LINE
8
BLACK
6
CONTINUOUS
10
0.659254
20
1.07568
11
0.657728
21
1.07334
0
LINE
8
BLACK
6
CONTINUOUS
10
0.657728
20
1.07334
11
0.655178
21
1.07219
0
LINE
8
BLACK
6
CONTINUOUS
10
0.655178
20
1.07219
11
0.654503
21
1.07215
0
LINE
8
BLACK
6
CONTINUOUS
10
0.654503
20
1.07215
11
0.242605
21
1.07215
0
LINE
8
BLACK
6
CONTINUOUS
10
0.242605
20
1.07215
11
0.239923
21
1.07293
0
LINE
8
BLACK
6
CONTINUOUS
10
0.239923
20
1.07293
11
0.239097
21
1.0736
0
LINE
8
BLACK
6
CONTINUOUS
10
0.239097
20
1.0736
11
0.218778
21
1.09392
0
LINE
8
BLACK
6
CONTINUOUS
10
0.218778
20
1.09392
11
0.218547
21
1.09416
0
LINE
8
BLACK
6
CONTINUOUS
10
0.218547
20
1.09416
11
0.218137
21
1.09463
0
LINE
8
BLACK
6
CONTINUOUS
10
0.218137
20
1.09463
11
0.21705
21
1.09588
0
LINE
8
BLACK
6
CONTINUOUS
10
0.21705
20
1.09588
11
0.214991
21
1.09733
0
LINE
8
BLACK
6
CONTINUOUS
10
0.214991
20
1.09733
11
0.214783
21
1.09748
0
LINE
8
BLACK
6
CONTINUOUS
10
0.214783
20
1.09748
11
0.213039
21
1.09885
0
LINE
8
BLACK
6
CONTINUOUS
10
0.213039
20
1.09885
11
0.212804
21
1.09903
0
LINE
8
BLACK
6
CONTINUOUS
10
0.212804
20
1.09903
11
0.212532
21
1.09916
0
LINE
8
BLACK
6
CONTINUOUS
10
0.212532
20
1.09916
11
0.212442
21
1.09921
0
LINE
8
BLACK
6
CONTINUOUS
10
0.212442
20
1.09921
11
0.211864
21
1.09954
0
LINE
8
BLACK
6
CONTINUOUS
10
0.211864
20
1.09954
11
0.211771
21
1.09959
0
LINE
8
BLACK
6
CONTINUOUS
10
0.211771
20
1.09959
11
0.211526
21
1.09976
0
LINE
8
BLACK
6
CONTINUOUS
10
0.211526
20
1.09976
11
0.211247
21
1.09987
0
LINE
8
BLACK
6
CONTINUOUS
10
0.211247
20
1.09987
11
0.211247
21
1.09987
0
LINE
8
BLACK
6
CONTINUOUS
10
0.211247
20
1.09987
11
0.209182
21
1.10068
0
LINE
8
BLACK
6
CONTINUOUS
10
0.209182
20
1.10068
11
0.208943
21
1.10078
0
LINE
8
BLACK
6
CONTINUOUS
10
0.208943
20
1.10078
11
0.206651
21
1.10181
0
LINE
8
BLACK
6
CONTINUOUS
10
0.206651
20
1.10181
11
0.206357
21
1.10187
0
LINE
8
BLACK
6
CONTINUOUS
10
0.206357
20
1.10187
11
0.206071
21
1.10196
0
LINE
8
BLACK
6
CONTINUOUS
10
0.206071
20
1.10196
11
0.206105
21
1.10207
0
LINE
8
BLACK
6
CONTINUOUS
10
0.206105
20
1.10207
11
0.204082
21
1.10309
0
LINE
8
BLACK
6
CONTINUOUS
10
0.204082
20
1.10309
11
0.202668
21
1.1055
0
LINE
8
BLACK
6
CONTINUOUS
10
0.202668
20
1.1055
11
0.202529
21
1.10663
0
LINE
8
BLACK
6
CONTINUOUS
10
0.202529
20
1.10663
11
0.202527
21
1.10663
0
LINE
8
BLACK
6
CONTINUOUS
10
0.202527
20
1.10663
11
0.202525
21
1.10666
0
LINE
8
BLACK
6
CONTINUOUS
10
0.202525
20
1.10666
11
0.20252
21
1.1067
0
LINE
8
BLACK
6
CONTINUOUS
10
0.20252
20
1.1067
11
0.20252
21
1.1069
0
LINE
8
BLACK
6
CONTINUOUS
10
0.20252
20
1.1069
11
0.202254
21
1.10934
0
LINE
8
BLACK
6
CONTINUOUS
10
0.202254
20
1.10934
11
0.200241
21
1.11471
0
LINE
8
BLACK
6
CONTINUOUS
10
0.200241
20
1.11471
11
0.196802
21
1.1193
0
LINE
8
BLACK
6
CONTINUOUS
10
0.196802
20
1.1193
11
0.194495
21
1.12103
0
LINE
8
BLACK
6
CONTINUOUS
10
0.194495
20
1.12103
11
0.192821
21
1.12327
0
LINE
8
BLACK
6
CONTINUOUS
10
0.192821
20
1.12327
11
0.192623
21
1.12606
0
LINE
8
BLACK
6
CONTINUOUS
10
0.192623
20
1.12606
11
0.193964
21
1.12851
0
LINE
8
BLACK
6
CONTINUOUS
10
0.193964
20
1.12851
11
0.194495
21
1.12897
0
LINE
8
BLACK
6
CONTINUOUS
10
0.194495
20
1.12897
11
0.195407
21
1.12965
0
LINE
8
BLACK
6
CONTINUOUS
10
0.195407
20
1.12965
11
0.196802
21
1.1307
0
LINE
8
BLACK
6
CONTINUOUS
10
0.196802
20
1.1307
11
0.200241
21
1.13529
0
LINE
8
BLACK
6
CONTINUOUS
10
0.200241
20
1.13529
11
0.202254
21
1.14066
0
LINE
8
BLACK
6
CONTINUOUS
10
0.202254
20
1.14066
11
0.20252
21
1.1431
0
LINE
8
BLACK
6
CONTINUOUS
10
0.20252
20
1.1431
11
0.20252
21
1.2069
0
LINE
8
BLACK
6
CONTINUOUS
10
0.20252
20
1.2069
11
0.202254
21
1.20934
0
LINE
8
BLACK
6
CONTINUOUS
10
0.202254
20
1.20934
11
0.200241
21
1.21471
0
LINE
8
BLACK
6
CONTINUOUS
10
0.200241
20
1.21471
11
0.196802
21
1.2193
0
LINE
8
BLACK
6
CONTINUOUS
10
0.196802
20
1.2193
11
0.192213
21
1.22274
0
LINE
8
BLACK
6
CONTINUOUS
10
0.192213
20
1.22274
11
0.186843
21
1.22475
0
LINE
8
BLACK
6
CONTINUOUS
10
0.186843
20
1.22475
11
0.184395
21
1.22502
0
LINE
8
BLACK
6
CONTINUOUS
10
0.184395
20
1.22502
11
0.120605
21
1.22502
0
LINE
8
BLACK
6
CONTINUOUS
10
0.120605
20
1.22502
11
0.118157
21
1.22475
0
LINE
8
BLACK
6
CONTINUOUS
10
0.118157
20
1.22475
11
0.112787
21
1.22274
0
LINE
8
BLACK
6
CONTINUOUS
10
0.112787
20
1.22274
11
0.108198
21
1.2193
0
LINE
8
BLACK
6
CONTINUOUS
10
0.108198
20
1.2193
11
0.104759
21
1.21471
0
LINE
8
BLACK
6
CONTINUOUS
10
0.104759
20
1.21471
11
0.102746
21
1.20934
0
LINE
8
BLACK
6
CONTINUOUS
10
0.102746
20
1.20934
11
0.10248
21
1.2069
0
LINE
8
BLACK
6
CONTINUOUS
10
0.10248
20
1.2069
11
0.10248
21
1.1431
0
LINE
8
BLACK
6
CONTINUOUS
10
0.10248
20
1.1431
11
0.102746
21
1.14066
0
LINE
8
BLACK
6
CONTINUOUS
10
0.102746
20
1.14066
11
0.104759
21
1.13529
0
LINE
8
BLACK
6
CONTINUOUS
10
0.104759
20
1.13529
11
0.108198
21
1.1307
0
LINE
8
BLACK
6
CONTINUOUS
10
0.108198
20
1.1307
11
0.109593
21
1.12965
0
LINE
8
BLACK
6
CONTINUOUS
10
0.109593
20
1.12965
11
0.110505
21
1.12897
0
LINE
8
BLACK
6
CONTINUOUS
10
0.110505
20
1.12897
11
0.112179
21
1.12673
0
LINE
8
BLACK
6
CONTINUOUS
10
0.112179
20
1.12673
11
0.112377
21
1.12394
0
LINE
8
BLACK
6
CONTINUOUS
10
0.112377
20
1.12394
11
0.111036
21
1.12149
0
LINE
8
BLACK
6
CONTINUOUS
10
0.111036
20
1.12149
11
0.110505
21
1.12103
0
LINE
8
BLACK
6
CONTINUOUS
10
0.110505
20
1.12103
11
0.108198
21
1.1193
0
LINE
8
BLACK
6
CONTINUOUS
10
0.108198
20
1.1193
11
0.104759
21
1.11471
0
LINE
8
BLACK
6
CONTINUOUS
10
0.104759
20
1.11471
11
0.102746
21
1.10934
0
LINE
8
BLACK
6
CONTINUOUS
10
0.102746
20
1.10934
11
0.10248
21
1.1069
0
LINE
8
BLACK
6
CONTINUOUS
10
0.10248
20
1.1069
11
0.10248
21
1.0431
0
LINE
8
BLACK
6
CONTINUOUS
10
0.10248
20
1.0431
11
0.102746
21
1.04066
0
LINE
8
BLACK
6
CONTINUOUS
10
0.102746
20
1.04066
11
0.104759
21
1.03529
0
LINE
8
BLACK
6
CONTINUOUS
10
0.104759
20
1.03529
11
0.108198
21
1.0307
0
LINE
8
BLACK
6
CONTINUOUS
10
0.108198
20
1.0307
11
0.108481
21
1.03049
0
LINE
8
BLACK
6
CONTINUOUS
10
0.108481
20
1.03049
11
0.110505
21
1.02897
0
LINE
8
BLACK
6
CONTINUOUS
10
0.110505
20
1.02897
11
0.112179
21
1.02673
0
LINE
8
BLACK
6
CONTINUOUS
10
0.112179
20
1.02673
11
0.112377
21
1.02394
0
LINE
8
BLACK
6
CONTINUOUS
10
0.112377
20
1.02394
11
0.111036
21
1.02149
0
LINE
8
BLACK
6
CONTINUOUS
10
0.111036
20
1.02149
11
0.110505
21
1.02103
0
LINE
8
BLACK
6
CONTINUOUS
10
0.110505
20
1.02103
11
0.108198
21
1.0193
0
LINE
8
BLACK
6
CONTINUOUS
10
0.108198
20
1.0193
11
0.104759
21
1.01471
0
LINE
8
BLACK
6
CONTINUOUS
10
0.104759
20
1.01471
11
0.102746
21
1.00934
0
LINE
8
BLACK
6
CONTINUOUS
10
0.102746
20
1.00934
11
0.10248
21
1.0069
0
LINE
8
BLACK
6
CONTINUOUS
10
0.10248
20
1.0069
11
0.10248
21
0.943105
0
LINE
8
BLACK
6
CONTINUOUS
10
0.10248
20
0.943105
11
0.102746
21
0.940657
0
LINE
8
BLACK
6
CONTINUOUS
10
0.102746
20
0.940657
11
0.104759
21
0.935287
0
LINE
8
BLACK
6
CONTINUOUS
10
0.28
20
0.48
11
0.22
21
0.48
0
LINE
8
BLACK
6
CONTINUOUS
10
0.22
20
0.48
11
0.22
21
0.54
0
LINE
8
BLACK
6
CONTINUOUS
10
0.22
20
0.54
11
0.28
21
0.54
0
LINE
8
BLACK
6
CONTINUOUS
10
0.28
20
0.54
11
0.28
21
0.48
0
LINE
8
BLACK
6
CONTINUOUS
10
0.18
20
0.48
11
0.12
21
0.48
0
LINE
8
BLACK
6
CONTINUOUS
10
0.12
20
0.48
11
0.12
21
0.54
0
LINE
8
BLACK
6
CONTINUOUS
10
0.12
20
0.54
11
0.18
21
0.54
0
LINE
8
BLACK
6
CONTINUOUS
10
0.18
20
0.54
11
0.18
21
0.48
0
LINE
8
BLACK
6
CONTINUOUS
10
0.622587
20
0.929808
11
0.62734
21
0.928386
0
LINE
8
BLACK
6
CONTINUOUS
10
0.62734
20
0.928386
11
0.631504
21
0.925687
0
LINE
8
BLACK
6
CONTINUOUS
10
0.631504
20
0.925687
11
0.634743
21
0.921929
0
LINE
8
BLACK
6
CONTINUOUS
10
0.634743
20
0.921929
11
0.636345
21
0.918406
0
LINE
8
BLACK
6
CONTINUOUS
10
0.636345
20
0.918406
11
0.749311
21
0.918406
0
LINE
8
BLACK
6
CONTINUOUS
10
0.749311
20
0.918406
11
0.750062
21
0.918204
0
LINE
8
BLACK
6
CONTINUOUS
10
0.750062
20
0.918204
11
0.750839
21
0.918204
0
LINE
8
BLACK
6
CONTINUOUS
10
0.750839
20
0.918204
11
0.751513
21
0.917816
0
LINE
8
BLACK
6
CONTINUOUS
10
0.751513
20
0.917816
11
0.752264
21
0.917614
0
LINE
8
BLACK
6
CONTINUOUS
10
0.752264
20
0.917614
11
0.752814
21
0.917065
0
LINE
8
BLACK
6
CONTINUOUS
10
0.752814
20
0.917065
11
0.753487
21
0.916676
0
LINE
8
BLACK
6
CONTINUOUS
10
0.753487
20
0.916676
11
0.794176
21
0.875987
0
LINE
8
BLACK
6
CONTINUOUS
10
0.794176
20
0.875987
11
0.794565
21
0.875314
0
LINE
8
BLACK
6
CONTINUOUS
10
0.794565
20
0.875314
11
0.795114
21
0.874764
0
LINE
8
BLACK
6
CONTINUOUS
10
0.795114
20
0.874764
11
0.795316
21
0.874013
0
LINE
8
BLACK
6
CONTINUOUS
10
0.795316
20
0.874013
11
0.795704
21
0.873339
0
LINE
8
BLACK
6
CONTINUOUS
10
0.795704
20
0.873339
11
0.795704
21
0.872562
0
LINE
8
BLACK
6
CONTINUOUS
10
0.795704
20
0.872562
11
0.795906
21
0.871811
0
LINE
8
BLACK
6
CONTINUOUS
10
0.795906
20
0.871811
11
0.795906
21
0.86
0
LINE
8
BLACK
6
CONTINUOUS
10
0.795906
20
0.86
11
0.82
21
0.86
0
LINE
8
BLACK
6
CONTINUOUS
10
0.82
20
0.86
11
0.82
21
0.8
0
LINE
8
BLACK
6
CONTINUOUS
10
0.82
20
0.8
11
0.76
21
0.8
0
LINE
8
BLACK
6
CONTINUOUS
10
0.76
20
0.8
11
0.76
21
0.86
0
LINE
8
BLACK
6
CONTINUOUS
10
0.76
20
0.86
11
0.784094
21
0.86
0
LINE
8
BLACK
6
CONTINUOUS
10
0.784094
20
0.86
11
0.784094
21
0.869365
0
LINE
8
BLACK
6
CONTINUOUS
10
0.784094
20
0.869365
11
0.746865
21
0.906594
0
LINE
8
BLACK
6
CONTINUOUS
10
0.746865
20
0.906594
11
0.636388
21
0.906594
0
LINE
8
BLACK
6
CONTINUOUS
10
0.636388
20
0.906594
11
0.634508
21
0.902714
0
LINE
8
BLACK
6
CONTINUOUS
10
0.634508
20
0.902714
11
0.631178
21
0.899036
0
LINE
8
BLACK
6
CONTINUOUS
10
0.631178
20
0.899036
11
0.62695
21
0.896439
0
LINE
8
BLACK
6
CONTINUOUS
10
0.62695
20
0.896439
11
0.622163
21
0.895134
0
LINE
8
BLACK
6
CONTINUOUS
10
0.622163
20
0.895134
11
0.617202
21
0.895225
0
LINE
8
BLACK
6
CONTINUOUS
10
0.617202
20
0.895225
11
0.612466
21
0.896705
0
LINE
8
BLACK
6
CONTINUOUS
10
0.612466
20
0.896705
11
0.608336
21
0.899454
0
LINE
8
BLACK
6
CONTINUOUS
10
0.608336
20
0.899454
11
0.605143
21
0.903252
0
LINE
8
BLACK
6
CONTINUOUS
10
0.605143
20
0.903252
11
0.603145
21
0.907794
0
LINE
8
BLACK
6
CONTINUOUS
10
0.603145
20
0.907794
11
0.602501
21
0.912714
0
LINE
8
BLACK
6
CONTINUOUS
10
0.602501
20
0.912714
11
0.603265
21
0.917616
0
LINE
8
BLACK
6
CONTINUOUS
10
0.603265
20
0.917616
11
0.605373
21
0.922108
0
LINE
8
BLACK
6
CONTINUOUS
10
0.605373
20
0.922108
11
0.608658
21
0.925827
0
LINE
8
BLACK
6
CONTINUOUS
10
0.608658
20
0.925827
11
0.612854
21
0.928475
0
LINE
8
BLACK
6
CONTINUOUS
10
0.612854
20
0.928475
11
0.617625
21
0.929838
0
LINE
8
BLACK
6
CONTINUOUS
10
0.617625
20
0.929838
11
0.622587
21
0.929808
0
LINE
8
BLACK
6
CONTINUOUS
10
0.706791
20
1.05183
11
0.708098
21
1.05168
0
LINE
8
BLACK
6
CONTINUOUS
10
0.708098
20
1.05168
11
0.708482
21
1.05144
0
LINE
8
BLACK
6
CONTINUOUS
10
0.708482
20
1.05144
11
0.708923
21
1.05134
0
LINE
8
BLACK
6
CONTINUOUS
10
0.708923
20
1.05134
11
0.70995
21
1.05052
0
LINE
8
BLACK
6
CONTINUOUS
10
0.70995
20
1.05052
11
0.711064
21
1.04982
0
LINE
8
BLACK
6
CONTINUOUS
10
0.711064
20
1.04982
11
0.797883
21
0.963001
0
LINE
8
BLACK
6
CONTINUOUS
10
0.797883
20
0.963001
11
0.80086
21
0.963851
0
LINE
8
BLACK
6
CONTINUOUS
10
0.80086
20
0.963851
11
0.805821
21
0.963821
0
LINE
8
BLACK
6
CONTINUOUS
10
0.805821
20
0.963821
11
0.810575
21
0.962399
0
LINE
8
BLACK
6
CONTINUOUS
10
0.810575
20
0.962399
11
0.814739
21
0.959701
0
LINE
8
BLACK
6
CONTINUOUS
10
0.814739
20
0.959701
11
0.817977
21
0.955942
0
LINE
8
BLACK
6
CONTINUOUS
10
0.817977
20
0.955942
11
0.820031
21
0.951425
0
LINE
8
BLACK
6
CONTINUOUS
10
0.820031
20
0.951425
11
0.820735
21
0.946513
0
LINE
8
BLACK
6
CONTINUOUS
10
0.820735
20
0.946513
11
0.820729
21
0.946086
0
LINE
8
BLACK
6
CONTINUOUS
10
0.820729
20
0.946086
11
0.819906
21
0.941193
0
LINE
8
BLACK
6
CONTINUOUS
10
0.819906
20
0.941193
11
0.817743
21
0.936727
0
LINE
8
BLACK
6
CONTINUOUS
10
0.817743
20
0.936727
11
0.814413
21
0.933049
0
LINE
8
BLACK
6
CONTINUOUS
10
0.814413
20
0.933049
11
0.810185
21
0.930453
0
LINE
8
BLACK
6
CONTINUOUS
10
0.810185
20
0.930453
11
0.805398
21
0.929147
0
LINE
8
BLACK
6
CONTINUOUS
10
0.805398
20
0.929147
11
0.800437
21
0.929238
0
LINE
8
BLACK
6
CONTINUOUS
10
0.800437
20
0.929238
11
0.795701
21
0.930718
0
LINE
8
BLACK
6
CONTINUOUS
10
0.795701
20
0.930718
11
0.79157
21
0.933467
0
LINE
8
BLACK
6
CONTINUOUS
10
0.79157
20
0.933467
11
0.788378
21
0.937266
0
LINE
8
BLACK
6
CONTINUOUS
10
0.788378
20
0.937266
11
0.786379
21
0.941807
0
LINE
8
BLACK
6
CONTINUOUS
10
0.786379
20
0.941807
11
0.785736
21
0.946727
0
LINE
8
BLACK
6
CONTINUOUS
10
0.785736
20
0.946727
11
0.786499
21
0.95163
0
LINE
8
BLACK
6
CONTINUOUS
10
0.786499
20
0.95163
11
0.786654
21
0.951959
0
LINE
8
BLACK
6
CONTINUOUS
10
0.786654
20
0.951959
11
0.702234
21
1.03638
0
LINE
8
BLACK
6
CONTINUOUS
10
0.702234
20
1.03638
11
0.228982
21
1.03638
0
LINE
8
BLACK
6
CONTINUOUS
10
0.228982
20
1.03638
11
0.2277
21
1.03667
0
LINE
8
BLACK
6
CONTINUOUS
10
0.2277
20
1.03667
11
0.226394
21
1.03682
0
LINE
8
BLACK
6
CONTINUOUS
10
0.226394
20
1.03682
11
0.22601
21
1.03706
0
LINE
8
BLACK
6
CONTINUOUS
10
0.22601
20
1.03706
11
0.225569
21
1.03716
0
LINE
8
BLACK
6
CONTINUOUS
10
0.225569
20
1.03716
11
0.224542
21
1.03798
0
LINE
8
BLACK
6
CONTINUOUS
10
0.224542
20
1.03798
11
0.223428
21
1.03868
0
LINE
8
BLACK
6
CONTINUOUS
10
0.223428
20
1.03868
11
0.194986
21
1.06713
0
LINE
8
BLACK
6
CONTINUOUS
10
0.194986
20
1.06713
11
0.1825
21
1.06713
0
LINE
8
BLACK
6
CONTINUOUS
10
0.1825
20
1.06713
11
0.1825
21
1.045
0
LINE
8
BLACK
6
CONTINUOUS
10
0.1825
20
1.045
11
0.1225
21
1.045
0
LINE
8
BLACK
6
CONTINUOUS
10
0.1225
20
1.045
11
0.1225
21
1.105
0
LINE
8
BLACK
6
CONTINUOUS
10
0.1225
20
1.105
11
0.1825
21
1.105
0
LINE
8
BLACK
6
CONTINUOUS
10
0.1825
20
1.105
11
0.1825
21
1.08287
0
LINE
8
BLACK
6
CONTINUOUS
10
0.1825
20
1.08287
11
0.198262
21
1.08287
0
LINE
8
BLACK
6
CONTINUOUS
10
0.198262
20
1.08287
11
0.199544
21
1.08258
0
LINE
8
BLACK
6
CONTINUOUS
10
0.199544
20
1.08258
11
0.20085
21
1.08243
0
LINE
8
BLACK
6
CONTINUOUS
10
0.20085
20
1.08243
11
0.201234
21
1.08219
0
LINE
8
BLACK
6
CONTINUOUS
10
0.201234
20
1.08219
11
0.201675
21
1.08209
0
LINE
8
BLACK
6
CONTINUOUS
10
0.201675
20
1.08209
11
0.202702
21
1.08127
0
LINE
8
BLACK
6
CONTINUOUS
10
0.202702
20
1.08127
11
0.203816
21
1.08057
0
LINE
8
BLACK
6
CONTINUOUS
10
0.203816
20
1.08057
11
0.232258
21
1.05213
0
LINE
8
BLACK
6
CONTINUOUS
10
0.232258
20
1.05213
11
0.70551
21
1.05213
0
LINE
8
BLACK
6
CONTINUOUS
10
0.70551
20
1.05213
11
0.706791
21
1.05183
0
LINE
8
BLACK
6
CONTINUOUS
10
0.938782
20
1.10948
11
0.93956
21
1.10948
0
LINE
8
BLACK
6
CONTINUOUS
10
0.93956
20
1.10948
11
0.940233
21
1.1091
0
LINE
8
BLACK
6
CONTINUOUS
10
0.940233
20
1.1091
11
0.940984
21
1.10889
0
LINE
8
BLACK
6
CONTINUOUS
10
0.940984
20
1.10889
11
0.941534
21
1.10834
0
LINE
8
BLACK
6
CONTINUOUS
10
0.941534
20
1.10834
11
0.942207
21
1.10796
0
LINE
8
BLACK
6
CONTINUOUS
10
0.942207
20
1.10796
11
0.944176
21
1.10599
0
LINE
8
BLACK
6
CONTINUOUS
10
0.944176
20
1.10599
11
0.944565
21
1.10531
0
LINE
8
BLACK
6
CONTINUOUS
10
0.944565
20
1.10531
11
0.945114
21
1.10476
0
LINE
8
BLACK
6
CONTINUOUS
10
0.945114
20
1.10476
11
0.945316
21
1.10401
0
LINE
8
BLACK
6
CONTINUOUS
10
0.945316
20
1.10401
11
0.945704
21
1.10334
0
LINE
8
BLACK
6
CONTINUOUS
10
0.945704
20
1.10334
11
0.945704
21
1.10256
0
LINE
8
BLACK
6
CONTINUOUS
10
0.945704
20
1.10256
11
0.945906
21
1.10181
0
LINE
8
BLACK
6
CONTINUOUS
10
0.945906
20
1.10181
11
0.945906
21
1.09
0
LINE
8
BLACK
6
CONTINUOUS
10
0.945906
20
1.09
11
0.97
21
1.09
0
LINE
8
BLACK
6
CONTINUOUS
10
0.97
20
1.09
11
0.97
21
1.03
0
LINE
8
BLACK
6
CONTINUOUS
10
0.97
20
1.03
11
0.91
21
1.03
0
LINE
8
BLACK
6
CONTINUOUS
10
0.91
20
1.03
11
0.91
21
1.09
0
LINE
8
BLACK
6
CONTINUOUS
10
0.91
20
1.09
11
0.934094
21
1.09
0
LINE
8
BLACK
6
CONTINUOUS
10
0.934094
20
1.09
11
0.934094
21
1.09787
0
LINE
8
BLACK
6
CONTINUOUS
10
0.934094
20
1.09787
11
0.711226
21
1.09787
0
LINE
8
BLACK
6
CONTINUOUS
10
0.711226
20
1.09787
11
0.710692
21
1.09734
0
LINE
8
BLACK
6
CONTINUOUS
10
0.710692
20
1.09734
11
0.711797
21
1.09491
0
LINE
8
BLACK
6
CONTINUOUS
10
0.711797
20
1.09491
11
0.7125
21
1.09
0
LINE
8
BLACK
6
CONTINUOUS
10
0.7125
20
1.09
11
0.712495
21
1.08957
0
LINE
8
BLACK
6
CONTINUOUS
10
0.712495
20
1.08957
11
0.711672
21
1.08468
0
LINE
8
BLACK
6
CONTINUOUS
10
0.711672
20
1.08468
11
0.709508
21
1.08021
0
LINE
8
BLACK
6
CONTINUOUS
10
0.709508
20
1.08021
11
0.706178
21
1.07654
0
LINE
8
BLACK
6
CONTINUOUS
10
0.706178
20
1.07654
11
0.70195
21
1.07394
0
LINE
8
BLACK
6
CONTINUOUS
10
0.70195
20
1.07394
11
0.697163
21
1.07263
0
LINE
8
BLACK
6
CONTINUOUS
10
0.697163
20
1.07263
11
0.692202
21
1.07273
0
LINE
8
BLACK
6
CONTINUOUS
10
0.692202
20
1.07273
11
0.687466
21
1.0742
0
LINE
8
BLACK
6
CONTINUOUS
10
0.687466
20
1.0742
11
0.683336
21
1.07695
0
LINE
8
BLACK
6
CONTINUOUS
10
0.683336
20
1.07695
11
0.680143
21
1.08075
0
LINE
8
BLACK
6
CONTINUOUS
10
0.680143
20
1.08075
11
0.678145
21
1.08529
0
LINE
8
BLACK
6
CONTINUOUS
10
0.678145
20
1.08529
11
0.677501
21
1.09021
0
LINE
8
BLACK
6
CONTINUOUS
10
0.677501
20
1.09021
11
0.678265
21
1.09512
0
LINE
8
BLACK
6
CONTINUOUS
10
0.678265
20
1.09512
11
0.680373
21
1.09961
0
LINE
8
BLACK
6
CONTINUOUS
10
0.680373
20
1.09961
11
0.683658
21
1.10333
0
LINE
8
BLACK
6
CONTINUOUS
10
0.683658
20
1.10333
11
0.687854
21
1.10597
0
LINE
8
BLACK
6
CONTINUOUS
10
0.687854
20
1.10597
11
0.692625
21
1.10734
0
LINE
8
BLACK
6
CONTINUOUS
10
0.692625
20
1.10734
11
0.697587
21
1.10731
0
LINE
8
BLACK
6
CONTINUOUS
10
0.697587
20
1.10731
11
0.70234
21
1.10589
0
LINE
8
BLACK
6
CONTINUOUS
10
0.70234
20
1.10589
11
0.702458
21
1.10581
0
LINE
8
BLACK
6
CONTINUOUS
10
0.702458
20
1.10581
11
0.704604
21
1.10796
0
LINE
8
BLACK
6
CONTINUOUS
10
0.704604
20
1.10796
11
0.705277
21
1.10834
0
LINE
8
BLACK
6
CONTINUOUS
10
0.705277
20
1.10834
11
0.705827
21
1.10889
0
LINE
8
BLACK
6
CONTINUOUS
10
0.705827
20
1.10889
11
0.706578
21
1.1091
0
LINE
8
BLACK
6
CONTINUOUS
10
0.706578
20
1.1091
11
0.707251
21
1.10948
0
LINE
8
BLACK
6
CONTINUOUS
10
0.707251
20
1.10948
11
0.708029
21
1.10948
0
LINE
8
BLACK
6
CONTINUOUS
10
0.708029
20
1.10948
11
0.70878
21
1.10969
0
LINE
8
BLACK
6
CONTINUOUS
10
0.70878
20
1.10969
11
0.938031
21
1.10969
0
LINE
8
BLACK
6
CONTINUOUS
10
0.938031
20
1.10969
11
0.938782
21
1.10948
0
LINE
8
BLACK
6
CONTINUOUS
10
1.07
20
1.03
11
1.01
21
1.03
0
LINE
8
BLACK
6
CONTINUOUS
10
1.01
20
1.03
11
1.01
21
1.09
0
LINE
8
BLACK
6
CONTINUOUS
10
1.01
20
1.09
11
1.07
21
1.09
0
LINE
8
BLACK
6
CONTINUOUS
10
1.07
20
1.09
11
1.07
21
1.03
0
LINE
8
BLACK
6
CONTINUOUS
10
0.795
20
0.13815
11
0.645
21
0.13815
0
LINE
8
BLACK
6
CONTINUOUS
10
0.645
20
0.13815
11
0.645
21
0.28815
0
LINE
8
BLACK
6
CONTINUOUS
10
0.645
20
0.28815
11
0.795
21
0.28815
0
LINE
8
BLACK
6
CONTINUOUS
10
0.795
20
0.28815
11
0.795
21
0.13815
0
LINE
8
BLACK
6
CONTINUOUS
10
0.795
20
0.335
11
0.645
21
0.335
0
LINE
8
BLACK
6
CONTINUOUS
10
0.645
20
0.335
11
0.645
21
0.485
0
LINE
8
BLACK
6
CONTINUOUS
10
0.645
20
0.485
11
0.795
21
0.485
0
LINE
8
BLACK
6
CONTINUOUS
10
0.795
20
0.485
11
0.795
21
0.335
0
LINE
8
BLACK
6
CONTINUOUS
10
0.595
20
0.13815
11
0.445
21
0.13815
0
LINE
8
BLACK
6
CONTINUOUS
10
0.445
20
0.13815
11
0.445
21
0.28815
0
LINE
8
BLACK
6
CONTINUOUS
10
0.445
20
0.28815
11
0.595
21
0.28815
0
LINE
8
BLACK
6
CONTINUOUS
10
0.595
20
0.28815
11
0.595
21
0.13815
0
LINE
8
BLACK
6
CONTINUOUS
10
0.595
20
0.335
11
0.445
21
0.335
0
LINE
8
BLACK
6
CONTINUOUS
10
0.445
20
0.335
11
0.445
21
0.485
0
LINE
8
BLACK
6
CONTINUOUS
10
0.445
20
0.485
11
0.595
21
0.485
0
LINE
8
BLACK
6
CONTINUOUS
10
0.595
20
0.485
11
0.595
21
0.335
0
LINE
8
BLACK
6
CONTINUOUS
10
0.1825
20
0.945
11
0.1225
21
0.945
0
LINE
8
BLACK
6
CONTINUOUS
10
0.1225
20
0.945
11
0.1225
21
1.005
0
LINE
8
BLACK
6
CONTINUOUS
10
0.1225
20
1.005
11
0.1825
21
1.005
0
LINE
8
BLACK
6
CONTINUOUS
10
0.1825
20
1.005
11
0.1825
21
0.945
0
LINE
8
BLACK
6
CONTINUOUS
10
1.03164
20
1.23196
11
1.04696
21
1.21664
0
LINE
8
BLACK
6
CONTINUOUS
10
1.04696
20
1.21664
11
1.04909
21
1.21345
0
LINE
8
BLACK
6
CONTINUOUS
10
1.04909
20
1.21345
11
1.04984
21
1.20969
0
LINE
8
BLACK
6
CONTINUOUS
10
1.04984
20
1.20969
11
1.04984
21
1.19
0
LINE
8
BLACK
6
CONTINUOUS
10
1.04984
20
1.19
11
1.07
21
1.19
0
LINE
8
BLACK
6
CONTINUOUS
10
1.07
20
1.19
11
1.07
21
1.13
0
LINE
8
BLACK
6
CONTINUOUS
10
1.07
20
1.13
11
1.01
21
1.13
0
LINE
8
BLACK
6
CONTINUOUS
10
1.01
20
1.13
11
1.01
21
1.19
0
LINE
8
BLACK
6
CONTINUOUS
10
1.01
20
1.19
11
1.03016
21
1.19
0
LINE
8
BLACK
6
CONTINUOUS
10
1.03016
20
1.19
11
1.03016
21
1.20561
0
LINE
8
BLACK
6
CONTINUOUS
10
1.03016
20
1.20561
11
1.02061
21
1.21516
0
LINE
8
BLACK
6
CONTINUOUS
10
1.02061
20
1.21516
11
0.672815
21
1.21516
0
LINE
8
BLACK
6
CONTINUOUS
10
0.672815
20
1.21516
11
0.672815
21
1.21516
0
LINE
8
BLACK
6
CONTINUOUS
10
0.672815
20
1.21516
11
0.669673
21
1.21578
0
LINE
8
BLACK
6
CONTINUOUS
10
0.669673
20
1.21578
11
0.669048
21
1.21591
0
LINE
8
BLACK
6
CONTINUOUS
10
0.669048
20
1.21591
11
0.665855
21
1.21804
0
LINE
8
BLACK
6
CONTINUOUS
10
0.665855
20
1.21804
11
0.665855
21
1.21804
0
LINE
8
BLACK
6
CONTINUOUS
10
0.665855
20
1.21804
11
0.639073
21
1.24482
0
LINE
8
BLACK
6
CONTINUOUS
10
0.639073
20
1.24482
11
0.639073
21
1.24482
0
LINE
8
BLACK
6
CONTINUOUS
10
0.639073
20
1.24482
11
0.6
21
1.2839
0
LINE
8
BLACK
6
CONTINUOUS
10
0.6
20
1.2839
11
0.541822
21
1.22572
0
LINE
8
BLACK
6
CONTINUOUS
10
0.541822
20
1.22572
11
0.538629
21
1.22358
0
LINE
8
BLACK
6
CONTINUOUS
10
0.538629
20
1.22358
11
0.534862
21
1.22283
0
LINE
8
BLACK
6
CONTINUOUS
10
0.534862
20
1.22283
11
0.319871
21
1.22283
0
LINE
8
BLACK
6
CONTINUOUS
10
0.319871
20
1.22283
11
0.316593
21
1.21921
0
LINE
8
BLACK
6
CONTINUOUS
10
0.316593
20
1.21921
11
0.312364
21
1.21662
0
LINE
8
BLACK
6
CONTINUOUS
10
0.312364
20
1.21662
11
0.307577
21
1.21531
0
LINE
8
BLACK
6
CONTINUOUS
10
0.307577
20
1.21531
11
0.302616
21
1.2154
0
LINE
8
BLACK
6
CONTINUOUS
10
0.302616
20
1.2154
11
0.29788
21
1.21688
0
LINE
8
BLACK
6
CONTINUOUS
10
0.29788
20
1.21688
11
0.29375
21
1.21963
0
LINE
8
BLACK
6
CONTINUOUS
10
0.29375
20
1.21963
11
0.290557
21
1.22343
0
LINE
8
BLACK
6
CONTINUOUS
10
0.290557
20
1.22343
11
0.288559
21
1.22797
0
LINE
8
BLACK
6
CONTINUOUS
10
0.288559
20
1.22797
11
0.287916
21
1.23289
0
LINE
8
BLACK
6
CONTINUOUS
10
0.287916
20
1.23289
11
0.288679
21
1.23779
0
LINE
8
BLACK
6
CONTINUOUS
10
0.288679
20
1.23779
11
0.290788
21
1.24229
0
LINE
8
BLACK
6
CONTINUOUS
10
0.290788
20
1.24229
11
0.294072
21
1.246
0
LINE
8
BLACK
6
CONTINUOUS
10
0.294072
20
1.246
11
0.298269
21
1.24865
0
LINE
8
BLACK
6
CONTINUOUS
10
0.298269
20
1.24865
11
0.303039
21
1.25002
0
LINE
8
BLACK
6
CONTINUOUS
10
0.303039
20
1.25002
11
0.308001
21
1.24998
0
LINE
8
BLACK
6
CONTINUOUS
10
0.308001
20
1.24998
11
0.312755
21
1.24856
0
LINE
8
BLACK
6
CONTINUOUS
10
0.312755
20
1.24856
11
0.316918
21
1.24586
0
LINE
8
BLACK
6
CONTINUOUS
10
0.316918
20
1.24586
11
0.319801
21
1.24252
0
LINE
8
BLACK
6
CONTINUOUS
10
0.319801
20
1.24252
11
0.530785
21
1.24252
0
LINE
8
BLACK
6
CONTINUOUS
10
0.530785
20
1.24252
11
0.590157
21
1.30189
0
LINE
8
BLACK
6
CONTINUOUS
10
0.590157
20
1.30189
11
0.590157
21
1.3175
0
LINE
8
BLACK
6
CONTINUOUS
10
0.590157
20
1.3175
11
0.57
21
1.3175
0
LINE
8
BLACK
6
CONTINUOUS
10
0.57
20
1.3175
11
0.57
21
1.3775
0
LINE
8
BLACK
6
CONTINUOUS
10
0.57
20
1.3775
11
0.63
21
1.3775
0
LINE
8
BLACK
6
CONTINUOUS
10
0.63
20
1.3775
11
0.63
21
1.3175
0
LINE
8
BLACK
6
CONTINUOUS
10
0.63
20
1.3175
11
0.609843
21
1.3175
0
LINE
8
BLACK
6
CONTINUOUS
10
0.609843
20
1.3175
11
0.609843
21
1.30189
0
LINE
8
BLACK
6
CONTINUOUS
10
0.609843
20
1.30189
11
0.652993
21
1.25874
0
LINE
8
BLACK
6
CONTINUOUS
10
0.652993
20
1.25874
11
0.652993
21
1.25874
0
LINE
8
BLACK
6
CONTINUOUS
10
0.652993
20
1.25874
11
0.676892
21
1.23484
0
LINE
8
BLACK
6
CONTINUOUS
10
0.676892
20
1.23484
11
1.02469
21
1.23484
0
LINE
8
BLACK
6
CONTINUOUS
10
1.02469
20
1.23484
11
1.02845
21
1.23409
0
LINE
8
BLACK
6
CONTINUOUS
10
1.02845
20
1.23409
11
1.03164
21
1.23196
0
LINE
8
BLACK
6
CONTINUOUS
10
0.97
20
1.13
11
0.91
21
1.13
0
LINE
8
BLACK
6
CONTINUOUS
10
0.91
20
1.13
11
0.91
21
1.19
0
LINE
8
BLACK
6
CONTINUOUS
10
0.91
20
1.19
11
0.97
21
1.19
0
LINE
8
BLACK
6
CONTINUOUS
10
0.97
20
1.19
11
0.97
21
1.13
0
LINE
8
BLACK
6
CONTINUOUS
10
0.1825
20
1.145
11
0.1225
21
1.145
0
LINE
8
BLACK
6
CONTINUOUS
10
0.1225
20
1.145
11
0.1225
21
1.205
0
LINE
8
BLACK
6
CONTINUOUS
10
0.1225
20
1.205
11
0.1825
21
1.205
0
LINE
8
BLACK
6
CONTINUOUS
10
0.1825
20
1.205
11
0.1825
21
1.145
0
LINE
8
BLACK
6
CONTINUOUS
10
0.53
20
1.3175
11
0.47
21
1.3175
0
LINE
8
BLACK
6
CONTINUOUS
10
0.47
20
1.3175
11
0.47
21
1.3775
0
LINE
8
BLACK
6
CONTINUOUS
10
0.47
20
1.3775
11
0.53
21
1.3775
0
LINE
8
BLACK
6
CONTINUOUS
10
0.53
20
1.3775
11
0.53
21
1.3175
0
LINE
8
BLACK
6
CONTINUOUS
10
0.73
20
1.3175
11
0.67
21
1.3175
0
LINE
8
BLACK
6
CONTINUOUS
10
0.67
20
1.3175
11
0.67
21
1.3775
0
LINE
8
BLACK
6
CONTINUOUS
10
0.67
20
1.3775
11
0.73
21
1.3775
0
LINE
8
BLACK
6
CONTINUOUS
10
0.73
20
1.3775
11
0.73
21
1.3175
0
LINE
8
BLACK
6
CONTINUOUS
10
0.63
20
1.4175
11
0.57
21
1.4175
0
LINE
8
BLACK
6
CONTINUOUS
10
0.57
20
1.4175
11
0.57
21
1.4775
0
LINE
8
BLACK
6
CONTINUOUS
10
0.57
20
1.4775
11
0.63
21
1.4775
0
LINE
8
BLACK
6
CONTINUOUS
10
0.63
20
1.4775
11
0.63
21
1.4175
0
LINE
8
BLACK
6
CONTINUOUS
10
0.73
20
1.4175
11
0.67
21
1.4175
0
LINE
8
BLACK
6
CONTINUOUS
10
0.67
20
1.4175
11
0.67
21
1.4775
0
LINE
8
BLACK
6
CONTINUOUS
10
0.67
20
1.4775
11
0.73
21
1.4775
0
LINE
8
BLACK
6
CONTINUOUS
10
0.73
20
1.4775
11
0.73
21
1.4175
0
LINE
8
BLACK
6
CONTINUOUS
10
0.53
20
1.4175
11
0.47
21
1.4175
0
LINE
8
BLACK
6
CONTINUOUS
10
0.47
20
1.4175
11
0.47
21
1.4775
0
LINE
8
BLACK
6
CONTINUOUS
10
0.47
20
1.4775
11
0.53
21
1.4775
0
LINE
8
BLACK
6
CONTINUOUS
10
0.53
20
1.4775
11
0.53
21
1.4175
0
CIRCLE
8
BLACK
10
0.305414
20
1.23268
40
0.0125
0
CIRCLE
8
BLACK
10
0.62
20
0.9125
40
0.0125
0
CIRCLE
8
BLACK
10
0.695
20
1.09
40
0.0125
0
CIRCLE
8
BLACK
10
0.803235
20
0.946513
40
0.0125
  0
ENDSEC
  0
EOF
