  0
SECTION
  2
HEADER
  9
$ANGBASE
  50
0.0
  9
$ANGDIR
  70
1
  9
$MEASUREMENT
  70
0
  0
ENDSEC
  0
SECTION
  2
TABLES
  0
TABLE
  2
LTYPE
  70
4
  0
LTYPE
  5
40F
  2
CONTINUOUS
  70
0
  3
Solid line
  72
65
  73
0
  40
0.0
  0
LTYPE
  5
410
  2
DASHDOT
 70
0
  3
Dash Dot ____ _ ____ _
 72
65
 73
4
 40
2.0
 49
1.25
 49
-0.25
 49
0.25
 49
-0.25
  0
LTYPE
  5
411
  2
DASHED
 70
0
  3
Dashed __ __ __ __ __
 72
65
 73
2
 40
0.75
 49
0.5
 49
-0.25
  0
LTYPE
  5
43B
  2
DOTTED
 70
0
  3
Dotted .  .  .  .
 72
65
 73
2
 40
0.2
 49
0.0
 49
-0.2
  0
ENDTAB
  0
TABLE
  2
STYLE
  70
4
  0
STYLE
  2
KICAD
  70
0
  40
0
  41
1
  42
1
  50
0
  71
0
  3
isocp.shx
  0
STYLE
  2
KICADB
  70
0
  40
0
  41
1
  42
1
  50
0
  71
0
  3
isocp.shx
  0
STYLE
  2
KICADI
  70
0
  40
0
  41
1
  42
1
  50
15
  71
0
  3
isocp.shx
  0
STYLE
  2
KICADBI
  70
0
  40
0
  41
1
  42
1
  50
15
  71
0
  3
isocp.shx
  0
ENDTAB
  0
TABLE
  2
LAYER
  70
1
  0
LAYER
  2
BLACK
  70
0
  62
7
  6
CONTINUOUS
  0
ENDTAB
  0
ENDSEC
  0
SECTION
  2
ENTITIES
0
LINE
8
BLACK
6
CONTINUOUS
10
0.5038332677165355
20
0.9372829133858267
11
0.5039818897637796
21
0.9372829133858267
0
LINE
8
BLACK
6
CONTINUOUS
10
0.5039818897637796
20
0.9372829133858267
11
0.5043804724409449
21
0.9371177952755906
0
LINE
8
BLACK
6
CONTINUOUS
10
0.5043804724409449
20
0.9371177952755906
11
0.5047938976377953
21
0.9369930708661417
0
LINE
8
BLACK
6
CONTINUOUS
10
0.5047938976377953
20
0.9369930708661417
11
0.5049090157480315
21
0.9368988582677165
0
LINE
8
BLACK
6
CONTINUOUS
10
0.5049090157480315
20
0.9368988582677165
11
0.5050462992125984
21
0.9368420078740157
0
LINE
8
BLACK
6
CONTINUOUS
10
0.5050462992125984
20
0.9368420078740157
11
0.5053513385826771
21
0.9365369291338582
0
LINE
8
BLACK
6
CONTINUOUS
10
0.5053513385826771
20
0.9365369291338582
11
0.5056855511811024
21
0.9362635039370079
0
LINE
8
BLACK
6
CONTINUOUS
10
0.5056855511811024
20
0.9362635039370079
11
0.5057558267716535
21
0.9361324409448819
0
LINE
8
BLACK
6
CONTINUOUS
10
0.5057558267716535
20
0.9361324409448819
11
0.5058609842519685
21
0.9360273228346456
0
LINE
8
BLACK
6
CONTINUOUS
10
0.5058609842519685
20
0.9360273228346456
11
0.5060260629921259
21
0.9356287007874016
0
LINE
8
BLACK
6
CONTINUOUS
10
0.5060260629921259
20
0.9356287007874016
11
0.5062301968503937
21
0.9352482677165355
0
LINE
8
BLACK
6
CONTINUOUS
10
0.5062301968503937
20
0.9352482677165355
11
0.5062449606299213
21
0.9351002362204724
0
LINE
8
BLACK
6
CONTINUOUS
10
0.5062449606299213
20
0.9351002362204724
11
0.5063018897637795
21
0.9349629133858267
0
LINE
8
BLACK
6
CONTINUOUS
10
0.5063018897637795
20
0.9349629133858267
11
0.5063018897637795
21
0.9345313385826771
0
LINE
8
BLACK
6
CONTINUOUS
10
0.5063018897637795
20
0.9345313385826771
11
0.506344842519685
21
0.9341018503937007
0
LINE
8
BLACK
6
CONTINUOUS
10
0.506344842519685
20
0.9341018503937007
11
0.5063018897637795
21
0.9339594881889763
0
LINE
8
BLACK
6
CONTINUOUS
10
0.5063018897637795
20
0.9339594881889763
11
0.5063018897637795
21
0.9338108267716535
0
LINE
8
BLACK
6
CONTINUOUS
10
0.5063018897637795
20
0.9338108267716535
11
0.5061367322834646
21
0.9334121259842519
0
LINE
8
BLACK
6
CONTINUOUS
10
0.5061367322834646
20
0.9334121259842519
11
0.5060120472440944
21
0.9329988582677166
0
LINE
8
BLACK
6
CONTINUOUS
10
0.5060120472440944
20
0.9329988582677166
11
0.5059178740157481
21
0.9328837401574803
0
LINE
8
BLACK
6
CONTINUOUS
10
0.5059178740157481
20
0.9328837401574803
11
0.5058609842519685
21
0.9327464173228346
0
LINE
8
BLACK
6
CONTINUOUS
10
0.5058609842519685
20
0.9327464173228346
11
0.5054970866141733
21
0.9323695275590551
0
LINE
8
BLACK
6
CONTINUOUS
10
0.5054970866141733
20
0.9323695275590551
11
0.5052824803149606
21
0.9321072047244094
0
LINE
8
BLACK
6
CONTINUOUS
10
0.5052824803149606
20
0.9321072047244094
11
0.5052023228346456
21
0.9320642125984252
0
LINE
8
BLACK
6
CONTINUOUS
10
0.5052023228346456
20
0.9320642125984252
11
0.5038709842519685
21
0.9306851968503936
0
LINE
8
BLACK
6
CONTINUOUS
10
0.5038709842519685
20
0.9306851968503936
11
0.5025600787401575
21
0.9279835433070865
0
LINE
8
BLACK
6
CONTINUOUS
10
0.5025600787401575
20
0.9279835433070865
11
0.502605590551181
21
0.920001811023622
0
LINE
8
BLACK
6
CONTINUOUS
10
0.502605590551181
20
0.920001811023622
11
0.5039994094488189
21
0.9172950787401575
0
LINE
8
BLACK
6
CONTINUOUS
10
0.5039994094488189
20
0.9172950787401575
11
0.5052327952755905
21
0.9161043307086614
0
LINE
8
BLACK
6
CONTINUOUS
10
0.5052327952755905
20
0.9161043307086614
11
0.5079344094488188
21
0.9147934645669291
0
LINE
8
BLACK
6
CONTINUOUS
10
0.5079344094488188
20
0.9147934645669291
11
0.5159161417322835
21
0.9148389763779528
0
LINE
8
BLACK
6
CONTINUOUS
10
0.5159161417322835
20
0.9148389763779528
11
0.518622874015748
21
0.9162328346456693
0
LINE
8
BLACK
6
CONTINUOUS
10
0.518622874015748
20
0.9162328346456693
11
0.5198136614173228
21
0.9174661811023622
0
LINE
8
BLACK
6
CONTINUOUS
10
0.5198136614173228
20
0.9174661811023622
11
0.5211245275590551
21
0.9201677952755906
0
LINE
8
BLACK
6
CONTINUOUS
10
0.5211245275590551
20
0.9201677952755906
11
0.5210790157480315
21
0.9281495275590551
0
LINE
8
BLACK
6
CONTINUOUS
10
0.5210790157480315
20
0.9281495275590551
11
0.5196851968503937
21
0.9308562204724409
0
LINE
8
BLACK
6
CONTINUOUS
10
0.5196851968503937
20
0.9308562204724409
11
0.5181908661417323
21
0.932298937007874
0
LINE
8
BLACK
6
CONTINUOUS
10
0.5181908661417323
20
0.932298937007874
11
0.5178236220472441
21
0.9327464173228346
0
LINE
8
BLACK
6
CONTINUOUS
10
0.5178236220472441
20
0.9327464173228346
11
0.5173827165354331
21
0.9338108267716535
0
LINE
8
BLACK
6
CONTINUOUS
10
0.5173827165354331
20
0.9338108267716535
11
0.5173827165354331
21
0.9349629133858267
0
LINE
8
BLACK
6
CONTINUOUS
10
0.5173827165354331
20
0.9349629133858267
11
0.5178235826771653
21
0.9360273228346456
0
LINE
8
BLACK
6
CONTINUOUS
10
0.5178235826771653
20
0.9360273228346456
11
0.5186382677165354
21
0.9368420078740157
0
LINE
8
BLACK
6
CONTINUOUS
10
0.5186382677165354
20
0.9368420078740157
11
0.5197026771653543
21
0.9372829133858267
0
LINE
8
BLACK
6
CONTINUOUS
10
0.5197026771653543
20
0.9372829133858267
11
0.5208547637795276
21
0.9372829133858267
0
LINE
8
BLACK
6
CONTINUOUS
10
0.5208547637795276
20
0.9372829133858267
11
0.5219191732283465
21
0.9368420472440945
0
LINE
8
BLACK
6
CONTINUOUS
10
0.5219191732283465
20
0.9368420472440945
11
0.5242414173228346
21
0.9346000787401575
0
LINE
8
BLACK
6
CONTINUOUS
10
0.5242414173228346
20
0.9346000787401575
11
0.5244271653543306
21
0.9343737007874016
0
LINE
8
BLACK
6
CONTINUOUS
10
0.5244271653543306
20
0.9343737007874016
11
0.524486220472441
21
0.9343225196850393
0
LINE
8
BLACK
6
CONTINUOUS
10
0.524486220472441
20
0.9343225196850393
11
0.5245148425196851
21
0.9342668503937007
0
LINE
8
BLACK
6
CONTINUOUS
10
0.5245148425196851
20
0.9342668503937007
11
0.5246086614173229
21
0.9341525984251968
0
LINE
8
BLACK
6
CONTINUOUS
10
0.5246086614173229
20
0.9341525984251968
11
0.5247523228346457
21
0.9338057086614173
0
LINE
8
BLACK
6
CONTINUOUS
10
0.5247523228346457
20
0.9338057086614173
11
0.5266693307086614
21
0.9300831102362205
0
LINE
8
BLACK
6
CONTINUOUS
10
0.5266693307086614
20
0.9300831102362205
11
0.526876220472441
21
0.9295425196850393
0
LINE
8
BLACK
6
CONTINUOUS
10
0.526876220472441
20
0.9295425196850393
11
0.5268837401574803
21
0.9294366141732283
0
LINE
8
BLACK
6
CONTINUOUS
10
0.5268837401574803
20
0.9294366141732283
11
0.5269243307086614
21
0.9293386614173228
0
LINE
8
BLACK
6
CONTINUOUS
10
0.5269243307086614
20
0.9293386614173228
11
0.5269272440944882
21
0.9288240944881889
0
LINE
8
BLACK
6
CONTINUOUS
10
0.5269272440944882
20
0.9288240944881889
11
0.526957874015748
21
0.9283933070866142
0
LINE
8
BLACK
6
CONTINUOUS
10
0.526957874015748
20
0.9283933070866142
11
0.5269301574803149
21
0.9283102362204724
0
LINE
8
BLACK
6
CONTINUOUS
10
0.5269301574803149
20
0.9283102362204724
11
0.526981062992126
21
0.919388779527559
0
LINE
8
BLACK
6
CONTINUOUS
10
0.526981062992126
20
0.919388779527559
11
0.5269243307086614
21
0.9188127165354331
0
LINE
8
BLACK
6
CONTINUOUS
10
0.5269243307086614
20
0.9188127165354331
11
0.5268837401574803
21
0.9187147244094488
0
LINE
8
BLACK
6
CONTINUOUS
10
0.5268837401574803
20
0.9187147244094488
11
0.526876220472441
21
0.9186088582677165
0
LINE
8
BLACK
6
CONTINUOUS
10
0.526876220472441
20
0.9186088582677165
11
0.5266278740157481
21
0.9180970866141732
0
LINE
8
BLACK
6
CONTINUOUS
10
0.5266278740157481
20
0.9180970866141732
11
0.5264834251968504
21
0.9177483070866141
0
LINE
8
BLACK
6
CONTINUOUS
10
0.5264834251968504
20
0.9177483070866141
11
0.5264353149606299
21
0.9177001968503937
0
LINE
8
BLACK
6
CONTINUOUS
10
0.5264353149606299
20
0.9177001968503937
11
0.5247945669291338
21
0.9143187401574803
0
LINE
8
BLACK
6
CONTINUOUS
10
0.5247945669291338
20
0.9143187401574803
11
0.5246384645669291
21
0.9140707086614173
0
LINE
8
BLACK
6
CONTINUOUS
10
0.5246384645669291
20
0.9140707086614173
11
0.5246086614173229
21
0.913998779527559
0
LINE
8
BLACK
6
CONTINUOUS
10
0.5246086614173229
20
0.913998779527559
11
0.5245641338582677
21
0.9139526771653543
0
LINE
8
BLACK
6
CONTINUOUS
10
0.5245641338582677
20
0.9139526771653543
11
0.524486220472441
21
0.9138288582677165
0
LINE
8
BLACK
6
CONTINUOUS
10
0.524486220472441
20
0.9138288582677165
11
0.5242304330708661
21
0.9136070472440945
0
LINE
8
BLACK
6
CONTINUOUS
10
0.5242304330708661
20
0.9136070472440945
11
0.5223666141732284
21
0.9116765354330708
0
LINE
8
BLACK
6
CONTINUOUS
10
0.5223666141732284
20
0.9116765354330708
11
0.5221402755905512
21
0.9114907874015747
0
LINE
8
BLACK
6
CONTINUOUS
10
0.5221402755905512
20
0.9114907874015747
11
0.5220891338582677
21
0.911431811023622
0
LINE
8
BLACK
6
CONTINUOUS
10
0.5220891338582677
20
0.911431811023622
11
0.5220335039370079
21
0.9114031496062992
0
LINE
8
BLACK
6
CONTINUOUS
10
0.5220335039370079
20
0.9114031496062992
11
0.5219191732283465
21
0.9113093307086614
0
LINE
8
BLACK
6
CONTINUOUS
10
0.5219191732283465
20
0.9113093307086614
11
0.5215722440944882
21
0.9111656299212598
0
LINE
8
BLACK
6
CONTINUOUS
10
0.5215722440944882
20
0.9111656299212598
11
0.5178497244094488
21
0.9092487007874016
0
LINE
8
BLACK
6
CONTINUOUS
10
0.5178497244094488
20
0.9092487007874016
11
0.517309094488189
21
0.909041811023622
0
LINE
8
BLACK
6
CONTINUOUS
10
0.517309094488189
20
0.909041811023622
11
0.5172032677165355
21
0.9090342913385827
0
LINE
8
BLACK
6
CONTINUOUS
10
0.5172032677165355
20
0.9090342913385827
11
0.5171052755905512
21
0.9089937007874016
0
LINE
8
BLACK
6
CONTINUOUS
10
0.5171052755905512
20
0.9089937007874016
11
0.5165906692913386
21
0.908990748031496
0
LINE
8
BLACK
6
CONTINUOUS
10
0.5165906692913386
20
0.908990748031496
11
0.5161598818897638
21
0.9089601574803149
0
LINE
8
BLACK
6
CONTINUOUS
10
0.5161598818897638
20
0.9089601574803149
11
0.516076811023622
21
0.9089878346456692
0
LINE
8
BLACK
6
CONTINUOUS
10
0.516076811023622
20
0.9089878346456692
11
0.5071553937007874
21
0.908936968503937
0
LINE
8
BLACK
6
CONTINUOUS
10
0.5071553937007874
20
0.908936968503937
11
0.5065793307086615
21
0.9089937007874016
0
LINE
8
BLACK
6
CONTINUOUS
10
0.5065793307086615
20
0.9089937007874016
11
0.5064813385826772
21
0.909034251968504
0
LINE
8
BLACK
6
CONTINUOUS
10
0.5064813385826772
20
0.909034251968504
11
0.5063754724409448
21
0.909041811023622
0
LINE
8
BLACK
6
CONTINUOUS
10
0.5063754724409448
20
0.909041811023622
11
0.5058637007874016
21
0.9092901181102362
0
LINE
8
BLACK
6
CONTINUOUS
10
0.5058637007874016
20
0.9092901181102362
11
0.5055149212598425
21
0.9094346062992126
0
LINE
8
BLACK
6
CONTINUOUS
10
0.5055149212598425
20
0.9094346062992126
11
0.505466811023622
21
0.9094826771653544
0
LINE
8
BLACK
6
CONTINUOUS
10
0.505466811023622
20
0.9094826771653544
11
0.5020853543307087
21
0.9111234645669292
0
LINE
8
BLACK
6
CONTINUOUS
10
0.5020853543307087
20
0.9111234645669292
11
0.5018373228346457
21
0.9112795275590551
0
LINE
8
BLACK
6
CONTINUOUS
10
0.5018373228346457
20
0.9112795275590551
11
0.5017653937007874
21
0.9113093700787401
0
LINE
8
BLACK
6
CONTINUOUS
10
0.5017653937007874
20
0.9113093700787401
11
0.5017192913385826
21
0.9113538582677165
0
LINE
8
BLACK
6
CONTINUOUS
10
0.5017192913385826
20
0.9113538582677165
11
0.5015954724409448
21
0.911431811023622
0
LINE
8
BLACK
6
CONTINUOUS
10
0.5015954724409448
20
0.911431811023622
11
0.5013737007874015
21
0.9116874803149606
0
LINE
8
BLACK
6
CONTINUOUS
10
0.5013737007874015
20
0.9116874803149606
11
0.499443188976378
21
0.9135513385826771
0
LINE
8
BLACK
6
CONTINUOUS
10
0.499443188976378
20
0.9135513385826771
11
0.4992574015748031
21
0.9137776771653543
0
LINE
8
BLACK
6
CONTINUOUS
10
0.4992574015748031
20
0.9137776771653543
11
0.4991984251968504
21
0.9138288582677165
0
LINE
8
BLACK
6
CONTINUOUS
10
0.4991984251968504
20
0.9138288582677165
11
0.4991697637795275
21
0.9138844881889764
0
LINE
8
BLACK
6
CONTINUOUS
10
0.4991697637795275
20
0.9138844881889764
11
0.4990759842519685
21
0.913998779527559
0
LINE
8
BLACK
6
CONTINUOUS
10
0.4990759842519685
20
0.913998779527559
11
0.4989323228346457
21
0.9143455511811024
0
LINE
8
BLACK
6
CONTINUOUS
10
0.4989323228346457
20
0.9143455511811024
11
0.4970153149606299
21
0.9180682677165354
0
LINE
8
BLACK
6
CONTINUOUS
10
0.4970153149606299
20
0.9180682677165354
11
0.4968084251968504
21
0.9186088976377953
0
LINE
8
BLACK
6
CONTINUOUS
10
0.4968084251968504
20
0.9186088976377953
11
0.496800905511811
21
0.91871468503937
0
LINE
8
BLACK
6
CONTINUOUS
10
0.496800905511811
20
0.91871468503937
11
0.4967603149606299
21
0.9188127165354331
0
LINE
8
BLACK
6
CONTINUOUS
10
0.4967603149606299
20
0.9188127165354331
11
0.4967573622047244
21
0.9193272834645669
0
LINE
8
BLACK
6
CONTINUOUS
10
0.4967573622047244
20
0.9193272834645669
11
0.4967267716535433
21
0.9197581102362204
0
LINE
8
BLACK
6
CONTINUOUS
10
0.4967267716535433
20
0.9197581102362204
11
0.4967544488188976
21
0.9198411417322835
0
LINE
8
BLACK
6
CONTINUOUS
10
0.4967544488188976
20
0.9198411417322835
11
0.4967035826771654
21
0.9287625984251968
0
LINE
8
BLACK
6
CONTINUOUS
10
0.4967035826771654
20
0.9287625984251968
11
0.4967603149606299
21
0.9293386614173228
0
LINE
8
BLACK
6
CONTINUOUS
10
0.4967603149606299
20
0.9293386614173228
11
0.496800905511811
21
0.9294366535433071
0
LINE
8
BLACK
6
CONTINUOUS
10
0.496800905511811
20
0.9294366535433071
11
0.4968084251968504
21
0.9295424803149606
0
LINE
8
BLACK
6
CONTINUOUS
10
0.4968084251968504
20
0.9295424803149606
11
0.4970566141732283
21
0.9300540157480315
0
LINE
8
BLACK
6
CONTINUOUS
10
0.4970566141732283
20
0.9300540157480315
11
0.4972012204724409
21
0.9304030708661417
0
LINE
8
BLACK
6
CONTINUOUS
10
0.4972012204724409
20
0.9304030708661417
11
0.4972493307086614
21
0.9304511811023621
0
LINE
8
BLACK
6
CONTINUOUS
10
0.4972493307086614
20
0.9304511811023621
11
0.4974479133858268
21
0.9308604724409448
0
LINE
8
BLACK
6
CONTINUOUS
10
0.4974479133858268
20
0.9308604724409448
11
0.487563779527559
21
0.9298428740157481
0
LINE
8
BLACK
6
CONTINUOUS
10
0.487563779527559
20
0.9298428740157481
11
0.4876109842519685
21
0.9137644881889764
0
LINE
8
BLACK
6
CONTINUOUS
10
0.4876109842519685
20
0.9137644881889764
11
0.4875542519685039
21
0.9131884251968504
0
LINE
8
BLACK
6
CONTINUOUS
10
0.4875542519685039
20
0.9131884251968504
11
0.4871133464566929
21
0.9121240157480315
0
LINE
8
BLACK
6
CONTINUOUS
10
0.4871133464566929
20
0.9121240157480315
11
0.4862987007874016
21
0.9113093700787401
0
LINE
8
BLACK
6
CONTINUOUS
10
0.4862987007874016
20
0.9113093700787401
11
0.4852342913385826
21
0.9108684645669292
0
LINE
8
BLACK
6
CONTINUOUS
10
0.4852342913385826
20
0.9108684645669292
11
0.4840821653543307
21
0.9108684645669292
0
LINE
8
BLACK
6
CONTINUOUS
10
0.4840821653543307
20
0.9108684645669292
11
0.4830177559055118
21
0.9113093700787401
0
LINE
8
BLACK
6
CONTINUOUS
10
0.4830177559055118
20
0.9113093700787401
11
0.4822031102362205
21
0.9121240157480315
0
LINE
8
BLACK
6
CONTINUOUS
10
0.4822031102362205
20
0.9121240157480315
11
0.4817622047244094
21
0.9131884251968504
0
LINE
8
BLACK
6
CONTINUOUS
10
0.4817622047244094
20
0.9131884251968504
11
0.4817054724409449
21
0.9325121259842519
0
LINE
8
BLACK
6
CONTINUOUS
10
0.4817054724409449
20
0.9325121259842519
11
0.4817264173228346
21
0.9327251574803149
0
LINE
8
BLACK
6
CONTINUOUS
10
0.4817264173228346
20
0.9327251574803149
11
0.4817192519685039
21
0.9327971653543307
0
LINE
8
BLACK
6
CONTINUOUS
10
0.4817192519685039
20
0.9327971653543307
11
0.4817404330708661
21
0.9328674803149606
0
LINE
8
BLACK
6
CONTINUOUS
10
0.4817404330708661
20
0.9328674803149606
11
0.4817622047244094
21
0.9330881889763779
0
LINE
8
BLACK
6
CONTINUOUS
10
0.4817622047244094
20
0.9330881889763779
11
0.4819273228346457
21
0.9334868503937007
0
LINE
8
BLACK
6
CONTINUOUS
10
0.4819273228346457
20
0.9334868503937007
11
0.4820520472440945
21
0.933900157480315
0
LINE
8
BLACK
6
CONTINUOUS
10
0.4820520472440945
20
0.933900157480315
11
0.4821461811023622
21
0.9340152362204724
0
LINE
8
BLACK
6
CONTINUOUS
10
0.4821461811023622
20
0.9340152362204724
11
0.4822031102362205
21
0.9341525984251968
0
LINE
8
BLACK
6
CONTINUOUS
10
0.4822031102362205
20
0.9341525984251968
11
0.4825083464566929
21
0.9344578346456692
0
LINE
8
BLACK
6
CONTINUOUS
10
0.4825083464566929
20
0.9344578346456692
11
0.4827816141732283
21
0.9347918110236221
0
LINE
8
BLACK
6
CONTINUOUS
10
0.4827816141732283
20
0.9347918110236221
11
0.4829125590551181
21
0.9348620472440945
0
LINE
8
BLACK
6
CONTINUOUS
10
0.4829125590551181
20
0.9348620472440945
11
0.4830177559055118
21
0.9349672440944882
0
LINE
8
BLACK
6
CONTINUOUS
10
0.4830177559055118
20
0.9349672440944882
11
0.4834165354330708
21
0.9351324015748032
0
LINE
8
BLACK
6
CONTINUOUS
10
0.4834165354330708
20
0.9351324015748032
11
0.4837968503937008
21
0.9353364566929133
0
LINE
8
BLACK
6
CONTINUOUS
10
0.4837968503937008
20
0.9353364566929133
11
0.4839461811023622
21
0.935351811023622
0
LINE
8
BLACK
6
CONTINUOUS
10
0.4839461811023622
20
0.935351811023622
11
0.4840821653543307
21
0.9354081496062991
0
LINE
8
BLACK
6
CONTINUOUS
10
0.4840821653543307
20
0.9354081496062991
11
0.4844932283464567
21
0.9354081496062991
0
LINE
8
BLACK
6
CONTINUOUS
10
0.4844932283464567
20
0.9354081496062991
11
0.5031120472440945
21
0.937325
0
LINE
8
BLACK
6
CONTINUOUS
10
0.5031120472440945
20
0.937325
11
0.5036909055118111
21
0.9373258661417323
0
LINE
8
BLACK
6
CONTINUOUS
10
0.5036909055118111
20
0.9373258661417323
11
0.5038332677165355
21
0.9372829133858267
0
LINE
8
BLACK
6
CONTINUOUS
10
0.5171052755905512
20
0.9747782283464567
11
0.5172032677165355
21
0.9747375984251968
0
LINE
8
BLACK
6
CONTINUOUS
10
0.5172032677165355
20
0.9747375984251968
11
0.517309094488189
21
0.9747301181102362
0
LINE
8
BLACK
6
CONTINUOUS
10
0.517309094488189
20
0.9747301181102362
11
0.5178206299212599
21
0.9744818897637795
0
LINE
8
BLACK
6
CONTINUOUS
10
0.5178206299212599
20
0.9744818897637795
11
0.5181696850393701
21
0.9743373228346457
0
LINE
8
BLACK
6
CONTINUOUS
10
0.5181696850393701
20
0.9743373228346457
11
0.5182177952755905
21
0.9742891732283464
0
LINE
8
BLACK
6
CONTINUOUS
10
0.5182177952755905
20
0.9742891732283464
11
0.5215992519685039
21
0.9726484645669291
0
LINE
8
BLACK
6
CONTINUOUS
10
0.5215992519685039
20
0.9726484645669291
11
0.521847125984252
21
0.9724924015748031
0
LINE
8
BLACK
6
CONTINUOUS
10
0.521847125984252
20
0.9724924015748031
11
0.5219191732283465
21
0.9724625984251968
0
LINE
8
BLACK
6
CONTINUOUS
10
0.5219191732283465
20
0.9724625984251968
11
0.5219652755905512
21
0.972418031496063
0
LINE
8
BLACK
6
CONTINUOUS
10
0.5219652755905512
20
0.972418031496063
11
0.5220891338582677
21
0.9723401181102362
0
LINE
8
BLACK
6
CONTINUOUS
10
0.5220891338582677
20
0.9723401181102362
11
0.5223108267716535
21
0.9720844488188977
0
LINE
8
BLACK
6
CONTINUOUS
10
0.5223108267716535
20
0.9720844488188977
11
0.5242414173228346
21
0.9702206299212598
0
LINE
8
BLACK
6
CONTINUOUS
10
0.5242414173228346
20
0.9702206299212598
11
0.5244271653543306
21
0.9699942519685039
0
LINE
8
BLACK
6
CONTINUOUS
10
0.5244271653543306
20
0.9699942519685039
11
0.524486220472441
21
0.9699430708661417
0
LINE
8
BLACK
6
CONTINUOUS
10
0.524486220472441
20
0.9699430708661417
11
0.5245148425196851
21
0.9698874015748031
0
LINE
8
BLACK
6
CONTINUOUS
10
0.5245148425196851
20
0.9698874015748031
11
0.5246086614173229
21
0.9697731496062992
0
LINE
8
BLACK
6
CONTINUOUS
10
0.5246086614173229
20
0.9697731496062992
11
0.5247523228346457
21
0.9694262598425196
0
LINE
8
BLACK
6
CONTINUOUS
10
0.5247523228346457
20
0.9694262598425196
11
0.5266693307086614
21
0.9657036614173228
0
LINE
8
BLACK
6
CONTINUOUS
10
0.5266693307086614
20
0.9657036614173228
11
0.526876220472441
21
0.9651630708661417
0
LINE
8
BLACK
6
CONTINUOUS
10
0.526876220472441
20
0.9651630708661417
11
0.5268837401574803
21
0.9650571653543307
0
LINE
8
BLACK
6
CONTINUOUS
10
0.5268837401574803
20
0.9650571653543307
11
0.5269243307086614
21
0.9649592125984252
0
LINE
8
BLACK
6
CONTINUOUS
10
0.5269243307086614
20
0.9649592125984252
11
0.5269279921259843
21
0.9644340157480314
0
LINE
8
BLACK
6
CONTINUOUS
10
0.5269279921259843
20
0.9644340157480314
11
0.526957874015748
21
0.9640138582677165
0
LINE
8
BLACK
6
CONTINUOUS
10
0.526957874015748
20
0.9640138582677165
11
0.5269314960629922
21
0.9639348031496062
0
LINE
8
BLACK
6
CONTINUOUS
10
0.5269314960629922
20
0.9639348031496062
11
0.526981062992126
21
0.956884094488189
0
LINE
8
BLACK
6
CONTINUOUS
10
0.526981062992126
20
0.956884094488189
11
0.5269243307086614
21
0.9563080314960629
0
LINE
8
BLACK
6
CONTINUOUS
10
0.5269243307086614
20
0.9563080314960629
11
0.5268837401574803
21
0.9562100393700788
0
LINE
8
BLACK
6
CONTINUOUS
10
0.5268837401574803
20
0.9562100393700788
11
0.526876220472441
21
0.9561041732283464
0
LINE
8
BLACK
6
CONTINUOUS
10
0.526876220472441
20
0.9561041732283464
11
0.5266278740157481
21
0.9555924015748031
0
LINE
8
BLACK
6
CONTINUOUS
10
0.5266278740157481
20
0.9555924015748031
11
0.5264834251968504
21
0.9552436220472441
0
LINE
8
BLACK
6
CONTINUOUS
10
0.5264834251968504
20
0.9552436220472441
11
0.5264353149606299
21
0.9551955118110236
0
LINE
8
BLACK
6
CONTINUOUS
10
0.5264353149606299
20
0.9551955118110236
11
0.5247945669291338
21
0.9518140551181102
0
LINE
8
BLACK
6
CONTINUOUS
10
0.5247945669291338
20
0.9518140551181102
11
0.5246384645669291
21
0.9515660236220472
0
LINE
8
BLACK
6
CONTINUOUS
10
0.5246384645669291
20
0.9515660236220472
11
0.5246086614173229
21
0.951494094488189
0
LINE
8
BLACK
6
CONTINUOUS
10
0.5246086614173229
20
0.951494094488189
11
0.5245641338582677
21
0.9514479921259842
0
LINE
8
BLACK
6
CONTINUOUS
10
0.5245641338582677
20
0.9514479921259842
11
0.524486220472441
21
0.9513241732283464
0
LINE
8
BLACK
6
CONTINUOUS
10
0.524486220472441
20
0.9513241732283464
11
0.5242304330708661
21
0.9511023622047244
0
LINE
8
BLACK
6
CONTINUOUS
10
0.5242304330708661
20
0.9511023622047244
11
0.5223666141732284
21
0.9491718503937008
0
LINE
8
BLACK
6
CONTINUOUS
10
0.5223666141732284
20
0.9491718503937008
11
0.5221402755905512
21
0.9489861023622047
0
LINE
8
BLACK
6
CONTINUOUS
10
0.5221402755905512
20
0.9489861023622047
11
0.5220891338582677
21
0.948927125984252
0
LINE
8
BLACK
6
CONTINUOUS
10
0.5220891338582677
20
0.948927125984252
11
0.5220335039370079
21
0.9488984645669292
0
LINE
8
BLACK
6
CONTINUOUS
10
0.5220335039370079
20
0.9488984645669292
11
0.5219191732283465
21
0.9488046456692913
0
LINE
8
BLACK
6
CONTINUOUS
10
0.5219191732283465
20
0.9488046456692913
11
0.5215722440944882
21
0.9486609448818898
0
LINE
8
BLACK
6
CONTINUOUS
10
0.5215722440944882
20
0.9486609448818898
11
0.5178497244094488
21
0.9467440157480315
0
LINE
8
BLACK
6
CONTINUOUS
10
0.5178497244094488
20
0.9467440157480315
11
0.517309094488189
21
0.946537125984252
0
LINE
8
BLACK
6
CONTINUOUS
10
0.517309094488189
20
0.946537125984252
11
0.5172032677165355
21
0.9465296062992126
0
LINE
8
BLACK
6
CONTINUOUS
10
0.5172032677165355
20
0.9465296062992126
11
0.5171052755905512
21
0.9464890157480315
0
LINE
8
BLACK
6
CONTINUOUS
10
0.5171052755905512
20
0.9464890157480315
11
0.5165800393700787
21
0.9464853149606299
0
LINE
8
BLACK
6
CONTINUOUS
10
0.5165800393700787
20
0.9464853149606299
11
0.5161598818897638
21
0.9464554724409449
0
LINE
8
BLACK
6
CONTINUOUS
10
0.5161598818897638
20
0.9464554724409449
11
0.5160808267716536
21
0.9464818110236221
0
LINE
8
BLACK
6
CONTINUOUS
10
0.5160808267716536
20
0.9464818110236221
11
0.509030157480315
21
0.9464322834645669
0
LINE
8
BLACK
6
CONTINUOUS
10
0.509030157480315
20
0.9464322834645669
11
0.508454094488189
21
0.9464890157480315
0
LINE
8
BLACK
6
CONTINUOUS
10
0.508454094488189
20
0.9464890157480315
11
0.5083561023622047
21
0.9465295669291338
0
LINE
8
BLACK
6
CONTINUOUS
10
0.5083561023622047
20
0.9465295669291338
11
0.5082502362204724
21
0.946537125984252
0
LINE
8
BLACK
6
CONTINUOUS
10
0.5082502362204724
20
0.946537125984252
11
0.5077384645669292
21
0.9467854330708662
0
LINE
8
BLACK
6
CONTINUOUS
10
0.5077384645669292
20
0.9467854330708662
11
0.5073896850393701
21
0.9469299212598425
0
LINE
8
BLACK
6
CONTINUOUS
10
0.5073896850393701
20
0.9469299212598425
11
0.5073415748031496
21
0.9469779921259842
0
LINE
8
BLACK
6
CONTINUOUS
10
0.5073415748031496
20
0.9469779921259842
11
0.5039601181102362
21
0.948618779527559
0
LINE
8
BLACK
6
CONTINUOUS
10
0.5039601181102362
20
0.948618779527559
11
0.5037120866141732
21
0.948774842519685
0
LINE
8
BLACK
6
CONTINUOUS
10
0.5037120866141732
20
0.948774842519685
11
0.503640157480315
21
0.9488046850393701
0
LINE
8
BLACK
6
CONTINUOUS
10
0.503640157480315
20
0.9488046850393701
11
0.5035940551181102
21
0.9488491732283464
0
LINE
8
BLACK
6
CONTINUOUS
10
0.5035940551181102
20
0.9488491732283464
11
0.5034702362204724
21
0.948927125984252
0
LINE
8
BLACK
6
CONTINUOUS
10
0.5034702362204724
20
0.948927125984252
11
0.5032484645669292
21
0.9491827952755906
0
LINE
8
BLACK
6
CONTINUOUS
10
0.5032484645669292
20
0.9491827952755906
11
0.5015050393700787
21
0.9508659842519684
0
LINE
8
BLACK
6
CONTINUOUS
10
0.5015050393700787
20
0.9508659842519684
11
0.4998694881889764
21
0.9491718897637795
0
LINE
8
BLACK
6
CONTINUOUS
10
0.4998694881889764
20
0.9491718897637795
11
0.4996431102362204
21
0.9489861023622047
0
LINE
8
BLACK
6
CONTINUOUS
10
0.4996431102362204
20
0.9489861023622047
11
0.499591968503937
21
0.948927125984252
0
LINE
8
BLACK
6
CONTINUOUS
10
0.499591968503937
20
0.948927125984252
11
0.4995362992125984
21
0.9488984645669292
0
LINE
8
BLACK
6
CONTINUOUS
10
0.4995362992125984
20
0.9488984645669292
11
0.4994220472440945
21
0.9488046850393701
0
LINE
8
BLACK
6
CONTINUOUS
10
0.4994220472440945
20
0.9488046850393701
11
0.4990752362204725
21
0.9486610236220472
0
LINE
8
BLACK
6
CONTINUOUS
10
0.4990752362204725
20
0.9486610236220472
11
0.4953525590551181
21
0.9467440157480315
0
LINE
8
BLACK
6
CONTINUOUS
10
0.4953525590551181
20
0.9467440157480315
11
0.4948119291338582
21
0.946537125984252
0
LINE
8
BLACK
6
CONTINUOUS
10
0.4948119291338582
20
0.946537125984252
11
0.4947061023622047
21
0.9465296062992126
0
LINE
8
BLACK
6
CONTINUOUS
10
0.4947061023622047
20
0.9465296062992126
11
0.4946081102362205
21
0.9464890157480315
0
LINE
8
BLACK
6
CONTINUOUS
10
0.4946081102362205
20
0.9464890157480315
11
0.4939061023622047
21
0.9464727559055118
0
LINE
8
BLACK
6
CONTINUOUS
10
0.4939061023622047
20
0.9464727559055118
11
0.493662716535433
21
0.9464554724409449
0
LINE
8
BLACK
6
CONTINUOUS
10
0.493662716535433
20
0.9464554724409449
11
0.49363
21
0.9464663385826771
0
LINE
8
BLACK
6
CONTINUOUS
10
0.49363
20
0.9464663385826771
11
0.4921572834645669
21
0.9464322834645669
0
LINE
8
BLACK
6
CONTINUOUS
10
0.4921572834645669
20
0.9464322834645669
11
0.491581220472441
21
0.9464890157480315
0
LINE
8
BLACK
6
CONTINUOUS
10
0.491581220472441
20
0.9464890157480315
11
0.4914832283464567
21
0.9465295669291338
0
LINE
8
BLACK
6
CONTINUOUS
10
0.4914832283464567
20
0.9465295669291338
11
0.4913773622047244
21
0.946537125984252
0
LINE
8
BLACK
6
CONTINUOUS
10
0.4913773622047244
20
0.946537125984252
11
0.4908655905511811
21
0.9467854330708662
0
LINE
8
BLACK
6
CONTINUOUS
10
0.4908655905511811
20
0.9467854330708662
11
0.490516811023622
21
0.9469299212598425
0
LINE
8
BLACK
6
CONTINUOUS
10
0.490516811023622
20
0.9469299212598425
11
0.4904687007874016
21
0.9469779921259842
0
LINE
8
BLACK
6
CONTINUOUS
10
0.4904687007874016
20
0.9469779921259842
11
0.4870872440944882
21
0.948618779527559
0
LINE
8
BLACK
6
CONTINUOUS
10
0.4870872440944882
20
0.948618779527559
11
0.4868392125984252
21
0.948774842519685
0
LINE
8
BLACK
6
CONTINUOUS
10
0.4868392125984252
20
0.948774842519685
11
0.4867672834645669
21
0.9488046850393701
0
LINE
8
BLACK
6
CONTINUOUS
10
0.4867672834645669
20
0.9488046850393701
11
0.4867211811023622
21
0.9488491732283464
0
LINE
8
BLACK
6
CONTINUOUS
10
0.4867211811023622
20
0.9488491732283464
11
0.4865973622047244
21
0.948927125984252
0
LINE
8
BLACK
6
CONTINUOUS
10
0.4865973622047244
20
0.948927125984252
11
0.4863755905511811
21
0.9491827952755906
0
LINE
8
BLACK
6
CONTINUOUS
10
0.4863755905511811
20
0.9491827952755906
11
0.4844450787401575
21
0.9510466535433071
0
LINE
8
BLACK
6
CONTINUOUS
10
0.4844450787401575
20
0.9510466535433071
11
0.4842592913385826
21
0.9512729921259843
0
LINE
8
BLACK
6
CONTINUOUS
10
0.4842592913385826
20
0.9512729921259843
11
0.4842003149606299
21
0.9513241732283464
0
LINE
8
BLACK
6
CONTINUOUS
10
0.4842003149606299
20
0.9513241732283464
11
0.4841716535433071
21
0.9513798031496062
0
LINE
8
BLACK
6
CONTINUOUS
10
0.4841716535433071
20
0.9513798031496062
11
0.484077874015748
21
0.951494094488189
0
LINE
8
BLACK
6
CONTINUOUS
10
0.484077874015748
20
0.951494094488189
11
0.4839342125984252
21
0.9518408661417322
0
LINE
8
BLACK
6
CONTINUOUS
10
0.4839342125984252
20
0.9518408661417322
11
0.4820172047244095
21
0.9555635826771653
0
LINE
8
BLACK
6
CONTINUOUS
10
0.4820172047244095
20
0.9555635826771653
11
0.4818103149606299
21
0.9561042125984252
0
LINE
8
BLACK
6
CONTINUOUS
10
0.4818103149606299
20
0.9561042125984252
11
0.4818027952755906
21
0.95621
0
LINE
8
BLACK
6
CONTINUOUS
10
0.4818027952755906
20
0.95621
11
0.4817622047244094
21
0.9563080314960629
0
LINE
8
BLACK
6
CONTINUOUS
10
0.4817622047244094
20
0.9563080314960629
11
0.4817585039370079
21
0.9568332283464567
0
LINE
8
BLACK
6
CONTINUOUS
10
0.4817585039370079
20
0.9568332283464567
11
0.4817286614173228
21
0.9572534251968504
0
LINE
8
BLACK
6
CONTINUOUS
10
0.4817286614173228
20
0.9572534251968504
11
0.481755
21
0.9573324409448819
0
LINE
8
BLACK
6
CONTINUOUS
10
0.481755
20
0.9573324409448819
11
0.4817054724409449
21
0.9643831496062992
0
LINE
8
BLACK
6
CONTINUOUS
10
0.4817054724409449
20
0.9643831496062992
11
0.4817622047244094
21
0.9649592125984252
0
LINE
8
BLACK
6
CONTINUOUS
10
0.4817622047244094
20
0.9649592125984252
11
0.4818027952755906
21
0.9650572047244095
0
LINE
8
BLACK
6
CONTINUOUS
10
0.4818027952755906
20
0.9650572047244095
11
0.4818103149606299
21
0.965163031496063
0
LINE
8
BLACK
6
CONTINUOUS
10
0.4818103149606299
20
0.965163031496063
11
0.4820585039370079
21
0.9656745669291338
0
LINE
8
BLACK
6
CONTINUOUS
10
0.4820585039370079
20
0.9656745669291338
11
0.4822031102362205
21
0.9660236220472441
0
LINE
8
BLACK
6
CONTINUOUS
10
0.4822031102362205
20
0.9660236220472441
11
0.482251220472441
21
0.9660717322834645
0
LINE
8
BLACK
6
CONTINUOUS
10
0.482251220472441
20
0.9660717322834645
11
0.483891968503937
21
0.9694531889763779
0
LINE
8
BLACK
6
CONTINUOUS
10
0.483891968503937
20
0.9694531889763779
11
0.484048031496063
21
0.9697011811023621
0
LINE
8
BLACK
6
CONTINUOUS
10
0.484048031496063
20
0.9697011811023621
11
0.484077874015748
21
0.9697731496062992
0
LINE
8
BLACK
6
CONTINUOUS
10
0.484077874015748
20
0.9697731496062992
11
0.4841223622047244
21
0.9698192125984252
0
LINE
8
BLACK
6
CONTINUOUS
10
0.4841223622047244
20
0.9698192125984252
11
0.4842003149606299
21
0.9699430708661417
0
LINE
8
BLACK
6
CONTINUOUS
10
0.4842003149606299
20
0.9699430708661417
11
0.4844559842519685
21
0.9701648031496063
0
LINE
8
BLACK
6
CONTINUOUS
10
0.4844559842519685
20
0.9701648031496063
11
0.486319842519685
21
0.9720953543307086
0
LINE
8
BLACK
6
CONTINUOUS
10
0.486319842519685
20
0.9720953543307086
11
0.4865461811023622
21
0.9722811023622047
0
LINE
8
BLACK
6
CONTINUOUS
10
0.4865461811023622
20
0.9722811023622047
11
0.4865973622047244
21
0.9723401181102362
0
LINE
8
BLACK
6
CONTINUOUS
10
0.4865973622047244
20
0.9723401181102362
11
0.4866529921259842
21
0.9723687401574803
0
LINE
8
BLACK
6
CONTINUOUS
10
0.4866529921259842
20
0.9723687401574803
11
0.4867672834645669
21
0.9724625590551181
0
LINE
8
BLACK
6
CONTINUOUS
10
0.4867672834645669
20
0.9724625590551181
11
0.4871141338582677
21
0.9726062204724409
0
LINE
8
BLACK
6
CONTINUOUS
10
0.4871141338582677
20
0.9726062204724409
11
0.4908367716535433
21
0.9745232283464567
0
LINE
8
BLACK
6
CONTINUOUS
10
0.4908367716535433
20
0.9745232283464567
11
0.4913773622047244
21
0.9747301181102362
0
LINE
8
BLACK
6
CONTINUOUS
10
0.4913773622047244
20
0.9747301181102362
11
0.4914832283464567
21
0.9747376377952756
0
LINE
8
BLACK
6
CONTINUOUS
10
0.4914832283464567
20
0.9747376377952756
11
0.491581220472441
21
0.9747782283464567
0
LINE
8
BLACK
6
CONTINUOUS
10
0.491581220472441
20
0.9747782283464567
11
0.4922831496062992
21
0.9747944488188977
0
LINE
8
BLACK
6
CONTINUOUS
10
0.4922831496062992
20
0.9747944488188977
11
0.4925265748031496
21
0.9748117716535433
0
LINE
8
BLACK
6
CONTINUOUS
10
0.4925265748031496
20
0.9748117716535433
11
0.4925592519685039
21
0.9748008661417322
0
LINE
8
BLACK
6
CONTINUOUS
10
0.4925592519685039
20
0.9748008661417322
11
0.4940320472440945
21
0.9748349606299213
0
LINE
8
BLACK
6
CONTINUOUS
10
0.4940320472440945
20
0.9748349606299213
11
0.4946081102362205
21
0.9747782283464567
0
LINE
8
BLACK
6
CONTINUOUS
10
0.4946081102362205
20
0.9747782283464567
11
0.4947061023622047
21
0.9747375984251968
0
LINE
8
BLACK
6
CONTINUOUS
10
0.4947061023622047
20
0.9747375984251968
11
0.4948119291338582
21
0.9747301181102362
0
LINE
8
BLACK
6
CONTINUOUS
10
0.4948119291338582
20
0.9747301181102362
11
0.4953234645669291
21
0.9744818897637795
0
LINE
8
BLACK
6
CONTINUOUS
10
0.4953234645669291
20
0.9744818897637795
11
0.4956725196850393
21
0.9743373228346457
0
LINE
8
BLACK
6
CONTINUOUS
10
0.4956725196850393
20
0.9743373228346457
11
0.4957206299212598
21
0.9742891732283464
0
LINE
8
BLACK
6
CONTINUOUS
10
0.4957206299212598
20
0.9742891732283464
11
0.4991020866141732
21
0.9726484645669291
0
LINE
8
BLACK
6
CONTINUOUS
10
0.4991020866141732
20
0.9726484645669291
11
0.4993500787401575
21
0.9724923622047243
0
LINE
8
BLACK
6
CONTINUOUS
10
0.4993500787401575
20
0.9724923622047243
11
0.4994220472440945
21
0.9724625590551181
0
LINE
8
BLACK
6
CONTINUOUS
10
0.4994220472440945
20
0.9724625590551181
11
0.4994681102362205
21
0.972418031496063
0
LINE
8
BLACK
6
CONTINUOUS
10
0.4994681102362205
20
0.972418031496063
11
0.499591968503937
21
0.9723401181102362
0
LINE
8
BLACK
6
CONTINUOUS
10
0.499591968503937
20
0.9723401181102362
11
0.4998137007874016
21
0.9720844094488189
0
LINE
8
BLACK
6
CONTINUOUS
10
0.4998137007874016
20
0.9720844094488189
11
0.501557125984252
21
0.9704012204724409
0
LINE
8
BLACK
6
CONTINUOUS
10
0.501557125984252
20
0.9704012204724409
11
0.5031927165354331
21
0.9720953543307086
0
LINE
8
BLACK
6
CONTINUOUS
10
0.5031927165354331
20
0.9720953543307086
11
0.5034190551181102
21
0.9722811023622047
0
LINE
8
BLACK
6
CONTINUOUS
10
0.5034190551181102
20
0.9722811023622047
11
0.5034702362204724
21
0.9723401181102362
0
LINE
8
BLACK
6
CONTINUOUS
10
0.5034702362204724
20
0.9723401181102362
11
0.5035258661417322
21
0.9723687401574803
0
LINE
8
BLACK
6
CONTINUOUS
10
0.5035258661417322
20
0.9723687401574803
11
0.503640157480315
21
0.9724625590551181
0
LINE
8
BLACK
6
CONTINUOUS
10
0.503640157480315
20
0.9724625590551181
11
0.5039870078740157
21
0.9726062204724409
0
LINE
8
BLACK
6
CONTINUOUS
10
0.5039870078740157
20
0.9726062204724409
11
0.5077096456692913
21
0.9745232283464567
0
LINE
8
BLACK
6
CONTINUOUS
10
0.5077096456692913
20
0.9745232283464567
11
0.5082502362204724
21
0.9747301181102362
0
LINE
8
BLACK
6
CONTINUOUS
10
0.5082502362204724
20
0.9747301181102362
11
0.5083561023622047
21
0.9747376377952756
0
LINE
8
BLACK
6
CONTINUOUS
10
0.5083561023622047
20
0.9747376377952756
11
0.508454094488189
21
0.9747782283464567
0
LINE
8
BLACK
6
CONTINUOUS
10
0.508454094488189
20
0.9747782283464567
11
0.5089792519685039
21
0.9747818897637796
0
LINE
8
BLACK
6
CONTINUOUS
10
0.5089792519685039
20
0.9747818897637796
11
0.5093994488188976
21
0.9748117716535433
0
LINE
8
BLACK
6
CONTINUOUS
10
0.5093994488188976
20
0.9748117716535433
11
0.5094784645669291
21
0.9747853937007874
0
LINE
8
BLACK
6
CONTINUOUS
10
0.5094784645669291
20
0.9747853937007874
11
0.5165292125984252
21
0.9748349606299213
0
LINE
8
BLACK
6
CONTINUOUS
10
0.5165292125984252
20
0.9748349606299213
11
0.5171052755905512
21
0.9747782283464567
0
LINE
8
BLACK
6
CONTINUOUS
10
0.5096447637795275
20
0.9689337401574802
11
0.5069364566929134
21
0.967539094488189
0
LINE
8
BLACK
6
CONTINUOUS
10
0.5069364566929134
20
0.967539094488189
11
0.5057457480314961
21
0.966305748031496
0
LINE
8
BLACK
6
CONTINUOUS
10
0.5057457480314961
20
0.966305748031496
11
0.5044366141732284
21
0.9636077165354331
0
LINE
8
BLACK
6
CONTINUOUS
10
0.5044366141732284
20
0.9636077165354331
11
0.5044795275590551
21
0.9574987007874015
0
LINE
8
BLACK
6
CONTINUOUS
10
0.5044795275590551
20
0.9574987007874015
11
0.5058741732283465
21
0.9547903937007873
0
LINE
8
BLACK
6
CONTINUOUS
10
0.5058741732283465
20
0.9547903937007873
11
0.5071075590551181
21
0.9535996456692913
0
LINE
8
BLACK
6
CONTINUOUS
10
0.5071075590551181
20
0.9535996456692913
11
0.5098055511811024
21
0.9522905511811024
0
LINE
8
BLACK
6
CONTINUOUS
10
0.5098055511811024
20
0.9522905511811024
11
0.5159145669291338
21
0.9523334645669291
0
LINE
8
BLACK
6
CONTINUOUS
10
0.5159145669291338
20
0.9523334645669291
11
0.518622874015748
21
0.9537281496062991
0
LINE
8
BLACK
6
CONTINUOUS
10
0.518622874015748
20
0.9537281496062991
11
0.5198136614173228
21
0.9549614960629921
0
LINE
8
BLACK
6
CONTINUOUS
10
0.5198136614173228
20
0.9549614960629921
11
0.5211227559055118
21
0.9576594881889764
0
LINE
8
BLACK
6
CONTINUOUS
10
0.5211227559055118
20
0.9576594881889764
11
0.521079842519685
21
0.9637685039370079
0
LINE
8
BLACK
6
CONTINUOUS
10
0.521079842519685
20
0.9637685039370079
11
0.5196851968503937
21
0.9664767716535433
0
LINE
8
BLACK
6
CONTINUOUS
10
0.5196851968503937
20
0.9664767716535433
11
0.518451811023622
21
0.9676675196850394
0
LINE
8
BLACK
6
CONTINUOUS
10
0.518451811023622
20
0.9676675196850394
11
0.5157537795275591
21
0.9689766535433071
0
LINE
8
BLACK
6
CONTINUOUS
10
0.5157537795275591
20
0.9689766535433071
11
0.5096447637795275
21
0.9689337401574802
0
LINE
8
BLACK
6
CONTINUOUS
10
0.4927920472440945
20
0.9689441338582677
11
0.4900635826771653
21
0.967539094488189
0
LINE
8
BLACK
6
CONTINUOUS
10
0.4900635826771653
20
0.967539094488189
11
0.488872874015748
21
0.966305748031496
0
LINE
8
BLACK
6
CONTINUOUS
10
0.488872874015748
20
0.966305748031496
11
0.4875637401574803
21
0.9636077165354331
0
LINE
8
BLACK
6
CONTINUOUS
10
0.4875637401574803
20
0.9636077165354331
11
0.4876066535433071
21
0.9574987007874015
0
LINE
8
BLACK
6
CONTINUOUS
10
0.4876066535433071
20
0.9574987007874015
11
0.4890012992125984
21
0.9547903937007873
0
LINE
8
BLACK
6
CONTINUOUS
10
0.4890012992125984
20
0.9547903937007873
11
0.4902346850393701
21
0.9535996456692913
0
LINE
8
BLACK
6
CONTINUOUS
10
0.4902346850393701
20
0.9535996456692913
11
0.4928898031496063
21
0.9523113385826771
0
LINE
8
BLACK
6
CONTINUOUS
10
0.4928898031496063
20
0.9523113385826771
11
0.4933972440944882
21
0.9523230708661418
0
LINE
8
BLACK
6
CONTINUOUS
10
0.4933972440944882
20
0.9523230708661418
11
0.4961257086614173
21
0.9537281102362205
0
LINE
8
BLACK
6
CONTINUOUS
10
0.4961257086614173
20
0.9537281102362205
11
0.4973164566929134
21
0.9549614960629921
0
LINE
8
BLACK
6
CONTINUOUS
10
0.4973164566929134
20
0.9549614960629921
11
0.4986255511811024
21
0.9576594881889764
0
LINE
8
BLACK
6
CONTINUOUS
10
0.4986255511811024
20
0.9576594881889764
11
0.4985826377952756
21
0.9637685039370079
0
LINE
8
BLACK
6
CONTINUOUS
10
0.4985826377952756
20
0.9637685039370079
11
0.4971879921259842
21
0.966476811023622
0
LINE
8
BLACK
6
CONTINUOUS
10
0.4971879921259842
20
0.966476811023622
11
0.4959546456692913
21
0.9676675196850394
0
LINE
8
BLACK
6
CONTINUOUS
10
0.4959546456692913
20
0.9676675196850394
11
0.4932994881889763
21
0.9689558661417322
0
LINE
8
BLACK
6
CONTINUOUS
10
0.4932994881889763
20
0.9689558661417322
11
0.4927920472440945
21
0.9689441338582677
0
LINE
8
BLACK
6
CONTINUOUS
10
0.5110074409448819
20
1.0122735433070866
11
0.5114809842519685
21
1.0122735433070866
0
LINE
8
BLACK
6
CONTINUOUS
10
0.5114809842519685
20
1.0122735433070866
11
0.5115790551181102
21
1.012232874015748
0
LINE
8
BLACK
6
CONTINUOUS
10
0.5115790551181102
20
1.012232874015748
11
0.5116848031496063
21
1.0122253937007875
0
LINE
8
BLACK
6
CONTINUOUS
10
0.5116848031496063
20
1.0122253937007875
11
0.5121079133858267
21
1.0120138188976378
0
LINE
8
BLACK
6
CONTINUOUS
10
0.5121079133858267
20
1.0120138188976378
11
0.5125453937007874
21
1.0118326377952755
0
LINE
8
BLACK
6
CONTINUOUS
10
0.5125453937007874
20
1.0118326377952755
11
0.5126203937007874
21
1.0117575984251967
0
LINE
8
BLACK
6
CONTINUOUS
10
0.5126203937007874
20
1.0117575984251967
11
0.5127152755905512
21
1.0117101968503937
0
LINE
8
BLACK
6
CONTINUOUS
10
0.5127152755905512
20
1.0117101968503937
11
0.5130252755905512
21
1.011352716535433
0
LINE
8
BLACK
6
CONTINUOUS
10
0.5130252755905512
20
1.011352716535433
11
0.5133600393700787
21
1.0110179921259843
0
LINE
8
BLACK
6
CONTINUOUS
10
0.5133600393700787
20
1.0110179921259843
11
0.5134006299212598
21
1.0109199212598425
0
LINE
8
BLACK
6
CONTINUOUS
10
0.5134006299212598
20
1.0109199212598425
11
0.513470157480315
21
1.0108398031496062
0
LINE
8
BLACK
6
CONTINUOUS
10
0.513470157480315
20
1.0108398031496062
11
0.5136197637795276
21
1.0103909448818897
0
LINE
8
BLACK
6
CONTINUOUS
10
0.5136197637795276
20
1.0103909448818897
11
0.5138009448818898
21
1.0099535826771653
0
LINE
8
BLACK
6
CONTINUOUS
10
0.5138009448818898
20
1.0099535826771653
11
0.5138011811023622
21
1.0098466929133858
0
LINE
8
BLACK
6
CONTINUOUS
10
0.5138011811023622
20
1.0098466929133858
11
0.5138344881889764
21
1.0097468110236221
0
LINE
8
BLACK
6
CONTINUOUS
10
0.5138344881889764
20
1.0097468110236221
11
0.5138024015748032
21
1.0092959448818897
0
LINE
8
BLACK
6
CONTINUOUS
10
0.5138024015748032
20
1.0092959448818897
11
0.5138381889763779
21
0.993561062992126
0
LINE
8
BLACK
6
CONTINUOUS
10
0.5138381889763779
20
0.993561062992126
11
0.5240283070866142
21
0.9935826377952756
0
LINE
8
BLACK
6
CONTINUOUS
10
0.5240283070866142
20
0.9935826377952756
11
0.5246043700787402
21
0.993525905511811
0
LINE
8
BLACK
6
CONTINUOUS
10
0.5246043700787402
20
0.993525905511811
11
0.5256687795275591
21
0.993085
0
LINE
8
BLACK
6
CONTINUOUS
10
0.5256687795275591
20
0.993085
11
0.5264834251968504
21
0.9922703543307086
0
LINE
8
BLACK
6
CONTINUOUS
10
0.5264834251968504
20
0.9922703543307086
11
0.5269243307086614
21
0.9912059448818897
0
LINE
8
BLACK
6
CONTINUOUS
10
0.5269243307086614
20
0.9912059448818897
11
0.5269243307086614
21
0.9900538188976378
0
LINE
8
BLACK
6
CONTINUOUS
10
0.5269243307086614
20
0.9900538188976378
11
0.5264834251968504
21
0.9889894094488189
0
LINE
8
BLACK
6
CONTINUOUS
10
0.5264834251968504
20
0.9889894094488189
11
0.5256687795275591
21
0.9881747637795275
0
LINE
8
BLACK
6
CONTINUOUS
10
0.5256687795275591
20
0.9881747637795275
11
0.5246043700787402
21
0.9877338582677165
0
LINE
8
BLACK
6
CONTINUOUS
10
0.5246043700787402
20
0.9877338582677165
11
0.5138514960629921
21
0.9877111023622047
0
LINE
8
BLACK
6
CONTINUOUS
10
0.5138514960629921
20
0.9877111023622047
11
0.5138576771653544
21
0.9850055905511811
0
LINE
8
BLACK
6
CONTINUOUS
10
0.5138576771653544
20
0.9850055905511811
11
0.5138009448818898
21
0.9844295275590551
0
LINE
8
BLACK
6
CONTINUOUS
10
0.5138009448818898
20
0.9844295275590551
11
0.5133600393700787
21
0.9833651181102362
0
LINE
8
BLACK
6
CONTINUOUS
10
0.5133600393700787
20
0.9833651181102362
11
0.5125453937007874
21
0.9825504724409448
0
LINE
8
BLACK
6
CONTINUOUS
10
0.5125453937007874
20
0.9825504724409448
11
0.5114809842519685
21
0.9821095669291339
0
LINE
8
BLACK
6
CONTINUOUS
10
0.5114809842519685
20
0.9821095669291339
11
0.5103288582677166
21
0.9821095669291339
0
LINE
8
BLACK
6
CONTINUOUS
10
0.5103288582677166
20
0.9821095669291339
11
0.5092644488188977
21
0.9825504724409448
0
LINE
8
BLACK
6
CONTINUOUS
10
0.5092644488188977
20
0.9825504724409448
11
0.5084498031496063
21
0.9833651181102362
0
LINE
8
BLACK
6
CONTINUOUS
10
0.5084498031496063
20
0.9833651181102362
11
0.5080088976377952
21
0.9844295275590551
0
LINE
8
BLACK
6
CONTINUOUS
10
0.5080088976377952
20
0.9844295275590551
11
0.5080014566929134
21
0.9876987401574803
0
LINE
8
BLACK
6
CONTINUOUS
10
0.5080014566929134
20
0.9876987401574803
11
0.4977815748031496
21
0.9876771259842519
0
LINE
8
BLACK
6
CONTINUOUS
10
0.4977815748031496
20
0.9876771259842519
11
0.4972055118110236
21
0.9877338582677165
0
LINE
8
BLACK
6
CONTINUOUS
10
0.4972055118110236
20
0.9877338582677165
11
0.4961411023622047
21
0.9881747637795275
0
LINE
8
BLACK
6
CONTINUOUS
10
0.4961411023622047
20
0.9881747637795275
11
0.4953264566929134
21
0.9889894094488189
0
LINE
8
BLACK
6
CONTINUOUS
10
0.4953264566929134
20
0.9889894094488189
11
0.4948855511811023
21
0.9900538188976378
0
LINE
8
BLACK
6
CONTINUOUS
10
0.4948855511811023
20
0.9900538188976378
11
0.4948855511811023
21
0.9912059448818897
0
LINE
8
BLACK
6
CONTINUOUS
10
0.4948855511811023
20
0.9912059448818897
11
0.4953264566929134
21
0.9922703543307086
0
LINE
8
BLACK
6
CONTINUOUS
10
0.4953264566929134
20
0.9922703543307086
11
0.4961411023622047
21
0.993085
0
LINE
8
BLACK
6
CONTINUOUS
10
0.4961411023622047
20
0.993085
11
0.4972055118110236
21
0.993525905511811
0
LINE
8
BLACK
6
CONTINUOUS
10
0.4972055118110236
20
0.993525905511811
11
0.5079881496062992
21
0.9935487007874015
0
LINE
8
BLACK
6
CONTINUOUS
10
0.5079881496062992
20
0.9935487007874015
11
0.5079613385826771
21
1.0053344488188976
0
LINE
8
BLACK
6
CONTINUOUS
10
0.5079613385826771
20
1.0053344488188976
11
0.4837172047244094
21
0.9972024803149606
0
LINE
8
BLACK
6
CONTINUOUS
10
0.4837172047244094
20
0.9972024803149606
11
0.4831527559055118
21
0.9970741338582677
0
LINE
8
BLACK
6
CONTINUOUS
10
0.4831527559055118
20
0.9970741338582677
11
0.4820035433070866
21
0.9971558267716535
0
LINE
8
BLACK
6
CONTINUOUS
10
0.4820035433070866
20
0.9971558267716535
11
0.4809731102362205
21
0.9976710236220472
0
LINE
8
BLACK
6
CONTINUOUS
10
0.4809731102362205
20
0.9976710236220472
11
0.4802182283464567
21
0.9985413779527559
0
LINE
8
BLACK
6
CONTINUOUS
10
0.4802182283464567
20
0.9985413779527559
11
0.4798538976377953
21
0.9996344094488189
0
LINE
8
BLACK
6
CONTINUOUS
10
0.4798538976377953
20
0.9996344094488189
11
0.4799355905511811
21
1.0007836220472441
0
LINE
8
BLACK
6
CONTINUOUS
10
0.4799355905511811
20
1.0007836220472441
11
0.4804507874015748
21
1.0018140551181103
0
LINE
8
BLACK
6
CONTINUOUS
10
0.4804507874015748
20
1.0018140551181103
11
0.4813211417322835
21
1.0025689370078741
0
LINE
8
BLACK
6
CONTINUOUS
10
0.4813211417322835
20
1.0025689370078741
11
0.5099711417322834
21
1.0121787401574802
0
LINE
8
BLACK
6
CONTINUOUS
10
0.5099711417322834
20
1.0121787401574802
11
0.5102567716535433
21
1.0122436614173229
0
LINE
8
BLACK
6
CONTINUOUS
10
0.5102567716535433
20
1.0122436614173229
11
0.5103288582677166
21
1.0122735433070866
0
LINE
8
BLACK
6
CONTINUOUS
10
0.5103288582677166
20
1.0122735433070866
11
0.5103880708661417
21
1.0122735433070866
0
LINE
8
BLACK
6
CONTINUOUS
10
0.5103880708661417
20
1.0122735433070866
11
0.5105355905511811
21
1.0123070866141732
0
LINE
8
BLACK
6
CONTINUOUS
10
0.5105355905511811
20
1.0123070866141732
11
0.5110074409448819
21
1.0122735433070866
0
LINE
8
BLACK
6
CONTINUOUS
10
0.5256687795275591
20
1.051202716535433
11
0.5264834645669291
21
1.0503880708661417
0
LINE
8
BLACK
6
CONTINUOUS
10
0.5264834645669291
20
1.0503880708661417
11
0.5267399212598425
21
1.0497688582677165
0
LINE
8
BLACK
6
CONTINUOUS
10
0.5267399212598425
20
1.0497688582677165
11
0.5269243307086614
21
1.0493236614173229
0
LINE
8
BLACK
6
CONTINUOUS
10
0.5269243307086614
20
1.0493236614173229
11
0.526981062992126
21
1.0243756692913386
0
LINE
8
BLACK
6
CONTINUOUS
10
0.526981062992126
20
1.0243756692913386
11
0.5269243307086614
21
1.0237996062992125
0
LINE
8
BLACK
6
CONTINUOUS
10
0.5269243307086614
20
1.0237996062992125
11
0.5264834251968504
21
1.0227351968503937
0
LINE
8
BLACK
6
CONTINUOUS
10
0.5264834251968504
20
1.0227351968503937
11
0.5256687795275591
21
1.0219205511811023
0
LINE
8
BLACK
6
CONTINUOUS
10
0.5256687795275591
20
1.0219205511811023
11
0.5246043700787402
21
1.0214796456692914
0
LINE
8
BLACK
6
CONTINUOUS
10
0.5246043700787402
20
1.0214796456692914
11
0.5234522440944882
21
1.0214796456692914
0
LINE
8
BLACK
6
CONTINUOUS
10
0.5234522440944882
20
1.0214796456692914
11
0.5223878346456693
21
1.0219205511811023
0
LINE
8
BLACK
6
CONTINUOUS
10
0.5223878346456693
20
1.0219205511811023
11
0.5215731889763779
21
1.0227351968503937
0
LINE
8
BLACK
6
CONTINUOUS
10
0.5215731889763779
20
1.0227351968503937
11
0.521132283464567
21
1.0237996062992125
0
LINE
8
BLACK
6
CONTINUOUS
10
0.521132283464567
20
1.0237996062992125
11
0.5210915748031496
21
1.0416963385826772
0
LINE
8
BLACK
6
CONTINUOUS
10
0.5210915748031496
20
1.0416963385826772
11
0.5036190157480315
21
1.0241625196850392
0
LINE
8
BLACK
6
CONTINUOUS
10
0.5036190157480315
20
1.0241625196850392
11
0.5031715748031496
21
1.0237953149606298
0
LINE
8
BLACK
6
CONTINUOUS
10
0.5031715748031496
20
1.0237953149606298
11
0.5030735039370079
21
1.0237546850393699
0
LINE
8
BLACK
6
CONTINUOUS
10
0.5030735039370079
20
1.0237546850393699
11
0.5029933858267717
21
1.0236851968503937
0
LINE
8
BLACK
6
CONTINUOUS
10
0.5029933858267717
20
1.0236851968503937
11
0.5024830708661417
21
1.0235101181102362
0
LINE
8
BLACK
6
CONTINUOUS
10
0.5024830708661417
20
1.0235101181102362
11
0.502107125984252
21
1.0233544094488189
0
LINE
8
BLACK
6
CONTINUOUS
10
0.502107125984252
20
1.0233544094488189
11
0.5020291338582678
21
1.0233544094488189
0
LINE
8
BLACK
6
CONTINUOUS
10
0.5020291338582678
20
1.0233544094488189
11
0.4968405511811024
21
1.0215744488188976
0
LINE
8
BLACK
6
CONTINUOUS
10
0.4968405511811024
20
1.0215744488188976
11
0.4965549606299213
21
1.0215094881889764
0
LINE
8
BLACK
6
CONTINUOUS
10
0.4965549606299213
20
1.0215094881889764
11
0.496482874015748
21
1.0214796456692914
0
LINE
8
BLACK
6
CONTINUOUS
10
0.496482874015748
20
1.0214796456692914
11
0.4964199606299213
21
1.0214788188976378
0
LINE
8
BLACK
6
CONTINUOUS
10
0.4964199606299213
20
1.0214788188976378
11
0.4962761023622047
21
1.0214461023622048
0
LINE
8
BLACK
6
CONTINUOUS
10
0.4962761023622047
20
1.0214461023622048
11
0.4959099212598425
21
1.0214721259842519
0
LINE
8
BLACK
6
CONTINUOUS
10
0.4959099212598425
20
1.0214721259842519
11
0.4921572834645669
21
1.0214229133858268
0
LINE
8
BLACK
6
CONTINUOUS
10
0.4921572834645669
20
1.0214229133858268
11
0.491581220472441
21
1.0214796456692914
0
LINE
8
BLACK
6
CONTINUOUS
10
0.491581220472441
20
1.0214796456692914
11
0.4914832283464567
21
1.0215201968503937
0
LINE
8
BLACK
6
CONTINUOUS
10
0.4914832283464567
20
1.0215201968503937
11
0.4913773622047244
21
1.0215277559055118
0
LINE
8
BLACK
6
CONTINUOUS
10
0.4913773622047244
20
1.0215277559055118
11
0.4908655905511811
21
1.021776062992126
0
LINE
8
BLACK
6
CONTINUOUS
10
0.4908655905511811
20
1.021776062992126
11
0.490516811023622
21
1.0219205511811023
0
LINE
8
BLACK
6
CONTINUOUS
10
0.490516811023622
20
1.0219205511811023
11
0.4904687007874016
21
1.0219686220472441
0
LINE
8
BLACK
6
CONTINUOUS
10
0.4904687007874016
20
1.0219686220472441
11
0.4870872440944882
21
1.0236094094488188
0
LINE
8
BLACK
6
CONTINUOUS
10
0.4870872440944882
20
1.0236094094488188
11
0.4868392125984252
21
1.0237654724409448
0
LINE
8
BLACK
6
CONTINUOUS
10
0.4868392125984252
20
1.0237654724409448
11
0.4867672834645669
21
1.0237953149606298
0
LINE
8
BLACK
6
CONTINUOUS
10
0.4867672834645669
20
1.0237953149606298
11
0.4867211811023622
21
1.0238398031496063
0
LINE
8
BLACK
6
CONTINUOUS
10
0.4867211811023622
20
1.0238398031496063
11
0.4865973622047244
21
1.0239177559055117
0
LINE
8
BLACK
6
CONTINUOUS
10
0.4865973622047244
20
1.0239177559055117
11
0.4863755905511811
21
1.0241734251968504
0
LINE
8
BLACK
6
CONTINUOUS
10
0.4863755905511811
20
1.0241734251968504
11
0.4844450787401575
21
1.0260372834645668
0
LINE
8
BLACK
6
CONTINUOUS
10
0.4844450787401575
20
1.0260372834645668
11
0.4842592913385826
21
1.0262636220472441
0
LINE
8
BLACK
6
CONTINUOUS
10
0.4842592913385826
20
1.0262636220472441
11
0.4842003149606299
21
1.0263148031496063
0
LINE
8
BLACK
6
CONTINUOUS
10
0.4842003149606299
20
1.0263148031496063
11
0.4841716535433071
21
1.0263704330708661
0
LINE
8
BLACK
6
CONTINUOUS
10
0.4841716535433071
20
1.0263704330708661
11
0.484077874015748
21
1.0264847244094488
0
LINE
8
BLACK
6
CONTINUOUS
10
0.484077874015748
20
1.0264847244094488
11
0.4839342125984252
21
1.0268314960629921
0
LINE
8
BLACK
6
CONTINUOUS
10
0.4839342125984252
20
1.0268314960629921
11
0.4820172047244095
21
1.0305542125984253
0
LINE
8
BLACK
6
CONTINUOUS
10
0.4820172047244095
20
1.0305542125984253
11
0.4818103149606299
21
1.0310948425196851
0
LINE
8
BLACK
6
CONTINUOUS
10
0.4818103149606299
20
1.0310948425196851
11
0.4818027952755906
21
1.0312006299212597
0
LINE
8
BLACK
6
CONTINUOUS
10
0.4818027952755906
20
1.0312006299212597
11
0.4817622047244094
21
1.0312986614173227
0
LINE
8
BLACK
6
CONTINUOUS
10
0.4817622047244094
20
1.0312986614173227
11
0.4817592519685039
21
1.0318132283464567
0
LINE
8
BLACK
6
CONTINUOUS
10
0.4817592519685039
20
1.0318132283464567
11
0.4817286614173228
21
1.0322440551181102
0
LINE
8
BLACK
6
CONTINUOUS
10
0.4817286614173228
20
1.0322440551181102
11
0.4817563385826771
21
1.0323270866141732
0
LINE
8
BLACK
6
CONTINUOUS
10
0.4817563385826771
20
1.0323270866141732
11
0.4817054724409449
21
1.0412485433070866
0
LINE
8
BLACK
6
CONTINUOUS
10
0.4817054724409449
20
1.0412485433070866
11
0.4817622047244094
21
1.0418246062992125
0
LINE
8
BLACK
6
CONTINUOUS
10
0.4817622047244094
20
1.0418246062992125
11
0.4818027952755906
21
1.0419225984251967
0
LINE
8
BLACK
6
CONTINUOUS
10
0.4818027952755906
20
1.0419225984251967
11
0.4818103149606299
21
1.0420284251968503
0
LINE
8
BLACK
6
CONTINUOUS
10
0.4818103149606299
20
1.0420284251968503
11
0.4820585039370079
21
1.0425399606299213
0
LINE
8
BLACK
6
CONTINUOUS
10
0.4820585039370079
20
1.0425399606299213
11
0.4822031102362205
21
1.0428890157480315
0
LINE
8
BLACK
6
CONTINUOUS
10
0.4822031102362205
20
1.0428890157480315
11
0.482251220472441
21
1.0429371259842519
0
LINE
8
BLACK
6
CONTINUOUS
10
0.482251220472441
20
1.0429371259842519
11
0.483891968503937
21
1.0463185826771653
0
LINE
8
BLACK
6
CONTINUOUS
10
0.483891968503937
20
1.0463185826771653
11
0.484048031496063
21
1.0465665748031496
0
LINE
8
BLACK
6
CONTINUOUS
10
0.484048031496063
20
1.0465665748031496
11
0.484077874015748
21
1.0466385433070866
0
LINE
8
BLACK
6
CONTINUOUS
10
0.484077874015748
20
1.0466385433070866
11
0.4841223622047244
21
1.0466846062992126
0
LINE
8
BLACK
6
CONTINUOUS
10
0.4841223622047244
20
1.0466846062992126
11
0.4842003149606299
21
1.0468084645669291
0
LINE
8
BLACK
6
CONTINUOUS
10
0.4842003149606299
20
1.0468084645669291
11
0.4844559842519685
21
1.0470301968503937
0
LINE
8
BLACK
6
CONTINUOUS
10
0.4844559842519685
20
1.0470301968503937
11
0.486319842519685
21
1.048960748031496
0
LINE
8
BLACK
6
CONTINUOUS
10
0.486319842519685
20
1.048960748031496
11
0.4867672834645669
21
1.0493279527559054
0
LINE
8
BLACK
6
CONTINUOUS
10
0.4867672834645669
20
1.0493279527559054
11
0.4878316929133858
21
1.0497688582677165
0
LINE
8
BLACK
6
CONTINUOUS
10
0.4878316929133858
20
1.0497688582677165
11
0.4889837795275591
21
1.0497688582677165
0
LINE
8
BLACK
6
CONTINUOUS
10
0.4889837795275591
20
1.0497688582677165
11
0.4900481889763779
21
1.0493279527559054
0
LINE
8
BLACK
6
CONTINUOUS
10
0.4900481889763779
20
1.0493279527559054
11
0.490862874015748
21
1.0485132677165354
0
LINE
8
BLACK
6
CONTINUOUS
10
0.490862874015748
20
1.0485132677165354
11
0.491303779527559
21
1.0474488582677166
0
LINE
8
BLACK
6
CONTINUOUS
10
0.491303779527559
20
1.0474488582677166
11
0.491303779527559
21
1.0462967716535432
0
LINE
8
BLACK
6
CONTINUOUS
10
0.491303779527559
20
1.0462967716535432
11
0.490862874015748
21
1.0452323622047244
0
LINE
8
BLACK
6
CONTINUOUS
10
0.490862874015748
20
1.0452323622047244
11
0.488872874015748
21
1.0431711417322835
0
LINE
8
BLACK
6
CONTINUOUS
10
0.488872874015748
20
1.0431711417322835
11
0.487561968503937
21
1.0404694881889764
0
LINE
8
BLACK
6
CONTINUOUS
10
0.487561968503937
20
1.0404694881889764
11
0.4876074803149606
21
1.0324877559055119
0
LINE
8
BLACK
6
CONTINUOUS
10
0.4876074803149606
20
1.0324877559055119
11
0.4890012992125984
21
1.0297810236220473
0
LINE
8
BLACK
6
CONTINUOUS
10
0.4890012992125984
20
1.0297810236220473
11
0.4902346850393701
21
1.0285902755905512
0
LINE
8
BLACK
6
CONTINUOUS
10
0.4902346850393701
20
1.0285902755905512
11
0.4929161417322834
21
1.0272891732283465
0
LINE
8
BLACK
6
CONTINUOUS
10
0.4929161417322834
20
1.0272891732283465
11
0.4955608661417323
21
1.0273238582677164
0
LINE
8
BLACK
6
CONTINUOUS
10
0.4955608661417323
20
1.0273238582677164
11
0.5000432677165354
21
1.0288615748031495
0
LINE
8
BLACK
6
CONTINUOUS
10
0.5000432677165354
20
1.0288615748031495
11
0.5219403937007874
21
1.0508355118110235
0
LINE
8
BLACK
6
CONTINUOUS
10
0.5219403937007874
20
1.0508355118110235
11
0.5223878346456693
21
1.0512027559055117
0
LINE
8
BLACK
6
CONTINUOUS
10
0.5223878346456693
20
1.0512027559055117
11
0.5231404724409449
21
1.0515144881889764
0
LINE
8
BLACK
6
CONTINUOUS
10
0.5231404724409449
20
1.0515144881889764
11
0.5234522440944882
21
1.051643622047244
0
LINE
8
BLACK
6
CONTINUOUS
10
0.5234522440944882
20
1.051643622047244
11
0.5246043700787402
21
1.051643622047244
0
LINE
8
BLACK
6
CONTINUOUS
10
0.5246043700787402
20
1.051643622047244
11
0.5256687795275591
21
1.051202716535433
0
LINE
8
BLACK
6
CONTINUOUS
10
0.507255905511811
20
1.0891857480314961
11
0.507298937007874
21
1.0891921653543306
0
LINE
8
BLACK
6
CONTINUOUS
10
0.507298937007874
20
1.0891921653543306
11
0.5073725984251969
21
1.0891742519685039
0
LINE
8
BLACK
6
CONTINUOUS
10
0.5073725984251969
20
1.0891742519685039
11
0.5077314566929134
21
1.0891389370078739
0
LINE
8
BLACK
6
CONTINUOUS
10
0.5077314566929134
20
1.0891389370078739
11
0.5080333464566928
21
1.0890138582677165
0
LINE
8
BLACK
6
CONTINUOUS
10
0.5080333464566928
20
1.0890138582677165
11
0.5153705905511811
21
1.0872327559055117
0
LINE
8
BLACK
6
CONTINUOUS
10
0.5153705905511811
20
1.0872327559055117
11
0.5154130708661417
21
1.0872175590551181
0
LINE
8
BLACK
6
CONTINUOUS
10
0.5154130708661417
20
1.0872175590551181
11
0.5154343307086614
21
1.0872160629921259
0
LINE
8
BLACK
6
CONTINUOUS
10
0.5154343307086614
20
1.0872160629921259
11
0.5154818503937008
21
1.0871929921259842
0
LINE
8
BLACK
6
CONTINUOUS
10
0.5154818503937008
20
1.0871929921259842
11
0.5159157086614173
21
1.0870379921259843
0
LINE
8
BLACK
6
CONTINUOUS
10
0.5159157086614173
20
1.0870379921259843
11
0.5161326771653543
21
1.0868771653543308
0
LINE
8
BLACK
6
CONTINUOUS
10
0.5161326771653543
20
1.0868771653543308
11
0.5197244881889763
21
1.0851344094488189
0
LINE
8
BLACK
6
CONTINUOUS
10
0.5197244881889763
20
1.0851344094488189
11
0.5199723622047244
21
1.0849783464566929
0
LINE
8
BLACK
6
CONTINUOUS
10
0.5199723622047244
20
1.0849783464566929
11
0.5200444094488189
21
1.0849485433070867
0
LINE
8
BLACK
6
CONTINUOUS
10
0.5200444094488189
20
1.0849485433070867
11
0.5200885039370079
21
1.0849052755905511
0
LINE
8
BLACK
6
CONTINUOUS
10
0.5200885039370079
20
1.0849052755905511
11
0.5202143700787402
21
1.084826062992126
0
LINE
8
BLACK
6
CONTINUOUS
10
0.5202143700787402
20
1.084826062992126
11
0.5204711811023622
21
1.0845298818897637
0
LINE
8
BLACK
6
CONTINUOUS
10
0.5204711811023622
20
1.0845298818897637
11
0.5242414566929133
21
1.0808317716535434
0
LINE
8
BLACK
6
CONTINUOUS
10
0.5242414566929133
20
1.0808317716535434
11
0.5246087007874015
21
1.0803843307086614
0
LINE
8
BLACK
6
CONTINUOUS
10
0.5246087007874015
20
1.0803843307086614
11
0.5246492913385826
21
1.0802862598425196
0
LINE
8
BLACK
6
CONTINUOUS
10
0.5246492913385826
20
1.0802862598425196
11
0.5247187795275591
21
1.0802061811023622
0
LINE
8
BLACK
6
CONTINUOUS
10
0.5247187795275591
20
1.0802061811023622
11
0.524893779527559
21
1.0796959842519684
0
LINE
8
BLACK
6
CONTINUOUS
10
0.524893779527559
20
1.0796959842519684
11
0.5250495669291338
21
1.0793199212598426
0
LINE
8
BLACK
6
CONTINUOUS
10
0.5250495669291338
20
1.0793199212598426
11
0.5250495669291338
21
1.0792419291338582
0
LINE
8
BLACK
6
CONTINUOUS
10
0.5250495669291338
20
1.0792419291338582
11
0.5268295275590551
21
1.0740533464566928
0
LINE
8
BLACK
6
CONTINUOUS
10
0.5268295275590551
20
1.0740533464566928
11
0.5268944488188976
21
1.0737676771653544
0
LINE
8
BLACK
6
CONTINUOUS
10
0.5268944488188976
20
1.0737676771653544
11
0.5269243307086614
21
1.0736956299212599
0
LINE
8
BLACK
6
CONTINUOUS
10
0.5269243307086614
20
1.0736956299212599
11
0.5269251181102362
21
1.0736327559055119
0
LINE
8
BLACK
6
CONTINUOUS
10
0.5269251181102362
20
1.0736327559055119
11
0.526957874015748
21
1.0734888976377952
0
LINE
8
BLACK
6
CONTINUOUS
10
0.526957874015748
20
1.0734888976377952
11
0.5269318110236221
21
1.0731227165354331
0
LINE
8
BLACK
6
CONTINUOUS
10
0.5269318110236221
20
1.0731227165354331
11
0.526981062992126
21
1.0693700393700787
0
LINE
8
BLACK
6
CONTINUOUS
10
0.526981062992126
20
1.0693700393700787
11
0.5269523228346457
21
1.0690784251968504
0
LINE
8
BLACK
6
CONTINUOUS
10
0.5269523228346457
20
1.0690784251968504
11
0.526957874015748
21
1.0690007086614173
0
LINE
8
BLACK
6
CONTINUOUS
10
0.526957874015748
20
1.0690007086614173
11
0.5269388976377952
21
1.068942125984252
0
LINE
8
BLACK
6
CONTINUOUS
10
0.5269388976377952
20
1.068942125984252
11
0.5269243307086614
21
1.0687939763779528
0
LINE
8
BLACK
6
CONTINUOUS
10
0.5269243307086614
20
1.0687939763779528
11
0.5267716535433071
21
1.068425433070866
0
LINE
8
BLACK
6
CONTINUOUS
10
0.5267716535433071
20
1.068425433070866
11
0.5249547637795275
21
1.0628120078740158
0
LINE
8
BLACK
6
CONTINUOUS
10
0.5249547637795275
20
1.0628120078740158
11
0.5247187795275591
21
1.0622834251968503
0
LINE
8
BLACK
6
CONTINUOUS
10
0.5247187795275591
20
1.0622834251968503
11
0.5246492125984252
21
1.0622032283464566
0
LINE
8
BLACK
6
CONTINUOUS
10
0.5246492125984252
20
1.0622032283464566
11
0.5246086614173229
21
1.0621052755905511
0
LINE
8
BLACK
6
CONTINUOUS
10
0.5246086614173229
20
1.0621052755905511
11
0.5241718897637795
21
1.061652874015748
0
LINE
8
BLACK
6
CONTINUOUS
10
0.5241718897637795
20
1.061652874015748
11
0.5239638976377953
21
1.0614130708661418
0
LINE
8
BLACK
6
CONTINUOUS
10
0.5239638976377953
20
1.0614130708661418
11
0.5239183858267716
21
1.0613903149606299
0
LINE
8
BLACK
6
CONTINUOUS
10
0.5239183858267716
20
1.0613903149606299
11
0.5223666141732284
21
1.059783031496063
0
LINE
8
BLACK
6
CONTINUOUS
10
0.5223666141732284
20
1.059783031496063
11
0.5219191732283465
21
1.0594158267716536
0
LINE
8
BLACK
6
CONTINUOUS
10
0.5219191732283465
20
1.0594158267716536
11
0.5208547637795276
21
1.0589749606299212
0
LINE
8
BLACK
6
CONTINUOUS
10
0.5208547637795276
20
1.0589749606299212
11
0.5197026771653543
21
1.0589749606299212
0
LINE
8
BLACK
6
CONTINUOUS
10
0.5197026771653543
20
1.0589749606299212
11
0.5186382677165354
21
1.0594158661417323
0
LINE
8
BLACK
6
CONTINUOUS
10
0.5186382677165354
20
1.0594158661417323
11
0.5178235826771653
21
1.0602305511811023
0
LINE
8
BLACK
6
CONTINUOUS
10
0.5178235826771653
20
1.0602305511811023
11
0.5173827165354331
21
1.0612949606299211
0
LINE
8
BLACK
6
CONTINUOUS
10
0.5173827165354331
20
1.0612949606299211
11
0.5173827165354331
21
1.0624470472440946
0
LINE
8
BLACK
6
CONTINUOUS
10
0.5173827165354331
20
1.0624470472440946
11
0.5178236220472441
21
1.0635114566929134
0
LINE
8
BLACK
6
CONTINUOUS
10
0.5178236220472441
20
1.0635114566929134
11
0.5196362992125985
21
1.0653889763779527
0
LINE
8
BLACK
6
CONTINUOUS
10
0.5196362992125985
20
1.0653889763779527
11
0.5211169291338582
21
1.0699634645669291
0
LINE
8
BLACK
6
CONTINUOUS
10
0.5211169291338582
20
1.0699634645669291
11
0.5210800787401575
21
1.0727736614173229
0
LINE
8
BLACK
6
CONTINUOUS
10
0.5210800787401575
20
1.0727736614173229
11
0.5195502362204725
21
1.0772331102362205
0
LINE
8
BLACK
6
CONTINUOUS
10
0.5195502362204725
20
1.0772331102362205
11
0.5165688976377952
21
1.0801574015748032
0
LINE
8
BLACK
6
CONTINUOUS
10
0.5165688976377952
20
1.0801574015748032
11
0.5134267716535433
21
1.0816820472440944
0
LINE
8
BLACK
6
CONTINUOUS
10
0.5134267716535433
20
1.0816820472440944
11
0.506610905511811
21
1.0833366141732284
0
LINE
8
BLACK
6
CONTINUOUS
10
0.506610905511811
20
1.0833366141732284
11
0.5016986220472441
21
1.083291653543307
0
LINE
8
BLACK
6
CONTINUOUS
10
0.5016986220472441
20
1.083291653543307
11
0.4948706692913385
21
1.0815350393700787
0
LINE
8
BLACK
6
CONTINUOUS
10
0.4948706692913385
20
1.0815350393700787
11
0.4919125984251969
21
1.0800117716535433
0
LINE
8
BLACK
6
CONTINUOUS
10
0.4919125984251969
20
1.0800117716535433
11
0.4890468503937008
21
1.0770901574803149
0
LINE
8
BLACK
6
CONTINUOUS
10
0.4890468503937008
20
1.0770901574803149
11
0.4875695669291338
21
1.0725261023622048
0
LINE
8
BLACK
6
CONTINUOUS
10
0.4875695669291338
20
1.0725261023622048
11
0.4876064173228347
21
1.0697159448818898
0
LINE
8
BLACK
6
CONTINUOUS
10
0.4876064173228347
20
1.0697159448818898
11
0.4891286614173228
21
1.0652786220472441
0
LINE
8
BLACK
6
CONTINUOUS
10
0.4891286614173228
20
1.0652786220472441
11
0.4904956692913386
21
1.0639588976377952
0
LINE
8
BLACK
6
CONTINUOUS
10
0.4904956692913386
20
1.0639588976377952
11
0.490862874015748
21
1.0635114566929134
0
LINE
8
BLACK
6
CONTINUOUS
10
0.490862874015748
20
1.0635114566929134
11
0.491303779527559
21
1.0624470472440946
0
LINE
8
BLACK
6
CONTINUOUS
10
0.491303779527559
20
1.0624470472440946
11
0.491303779527559
21
1.0612949606299211
0
LINE
8
BLACK
6
CONTINUOUS
10
0.491303779527559
20
1.0612949606299211
11
0.490862874015748
21
1.0602305511811023
0
LINE
8
BLACK
6
CONTINUOUS
10
0.490862874015748
20
1.0602305511811023
11
0.4900481889763779
21
1.0594158661417323
0
LINE
8
BLACK
6
CONTINUOUS
10
0.4900481889763779
20
1.0594158661417323
11
0.4889837795275591
21
1.0589749606299212
0
LINE
8
BLACK
6
CONTINUOUS
10
0.4889837795275591
20
1.0589749606299212
11
0.4878316929133858
21
1.0589749606299212
0
LINE
8
BLACK
6
CONTINUOUS
10
0.4878316929133858
20
1.0589749606299212
11
0.4867672834645669
21
1.0594158661417323
0
LINE
8
BLACK
6
CONTINUOUS
10
0.4867672834645669
20
1.0594158661417323
11
0.4844450787401575
21
1.0616578346456693
0
LINE
8
BLACK
6
CONTINUOUS
10
0.4844450787401575
20
1.0616578346456693
11
0.484077874015748
21
1.0621052755905511
0
LINE
8
BLACK
6
CONTINUOUS
10
0.484077874015748
20
1.0621052755905511
11
0.4840372440944882
21
1.0622033070866141
0
LINE
8
BLACK
6
CONTINUOUS
10
0.4840372440944882
20
1.0622033070866141
11
0.4839677559055118
21
1.062283464566929
0
LINE
8
BLACK
6
CONTINUOUS
10
0.4839677559055118
20
1.062283464566929
11
0.4837926771653543
21
1.0627937401574803
0
LINE
8
BLACK
6
CONTINUOUS
10
0.4837926771653543
20
1.0627937401574803
11
0.483636968503937
21
1.0631697244094489
0
LINE
8
BLACK
6
CONTINUOUS
10
0.483636968503937
20
1.0631697244094489
11
0.483636968503937
21
1.0632476771653543
0
LINE
8
BLACK
6
CONTINUOUS
10
0.483636968503937
20
1.0632476771653543
11
0.4818570078740158
21
1.0684362992125984
0
LINE
8
BLACK
6
CONTINUOUS
10
0.4818570078740158
20
1.0684362992125984
11
0.4817920472440945
21
1.0687218503937008
0
LINE
8
BLACK
6
CONTINUOUS
10
0.4817920472440945
20
1.0687218503937008
11
0.4817622047244094
21
1.0687939763779528
0
LINE
8
BLACK
6
CONTINUOUS
10
0.4817622047244094
20
1.0687939763779528
11
0.4817613779527559
21
1.0688568503937008
0
LINE
8
BLACK
6
CONTINUOUS
10
0.4817613779527559
20
1.0688568503937008
11
0.4817286614173228
21
1.069000748031496
0
LINE
8
BLACK
6
CONTINUOUS
10
0.4817286614173228
20
1.069000748031496
11
0.4817546850393701
21
1.0693668897637796
0
LINE
8
BLACK
6
CONTINUOUS
10
0.4817546850393701
20
1.0693668897637796
11
0.4817054724409449
21
1.0731195669291338
0
LINE
8
BLACK
6
CONTINUOUS
10
0.4817054724409449
20
1.0731195669291338
11
0.4817341732283464
21
1.0734111023622046
0
LINE
8
BLACK
6
CONTINUOUS
10
0.4817341732283464
20
1.0734111023622046
11
0.4817286614173228
21
1.0734888582677165
0
LINE
8
BLACK
6
CONTINUOUS
10
0.4817286614173228
20
1.0734888582677165
11
0.4817475984251968
21
1.0735473622047245
0
LINE
8
BLACK
6
CONTINUOUS
10
0.4817475984251968
20
1.0735473622047245
11
0.4817622047244094
21
1.0736956299212599
0
LINE
8
BLACK
6
CONTINUOUS
10
0.4817622047244094
20
1.0736956299212599
11
0.4819148818897638
21
1.074064251968504
0
LINE
8
BLACK
6
CONTINUOUS
10
0.4819148818897638
20
1.074064251968504
11
0.4837317716535433
21
1.0796775984251967
0
LINE
8
BLACK
6
CONTINUOUS
10
0.4837317716535433
20
1.0796775984251967
11
0.4839677559055118
21
1.0802061417322835
0
LINE
8
BLACK
6
CONTINUOUS
10
0.4839677559055118
20
1.0802061417322835
11
0.4840372440944882
21
1.0802862598425196
0
LINE
8
BLACK
6
CONTINUOUS
10
0.4840372440944882
20
1.0802862598425196
11
0.484077874015748
21
1.0803843307086614
0
LINE
8
BLACK
6
CONTINUOUS
10
0.484077874015748
20
1.0803843307086614
11
0.4844616535433071
21
1.0807755905511811
0
LINE
8
BLACK
6
CONTINUOUS
10
0.4844616535433071
20
1.0807755905511811
11
0.4847226377952756
21
1.0810764960629922
0
LINE
8
BLACK
6
CONTINUOUS
10
0.4847226377952756
20
1.0810764960629922
11
0.4847896850393701
21
1.08111
0
LINE
8
BLACK
6
CONTINUOUS
10
0.4847896850393701
20
1.08111
11
0.4881946062992126
21
1.0845812992125985
0
LINE
8
BLACK
6
CONTINUOUS
10
0.4881946062992126
20
1.0845812992125985
11
0.4884209842519685
21
1.084767125984252
0
LINE
8
BLACK
6
CONTINUOUS
10
0.4884209842519685
20
1.084767125984252
11
0.4884721259842519
21
1.084826062992126
0
LINE
8
BLACK
6
CONTINUOUS
10
0.4884721259842519
20
1.084826062992126
11
0.4885276377952756
21
1.0848546456692914
0
LINE
8
BLACK
6
CONTINUOUS
10
0.4885276377952756
20
1.0848546456692914
11
0.4886420472440945
21
1.0849485433070867
0
LINE
8
BLACK
6
CONTINUOUS
10
0.4886420472440945
20
1.0849485433070867
11
0.4889890944881889
21
1.0850922834645669
0
LINE
8
BLACK
6
CONTINUOUS
10
0.4889890944881889
20
1.0850922834645669
11
0.4927115354330708
21
1.0870091732283464
0
LINE
8
BLACK
6
CONTINUOUS
10
0.4927115354330708
20
1.0870091732283464
11
0.4927536220472441
21
1.0870252755905512
0
LINE
8
BLACK
6
CONTINUOUS
10
0.4927536220472441
20
1.0870252755905512
11
0.4927707874015748
21
1.0870379921259843
0
LINE
8
BLACK
6
CONTINUOUS
10
0.4927707874015748
20
1.0870379921259843
11
0.4928197244094488
21
1.0870505511811024
0
LINE
8
BLACK
6
CONTINUOUS
10
0.4928197244094488
20
1.0870505511811024
11
0.4932521259842519
21
1.0872160629921259
0
LINE
8
BLACK
6
CONTINUOUS
10
0.4932521259842519
20
1.0872160629921259
11
0.4935433464566929
21
1.0872367322834646
0
LINE
8
BLACK
6
CONTINUOUS
10
0.4935433464566929
20
1.0872367322834646
11
0.5008149606299213
21
1.0891075196850393
0
LINE
8
BLACK
6
CONTINUOUS
10
0.5008149606299213
20
1.0891075196850393
11
0.5009148031496062
21
1.0891222834645669
0
LINE
8
BLACK
6
CONTINUOUS
10
0.5009148031496062
20
1.0891222834645669
11
0.5009550393700787
21
1.0891389370078739
0
LINE
8
BLACK
6
CONTINUOUS
10
0.5009550393700787
20
1.0891389370078739
11
0.5010322440944882
21
1.0891396062992125
0
LINE
8
BLACK
6
CONTINUOUS
10
0.5010322440944882
20
1.0891396062992125
11
0.5013875590551181
21
1.0891921653543306
0
LINE
8
BLACK
6
CONTINUOUS
10
0.5013875590551181
20
1.0891921653543306
11
0.5016994881889764
21
1.0891457480314961
0
LINE
8
BLACK
6
CONTINUOUS
10
0.5016994881889764
20
1.0891457480314961
11
0.5071553937007874
21
1.0891956692913385
0
LINE
8
BLACK
6
CONTINUOUS
10
0.5071553937007874
20
1.0891956692913385
11
0.507255905511811
21
1.0891857480314961
0
LINE
8
BLACK
6
CONTINUOUS
10
0.4862987007874016
20
1.1224438188976378
11
0.4871133464566929
21
1.1216291732283463
0
LINE
8
BLACK
6
CONTINUOUS
10
0.4871133464566929
20
1.1216291732283463
11
0.4875542519685039
21
1.1205647637795275
0
LINE
8
BLACK
6
CONTINUOUS
10
0.4875542519685039
20
1.1205647637795275
11
0.4875761811023622
21
1.1116411023622046
0
LINE
8
BLACK
6
CONTINUOUS
10
0.4875761811023622
20
1.1116411023622046
11
0.5240283070866142
21
1.1116928740157479
0
LINE
8
BLACK
6
CONTINUOUS
10
0.5240283070866142
20
1.1116928740157479
11
0.5246043700787402
21
1.1116361417322835
0
LINE
8
BLACK
6
CONTINUOUS
10
0.5246043700787402
20
1.1116361417322835
11
0.5256687795275591
21
1.1111952362204724
0
LINE
8
BLACK
6
CONTINUOUS
10
0.5256687795275591
20
1.1111952362204724
11
0.5264834251968504
21
1.110380590551181
0
LINE
8
BLACK
6
CONTINUOUS
10
0.5264834251968504
20
1.110380590551181
11
0.5269243307086614
21
1.1093161811023622
0
LINE
8
BLACK
6
CONTINUOUS
10
0.5269243307086614
20
1.1093161811023622
11
0.5269243307086614
21
1.1081640551181102
0
LINE
8
BLACK
6
CONTINUOUS
10
0.5269243307086614
20
1.1081640551181102
11
0.5264834251968504
21
1.1070996456692914
0
LINE
8
BLACK
6
CONTINUOUS
10
0.5264834251968504
20
1.1070996456692914
11
0.5256687795275591
21
1.106285
0
LINE
8
BLACK
6
CONTINUOUS
10
0.5256687795275591
20
1.106285
11
0.5246043700787402
21
1.1058440944881889
0
LINE
8
BLACK
6
CONTINUOUS
10
0.5246043700787402
20
1.1058440944881889
11
0.4875905511811023
21
1.1057914960629922
0
LINE
8
BLACK
6
CONTINUOUS
10
0.4875905511811023
20
1.1057914960629922
11
0.4876109842519685
21
1.0974915354330708
0
LINE
8
BLACK
6
CONTINUOUS
10
0.4876109842519685
20
1.0974915354330708
11
0.4875542519685039
21
1.0969154724409449
0
LINE
8
BLACK
6
CONTINUOUS
10
0.4875542519685039
20
1.0969154724409449
11
0.4871133464566929
21
1.0958510629921259
0
LINE
8
BLACK
6
CONTINUOUS
10
0.4871133464566929
20
1.0958510629921259
11
0.4862987007874016
21
1.0950364173228346
0
LINE
8
BLACK
6
CONTINUOUS
10
0.4862987007874016
20
1.0950364173228346
11
0.4852342913385826
21
1.0945955118110235
0
LINE
8
BLACK
6
CONTINUOUS
10
0.4852342913385826
20
1.0945955118110235
11
0.4840821653543307
21
1.0945955118110235
0
LINE
8
BLACK
6
CONTINUOUS
10
0.4840821653543307
20
1.0945955118110235
11
0.4830177559055118
21
1.0950364173228346
0
LINE
8
BLACK
6
CONTINUOUS
10
0.4830177559055118
20
1.0950364173228346
11
0.4822031102362205
21
1.0958510629921259
0
LINE
8
BLACK
6
CONTINUOUS
10
0.4822031102362205
20
1.0958510629921259
11
0.4817622047244094
21
1.0969154724409449
0
LINE
8
BLACK
6
CONTINUOUS
10
0.4817622047244094
20
1.0969154724409449
11
0.4817054724409449
21
1.1199887007874016
0
LINE
8
BLACK
6
CONTINUOUS
10
0.4817054724409449
20
1.1199887007874016
11
0.4817622047244094
21
1.1205647637795275
0
LINE
8
BLACK
6
CONTINUOUS
10
0.4817622047244094
20
1.1205647637795275
11
0.4822031102362205
21
1.1216291732283463
0
LINE
8
BLACK
6
CONTINUOUS
10
0.4822031102362205
20
1.1216291732283463
11
0.4830177559055118
21
1.1224438188976378
0
LINE
8
BLACK
6
CONTINUOUS
10
0.4830177559055118
20
1.1224438188976378
11
0.4840821653543307
21
1.1228847244094489
0
LINE
8
BLACK
6
CONTINUOUS
10
0.4840821653543307
20
1.1228847244094489
11
0.4852342913385826
21
1.1228847244094489
0
LINE
8
BLACK
6
CONTINUOUS
10
0.4852342913385826
20
1.1228847244094489
11
0.4862987007874016
21
1.1224438188976378
0
LINE
8
BLACK
6
CONTINUOUS
10
0.5246043700787402
20
1.1491314566929134
11
0.5256687795275591
21
1.1486905511811023
0
LINE
8
BLACK
6
CONTINUOUS
10
0.5256687795275591
20
1.1486905511811023
11
0.5264834251968504
21
1.1478759055118111
0
LINE
8
BLACK
6
CONTINUOUS
10
0.5264834251968504
20
1.1478759055118111
11
0.5269243307086614
21
1.146811496062992
0
LINE
8
BLACK
6
CONTINUOUS
10
0.5269243307086614
20
1.146811496062992
11
0.526981062992126
21
1.1274877952755906
0
LINE
8
BLACK
6
CONTINUOUS
10
0.526981062992126
20
1.1274877952755906
11
0.5269243307086614
21
1.1269117322834645
0
LINE
8
BLACK
6
CONTINUOUS
10
0.5269243307086614
20
1.1269117322834645
11
0.5264834251968504
21
1.1258473228346457
0
LINE
8
BLACK
6
CONTINUOUS
10
0.5264834251968504
20
1.1258473228346457
11
0.5256687795275591
21
1.1250326771653543
0
LINE
8
BLACK
6
CONTINUOUS
10
0.5256687795275591
20
1.1250326771653543
11
0.5246043700787402
21
1.1245917716535432
0
LINE
8
BLACK
6
CONTINUOUS
10
0.5246043700787402
20
1.1245917716535432
11
0.5234522440944882
21
1.1245917716535432
0
LINE
8
BLACK
6
CONTINUOUS
10
0.5234522440944882
20
1.1245917716535432
11
0.5223878346456693
21
1.1250326771653543
0
LINE
8
BLACK
6
CONTINUOUS
10
0.5223878346456693
20
1.1250326771653543
11
0.5215731889763779
21
1.1258473228346457
0
LINE
8
BLACK
6
CONTINUOUS
10
0.5215731889763779
20
1.1258473228346457
11
0.521132283464567
21
1.1269117322834645
0
LINE
8
BLACK
6
CONTINUOUS
10
0.521132283464567
20
1.1269117322834645
11
0.5210840551181102
21
1.1433344094488189
0
LINE
8
BLACK
6
CONTINUOUS
10
0.5210840551181102
20
1.1433344094488189
11
0.4846582283464567
21
1.1432826771653544
0
LINE
8
BLACK
6
CONTINUOUS
10
0.4846582283464567
20
1.1432826771653544
11
0.4840821653543307
21
1.143339409448819
0
LINE
8
BLACK
6
CONTINUOUS
10
0.4840821653543307
20
1.143339409448819
11
0.4830177559055118
21
1.1437803149606298
0
LINE
8
BLACK
6
CONTINUOUS
10
0.4830177559055118
20
1.1437803149606298
11
0.4822031102362205
21
1.1445949606299213
0
LINE
8
BLACK
6
CONTINUOUS
10
0.4822031102362205
20
1.1445949606299213
11
0.4817622047244094
21
1.1456593700787401
0
LINE
8
BLACK
6
CONTINUOUS
10
0.4817622047244094
20
1.1456593700787401
11
0.4817622047244094
21
1.146811496062992
0
LINE
8
BLACK
6
CONTINUOUS
10
0.4817622047244094
20
1.146811496062992
11
0.4822031102362205
21
1.1478759055118111
0
LINE
8
BLACK
6
CONTINUOUS
10
0.4822031102362205
20
1.1478759055118111
11
0.4830177559055118
21
1.1486905511811023
0
LINE
8
BLACK
6
CONTINUOUS
10
0.4830177559055118
20
1.1486905511811023
11
0.4840821653543307
21
1.1491314566929134
0
LINE
8
BLACK
6
CONTINUOUS
10
0.4840821653543307
20
1.1491314566929134
11
0.5240283070866142
21
1.149188188976378
0
LINE
8
BLACK
6
CONTINUOUS
10
0.5240283070866142
20
1.149188188976378
11
0.5246043700787402
21
1.1491314566929134
  0
ENDSEC
  0
EOF
