  0
SECTION
  2
HEADER
  9
$ANGBASE
  50
0.0
  9
$ANGDIR
  70
1
  9
$MEASUREMENT
  70
0
  0
ENDSEC
  0
SECTION
  2
TABLES
  0
TABLE
  2
LTYPE
  70
4
  0
LTYPE
  5
40F
  2
CONTINUOUS
  70
0
  3
Solid line
  72
65
  73
0
  40
0.0
  0
LTYPE
  5
410
  2
DASHDOT
 70
0
  3
Dash Dot ____ _ ____ _
 72
65
 73
4
 40
2.0
 49
1.25
 49
-0.25
 49
0.25
 49
-0.25
  0
LTYPE
  5
411
  2
DASHED
 70
0
  3
Dashed __ __ __ __ __
 72
65
 73
2
 40
0.75
 49
0.5
 49
-0.25
  0
LTYPE
  5
43B
  2
DOTTED
 70
0
  3
Dotted .  .  .  .
 72
65
 73
2
 40
0.2
 49
0.0
 49
-0.2
  0
ENDTAB
  0
TABLE
  2
STYLE
  70
4
  0
STYLE
  2
KICAD
  70
0
  40
0
  41
1
  42
1
  50
0
  71
0
  3
isocp.shx
  0
STYLE
  2
KICADB
  70
0
  40
0
  41
1
  42
1
  50
0
  71
0
  3
isocp.shx
  0
STYLE
  2
KICADI
  70
0
  40
0
  41
1
  42
1
  50
15
  71
0
  3
isocp.shx
  0
STYLE
  2
KICADBI
  70
0
  40
0
  41
1
  42
1
  50
15
  71
0
  3
isocp.shx
  0
ENDTAB
  0
TABLE
  2
LAYER
  70
1
  0
LAYER
  2
BLACK
  70
0
  62
7
  6
CONTINUOUS
  0
ENDTAB
  0
ENDSEC
  0
SECTION
  2
ENTITIES
0
LINE
8
BLACK
6
CONTINUOUS
10
0.5223666141732284
20
0.936474842519685
11
0.5242414173228346
21
0.9346000787401575
0
LINE
8
BLACK
6
CONTINUOUS
10
0.5242414173228346
20
0.9346000787401575
11
0.5247477952755906
21
0.9338768897637795
0
LINE
8
BLACK
6
CONTINUOUS
10
0.5247477952755906
20
0.9338768897637795
11
0.5247945669291338
21
0.9338326377952756
0
LINE
8
BLACK
6
CONTINUOUS
10
0.5247945669291338
20
0.9338326377952756
11
0.5266693307086614
21
0.9300831102362205
0
LINE
8
BLACK
6
CONTINUOUS
10
0.5266693307086614
20
0.9300831102362205
11
0.5269616929133858
21
0.9291001968503937
0
LINE
8
BLACK
6
CONTINUOUS
10
0.5269616929133858
20
0.9291001968503937
11
0.5269206692913385
21
0.9289284645669291
0
LINE
8
BLACK
6
CONTINUOUS
10
0.5269206692913385
20
0.9289284645669291
11
0.526981062992126
21
0.9287625984251968
0
LINE
8
BLACK
6
CONTINUOUS
10
0.526981062992126
20
0.9287625984251968
11
0.526981062992126
21
0.919388779527559
0
LINE
8
BLACK
6
CONTINUOUS
10
0.526981062992126
20
0.919388779527559
11
0.5268029921259842
21
0.9183788582677165
0
LINE
8
BLACK
6
CONTINUOUS
10
0.5268029921259842
20
0.9183788582677165
11
0.5266894881889763
21
0.9182435826771653
0
LINE
8
BLACK
6
CONTINUOUS
10
0.5266894881889763
20
0.9182435826771653
11
0.5266693307086614
21
0.9180682677165354
0
LINE
8
BLACK
6
CONTINUOUS
10
0.5266693307086614
20
0.9180682677165354
11
0.5247945669291338
21
0.9143187401574803
0
LINE
8
BLACK
6
CONTINUOUS
10
0.5247945669291338
20
0.9143187401574803
11
0.5242685826771654
21
0.9136096062992126
0
LINE
8
BLACK
6
CONTINUOUS
10
0.5242685826771654
20
0.9136096062992126
11
0.5242414173228346
21
0.9135512992125984
0
LINE
8
BLACK
6
CONTINUOUS
10
0.5242414173228346
20
0.9135512992125984
11
0.5223666141732284
21
0.9116765354330708
0
LINE
8
BLACK
6
CONTINUOUS
10
0.5223666141732284
20
0.9116765354330708
11
0.5216435433070866
21
0.9111702362204724
0
LINE
8
BLACK
6
CONTINUOUS
10
0.5216435433070866
20
0.9111702362204724
11
0.5215992519685039
21
0.9111234645669292
0
LINE
8
BLACK
6
CONTINUOUS
10
0.5215992519685039
20
0.9111234645669292
11
0.5178497244094488
21
0.9092487007874016
0
LINE
8
BLACK
6
CONTINUOUS
10
0.5178497244094488
20
0.9092487007874016
11
0.5168667716535433
21
0.9089563385826771
0
LINE
8
BLACK
6
CONTINUOUS
10
0.5168667716535433
20
0.9089563385826771
11
0.5166950787401575
21
0.9089973228346456
0
LINE
8
BLACK
6
CONTINUOUS
10
0.5166950787401575
20
0.9089973228346456
11
0.5165292125984252
21
0.908936968503937
0
LINE
8
BLACK
6
CONTINUOUS
10
0.5165292125984252
20
0.908936968503937
11
0.5071553937007874
21
0.908936968503937
0
LINE
8
BLACK
6
CONTINUOUS
10
0.5071553937007874
20
0.908936968503937
11
0.5061454724409449
21
0.9091150393700788
0
LINE
8
BLACK
6
CONTINUOUS
10
0.5061454724409449
20
0.9091150393700788
11
0.5060101968503937
21
0.9092285039370078
0
LINE
8
BLACK
6
CONTINUOUS
10
0.5060101968503937
20
0.9092285039370078
11
0.5058348818897638
21
0.9092487007874016
0
LINE
8
BLACK
6
CONTINUOUS
10
0.5058348818897638
20
0.9092487007874016
11
0.5020853543307087
21
0.9111234645669292
0
LINE
8
BLACK
6
CONTINUOUS
10
0.5020853543307087
20
0.9111234645669292
11
0.5013762598425197
21
0.9116493307086614
0
LINE
8
BLACK
6
CONTINUOUS
10
0.5013762598425197
20
0.9116493307086614
11
0.5013179527559055
21
0.9116765748031496
0
LINE
8
BLACK
6
CONTINUOUS
10
0.5013179527559055
20
0.9116765748031496
11
0.499443188976378
21
0.9135513385826771
0
LINE
8
BLACK
6
CONTINUOUS
10
0.499443188976378
20
0.9135513385826771
11
0.4989368897637795
21
0.9142744094488189
0
LINE
8
BLACK
6
CONTINUOUS
10
0.4989368897637795
20
0.9142744094488189
11
0.4988900787401574
21
0.9143187401574803
0
LINE
8
BLACK
6
CONTINUOUS
10
0.4988900787401574
20
0.9143187401574803
11
0.4970153149606299
21
0.9180682677165354
0
LINE
8
BLACK
6
CONTINUOUS
10
0.4970153149606299
20
0.9180682677165354
11
0.4967229527559055
21
0.9190512204724409
0
LINE
8
BLACK
6
CONTINUOUS
10
0.4967229527559055
20
0.9190512204724409
11
0.496763937007874
21
0.919222874015748
0
LINE
8
BLACK
6
CONTINUOUS
10
0.496763937007874
20
0.919222874015748
11
0.4967035826771654
21
0.919388779527559
0
LINE
8
BLACK
6
CONTINUOUS
10
0.4967035826771654
20
0.919388779527559
11
0.4967035826771654
21
0.9287625984251968
0
LINE
8
BLACK
6
CONTINUOUS
10
0.4967035826771654
20
0.9287625984251968
11
0.4968816535433071
21
0.9297725196850394
0
LINE
8
BLACK
6
CONTINUOUS
10
0.4968816535433071
20
0.9297725196850394
11
0.4969951181102362
21
0.9299077559055118
0
LINE
8
BLACK
6
CONTINUOUS
10
0.4969951181102362
20
0.9299077559055118
11
0.4970153149606299
21
0.9300831102362205
0
LINE
8
BLACK
6
CONTINUOUS
10
0.4970153149606299
20
0.9300831102362205
11
0.4973822440944882
21
0.9308170078740158
0
LINE
8
BLACK
6
CONTINUOUS
10
0.4973822440944882
20
0.9308170078740158
11
0.4876109842519685
21
0.9298398818897637
0
LINE
8
BLACK
6
CONTINUOUS
10
0.4876109842519685
20
0.9298398818897637
11
0.4876109842519685
21
0.9137644881889764
0
LINE
8
BLACK
6
CONTINUOUS
10
0.4876109842519685
20
0.9137644881889764
11
0.4874329133858268
21
0.9127545669291338
0
LINE
8
BLACK
6
CONTINUOUS
10
0.4874329133858268
20
0.9127545669291338
11
0.4861346062992126
21
0.9112073228346457
0
LINE
8
BLACK
6
CONTINUOUS
10
0.4861346062992126
20
0.9112073228346457
11
0.4841454724409449
21
0.9108565748031496
0
LINE
8
BLACK
6
CONTINUOUS
10
0.4841454724409449
20
0.9108565748031496
11
0.4823962992125984
21
0.9118664960629921
0
LINE
8
BLACK
6
CONTINUOUS
10
0.4823962992125984
20
0.9118664960629921
11
0.4817054724409449
21
0.9137644881889764
0
LINE
8
BLACK
6
CONTINUOUS
10
0.4817054724409449
20
0.9137644881889764
11
0.4817054724409449
21
0.9325121259842519
0
LINE
8
BLACK
6
CONTINUOUS
10
0.4817054724409449
20
0.9325121259842519
11
0.4817325590551181
21
0.9326659448818897
0
LINE
8
BLACK
6
CONTINUOUS
10
0.4817325590551181
20
0.9326659448818897
11
0.4817137401574803
21
0.9327329921259843
0
LINE
8
BLACK
6
CONTINUOUS
10
0.4817137401574803
20
0.9327329921259843
11
0.4817640551181102
21
0.9328445275590551
0
LINE
8
BLACK
6
CONTINUOUS
10
0.4817640551181102
20
0.9328445275590551
11
0.4818835433070866
21
0.9335220472440945
0
LINE
8
BLACK
6
CONTINUOUS
10
0.4818835433070866
20
0.9335220472440945
11
0.4822866141732283
21
0.9340024015748031
0
LINE
8
BLACK
6
CONTINUOUS
10
0.4822866141732283
20
0.9340024015748031
11
0.4825445669291338
21
0.9345739763779527
0
LINE
8
BLACK
6
CONTINUOUS
10
0.4825445669291338
20
0.9345739763779527
11
0.4829164960629921
21
0.9347530314960629
0
LINE
8
BLACK
6
CONTINUOUS
10
0.4829164960629921
20
0.9347530314960629
11
0.4831818503937008
21
0.9350692913385826
0
LINE
8
BLACK
6
CONTINUOUS
10
0.4831818503937008
20
0.9350692913385826
11
0.4837993700787401
21
0.9351781496062992
0
LINE
8
BLACK
6
CONTINUOUS
10
0.4837993700787401
20
0.9351781496062992
11
0.4843644094488189
21
0.9354502362204724
0
LINE
8
BLACK
6
CONTINUOUS
10
0.4843644094488189
20
0.9354502362204724
11
0.5031120472440945
21
0.937325
0
LINE
8
BLACK
6
CONTINUOUS
10
0.5031120472440945
20
0.937325
11
0.5041346850393701
21
0.9372483070866141
0
LINE
8
BLACK
6
CONTINUOUS
10
0.5041346850393701
20
0.9372483070866141
11
0.5041507480314961
21
0.9372373228346457
0
LINE
8
BLACK
6
CONTINUOUS
10
0.5041507480314961
20
0.9372373228346457
11
0.5041700787401575
21
0.9372390157480315
0
LINE
8
BLACK
6
CONTINUOUS
10
0.5041700787401575
20
0.9372390157480315
11
0.5049818110236221
21
0.9366706299212598
0
LINE
8
BLACK
6
CONTINUOUS
10
0.5049818110236221
20
0.9366706299212598
11
0.5058034251968504
21
0.9361103937007874
0
LINE
8
BLACK
6
CONTINUOUS
10
0.5058034251968504
20
0.9361103937007874
11
0.5058086614173228
21
0.936091653543307
0
LINE
8
BLACK
6
CONTINUOUS
10
0.5058086614173228
20
0.936091653543307
11
0.5058246456692913
21
0.9360805118110236
0
LINE
8
BLACK
6
CONTINUOUS
10
0.5058246456692913
20
0.9360805118110236
11
0.5060815354330709
21
0.9351215748031496
0
LINE
8
BLACK
6
CONTINUOUS
10
0.5060815354330709
20
0.9351215748031496
11
0.5063503543307086
21
0.9341660236220473
0
LINE
8
BLACK
6
CONTINUOUS
10
0.5063503543307086
20
0.9341660236220473
11
0.5063423228346456
21
0.9341482677165354
0
LINE
8
BLACK
6
CONTINUOUS
10
0.5063423228346456
20
0.9341482677165354
11
0.5063473622047244
21
0.9341295275590551
0
LINE
8
BLACK
6
CONTINUOUS
10
0.5063473622047244
20
0.9341295275590551
11
0.5059284251968503
21
0.9332311417322835
0
LINE
8
BLACK
6
CONTINUOUS
10
0.5059284251968503
20
0.9332311417322835
11
0.5055195275590552
21
0.9323250393700787
0
LINE
8
BLACK
6
CONTINUOUS
10
0.5055195275590552
20
0.9323250393700787
11
0.505501968503937
21
0.9323165748031496
0
LINE
8
BLACK
6
CONTINUOUS
10
0.505501968503937
20
0.9323165748031496
11
0.505493779527559
21
0.9322989763779528
0
LINE
8
BLACK
6
CONTINUOUS
10
0.505493779527559
20
0.9322989763779528
11
0.5039578346456692
21
0.930763031496063
0
LINE
8
BLACK
6
CONTINUOUS
10
0.5039578346456692
20
0.930763031496063
11
0.5026090944881889
21
0.9280655511811023
0
LINE
8
BLACK
6
CONTINUOUS
10
0.5026090944881889
20
0.9280655511811023
11
0.5026090944881889
21
0.9200858267716535
0
LINE
8
BLACK
6
CONTINUOUS
10
0.5026090944881889
20
0.9200858267716535
11
0.5039578346456692
21
0.9173883464566929
0
LINE
8
BLACK
6
CONTINUOUS
10
0.5039578346456692
20
0.9173883464566929
11
0.5051549606299213
21
0.9161912204724409
0
LINE
8
BLACK
6
CONTINUOUS
10
0.5051549606299213
20
0.9161912204724409
11
0.5078524409448819
21
0.9148424803149606
0
LINE
8
BLACK
6
CONTINUOUS
10
0.5078524409448819
20
0.9148424803149606
11
0.5158321653543307
21
0.9148424803149606
0
LINE
8
BLACK
6
CONTINUOUS
10
0.5158321653543307
20
0.9148424803149606
11
0.5185296456692913
21
0.9161912204724409
0
LINE
8
BLACK
6
CONTINUOUS
10
0.5185296456692913
20
0.9161912204724409
11
0.5197268110236221
21
0.9173883464566929
0
LINE
8
BLACK
6
CONTINUOUS
10
0.5197268110236221
20
0.9173883464566929
11
0.5210755511811024
21
0.9200858267716535
0
LINE
8
BLACK
6
CONTINUOUS
10
0.5210755511811024
20
0.9200858267716535
11
0.5210755511811024
21
0.9280655511811023
0
LINE
8
BLACK
6
CONTINUOUS
10
0.5210755511811024
20
0.9280655511811023
11
0.5197268110236221
21
0.9307629921259842
0
LINE
8
BLACK
6
CONTINUOUS
10
0.5197268110236221
20
0.9307629921259842
11
0.5181908661417323
21
0.932298937007874
0
LINE
8
BLACK
6
CONTINUOUS
10
0.5181908661417323
20
0.932298937007874
11
0.5176026377952756
21
0.9331389763779527
0
LINE
8
BLACK
6
CONTINUOUS
10
0.5176026377952756
20
0.9331389763779527
11
0.5174265748031496
21
0.9351511023622047
0
LINE
8
BLACK
6
CONTINUOUS
10
0.5174265748031496
20
0.9351511023622047
11
0.5185850787401575
21
0.9368056692913386
0
LINE
8
BLACK
6
CONTINUOUS
10
0.5185850787401575
20
0.9368056692913386
11
0.520536062992126
21
0.9373283858267716
0
LINE
8
BLACK
6
CONTINUOUS
10
0.520536062992126
20
0.9373283858267716
11
0.5223666141732284
21
0.936474842519685
0
LINE
8
BLACK
6
CONTINUOUS
10
0.495041968503937
20
0.9746568897637795
11
0.4951772047244095
21
0.9745433858267716
0
LINE
8
BLACK
6
CONTINUOUS
10
0.4951772047244095
20
0.9745433858267716
11
0.4953525590551181
21
0.9745232283464567
0
LINE
8
BLACK
6
CONTINUOUS
10
0.4953525590551181
20
0.9745232283464567
11
0.4991020866141732
21
0.9726484645669291
0
LINE
8
BLACK
6
CONTINUOUS
10
0.4991020866141732
20
0.9726484645669291
11
0.4998111417322835
21
0.9721225196850394
0
LINE
8
BLACK
6
CONTINUOUS
10
0.4998111417322835
20
0.9721225196850394
11
0.4998694881889764
21
0.9720953543307086
0
LINE
8
BLACK
6
CONTINUOUS
10
0.4998694881889764
20
0.9720953543307086
11
0.5015311023622047
21
0.9704337401574803
0
LINE
8
BLACK
6
CONTINUOUS
10
0.5015311023622047
20
0.9704337401574803
11
0.5031927165354331
21
0.9720953543307086
0
LINE
8
BLACK
6
CONTINUOUS
10
0.5031927165354331
20
0.9720953543307086
11
0.5039157874015748
21
0.9726016141732283
0
LINE
8
BLACK
6
CONTINUOUS
10
0.5039157874015748
20
0.9726016141732283
11
0.5039601181102362
21
0.9726484645669291
0
LINE
8
BLACK
6
CONTINUOUS
10
0.5039601181102362
20
0.9726484645669291
11
0.5077096456692913
21
0.9745232283464567
0
LINE
8
BLACK
6
CONTINUOUS
10
0.5077096456692913
20
0.9745232283464567
11
0.5086925590551181
21
0.9748155905511811
0
LINE
8
BLACK
6
CONTINUOUS
10
0.5086925590551181
20
0.9748155905511811
11
0.5088642519685039
21
0.9747745669291339
0
LINE
8
BLACK
6
CONTINUOUS
10
0.5088642519685039
20
0.9747745669291339
11
0.509030157480315
21
0.9748349606299213
0
LINE
8
BLACK
6
CONTINUOUS
10
0.509030157480315
20
0.9748349606299213
11
0.5165292125984252
21
0.9748349606299213
0
LINE
8
BLACK
6
CONTINUOUS
10
0.5165292125984252
20
0.9748349606299213
11
0.5175391338582677
21
0.9746568897637795
0
LINE
8
BLACK
6
CONTINUOUS
10
0.5175391338582677
20
0.9746568897637795
11
0.5176743700787402
21
0.9745433858267716
0
LINE
8
BLACK
6
CONTINUOUS
10
0.5176743700787402
20
0.9745433858267716
11
0.5178497244094488
21
0.9745232283464567
0
LINE
8
BLACK
6
CONTINUOUS
10
0.5178497244094488
20
0.9745232283464567
11
0.5215992519685039
21
0.9726484645669291
0
LINE
8
BLACK
6
CONTINUOUS
10
0.5215992519685039
20
0.9726484645669291
11
0.5223082283464566
21
0.9721225984251969
0
LINE
8
BLACK
6
CONTINUOUS
10
0.5223082283464566
20
0.9721225984251969
11
0.5223666141732284
21
0.9720953937007873
0
LINE
8
BLACK
6
CONTINUOUS
10
0.5223666141732284
20
0.9720953937007873
11
0.5242414173228346
21
0.9702206299212598
0
LINE
8
BLACK
6
CONTINUOUS
10
0.5242414173228346
20
0.9702206299212598
11
0.5247477952755906
21
0.9694974409448819
0
LINE
8
BLACK
6
CONTINUOUS
10
0.5247477952755906
20
0.9694974409448819
11
0.5247945669291338
21
0.9694531889763779
0
LINE
8
BLACK
6
CONTINUOUS
10
0.5247945669291338
20
0.9694531889763779
11
0.5266693307086614
21
0.9657036614173228
0
LINE
8
BLACK
6
CONTINUOUS
10
0.5266693307086614
20
0.9657036614173228
11
0.5269616929133858
21
0.964720748031496
0
LINE
8
BLACK
6
CONTINUOUS
10
0.5269616929133858
20
0.964720748031496
11
0.5269206692913385
21
0.9645490157480314
0
LINE
8
BLACK
6
CONTINUOUS
10
0.5269206692913385
20
0.9645490157480314
11
0.526981062992126
21
0.9643831496062992
0
LINE
8
BLACK
6
CONTINUOUS
10
0.526981062992126
20
0.9643831496062992
11
0.526981062992126
21
0.956884094488189
0
LINE
8
BLACK
6
CONTINUOUS
10
0.526981062992126
20
0.956884094488189
11
0.5268029921259842
21
0.9558741732283464
0
LINE
8
BLACK
6
CONTINUOUS
10
0.5268029921259842
20
0.9558741732283464
11
0.5266894881889763
21
0.9557388976377953
0
LINE
8
BLACK
6
CONTINUOUS
10
0.5266894881889763
20
0.9557388976377953
11
0.5266693307086614
21
0.9555635826771653
0
LINE
8
BLACK
6
CONTINUOUS
10
0.5266693307086614
20
0.9555635826771653
11
0.5247945669291338
21
0.9518140551181102
0
LINE
8
BLACK
6
CONTINUOUS
10
0.5247945669291338
20
0.9518140551181102
11
0.5242685826771654
21
0.9511049212598425
0
LINE
8
BLACK
6
CONTINUOUS
10
0.5242685826771654
20
0.9511049212598425
11
0.5242414173228346
21
0.9510466141732283
0
LINE
8
BLACK
6
CONTINUOUS
10
0.5242414173228346
20
0.9510466141732283
11
0.5223666141732284
21
0.9491718503937008
0
LINE
8
BLACK
6
CONTINUOUS
10
0.5223666141732284
20
0.9491718503937008
11
0.5216435433070866
21
0.9486655511811023
0
LINE
8
BLACK
6
CONTINUOUS
10
0.5216435433070866
20
0.9486655511811023
11
0.5215992519685039
21
0.948618779527559
0
LINE
8
BLACK
6
CONTINUOUS
10
0.5215992519685039
20
0.948618779527559
11
0.5178497244094488
21
0.9467440157480315
0
LINE
8
BLACK
6
CONTINUOUS
10
0.5178497244094488
20
0.9467440157480315
11
0.5168667716535433
21
0.9464516535433071
0
LINE
8
BLACK
6
CONTINUOUS
10
0.5168667716535433
20
0.9464516535433071
11
0.5166950787401575
21
0.9464926377952756
0
LINE
8
BLACK
6
CONTINUOUS
10
0.5166950787401575
20
0.9464926377952756
11
0.5165292125984252
21
0.9464322834645669
0
LINE
8
BLACK
6
CONTINUOUS
10
0.5165292125984252
20
0.9464322834645669
11
0.509030157480315
21
0.9464322834645669
0
LINE
8
BLACK
6
CONTINUOUS
10
0.509030157480315
20
0.9464322834645669
11
0.5080202362204724
21
0.9466103543307086
0
LINE
8
BLACK
6
CONTINUOUS
10
0.5080202362204724
20
0.9466103543307086
11
0.5078849606299213
21
0.9467238188976378
0
LINE
8
BLACK
6
CONTINUOUS
10
0.5078849606299213
20
0.9467238188976378
11
0.5077096456692913
21
0.9467440157480315
0
LINE
8
BLACK
6
CONTINUOUS
10
0.5077096456692913
20
0.9467440157480315
11
0.5039601181102362
21
0.948618779527559
0
LINE
8
BLACK
6
CONTINUOUS
10
0.5039601181102362
20
0.948618779527559
11
0.5032510236220472
21
0.9491446456692914
0
LINE
8
BLACK
6
CONTINUOUS
10
0.5032510236220472
20
0.9491446456692914
11
0.5031927165354331
21
0.9491718897637795
0
LINE
8
BLACK
6
CONTINUOUS
10
0.5031927165354331
20
0.9491718897637795
11
0.5015311023622047
21
0.9508335039370078
0
LINE
8
BLACK
6
CONTINUOUS
10
0.5015311023622047
20
0.9508335039370078
11
0.4998694881889764
21
0.9491718897637795
0
LINE
8
BLACK
6
CONTINUOUS
10
0.4998694881889764
20
0.9491718897637795
11
0.4991463779527559
21
0.948665590551181
0
LINE
8
BLACK
6
CONTINUOUS
10
0.4991463779527559
20
0.948665590551181
11
0.4991020866141732
21
0.948618779527559
0
LINE
8
BLACK
6
CONTINUOUS
10
0.4991020866141732
20
0.948618779527559
11
0.4953525590551181
21
0.9467440157480315
0
LINE
8
BLACK
6
CONTINUOUS
10
0.4953525590551181
20
0.9467440157480315
11
0.4943696062992126
21
0.9464516535433071
0
LINE
8
BLACK
6
CONTINUOUS
10
0.4943696062992126
20
0.9464516535433071
11
0.4941979133858267
21
0.9464926377952756
0
LINE
8
BLACK
6
CONTINUOUS
10
0.4941979133858267
20
0.9464926377952756
11
0.4940320472440945
21
0.9464322834645669
0
LINE
8
BLACK
6
CONTINUOUS
10
0.4940320472440945
20
0.9464322834645669
11
0.4921572834645669
21
0.9464322834645669
0
LINE
8
BLACK
6
CONTINUOUS
10
0.4921572834645669
20
0.9464322834645669
11
0.4911473622047244
21
0.9466103543307086
0
LINE
8
BLACK
6
CONTINUOUS
10
0.4911473622047244
20
0.9466103543307086
11
0.4910120866141732
21
0.9467238188976378
0
LINE
8
BLACK
6
CONTINUOUS
10
0.4910120866141732
20
0.9467238188976378
11
0.4908367716535433
21
0.9467440157480315
0
LINE
8
BLACK
6
CONTINUOUS
10
0.4908367716535433
20
0.9467440157480315
11
0.4870872440944882
21
0.948618779527559
0
LINE
8
BLACK
6
CONTINUOUS
10
0.4870872440944882
20
0.948618779527559
11
0.4863781496062992
21
0.9491446456692914
0
LINE
8
BLACK
6
CONTINUOUS
10
0.4863781496062992
20
0.9491446456692914
11
0.486319842519685
21
0.9491718897637795
0
LINE
8
BLACK
6
CONTINUOUS
10
0.486319842519685
20
0.9491718897637795
11
0.4844450787401575
21
0.9510466535433071
0
LINE
8
BLACK
6
CONTINUOUS
10
0.4844450787401575
20
0.9510466535433071
11
0.483938779527559
21
0.9517697244094488
0
LINE
8
BLACK
6
CONTINUOUS
10
0.483938779527559
20
0.9517697244094488
11
0.483891968503937
21
0.9518140551181102
0
LINE
8
BLACK
6
CONTINUOUS
10
0.483891968503937
20
0.9518140551181102
11
0.4820172047244095
21
0.9555635826771653
0
LINE
8
BLACK
6
CONTINUOUS
10
0.4820172047244095
20
0.9555635826771653
11
0.481724842519685
21
0.9565465354330709
0
LINE
8
BLACK
6
CONTINUOUS
10
0.481724842519685
20
0.9565465354330709
11
0.4817658267716535
21
0.9567181889763779
0
LINE
8
BLACK
6
CONTINUOUS
10
0.4817658267716535
20
0.9567181889763779
11
0.4817054724409449
21
0.956884094488189
0
LINE
8
BLACK
6
CONTINUOUS
10
0.4817054724409449
20
0.956884094488189
11
0.4817054724409449
21
0.9643831496062992
0
LINE
8
BLACK
6
CONTINUOUS
10
0.4817054724409449
20
0.9643831496062992
11
0.4818835433070866
21
0.9653930708661417
0
LINE
8
BLACK
6
CONTINUOUS
10
0.4818835433070866
20
0.9653930708661417
11
0.4819970078740157
21
0.9655283070866142
0
LINE
8
BLACK
6
CONTINUOUS
10
0.4819970078740157
20
0.9655283070866142
11
0.4820172047244095
21
0.9657036614173228
0
LINE
8
BLACK
6
CONTINUOUS
10
0.4820172047244095
20
0.9657036614173228
11
0.483891968503937
21
0.9694531889763779
0
LINE
8
BLACK
6
CONTINUOUS
10
0.483891968503937
20
0.9694531889763779
11
0.484417874015748
21
0.9701622440944881
0
LINE
8
BLACK
6
CONTINUOUS
10
0.484417874015748
20
0.9701622440944881
11
0.4844450787401575
21
0.970220590551181
0
LINE
8
BLACK
6
CONTINUOUS
10
0.4844450787401575
20
0.970220590551181
11
0.486319842519685
21
0.9720953543307086
0
LINE
8
BLACK
6
CONTINUOUS
10
0.486319842519685
20
0.9720953543307086
11
0.4870429133858268
21
0.9726016141732283
0
LINE
8
BLACK
6
CONTINUOUS
10
0.4870429133858268
20
0.9726016141732283
11
0.4870872440944882
21
0.9726484645669291
0
LINE
8
BLACK
6
CONTINUOUS
10
0.4870872440944882
20
0.9726484645669291
11
0.4908367716535433
21
0.9745232283464567
0
LINE
8
BLACK
6
CONTINUOUS
10
0.4908367716535433
20
0.9745232283464567
11
0.4918196850393701
21
0.9748155905511811
0
LINE
8
BLACK
6
CONTINUOUS
10
0.4918196850393701
20
0.9748155905511811
11
0.4919913779527559
21
0.9747745669291339
0
LINE
8
BLACK
6
CONTINUOUS
10
0.4919913779527559
20
0.9747745669291339
11
0.4921572834645669
21
0.9748349606299213
0
LINE
8
BLACK
6
CONTINUOUS
10
0.4921572834645669
20
0.9748349606299213
11
0.4940320472440945
21
0.9748349606299213
0
LINE
8
BLACK
6
CONTINUOUS
10
0.4940320472440945
20
0.9748349606299213
11
0.495041968503937
21
0.9746568897637795
0
LINE
8
BLACK
6
CONTINUOUS
10
0.4901568503937008
20
0.9675807086614173
11
0.4889597244094488
21
0.9663835826771653
0
LINE
8
BLACK
6
CONTINUOUS
10
0.4889597244094488
20
0.9663835826771653
11
0.4876109842519685
21
0.9636861023622048
0
LINE
8
BLACK
6
CONTINUOUS
10
0.4876109842519685
20
0.9636861023622048
11
0.4876109842519685
21
0.9575811417322835
0
LINE
8
BLACK
6
CONTINUOUS
10
0.4876109842519685
20
0.9575811417322835
11
0.4889597244094488
21
0.9548836614173228
0
LINE
8
BLACK
6
CONTINUOUS
10
0.4889597244094488
20
0.9548836614173228
11
0.4901568503937008
21
0.9536865354330708
0
LINE
8
BLACK
6
CONTINUOUS
10
0.4901568503937008
20
0.9536865354330708
11
0.4928543307086614
21
0.9523377952755905
0
LINE
8
BLACK
6
CONTINUOUS
10
0.4928543307086614
20
0.9523377952755905
11
0.493335
21
0.9523377952755905
0
LINE
8
BLACK
6
CONTINUOUS
10
0.493335
20
0.9523377952755905
11
0.4960324803149606
21
0.9536865354330708
0
LINE
8
BLACK
6
CONTINUOUS
10
0.4960324803149606
20
0.9536865354330708
11
0.4972296062992126
21
0.9548836614173228
0
LINE
8
BLACK
6
CONTINUOUS
10
0.4972296062992126
20
0.9548836614173228
11
0.4985783464566929
21
0.9575811417322835
0
LINE
8
BLACK
6
CONTINUOUS
10
0.4985783464566929
20
0.9575811417322835
11
0.4985783464566929
21
0.9636861023622048
0
LINE
8
BLACK
6
CONTINUOUS
10
0.4985783464566929
20
0.9636861023622048
11
0.4972296062992126
21
0.9663835826771653
0
LINE
8
BLACK
6
CONTINUOUS
10
0.4972296062992126
20
0.9663835826771653
11
0.4960324803149606
21
0.9675807086614173
0
LINE
8
BLACK
6
CONTINUOUS
10
0.4960324803149606
20
0.9675807086614173
11
0.493335
21
0.9689294488188976
0
LINE
8
BLACK
6
CONTINUOUS
10
0.493335
20
0.9689294488188976
11
0.4928543307086614
21
0.9689294488188976
0
LINE
8
BLACK
6
CONTINUOUS
10
0.4928543307086614
20
0.9689294488188976
11
0.4901568503937008
21
0.9675807086614173
0
LINE
8
BLACK
6
CONTINUOUS
10
0.5070297244094488
20
0.9675807086614173
11
0.5058325984251968
21
0.9663835826771653
0
LINE
8
BLACK
6
CONTINUOUS
10
0.5058325984251968
20
0.9663835826771653
11
0.5044838582677166
21
0.9636861023622048
0
LINE
8
BLACK
6
CONTINUOUS
10
0.5044838582677166
20
0.9636861023622048
11
0.5044838582677166
21
0.9575811417322835
0
LINE
8
BLACK
6
CONTINUOUS
10
0.5044838582677166
20
0.9575811417322835
11
0.5058325984251968
21
0.9548836614173228
0
LINE
8
BLACK
6
CONTINUOUS
10
0.5058325984251968
20
0.9548836614173228
11
0.5070297244094488
21
0.9536865354330708
0
LINE
8
BLACK
6
CONTINUOUS
10
0.5070297244094488
20
0.9536865354330708
11
0.5097272047244095
21
0.9523377952755905
0
LINE
8
BLACK
6
CONTINUOUS
10
0.5097272047244095
20
0.9523377952755905
11
0.5158321653543307
21
0.9523377952755905
0
LINE
8
BLACK
6
CONTINUOUS
10
0.5158321653543307
20
0.9523377952755905
11
0.5185296456692913
21
0.9536865354330708
0
LINE
8
BLACK
6
CONTINUOUS
10
0.5185296456692913
20
0.9536865354330708
11
0.5197268110236221
21
0.9548836614173228
0
LINE
8
BLACK
6
CONTINUOUS
10
0.5197268110236221
20
0.9548836614173228
11
0.5210755511811024
21
0.9575811417322835
0
LINE
8
BLACK
6
CONTINUOUS
10
0.5210755511811024
20
0.9575811417322835
11
0.5210755511811024
21
0.9636861023622048
0
LINE
8
BLACK
6
CONTINUOUS
10
0.5210755511811024
20
0.9636861023622048
11
0.5197268110236221
21
0.9663835433070866
0
LINE
8
BLACK
6
CONTINUOUS
10
0.5197268110236221
20
0.9663835433070866
11
0.5185296456692913
21
0.9675806692913386
0
LINE
8
BLACK
6
CONTINUOUS
10
0.5185296456692913
20
0.9675806692913386
11
0.5158321653543307
21
0.9689294488188976
0
LINE
8
BLACK
6
CONTINUOUS
10
0.5158321653543307
20
0.9689294488188976
11
0.5097272047244095
21
0.9689294488188976
0
LINE
8
BLACK
6
CONTINUOUS
10
0.5097272047244095
20
0.9689294488188976
11
0.5070297244094488
21
0.9675807086614173
0
LINE
8
BLACK
6
CONTINUOUS
10
0.5111953937007874
20
1.0122462204724409
11
0.5114176771653544
21
1.0122854330708662
0
LINE
8
BLACK
6
CONTINUOUS
10
0.5114176771653544
20
1.0122854330708662
11
0.512115157480315
21
1.0118826771653544
0
LINE
8
BLACK
6
CONTINUOUS
10
0.512115157480315
20
1.0118826771653544
11
0.5128639763779528
21
1.0115867716535434
0
LINE
8
BLACK
6
CONTINUOUS
10
0.5128639763779528
20
1.0115867716535434
11
0.5129714173228347
21
1.0113883070866141
0
LINE
8
BLACK
6
CONTINUOUS
10
0.5129714173228347
20
1.0113883070866141
11
0.5131668503937008
21
1.0112755118110237
0
LINE
8
BLACK
6
CONTINUOUS
10
0.5131668503937008
20
1.0112755118110237
11
0.5134422440944881
21
1.010518779527559
0
LINE
8
BLACK
6
CONTINUOUS
10
0.5134422440944881
20
1.010518779527559
11
0.5138257480314961
21
1.0098106299212599
0
LINE
8
BLACK
6
CONTINUOUS
10
0.5138257480314961
20
1.0098106299212599
11
0.5137804724409448
21
1.0095895275590552
0
LINE
8
BLACK
6
CONTINUOUS
10
0.5137804724409448
20
1.0095895275590552
11
0.5138576771653544
21
1.0093775196850394
0
LINE
8
BLACK
6
CONTINUOUS
10
0.5138576771653544
20
1.0093775196850394
11
0.5138576771653544
21
0.9935826377952756
0
LINE
8
BLACK
6
CONTINUOUS
10
0.5138576771653544
20
0.9935826377952756
11
0.5240283070866142
21
0.9935826377952756
0
LINE
8
BLACK
6
CONTINUOUS
10
0.5240283070866142
20
0.9935826377952756
11
0.5250382283464566
21
0.9934045669291338
0
LINE
8
BLACK
6
CONTINUOUS
10
0.5250382283464566
20
0.9934045669291338
11
0.5265854724409449
21
0.9921062598425197
0
LINE
8
BLACK
6
CONTINUOUS
10
0.5265854724409449
20
0.9921062598425197
11
0.5269362204724409
21
0.9901171259842519
0
LINE
8
BLACK
6
CONTINUOUS
10
0.5269362204724409
20
0.9901171259842519
11
0.5259262992125984
21
0.9883679527559055
0
LINE
8
BLACK
6
CONTINUOUS
10
0.5259262992125984
20
0.9883679527559055
11
0.5240283070866142
21
0.9876771259842519
0
LINE
8
BLACK
6
CONTINUOUS
10
0.5240283070866142
20
0.9876771259842519
11
0.5138576771653544
21
0.9876771259842519
0
LINE
8
BLACK
6
CONTINUOUS
10
0.5138576771653544
20
0.9876771259842519
11
0.5138576771653544
21
0.9850055905511811
0
LINE
8
BLACK
6
CONTINUOUS
10
0.5138576771653544
20
0.9850055905511811
11
0.5136796062992126
21
0.9839956692913385
0
LINE
8
BLACK
6
CONTINUOUS
10
0.5136796062992126
20
0.9839956692913385
11
0.5123812992125985
21
0.9824484251968504
0
LINE
8
BLACK
6
CONTINUOUS
10
0.5123812992125985
20
0.9824484251968504
11
0.5103921653543307
21
0.9820976771653543
0
LINE
8
BLACK
6
CONTINUOUS
10
0.5103921653543307
20
0.9820976771653543
11
0.5086429921259843
21
0.9831075984251968
0
LINE
8
BLACK
6
CONTINUOUS
10
0.5086429921259843
20
0.9831075984251968
11
0.5079521653543307
21
0.9850055905511811
0
LINE
8
BLACK
6
CONTINUOUS
10
0.5079521653543307
20
0.9850055905511811
11
0.5079521653543307
21
0.9876771259842519
0
LINE
8
BLACK
6
CONTINUOUS
10
0.5079521653543307
20
0.9876771259842519
11
0.4977815748031496
21
0.9876771259842519
0
LINE
8
BLACK
6
CONTINUOUS
10
0.4977815748031496
20
0.9876771259842519
11
0.4967716535433071
21
0.9878551968503937
0
LINE
8
BLACK
6
CONTINUOUS
10
0.4967716535433071
20
0.9878551968503937
11
0.4952244094488189
21
0.9891535039370078
0
LINE
8
BLACK
6
CONTINUOUS
10
0.4952244094488189
20
0.9891535039370078
11
0.4948736614173228
21
0.9911426377952756
0
LINE
8
BLACK
6
CONTINUOUS
10
0.4948736614173228
20
0.9911426377952756
11
0.4958835826771654
21
0.992891811023622
0
LINE
8
BLACK
6
CONTINUOUS
10
0.4958835826771654
20
0.992891811023622
11
0.4977815748031496
21
0.9935826377952756
0
LINE
8
BLACK
6
CONTINUOUS
10
0.4977815748031496
20
0.9935826377952756
11
0.5079521653543307
21
0.9935826377952756
0
LINE
8
BLACK
6
CONTINUOUS
10
0.5079521653543307
20
0.9935826377952756
11
0.5079521653543307
21
1.0052807874015748
0
LINE
8
BLACK
6
CONTINUOUS
10
0.5079521653543307
20
1.0052807874015748
11
0.4837172047244094
21
0.9972024803149606
0
LINE
8
BLACK
6
CONTINUOUS
10
0.4837172047244094
20
0.9972024803149606
11
0.4827027952755905
21
0.9970520472440945
0
LINE
8
BLACK
6
CONTINUOUS
10
0.4827027952755905
20
0.9970520472440945
11
0.4808244094488189
21
0.9977944488188976
0
LINE
8
BLACK
6
CONTINUOUS
10
0.4808244094488189
20
0.9977944488188976
11
0.4798626377952756
21
0.999570590551181
0
LINE
8
BLACK
6
CONTINUOUS
10
0.4798626377952756
20
0.999570590551181
11
0.4802675984251968
21
1.0015493700787401
0
LINE
8
BLACK
6
CONTINUOUS
10
0.4802675984251968
20
1.0015493700787401
11
0.4818497244094488
21
1.0028049212598424
0
LINE
8
BLACK
6
CONTINUOUS
10
0.4818497244094488
20
1.0028049212598424
11
0.5099711417322834
21
1.0121787401574802
0
LINE
8
BLACK
6
CONTINUOUS
10
0.5099711417322834
20
1.0121787401574802
11
0.5109855511811023
21
1.0123291732283464
0
LINE
8
BLACK
6
CONTINUOUS
10
0.5109855511811023
20
1.0123291732283464
11
0.5111953937007874
21
1.0122462204724409
0
LINE
8
BLACK
6
CONTINUOUS
10
0.5246579921259842
20
1.0515879921259843
11
0.5247925590551181
21
1.0515997637795276
0
LINE
8
BLACK
6
CONTINUOUS
10
0.5247925590551181
20
1.0515997637795276
11
0.5255207086614173
21
1.0510898818897638
0
LINE
8
BLACK
6
CONTINUOUS
10
0.5255207086614173
20
1.0510898818897638
11
0.5262902362204724
21
1.0506455905511811
0
LINE
8
BLACK
6
CONTINUOUS
10
0.5262902362204724
20
1.0506455905511811
11
0.5263363779527559
21
1.0505187007874015
0
LINE
8
BLACK
6
CONTINUOUS
10
0.5263363779527559
20
1.0505187007874015
11
0.5264470866141732
21
1.0504412204724409
0
LINE
8
BLACK
6
CONTINUOUS
10
0.5264470866141732
20
1.0504412204724409
11
0.5266770866141732
21
1.0495826771653542
0
LINE
8
BLACK
6
CONTINUOUS
10
0.5266770866141732
20
1.0495826771653542
11
0.526981062992126
21
1.0487475984251968
0
LINE
8
BLACK
6
CONTINUOUS
10
0.526981062992126
20
1.0487475984251968
11
0.526981062992126
21
1.0243756692913386
0
LINE
8
BLACK
6
CONTINUOUS
10
0.526981062992126
20
1.0243756692913386
11
0.5268029921259842
21
1.0233657480314959
0
LINE
8
BLACK
6
CONTINUOUS
10
0.5268029921259842
20
1.0233657480314959
11
0.5255046850393701
21
1.0218185039370078
0
LINE
8
BLACK
6
CONTINUOUS
10
0.5255046850393701
20
1.0218185039370078
11
0.5235155511811024
21
1.0214677559055119
0
LINE
8
BLACK
6
CONTINUOUS
10
0.5235155511811024
20
1.0214677559055119
11
0.5217663779527559
21
1.0224776771653543
0
LINE
8
BLACK
6
CONTINUOUS
10
0.5217663779527559
20
1.0224776771653543
11
0.5210755511811024
21
1.0243756692913386
0
LINE
8
BLACK
6
CONTINUOUS
10
0.5210755511811024
20
1.0243756692913386
11
0.5210755511811024
21
1.0416190157480314
0
LINE
8
BLACK
6
CONTINUOUS
10
0.5210755511811024
20
1.0416190157480314
11
0.5036190157480315
21
1.0241625196850392
0
LINE
8
BLACK
6
CONTINUOUS
10
0.5036190157480315
20
1.0241625196850392
11
0.5027789763779528
21
1.0235743307086613
0
LINE
8
BLACK
6
CONTINUOUS
10
0.5027789763779528
20
1.0235743307086613
11
0.5026031102362205
21
1.0235589370078739
0
LINE
8
BLACK
6
CONTINUOUS
10
0.5026031102362205
20
1.0235589370078739
11
0.502464842519685
21
1.0234492125984251
0
LINE
8
BLACK
6
CONTINUOUS
10
0.502464842519685
20
1.0234492125984251
11
0.4968405511811024
21
1.0215744488188976
0
LINE
8
BLACK
6
CONTINUOUS
10
0.4968405511811024
20
1.0215744488188976
11
0.4959673622047244
21
1.0214449606299212
0
LINE
8
BLACK
6
CONTINUOUS
10
0.4959673622047244
20
1.0214449606299212
11
0.4959068110236221
21
1.0214229133858268
0
LINE
8
BLACK
6
CONTINUOUS
10
0.4959068110236221
20
1.0214229133858268
11
0.4921572834645669
21
1.0214229133858268
0
LINE
8
BLACK
6
CONTINUOUS
10
0.4921572834645669
20
1.0214229133858268
11
0.4911473622047244
21
1.0216009842519684
0
LINE
8
BLACK
6
CONTINUOUS
10
0.4911473622047244
20
1.0216009842519684
11
0.4910120866141732
21
1.0217144488188976
0
LINE
8
BLACK
6
CONTINUOUS
10
0.4910120866141732
20
1.0217144488188976
11
0.4908367716535433
21
1.0217346456692913
0
LINE
8
BLACK
6
CONTINUOUS
10
0.4908367716535433
20
1.0217346456692913
11
0.4870872440944882
21
1.0236094094488188
0
LINE
8
BLACK
6
CONTINUOUS
10
0.4870872440944882
20
1.0236094094488188
11
0.4863781496062992
21
1.0241352755905511
0
LINE
8
BLACK
6
CONTINUOUS
10
0.4863781496062992
20
1.0241352755905511
11
0.486319842519685
21
1.0241625196850392
0
LINE
8
BLACK
6
CONTINUOUS
10
0.486319842519685
20
1.0241625196850392
11
0.4844450787401575
21
1.0260372834645668
0
LINE
8
BLACK
6
CONTINUOUS
10
0.4844450787401575
20
1.0260372834645668
11
0.483938779527559
21
1.0267603543307087
0
LINE
8
BLACK
6
CONTINUOUS
10
0.483938779527559
20
1.0267603543307087
11
0.483891968503937
21
1.0268046850393699
0
LINE
8
BLACK
6
CONTINUOUS
10
0.483891968503937
20
1.0268046850393699
11
0.4820172047244095
21
1.0305542125984253
0
LINE
8
BLACK
6
CONTINUOUS
10
0.4820172047244095
20
1.0305542125984253
11
0.481724842519685
21
1.0315371653543306
0
LINE
8
BLACK
6
CONTINUOUS
10
0.481724842519685
20
1.0315371653543306
11
0.4817658267716535
21
1.0317088188976378
0
LINE
8
BLACK
6
CONTINUOUS
10
0.4817658267716535
20
1.0317088188976378
11
0.4817054724409449
21
1.0318747244094488
0
LINE
8
BLACK
6
CONTINUOUS
10
0.4817054724409449
20
1.0318747244094488
11
0.4817054724409449
21
1.0412485433070866
0
LINE
8
BLACK
6
CONTINUOUS
10
0.4817054724409449
20
1.0412485433070866
11
0.4818835433070866
21
1.0422584645669291
0
LINE
8
BLACK
6
CONTINUOUS
10
0.4818835433070866
20
1.0422584645669291
11
0.4819970078740157
21
1.0423937007874016
0
LINE
8
BLACK
6
CONTINUOUS
10
0.4819970078740157
20
1.0423937007874016
11
0.4820172047244095
21
1.0425690551181102
0
LINE
8
BLACK
6
CONTINUOUS
10
0.4820172047244095
20
1.0425690551181102
11
0.483891968503937
21
1.0463185826771653
0
LINE
8
BLACK
6
CONTINUOUS
10
0.483891968503937
20
1.0463185826771653
11
0.484417874015748
21
1.0470276377952756
0
LINE
8
BLACK
6
CONTINUOUS
10
0.484417874015748
20
1.0470276377952756
11
0.4844450787401575
21
1.0470859842519684
0
LINE
8
BLACK
6
CONTINUOUS
10
0.4844450787401575
20
1.0470859842519684
11
0.486319842519685
21
1.048960748031496
0
LINE
8
BLACK
6
CONTINUOUS
10
0.486319842519685
20
1.048960748031496
11
0.4871598818897638
21
1.0495489370078739
0
LINE
8
BLACK
6
CONTINUOUS
10
0.4871598818897638
20
1.0495489370078739
11
0.489171968503937
21
1.0497249606299213
0
LINE
8
BLACK
6
CONTINUOUS
10
0.489171968503937
20
1.0497249606299213
11
0.4908265354330709
21
1.0485664566929134
0
LINE
8
BLACK
6
CONTINUOUS
10
0.4908265354330709
20
1.0485664566929134
11
0.4913492519685039
21
1.0466154724409449
0
LINE
8
BLACK
6
CONTINUOUS
10
0.4913492519685039
20
1.0466154724409449
11
0.4904956692913386
21
1.0447849212598426
0
LINE
8
BLACK
6
CONTINUOUS
10
0.4904956692913386
20
1.0447849212598426
11
0.4889597244094488
21
1.0432489763779527
0
LINE
8
BLACK
6
CONTINUOUS
10
0.4889597244094488
20
1.0432489763779527
11
0.4876109842519685
21
1.040551496062992
0
LINE
8
BLACK
6
CONTINUOUS
10
0.4876109842519685
20
1.040551496062992
11
0.4876109842519685
21
1.0325717716535432
0
LINE
8
BLACK
6
CONTINUOUS
10
0.4876109842519685
20
1.0325717716535432
11
0.4889597244094488
21
1.0298742913385825
0
LINE
8
BLACK
6
CONTINUOUS
10
0.4889597244094488
20
1.0298742913385825
11
0.4901568503937008
21
1.0286771653543307
0
LINE
8
BLACK
6
CONTINUOUS
10
0.4901568503937008
20
1.0286771653543307
11
0.4928543307086614
21
1.0273284251968504
0
LINE
8
BLACK
6
CONTINUOUS
10
0.4928543307086614
20
1.0273284251968504
11
0.4954276771653543
21
1.0273284251968504
0
LINE
8
BLACK
6
CONTINUOUS
10
0.4954276771653543
20
1.0273284251968504
11
0.499936062992126
21
1.028831220472441
0
LINE
8
BLACK
6
CONTINUOUS
10
0.499936062992126
20
1.028831220472441
11
0.5219403937007874
21
1.0508355118110235
0
LINE
8
BLACK
6
CONTINUOUS
10
0.5219403937007874
20
1.0508355118110235
11
0.5224684251968503
21
1.0512052755905512
0
LINE
8
BLACK
6
CONTINUOUS
10
0.5224684251968503
20
1.0512052755905512
11
0.5225519291338583
21
1.0513047637795276
0
LINE
8
BLACK
6
CONTINUOUS
10
0.5225519291338583
20
1.0513047637795276
11
0.5226302362204724
21
1.0513185433070866
0
LINE
8
BLACK
6
CONTINUOUS
10
0.5226302362204724
20
1.0513185433070866
11
0.5227804330708661
21
1.0514237401574802
0
LINE
8
BLACK
6
CONTINUOUS
10
0.5227804330708661
20
1.0514237401574802
11
0.5236659842519685
21
1.0515011811023622
0
LINE
8
BLACK
6
CONTINUOUS
10
0.5236659842519685
20
1.0515011811023622
11
0.524541062992126
21
1.0516555118110236
0
LINE
8
BLACK
6
CONTINUOUS
10
0.524541062992126
20
1.0516555118110236
11
0.5246579921259842
21
1.0515879921259843
0
LINE
8
BLACK
6
CONTINUOUS
10
0.507735748031496
20
1.0890933070866142
11
0.5078715354330708
21
1.0891075196850393
0
LINE
8
BLACK
6
CONTINUOUS
10
0.5078715354330708
20
1.0891075196850393
11
0.5153705905511811
21
1.0872327559055117
0
LINE
8
BLACK
6
CONTINUOUS
10
0.5153705905511811
20
1.0872327559055117
11
0.5158360236220473
21
1.0870251574803149
0
LINE
8
BLACK
6
CONTINUOUS
10
0.5158360236220473
20
1.0870251574803149
11
0.5159749606299212
21
1.0870091732283464
0
LINE
8
BLACK
6
CONTINUOUS
10
0.5159749606299212
20
1.0870091732283464
11
0.5197244881889763
21
1.0851344094488189
0
LINE
8
BLACK
6
CONTINUOUS
10
0.5197244881889763
20
1.0851344094488189
11
0.5204335433070866
21
1.0846084645669292
0
LINE
8
BLACK
6
CONTINUOUS
10
0.5204335433070866
20
1.0846084645669292
11
0.5204918897637795
21
1.0845812992125985
0
LINE
8
BLACK
6
CONTINUOUS
10
0.5204918897637795
20
1.0845812992125985
11
0.5242414566929133
21
1.0808317716535434
0
LINE
8
BLACK
6
CONTINUOUS
10
0.5242414566929133
20
1.0808317716535434
11
0.5248296850393701
21
1.0799917322834645
0
LINE
8
BLACK
6
CONTINUOUS
10
0.5248296850393701
20
1.0799917322834645
11
0.5248450393700788
21
1.0798157874015748
0
LINE
8
BLACK
6
CONTINUOUS
10
0.5248450393700788
20
1.0798157874015748
11
0.5249547637795275
21
1.0796775984251967
0
LINE
8
BLACK
6
CONTINUOUS
10
0.5249547637795275
20
1.0796775984251967
11
0.5268295275590551
21
1.0740533464566928
0
LINE
8
BLACK
6
CONTINUOUS
10
0.5268295275590551
20
1.0740533464566928
11
0.5269590157480315
21
1.0731800787401575
0
LINE
8
BLACK
6
CONTINUOUS
10
0.5269590157480315
20
1.0731800787401575
11
0.526981062992126
21
1.0731195669291338
0
LINE
8
BLACK
6
CONTINUOUS
10
0.526981062992126
20
1.0731195669291338
11
0.526981062992126
21
1.0693700393700787
0
LINE
8
BLACK
6
CONTINUOUS
10
0.526981062992126
20
1.0693700393700787
11
0.5268277559055118
21
1.0685006299212598
0
LINE
8
BLACK
6
CONTINUOUS
10
0.5268277559055118
20
1.0685006299212598
11
0.5268295275590551
21
1.0684362598425197
0
LINE
8
BLACK
6
CONTINUOUS
10
0.5268295275590551
20
1.0684362598425197
11
0.5249547637795275
21
1.0628120078740158
0
LINE
8
BLACK
6
CONTINUOUS
10
0.5249547637795275
20
1.0628120078740158
11
0.5244664566929134
21
1.0619102362204724
0
LINE
8
BLACK
6
CONTINUOUS
10
0.5244664566929134
20
1.0619102362204724
11
0.5243160236220472
21
1.0618177952755905
0
LINE
8
BLACK
6
CONTINUOUS
10
0.5243160236220472
20
1.0618177952755905
11
0.5242414173228346
21
1.0616577952755906
0
LINE
8
BLACK
6
CONTINUOUS
10
0.5242414173228346
20
1.0616577952755906
11
0.5223666141732284
21
1.059783031496063
0
LINE
8
BLACK
6
CONTINUOUS
10
0.5223666141732284
20
1.059783031496063
11
0.5215265748031496
21
1.0591948425196851
0
LINE
8
BLACK
6
CONTINUOUS
10
0.5215265748031496
20
1.0591948425196851
11
0.5195144881889764
21
1.0590188582677165
0
LINE
8
BLACK
6
CONTINUOUS
10
0.5195144881889764
20
1.0590188582677165
11
0.5178599606299212
21
1.0601773622047244
0
LINE
8
BLACK
6
CONTINUOUS
10
0.5178599606299212
20
1.0601773622047244
11
0.5173372440944882
21
1.0621283464566929
0
LINE
8
BLACK
6
CONTINUOUS
10
0.5173372440944882
20
1.0621283464566929
11
0.5181908661417323
21
1.0639589370078739
0
LINE
8
BLACK
6
CONTINUOUS
10
0.5181908661417323
20
1.0639589370078739
11
0.5195727559055118
21
1.0653407874015748
0
LINE
8
BLACK
6
CONTINUOUS
10
0.5195727559055118
20
1.0653407874015748
11
0.5210755511811024
21
1.0698491732283464
0
LINE
8
BLACK
6
CONTINUOUS
10
0.5210755511811024
20
1.0698491732283464
11
0.5210755511811024
21
1.0726404330708661
0
LINE
8
BLACK
6
CONTINUOUS
10
0.5210755511811024
20
1.0726404330708661
11
0.5195727559055118
21
1.0771487795275589
0
LINE
8
BLACK
6
CONTINUOUS
10
0.5195727559055118
20
1.0771487795275589
11
0.5166548818897637
21
1.0800666141732282
0
LINE
8
BLACK
6
CONTINUOUS
10
0.5166548818897637
20
1.0800666141732282
11
0.5136238976377953
21
1.081582125984252
0
LINE
8
BLACK
6
CONTINUOUS
10
0.5136238976377953
20
1.081582125984252
11
0.5067918503937008
21
1.0832901574803149
0
LINE
8
BLACK
6
CONTINUOUS
10
0.5067918503937008
20
1.0832901574803149
11
0.5018946456692913
21
1.0832901574803149
0
LINE
8
BLACK
6
CONTINUOUS
10
0.5018946456692913
20
1.0832901574803149
11
0.4950625984251968
21
1.081582125984252
0
LINE
8
BLACK
6
CONTINUOUS
10
0.4950625984251968
20
1.081582125984252
11
0.4920316141732283
21
1.080066653543307
0
LINE
8
BLACK
6
CONTINUOUS
10
0.4920316141732283
20
1.080066653543307
11
0.489113779527559
21
1.0771488188976377
0
LINE
8
BLACK
6
CONTINUOUS
10
0.489113779527559
20
1.0771488188976377
11
0.4876109842519685
21
1.0726403937007873
0
LINE
8
BLACK
6
CONTINUOUS
10
0.4876109842519685
20
1.0726403937007873
11
0.4876109842519685
21
1.0698491732283464
0
LINE
8
BLACK
6
CONTINUOUS
10
0.4876109842519685
20
1.0698491732283464
11
0.489113779527559
21
1.065340748031496
0
LINE
8
BLACK
6
CONTINUOUS
10
0.489113779527559
20
1.065340748031496
11
0.4904956692913386
21
1.0639588976377952
0
LINE
8
BLACK
6
CONTINUOUS
10
0.4904956692913386
20
1.0639588976377952
11
0.4910838582677165
21
1.0631188582677165
0
LINE
8
BLACK
6
CONTINUOUS
10
0.4910838582677165
20
1.0631188582677165
11
0.4912598818897638
21
1.0611067716535434
0
LINE
8
BLACK
6
CONTINUOUS
10
0.4912598818897638
20
1.0611067716535434
11
0.4901013779527559
21
1.0594522047244095
0
LINE
8
BLACK
6
CONTINUOUS
10
0.4901013779527559
20
1.0594522047244095
11
0.4881503937007874
21
1.0589294881889764
0
LINE
8
BLACK
6
CONTINUOUS
10
0.4881503937007874
20
1.0589294881889764
11
0.486319842519685
21
1.0597830708661418
0
LINE
8
BLACK
6
CONTINUOUS
10
0.486319842519685
20
1.0597830708661418
11
0.4844450787401575
21
1.0616578346456693
0
LINE
8
BLACK
6
CONTINUOUS
10
0.4844450787401575
20
1.0616578346456693
11
0.4838568897637795
21
1.062497874015748
0
LINE
8
BLACK
6
CONTINUOUS
10
0.4838568897637795
20
1.062497874015748
11
0.4838414960629921
21
1.0626737007874016
0
LINE
8
BLACK
6
CONTINUOUS
10
0.4838414960629921
20
1.0626737007874016
11
0.4837317716535433
21
1.0628120078740158
0
LINE
8
BLACK
6
CONTINUOUS
10
0.4837317716535433
20
1.0628120078740158
11
0.4818570078740158
21
1.0684362992125984
0
LINE
8
BLACK
6
CONTINUOUS
10
0.4818570078740158
20
1.0684362992125984
11
0.4817275196850394
21
1.0693094488188977
0
LINE
8
BLACK
6
CONTINUOUS
10
0.4817275196850394
20
1.0693094488188977
11
0.4817054724409449
21
1.0693700393700787
0
LINE
8
BLACK
6
CONTINUOUS
10
0.4817054724409449
20
1.0693700393700787
11
0.4817054724409449
21
1.0731195669291338
0
LINE
8
BLACK
6
CONTINUOUS
10
0.4817054724409449
20
1.0731195669291338
11
0.4818587401574803
21
1.0739889370078739
0
LINE
8
BLACK
6
CONTINUOUS
10
0.4818587401574803
20
1.0739889370078739
11
0.4818570078740158
21
1.0740533070866141
0
LINE
8
BLACK
6
CONTINUOUS
10
0.4818570078740158
20
1.0740533070866141
11
0.4837317716535433
21
1.0796775984251967
0
LINE
8
BLACK
6
CONTINUOUS
10
0.4837317716535433
20
1.0796775984251967
11
0.4842200393700787
21
1.0805793700787401
0
LINE
8
BLACK
6
CONTINUOUS
10
0.4842200393700787
20
1.0805793700787401
11
0.4843704724409449
21
1.0806717716535432
0
LINE
8
BLACK
6
CONTINUOUS
10
0.4843704724409449
20
1.0806717716535432
11
0.4844450787401575
21
1.0808317716535434
0
LINE
8
BLACK
6
CONTINUOUS
10
0.4844450787401575
20
1.0808317716535434
11
0.4881946062992126
21
1.0845812992125985
0
LINE
8
BLACK
6
CONTINUOUS
10
0.4881946062992126
20
1.0845812992125985
11
0.4889177559055118
21
1.0850876771653544
0
LINE
8
BLACK
6
CONTINUOUS
10
0.4889177559055118
20
1.0850876771653544
11
0.4889620078740157
21
1.0851344094488189
0
LINE
8
BLACK
6
CONTINUOUS
10
0.4889620078740157
20
1.0851344094488189
11
0.4927115354330708
21
1.0870091732283464
0
LINE
8
BLACK
6
CONTINUOUS
10
0.4927115354330708
20
1.0870091732283464
11
0.4931999606299213
21
1.0871544488188976
0
LINE
8
BLACK
6
CONTINUOUS
10
0.4931999606299213
20
1.0871544488188976
11
0.493315905511811
21
1.0872327559055117
0
LINE
8
BLACK
6
CONTINUOUS
10
0.493315905511811
20
1.0872327559055117
11
0.5008149606299213
21
1.0891075196850393
0
LINE
8
BLACK
6
CONTINUOUS
10
0.5008149606299213
20
1.0891075196850393
11
0.5014028346456693
21
1.0891489763779527
0
LINE
8
BLACK
6
CONTINUOUS
10
0.5014028346456693
20
1.0891489763779527
11
0.5015311023622047
21
1.0891956692913385
0
LINE
8
BLACK
6
CONTINUOUS
10
0.5015311023622047
20
1.0891956692913385
11
0.5071553937007874
21
1.0891956692913385
0
LINE
8
BLACK
6
CONTINUOUS
10
0.5071553937007874
20
1.0891956692913385
11
0.507735748031496
21
1.0890933070866142
0
LINE
8
BLACK
6
CONTINUOUS
10
0.486920157480315
20
1.1218866929133857
11
0.4876109842519685
21
1.1199887007874016
0
LINE
8
BLACK
6
CONTINUOUS
10
0.4876109842519685
20
1.1199887007874016
11
0.4876109842519685
21
1.1116928740157479
0
LINE
8
BLACK
6
CONTINUOUS
10
0.4876109842519685
20
1.1116928740157479
11
0.5240283070866142
21
1.1116928740157479
0
LINE
8
BLACK
6
CONTINUOUS
10
0.5240283070866142
20
1.1116928740157479
11
0.5250382283464566
21
1.1115148031496063
0
LINE
8
BLACK
6
CONTINUOUS
10
0.5250382283464566
20
1.1115148031496063
11
0.5265854724409449
21
1.1102164960629921
0
LINE
8
BLACK
6
CONTINUOUS
10
0.5265854724409449
20
1.1102164960629921
11
0.5269362204724409
21
1.1082273622047243
0
LINE
8
BLACK
6
CONTINUOUS
10
0.5269362204724409
20
1.1082273622047243
11
0.5259262992125984
21
1.106478188976378
0
LINE
8
BLACK
6
CONTINUOUS
10
0.5259262992125984
20
1.106478188976378
11
0.5240283070866142
21
1.1057873622047243
0
LINE
8
BLACK
6
CONTINUOUS
10
0.5240283070866142
20
1.1057873622047243
11
0.4876109842519685
21
1.1057873622047243
0
LINE
8
BLACK
6
CONTINUOUS
10
0.4876109842519685
20
1.1057873622047243
11
0.4876109842519685
21
1.0974915354330708
0
LINE
8
BLACK
6
CONTINUOUS
10
0.4876109842519685
20
1.0974915354330708
11
0.4874329133858268
21
1.0964816141732283
0
LINE
8
BLACK
6
CONTINUOUS
10
0.4874329133858268
20
1.0964816141732283
11
0.4861346062992126
21
1.0949343700787402
0
LINE
8
BLACK
6
CONTINUOUS
10
0.4861346062992126
20
1.0949343700787402
11
0.4841454724409449
21
1.094583622047244
0
LINE
8
BLACK
6
CONTINUOUS
10
0.4841454724409449
20
1.094583622047244
11
0.4823962992125984
21
1.0955935433070867
0
LINE
8
BLACK
6
CONTINUOUS
10
0.4823962992125984
20
1.0955935433070867
11
0.4817054724409449
21
1.0974915354330708
0
LINE
8
BLACK
6
CONTINUOUS
10
0.4817054724409449
20
1.0974915354330708
11
0.4817054724409449
21
1.1199887007874016
0
LINE
8
BLACK
6
CONTINUOUS
10
0.4817054724409449
20
1.1199887007874016
11
0.4818835433070866
21
1.1209986220472441
0
LINE
8
BLACK
6
CONTINUOUS
10
0.4818835433070866
20
1.1209986220472441
11
0.4831818503937008
21
1.1225458661417322
0
LINE
8
BLACK
6
CONTINUOUS
10
0.4831818503937008
20
1.1225458661417322
11
0.4851709842519685
21
1.1228966141732284
0
LINE
8
BLACK
6
CONTINUOUS
10
0.4851709842519685
20
1.1228966141732284
11
0.486920157480315
21
1.1218866929133857
0
LINE
8
BLACK
6
CONTINUOUS
10
0.524411811023622
20
1.1491205511811022
11
0.524541062992126
21
1.1491433464566929
0
LINE
8
BLACK
6
CONTINUOUS
10
0.524541062992126
20
1.1491433464566929
11
0.5246546456692913
21
1.1490777165354331
0
LINE
8
BLACK
6
CONTINUOUS
10
0.5246546456692913
20
1.1490777165354331
11
0.5250382283464566
21
1.1490101181102361
0
LINE
8
BLACK
6
CONTINUOUS
10
0.5250382283464566
20
1.1490101181102361
11
0.525625905511811
21
1.1485169685039369
0
LINE
8
BLACK
6
CONTINUOUS
10
0.525625905511811
20
1.1485169685039369
11
0.5262902362204724
21
1.1481334251968505
0
LINE
8
BLACK
6
CONTINUOUS
10
0.5262902362204724
20
1.1481334251968505
11
0.5263813385826771
21
1.1478830708661416
0
LINE
8
BLACK
6
CONTINUOUS
10
0.5263813385826771
20
1.1478830708661416
11
0.5265854724409449
21
1.147711811023622
0
LINE
8
BLACK
6
CONTINUOUS
10
0.5265854724409449
20
1.147711811023622
11
0.5267187007874016
21
1.1469562204724408
0
LINE
8
BLACK
6
CONTINUOUS
10
0.5267187007874016
20
1.1469562204724408
11
0.526981062992126
21
1.1462354330708662
0
LINE
8
BLACK
6
CONTINUOUS
10
0.526981062992126
20
1.1462354330708662
11
0.526981062992126
21
1.1274877952755906
0
LINE
8
BLACK
6
CONTINUOUS
10
0.526981062992126
20
1.1274877952755906
11
0.5268029921259842
21
1.1264778740157479
0
LINE
8
BLACK
6
CONTINUOUS
10
0.5268029921259842
20
1.1264778740157479
11
0.5255046850393701
21
1.1249306299212598
0
LINE
8
BLACK
6
CONTINUOUS
10
0.5255046850393701
20
1.1249306299212598
11
0.5235155511811024
21
1.1245798818897637
0
LINE
8
BLACK
6
CONTINUOUS
10
0.5235155511811024
20
1.1245798818897637
11
0.5217663779527559
21
1.1255898031496063
0
LINE
8
BLACK
6
CONTINUOUS
10
0.5217663779527559
20
1.1255898031496063
11
0.5210755511811024
21
1.1274877952755906
0
LINE
8
BLACK
6
CONTINUOUS
10
0.5210755511811024
20
1.1274877952755906
11
0.5210755511811024
21
1.1432826771653544
0
LINE
8
BLACK
6
CONTINUOUS
10
0.5210755511811024
20
1.1432826771653544
11
0.4846582283464567
21
1.1432826771653544
0
LINE
8
BLACK
6
CONTINUOUS
10
0.4846582283464567
20
1.1432826771653544
11
0.4836483070866142
21
1.143460748031496
0
LINE
8
BLACK
6
CONTINUOUS
10
0.4836483070866142
20
1.143460748031496
11
0.482101062992126
21
1.1447590551181102
0
LINE
8
BLACK
6
CONTINUOUS
10
0.482101062992126
20
1.1447590551181102
11
0.4817503149606299
21
1.146748188976378
0
LINE
8
BLACK
6
CONTINUOUS
10
0.4817503149606299
20
1.146748188976378
11
0.4827602362204724
21
1.1484973622047243
0
LINE
8
BLACK
6
CONTINUOUS
10
0.4827602362204724
20
1.1484973622047243
11
0.4846582283464567
21
1.149188188976378
0
LINE
8
BLACK
6
CONTINUOUS
10
0.4846582283464567
20
1.149188188976378
11
0.5240283070866142
21
1.149188188976378
0
LINE
8
BLACK
6
CONTINUOUS
10
0.5240283070866142
20
1.149188188976378
11
0.524411811023622
21
1.1491205511811022
  0
ENDSEC
  0
EOF
