  0
SECTION
  2
HEADER
  9
$ANGBASE
  50
0.0
  9
$ANGDIR
  70
1
  9
$MEASUREMENT
  70
0
  0
ENDSEC
  0
SECTION
  2
TABLES
  0
TABLE
  2
LTYPE
  70
4
  0
LTYPE
  5
40F
  2
CONTINUOUS
  70
0
  3
Solid line
  72
65
  73
0
  40
0.0
  0
LTYPE
  5
410
  2
DASHDOT
 70
0
  3
Dash Dot ____ _ ____ _
 72
65
 73
4
 40
2.0
 49
1.25
 49
-0.25
 49
0.25
 49
-0.25
  0
LTYPE
  5
411
  2
DASHED
 70
0
  3
Dashed __ __ __ __ __
 72
65
 73
2
 40
0.75
 49
0.5
 49
-0.25
  0
LTYPE
  5
43B
  2
DOTTED
 70
0
  3
Dotted .  .  .  .
 72
65
 73
2
 40
0.2
 49
0.0
 49
-0.2
  0
ENDTAB
  0
TABLE
  2
STYLE
  70
4
  0
STYLE
  2
KICAD
  70
0
  40
0
  41
1
  42
1
  50
0
  71
0
  3
isocp.shx
  0
STYLE
  2
KICADB
  70
0
  40
0
  41
1
  42
1
  50
0
  71
0
  3
isocp.shx
  0
STYLE
  2
KICADI
  70
0
  40
0
  41
1
  42
1
  50
15
  71
0
  3
isocp.shx
  0
STYLE
  2
KICADBI
  70
0
  40
0
  41
1
  42
1
  50
15
  71
0
  3
isocp.shx
  0
ENDTAB
  0
TABLE
  2
LAYER
  70
1
  0
LAYER
  2
BLACK
  70
0
  62
7
  6
CONTINUOUS
  0
ENDTAB
  0
ENDSEC
  0
SECTION
  2
ENTITIES
0
LINE
8
BLACK
6
CONTINUOUS
10
0.6803346456692914
20
1.1156299212598424
11
0.6810306299212598
21
1.1153416535433072
0
LINE
8
BLACK
6
CONTINUOUS
10
0.6810306299212598
20
1.1153416535433072
11
0.6813188976377953
21
1.1146456692913385
0
LINE
8
BLACK
6
CONTINUOUS
10
0.6813188976377953
20
1.1146456692913385
11
0.6813188976377953
21
0.9453543307086614
0
LINE
8
BLACK
6
CONTINUOUS
10
0.6813188976377953
20
0.9453543307086614
11
0.6810306299212598
21
0.9446583464566929
0
LINE
8
BLACK
6
CONTINUOUS
10
0.6810306299212598
20
0.9446583464566929
11
0.6803346456692914
21
0.9443700787401574
0
LINE
8
BLACK
6
CONTINUOUS
10
0.6803346456692914
20
0.9443700787401574
11
0.5346653543307086
21
0.9443700787401574
0
LINE
8
BLACK
6
CONTINUOUS
10
0.5346653543307086
20
0.9443700787401574
11
0.5339693700787401
21
0.9446583464566929
0
LINE
8
BLACK
6
CONTINUOUS
10
0.5339693700787401
20
0.9446583464566929
11
0.5336811023622047
21
0.9453543307086614
0
LINE
8
BLACK
6
CONTINUOUS
10
0.5336811023622047
20
0.9453543307086614
11
0.5336811023622047
21
1.1146456692913385
0
LINE
8
BLACK
6
CONTINUOUS
10
0.5336811023622047
20
1.1146456692913385
11
0.5339693700787401
21
1.1153416535433072
0
LINE
8
BLACK
6
CONTINUOUS
10
0.5339693700787401
20
1.1153416535433072
11
0.5346653543307086
21
1.1156299212598424
0
LINE
8
BLACK
6
CONTINUOUS
10
0.5346653543307086
20
1.1156299212598424
11
0.6803346456692914
21
1.1156299212598424
0
LINE
8
BLACK
6
CONTINUOUS
10
0.5356496062992125
20
1.1136614173228345
11
0.5356496062992125
21
0.9463385826771653
0
LINE
8
BLACK
6
CONTINUOUS
10
0.5356496062992125
20
0.9463385826771653
11
0.6793503937007874
21
0.9463385826771653
0
LINE
8
BLACK
6
CONTINUOUS
10
0.6793503937007874
20
0.9463385826771653
11
0.6793503937007874
21
1.1136614173228345
0
LINE
8
BLACK
6
CONTINUOUS
10
0.6793503937007874
20
1.1136614173228345
11
0.5356496062992125
21
1.1136614173228345
  0
ENDSEC
  0
EOF
