  0
SECTION
  2
HEADER
  9
$ANGBASE
  50
0.0
  9
$ANGDIR
  70
1
  9
$MEASUREMENT
  70
0
  0
ENDSEC
  0
SECTION
  2
TABLES
  0
TABLE
  2
LTYPE
  70
4
  0
LTYPE
  5
40F
  2
CONTINUOUS
  70
0
  3
Solid line
  72
65
  73
0
  40
0.0
  0
LTYPE
  5
410
  2
DASHDOT
 70
0
  3
Dash Dot ____ _ ____ _
 72
65
 73
4
 40
2.0
 49
1.25
 49
-0.25
 49
0.25
 49
-0.25
  0
LTYPE
  5
411
  2
DASHED
 70
0
  3
Dashed __ __ __ __ __
 72
65
 73
2
 40
0.75
 49
0.5
 49
-0.25
  0
LTYPE
  5
43B
  2
DOTTED
 70
0
  3
Dotted .  .  .  .
 72
65
 73
2
 40
0.2
 49
0.0
 49
-0.2
  0
ENDTAB
  0
TABLE
  2
STYLE
  70
4
  0
STYLE
  2
KICAD
  70
0
  40
0
  41
1
  42
1
  50
0
  71
0
  3
isocp.shx
  0
STYLE
  2
KICADB
  70
0
  40
0
  41
1
  42
1
  50
0
  71
0
  3
isocp.shx
  0
STYLE
  2
KICADI
  70
0
  40
0
  41
1
  42
1
  50
15
  71
0
  3
isocp.shx
  0
STYLE
  2
KICADBI
  70
0
  40
0
  41
1
  42
1
  50
15
  71
0
  3
isocp.shx
  0
ENDTAB
  0
TABLE
  2
LAYER
  70
1
  0
LAYER
  2
BLACK
  70
0
  62
7
  6
CONTINUOUS
  0
ENDTAB
  0
ENDSEC
  0
SECTION
  2
ENTITIES
0
LINE
8
BLACK
6
CONTINUOUS
10
0.2205096456692913
20
0.3163158661417323
11
0.2338744094488189
21
0.3131483858267716
0
LINE
8
BLACK
6
CONTINUOUS
10
0.2338744094488189
20
0.3131483858267716
11
0.246781062992126
21
0.3084507086614173
0
LINE
8
BLACK
6
CONTINUOUS
10
0.246781062992126
20
0.3084507086614173
11
0.2590551181102362
21
0.3022864566929134
0
LINE
8
BLACK
6
CONTINUOUS
10
0.2590551181102362
20
0.3022864566929134
11
0.2705305511811024
21
0.2947389763779528
0
LINE
8
BLACK
6
CONTINUOUS
10
0.2705305511811024
20
0.2947389763779528
11
0.2810521653543307
21
0.2859102755905512
0
LINE
8
BLACK
6
CONTINUOUS
10
0.2810521653543307
20
0.2859102755905512
11
0.2904776771653543
21
0.2759198031496063
0
LINE
8
BLACK
6
CONTINUOUS
10
0.2904776771653543
20
0.2759198031496063
11
0.2986796456692913
21
0.2649026377952756
0
LINE
8
BLACK
6
CONTINUOUS
10
0.2986796456692913
20
0.2649026377952756
11
0.3055471653543307
21
0.2530077952755905
0
LINE
8
BLACK
6
CONTINUOUS
10
0.3055471653543307
20
0.2530077952755905
11
0.3109873228346456
21
0.240396062992126
0
LINE
8
BLACK
6
CONTINUOUS
10
0.3109873228346456
20
0.240396062992126
11
0.3149265748031496
21
0.2272381102362205
0
LINE
8
BLACK
6
CONTINUOUS
10
0.3149265748031496
20
0.2272381102362205
11
0.3173116141732283
21
0.2137117716535433
0
LINE
8
BLACK
6
CONTINUOUS
10
0.3173116141732283
20
0.2137117716535433
11
0.3181102362204724
21
0.2
0
LINE
8
BLACK
6
CONTINUOUS
10
0.3181102362204724
20
0.2
11
0.3173116141732283
21
0.1862882283464567
0
LINE
8
BLACK
6
CONTINUOUS
10
0.3173116141732283
20
0.1862882283464567
11
0.3149265748031496
21
0.1727618897637795
0
LINE
8
BLACK
6
CONTINUOUS
10
0.3149265748031496
20
0.1727618897637795
11
0.3109873228346456
21
0.159603937007874
0
LINE
8
BLACK
6
CONTINUOUS
10
0.3109873228346456
20
0.159603937007874
11
0.3055471653543307
21
0.1469922047244094
0
LINE
8
BLACK
6
CONTINUOUS
10
0.3055471653543307
20
0.1469922047244094
11
0.2986796456692913
21
0.1350973622047244
0
LINE
8
BLACK
6
CONTINUOUS
10
0.2986796456692913
20
0.1350973622047244
11
0.2904776771653543
21
0.1240801968503937
0
LINE
8
BLACK
6
CONTINUOUS
10
0.2904776771653543
20
0.1240801968503937
11
0.2810521653543307
21
0.1140897244094488
0
LINE
8
BLACK
6
CONTINUOUS
10
0.2810521653543307
20
0.1140897244094488
11
0.2705305511811024
21
0.1052610236220472
0
LINE
8
BLACK
6
CONTINUOUS
10
0.2705305511811024
20
0.1052610236220472
11
0.2590551181102362
21
0.0977135433070866
0
LINE
8
BLACK
6
CONTINUOUS
10
0.2590551181102362
20
0.0977135433070866
11
0.246781062992126
21
0.0915492913385827
0
LINE
8
BLACK
6
CONTINUOUS
10
0.246781062992126
20
0.0915492913385827
11
0.2338744094488189
21
0.0868516141732283
0
LINE
8
BLACK
6
CONTINUOUS
10
0.2338744094488189
20
0.0868516141732283
11
0.2205096456692913
21
0.0836841338582677
0
LINE
8
BLACK
6
CONTINUOUS
10
0.2205096456692913
20
0.0836841338582677
11
0.2068674803149606
21
0.0820896062992126
0
LINE
8
BLACK
6
CONTINUOUS
10
0.2068674803149606
20
0.0820896062992126
11
0.1931325196850394
21
0.0820896062992126
0
LINE
8
BLACK
6
CONTINUOUS
10
0.1931325196850394
20
0.0820896062992126
11
0.1794903543307086
21
0.0836841338582677
0
LINE
8
BLACK
6
CONTINUOUS
10
0.1794903543307086
20
0.0836841338582677
11
0.1661255905511811
21
0.0868516141732283
0
LINE
8
BLACK
6
CONTINUOUS
10
0.1661255905511811
20
0.0868516141732283
11
0.153218937007874
21
0.0915492913385827
0
LINE
8
BLACK
6
CONTINUOUS
10
0.153218937007874
20
0.0915492913385827
11
0.1409448818897638
21
0.0977135433070866
0
LINE
8
BLACK
6
CONTINUOUS
10
0.1409448818897638
20
0.0977135433070866
11
0.1294694488188976
21
0.1052610236220472
0
LINE
8
BLACK
6
CONTINUOUS
10
0.1294694488188976
20
0.1052610236220472
11
0.1189478346456693
21
0.1140897244094488
0
LINE
8
BLACK
6
CONTINUOUS
10
0.1189478346456693
20
0.1140897244094488
11
0.1095223228346457
21
0.1240801968503937
0
LINE
8
BLACK
6
CONTINUOUS
10
0.1095223228346457
20
0.1240801968503937
11
0.1013203543307087
21
0.1350973622047244
0
LINE
8
BLACK
6
CONTINUOUS
10
0.1013203543307087
20
0.1350973622047244
11
0.0944528346456693
21
0.1469922047244094
0
LINE
8
BLACK
6
CONTINUOUS
10
0.0944528346456693
20
0.1469922047244094
11
0.0890126771653543
21
0.159603937007874
0
LINE
8
BLACK
6
CONTINUOUS
10
0.0890126771653543
20
0.159603937007874
11
0.0850734251968504
21
0.1727618897637795
0
LINE
8
BLACK
6
CONTINUOUS
10
0.0850734251968504
20
0.1727618897637795
11
0.0826883858267717
21
0.1862882283464567
0
LINE
8
BLACK
6
CONTINUOUS
10
0.0826883858267717
20
0.1862882283464567
11
0.0818897637795276
21
0.2
0
LINE
8
BLACK
6
CONTINUOUS
10
0.0818897637795276
20
0.2
11
0.0826883858267717
21
0.2137117716535433
0
LINE
8
BLACK
6
CONTINUOUS
10
0.0826883858267717
20
0.2137117716535433
11
0.0850734251968504
21
0.2272381102362205
0
LINE
8
BLACK
6
CONTINUOUS
10
0.0850734251968504
20
0.2272381102362205
11
0.0890126771653543
21
0.240396062992126
0
LINE
8
BLACK
6
CONTINUOUS
10
0.0890126771653543
20
0.240396062992126
11
0.0944528346456693
21
0.2530077952755905
0
LINE
8
BLACK
6
CONTINUOUS
10
0.0944528346456693
20
0.2530077952755905
11
0.1013203543307087
21
0.2649026377952756
0
LINE
8
BLACK
6
CONTINUOUS
10
0.1013203543307087
20
0.2649026377952756
11
0.1095223228346457
21
0.2759198031496063
0
LINE
8
BLACK
6
CONTINUOUS
10
0.1095223228346457
20
0.2759198031496063
11
0.1189478346456693
21
0.2859102755905512
0
LINE
8
BLACK
6
CONTINUOUS
10
0.1189478346456693
20
0.2859102755905512
11
0.1294694488188976
21
0.2947389763779528
0
LINE
8
BLACK
6
CONTINUOUS
10
0.1294694488188976
20
0.2947389763779528
11
0.1409448818897638
21
0.3022864566929134
0
LINE
8
BLACK
6
CONTINUOUS
10
0.1409448818897638
20
0.3022864566929134
11
0.153218937007874
21
0.3084507086614173
0
LINE
8
BLACK
6
CONTINUOUS
10
0.153218937007874
20
0.3084507086614173
11
0.1661255905511811
21
0.3131483858267716
0
LINE
8
BLACK
6
CONTINUOUS
10
0.1661255905511811
20
0.3131483858267716
11
0.1794903543307086
21
0.3163158661417323
0
LINE
8
BLACK
6
CONTINUOUS
10
0.1794903543307086
20
0.3163158661417323
11
0.1931325196850394
21
0.3179103937007874
0
LINE
8
BLACK
6
CONTINUOUS
10
0.1931325196850394
20
0.3179103937007874
11
0.2068674803149606
21
0.3179103937007874
0
LINE
8
BLACK
6
CONTINUOUS
10
0.2068674803149606
20
0.3179103937007874
11
0.2205096456692913
21
0.3163158661417323
0
LINE
8
BLACK
6
CONTINUOUS
10
1.0205096456692913
20
0.3163158661417323
11
1.0338744094488188
21
0.3131483858267716
0
LINE
8
BLACK
6
CONTINUOUS
10
1.0338744094488188
20
0.3131483858267716
11
1.0467810629921259
21
0.3084507086614173
0
LINE
8
BLACK
6
CONTINUOUS
10
1.0467810629921259
20
0.3084507086614173
11
1.0590551181102361
21
0.3022864566929134
0
LINE
8
BLACK
6
CONTINUOUS
10
1.0590551181102361
20
0.3022864566929134
11
1.0705305511811023
21
0.2947389763779528
0
LINE
8
BLACK
6
CONTINUOUS
10
1.0705305511811023
20
0.2947389763779528
11
1.0810521653543306
21
0.2859102755905512
0
LINE
8
BLACK
6
CONTINUOUS
10
1.0810521653543306
20
0.2859102755905512
11
1.0904776771653544
21
0.2759198031496063
0
LINE
8
BLACK
6
CONTINUOUS
10
1.0904776771653544
20
0.2759198031496063
11
1.0986796456692913
21
0.2649026377952756
0
LINE
8
BLACK
6
CONTINUOUS
10
1.0986796456692913
20
0.2649026377952756
11
1.1055471653543307
21
0.2530077952755905
0
LINE
8
BLACK
6
CONTINUOUS
10
1.1055471653543307
20
0.2530077952755905
11
1.1109873228346456
21
0.240396062992126
0
LINE
8
BLACK
6
CONTINUOUS
10
1.1109873228346456
20
0.240396062992126
11
1.1149265748031496
21
0.2272381102362205
0
LINE
8
BLACK
6
CONTINUOUS
10
1.1149265748031496
20
0.2272381102362205
11
1.1173116141732282
21
0.2137117716535433
0
LINE
8
BLACK
6
CONTINUOUS
10
1.1173116141732282
20
0.2137117716535433
11
1.1181102362204725
21
0.2
0
LINE
8
BLACK
6
CONTINUOUS
10
1.1181102362204725
20
0.2
11
1.1173116141732282
21
0.1862882283464567
0
LINE
8
BLACK
6
CONTINUOUS
10
1.1173116141732282
20
0.1862882283464567
11
1.1149265748031496
21
0.1727618897637795
0
LINE
8
BLACK
6
CONTINUOUS
10
1.1149265748031496
20
0.1727618897637795
11
1.1109873228346456
21
0.159603937007874
0
LINE
8
BLACK
6
CONTINUOUS
10
1.1109873228346456
20
0.159603937007874
11
1.1055471653543307
21
0.1469922047244094
0
LINE
8
BLACK
6
CONTINUOUS
10
1.1055471653543307
20
0.1469922047244094
11
1.0986796456692913
21
0.1350973622047244
0
LINE
8
BLACK
6
CONTINUOUS
10
1.0986796456692913
20
0.1350973622047244
11
1.0904776771653544
21
0.1240801968503937
0
LINE
8
BLACK
6
CONTINUOUS
10
1.0904776771653544
20
0.1240801968503937
11
1.0810521653543306
21
0.1140897244094488
0
LINE
8
BLACK
6
CONTINUOUS
10
1.0810521653543306
20
0.1140897244094488
11
1.0705305511811023
21
0.1052610236220472
0
LINE
8
BLACK
6
CONTINUOUS
10
1.0705305511811023
20
0.1052610236220472
11
1.0590551181102361
21
0.0977135433070866
0
LINE
8
BLACK
6
CONTINUOUS
10
1.0590551181102361
20
0.0977135433070866
11
1.0467810629921259
21
0.0915492913385827
0
LINE
8
BLACK
6
CONTINUOUS
10
1.0467810629921259
20
0.0915492913385827
11
1.0338744094488188
21
0.0868516141732283
0
LINE
8
BLACK
6
CONTINUOUS
10
1.0338744094488188
20
0.0868516141732283
11
1.0205096456692913
21
0.0836841338582677
0
LINE
8
BLACK
6
CONTINUOUS
10
1.0205096456692913
20
0.0836841338582677
11
1.0068674803149607
21
0.0820896062992126
0
LINE
8
BLACK
6
CONTINUOUS
10
1.0068674803149607
20
0.0820896062992126
11
0.9931325196850393
21
0.0820896062992126
0
LINE
8
BLACK
6
CONTINUOUS
10
0.9931325196850393
20
0.0820896062992126
11
0.9794903543307086
21
0.0836841338582677
0
LINE
8
BLACK
6
CONTINUOUS
10
0.9794903543307086
20
0.0836841338582677
11
0.9661255905511811
21
0.0868516141732283
0
LINE
8
BLACK
6
CONTINUOUS
10
0.9661255905511811
20
0.0868516141732283
11
0.953218937007874
21
0.0915492913385827
0
LINE
8
BLACK
6
CONTINUOUS
10
0.953218937007874
20
0.0915492913385827
11
0.9409448818897638
21
0.0977135433070866
0
LINE
8
BLACK
6
CONTINUOUS
10
0.9409448818897638
20
0.0977135433070866
11
0.9294694488188976
21
0.1052610236220472
0
LINE
8
BLACK
6
CONTINUOUS
10
0.9294694488188976
20
0.1052610236220472
11
0.9189478346456693
21
0.1140897244094488
0
LINE
8
BLACK
6
CONTINUOUS
10
0.9189478346456693
20
0.1140897244094488
11
0.9095223228346456
21
0.1240801968503937
0
LINE
8
BLACK
6
CONTINUOUS
10
0.9095223228346456
20
0.1240801968503937
11
0.9013203543307087
21
0.1350973622047244
0
LINE
8
BLACK
6
CONTINUOUS
10
0.9013203543307087
20
0.1350973622047244
11
0.8944528346456693
21
0.1469922047244094
0
LINE
8
BLACK
6
CONTINUOUS
10
0.8944528346456693
20
0.1469922047244094
11
0.8890126771653543
21
0.159603937007874
0
LINE
8
BLACK
6
CONTINUOUS
10
0.8890126771653543
20
0.159603937007874
11
0.8850734251968504
21
0.1727618897637795
0
LINE
8
BLACK
6
CONTINUOUS
10
0.8850734251968504
20
0.1727618897637795
11
0.8826883858267717
21
0.1862882283464567
0
LINE
8
BLACK
6
CONTINUOUS
10
0.8826883858267717
20
0.1862882283464567
11
0.8818897637795275
21
0.2
0
LINE
8
BLACK
6
CONTINUOUS
10
0.8818897637795275
20
0.2
11
0.8826883858267717
21
0.2137117716535433
0
LINE
8
BLACK
6
CONTINUOUS
10
0.8826883858267717
20
0.2137117716535433
11
0.8850734251968504
21
0.2272381102362205
0
LINE
8
BLACK
6
CONTINUOUS
10
0.8850734251968504
20
0.2272381102362205
11
0.8890126771653543
21
0.240396062992126
0
LINE
8
BLACK
6
CONTINUOUS
10
0.8890126771653543
20
0.240396062992126
11
0.8944528346456693
21
0.2530077952755905
0
LINE
8
BLACK
6
CONTINUOUS
10
0.8944528346456693
20
0.2530077952755905
11
0.9013203543307087
21
0.2649026377952756
0
LINE
8
BLACK
6
CONTINUOUS
10
0.9013203543307087
20
0.2649026377952756
11
0.9095223228346456
21
0.2759198031496063
0
LINE
8
BLACK
6
CONTINUOUS
10
0.9095223228346456
20
0.2759198031496063
11
0.9189478346456693
21
0.2859102755905512
0
LINE
8
BLACK
6
CONTINUOUS
10
0.9189478346456693
20
0.2859102755905512
11
0.9294694488188976
21
0.2947389763779528
0
LINE
8
BLACK
6
CONTINUOUS
10
0.9294694488188976
20
0.2947389763779528
11
0.9409448818897638
21
0.3022864566929134
0
LINE
8
BLACK
6
CONTINUOUS
10
0.9409448818897638
20
0.3022864566929134
11
0.953218937007874
21
0.3084507086614173
0
LINE
8
BLACK
6
CONTINUOUS
10
0.953218937007874
20
0.3084507086614173
11
0.9661255905511811
21
0.3131483858267716
0
LINE
8
BLACK
6
CONTINUOUS
10
0.9661255905511811
20
0.3131483858267716
11
0.9794903543307086
21
0.3163158661417323
0
LINE
8
BLACK
6
CONTINUOUS
10
0.9794903543307086
20
0.3163158661417323
11
0.9931325196850393
21
0.3179103937007874
0
LINE
8
BLACK
6
CONTINUOUS
10
0.9931325196850393
20
0.3179103937007874
11
1.0068674803149607
21
0.3179103937007874
0
LINE
8
BLACK
6
CONTINUOUS
10
1.0068674803149607
20
0.3179103937007874
11
1.0205096456692913
21
0.3163158661417323
0
LINE
8
BLACK
6
CONTINUOUS
10
0.6264975984251968
20
0.7584679133858268
11
0.6326694094488189
21
0.7563083070866141
0
LINE
8
BLACK
6
CONTINUOUS
10
0.6326694094488189
20
0.7563083070866141
11
0.638205905511811
21
0.7528294881889763
0
LINE
8
BLACK
6
CONTINUOUS
10
0.638205905511811
20
0.7528294881889763
11
0.6428294881889763
21
0.748205905511811
0
LINE
8
BLACK
6
CONTINUOUS
10
0.6428294881889763
20
0.748205905511811
11
0.6463083070866141
21
0.7426694094488189
0
LINE
8
BLACK
6
CONTINUOUS
10
0.6463083070866141
20
0.7426694094488189
11
0.6484679133858268
21
0.7364975984251968
0
LINE
8
BLACK
6
CONTINUOUS
10
0.6484679133858268
20
0.7364975984251968
11
0.6492
21
0.73
0
LINE
8
BLACK
6
CONTINUOUS
10
0.6492
20
0.73
11
0.6484679133858268
21
0.7235024015748032
0
LINE
8
BLACK
6
CONTINUOUS
10
0.6484679133858268
20
0.7235024015748032
11
0.6463083070866141
21
0.7173305905511811
0
LINE
8
BLACK
6
CONTINUOUS
10
0.6463083070866141
20
0.7173305905511811
11
0.6428294881889763
21
0.711794094488189
0
LINE
8
BLACK
6
CONTINUOUS
10
0.6428294881889763
20
0.711794094488189
11
0.638205905511811
21
0.7071705118110236
0
LINE
8
BLACK
6
CONTINUOUS
10
0.638205905511811
20
0.7071705118110236
11
0.6326694094488189
21
0.7036916929133858
0
LINE
8
BLACK
6
CONTINUOUS
10
0.6326694094488189
20
0.7036916929133858
11
0.6264975984251968
21
0.7015320866141732
0
LINE
8
BLACK
6
CONTINUOUS
10
0.6264975984251968
20
0.7015320866141732
11
0.62
21
0.7008
0
LINE
8
BLACK
6
CONTINUOUS
10
0.62
20
0.7008
11
0.6135024015748032
21
0.7015320866141732
0
LINE
8
BLACK
6
CONTINUOUS
10
0.6135024015748032
20
0.7015320866141732
11
0.6073305905511811
21
0.7036916929133858
0
LINE
8
BLACK
6
CONTINUOUS
10
0.6073305905511811
20
0.7036916929133858
11
0.601794094488189
21
0.7071705118110236
0
LINE
8
BLACK
6
CONTINUOUS
10
0.601794094488189
20
0.7071705118110236
11
0.5971705118110237
21
0.711794094488189
0
LINE
8
BLACK
6
CONTINUOUS
10
0.5971705118110237
20
0.711794094488189
11
0.5936916929133859
21
0.7173305905511811
0
LINE
8
BLACK
6
CONTINUOUS
10
0.5936916929133859
20
0.7173305905511811
11
0.5915320866141732
21
0.7235024015748032
0
LINE
8
BLACK
6
CONTINUOUS
10
0.5915320866141732
20
0.7235024015748032
11
0.5908
21
0.73
0
LINE
8
BLACK
6
CONTINUOUS
10
0.5908
20
0.73
11
0.5915320866141732
21
0.7364975984251968
0
LINE
8
BLACK
6
CONTINUOUS
10
0.5915320866141732
20
0.7364975984251968
11
0.5936916929133859
21
0.7426694094488189
0
LINE
8
BLACK
6
CONTINUOUS
10
0.5936916929133859
20
0.7426694094488189
11
0.5971705118110237
21
0.748205905511811
0
LINE
8
BLACK
6
CONTINUOUS
10
0.5971705118110237
20
0.748205905511811
11
0.601794094488189
21
0.7528294881889763
0
LINE
8
BLACK
6
CONTINUOUS
10
0.601794094488189
20
0.7528294881889763
11
0.6073305905511811
21
0.7563083070866141
0
LINE
8
BLACK
6
CONTINUOUS
10
0.6073305905511811
20
0.7563083070866141
11
0.6135024015748032
21
0.7584679133858268
0
LINE
8
BLACK
6
CONTINUOUS
10
0.6135024015748032
20
0.7584679133858268
11
0.62
21
0.7592
0
LINE
8
BLACK
6
CONTINUOUS
10
0.62
20
0.7592
11
0.6264975984251968
21
0.7584679133858268
0
LINE
8
BLACK
6
CONTINUOUS
10
0.6196938582677165
20
0.7296938582677165
11
0.62
21
0.7295670472440945
0
LINE
8
BLACK
6
CONTINUOUS
10
0.62
20
0.7295670472440945
11
0.6203061417322835
21
0.7296938582677165
0
LINE
8
BLACK
6
CONTINUOUS
10
0.6203061417322835
20
0.7296938582677165
11
0.6204329527559055
21
0.73
0
LINE
8
BLACK
6
CONTINUOUS
10
0.6204329527559055
20
0.73
11
0.6203061417322835
21
0.7303061417322835
0
LINE
8
BLACK
6
CONTINUOUS
10
0.6203061417322835
20
0.7303061417322835
11
0.62
21
0.7304329527559055
0
LINE
8
BLACK
6
CONTINUOUS
10
0.62
20
0.7304329527559055
11
0.6196938582677165
21
0.7303061417322835
0
LINE
8
BLACK
6
CONTINUOUS
10
0.6196938582677165
20
0.7303061417322835
11
0.6195670472440945
21
0.73
0
LINE
8
BLACK
6
CONTINUOUS
10
0.6195670472440945
20
0.73
11
0.6196938582677165
21
0.7296938582677165
0
LINE
8
BLACK
6
CONTINUOUS
10
0.3248358661417323
20
0.8248833070866142
11
0.3291983858267716
21
0.8226605118110236
0
LINE
8
BLACK
6
CONTINUOUS
10
0.3291983858267716
20
0.8226605118110236
11
0.3326605118110236
21
0.8191983858267716
0
LINE
8
BLACK
6
CONTINUOUS
10
0.3326605118110236
20
0.8191983858267716
11
0.3348833070866142
21
0.8148358661417323
0
LINE
8
BLACK
6
CONTINUOUS
10
0.3348833070866142
20
0.8148358661417323
11
0.3356492519685039
21
0.8099999999999999
0
LINE
8
BLACK
6
CONTINUOUS
10
0.3356492519685039
20
0.8099999999999999
11
0.3348833070866142
21
0.8051641338582677
0
LINE
8
BLACK
6
CONTINUOUS
10
0.3348833070866142
20
0.8051641338582677
11
0.3326605118110236
21
0.8008016141732284
0
LINE
8
BLACK
6
CONTINUOUS
10
0.3326605118110236
20
0.8008016141732284
11
0.3291983858267716
21
0.7973394881889764
0
LINE
8
BLACK
6
CONTINUOUS
10
0.3291983858267716
20
0.7973394881889764
11
0.3248358661417323
21
0.7951166929133858
0
LINE
8
BLACK
6
CONTINUOUS
10
0.3248358661417323
20
0.7951166929133858
11
0.32
21
0.7943507480314961
0
LINE
8
BLACK
6
CONTINUOUS
10
0.32
20
0.7943507480314961
11
0.3151641338582677
21
0.7951166929133858
0
LINE
8
BLACK
6
CONTINUOUS
10
0.3151641338582677
20
0.7951166929133858
11
0.3108016141732283
21
0.7973394881889764
0
LINE
8
BLACK
6
CONTINUOUS
10
0.3108016141732283
20
0.7973394881889764
11
0.3073394881889764
21
0.8008016141732284
0
LINE
8
BLACK
6
CONTINUOUS
10
0.3073394881889764
20
0.8008016141732284
11
0.3051166929133858
21
0.8051641338582677
0
LINE
8
BLACK
6
CONTINUOUS
10
0.3051166929133858
20
0.8051641338582677
11
0.304350748031496
21
0.8099999999999999
0
LINE
8
BLACK
6
CONTINUOUS
10
0.304350748031496
20
0.8099999999999999
11
0.3051166929133858
21
0.8148358661417323
0
LINE
8
BLACK
6
CONTINUOUS
10
0.3051166929133858
20
0.8148358661417323
11
0.3073394881889764
21
0.8191983858267716
0
LINE
8
BLACK
6
CONTINUOUS
10
0.3073394881889764
20
0.8191983858267716
11
0.3108016141732283
21
0.8226605118110236
0
LINE
8
BLACK
6
CONTINUOUS
10
0.3108016141732283
20
0.8226605118110236
11
0.3151641338582677
21
0.8248833070866142
0
LINE
8
BLACK
6
CONTINUOUS
10
0.3151641338582677
20
0.8248833070866142
11
0.32
21
0.8256492519685039
0
LINE
8
BLACK
6
CONTINUOUS
10
0.32
20
0.8256492519685039
11
0.3248358661417323
21
0.8248833070866142
0
LINE
8
BLACK
6
CONTINUOUS
10
0.3195030708661417
20
0.8095030708661417
11
0.32
21
0.8092972440944882
0
LINE
8
BLACK
6
CONTINUOUS
10
0.32
20
0.8092972440944882
11
0.3204969291338582
21
0.8095030708661417
0
LINE
8
BLACK
6
CONTINUOUS
10
0.3204969291338582
20
0.8095030708661417
11
0.3207027559055118
21
0.8099999999999999
0
LINE
8
BLACK
6
CONTINUOUS
10
0.3207027559055118
20
0.8099999999999999
11
0.3204969291338582
21
0.8104969291338583
0
LINE
8
BLACK
6
CONTINUOUS
10
0.3204969291338582
20
0.8104969291338583
11
0.32
21
0.8107027559055118
0
LINE
8
BLACK
6
CONTINUOUS
10
0.32
20
0.8107027559055118
11
0.3195030708661417
21
0.8104969291338583
0
LINE
8
BLACK
6
CONTINUOUS
10
0.3195030708661417
20
0.8104969291338583
11
0.3192972440944882
21
0.8099999999999999
0
LINE
8
BLACK
6
CONTINUOUS
10
0.3192972440944882
20
0.8099999999999999
11
0.3195030708661417
21
0.8095030708661417
0
LINE
8
BLACK
6
CONTINUOUS
10
0.6264975984251968
20
0.8684679133858267
11
0.6326694094488189
21
0.8663083070866141
0
LINE
8
BLACK
6
CONTINUOUS
10
0.6326694094488189
20
0.8663083070866141
11
0.638205905511811
21
0.8628294881889763
0
LINE
8
BLACK
6
CONTINUOUS
10
0.638205905511811
20
0.8628294881889763
11
0.6428294881889763
21
0.858205905511811
0
LINE
8
BLACK
6
CONTINUOUS
10
0.6428294881889763
20
0.858205905511811
11
0.6463083070866141
21
0.8526694094488189
0
LINE
8
BLACK
6
CONTINUOUS
10
0.6463083070866141
20
0.8526694094488189
11
0.6484679133858268
21
0.8464975984251968
0
LINE
8
BLACK
6
CONTINUOUS
10
0.6484679133858268
20
0.8464975984251968
11
0.6492
21
0.84
0
LINE
8
BLACK
6
CONTINUOUS
10
0.6492
20
0.84
11
0.6484679133858268
21
0.8335024015748032
0
LINE
8
BLACK
6
CONTINUOUS
10
0.6484679133858268
20
0.8335024015748032
11
0.6463083070866141
21
0.8273305905511811
0
LINE
8
BLACK
6
CONTINUOUS
10
0.6463083070866141
20
0.8273305905511811
11
0.6428294881889763
21
0.821794094488189
0
LINE
8
BLACK
6
CONTINUOUS
10
0.6428294881889763
20
0.821794094488189
11
0.638205905511811
21
0.8171705118110236
0
LINE
8
BLACK
6
CONTINUOUS
10
0.638205905511811
20
0.8171705118110236
11
0.6326694094488189
21
0.8136916929133858
0
LINE
8
BLACK
6
CONTINUOUS
10
0.6326694094488189
20
0.8136916929133858
11
0.6264975984251968
21
0.8115320866141732
0
LINE
8
BLACK
6
CONTINUOUS
10
0.6264975984251968
20
0.8115320866141732
11
0.62
21
0.8108
0
LINE
8
BLACK
6
CONTINUOUS
10
0.62
20
0.8108
11
0.6135024015748032
21
0.8115320866141732
0
LINE
8
BLACK
6
CONTINUOUS
10
0.6135024015748032
20
0.8115320866141732
11
0.6073305905511811
21
0.8136916929133858
0
LINE
8
BLACK
6
CONTINUOUS
10
0.6073305905511811
20
0.8136916929133858
11
0.601794094488189
21
0.8171705118110236
0
LINE
8
BLACK
6
CONTINUOUS
10
0.601794094488189
20
0.8171705118110236
11
0.5971705118110237
21
0.821794094488189
0
LINE
8
BLACK
6
CONTINUOUS
10
0.5971705118110237
20
0.821794094488189
11
0.5936916929133859
21
0.8273305905511811
0
LINE
8
BLACK
6
CONTINUOUS
10
0.5936916929133859
20
0.8273305905511811
11
0.5915320866141732
21
0.8335024015748032
0
LINE
8
BLACK
6
CONTINUOUS
10
0.5915320866141732
20
0.8335024015748032
11
0.5908
21
0.84
0
LINE
8
BLACK
6
CONTINUOUS
10
0.5908
20
0.84
11
0.5915320866141732
21
0.8464975984251968
0
LINE
8
BLACK
6
CONTINUOUS
10
0.5915320866141732
20
0.8464975984251968
11
0.5936916929133859
21
0.8526694094488189
0
LINE
8
BLACK
6
CONTINUOUS
10
0.5936916929133859
20
0.8526694094488189
11
0.5971705118110237
21
0.858205905511811
0
LINE
8
BLACK
6
CONTINUOUS
10
0.5971705118110237
20
0.858205905511811
11
0.601794094488189
21
0.8628294881889763
0
LINE
8
BLACK
6
CONTINUOUS
10
0.601794094488189
20
0.8628294881889763
11
0.6073305905511811
21
0.8663083070866141
0
LINE
8
BLACK
6
CONTINUOUS
10
0.6073305905511811
20
0.8663083070866141
11
0.6135024015748032
21
0.8684679133858267
0
LINE
8
BLACK
6
CONTINUOUS
10
0.6135024015748032
20
0.8684679133858267
11
0.62
21
0.8692
0
LINE
8
BLACK
6
CONTINUOUS
10
0.62
20
0.8692
11
0.6264975984251968
21
0.8684679133858267
0
LINE
8
BLACK
6
CONTINUOUS
10
0.6196938582677165
20
0.8396938582677165
11
0.62
21
0.8395670472440945
0
LINE
8
BLACK
6
CONTINUOUS
10
0.62
20
0.8395670472440945
11
0.6203061417322835
21
0.8396938582677165
0
LINE
8
BLACK
6
CONTINUOUS
10
0.6203061417322835
20
0.8396938582677165
11
0.6204329527559055
21
0.84
0
LINE
8
BLACK
6
CONTINUOUS
10
0.6204329527559055
20
0.84
11
0.6203061417322835
21
0.8403061417322835
0
LINE
8
BLACK
6
CONTINUOUS
10
0.6203061417322835
20
0.8403061417322835
11
0.62
21
0.8404329527559055
0
LINE
8
BLACK
6
CONTINUOUS
10
0.62
20
0.8404329527559055
11
0.6196938582677165
21
0.8403061417322835
0
LINE
8
BLACK
6
CONTINUOUS
10
0.6196938582677165
20
0.8403061417322835
11
0.6195670472440945
21
0.84
0
LINE
8
BLACK
6
CONTINUOUS
10
0.6195670472440945
20
0.84
11
0.6196938582677165
21
0.8396938582677165
0
LINE
8
BLACK
6
CONTINUOUS
10
0.2205096456692913
20
1.5163158661417322
11
0.2338744094488189
21
1.5131483858267716
0
LINE
8
BLACK
6
CONTINUOUS
10
0.2338744094488189
20
1.5131483858267716
11
0.246781062992126
21
1.5084507086614174
0
LINE
8
BLACK
6
CONTINUOUS
10
0.246781062992126
20
1.5084507086614174
11
0.2590551181102362
21
1.5022864566929133
0
LINE
8
BLACK
6
CONTINUOUS
10
0.2590551181102362
20
1.5022864566929133
11
0.2705305511811024
21
1.4947389763779528
0
LINE
8
BLACK
6
CONTINUOUS
10
0.2705305511811024
20
1.4947389763779528
11
0.2810521653543307
21
1.4859102755905511
0
LINE
8
BLACK
6
CONTINUOUS
10
0.2810521653543307
20
1.4859102755905511
11
0.2904776771653543
21
1.4759198031496064
0
LINE
8
BLACK
6
CONTINUOUS
10
0.2904776771653543
20
1.4759198031496064
11
0.2986796456692913
21
1.4649026377952756
0
LINE
8
BLACK
6
CONTINUOUS
10
0.2986796456692913
20
1.4649026377952756
11
0.3055471653543307
21
1.4530077952755904
0
LINE
8
BLACK
6
CONTINUOUS
10
0.3055471653543307
20
1.4530077952755904
11
0.3109873228346456
21
1.440396062992126
0
LINE
8
BLACK
6
CONTINUOUS
10
0.3109873228346456
20
1.440396062992126
11
0.3149265748031496
21
1.4272381102362204
0
LINE
8
BLACK
6
CONTINUOUS
10
0.3149265748031496
20
1.4272381102362204
11
0.3173116141732283
21
1.4137117716535432
0
LINE
8
BLACK
6
CONTINUOUS
10
0.3173116141732283
20
1.4137117716535432
11
0.3181102362204724
21
1.3999999999999999
0
LINE
8
BLACK
6
CONTINUOUS
10
0.3181102362204724
20
1.3999999999999999
11
0.3173116141732283
21
1.3862882283464566
0
LINE
8
BLACK
6
CONTINUOUS
10
0.3173116141732283
20
1.3862882283464566
11
0.3149265748031496
21
1.3727618897637794
0
LINE
8
BLACK
6
CONTINUOUS
10
0.3149265748031496
20
1.3727618897637794
11
0.3109873228346456
21
1.3596039370078741
0
LINE
8
BLACK
6
CONTINUOUS
10
0.3109873228346456
20
1.3596039370078741
11
0.3055471653543307
21
1.3469922047244094
0
LINE
8
BLACK
6
CONTINUOUS
10
0.3055471653543307
20
1.3469922047244094
11
0.2986796456692913
21
1.3350973622047244
0
LINE
8
BLACK
6
CONTINUOUS
10
0.2986796456692913
20
1.3350973622047244
11
0.2904776771653543
21
1.3240801968503937
0
LINE
8
BLACK
6
CONTINUOUS
10
0.2904776771653543
20
1.3240801968503937
11
0.2810521653543307
21
1.3140897244094487
0
LINE
8
BLACK
6
CONTINUOUS
10
0.2810521653543307
20
1.3140897244094487
11
0.2705305511811024
21
1.3052610236220472
0
LINE
8
BLACK
6
CONTINUOUS
10
0.2705305511811024
20
1.3052610236220472
11
0.2590551181102362
21
1.2977135433070865
0
LINE
8
BLACK
6
CONTINUOUS
10
0.2590551181102362
20
1.2977135433070865
11
0.246781062992126
21
1.2915492913385827
0
LINE
8
BLACK
6
CONTINUOUS
10
0.246781062992126
20
1.2915492913385827
11
0.2338744094488189
21
1.2868516141732282
0
LINE
8
BLACK
6
CONTINUOUS
10
0.2338744094488189
20
1.2868516141732282
11
0.2205096456692913
21
1.2836841338582676
0
LINE
8
BLACK
6
CONTINUOUS
10
0.2205096456692913
20
1.2836841338582676
11
0.2068674803149606
21
1.2820896062992126
0
LINE
8
BLACK
6
CONTINUOUS
10
0.2068674803149606
20
1.2820896062992126
11
0.1931325196850394
21
1.2820896062992126
0
LINE
8
BLACK
6
CONTINUOUS
10
0.1931325196850394
20
1.2820896062992126
11
0.1794903543307086
21
1.2836841338582676
0
LINE
8
BLACK
6
CONTINUOUS
10
0.1794903543307086
20
1.2836841338582676
11
0.1661255905511811
21
1.2868516141732282
0
LINE
8
BLACK
6
CONTINUOUS
10
0.1661255905511811
20
1.2868516141732282
11
0.153218937007874
21
1.2915492913385827
0
LINE
8
BLACK
6
CONTINUOUS
10
0.153218937007874
20
1.2915492913385827
11
0.1409448818897638
21
1.2977135433070865
0
LINE
8
BLACK
6
CONTINUOUS
10
0.1409448818897638
20
1.2977135433070865
11
0.1294694488188976
21
1.3052610236220472
0
LINE
8
BLACK
6
CONTINUOUS
10
0.1294694488188976
20
1.3052610236220472
11
0.1189478346456693
21
1.3140897244094487
0
LINE
8
BLACK
6
CONTINUOUS
10
0.1189478346456693
20
1.3140897244094487
11
0.1095223228346457
21
1.3240801968503937
0
LINE
8
BLACK
6
CONTINUOUS
10
0.1095223228346457
20
1.3240801968503937
11
0.1013203543307087
21
1.3350973622047244
0
LINE
8
BLACK
6
CONTINUOUS
10
0.1013203543307087
20
1.3350973622047244
11
0.0944528346456693
21
1.3469922047244094
0
LINE
8
BLACK
6
CONTINUOUS
10
0.0944528346456693
20
1.3469922047244094
11
0.0890126771653543
21
1.3596039370078741
0
LINE
8
BLACK
6
CONTINUOUS
10
0.0890126771653543
20
1.3596039370078741
11
0.0850734251968504
21
1.3727618897637794
0
LINE
8
BLACK
6
CONTINUOUS
10
0.0850734251968504
20
1.3727618897637794
11
0.0826883858267717
21
1.3862882283464566
0
LINE
8
BLACK
6
CONTINUOUS
10
0.0826883858267717
20
1.3862882283464566
11
0.0818897637795276
21
1.3999999999999999
0
LINE
8
BLACK
6
CONTINUOUS
10
0.0818897637795276
20
1.3999999999999999
11
0.0826883858267717
21
1.4137117716535432
0
LINE
8
BLACK
6
CONTINUOUS
10
0.0826883858267717
20
1.4137117716535432
11
0.0850734251968504
21
1.4272381102362204
0
LINE
8
BLACK
6
CONTINUOUS
10
0.0850734251968504
20
1.4272381102362204
11
0.0890126771653543
21
1.440396062992126
0
LINE
8
BLACK
6
CONTINUOUS
10
0.0890126771653543
20
1.440396062992126
11
0.0944528346456693
21
1.4530077952755904
0
LINE
8
BLACK
6
CONTINUOUS
10
0.0944528346456693
20
1.4530077952755904
11
0.1013203543307087
21
1.4649026377952756
0
LINE
8
BLACK
6
CONTINUOUS
10
0.1013203543307087
20
1.4649026377952756
11
0.1095223228346457
21
1.4759198031496064
0
LINE
8
BLACK
6
CONTINUOUS
10
0.1095223228346457
20
1.4759198031496064
11
0.1189478346456693
21
1.4859102755905511
0
LINE
8
BLACK
6
CONTINUOUS
10
0.1189478346456693
20
1.4859102755905511
11
0.1294694488188976
21
1.4947389763779528
0
LINE
8
BLACK
6
CONTINUOUS
10
0.1294694488188976
20
1.4947389763779528
11
0.1409448818897638
21
1.5022864566929133
0
LINE
8
BLACK
6
CONTINUOUS
10
0.1409448818897638
20
1.5022864566929133
11
0.153218937007874
21
1.5084507086614174
0
LINE
8
BLACK
6
CONTINUOUS
10
0.153218937007874
20
1.5084507086614174
11
0.1661255905511811
21
1.5131483858267716
0
LINE
8
BLACK
6
CONTINUOUS
10
0.1661255905511811
20
1.5131483858267716
11
0.1794903543307086
21
1.5163158661417322
0
LINE
8
BLACK
6
CONTINUOUS
10
0.1794903543307086
20
1.5163158661417322
11
0.1931325196850394
21
1.5179103937007874
0
LINE
8
BLACK
6
CONTINUOUS
10
0.1931325196850394
20
1.5179103937007874
11
0.2068674803149606
21
1.5179103937007874
0
LINE
8
BLACK
6
CONTINUOUS
10
0.2068674803149606
20
1.5179103937007874
11
0.2205096456692913
21
1.5163158661417322
0
LINE
8
BLACK
6
CONTINUOUS
10
1.0205096456692913
20
1.5163158661417322
11
1.0338744094488188
21
1.5131483858267716
0
LINE
8
BLACK
6
CONTINUOUS
10
1.0338744094488188
20
1.5131483858267716
11
1.0467810629921259
21
1.5084507086614174
0
LINE
8
BLACK
6
CONTINUOUS
10
1.0467810629921259
20
1.5084507086614174
11
1.0590551181102361
21
1.5022864566929133
0
LINE
8
BLACK
6
CONTINUOUS
10
1.0590551181102361
20
1.5022864566929133
11
1.0705305511811023
21
1.4947389763779528
0
LINE
8
BLACK
6
CONTINUOUS
10
1.0705305511811023
20
1.4947389763779528
11
1.0810521653543306
21
1.4859102755905511
0
LINE
8
BLACK
6
CONTINUOUS
10
1.0810521653543306
20
1.4859102755905511
11
1.0904776771653544
21
1.4759198031496064
0
LINE
8
BLACK
6
CONTINUOUS
10
1.0904776771653544
20
1.4759198031496064
11
1.0986796456692913
21
1.4649026377952756
0
LINE
8
BLACK
6
CONTINUOUS
10
1.0986796456692913
20
1.4649026377952756
11
1.1055471653543307
21
1.4530077952755904
0
LINE
8
BLACK
6
CONTINUOUS
10
1.1055471653543307
20
1.4530077952755904
11
1.1109873228346456
21
1.440396062992126
0
LINE
8
BLACK
6
CONTINUOUS
10
1.1109873228346456
20
1.440396062992126
11
1.1149265748031496
21
1.4272381102362204
0
LINE
8
BLACK
6
CONTINUOUS
10
1.1149265748031496
20
1.4272381102362204
11
1.1173116141732282
21
1.4137117716535432
0
LINE
8
BLACK
6
CONTINUOUS
10
1.1173116141732282
20
1.4137117716535432
11
1.1181102362204725
21
1.3999999999999999
0
LINE
8
BLACK
6
CONTINUOUS
10
1.1181102362204725
20
1.3999999999999999
11
1.1173116141732282
21
1.3862882283464566
0
LINE
8
BLACK
6
CONTINUOUS
10
1.1173116141732282
20
1.3862882283464566
11
1.1149265748031496
21
1.3727618897637794
0
LINE
8
BLACK
6
CONTINUOUS
10
1.1149265748031496
20
1.3727618897637794
11
1.1109873228346456
21
1.3596039370078741
0
LINE
8
BLACK
6
CONTINUOUS
10
1.1109873228346456
20
1.3596039370078741
11
1.1055471653543307
21
1.3469922047244094
0
LINE
8
BLACK
6
CONTINUOUS
10
1.1055471653543307
20
1.3469922047244094
11
1.0986796456692913
21
1.3350973622047244
0
LINE
8
BLACK
6
CONTINUOUS
10
1.0986796456692913
20
1.3350973622047244
11
1.0904776771653544
21
1.3240801968503937
0
LINE
8
BLACK
6
CONTINUOUS
10
1.0904776771653544
20
1.3240801968503937
11
1.0810521653543306
21
1.3140897244094487
0
LINE
8
BLACK
6
CONTINUOUS
10
1.0810521653543306
20
1.3140897244094487
11
1.0705305511811023
21
1.3052610236220472
0
LINE
8
BLACK
6
CONTINUOUS
10
1.0705305511811023
20
1.3052610236220472
11
1.0590551181102361
21
1.2977135433070865
0
LINE
8
BLACK
6
CONTINUOUS
10
1.0590551181102361
20
1.2977135433070865
11
1.0467810629921259
21
1.2915492913385827
0
LINE
8
BLACK
6
CONTINUOUS
10
1.0467810629921259
20
1.2915492913385827
11
1.0338744094488188
21
1.2868516141732282
0
LINE
8
BLACK
6
CONTINUOUS
10
1.0338744094488188
20
1.2868516141732282
11
1.0205096456692913
21
1.2836841338582676
0
LINE
8
BLACK
6
CONTINUOUS
10
1.0205096456692913
20
1.2836841338582676
11
1.0068674803149607
21
1.2820896062992126
0
LINE
8
BLACK
6
CONTINUOUS
10
1.0068674803149607
20
1.2820896062992126
11
0.9931325196850393
21
1.2820896062992126
0
LINE
8
BLACK
6
CONTINUOUS
10
0.9931325196850393
20
1.2820896062992126
11
0.9794903543307086
21
1.2836841338582676
0
LINE
8
BLACK
6
CONTINUOUS
10
0.9794903543307086
20
1.2836841338582676
11
0.9661255905511811
21
1.2868516141732282
0
LINE
8
BLACK
6
CONTINUOUS
10
0.9661255905511811
20
1.2868516141732282
11
0.953218937007874
21
1.2915492913385827
0
LINE
8
BLACK
6
CONTINUOUS
10
0.953218937007874
20
1.2915492913385827
11
0.9409448818897638
21
1.2977135433070865
0
LINE
8
BLACK
6
CONTINUOUS
10
0.9409448818897638
20
1.2977135433070865
11
0.9294694488188976
21
1.3052610236220472
0
LINE
8
BLACK
6
CONTINUOUS
10
0.9294694488188976
20
1.3052610236220472
11
0.9189478346456693
21
1.3140897244094487
0
LINE
8
BLACK
6
CONTINUOUS
10
0.9189478346456693
20
1.3140897244094487
11
0.9095223228346456
21
1.3240801968503937
0
LINE
8
BLACK
6
CONTINUOUS
10
0.9095223228346456
20
1.3240801968503937
11
0.9013203543307087
21
1.3350973622047244
0
LINE
8
BLACK
6
CONTINUOUS
10
0.9013203543307087
20
1.3350973622047244
11
0.8944528346456693
21
1.3469922047244094
0
LINE
8
BLACK
6
CONTINUOUS
10
0.8944528346456693
20
1.3469922047244094
11
0.8890126771653543
21
1.3596039370078741
0
LINE
8
BLACK
6
CONTINUOUS
10
0.8890126771653543
20
1.3596039370078741
11
0.8850734251968504
21
1.3727618897637794
0
LINE
8
BLACK
6
CONTINUOUS
10
0.8850734251968504
20
1.3727618897637794
11
0.8826883858267717
21
1.3862882283464566
0
LINE
8
BLACK
6
CONTINUOUS
10
0.8826883858267717
20
1.3862882283464566
11
0.8818897637795275
21
1.3999999999999999
0
LINE
8
BLACK
6
CONTINUOUS
10
0.8818897637795275
20
1.3999999999999999
11
0.8826883858267717
21
1.4137117716535432
0
LINE
8
BLACK
6
CONTINUOUS
10
0.8826883858267717
20
1.4137117716535432
11
0.8850734251968504
21
1.4272381102362204
0
LINE
8
BLACK
6
CONTINUOUS
10
0.8850734251968504
20
1.4272381102362204
11
0.8890126771653543
21
1.440396062992126
0
LINE
8
BLACK
6
CONTINUOUS
10
0.8890126771653543
20
1.440396062992126
11
0.8944528346456693
21
1.4530077952755904
0
LINE
8
BLACK
6
CONTINUOUS
10
0.8944528346456693
20
1.4530077952755904
11
0.9013203543307087
21
1.4649026377952756
0
LINE
8
BLACK
6
CONTINUOUS
10
0.9013203543307087
20
1.4649026377952756
11
0.9095223228346456
21
1.4759198031496064
0
LINE
8
BLACK
6
CONTINUOUS
10
0.9095223228346456
20
1.4759198031496064
11
0.9189478346456693
21
1.4859102755905511
0
LINE
8
BLACK
6
CONTINUOUS
10
0.9189478346456693
20
1.4859102755905511
11
0.9294694488188976
21
1.4947389763779528
0
LINE
8
BLACK
6
CONTINUOUS
10
0.9294694488188976
20
1.4947389763779528
11
0.9409448818897638
21
1.5022864566929133
0
LINE
8
BLACK
6
CONTINUOUS
10
0.9409448818897638
20
1.5022864566929133
11
0.953218937007874
21
1.5084507086614174
0
LINE
8
BLACK
6
CONTINUOUS
10
0.953218937007874
20
1.5084507086614174
11
0.9661255905511811
21
1.5131483858267716
0
LINE
8
BLACK
6
CONTINUOUS
10
0.9661255905511811
20
1.5131483858267716
11
0.9794903543307086
21
1.5163158661417322
0
LINE
8
BLACK
6
CONTINUOUS
10
0.9794903543307086
20
1.5163158661417322
11
0.9931325196850393
21
1.5179103937007874
0
LINE
8
BLACK
6
CONTINUOUS
10
0.9931325196850393
20
1.5179103937007874
11
1.0068674803149607
21
1.5179103937007874
0
LINE
8
BLACK
6
CONTINUOUS
10
1.0068674803149607
20
1.5179103937007874
11
1.0205096456692913
21
1.5163158661417322
  0
ENDSEC
  0
EOF
