  0
SECTION
  2
HEADER
  9
$ANGBASE
  50
0.0
  9
$ANGDIR
  70
1
  9
$MEASUREMENT
  70
0
  0
ENDSEC
  0
SECTION
  2
TABLES
  0
TABLE
  2
LTYPE
  70
4
  0
LTYPE
  5
40F
  2
CONTINUOUS
  70
0
  3
Solid line
  72
65
  73
0
  40
0.0
  0
LTYPE
  5
410
  2
DASHDOT
 70
0
  3
Dash Dot ____ _ ____ _
 72
65
 73
4
 40
2.0
 49
1.25
 49
-0.25
 49
0.25
 49
-0.25
  0
LTYPE
  5
411
  2
DASHED
 70
0
  3
Dashed __ __ __ __ __
 72
65
 73
2
 40
0.75
 49
0.5
 49
-0.25
  0
LTYPE
  5
43B
  2
DOTTED
 70
0
  3
Dotted .  .  .  .
 72
65
 73
2
 40
0.2
 49
0.0
 49
-0.2
  0
ENDTAB
  0
TABLE
  2
STYLE
  70
4
  0
STYLE
  2
KICAD
  70
0
  40
0
  41
1
  42
1
  50
0
  71
0
  3
isocp.shx
  0
STYLE
  2
KICADB
  70
0
  40
0
  41
1
  42
1
  50
0
  71
0
  3
isocp.shx
  0
STYLE
  2
KICADI
  70
0
  40
0
  41
1
  42
1
  50
15
  71
0
  3
isocp.shx
  0
STYLE
  2
KICADBI
  70
0
  40
0
  41
1
  42
1
  50
15
  71
0
  3
isocp.shx
  0
ENDTAB
  0
TABLE
  2
LAYER
  70
1
  0
LAYER
  2
BLACK
  70
0
  62
7
  6
CONTINUOUS
  0
ENDTAB
  0
ENDSEC
  0
SECTION
  2
ENTITIES
0
LINE
8
BLACK
6
CONTINUOUS
10
0.522367
20
0.936475
11
0.524241
21
0.9346
0
LINE
8
BLACK
6
CONTINUOUS
10
0.524241
20
0.9346
11
0.524748
21
0.933877
0
LINE
8
BLACK
6
CONTINUOUS
10
0.524748
20
0.933877
11
0.524795
21
0.933833
0
LINE
8
BLACK
6
CONTINUOUS
10
0.524795
20
0.933833
11
0.526669
21
0.930083
0
LINE
8
BLACK
6
CONTINUOUS
10
0.526669
20
0.930083
11
0.526962
21
0.9291
0
LINE
8
BLACK
6
CONTINUOUS
10
0.526962
20
0.9291
11
0.526921
21
0.928928
0
LINE
8
BLACK
6
CONTINUOUS
10
0.526921
20
0.928928
11
0.526981
21
0.928763
0
LINE
8
BLACK
6
CONTINUOUS
10
0.526981
20
0.928763
11
0.526981
21
0.919389
0
LINE
8
BLACK
6
CONTINUOUS
10
0.526981
20
0.919389
11
0.526803
21
0.918379
0
LINE
8
BLACK
6
CONTINUOUS
10
0.526803
20
0.918379
11
0.526689
21
0.918244
0
LINE
8
BLACK
6
CONTINUOUS
10
0.526689
20
0.918244
11
0.526669
21
0.918068
0
LINE
8
BLACK
6
CONTINUOUS
10
0.526669
20
0.918068
11
0.524795
21
0.914319
0
LINE
8
BLACK
6
CONTINUOUS
10
0.524795
20
0.914319
11
0.524269
21
0.91361
0
LINE
8
BLACK
6
CONTINUOUS
10
0.524269
20
0.91361
11
0.524241
21
0.913551
0
LINE
8
BLACK
6
CONTINUOUS
10
0.524241
20
0.913551
11
0.522367
21
0.911677
0
LINE
8
BLACK
6
CONTINUOUS
10
0.522367
20
0.911677
11
0.521644
21
0.91117
0
LINE
8
BLACK
6
CONTINUOUS
10
0.521644
20
0.91117
11
0.521599
21
0.911123
0
LINE
8
BLACK
6
CONTINUOUS
10
0.521599
20
0.911123
11
0.51785
21
0.909249
0
LINE
8
BLACK
6
CONTINUOUS
10
0.51785
20
0.909249
11
0.516867
21
0.908956
0
LINE
8
BLACK
6
CONTINUOUS
10
0.516867
20
0.908956
11
0.516695
21
0.908997
0
LINE
8
BLACK
6
CONTINUOUS
10
0.516695
20
0.908997
11
0.516529
21
0.908937
0
LINE
8
BLACK
6
CONTINUOUS
10
0.516529
20
0.908937
11
0.507155
21
0.908937
0
LINE
8
BLACK
6
CONTINUOUS
10
0.507155
20
0.908937
11
0.506145
21
0.909115
0
LINE
8
BLACK
6
CONTINUOUS
10
0.506145
20
0.909115
11
0.50601
21
0.909229
0
LINE
8
BLACK
6
CONTINUOUS
10
0.50601
20
0.909229
11
0.505835
21
0.909249
0
LINE
8
BLACK
6
CONTINUOUS
10
0.505835
20
0.909249
11
0.502085
21
0.911123
0
LINE
8
BLACK
6
CONTINUOUS
10
0.502085
20
0.911123
11
0.501376
21
0.911649
0
LINE
8
BLACK
6
CONTINUOUS
10
0.501376
20
0.911649
11
0.501318
21
0.911677
0
LINE
8
BLACK
6
CONTINUOUS
10
0.501318
20
0.911677
11
0.499443
21
0.913551
0
LINE
8
BLACK
6
CONTINUOUS
10
0.499443
20
0.913551
11
0.498937
21
0.914274
0
LINE
8
BLACK
6
CONTINUOUS
10
0.498937
20
0.914274
11
0.49889
21
0.914319
0
LINE
8
BLACK
6
CONTINUOUS
10
0.49889
20
0.914319
11
0.497015
21
0.918068
0
LINE
8
BLACK
6
CONTINUOUS
10
0.497015
20
0.918068
11
0.496723
21
0.919051
0
LINE
8
BLACK
6
CONTINUOUS
10
0.496723
20
0.919051
11
0.496764
21
0.919223
0
LINE
8
BLACK
6
CONTINUOUS
10
0.496764
20
0.919223
11
0.496704
21
0.919389
0
LINE
8
BLACK
6
CONTINUOUS
10
0.496704
20
0.919389
11
0.496704
21
0.928763
0
LINE
8
BLACK
6
CONTINUOUS
10
0.496704
20
0.928763
11
0.496882
21
0.929773
0
LINE
8
BLACK
6
CONTINUOUS
10
0.496882
20
0.929773
11
0.496995
21
0.929908
0
LINE
8
BLACK
6
CONTINUOUS
10
0.496995
20
0.929908
11
0.497015
21
0.930083
0
LINE
8
BLACK
6
CONTINUOUS
10
0.497015
20
0.930083
11
0.497382
21
0.930817
0
LINE
8
BLACK
6
CONTINUOUS
10
0.497382
20
0.930817
11
0.487611
21
0.92984
0
LINE
8
BLACK
6
CONTINUOUS
10
0.487611
20
0.92984
11
0.487611
21
0.913764
0
LINE
8
BLACK
6
CONTINUOUS
10
0.487611
20
0.913764
11
0.487433
21
0.912755
0
LINE
8
BLACK
6
CONTINUOUS
10
0.487433
20
0.912755
11
0.486135
21
0.911207
0
LINE
8
BLACK
6
CONTINUOUS
10
0.486135
20
0.911207
11
0.484145
21
0.910857
0
LINE
8
BLACK
6
CONTINUOUS
10
0.484145
20
0.910857
11
0.482396
21
0.911866
0
LINE
8
BLACK
6
CONTINUOUS
10
0.482396
20
0.911866
11
0.481705
21
0.913764
0
LINE
8
BLACK
6
CONTINUOUS
10
0.481705
20
0.913764
11
0.481705
21
0.932512
0
LINE
8
BLACK
6
CONTINUOUS
10
0.481705
20
0.932512
11
0.481733
21
0.932666
0
LINE
8
BLACK
6
CONTINUOUS
10
0.481733
20
0.932666
11
0.481714
21
0.932733
0
LINE
8
BLACK
6
CONTINUOUS
10
0.481714
20
0.932733
11
0.481764
21
0.932845
0
LINE
8
BLACK
6
CONTINUOUS
10
0.481764
20
0.932845
11
0.481884
21
0.933522
0
LINE
8
BLACK
6
CONTINUOUS
10
0.481884
20
0.933522
11
0.482287
21
0.934002
0
LINE
8
BLACK
6
CONTINUOUS
10
0.482287
20
0.934002
11
0.482545
21
0.934574
0
LINE
8
BLACK
6
CONTINUOUS
10
0.482545
20
0.934574
11
0.482916
21
0.934753
0
LINE
8
BLACK
6
CONTINUOUS
10
0.482916
20
0.934753
11
0.483182
21
0.935069
0
LINE
8
BLACK
6
CONTINUOUS
10
0.483182
20
0.935069
11
0.483799
21
0.935178
0
LINE
8
BLACK
6
CONTINUOUS
10
0.483799
20
0.935178
11
0.484364
21
0.93545
0
LINE
8
BLACK
6
CONTINUOUS
10
0.484364
20
0.93545
11
0.503112
21
0.937325
0
LINE
8
BLACK
6
CONTINUOUS
10
0.503112
20
0.937325
11
0.504135
21
0.937248
0
LINE
8
BLACK
6
CONTINUOUS
10
0.504135
20
0.937248
11
0.504151
21
0.937237
0
LINE
8
BLACK
6
CONTINUOUS
10
0.504151
20
0.937237
11
0.50417
21
0.937239
0
LINE
8
BLACK
6
CONTINUOUS
10
0.50417
20
0.937239
11
0.504982
21
0.936671
0
LINE
8
BLACK
6
CONTINUOUS
10
0.504982
20
0.936671
11
0.505803
21
0.93611
0
LINE
8
BLACK
6
CONTINUOUS
10
0.505803
20
0.93611
11
0.505809
21
0.936092
0
LINE
8
BLACK
6
CONTINUOUS
10
0.505809
20
0.936092
11
0.505825
21
0.936081
0
LINE
8
BLACK
6
CONTINUOUS
10
0.505825
20
0.936081
11
0.506082
21
0.935122
0
LINE
8
BLACK
6
CONTINUOUS
10
0.506082
20
0.935122
11
0.50635
21
0.934166
0
LINE
8
BLACK
6
CONTINUOUS
10
0.50635
20
0.934166
11
0.506342
21
0.934148
0
LINE
8
BLACK
6
CONTINUOUS
10
0.506342
20
0.934148
11
0.506347
21
0.93413
0
LINE
8
BLACK
6
CONTINUOUS
10
0.506347
20
0.93413
11
0.505928
21
0.933231
0
LINE
8
BLACK
6
CONTINUOUS
10
0.505928
20
0.933231
11
0.50552
21
0.932325
0
LINE
8
BLACK
6
CONTINUOUS
10
0.50552
20
0.932325
11
0.505502
21
0.932317
0
LINE
8
BLACK
6
CONTINUOUS
10
0.505502
20
0.932317
11
0.505494
21
0.932299
0
LINE
8
BLACK
6
CONTINUOUS
10
0.505494
20
0.932299
11
0.503958
21
0.930763
0
LINE
8
BLACK
6
CONTINUOUS
10
0.503958
20
0.930763
11
0.502609
21
0.928066
0
LINE
8
BLACK
6
CONTINUOUS
10
0.502609
20
0.928066
11
0.502609
21
0.920086
0
LINE
8
BLACK
6
CONTINUOUS
10
0.502609
20
0.920086
11
0.503958
21
0.917388
0
LINE
8
BLACK
6
CONTINUOUS
10
0.503958
20
0.917388
11
0.505155
21
0.916191
0
LINE
8
BLACK
6
CONTINUOUS
10
0.505155
20
0.916191
11
0.507852
21
0.914842
0
LINE
8
BLACK
6
CONTINUOUS
10
0.507852
20
0.914842
11
0.515832
21
0.914842
0
LINE
8
BLACK
6
CONTINUOUS
10
0.515832
20
0.914842
11
0.51853
21
0.916191
0
LINE
8
BLACK
6
CONTINUOUS
10
0.51853
20
0.916191
11
0.519727
21
0.917388
0
LINE
8
BLACK
6
CONTINUOUS
10
0.519727
20
0.917388
11
0.521076
21
0.920086
0
LINE
8
BLACK
6
CONTINUOUS
10
0.521076
20
0.920086
11
0.521076
21
0.928066
0
LINE
8
BLACK
6
CONTINUOUS
10
0.521076
20
0.928066
11
0.519727
21
0.930763
0
LINE
8
BLACK
6
CONTINUOUS
10
0.519727
20
0.930763
11
0.518191
21
0.932299
0
LINE
8
BLACK
6
CONTINUOUS
10
0.518191
20
0.932299
11
0.517603
21
0.933139
0
LINE
8
BLACK
6
CONTINUOUS
10
0.517603
20
0.933139
11
0.517427
21
0.935151
0
LINE
8
BLACK
6
CONTINUOUS
10
0.517427
20
0.935151
11
0.518585
21
0.936806
0
LINE
8
BLACK
6
CONTINUOUS
10
0.518585
20
0.936806
11
0.520536
21
0.937328
0
LINE
8
BLACK
6
CONTINUOUS
10
0.520536
20
0.937328
11
0.522367
21
0.936475
0
LINE
8
BLACK
6
CONTINUOUS
10
0.495042
20
0.974657
11
0.495177
21
0.974543
0
LINE
8
BLACK
6
CONTINUOUS
10
0.495177
20
0.974543
11
0.495353
21
0.974523
0
LINE
8
BLACK
6
CONTINUOUS
10
0.495353
20
0.974523
11
0.499102
21
0.972648
0
LINE
8
BLACK
6
CONTINUOUS
10
0.499102
20
0.972648
11
0.499811
21
0.972123
0
LINE
8
BLACK
6
CONTINUOUS
10
0.499811
20
0.972123
11
0.499869
21
0.972095
0
LINE
8
BLACK
6
CONTINUOUS
10
0.499869
20
0.972095
11
0.501531
21
0.970434
0
LINE
8
BLACK
6
CONTINUOUS
10
0.501531
20
0.970434
11
0.503193
21
0.972095
0
LINE
8
BLACK
6
CONTINUOUS
10
0.503193
20
0.972095
11
0.503916
21
0.972602
0
LINE
8
BLACK
6
CONTINUOUS
10
0.503916
20
0.972602
11
0.50396
21
0.972648
0
LINE
8
BLACK
6
CONTINUOUS
10
0.50396
20
0.972648
11
0.50771
21
0.974523
0
LINE
8
BLACK
6
CONTINUOUS
10
0.50771
20
0.974523
11
0.508693
21
0.974816
0
LINE
8
BLACK
6
CONTINUOUS
10
0.508693
20
0.974816
11
0.508864
21
0.974775
0
LINE
8
BLACK
6
CONTINUOUS
10
0.508864
20
0.974775
11
0.50903
21
0.974835
0
LINE
8
BLACK
6
CONTINUOUS
10
0.50903
20
0.974835
11
0.516529
21
0.974835
0
LINE
8
BLACK
6
CONTINUOUS
10
0.516529
20
0.974835
11
0.517539
21
0.974657
0
LINE
8
BLACK
6
CONTINUOUS
10
0.517539
20
0.974657
11
0.517674
21
0.974543
0
LINE
8
BLACK
6
CONTINUOUS
10
0.517674
20
0.974543
11
0.51785
21
0.974523
0
LINE
8
BLACK
6
CONTINUOUS
10
0.51785
20
0.974523
11
0.521599
21
0.972648
0
LINE
8
BLACK
6
CONTINUOUS
10
0.521599
20
0.972648
11
0.522308
21
0.972123
0
LINE
8
BLACK
6
CONTINUOUS
10
0.522308
20
0.972123
11
0.522367
21
0.972095
0
LINE
8
BLACK
6
CONTINUOUS
10
0.522367
20
0.972095
11
0.524241
21
0.970221
0
LINE
8
BLACK
6
CONTINUOUS
10
0.524241
20
0.970221
11
0.524748
21
0.969497
0
LINE
8
BLACK
6
CONTINUOUS
10
0.524748
20
0.969497
11
0.524795
21
0.969453
0
LINE
8
BLACK
6
CONTINUOUS
10
0.524795
20
0.969453
11
0.526669
21
0.965704
0
LINE
8
BLACK
6
CONTINUOUS
10
0.526669
20
0.965704
11
0.526962
21
0.964721
0
LINE
8
BLACK
6
CONTINUOUS
10
0.526962
20
0.964721
11
0.526921
21
0.964549
0
LINE
8
BLACK
6
CONTINUOUS
10
0.526921
20
0.964549
11
0.526981
21
0.964383
0
LINE
8
BLACK
6
CONTINUOUS
10
0.526981
20
0.964383
11
0.526981
21
0.956884
0
LINE
8
BLACK
6
CONTINUOUS
10
0.526981
20
0.956884
11
0.526803
21
0.955874
0
LINE
8
BLACK
6
CONTINUOUS
10
0.526803
20
0.955874
11
0.526689
21
0.955739
0
LINE
8
BLACK
6
CONTINUOUS
10
0.526689
20
0.955739
11
0.526669
21
0.955564
0
LINE
8
BLACK
6
CONTINUOUS
10
0.526669
20
0.955564
11
0.524795
21
0.951814
0
LINE
8
BLACK
6
CONTINUOUS
10
0.524795
20
0.951814
11
0.524269
21
0.951105
0
LINE
8
BLACK
6
CONTINUOUS
10
0.524269
20
0.951105
11
0.524241
21
0.951047
0
LINE
8
BLACK
6
CONTINUOUS
10
0.524241
20
0.951047
11
0.522367
21
0.949172
0
LINE
8
BLACK
6
CONTINUOUS
10
0.522367
20
0.949172
11
0.521644
21
0.948666
0
LINE
8
BLACK
6
CONTINUOUS
10
0.521644
20
0.948666
11
0.521599
21
0.948619
0
LINE
8
BLACK
6
CONTINUOUS
10
0.521599
20
0.948619
11
0.51785
21
0.946744
0
LINE
8
BLACK
6
CONTINUOUS
10
0.51785
20
0.946744
11
0.516867
21
0.946452
0
LINE
8
BLACK
6
CONTINUOUS
10
0.516867
20
0.946452
11
0.516695
21
0.946493
0
LINE
8
BLACK
6
CONTINUOUS
10
0.516695
20
0.946493
11
0.516529
21
0.946432
0
LINE
8
BLACK
6
CONTINUOUS
10
0.516529
20
0.946432
11
0.50903
21
0.946432
0
LINE
8
BLACK
6
CONTINUOUS
10
0.50903
20
0.946432
11
0.50802
21
0.94661
0
LINE
8
BLACK
6
CONTINUOUS
10
0.50802
20
0.94661
11
0.507885
21
0.946724
0
LINE
8
BLACK
6
CONTINUOUS
10
0.507885
20
0.946724
11
0.50771
21
0.946744
0
LINE
8
BLACK
6
CONTINUOUS
10
0.50771
20
0.946744
11
0.50396
21
0.948619
0
LINE
8
BLACK
6
CONTINUOUS
10
0.50396
20
0.948619
11
0.503251
21
0.949145
0
LINE
8
BLACK
6
CONTINUOUS
10
0.503251
20
0.949145
11
0.503193
21
0.949172
0
LINE
8
BLACK
6
CONTINUOUS
10
0.503193
20
0.949172
11
0.501531
21
0.950834
0
LINE
8
BLACK
6
CONTINUOUS
10
0.501531
20
0.950834
11
0.499869
21
0.949172
0
LINE
8
BLACK
6
CONTINUOUS
10
0.499869
20
0.949172
11
0.499146
21
0.948666
0
LINE
8
BLACK
6
CONTINUOUS
10
0.499146
20
0.948666
11
0.499102
21
0.948619
0
LINE
8
BLACK
6
CONTINUOUS
10
0.499102
20
0.948619
11
0.495353
21
0.946744
0
LINE
8
BLACK
6
CONTINUOUS
10
0.495353
20
0.946744
11
0.49437
21
0.946452
0
LINE
8
BLACK
6
CONTINUOUS
10
0.49437
20
0.946452
11
0.494198
21
0.946493
0
LINE
8
BLACK
6
CONTINUOUS
10
0.494198
20
0.946493
11
0.494032
21
0.946432
0
LINE
8
BLACK
6
CONTINUOUS
10
0.494032
20
0.946432
11
0.492157
21
0.946432
0
LINE
8
BLACK
6
CONTINUOUS
10
0.492157
20
0.946432
11
0.491147
21
0.94661
0
LINE
8
BLACK
6
CONTINUOUS
10
0.491147
20
0.94661
11
0.491012
21
0.946724
0
LINE
8
BLACK
6
CONTINUOUS
10
0.491012
20
0.946724
11
0.490837
21
0.946744
0
LINE
8
BLACK
6
CONTINUOUS
10
0.490837
20
0.946744
11
0.487087
21
0.948619
0
LINE
8
BLACK
6
CONTINUOUS
10
0.487087
20
0.948619
11
0.486378
21
0.949145
0
LINE
8
BLACK
6
CONTINUOUS
10
0.486378
20
0.949145
11
0.48632
21
0.949172
0
LINE
8
BLACK
6
CONTINUOUS
10
0.48632
20
0.949172
11
0.484445
21
0.951047
0
LINE
8
BLACK
6
CONTINUOUS
10
0.484445
20
0.951047
11
0.483939
21
0.95177
0
LINE
8
BLACK
6
CONTINUOUS
10
0.483939
20
0.95177
11
0.483892
21
0.951814
0
LINE
8
BLACK
6
CONTINUOUS
10
0.483892
20
0.951814
11
0.482017
21
0.955564
0
LINE
8
BLACK
6
CONTINUOUS
10
0.482017
20
0.955564
11
0.481725
21
0.956547
0
LINE
8
BLACK
6
CONTINUOUS
10
0.481725
20
0.956547
11
0.481766
21
0.956718
0
LINE
8
BLACK
6
CONTINUOUS
10
0.481766
20
0.956718
11
0.481705
21
0.956884
0
LINE
8
BLACK
6
CONTINUOUS
10
0.481705
20
0.956884
11
0.481705
21
0.964383
0
LINE
8
BLACK
6
CONTINUOUS
10
0.481705
20
0.964383
11
0.481884
21
0.965393
0
LINE
8
BLACK
6
CONTINUOUS
10
0.481884
20
0.965393
11
0.481997
21
0.965528
0
LINE
8
BLACK
6
CONTINUOUS
10
0.481997
20
0.965528
11
0.482017
21
0.965704
0
LINE
8
BLACK
6
CONTINUOUS
10
0.482017
20
0.965704
11
0.483892
21
0.969453
0
LINE
8
BLACK
6
CONTINUOUS
10
0.483892
20
0.969453
11
0.484418
21
0.970162
0
LINE
8
BLACK
6
CONTINUOUS
10
0.484418
20
0.970162
11
0.484445
21
0.970221
0
LINE
8
BLACK
6
CONTINUOUS
10
0.484445
20
0.970221
11
0.48632
21
0.972095
0
LINE
8
BLACK
6
CONTINUOUS
10
0.48632
20
0.972095
11
0.487043
21
0.972602
0
LINE
8
BLACK
6
CONTINUOUS
10
0.487043
20
0.972602
11
0.487087
21
0.972648
0
LINE
8
BLACK
6
CONTINUOUS
10
0.487087
20
0.972648
11
0.490837
21
0.974523
0
LINE
8
BLACK
6
CONTINUOUS
10
0.490837
20
0.974523
11
0.49182
21
0.974816
0
LINE
8
BLACK
6
CONTINUOUS
10
0.49182
20
0.974816
11
0.491991
21
0.974775
0
LINE
8
BLACK
6
CONTINUOUS
10
0.491991
20
0.974775
11
0.492157
21
0.974835
0
LINE
8
BLACK
6
CONTINUOUS
10
0.492157
20
0.974835
11
0.494032
21
0.974835
0
LINE
8
BLACK
6
CONTINUOUS
10
0.494032
20
0.974835
11
0.495042
21
0.974657
0
LINE
8
BLACK
6
CONTINUOUS
10
0.490157
20
0.967581
11
0.48896
21
0.966384
0
LINE
8
BLACK
6
CONTINUOUS
10
0.48896
20
0.966384
11
0.487611
21
0.963686
0
LINE
8
BLACK
6
CONTINUOUS
10
0.487611
20
0.963686
11
0.487611
21
0.957581
0
LINE
8
BLACK
6
CONTINUOUS
10
0.487611
20
0.957581
11
0.48896
21
0.954884
0
LINE
8
BLACK
6
CONTINUOUS
10
0.48896
20
0.954884
11
0.490157
21
0.953687
0
LINE
8
BLACK
6
CONTINUOUS
10
0.490157
20
0.953687
11
0.492854
21
0.952338
0
LINE
8
BLACK
6
CONTINUOUS
10
0.492854
20
0.952338
11
0.493335
21
0.952338
0
LINE
8
BLACK
6
CONTINUOUS
10
0.493335
20
0.952338
11
0.496032
21
0.953687
0
LINE
8
BLACK
6
CONTINUOUS
10
0.496032
20
0.953687
11
0.49723
21
0.954884
0
LINE
8
BLACK
6
CONTINUOUS
10
0.49723
20
0.954884
11
0.498578
21
0.957581
0
LINE
8
BLACK
6
CONTINUOUS
10
0.498578
20
0.957581
11
0.498578
21
0.963686
0
LINE
8
BLACK
6
CONTINUOUS
10
0.498578
20
0.963686
11
0.49723
21
0.966384
0
LINE
8
BLACK
6
CONTINUOUS
10
0.49723
20
0.966384
11
0.496032
21
0.967581
0
LINE
8
BLACK
6
CONTINUOUS
10
0.496032
20
0.967581
11
0.493335
21
0.968929
0
LINE
8
BLACK
6
CONTINUOUS
10
0.493335
20
0.968929
11
0.492854
21
0.968929
0
LINE
8
BLACK
6
CONTINUOUS
10
0.492854
20
0.968929
11
0.490157
21
0.967581
0
LINE
8
BLACK
6
CONTINUOUS
10
0.50703
20
0.967581
11
0.505833
21
0.966384
0
LINE
8
BLACK
6
CONTINUOUS
10
0.505833
20
0.966384
11
0.504484
21
0.963686
0
LINE
8
BLACK
6
CONTINUOUS
10
0.504484
20
0.963686
11
0.504484
21
0.957581
0
LINE
8
BLACK
6
CONTINUOUS
10
0.504484
20
0.957581
11
0.505833
21
0.954884
0
LINE
8
BLACK
6
CONTINUOUS
10
0.505833
20
0.954884
11
0.50703
21
0.953687
0
LINE
8
BLACK
6
CONTINUOUS
10
0.50703
20
0.953687
11
0.509727
21
0.952338
0
LINE
8
BLACK
6
CONTINUOUS
10
0.509727
20
0.952338
11
0.515832
21
0.952338
0
LINE
8
BLACK
6
CONTINUOUS
10
0.515832
20
0.952338
11
0.51853
21
0.953687
0
LINE
8
BLACK
6
CONTINUOUS
10
0.51853
20
0.953687
11
0.519727
21
0.954884
0
LINE
8
BLACK
6
CONTINUOUS
10
0.519727
20
0.954884
11
0.521076
21
0.957581
0
LINE
8
BLACK
6
CONTINUOUS
10
0.521076
20
0.957581
11
0.521076
21
0.963686
0
LINE
8
BLACK
6
CONTINUOUS
10
0.521076
20
0.963686
11
0.519727
21
0.966384
0
LINE
8
BLACK
6
CONTINUOUS
10
0.519727
20
0.966384
11
0.51853
21
0.967581
0
LINE
8
BLACK
6
CONTINUOUS
10
0.51853
20
0.967581
11
0.515832
21
0.968929
0
LINE
8
BLACK
6
CONTINUOUS
10
0.515832
20
0.968929
11
0.509727
21
0.968929
0
LINE
8
BLACK
6
CONTINUOUS
10
0.509727
20
0.968929
11
0.50703
21
0.967581
0
LINE
8
BLACK
6
CONTINUOUS
10
0.511195
20
1.01225
11
0.511418
21
1.01229
0
LINE
8
BLACK
6
CONTINUOUS
10
0.511418
20
1.01229
11
0.512115
21
1.01188
0
LINE
8
BLACK
6
CONTINUOUS
10
0.512115
20
1.01188
11
0.512864
21
1.01159
0
LINE
8
BLACK
6
CONTINUOUS
10
0.512864
20
1.01159
11
0.512971
21
1.01139
0
LINE
8
BLACK
6
CONTINUOUS
10
0.512971
20
1.01139
11
0.513167
21
1.01128
0
LINE
8
BLACK
6
CONTINUOUS
10
0.513167
20
1.01128
11
0.513442
21
1.01052
0
LINE
8
BLACK
6
CONTINUOUS
10
0.513442
20
1.01052
11
0.513826
21
1.00981
0
LINE
8
BLACK
6
CONTINUOUS
10
0.513826
20
1.00981
11
0.51378
21
1.00959
0
LINE
8
BLACK
6
CONTINUOUS
10
0.51378
20
1.00959
11
0.513858
21
1.00938
0
LINE
8
BLACK
6
CONTINUOUS
10
0.513858
20
1.00938
11
0.513858
21
0.993583
0
LINE
8
BLACK
6
CONTINUOUS
10
0.513858
20
0.993583
11
0.524028
21
0.993583
0
LINE
8
BLACK
6
CONTINUOUS
10
0.524028
20
0.993583
11
0.525038
21
0.993405
0
LINE
8
BLACK
6
CONTINUOUS
10
0.525038
20
0.993405
11
0.526585
21
0.992106
0
LINE
8
BLACK
6
CONTINUOUS
10
0.526585
20
0.992106
11
0.526936
21
0.990117
0
LINE
8
BLACK
6
CONTINUOUS
10
0.526936
20
0.990117
11
0.525926
21
0.988368
0
LINE
8
BLACK
6
CONTINUOUS
10
0.525926
20
0.988368
11
0.524028
21
0.987677
0
LINE
8
BLACK
6
CONTINUOUS
10
0.524028
20
0.987677
11
0.513858
21
0.987677
0
LINE
8
BLACK
6
CONTINUOUS
10
0.513858
20
0.987677
11
0.513858
21
0.985006
0
LINE
8
BLACK
6
CONTINUOUS
10
0.513858
20
0.985006
11
0.51368
21
0.983996
0
LINE
8
BLACK
6
CONTINUOUS
10
0.51368
20
0.983996
11
0.512381
21
0.982448
0
LINE
8
BLACK
6
CONTINUOUS
10
0.512381
20
0.982448
11
0.510392
21
0.982098
0
LINE
8
BLACK
6
CONTINUOUS
10
0.510392
20
0.982098
11
0.508643
21
0.983108
0
LINE
8
BLACK
6
CONTINUOUS
10
0.508643
20
0.983108
11
0.507952
21
0.985006
0
LINE
8
BLACK
6
CONTINUOUS
10
0.507952
20
0.985006
11
0.507952
21
0.987677
0
LINE
8
BLACK
6
CONTINUOUS
10
0.507952
20
0.987677
11
0.497782
21
0.987677
0
LINE
8
BLACK
6
CONTINUOUS
10
0.497782
20
0.987677
11
0.496772
21
0.987855
0
LINE
8
BLACK
6
CONTINUOUS
10
0.496772
20
0.987855
11
0.495224
21
0.989154
0
LINE
8
BLACK
6
CONTINUOUS
10
0.495224
20
0.989154
11
0.494874
21
0.991143
0
LINE
8
BLACK
6
CONTINUOUS
10
0.494874
20
0.991143
11
0.495884
21
0.992892
0
LINE
8
BLACK
6
CONTINUOUS
10
0.495884
20
0.992892
11
0.497782
21
0.993583
0
LINE
8
BLACK
6
CONTINUOUS
10
0.497782
20
0.993583
11
0.507952
21
0.993583
0
LINE
8
BLACK
6
CONTINUOUS
10
0.507952
20
0.993583
11
0.507952
21
1.00528
0
LINE
8
BLACK
6
CONTINUOUS
10
0.507952
20
1.00528
11
0.483717
21
0.997202
0
LINE
8
BLACK
6
CONTINUOUS
10
0.483717
20
0.997202
11
0.482703
21
0.997052
0
LINE
8
BLACK
6
CONTINUOUS
10
0.482703
20
0.997052
11
0.480824
21
0.997794
0
LINE
8
BLACK
6
CONTINUOUS
10
0.480824
20
0.997794
11
0.479863
21
0.999571
0
LINE
8
BLACK
6
CONTINUOUS
10
0.479863
20
0.999571
11
0.480268
21
1.00155
0
LINE
8
BLACK
6
CONTINUOUS
10
0.480268
20
1.00155
11
0.48185
21
1.0028
0
LINE
8
BLACK
6
CONTINUOUS
10
0.48185
20
1.0028
11
0.509971
21
1.01218
0
LINE
8
BLACK
6
CONTINUOUS
10
0.509971
20
1.01218
11
0.510986
21
1.01233
0
LINE
8
BLACK
6
CONTINUOUS
10
0.510986
20
1.01233
11
0.511195
21
1.01225
0
LINE
8
BLACK
6
CONTINUOUS
10
0.524658
20
1.05159
11
0.524793
21
1.0516
0
LINE
8
BLACK
6
CONTINUOUS
10
0.524793
20
1.0516
11
0.525521
21
1.05109
0
LINE
8
BLACK
6
CONTINUOUS
10
0.525521
20
1.05109
11
0.52629
21
1.05065
0
LINE
8
BLACK
6
CONTINUOUS
10
0.52629
20
1.05065
11
0.526336
21
1.05052
0
LINE
8
BLACK
6
CONTINUOUS
10
0.526336
20
1.05052
11
0.526447
21
1.05044
0
LINE
8
BLACK
6
CONTINUOUS
10
0.526447
20
1.05044
11
0.526677
21
1.04958
0
LINE
8
BLACK
6
CONTINUOUS
10
0.526677
20
1.04958
11
0.526981
21
1.04875
0
LINE
8
BLACK
6
CONTINUOUS
10
0.526981
20
1.04875
11
0.526981
21
1.02438
0
LINE
8
BLACK
6
CONTINUOUS
10
0.526981
20
1.02438
11
0.526803
21
1.02337
0
LINE
8
BLACK
6
CONTINUOUS
10
0.526803
20
1.02337
11
0.525505
21
1.02182
0
LINE
8
BLACK
6
CONTINUOUS
10
0.525505
20
1.02182
11
0.523516
21
1.02147
0
LINE
8
BLACK
6
CONTINUOUS
10
0.523516
20
1.02147
11
0.521766
21
1.02248
0
LINE
8
BLACK
6
CONTINUOUS
10
0.521766
20
1.02248
11
0.521076
21
1.02438
0
LINE
8
BLACK
6
CONTINUOUS
10
0.521076
20
1.02438
11
0.521076
21
1.04162
0
LINE
8
BLACK
6
CONTINUOUS
10
0.521076
20
1.04162
11
0.503619
21
1.02416
0
LINE
8
BLACK
6
CONTINUOUS
10
0.503619
20
1.02416
11
0.502779
21
1.02357
0
LINE
8
BLACK
6
CONTINUOUS
10
0.502779
20
1.02357
11
0.502603
21
1.02356
0
LINE
8
BLACK
6
CONTINUOUS
10
0.502603
20
1.02356
11
0.502465
21
1.02345
0
LINE
8
BLACK
6
CONTINUOUS
10
0.502465
20
1.02345
11
0.496841
21
1.02157
0
LINE
8
BLACK
6
CONTINUOUS
10
0.496841
20
1.02157
11
0.495967
21
1.02144
0
LINE
8
BLACK
6
CONTINUOUS
10
0.495967
20
1.02144
11
0.495907
21
1.02142
0
LINE
8
BLACK
6
CONTINUOUS
10
0.495907
20
1.02142
11
0.492157
21
1.02142
0
LINE
8
BLACK
6
CONTINUOUS
10
0.492157
20
1.02142
11
0.491147
21
1.0216
0
LINE
8
BLACK
6
CONTINUOUS
10
0.491147
20
1.0216
11
0.491012
21
1.02171
0
LINE
8
BLACK
6
CONTINUOUS
10
0.491012
20
1.02171
11
0.490837
21
1.02173
0
LINE
8
BLACK
6
CONTINUOUS
10
0.490837
20
1.02173
11
0.487087
21
1.02361
0
LINE
8
BLACK
6
CONTINUOUS
10
0.487087
20
1.02361
11
0.486378
21
1.02414
0
LINE
8
BLACK
6
CONTINUOUS
10
0.486378
20
1.02414
11
0.48632
21
1.02416
0
LINE
8
BLACK
6
CONTINUOUS
10
0.48632
20
1.02416
11
0.484445
21
1.02604
0
LINE
8
BLACK
6
CONTINUOUS
10
0.484445
20
1.02604
11
0.483939
21
1.02676
0
LINE
8
BLACK
6
CONTINUOUS
10
0.483939
20
1.02676
11
0.483892
21
1.0268
0
LINE
8
BLACK
6
CONTINUOUS
10
0.483892
20
1.0268
11
0.482017
21
1.03055
0
LINE
8
BLACK
6
CONTINUOUS
10
0.482017
20
1.03055
11
0.481725
21
1.03154
0
LINE
8
BLACK
6
CONTINUOUS
10
0.481725
20
1.03154
11
0.481766
21
1.03171
0
LINE
8
BLACK
6
CONTINUOUS
10
0.481766
20
1.03171
11
0.481705
21
1.03187
0
LINE
8
BLACK
6
CONTINUOUS
10
0.481705
20
1.03187
11
0.481705
21
1.04125
0
LINE
8
BLACK
6
CONTINUOUS
10
0.481705
20
1.04125
11
0.481884
21
1.04226
0
LINE
8
BLACK
6
CONTINUOUS
10
0.481884
20
1.04226
11
0.481997
21
1.04239
0
LINE
8
BLACK
6
CONTINUOUS
10
0.481997
20
1.04239
11
0.482017
21
1.04257
0
LINE
8
BLACK
6
CONTINUOUS
10
0.482017
20
1.04257
11
0.483892
21
1.04632
0
LINE
8
BLACK
6
CONTINUOUS
10
0.483892
20
1.04632
11
0.484418
21
1.04703
0
LINE
8
BLACK
6
CONTINUOUS
10
0.484418
20
1.04703
11
0.484445
21
1.04709
0
LINE
8
BLACK
6
CONTINUOUS
10
0.484445
20
1.04709
11
0.48632
21
1.04896
0
LINE
8
BLACK
6
CONTINUOUS
10
0.48632
20
1.04896
11
0.48716
21
1.04955
0
LINE
8
BLACK
6
CONTINUOUS
10
0.48716
20
1.04955
11
0.489172
21
1.04972
0
LINE
8
BLACK
6
CONTINUOUS
10
0.489172
20
1.04972
11
0.490827
21
1.04857
0
LINE
8
BLACK
6
CONTINUOUS
10
0.490827
20
1.04857
11
0.491349
21
1.04662
0
LINE
8
BLACK
6
CONTINUOUS
10
0.491349
20
1.04662
11
0.490496
21
1.04478
0
LINE
8
BLACK
6
CONTINUOUS
10
0.490496
20
1.04478
11
0.48896
21
1.04325
0
LINE
8
BLACK
6
CONTINUOUS
10
0.48896
20
1.04325
11
0.487611
21
1.04055
0
LINE
8
BLACK
6
CONTINUOUS
10
0.487611
20
1.04055
11
0.487611
21
1.03257
0
LINE
8
BLACK
6
CONTINUOUS
10
0.487611
20
1.03257
11
0.48896
21
1.02987
0
LINE
8
BLACK
6
CONTINUOUS
10
0.48896
20
1.02987
11
0.490157
21
1.02868
0
LINE
8
BLACK
6
CONTINUOUS
10
0.490157
20
1.02868
11
0.492854
21
1.02733
0
LINE
8
BLACK
6
CONTINUOUS
10
0.492854
20
1.02733
11
0.495428
21
1.02733
0
LINE
8
BLACK
6
CONTINUOUS
10
0.495428
20
1.02733
11
0.499936
21
1.02883
0
LINE
8
BLACK
6
CONTINUOUS
10
0.499936
20
1.02883
11
0.52194
21
1.05084
0
LINE
8
BLACK
6
CONTINUOUS
10
0.52194
20
1.05084
11
0.522468
21
1.05121
0
LINE
8
BLACK
6
CONTINUOUS
10
0.522468
20
1.05121
11
0.522552
21
1.0513
0
LINE
8
BLACK
6
CONTINUOUS
10
0.522552
20
1.0513
11
0.52263
21
1.05132
0
LINE
8
BLACK
6
CONTINUOUS
10
0.52263
20
1.05132
11
0.52278
21
1.05142
0
LINE
8
BLACK
6
CONTINUOUS
10
0.52278
20
1.05142
11
0.523666
21
1.0515
0
LINE
8
BLACK
6
CONTINUOUS
10
0.523666
20
1.0515
11
0.524541
21
1.05166
0
LINE
8
BLACK
6
CONTINUOUS
10
0.524541
20
1.05166
11
0.524658
21
1.05159
0
LINE
8
BLACK
6
CONTINUOUS
10
0.507736
20
1.08909
11
0.507872
21
1.08911
0
LINE
8
BLACK
6
CONTINUOUS
10
0.507872
20
1.08911
11
0.515371
21
1.08723
0
LINE
8
BLACK
6
CONTINUOUS
10
0.515371
20
1.08723
11
0.515836
21
1.08703
0
LINE
8
BLACK
6
CONTINUOUS
10
0.515836
20
1.08703
11
0.515975
21
1.08701
0
LINE
8
BLACK
6
CONTINUOUS
10
0.515975
20
1.08701
11
0.519724
21
1.08513
0
LINE
8
BLACK
6
CONTINUOUS
10
0.519724
20
1.08513
11
0.520434
21
1.08461
0
LINE
8
BLACK
6
CONTINUOUS
10
0.520434
20
1.08461
11
0.520492
21
1.08458
0
LINE
8
BLACK
6
CONTINUOUS
10
0.520492
20
1.08458
11
0.524241
21
1.08083
0
LINE
8
BLACK
6
CONTINUOUS
10
0.524241
20
1.08083
11
0.52483
21
1.07999
0
LINE
8
BLACK
6
CONTINUOUS
10
0.52483
20
1.07999
11
0.524845
21
1.07982
0
LINE
8
BLACK
6
CONTINUOUS
10
0.524845
20
1.07982
11
0.524955
21
1.07968
0
LINE
8
BLACK
6
CONTINUOUS
10
0.524955
20
1.07968
11
0.52683
21
1.07405
0
LINE
8
BLACK
6
CONTINUOUS
10
0.52683
20
1.07405
11
0.526959
21
1.07318
0
LINE
8
BLACK
6
CONTINUOUS
10
0.526959
20
1.07318
11
0.526981
21
1.07312
0
LINE
8
BLACK
6
CONTINUOUS
10
0.526981
20
1.07312
11
0.526981
21
1.06937
0
LINE
8
BLACK
6
CONTINUOUS
10
0.526981
20
1.06937
11
0.526828
21
1.0685
0
LINE
8
BLACK
6
CONTINUOUS
10
0.526828
20
1.0685
11
0.52683
21
1.06844
0
LINE
8
BLACK
6
CONTINUOUS
10
0.52683
20
1.06844
11
0.524955
21
1.06281
0
LINE
8
BLACK
6
CONTINUOUS
10
0.524955
20
1.06281
11
0.524466
21
1.06191
0
LINE
8
BLACK
6
CONTINUOUS
10
0.524466
20
1.06191
11
0.524316
21
1.06182
0
LINE
8
BLACK
6
CONTINUOUS
10
0.524316
20
1.06182
11
0.524241
21
1.06166
0
LINE
8
BLACK
6
CONTINUOUS
10
0.524241
20
1.06166
11
0.522367
21
1.05978
0
LINE
8
BLACK
6
CONTINUOUS
10
0.522367
20
1.05978
11
0.521527
21
1.05919
0
LINE
8
BLACK
6
CONTINUOUS
10
0.521527
20
1.05919
11
0.519514
21
1.05902
0
LINE
8
BLACK
6
CONTINUOUS
10
0.519514
20
1.05902
11
0.51786
21
1.06018
0
LINE
8
BLACK
6
CONTINUOUS
10
0.51786
20
1.06018
11
0.517337
21
1.06213
0
LINE
8
BLACK
6
CONTINUOUS
10
0.517337
20
1.06213
11
0.518191
21
1.06396
0
LINE
8
BLACK
6
CONTINUOUS
10
0.518191
20
1.06396
11
0.519573
21
1.06534
0
LINE
8
BLACK
6
CONTINUOUS
10
0.519573
20
1.06534
11
0.521076
21
1.06985
0
LINE
8
BLACK
6
CONTINUOUS
10
0.521076
20
1.06985
11
0.521076
21
1.07264
0
LINE
8
BLACK
6
CONTINUOUS
10
0.521076
20
1.07264
11
0.519573
21
1.07715
0
LINE
8
BLACK
6
CONTINUOUS
10
0.519573
20
1.07715
11
0.516655
21
1.08007
0
LINE
8
BLACK
6
CONTINUOUS
10
0.516655
20
1.08007
11
0.513624
21
1.08158
0
LINE
8
BLACK
6
CONTINUOUS
10
0.513624
20
1.08158
11
0.506792
21
1.08329
0
LINE
8
BLACK
6
CONTINUOUS
10
0.506792
20
1.08329
11
0.501895
21
1.08329
0
LINE
8
BLACK
6
CONTINUOUS
10
0.501895
20
1.08329
11
0.495063
21
1.08158
0
LINE
8
BLACK
6
CONTINUOUS
10
0.495063
20
1.08158
11
0.492032
21
1.08007
0
LINE
8
BLACK
6
CONTINUOUS
10
0.492032
20
1.08007
11
0.489114
21
1.07715
0
LINE
8
BLACK
6
CONTINUOUS
10
0.489114
20
1.07715
11
0.487611
21
1.07264
0
LINE
8
BLACK
6
CONTINUOUS
10
0.487611
20
1.07264
11
0.487611
21
1.06985
0
LINE
8
BLACK
6
CONTINUOUS
10
0.487611
20
1.06985
11
0.489114
21
1.06534
0
LINE
8
BLACK
6
CONTINUOUS
10
0.489114
20
1.06534
11
0.490496
21
1.06396
0
LINE
8
BLACK
6
CONTINUOUS
10
0.490496
20
1.06396
11
0.491084
21
1.06312
0
LINE
8
BLACK
6
CONTINUOUS
10
0.491084
20
1.06312
11
0.49126
21
1.06111
0
LINE
8
BLACK
6
CONTINUOUS
10
0.49126
20
1.06111
11
0.490101
21
1.05945
0
LINE
8
BLACK
6
CONTINUOUS
10
0.490101
20
1.05945
11
0.48815
21
1.05893
0
LINE
8
BLACK
6
CONTINUOUS
10
0.48815
20
1.05893
11
0.48632
21
1.05978
0
LINE
8
BLACK
6
CONTINUOUS
10
0.48632
20
1.05978
11
0.484445
21
1.06166
0
LINE
8
BLACK
6
CONTINUOUS
10
0.484445
20
1.06166
11
0.483857
21
1.0625
0
LINE
8
BLACK
6
CONTINUOUS
10
0.483857
20
1.0625
11
0.483841
21
1.06267
0
LINE
8
BLACK
6
CONTINUOUS
10
0.483841
20
1.06267
11
0.483732
21
1.06281
0
LINE
8
BLACK
6
CONTINUOUS
10
0.483732
20
1.06281
11
0.481857
21
1.06844
0
LINE
8
BLACK
6
CONTINUOUS
10
0.481857
20
1.06844
11
0.481728
21
1.06931
0
LINE
8
BLACK
6
CONTINUOUS
10
0.481728
20
1.06931
11
0.481705
21
1.06937
0
LINE
8
BLACK
6
CONTINUOUS
10
0.481705
20
1.06937
11
0.481705
21
1.07312
0
LINE
8
BLACK
6
CONTINUOUS
10
0.481705
20
1.07312
11
0.481859
21
1.07399
0
LINE
8
BLACK
6
CONTINUOUS
10
0.481859
20
1.07399
11
0.481857
21
1.07405
0
LINE
8
BLACK
6
CONTINUOUS
10
0.481857
20
1.07405
11
0.483732
21
1.07968
0
LINE
8
BLACK
6
CONTINUOUS
10
0.483732
20
1.07968
11
0.48422
21
1.08058
0
LINE
8
BLACK
6
CONTINUOUS
10
0.48422
20
1.08058
11
0.48437
21
1.08067
0
LINE
8
BLACK
6
CONTINUOUS
10
0.48437
20
1.08067
11
0.484445
21
1.08083
0
LINE
8
BLACK
6
CONTINUOUS
10
0.484445
20
1.08083
11
0.488195
21
1.08458
0
LINE
8
BLACK
6
CONTINUOUS
10
0.488195
20
1.08458
11
0.488918
21
1.08509
0
LINE
8
BLACK
6
CONTINUOUS
10
0.488918
20
1.08509
11
0.488962
21
1.08513
0
LINE
8
BLACK
6
CONTINUOUS
10
0.488962
20
1.08513
11
0.492712
21
1.08701
0
LINE
8
BLACK
6
CONTINUOUS
10
0.492712
20
1.08701
11
0.4932
21
1.08715
0
LINE
8
BLACK
6
CONTINUOUS
10
0.4932
20
1.08715
11
0.493316
21
1.08723
0
LINE
8
BLACK
6
CONTINUOUS
10
0.493316
20
1.08723
11
0.500815
21
1.08911
0
LINE
8
BLACK
6
CONTINUOUS
10
0.500815
20
1.08911
11
0.501403
21
1.08915
0
LINE
8
BLACK
6
CONTINUOUS
10
0.501403
20
1.08915
11
0.501531
21
1.0892
0
LINE
8
BLACK
6
CONTINUOUS
10
0.501531
20
1.0892
11
0.507155
21
1.0892
0
LINE
8
BLACK
6
CONTINUOUS
10
0.507155
20
1.0892
11
0.507736
21
1.08909
0
LINE
8
BLACK
6
CONTINUOUS
10
0.48692
20
1.12189
11
0.487611
21
1.11999
0
LINE
8
BLACK
6
CONTINUOUS
10
0.487611
20
1.11999
11
0.487611
21
1.11169
0
LINE
8
BLACK
6
CONTINUOUS
10
0.487611
20
1.11169
11
0.524028
21
1.11169
0
LINE
8
BLACK
6
CONTINUOUS
10
0.524028
20
1.11169
11
0.525038
21
1.11151
0
LINE
8
BLACK
6
CONTINUOUS
10
0.525038
20
1.11151
11
0.526585
21
1.11022
0
LINE
8
BLACK
6
CONTINUOUS
10
0.526585
20
1.11022
11
0.526936
21
1.10823
0
LINE
8
BLACK
6
CONTINUOUS
10
0.526936
20
1.10823
11
0.525926
21
1.10648
0
LINE
8
BLACK
6
CONTINUOUS
10
0.525926
20
1.10648
11
0.524028
21
1.10579
0
LINE
8
BLACK
6
CONTINUOUS
10
0.524028
20
1.10579
11
0.487611
21
1.10579
0
LINE
8
BLACK
6
CONTINUOUS
10
0.487611
20
1.10579
11
0.487611
21
1.09749
0
LINE
8
BLACK
6
CONTINUOUS
10
0.487611
20
1.09749
11
0.487433
21
1.09648
0
LINE
8
BLACK
6
CONTINUOUS
10
0.487433
20
1.09648
11
0.486135
21
1.09493
0
LINE
8
BLACK
6
CONTINUOUS
10
0.486135
20
1.09493
11
0.484145
21
1.09458
0
LINE
8
BLACK
6
CONTINUOUS
10
0.484145
20
1.09458
11
0.482396
21
1.09559
0
LINE
8
BLACK
6
CONTINUOUS
10
0.482396
20
1.09559
11
0.481705
21
1.09749
0
LINE
8
BLACK
6
CONTINUOUS
10
0.481705
20
1.09749
11
0.481705
21
1.11999
0
LINE
8
BLACK
6
CONTINUOUS
10
0.481705
20
1.11999
11
0.481884
21
1.121
0
LINE
8
BLACK
6
CONTINUOUS
10
0.481884
20
1.121
11
0.483182
21
1.12255
0
LINE
8
BLACK
6
CONTINUOUS
10
0.483182
20
1.12255
11
0.485171
21
1.1229
0
LINE
8
BLACK
6
CONTINUOUS
10
0.485171
20
1.1229
11
0.48692
21
1.12189
0
LINE
8
BLACK
6
CONTINUOUS
10
0.524412
20
1.14912
11
0.524541
21
1.14914
0
LINE
8
BLACK
6
CONTINUOUS
10
0.524541
20
1.14914
11
0.524655
21
1.14908
0
LINE
8
BLACK
6
CONTINUOUS
10
0.524655
20
1.14908
11
0.525038
21
1.14901
0
LINE
8
BLACK
6
CONTINUOUS
10
0.525038
20
1.14901
11
0.525626
21
1.14852
0
LINE
8
BLACK
6
CONTINUOUS
10
0.525626
20
1.14852
11
0.52629
21
1.14813
0
LINE
8
BLACK
6
CONTINUOUS
10
0.52629
20
1.14813
11
0.526381
21
1.14788
0
LINE
8
BLACK
6
CONTINUOUS
10
0.526381
20
1.14788
11
0.526585
21
1.14771
0
LINE
8
BLACK
6
CONTINUOUS
10
0.526585
20
1.14771
11
0.526719
21
1.14696
0
LINE
8
BLACK
6
CONTINUOUS
10
0.526719
20
1.14696
11
0.526981
21
1.14624
0
LINE
8
BLACK
6
CONTINUOUS
10
0.526981
20
1.14624
11
0.526981
21
1.12749
0
LINE
8
BLACK
6
CONTINUOUS
10
0.526981
20
1.12749
11
0.526803
21
1.12648
0
LINE
8
BLACK
6
CONTINUOUS
10
0.526803
20
1.12648
11
0.525505
21
1.12493
0
LINE
8
BLACK
6
CONTINUOUS
10
0.525505
20
1.12493
11
0.523516
21
1.12458
0
LINE
8
BLACK
6
CONTINUOUS
10
0.523516
20
1.12458
11
0.521766
21
1.12559
0
LINE
8
BLACK
6
CONTINUOUS
10
0.521766
20
1.12559
11
0.521076
21
1.12749
0
LINE
8
BLACK
6
CONTINUOUS
10
0.521076
20
1.12749
11
0.521076
21
1.14328
0
LINE
8
BLACK
6
CONTINUOUS
10
0.521076
20
1.14328
11
0.484658
21
1.14328
0
LINE
8
BLACK
6
CONTINUOUS
10
0.484658
20
1.14328
11
0.483648
21
1.14346
0
LINE
8
BLACK
6
CONTINUOUS
10
0.483648
20
1.14346
11
0.482101
21
1.14476
0
LINE
8
BLACK
6
CONTINUOUS
10
0.482101
20
1.14476
11
0.48175
21
1.14675
0
LINE
8
BLACK
6
CONTINUOUS
10
0.48175
20
1.14675
11
0.48276
21
1.1485
0
LINE
8
BLACK
6
CONTINUOUS
10
0.48276
20
1.1485
11
0.484658
21
1.14919
0
LINE
8
BLACK
6
CONTINUOUS
10
0.484658
20
1.14919
11
0.524028
21
1.14919
0
LINE
8
BLACK
6
CONTINUOUS
10
0.524028
20
1.14919
11
0.524412
21
1.14912
  0
ENDSEC
  0
EOF
