%TF.GenerationSoftware,KiCad,Pcbnew,6.0.11+dfsg-1~bpo11+1*%
%TF.CreationDate,2023-05-28T01:27:10+00:00*%
%TF.ProjectId,I2CADC01,49324341-4443-4303-912e-6b696361645f,rev?*%
%TF.SameCoordinates,Original*%
%TF.FileFunction,Legend,Top*%
%TF.FilePolarity,Positive*%
%FSLAX46Y46*%
G04 Gerber Fmt 4.6, Leading zero omitted, Abs format (unit mm)*
G04 Created by KiCad (PCBNEW 6.0.11+dfsg-1~bpo11+1) date 2023-05-28 01:27:10*
%MOMM*%
%LPD*%
G01*
G04 APERTURE LIST*
%ADD10C,0.300000*%
%ADD11C,0.050000*%
%ADD12C,0.304800*%
%ADD13C,0.150000*%
%ADD14R,1.524000X1.524000*%
%ADD15R,3.810000X3.810000*%
G04 APERTURE END LIST*
D10*
X22856142Y23848285D02*
X22784714Y23776857D01*
X22570428Y23705428D01*
X22427571Y23705428D01*
X22213285Y23776857D01*
X22070428Y23919714D01*
X21999000Y24062571D01*
X21927571Y24348285D01*
X21927571Y24562571D01*
X21999000Y24848285D01*
X22070428Y24991142D01*
X22213285Y25134000D01*
X22427571Y25205428D01*
X22570428Y25205428D01*
X22784714Y25134000D01*
X22856142Y25062571D01*
X23427571Y24134000D02*
X24141857Y24134000D01*
X23284714Y23705428D02*
X23784714Y25205428D01*
X24284714Y23705428D01*
X25070428Y25205428D02*
X25213285Y25205428D01*
X25356142Y25134000D01*
X25427571Y25062571D01*
X25499000Y24919714D01*
X25570428Y24634000D01*
X25570428Y24276857D01*
X25499000Y23991142D01*
X25427571Y23848285D01*
X25356142Y23776857D01*
X25213285Y23705428D01*
X25070428Y23705428D01*
X24927571Y23776857D01*
X24856142Y23848285D01*
X24784714Y23991142D01*
X24713285Y24276857D01*
X24713285Y24634000D01*
X24784714Y24919714D01*
X24856142Y25062571D01*
X24927571Y25134000D01*
X25070428Y25205428D01*
X19634342Y39815200D02*
X19491485Y39886628D01*
X19277200Y39886628D01*
X19062914Y39815200D01*
X18920057Y39672342D01*
X18848628Y39529485D01*
X18777200Y39243771D01*
X18777200Y39029485D01*
X18848628Y38743771D01*
X18920057Y38600914D01*
X19062914Y38458057D01*
X19277200Y38386628D01*
X19420057Y38386628D01*
X19634342Y38458057D01*
X19705771Y38529485D01*
X19705771Y39029485D01*
X19420057Y39029485D01*
X20348628Y38386628D02*
X20348628Y39886628D01*
X21205771Y38386628D01*
X21205771Y39886628D01*
X21920057Y38386628D02*
X21920057Y39886628D01*
X22277200Y39886628D01*
X22491485Y39815200D01*
X22634342Y39672342D01*
X22705771Y39529485D01*
X22777200Y39243771D01*
X22777200Y39029485D01*
X22705771Y38743771D01*
X22634342Y38600914D01*
X22491485Y38458057D01*
X22277200Y38386628D01*
X21920057Y38386628D01*
X2202571Y25646285D02*
X1488285Y25146285D01*
X2202571Y24789142D02*
X702571Y24789142D01*
X702571Y25360571D01*
X773999Y25503428D01*
X845428Y25574857D01*
X988285Y25646285D01*
X1202571Y25646285D01*
X1345428Y25574857D01*
X1416857Y25503428D01*
X1488285Y25360571D01*
X1488285Y24789142D01*
X1416857Y26289142D02*
X1416857Y26789142D01*
X2202571Y27003428D02*
X2202571Y26289142D01*
X702571Y26289142D01*
X702571Y27003428D01*
X1416857Y28146285D02*
X1416857Y27646285D01*
X2202571Y27646285D02*
X702571Y27646285D01*
X702571Y28360571D01*
X1631142Y28932000D02*
X1631142Y30074857D01*
X2202571Y29503428D02*
X1059714Y29503428D01*
X13307285Y20911428D02*
X12807285Y21625714D01*
X12450142Y20911428D02*
X12450142Y22411428D01*
X13021571Y22411428D01*
X13164428Y22340000D01*
X13235857Y22268571D01*
X13307285Y22125714D01*
X13307285Y21911428D01*
X13235857Y21768571D01*
X13164428Y21697142D01*
X13021571Y21625714D01*
X12450142Y21625714D01*
X13950142Y21697142D02*
X14450142Y21697142D01*
X14664428Y20911428D02*
X13950142Y20911428D01*
X13950142Y22411428D01*
X14664428Y22411428D01*
X15807285Y21697142D02*
X15307285Y21697142D01*
X15307285Y20911428D02*
X15307285Y22411428D01*
X16021571Y22411428D01*
X16593000Y21482857D02*
X17735857Y21482857D01*
X28134571Y26194000D02*
X29634571Y26694000D01*
X28134571Y27194000D01*
X29491714Y28551142D02*
X29563142Y28479714D01*
X29634571Y28265428D01*
X29634571Y28122571D01*
X29563142Y27908285D01*
X29420285Y27765428D01*
X29277428Y27694000D01*
X28991714Y27622571D01*
X28777428Y27622571D01*
X28491714Y27694000D01*
X28348857Y27765428D01*
X28206000Y27908285D01*
X28134571Y28122571D01*
X28134571Y28265428D01*
X28206000Y28479714D01*
X28277428Y28551142D01*
X29491714Y30051142D02*
X29563142Y29979714D01*
X29634571Y29765428D01*
X29634571Y29622571D01*
X29563142Y29408285D01*
X29420285Y29265428D01*
X29277428Y29194000D01*
X28991714Y29122571D01*
X28777428Y29122571D01*
X28491714Y29194000D01*
X28348857Y29265428D01*
X28206000Y29408285D01*
X28134571Y29622571D01*
X28134571Y29765428D01*
X28206000Y29979714D01*
X28277428Y30051142D01*
X5925857Y30539428D02*
X6425857Y29039428D01*
X6925857Y30539428D01*
X7425857Y29039428D02*
X7425857Y30039428D01*
X7425857Y29753714D02*
X7497285Y29896571D01*
X7568714Y29968000D01*
X7711571Y30039428D01*
X7854428Y30039428D01*
X8925857Y29110857D02*
X8783000Y29039428D01*
X8497285Y29039428D01*
X8354428Y29110857D01*
X8283000Y29253714D01*
X8283000Y29825142D01*
X8354428Y29968000D01*
X8497285Y30039428D01*
X8783000Y30039428D01*
X8925857Y29968000D01*
X8997285Y29825142D01*
X8997285Y29682285D01*
X8283000Y29539428D01*
X9425857Y30039428D02*
X9997285Y30039428D01*
X9640142Y29039428D02*
X9640142Y30325142D01*
X9711571Y30468000D01*
X9854428Y30539428D01*
X9997285Y30539428D01*
X9017142Y39866000D02*
X8874285Y39937428D01*
X8660000Y39937428D01*
X8445714Y39866000D01*
X8302857Y39723142D01*
X8231428Y39580285D01*
X8160000Y39294571D01*
X8160000Y39080285D01*
X8231428Y38794571D01*
X8302857Y38651714D01*
X8445714Y38508857D01*
X8660000Y38437428D01*
X8802857Y38437428D01*
X9017142Y38508857D01*
X9088571Y38580285D01*
X9088571Y39080285D01*
X8802857Y39080285D01*
X9731428Y38437428D02*
X9731428Y39937428D01*
X10588571Y38437428D01*
X10588571Y39937428D01*
X11302857Y38437428D02*
X11302857Y39937428D01*
X11660000Y39937428D01*
X11874285Y39866000D01*
X12017142Y39723142D01*
X12088571Y39580285D01*
X12160000Y39294571D01*
X12160000Y39080285D01*
X12088571Y38794571D01*
X12017142Y38651714D01*
X11874285Y38508857D01*
X11660000Y38437428D01*
X11302857Y38437428D01*
X1810000Y22919428D02*
X2310000Y21419428D01*
X2810000Y22919428D01*
X4167142Y21562285D02*
X4095714Y21490857D01*
X3881428Y21419428D01*
X3738571Y21419428D01*
X3524285Y21490857D01*
X3381428Y21633714D01*
X3310000Y21776571D01*
X3238571Y22062285D01*
X3238571Y22276571D01*
X3310000Y22562285D01*
X3381428Y22705142D01*
X3524285Y22848000D01*
X3738571Y22919428D01*
X3881428Y22919428D01*
X4095714Y22848000D01*
X4167142Y22776571D01*
X5667142Y21562285D02*
X5595714Y21490857D01*
X5381428Y21419428D01*
X5238571Y21419428D01*
X5024285Y21490857D01*
X4881428Y21633714D01*
X4810000Y21776571D01*
X4738571Y22062285D01*
X4738571Y22276571D01*
X4810000Y22562285D01*
X4881428Y22705142D01*
X5024285Y22848000D01*
X5238571Y22919428D01*
X5381428Y22919428D01*
X5595714Y22848000D01*
X5667142Y22776571D01*
X25273142Y22594000D02*
X25130285Y22665428D01*
X24916000Y22665428D01*
X24701714Y22594000D01*
X24558857Y22451142D01*
X24487428Y22308285D01*
X24416000Y22022571D01*
X24416000Y21808285D01*
X24487428Y21522571D01*
X24558857Y21379714D01*
X24701714Y21236857D01*
X24916000Y21165428D01*
X25058857Y21165428D01*
X25273142Y21236857D01*
X25344571Y21308285D01*
X25344571Y21808285D01*
X25058857Y21808285D01*
X25987428Y21165428D02*
X25987428Y22665428D01*
X26844571Y21165428D01*
X26844571Y22665428D01*
X27558857Y21165428D02*
X27558857Y22665428D01*
X27916000Y22665428D01*
X28130285Y22594000D01*
X28273142Y22451142D01*
X28344571Y22308285D01*
X28416000Y22022571D01*
X28416000Y21808285D01*
X28344571Y21522571D01*
X28273142Y21379714D01*
X28130285Y21236857D01*
X27916000Y21165428D01*
X27558857Y21165428D01*
X22856142Y31214285D02*
X22784714Y31142857D01*
X22570428Y31071428D01*
X22427571Y31071428D01*
X22213285Y31142857D01*
X22070428Y31285714D01*
X21999000Y31428571D01*
X21927571Y31714285D01*
X21927571Y31928571D01*
X21999000Y32214285D01*
X22070428Y32357142D01*
X22213285Y32500000D01*
X22427571Y32571428D01*
X22570428Y32571428D01*
X22784714Y32500000D01*
X22856142Y32428571D01*
X23427571Y31500000D02*
X24141857Y31500000D01*
X23284714Y31071428D02*
X23784714Y32571428D01*
X24284714Y31071428D01*
X25570428Y31071428D02*
X24713285Y31071428D01*
X25141857Y31071428D02*
X25141857Y32571428D01*
X24999000Y32357142D01*
X24856142Y32214285D01*
X24713285Y32142857D01*
X15958571Y30888857D02*
X16172857Y30817428D01*
X16530000Y30817428D01*
X16672857Y30888857D01*
X16744285Y30960285D01*
X16815714Y31103142D01*
X16815714Y31246000D01*
X16744285Y31388857D01*
X16672857Y31460285D01*
X16530000Y31531714D01*
X16244285Y31603142D01*
X16101428Y31674571D01*
X16030000Y31746000D01*
X15958571Y31888857D01*
X15958571Y32031714D01*
X16030000Y32174571D01*
X16101428Y32246000D01*
X16244285Y32317428D01*
X16601428Y32317428D01*
X16815714Y32246000D01*
X17458571Y30817428D02*
X17458571Y32317428D01*
X17815714Y32317428D01*
X18030000Y32246000D01*
X18172857Y32103142D01*
X18244285Y31960285D01*
X18315714Y31674571D01*
X18315714Y31460285D01*
X18244285Y31174571D01*
X18172857Y31031714D01*
X18030000Y30888857D01*
X17815714Y30817428D01*
X17458571Y30817428D01*
X18887142Y31246000D02*
X19601428Y31246000D01*
X18744285Y30817428D02*
X19244285Y32317428D01*
X19744285Y30817428D01*
X10914285Y30888857D02*
X11128571Y30817428D01*
X11485714Y30817428D01*
X11628571Y30888857D01*
X11700000Y30960285D01*
X11771428Y31103142D01*
X11771428Y31246000D01*
X11700000Y31388857D01*
X11628571Y31460285D01*
X11485714Y31531714D01*
X11200000Y31603142D01*
X11057142Y31674571D01*
X10985714Y31746000D01*
X10914285Y31888857D01*
X10914285Y32031714D01*
X10985714Y32174571D01*
X11057142Y32246000D01*
X11200000Y32317428D01*
X11557142Y32317428D01*
X11771428Y32246000D01*
X13271428Y30960285D02*
X13200000Y30888857D01*
X12985714Y30817428D01*
X12842857Y30817428D01*
X12628571Y30888857D01*
X12485714Y31031714D01*
X12414285Y31174571D01*
X12342857Y31460285D01*
X12342857Y31674571D01*
X12414285Y31960285D01*
X12485714Y32103142D01*
X12628571Y32246000D01*
X12842857Y32317428D01*
X12985714Y32317428D01*
X13200000Y32246000D01*
X13271428Y32174571D01*
X14628571Y30817428D02*
X13914285Y30817428D01*
X13914285Y32317428D01*
X27856571Y8799428D02*
X26356571Y8799428D01*
X26499428Y9442285D02*
X26428000Y9513714D01*
X26356571Y9656571D01*
X26356571Y10013714D01*
X26428000Y10156571D01*
X26499428Y10228000D01*
X26642285Y10299428D01*
X26785142Y10299428D01*
X26999428Y10228000D01*
X27856571Y9370857D01*
X27856571Y10299428D01*
X27713714Y11799428D02*
X27785142Y11728000D01*
X27856571Y11513714D01*
X27856571Y11370857D01*
X27785142Y11156571D01*
X27642285Y11013714D01*
X27499428Y10942285D01*
X27213714Y10870857D01*
X26999428Y10870857D01*
X26713714Y10942285D01*
X26570857Y11013714D01*
X26428000Y11156571D01*
X26356571Y11370857D01*
X26356571Y11513714D01*
X26428000Y11728000D01*
X26499428Y11799428D01*
X27428000Y12370857D02*
X27428000Y13085142D01*
X27856571Y12228000D02*
X26356571Y12728000D01*
X27856571Y13228000D01*
X27856571Y13728000D02*
X26356571Y13728000D01*
X26356571Y14085142D01*
X26428000Y14299428D01*
X26570857Y14442285D01*
X26713714Y14513714D01*
X26999428Y14585142D01*
X27213714Y14585142D01*
X27499428Y14513714D01*
X27642285Y14442285D01*
X27785142Y14299428D01*
X27856571Y14085142D01*
X27856571Y13728000D01*
X27713714Y16085142D02*
X27785142Y16013714D01*
X27856571Y15799428D01*
X27856571Y15656571D01*
X27785142Y15442285D01*
X27642285Y15299428D01*
X27499428Y15228000D01*
X27213714Y15156571D01*
X26999428Y15156571D01*
X26713714Y15228000D01*
X26570857Y15299428D01*
X26428000Y15442285D01*
X26356571Y15656571D01*
X26356571Y15799428D01*
X26428000Y16013714D01*
X26499428Y16085142D01*
X26356571Y17013714D02*
X26356571Y17156571D01*
X26428000Y17299428D01*
X26499428Y17370857D01*
X26642285Y17442285D01*
X26928000Y17513714D01*
X27285142Y17513714D01*
X27570857Y17442285D01*
X27713714Y17370857D01*
X27785142Y17299428D01*
X27856571Y17156571D01*
X27856571Y17013714D01*
X27785142Y16870857D01*
X27713714Y16799428D01*
X27570857Y16728000D01*
X27285142Y16656571D01*
X26928000Y16656571D01*
X26642285Y16728000D01*
X26499428Y16799428D01*
X26428000Y16870857D01*
X26356571Y17013714D01*
X27856571Y18942285D02*
X27856571Y18085142D01*
X27856571Y18513714D02*
X26356571Y18513714D01*
X26570857Y18370857D01*
X26713714Y18228000D01*
X26785142Y18085142D01*
X27428000Y19513714D02*
X27428000Y20228000D01*
X27856571Y19370857D02*
X26356571Y19870857D01*
X27856571Y20370857D01*
X5005285Y19054000D02*
X5719571Y19054000D01*
X4862428Y18625428D02*
X5362428Y20125428D01*
X5862428Y18625428D01*
X6362428Y18625428D02*
X6362428Y20125428D01*
X6719571Y20125428D01*
X6933857Y20054000D01*
X7076714Y19911142D01*
X7148142Y19768285D01*
X7219571Y19482571D01*
X7219571Y19268285D01*
X7148142Y18982571D01*
X7076714Y18839714D01*
X6933857Y18696857D01*
X6719571Y18625428D01*
X6362428Y18625428D01*
X8719571Y18625428D02*
X8219571Y19339714D01*
X7862428Y18625428D02*
X7862428Y20125428D01*
X8433857Y20125428D01*
X8576714Y20054000D01*
X8648142Y19982571D01*
X8719571Y19839714D01*
X8719571Y19625428D01*
X8648142Y19482571D01*
X8576714Y19411142D01*
X8433857Y19339714D01*
X7862428Y19339714D01*
X9362428Y18768285D02*
X9433857Y18696857D01*
X9362428Y18625428D01*
X9291000Y18696857D01*
X9362428Y18768285D01*
X9362428Y18625428D01*
X11505285Y20125428D02*
X11648142Y20125428D01*
X11791000Y20054000D01*
X11862428Y19982571D01*
X11933857Y19839714D01*
X12005285Y19554000D01*
X12005285Y19196857D01*
X11933857Y18911142D01*
X11862428Y18768285D01*
X11791000Y18696857D01*
X11648142Y18625428D01*
X11505285Y18625428D01*
X11362428Y18696857D01*
X11291000Y18768285D01*
X11219571Y18911142D01*
X11148142Y19196857D01*
X11148142Y19554000D01*
X11219571Y19839714D01*
X11291000Y19982571D01*
X11362428Y20054000D01*
X11505285Y20125428D01*
X12505285Y18625428D02*
X13291000Y19625428D01*
X12505285Y19625428D02*
X13291000Y18625428D01*
X13791000Y19982571D02*
X13862428Y20054000D01*
X14005285Y20125428D01*
X14362428Y20125428D01*
X14505285Y20054000D01*
X14576714Y19982571D01*
X14648142Y19839714D01*
X14648142Y19696857D01*
X14576714Y19482571D01*
X13719571Y18625428D01*
X14648142Y18625428D01*
X15933857Y19625428D02*
X15933857Y18625428D01*
X15576714Y20196857D02*
X15219571Y19125428D01*
X16148142Y19125428D01*
X10076571Y8680142D02*
X8576571Y8680142D01*
X10076571Y9394428D02*
X8576571Y9394428D01*
X10076571Y10251571D01*
X8576571Y10251571D01*
X9505142Y10965857D02*
X9505142Y12108714D01*
X2202571Y9489714D02*
X702571Y9489714D01*
X702571Y10061142D01*
X773999Y10204000D01*
X845428Y10275428D01*
X988285Y10346857D01*
X1202571Y10346857D01*
X1345428Y10275428D01*
X1416857Y10204000D01*
X1488285Y10061142D01*
X1488285Y9489714D01*
X702571Y11275428D02*
X702571Y11561142D01*
X773999Y11704000D01*
X916857Y11846857D01*
X1202571Y11918285D01*
X1702571Y11918285D01*
X1988285Y11846857D01*
X2131142Y11704000D01*
X2202571Y11561142D01*
X2202571Y11275428D01*
X2131142Y11132571D01*
X1988285Y10989714D01*
X1702571Y10918285D01*
X1202571Y10918285D01*
X916857Y10989714D01*
X773999Y11132571D01*
X702571Y11275428D01*
X702571Y12418285D02*
X2202571Y12775428D01*
X1131142Y13061142D01*
X2202571Y13346857D01*
X702571Y13704000D01*
X1416857Y14275428D02*
X1416857Y14775428D01*
X2202571Y14989714D02*
X2202571Y14275428D01*
X702571Y14275428D01*
X702571Y14989714D01*
X2202571Y16489714D02*
X1488285Y15989714D01*
X2202571Y15632571D02*
X702571Y15632571D01*
X702571Y16204000D01*
X774000Y16346857D01*
X845428Y16418285D01*
X988285Y16489714D01*
X1202571Y16489714D01*
X1345428Y16418285D01*
X1416857Y16346857D01*
X1488285Y16204000D01*
X1488285Y15632571D01*
X22776571Y8680142D02*
X21276571Y8680142D01*
X22776571Y9394428D02*
X21276571Y9394428D01*
X22776571Y10251571D01*
X21276571Y10251571D01*
X22205142Y10965857D02*
X22205142Y12108714D01*
X22776571Y11537285D02*
X21633714Y11537285D01*
X25570571Y10156571D02*
X24070571Y10156571D01*
X25142000Y10656571D01*
X24070571Y11156571D01*
X25570571Y11156571D01*
X25570571Y12585142D02*
X25570571Y11870857D01*
X24070571Y11870857D01*
X25142000Y13013714D02*
X25142000Y13728000D01*
X25570571Y12870857D02*
X24070571Y13370857D01*
X25570571Y13870857D01*
X24784857Y14870857D02*
X24856285Y15085142D01*
X24927714Y15156571D01*
X25070571Y15228000D01*
X25284857Y15228000D01*
X25427714Y15156571D01*
X25499142Y15085142D01*
X25570571Y14942285D01*
X25570571Y14370857D01*
X24070571Y14370857D01*
X24070571Y14870857D01*
X24142000Y15013714D01*
X24213428Y15085142D01*
X24356285Y15156571D01*
X24499142Y15156571D01*
X24642000Y15085142D01*
X24713428Y15013714D01*
X24784857Y14870857D01*
X24784857Y14370857D01*
X25427714Y15870857D02*
X25499142Y15942285D01*
X25570571Y15870857D01*
X25499142Y15799428D01*
X25427714Y15870857D01*
X25570571Y15870857D01*
X25427714Y17442285D02*
X25499142Y17370857D01*
X25570571Y17156571D01*
X25570571Y17013714D01*
X25499142Y16799428D01*
X25356285Y16656571D01*
X25213428Y16585142D01*
X24927714Y16513714D01*
X24713428Y16513714D01*
X24427714Y16585142D01*
X24284857Y16656571D01*
X24142000Y16799428D01*
X24070571Y17013714D01*
X24070571Y17156571D01*
X24142000Y17370857D01*
X24213428Y17442285D01*
X24070571Y17942285D02*
X24070571Y18942285D01*
X25570571Y17942285D01*
X25570571Y18942285D01*
X18300000Y27051142D02*
X18228571Y26908285D01*
X18228571Y26694000D01*
X18300000Y26479714D01*
X18442857Y26336857D01*
X18585714Y26265428D01*
X18871428Y26194000D01*
X19085714Y26194000D01*
X19371428Y26265428D01*
X19514285Y26336857D01*
X19657142Y26479714D01*
X19728571Y26694000D01*
X19728571Y26836857D01*
X19657142Y27051142D01*
X19585714Y27122571D01*
X19085714Y27122571D01*
X19085714Y26836857D01*
X19728571Y27765428D02*
X18228571Y27765428D01*
X19728571Y28622571D01*
X18228571Y28622571D01*
X19728571Y29336857D02*
X18228571Y29336857D01*
X18228571Y29694000D01*
X18300000Y29908285D01*
X18442857Y30051142D01*
X18585714Y30122571D01*
X18871428Y30194000D01*
X19085714Y30194000D01*
X19371428Y30122571D01*
X19514285Y30051142D01*
X19657142Y29908285D01*
X19728571Y29694000D01*
X19728571Y29336857D01*
X13240000Y39937428D02*
X13740000Y38437428D01*
X14240000Y39937428D01*
X14740000Y38437428D02*
X14740000Y39937428D01*
X15097142Y39937428D01*
X15311428Y39866000D01*
X15454285Y39723142D01*
X15525714Y39580285D01*
X15597142Y39294571D01*
X15597142Y39080285D01*
X15525714Y38794571D01*
X15454285Y38651714D01*
X15311428Y38508857D01*
X15097142Y38437428D01*
X14740000Y38437428D01*
X16240000Y38437428D02*
X16240000Y39937428D01*
X16597142Y39937428D01*
X16811428Y39866000D01*
X16954285Y39723142D01*
X17025714Y39580285D01*
X17097142Y39294571D01*
X17097142Y39080285D01*
X17025714Y38794571D01*
X16954285Y38651714D01*
X16811428Y38508857D01*
X16597142Y38437428D01*
X16240000Y38437428D01*
D11*
%TO.C,J1*%
X2301857Y15267809D02*
X2016142Y15267809D01*
X2159000Y15267809D02*
X2159000Y15767809D01*
X2111380Y15696380D01*
X2063761Y15648761D01*
X2016142Y15624952D01*
D12*
%TO.C,P2*%
X18106571Y7547428D02*
X18106571Y8708571D01*
D11*
%TO.C,J4*%
X2365357Y29618809D02*
X2079642Y29618809D01*
X2222500Y29618809D02*
X2222500Y30118809D01*
X2174880Y30047380D01*
X2127261Y29999761D01*
X2079642Y29975952D01*
D13*
%TO.C,J1*%
X7620000Y16764000D02*
X7620000Y9144000D01*
X2540000Y9144000D02*
X2540000Y16764000D01*
X7620000Y9144000D02*
X2540000Y9144000D01*
X2540000Y16764000D02*
X7620000Y16764000D01*
%TO.C,J3*%
X23876000Y19812000D02*
X18796000Y19812000D01*
X18796000Y19812000D02*
X18796000Y22352000D01*
X23876000Y22352000D02*
X23876000Y19812000D01*
X18796000Y22352000D02*
X23876000Y22352000D01*
%TO.C,J5*%
X27686000Y25654000D02*
X22606000Y25654000D01*
X22606000Y28194000D02*
X27686000Y28194000D01*
X22606000Y25654000D02*
X22606000Y28194000D01*
X27686000Y28194000D02*
X27686000Y25654000D01*
%TO.C,J6*%
X22606000Y30734000D02*
X27686000Y30734000D01*
X27686000Y30734000D02*
X27686000Y28194000D01*
X22606000Y28194000D02*
X22606000Y30734000D01*
X27686000Y28194000D02*
X22606000Y28194000D01*
%TO.C,J7*%
X8890000Y38036500D02*
X21590000Y38036500D01*
X21590000Y32956500D02*
X8890000Y32956500D01*
X8890000Y32956500D02*
X8890000Y38036500D01*
X21590000Y38036500D02*
X21590000Y32956500D01*
%TO.C,P1*%
X20288000Y14414000D02*
X20288000Y17914100D01*
X15788000Y9414000D02*
X15788000Y15414000D01*
X16788000Y11414000D02*
X16788000Y14414000D01*
X15788000Y414000D02*
X15788000Y9414000D01*
X20788100Y414000D02*
X15787900Y414000D01*
X19788100Y11414000D02*
X16787900Y11414000D01*
X19788000Y11414000D02*
X19788000Y14414000D01*
X17288000Y8913900D02*
X17288000Y9414000D01*
X20788100Y9414000D02*
X15787900Y9414000D01*
X20788000Y15414000D02*
X20288000Y15414000D01*
X20788000Y9414000D02*
X20788000Y414000D01*
X16288000Y913900D02*
X16288000Y8913900D01*
X19789000Y17414000D02*
X16787000Y17414000D01*
X16288000Y14414000D02*
X20288000Y14414000D01*
X19288000Y8913900D02*
X19288000Y9414000D01*
X19789000Y14914100D02*
X16787000Y14914100D01*
X20288000Y913900D02*
X20288000Y8913900D01*
X19788000Y14914100D02*
X19788000Y17414000D01*
X16788000Y14914100D02*
X16788000Y17414000D01*
X16288000Y14414000D02*
X16288000Y17915000D01*
X16288000Y15414000D02*
X15788000Y15414000D01*
X16288000Y17914100D02*
X20288000Y17914100D01*
X16288000Y8913900D02*
X20288000Y8913900D01*
X20288000Y913900D02*
X16288000Y913900D01*
X20788000Y9414000D02*
X20788000Y15414000D01*
%TO.C,P2*%
X11208000Y8913900D02*
X15208000Y8913900D01*
X10708000Y414000D02*
X10708000Y9414000D01*
X14208000Y8913900D02*
X14208000Y9414000D01*
X14708000Y11414000D02*
X14708000Y14414000D01*
X10708000Y9414000D02*
X10708000Y15414000D01*
X15708000Y9414000D02*
X15708000Y15414000D01*
X15708000Y15414000D02*
X15208000Y15414000D01*
X15208000Y913900D02*
X15208000Y8913900D01*
X11208000Y15414000D02*
X10708000Y15414000D01*
X14709000Y14914100D02*
X11707000Y14914100D01*
X15708100Y414000D02*
X10707900Y414000D01*
X15208000Y913900D02*
X11208000Y913900D01*
X14708100Y11414000D02*
X11707900Y11414000D01*
X11208000Y14414000D02*
X11208000Y17915000D01*
X11208000Y913900D02*
X11208000Y8913900D01*
X15708000Y9414000D02*
X15708000Y414000D01*
X11708000Y14914100D02*
X11708000Y17414000D01*
X11208000Y14414000D02*
X15208000Y14414000D01*
X14708000Y14914100D02*
X14708000Y17414000D01*
X15208000Y14414000D02*
X15208000Y17914100D01*
X12208000Y8913900D02*
X12208000Y9414000D01*
X11208000Y17914100D02*
X15208000Y17914100D01*
X11708000Y11414000D02*
X11708000Y14414000D01*
X14709000Y17414000D02*
X11707000Y17414000D01*
X15708100Y9414000D02*
X10707900Y9414000D01*
%TO.C,J4*%
X2603500Y31115000D02*
X5143500Y31115000D01*
X5143500Y31115000D02*
X5143500Y23495000D01*
X5143500Y23495000D02*
X2603500Y23495000D01*
X2603500Y23495000D02*
X2603500Y31115000D01*
%TO.C,J8*%
X22606000Y30734000D02*
X22606000Y25654000D01*
X20066000Y30734000D02*
X22606000Y30734000D01*
X22606000Y25654000D02*
X20066000Y25654000D01*
X20066000Y25654000D02*
X20066000Y30734000D01*
%TD*%
D14*
%TO.C,J1*%
X3810000Y15494000D03*
X6350000Y15494000D03*
X3810000Y12954000D03*
X6350000Y12954000D03*
X3810000Y10414000D03*
X6350000Y10414000D03*
%TD*%
%TO.C,J3*%
X22606000Y21082000D03*
X20066000Y21082000D03*
%TD*%
%TO.C,J5*%
X26416000Y26924000D03*
X23876000Y26924000D03*
%TD*%
%TO.C,J6*%
X26416000Y29464000D03*
X23876000Y29464000D03*
%TD*%
%TO.C,J7*%
X20320000Y36766500D03*
X20320000Y34226500D03*
X17780000Y36766500D03*
X17780000Y34226500D03*
X15240000Y36766500D03*
X15240000Y34226500D03*
X12700000Y36766500D03*
X12700000Y34226500D03*
X10160000Y36766500D03*
X10160000Y34226500D03*
%TD*%
D15*
%TO.C,P1*%
X18288000Y5414000D03*
X18288000Y10414000D03*
%TD*%
%TO.C,P2*%
X13208000Y10414000D03*
X13208000Y5414000D03*
%TD*%
D14*
%TO.C,J4*%
X3873500Y29845000D03*
X3873500Y27305000D03*
X3873500Y24765000D03*
%TD*%
%TO.C,J8*%
X21336000Y26924000D03*
X21336000Y29464000D03*
%TD*%
M02*
