<?xml version='1.0' encoding='ASCII' standalone='yes'?>
<svg xmlns:svg="http://www.w3.org/2000/svg" xmlns="http://www.w3.org/2000/svg" xmlns:xlink="http://www.w3.org/1999/xlink" version="1.1" width="297.0022mm" height="210.0072mm" viewBox="0.0000 0.0000 297.0022 210.0072">
<title>SVG Image created as I2CADC01-B_Fab.svg date 2023/07/10 01:44:38 </title>
  <desc>Image generated by PCBNEW </desc>
<g style="fill:#000084; fill-opacity:1.0000;stroke:#000084; stroke-opacity:1.0000; stroke-linecap:round; stroke-linejoin:round;" transform="translate(0 0) scale(1 1)">
</g>
<g style="fill:#000084; fill-opacity:0.0;  stroke:#000084; stroke-width:0.0000; stroke-opacity:1;  stroke-linecap:round; stroke-linejoin:round;">
</g>
<g style="fill:#000084; fill-opacity:0.0;  stroke:#000084; stroke-width:0.7830; stroke-opacity:1;  stroke-linecap:round; stroke-linejoin:round;">
<g transform="rotate(-90.000000 160.9475 74.5100)">
<text x="160.9475" y="77.1198" transform="scale(-1 1) translate(-321.895073 0)" textLength="34.2203" font-size="6.9596" lengthAdjust="spacingAndGlyphs" text-anchor="middle" opacity="0.01" style="font-family:monospace">LTC2485</text>
</g>
<g class="stroked-text"><desc>LTC2485</desc>
<path d="M158.5735 61.5849 L158.5735 59.0994 "/>
<path d="M158.5735 59.0994 L163.7932 59.0994 "/>
<path d="M163.7932 62.5792 L163.7932 65.5619 "/>
<path d="M158.5735 64.0705 L163.7932 64.0705 "/>
<path d="M159.0706 70.2845 L158.8221 70.0359 "/>
<path d="M158.8221 70.0359 L158.5735 69.2902 "/>
<path d="M158.5735 69.2902 L158.5735 68.7931 "/>
<path d="M158.5735 68.7931 L158.8221 68.0475 "/>
<path d="M158.8221 68.0475 L159.3192 67.5503 "/>
<path d="M159.3192 67.5503 L159.8163 67.3018 "/>
<path d="M159.8163 67.3018 L160.8105 67.0532 "/>
<path d="M160.8105 67.0532 L161.5562 67.0532 "/>
<path d="M161.5562 67.0532 L162.5504 67.3018 "/>
<path d="M162.5504 67.3018 L163.0476 67.5503 "/>
<path d="M163.0476 67.5503 L163.5447 68.0475 "/>
<path d="M163.5447 68.0475 L163.7932 68.7931 "/>
<path d="M163.7932 68.7931 L163.7932 69.2902 "/>
<path d="M163.7932 69.2902 L163.5447 70.0359 "/>
<path d="M163.5447 70.0359 L163.2961 70.2845 "/>
<path d="M163.2961 72.2729 L163.5447 72.5215 "/>
<path d="M163.5447 72.5215 L163.7932 73.0186 "/>
<path d="M163.7932 73.0186 L163.7932 74.2614 "/>
<path d="M163.7932 74.2614 L163.5447 74.7585 "/>
<path d="M163.5447 74.7585 L163.2961 75.0071 "/>
<path d="M163.2961 75.0071 L162.7990 75.2556 "/>
<path d="M162.7990 75.2556 L162.3019 75.2556 "/>
<path d="M162.3019 75.2556 L161.5562 75.0071 "/>
<path d="M161.5562 75.0071 L158.5735 72.0244 "/>
<path d="M158.5735 72.0244 L158.5735 75.2556 "/>
<path d="M162.0533 79.7297 L158.5735 79.7297 "/>
<path d="M164.0418 78.4869 L160.3134 77.2441 "/>
<path d="M160.3134 77.2441 L160.3134 80.4754 "/>
<path d="M161.5562 83.2095 L161.8048 82.7124 "/>
<path d="M161.8048 82.7124 L162.0533 82.4638 "/>
<path d="M162.0533 82.4638 L162.5504 82.2153 "/>
<path d="M162.5504 82.2153 L162.7990 82.2153 "/>
<path d="M162.7990 82.2153 L163.2961 82.4638 "/>
<path d="M163.2961 82.4638 L163.5447 82.7124 "/>
<path d="M163.5447 82.7124 L163.7932 83.2095 "/>
<path d="M163.7932 83.2095 L163.7932 84.2037 "/>
<path d="M163.7932 84.2037 L163.5447 84.7009 "/>
<path d="M163.5447 84.7009 L163.2961 84.9494 "/>
<path d="M163.2961 84.9494 L162.7990 85.1980 "/>
<path d="M162.7990 85.1980 L162.5504 85.1980 "/>
<path d="M162.5504 85.1980 L162.0533 84.9494 "/>
<path d="M162.0533 84.9494 L161.8048 84.7009 "/>
<path d="M161.8048 84.7009 L161.5562 84.2037 "/>
<path d="M161.5562 84.2037 L161.5562 83.2095 "/>
<path d="M161.5562 83.2095 L161.3077 82.7124 "/>
<path d="M161.3077 82.7124 L161.0591 82.4638 "/>
<path d="M161.0591 82.4638 L160.5620 82.2153 "/>
<path d="M160.5620 82.2153 L159.5677 82.2153 "/>
<path d="M159.5677 82.2153 L159.0706 82.4638 "/>
<path d="M159.0706 82.4638 L158.8221 82.7124 "/>
<path d="M158.8221 82.7124 L158.5735 83.2095 "/>
<path d="M158.5735 83.2095 L158.5735 84.2037 "/>
<path d="M158.5735 84.2037 L158.8221 84.7009 "/>
<path d="M158.8221 84.7009 L159.0706 84.9494 "/>
<path d="M159.0706 84.9494 L159.5677 85.1980 "/>
<path d="M159.5677 85.1980 L160.5620 85.1980 "/>
<path d="M160.5620 85.1980 L161.0591 84.9494 "/>
<path d="M161.0591 84.9494 L161.3077 84.7009 "/>
<path d="M161.3077 84.7009 L161.5562 84.2037 "/>
<path d="M163.7932 89.9206 L163.7932 87.4350 "/>
<path d="M163.7932 87.4350 L161.3077 87.1864 "/>
<path d="M161.3077 87.1864 L161.5562 87.4350 "/>
<path d="M161.5562 87.4350 L161.8048 87.9321 "/>
<path d="M161.8048 87.9321 L161.8048 89.1749 "/>
<path d="M161.8048 89.1749 L161.5562 89.6720 "/>
<path d="M161.5562 89.6720 L161.3077 89.9206 "/>
<path d="M161.3077 89.9206 L160.8105 90.1691 "/>
<path d="M160.8105 90.1691 L159.5677 90.1691 "/>
<path d="M159.5677 90.1691 L159.0706 89.9206 "/>
<path d="M159.0706 89.9206 L158.8221 89.6720 "/>
<path d="M158.8221 89.6720 L158.5735 89.1749 "/>
<path d="M158.5735 89.1749 L158.5735 87.9321 "/>
<path d="M158.5735 87.9321 L158.8221 87.4350 "/>
<path d="M158.8221 87.4350 L159.0706 87.1864 "/>
</g><g>
</g>
<g>
</g>
<g>
</g>
<g>
</g>
<g>
</g>
<g>
</g>
<g>
</g>
<g>
</g>
<g>
</g>
<g>
</g>
<g>
</g>
<g>
</g>
<g>
</g>
<g>
</g>
<g>
</g>
<g>
</g>
<g>
</g>
<g>
</g>
<g>
</g>
<g>
</g>
<g>
</g>
<g>
</g>
<g>
</g>
<g>
</g>
<g>
</g>
<g>
</g>
<g>
</g>
<g>
</g>
<g>
</g>
<g>
</g>
<g>
</g>
<g>
</g>
<g>
</g>
<g>
</g>
<g>
</g>
<g>
</g>
</g> 
<svg:g><svg:g><svg:title>SVG Image created as I2CADC01-Edge_Cuts.svg date 2023/07/10 01:44:38 </svg:title>
  <svg:desc>Image generated by PCBNEW </svg:desc>
<svg:g style="fill:#C2C200; fill-opacity:1.0000;stroke:#C2C200; stroke-opacity:1.0000; stroke-linecap:round; stroke-linejoin:round;" transform="translate(0 0) scale(1 1)">
</svg:g>
<svg:g style="fill:#C2C200; fill-opacity:0.0;  stroke:#C2C200; stroke-width:0.0000; stroke-opacity:1;  stroke-linecap:round; stroke-linejoin:round;">
</svg:g>
<svg:g style="fill:#C2C200; fill-opacity:0.0;  stroke:#C2C200; stroke-width:0.5220; stroke-opacity:1;  stroke-linecap:round; stroke-linejoin:round;">
<svg:path d="M70.2783 0.2646 L70.2783 209.7426 "/>
<svg:path d="M226.7239 0.2646 L70.2783 0.2646 "/>
<svg:path d="M226.7239 209.7426 L226.7239 0.2646 "/>
<svg:path d="M70.2783 209.7426 L226.7239 209.7426 "/>
<svg:g>
</svg:g>
<svg:g>
</svg:g>
<svg:g>
</svg:g>
<svg:g>
</svg:g>
<svg:g>
</svg:g>
<svg:g>
</svg:g>
<svg:g>
</svg:g>
<svg:g>
</svg:g>
<svg:g>
</svg:g>
<svg:g>
</svg:g>
<svg:g>
</svg:g>
<svg:g>
</svg:g>
<svg:g>
</svg:g>
<svg:g>
</svg:g>
<svg:g>
</svg:g>
<svg:g>
</svg:g>
<svg:g>
</svg:g>
<svg:g>
</svg:g>
<svg:g>
</svg:g>
<svg:g>
</svg:g>
<svg:g>
</svg:g>
<svg:g>
</svg:g>
<svg:g>
</svg:g>
<svg:g>
</svg:g>
<svg:g>
</svg:g>
<svg:g>
</svg:g>
<svg:g>
</svg:g>
<svg:g>
</svg:g>
<svg:g>
</svg:g>
<svg:g>
</svg:g>
<svg:g>
</svg:g>
<svg:g>
</svg:g>
<svg:g>
</svg:g>
<svg:g>
</svg:g>
<svg:g>
</svg:g>
<svg:g>
</svg:g>
</svg:g> 
</svg:g></svg:g></svg>
