<?xml version='1.0' encoding='ASCII' standalone='yes'?>
<svg xmlns:svg="http://www.w3.org/2000/svg" xmlns="http://www.w3.org/2000/svg" xmlns:xlink="http://www.w3.org/1999/xlink" version="1.1" width="29.700220cm" height="21.000720cm" viewBox="0 0 2970022 2100072">
<title>SVG Picture created as I2CADC01-B_Fab.svg date 2023/05/28 08:53:47 </title>
  <desc>Picture generated by PCBNEW </desc>
<g style="fill:#000084; fill-opacity:1.000000;stroke:#000084; stroke-opacity:1.000000; stroke-linecap:round; stroke-linejoin:round;" transform="translate(0 0) scale(1 1)">
</g>
<g style="fill:#000084; fill-opacity:0.0;  stroke:#000084; stroke-width:0.000000; stroke-opacity:1;  stroke-linecap:round; stroke-linejoin:round;">
</g>
<g style="fill:#000084; fill-opacity:0.0;  stroke:#000084; stroke-width:7829.588387; stroke-opacity:1;  stroke-linecap:round; stroke-linejoin:round;">
<g transform="rotate(-90.000000 1360546.634520 745099.647047)">
<text x="1360546.634520" y="771198.275005" transform="scale(-1 1) translate(-2721093.269040 0)" textLength="333068.132332" font-size="69596.323822" lengthAdjust="spacingAndGlyphs" text-anchor="middle" opacity="0.01" style="font-family:monospace">LTC2485</text>
</g>
<g class="stroked-text"><desc>LTC2485</desc>
<path d="M1384159 615849 L1384159 590993 L1331962 590993 "/>
<path d="M1331962 625791 L1331962 655618 "/>
<path d="M1384159 640705 L1331962 640705 "/>
<path d="M1379188 702844 L1381674 700359 L1384159 692902 L1384159 687931 L1381674 680474 L1376702 675503 L1371731 673017 L1361789 670532 L1354332 670532 L1344390 673017 L1339419 675503 L1334448 680474 L1331962 687931 L1331962 692902 L1334448 700359 L1336933 702844 "/>
<path d="M1336933 722729 L1334448 725214 L1331962 730186 L1331962 742614 L1334448 747585 L1336933 750070 L1341904 752556 L1346875 752556 L1354332 750070 L1384159 720243 L1384159 752556 "/>
<path d="M1349361 797296 L1384159 797296 "/>
<path d="M1329476 784868 L1366760 772441 L1366760 804753 "/>
<path d="M1354332 832095 L1351847 827123 L1349361 824638 L1344390 822152 L1341904 822152 L1336933 824638 L1334448 827123 L1331962 832095 L1331962 842037 L1334448 847008 L1336933 849494 L1341904 851979 L1344390 851979 L1349361 849494 L1351847 847008 L1354332 842037 L1354332 832095 L1356818 827123 L1359303 824638 L1364274 822152 L1374217 822152 L1379188 824638 L1381674 827123 L1384159 832095 L1384159 842037 L1381674 847008 L1379188 849494 L1374217 851979 L1364274 851979 L1359303 849494 L1356818 847008 L1354332 842037 "/>
<path d="M1331962 899205 L1331962 874350 L1356818 871864 L1354332 874350 L1351847 879321 L1351847 891749 L1354332 896720 L1356818 899205 L1361789 901691 L1374217 901691 L1379188 899205 L1381674 896720 L1384159 891749 L1384159 879321 L1381674 874350 L1379188 871864 "/>
</g><g>
</g>
<g>
</g>
<g>
</g>
<g>
</g>
<g>
</g>
<g>
</g>
<g>
</g>
<g>
</g>
<g>
</g>
<g>
</g>
<g>
</g>
<g>
</g>
<g>
</g>
<g>
</g>
<g>
</g>
<g>
</g>
<g>
</g>
<g>
</g>
<g>
</g>
<g>
</g>
<g>
</g>
<g>
</g>
<g>
</g>
<g>
</g>
<g>
</g>
<g>
</g>
<g>
</g>
<g>
</g>
<g>
</g>
<g>
</g>
<g>
</g>
<g>
</g>
<g>
</g>
<g>
</g>
<g>
</g>
<g>
</g>
</g> 
<svg:g><svg:g><svg:title>SVG Picture created as I2CADC01-Edge_Cuts.svg date 2023/05/28 08:53:47 </svg:title>
  <svg:desc>Picture generated by PCBNEW </svg:desc>
<svg:g style="fill:#C2C200; fill-opacity:1.000000;stroke:#C2C200; stroke-opacity:1.000000; stroke-linecap:round; stroke-linejoin:round;" transform="translate(0 0) scale(1 1)">
</svg:g>
<svg:g style="fill:#C2C200; fill-opacity:0.0;  stroke:#C2C200; stroke-width:0.000000; stroke-opacity:1;  stroke-linecap:round; stroke-linejoin:round;">
</svg:g>
<svg:g style="fill:#C2C200; fill-opacity:0.0;  stroke:#C2C200; stroke-width:5219.725592; stroke-opacity:1;  stroke-linecap:round; stroke-linejoin:round;">
<svg:path d="M2267239 2645 L2267239 2097426 "/>
<svg:path d="M702782 2645 L2267239 2645 "/>
<svg:path d="M702782 2097426 L702782 2645 "/>
<svg:path d="M2267239 2097426 L702782 2097426 "/>
<svg:g>
</svg:g>
<svg:g>
</svg:g>
<svg:g>
</svg:g>
<svg:g>
</svg:g>
<svg:g>
</svg:g>
<svg:g>
</svg:g>
<svg:g>
</svg:g>
<svg:g>
</svg:g>
<svg:g>
</svg:g>
<svg:g>
</svg:g>
<svg:g>
</svg:g>
<svg:g>
</svg:g>
<svg:g>
</svg:g>
<svg:g>
</svg:g>
<svg:g>
</svg:g>
<svg:g>
</svg:g>
<svg:g>
</svg:g>
<svg:g>
</svg:g>
<svg:g>
</svg:g>
<svg:g>
</svg:g>
<svg:g>
</svg:g>
<svg:g>
</svg:g>
<svg:g>
</svg:g>
<svg:g>
</svg:g>
<svg:g>
</svg:g>
<svg:g>
</svg:g>
<svg:g>
</svg:g>
<svg:g>
</svg:g>
<svg:g>
</svg:g>
<svg:g>
</svg:g>
<svg:g>
</svg:g>
<svg:g>
</svg:g>
<svg:g>
</svg:g>
<svg:g>
</svg:g>
<svg:g>
</svg:g>
<svg:g>
</svg:g>
</svg:g> 
</svg:g></svg:g></svg>
