<?xml version='1.0' encoding='ASCII' standalone='yes'?>
<svg xmlns:svg="http://www.w3.org/2000/svg" xmlns="http://www.w3.org/2000/svg" xmlns:xlink="http://www.w3.org/1999/xlink" version="1.1" width="297.0022mm" height="210.0072mm" viewBox="0.0000 0.0000 297.0022 210.0072">
<title>SVG Image created as I2CADC01-B_Fab.svg date 2023/07/05 14:58:13 </title>
  <desc>Image generated by PCBNEW </desc>
<g style="fill:#000084; fill-opacity:1.0000;stroke:#000084; stroke-opacity:1.0000; stroke-linecap:round; stroke-linejoin:round;" transform="translate(0 0) scale(1 1)">
</g>
<g style="fill:#000084; fill-opacity:0.0;  stroke:#000084; stroke-width:0.0000; stroke-opacity:1;  stroke-linecap:round; stroke-linejoin:round;">
</g>
<g style="fill:#000084; fill-opacity:0.0;  stroke:#000084; stroke-width:0.7830; stroke-opacity:1;  stroke-linecap:round; stroke-linejoin:round;">
<g transform="rotate(-90.000000 136.0547 74.5100)">
<text x="136.0547" y="77.1198" transform="scale(-1 1) translate(-272.109327 0)" textLength="34.2203" font-size="6.9596" lengthAdjust="spacingAndGlyphs" text-anchor="middle" opacity="0.01" style="font-family:monospace">LTC2485</text>
</g>
<g class="stroked-text"><desc>LTC2485</desc>
<path d="M138.4287 61.5849 L138.4287 59.0994 "/>
<path d="M138.4287 59.0994 L133.2090 59.0994 "/>
<path d="M133.2090 62.5792 L133.2090 65.5619 "/>
<path d="M138.4287 64.0705 L133.2090 64.0705 "/>
<path d="M137.9316 70.2845 L138.1801 70.0359 "/>
<path d="M138.1801 70.0359 L138.4287 69.2902 "/>
<path d="M138.4287 69.2902 L138.4287 68.7931 "/>
<path d="M138.4287 68.7931 L138.1801 68.0475 "/>
<path d="M138.1801 68.0475 L137.6830 67.5503 "/>
<path d="M137.6830 67.5503 L137.1859 67.3018 "/>
<path d="M137.1859 67.3018 L136.1917 67.0532 "/>
<path d="M136.1917 67.0532 L135.4460 67.0532 "/>
<path d="M135.4460 67.0532 L134.4518 67.3018 "/>
<path d="M134.4518 67.3018 L133.9546 67.5503 "/>
<path d="M133.9546 67.5503 L133.4575 68.0475 "/>
<path d="M133.4575 68.0475 L133.2090 68.7931 "/>
<path d="M133.2090 68.7931 L133.2090 69.2902 "/>
<path d="M133.2090 69.2902 L133.4575 70.0359 "/>
<path d="M133.4575 70.0359 L133.7061 70.2845 "/>
<path d="M133.7061 72.2729 L133.4575 72.5215 "/>
<path d="M133.4575 72.5215 L133.2090 73.0186 "/>
<path d="M133.2090 73.0186 L133.2090 74.2614 "/>
<path d="M133.2090 74.2614 L133.4575 74.7585 "/>
<path d="M133.4575 74.7585 L133.7061 75.0071 "/>
<path d="M133.7061 75.0071 L134.2032 75.2556 "/>
<path d="M134.2032 75.2556 L134.7003 75.2556 "/>
<path d="M134.7003 75.2556 L135.4460 75.0071 "/>
<path d="M135.4460 75.0071 L138.4287 72.0244 "/>
<path d="M138.4287 72.0244 L138.4287 75.2556 "/>
<path d="M134.9489 79.7297 L138.4287 79.7297 "/>
<path d="M132.9604 78.4869 L136.6888 77.2441 "/>
<path d="M136.6888 77.2441 L136.6888 80.4754 "/>
<path d="M135.4460 83.2095 L135.1974 82.7124 "/>
<path d="M135.1974 82.7124 L134.9489 82.4638 "/>
<path d="M134.9489 82.4638 L134.4518 82.2153 "/>
<path d="M134.4518 82.2153 L134.2032 82.2153 "/>
<path d="M134.2032 82.2153 L133.7061 82.4638 "/>
<path d="M133.7061 82.4638 L133.4575 82.7124 "/>
<path d="M133.4575 82.7124 L133.2090 83.2095 "/>
<path d="M133.2090 83.2095 L133.2090 84.2037 "/>
<path d="M133.2090 84.2037 L133.4575 84.7009 "/>
<path d="M133.4575 84.7009 L133.7061 84.9494 "/>
<path d="M133.7061 84.9494 L134.2032 85.1980 "/>
<path d="M134.2032 85.1980 L134.4518 85.1980 "/>
<path d="M134.4518 85.1980 L134.9489 84.9494 "/>
<path d="M134.9489 84.9494 L135.1974 84.7009 "/>
<path d="M135.1974 84.7009 L135.4460 84.2037 "/>
<path d="M135.4460 84.2037 L135.4460 83.2095 "/>
<path d="M135.4460 83.2095 L135.6945 82.7124 "/>
<path d="M135.6945 82.7124 L135.9431 82.4638 "/>
<path d="M135.9431 82.4638 L136.4402 82.2153 "/>
<path d="M136.4402 82.2153 L137.4345 82.2153 "/>
<path d="M137.4345 82.2153 L137.9316 82.4638 "/>
<path d="M137.9316 82.4638 L138.1801 82.7124 "/>
<path d="M138.1801 82.7124 L138.4287 83.2095 "/>
<path d="M138.4287 83.2095 L138.4287 84.2037 "/>
<path d="M138.4287 84.2037 L138.1801 84.7009 "/>
<path d="M138.1801 84.7009 L137.9316 84.9494 "/>
<path d="M137.9316 84.9494 L137.4345 85.1980 "/>
<path d="M137.4345 85.1980 L136.4402 85.1980 "/>
<path d="M136.4402 85.1980 L135.9431 84.9494 "/>
<path d="M135.9431 84.9494 L135.6945 84.7009 "/>
<path d="M135.6945 84.7009 L135.4460 84.2037 "/>
<path d="M133.2090 89.9206 L133.2090 87.4350 "/>
<path d="M133.2090 87.4350 L135.6945 87.1864 "/>
<path d="M135.6945 87.1864 L135.4460 87.4350 "/>
<path d="M135.4460 87.4350 L135.1974 87.9321 "/>
<path d="M135.1974 87.9321 L135.1974 89.1749 "/>
<path d="M135.1974 89.1749 L135.4460 89.6720 "/>
<path d="M135.4460 89.6720 L135.6945 89.9206 "/>
<path d="M135.6945 89.9206 L136.1917 90.1691 "/>
<path d="M136.1917 90.1691 L137.4345 90.1691 "/>
<path d="M137.4345 90.1691 L137.9316 89.9206 "/>
<path d="M137.9316 89.9206 L138.1801 89.6720 "/>
<path d="M138.1801 89.6720 L138.4287 89.1749 "/>
<path d="M138.4287 89.1749 L138.4287 87.9321 "/>
<path d="M138.4287 87.9321 L138.1801 87.4350 "/>
<path d="M138.1801 87.4350 L137.9316 87.1864 "/>
</g><g>
</g>
<g>
</g>
<g>
</g>
<g>
</g>
<g>
</g>
<g>
</g>
<g>
</g>
<g>
</g>
<g>
</g>
<g>
</g>
<g>
</g>
<g>
</g>
<g>
</g>
<g>
</g>
<g>
</g>
<g>
</g>
<g>
</g>
<g>
</g>
<g>
</g>
<g>
</g>
<g>
</g>
<g>
</g>
<g>
</g>
<g>
</g>
<g>
</g>
<g>
</g>
<g>
</g>
<g>
</g>
<g>
</g>
<g>
</g>
<g>
</g>
<g>
</g>
<g>
</g>
<g>
</g>
<g>
</g>
<g>
</g>
</g> 
<svg:g><svg:g><svg:title>SVG Image created as I2CADC01-Edge_Cuts.svg date 2023/07/05 14:58:13 </svg:title>
  <svg:desc>Image generated by PCBNEW </svg:desc>
<svg:g style="fill:#C2C200; fill-opacity:1.0000;stroke:#C2C200; stroke-opacity:1.0000; stroke-linecap:round; stroke-linejoin:round;" transform="translate(0 0) scale(1 1)">
</svg:g>
<svg:g style="fill:#C2C200; fill-opacity:0.0;  stroke:#C2C200; stroke-width:0.0000; stroke-opacity:1;  stroke-linecap:round; stroke-linejoin:round;">
</svg:g>
<svg:g style="fill:#C2C200; fill-opacity:0.0;  stroke:#C2C200; stroke-width:0.5220; stroke-opacity:1;  stroke-linecap:round; stroke-linejoin:round;">
<svg:path d="M226.7239 0.2646 L226.7239 209.7426 "/>
<svg:path d="M70.2783 0.2646 L226.7239 0.2646 "/>
<svg:path d="M70.2783 209.7426 L70.2783 0.2646 "/>
<svg:path d="M226.7239 209.7426 L70.2783 209.7426 "/>
<svg:g>
</svg:g>
<svg:g>
</svg:g>
<svg:g>
</svg:g>
<svg:g>
</svg:g>
<svg:g>
</svg:g>
<svg:g>
</svg:g>
<svg:g>
</svg:g>
<svg:g>
</svg:g>
<svg:g>
</svg:g>
<svg:g>
</svg:g>
<svg:g>
</svg:g>
<svg:g>
</svg:g>
<svg:g>
</svg:g>
<svg:g>
</svg:g>
<svg:g>
</svg:g>
<svg:g>
</svg:g>
<svg:g>
</svg:g>
<svg:g>
</svg:g>
<svg:g>
</svg:g>
<svg:g>
</svg:g>
<svg:g>
</svg:g>
<svg:g>
</svg:g>
<svg:g>
</svg:g>
<svg:g>
</svg:g>
<svg:g>
</svg:g>
<svg:g>
</svg:g>
<svg:g>
</svg:g>
<svg:g>
</svg:g>
<svg:g>
</svg:g>
<svg:g>
</svg:g>
<svg:g>
</svg:g>
<svg:g>
</svg:g>
<svg:g>
</svg:g>
<svg:g>
</svg:g>
<svg:g>
</svg:g>
<svg:g>
</svg:g>
</svg:g> 
</svg:g></svg:g></svg>
