%TF.GenerationSoftware,KiCad,Pcbnew,7.0.5.1-1-g8f565ef7f0-dirty-deb11*%
%TF.CreationDate,2023-07-05T01:42:42+00:00*%
%TF.ProjectId,I2CADC01,49324341-4443-4303-912e-6b696361645f,rev?*%
%TF.SameCoordinates,Original*%
%TF.FileFunction,Legend,Top*%
%TF.FilePolarity,Positive*%
%FSLAX46Y46*%
G04 Gerber Fmt 4.6, Leading zero omitted, Abs format (unit mm)*
G04 Created by KiCad (PCBNEW 7.0.5.1-1-g8f565ef7f0-dirty-deb11) date 2023-07-05 01:42:42*
%MOMM*%
%LPD*%
G01*
G04 APERTURE LIST*
%ADD10C,0.300000*%
%ADD11C,0.050000*%
%ADD12C,0.304800*%
%ADD13C,0.150000*%
%ADD14R,1.524000X1.524000*%
%ADD15R,3.810000X3.810000*%
G04 APERTURE END LIST*
D10*
X22856143Y23848528D02*
X22784715Y23777100D01*
X22784715Y23777100D02*
X22570429Y23705671D01*
X22570429Y23705671D02*
X22427572Y23705671D01*
X22427572Y23705671D02*
X22213286Y23777100D01*
X22213286Y23777100D02*
X22070429Y23919957D01*
X22070429Y23919957D02*
X21999000Y24062814D01*
X21999000Y24062814D02*
X21927572Y24348528D01*
X21927572Y24348528D02*
X21927572Y24562814D01*
X21927572Y24562814D02*
X21999000Y24848528D01*
X21999000Y24848528D02*
X22070429Y24991385D01*
X22070429Y24991385D02*
X22213286Y25134242D01*
X22213286Y25134242D02*
X22427572Y25205671D01*
X22427572Y25205671D02*
X22570429Y25205671D01*
X22570429Y25205671D02*
X22784715Y25134242D01*
X22784715Y25134242D02*
X22856143Y25062814D01*
X23427572Y24134242D02*
X24141858Y24134242D01*
X23284715Y23705671D02*
X23784715Y25205671D01*
X23784715Y25205671D02*
X24284715Y23705671D01*
X25070429Y25205671D02*
X25213286Y25205671D01*
X25213286Y25205671D02*
X25356143Y25134242D01*
X25356143Y25134242D02*
X25427572Y25062814D01*
X25427572Y25062814D02*
X25499000Y24919957D01*
X25499000Y24919957D02*
X25570429Y24634242D01*
X25570429Y24634242D02*
X25570429Y24277100D01*
X25570429Y24277100D02*
X25499000Y23991385D01*
X25499000Y23991385D02*
X25427572Y23848528D01*
X25427572Y23848528D02*
X25356143Y23777100D01*
X25356143Y23777100D02*
X25213286Y23705671D01*
X25213286Y23705671D02*
X25070429Y23705671D01*
X25070429Y23705671D02*
X24927572Y23777100D01*
X24927572Y23777100D02*
X24856143Y23848528D01*
X24856143Y23848528D02*
X24784714Y23991385D01*
X24784714Y23991385D02*
X24713286Y24277100D01*
X24713286Y24277100D02*
X24713286Y24634242D01*
X24713286Y24634242D02*
X24784714Y24919957D01*
X24784714Y24919957D02*
X24856143Y25062814D01*
X24856143Y25062814D02*
X24927572Y25134242D01*
X24927572Y25134242D02*
X25070429Y25205671D01*
X19634343Y39815442D02*
X19491486Y39886871D01*
X19491486Y39886871D02*
X19277200Y39886871D01*
X19277200Y39886871D02*
X19062914Y39815442D01*
X19062914Y39815442D02*
X18920057Y39672585D01*
X18920057Y39672585D02*
X18848628Y39529728D01*
X18848628Y39529728D02*
X18777200Y39244014D01*
X18777200Y39244014D02*
X18777200Y39029728D01*
X18777200Y39029728D02*
X18848628Y38744014D01*
X18848628Y38744014D02*
X18920057Y38601157D01*
X18920057Y38601157D02*
X19062914Y38458300D01*
X19062914Y38458300D02*
X19277200Y38386871D01*
X19277200Y38386871D02*
X19420057Y38386871D01*
X19420057Y38386871D02*
X19634343Y38458300D01*
X19634343Y38458300D02*
X19705771Y38529728D01*
X19705771Y38529728D02*
X19705771Y39029728D01*
X19705771Y39029728D02*
X19420057Y39029728D01*
X20348628Y38386871D02*
X20348628Y39886871D01*
X20348628Y39886871D02*
X21205771Y38386871D01*
X21205771Y38386871D02*
X21205771Y39886871D01*
X21920057Y38386871D02*
X21920057Y39886871D01*
X21920057Y39886871D02*
X22277200Y39886871D01*
X22277200Y39886871D02*
X22491486Y39815442D01*
X22491486Y39815442D02*
X22634343Y39672585D01*
X22634343Y39672585D02*
X22705772Y39529728D01*
X22705772Y39529728D02*
X22777200Y39244014D01*
X22777200Y39244014D02*
X22777200Y39029728D01*
X22777200Y39029728D02*
X22705772Y38744014D01*
X22705772Y38744014D02*
X22634343Y38601157D01*
X22634343Y38601157D02*
X22491486Y38458300D01*
X22491486Y38458300D02*
X22277200Y38386871D01*
X22277200Y38386871D02*
X21920057Y38386871D01*
X2202328Y25646285D02*
X1488042Y25146285D01*
X2202328Y24789142D02*
X702328Y24789142D01*
X702328Y24789142D02*
X702328Y25360571D01*
X702328Y25360571D02*
X773757Y25503428D01*
X773757Y25503428D02*
X845185Y25574857D01*
X845185Y25574857D02*
X988042Y25646285D01*
X988042Y25646285D02*
X1202328Y25646285D01*
X1202328Y25646285D02*
X1345185Y25574857D01*
X1345185Y25574857D02*
X1416614Y25503428D01*
X1416614Y25503428D02*
X1488042Y25360571D01*
X1488042Y25360571D02*
X1488042Y24789142D01*
X1416614Y26289142D02*
X1416614Y26789142D01*
X2202328Y27003428D02*
X2202328Y26289142D01*
X2202328Y26289142D02*
X702328Y26289142D01*
X702328Y26289142D02*
X702328Y27003428D01*
X1416614Y28146285D02*
X1416614Y27646285D01*
X2202328Y27646285D02*
X702328Y27646285D01*
X702328Y27646285D02*
X702328Y28360571D01*
X1630900Y28931999D02*
X1630900Y30074857D01*
X2202328Y29503428D02*
X1059471Y29503428D01*
X13304917Y20911671D02*
X12804917Y21625957D01*
X12447774Y20911671D02*
X12447774Y22411671D01*
X12447774Y22411671D02*
X13019203Y22411671D01*
X13019203Y22411671D02*
X13162060Y22340242D01*
X13162060Y22340242D02*
X13233489Y22268814D01*
X13233489Y22268814D02*
X13304917Y22125957D01*
X13304917Y22125957D02*
X13304917Y21911671D01*
X13304917Y21911671D02*
X13233489Y21768814D01*
X13233489Y21768814D02*
X13162060Y21697385D01*
X13162060Y21697385D02*
X13019203Y21625957D01*
X13019203Y21625957D02*
X12447774Y21625957D01*
X13947774Y21697385D02*
X14447774Y21697385D01*
X14662060Y20911671D02*
X13947774Y20911671D01*
X13947774Y20911671D02*
X13947774Y22411671D01*
X13947774Y22411671D02*
X14662060Y22411671D01*
X15804917Y21697385D02*
X15304917Y21697385D01*
X15304917Y20911671D02*
X15304917Y22411671D01*
X15304917Y22411671D02*
X16019203Y22411671D01*
X16590631Y21483100D02*
X17733489Y21483100D01*
X28134328Y26194000D02*
X29634328Y26694000D01*
X29634328Y26694000D02*
X28134328Y27194000D01*
X29491471Y28551142D02*
X29562900Y28479714D01*
X29562900Y28479714D02*
X29634328Y28265428D01*
X29634328Y28265428D02*
X29634328Y28122571D01*
X29634328Y28122571D02*
X29562900Y27908285D01*
X29562900Y27908285D02*
X29420042Y27765428D01*
X29420042Y27765428D02*
X29277185Y27693999D01*
X29277185Y27693999D02*
X28991471Y27622571D01*
X28991471Y27622571D02*
X28777185Y27622571D01*
X28777185Y27622571D02*
X28491471Y27693999D01*
X28491471Y27693999D02*
X28348614Y27765428D01*
X28348614Y27765428D02*
X28205757Y27908285D01*
X28205757Y27908285D02*
X28134328Y28122571D01*
X28134328Y28122571D02*
X28134328Y28265428D01*
X28134328Y28265428D02*
X28205757Y28479714D01*
X28205757Y28479714D02*
X28277185Y28551142D01*
X29491471Y30051142D02*
X29562900Y29979714D01*
X29562900Y29979714D02*
X29634328Y29765428D01*
X29634328Y29765428D02*
X29634328Y29622571D01*
X29634328Y29622571D02*
X29562900Y29408285D01*
X29562900Y29408285D02*
X29420042Y29265428D01*
X29420042Y29265428D02*
X29277185Y29193999D01*
X29277185Y29193999D02*
X28991471Y29122571D01*
X28991471Y29122571D02*
X28777185Y29122571D01*
X28777185Y29122571D02*
X28491471Y29193999D01*
X28491471Y29193999D02*
X28348614Y29265428D01*
X28348614Y29265428D02*
X28205757Y29408285D01*
X28205757Y29408285D02*
X28134328Y29622571D01*
X28134328Y29622571D02*
X28134328Y29765428D01*
X28134328Y29765428D02*
X28205757Y29979714D01*
X28205757Y29979714D02*
X28277185Y30051142D01*
X5928225Y30539671D02*
X6428225Y29039671D01*
X6428225Y29039671D02*
X6928225Y30539671D01*
X7428224Y29039671D02*
X7428224Y30039671D01*
X7428224Y29753957D02*
X7499653Y29896814D01*
X7499653Y29896814D02*
X7571082Y29968242D01*
X7571082Y29968242D02*
X7713939Y30039671D01*
X7713939Y30039671D02*
X7856796Y30039671D01*
X8928224Y29111100D02*
X8785367Y29039671D01*
X8785367Y29039671D02*
X8499653Y29039671D01*
X8499653Y29039671D02*
X8356795Y29111100D01*
X8356795Y29111100D02*
X8285367Y29253957D01*
X8285367Y29253957D02*
X8285367Y29825385D01*
X8285367Y29825385D02*
X8356795Y29968242D01*
X8356795Y29968242D02*
X8499653Y30039671D01*
X8499653Y30039671D02*
X8785367Y30039671D01*
X8785367Y30039671D02*
X8928224Y29968242D01*
X8928224Y29968242D02*
X8999653Y29825385D01*
X8999653Y29825385D02*
X8999653Y29682528D01*
X8999653Y29682528D02*
X8285367Y29539671D01*
X9428224Y30039671D02*
X9999652Y30039671D01*
X9642509Y29039671D02*
X9642509Y30325385D01*
X9642509Y30325385D02*
X9713938Y30468242D01*
X9713938Y30468242D02*
X9856795Y30539671D01*
X9856795Y30539671D02*
X9999652Y30539671D01*
X9017143Y39866242D02*
X8874286Y39937671D01*
X8874286Y39937671D02*
X8660000Y39937671D01*
X8660000Y39937671D02*
X8445714Y39866242D01*
X8445714Y39866242D02*
X8302857Y39723385D01*
X8302857Y39723385D02*
X8231428Y39580528D01*
X8231428Y39580528D02*
X8160000Y39294814D01*
X8160000Y39294814D02*
X8160000Y39080528D01*
X8160000Y39080528D02*
X8231428Y38794814D01*
X8231428Y38794814D02*
X8302857Y38651957D01*
X8302857Y38651957D02*
X8445714Y38509100D01*
X8445714Y38509100D02*
X8660000Y38437671D01*
X8660000Y38437671D02*
X8802857Y38437671D01*
X8802857Y38437671D02*
X9017143Y38509100D01*
X9017143Y38509100D02*
X9088571Y38580528D01*
X9088571Y38580528D02*
X9088571Y39080528D01*
X9088571Y39080528D02*
X8802857Y39080528D01*
X9731428Y38437671D02*
X9731428Y39937671D01*
X9731428Y39937671D02*
X10588571Y38437671D01*
X10588571Y38437671D02*
X10588571Y39937671D01*
X11302857Y38437671D02*
X11302857Y39937671D01*
X11302857Y39937671D02*
X11660000Y39937671D01*
X11660000Y39937671D02*
X11874286Y39866242D01*
X11874286Y39866242D02*
X12017143Y39723385D01*
X12017143Y39723385D02*
X12088572Y39580528D01*
X12088572Y39580528D02*
X12160000Y39294814D01*
X12160000Y39294814D02*
X12160000Y39080528D01*
X12160000Y39080528D02*
X12088572Y38794814D01*
X12088572Y38794814D02*
X12017143Y38651957D01*
X12017143Y38651957D02*
X11874286Y38509100D01*
X11874286Y38509100D02*
X11660000Y38437671D01*
X11660000Y38437671D02*
X11302857Y38437671D01*
X1810000Y22919671D02*
X2310000Y21419671D01*
X2310000Y21419671D02*
X2810000Y22919671D01*
X4167142Y21562528D02*
X4095714Y21491100D01*
X4095714Y21491100D02*
X3881428Y21419671D01*
X3881428Y21419671D02*
X3738571Y21419671D01*
X3738571Y21419671D02*
X3524285Y21491100D01*
X3524285Y21491100D02*
X3381428Y21633957D01*
X3381428Y21633957D02*
X3309999Y21776814D01*
X3309999Y21776814D02*
X3238571Y22062528D01*
X3238571Y22062528D02*
X3238571Y22276814D01*
X3238571Y22276814D02*
X3309999Y22562528D01*
X3309999Y22562528D02*
X3381428Y22705385D01*
X3381428Y22705385D02*
X3524285Y22848242D01*
X3524285Y22848242D02*
X3738571Y22919671D01*
X3738571Y22919671D02*
X3881428Y22919671D01*
X3881428Y22919671D02*
X4095714Y22848242D01*
X4095714Y22848242D02*
X4167142Y22776814D01*
X5667142Y21562528D02*
X5595714Y21491100D01*
X5595714Y21491100D02*
X5381428Y21419671D01*
X5381428Y21419671D02*
X5238571Y21419671D01*
X5238571Y21419671D02*
X5024285Y21491100D01*
X5024285Y21491100D02*
X4881428Y21633957D01*
X4881428Y21633957D02*
X4809999Y21776814D01*
X4809999Y21776814D02*
X4738571Y22062528D01*
X4738571Y22062528D02*
X4738571Y22276814D01*
X4738571Y22276814D02*
X4809999Y22562528D01*
X4809999Y22562528D02*
X4881428Y22705385D01*
X4881428Y22705385D02*
X5024285Y22848242D01*
X5024285Y22848242D02*
X5238571Y22919671D01*
X5238571Y22919671D02*
X5381428Y22919671D01*
X5381428Y22919671D02*
X5595714Y22848242D01*
X5595714Y22848242D02*
X5667142Y22776814D01*
X25273143Y22594242D02*
X25130286Y22665671D01*
X25130286Y22665671D02*
X24916000Y22665671D01*
X24916000Y22665671D02*
X24701714Y22594242D01*
X24701714Y22594242D02*
X24558857Y22451385D01*
X24558857Y22451385D02*
X24487428Y22308528D01*
X24487428Y22308528D02*
X24416000Y22022814D01*
X24416000Y22022814D02*
X24416000Y21808528D01*
X24416000Y21808528D02*
X24487428Y21522814D01*
X24487428Y21522814D02*
X24558857Y21379957D01*
X24558857Y21379957D02*
X24701714Y21237100D01*
X24701714Y21237100D02*
X24916000Y21165671D01*
X24916000Y21165671D02*
X25058857Y21165671D01*
X25058857Y21165671D02*
X25273143Y21237100D01*
X25273143Y21237100D02*
X25344571Y21308528D01*
X25344571Y21308528D02*
X25344571Y21808528D01*
X25344571Y21808528D02*
X25058857Y21808528D01*
X25987428Y21165671D02*
X25987428Y22665671D01*
X25987428Y22665671D02*
X26844571Y21165671D01*
X26844571Y21165671D02*
X26844571Y22665671D01*
X27558857Y21165671D02*
X27558857Y22665671D01*
X27558857Y22665671D02*
X27916000Y22665671D01*
X27916000Y22665671D02*
X28130286Y22594242D01*
X28130286Y22594242D02*
X28273143Y22451385D01*
X28273143Y22451385D02*
X28344572Y22308528D01*
X28344572Y22308528D02*
X28416000Y22022814D01*
X28416000Y22022814D02*
X28416000Y21808528D01*
X28416000Y21808528D02*
X28344572Y21522814D01*
X28344572Y21522814D02*
X28273143Y21379957D01*
X28273143Y21379957D02*
X28130286Y21237100D01*
X28130286Y21237100D02*
X27916000Y21165671D01*
X27916000Y21165671D02*
X27558857Y21165671D01*
X22856143Y31214528D02*
X22784715Y31143100D01*
X22784715Y31143100D02*
X22570429Y31071671D01*
X22570429Y31071671D02*
X22427572Y31071671D01*
X22427572Y31071671D02*
X22213286Y31143100D01*
X22213286Y31143100D02*
X22070429Y31285957D01*
X22070429Y31285957D02*
X21999000Y31428814D01*
X21999000Y31428814D02*
X21927572Y31714528D01*
X21927572Y31714528D02*
X21927572Y31928814D01*
X21927572Y31928814D02*
X21999000Y32214528D01*
X21999000Y32214528D02*
X22070429Y32357385D01*
X22070429Y32357385D02*
X22213286Y32500242D01*
X22213286Y32500242D02*
X22427572Y32571671D01*
X22427572Y32571671D02*
X22570429Y32571671D01*
X22570429Y32571671D02*
X22784715Y32500242D01*
X22784715Y32500242D02*
X22856143Y32428814D01*
X23427572Y31500242D02*
X24141858Y31500242D01*
X23284715Y31071671D02*
X23784715Y32571671D01*
X23784715Y32571671D02*
X24284715Y31071671D01*
X25570429Y31071671D02*
X24713286Y31071671D01*
X25141857Y31071671D02*
X25141857Y32571671D01*
X25141857Y32571671D02*
X24999000Y32357385D01*
X24999000Y32357385D02*
X24856143Y32214528D01*
X24856143Y32214528D02*
X24713286Y32143100D01*
X15958572Y30889100D02*
X16172858Y30817671D01*
X16172858Y30817671D02*
X16530000Y30817671D01*
X16530000Y30817671D02*
X16672858Y30889100D01*
X16672858Y30889100D02*
X16744286Y30960528D01*
X16744286Y30960528D02*
X16815715Y31103385D01*
X16815715Y31103385D02*
X16815715Y31246242D01*
X16815715Y31246242D02*
X16744286Y31389100D01*
X16744286Y31389100D02*
X16672858Y31460528D01*
X16672858Y31460528D02*
X16530000Y31531957D01*
X16530000Y31531957D02*
X16244286Y31603385D01*
X16244286Y31603385D02*
X16101429Y31674814D01*
X16101429Y31674814D02*
X16030000Y31746242D01*
X16030000Y31746242D02*
X15958572Y31889100D01*
X15958572Y31889100D02*
X15958572Y32031957D01*
X15958572Y32031957D02*
X16030000Y32174814D01*
X16030000Y32174814D02*
X16101429Y32246242D01*
X16101429Y32246242D02*
X16244286Y32317671D01*
X16244286Y32317671D02*
X16601429Y32317671D01*
X16601429Y32317671D02*
X16815715Y32246242D01*
X17458571Y30817671D02*
X17458571Y32317671D01*
X17458571Y32317671D02*
X17815714Y32317671D01*
X17815714Y32317671D02*
X18030000Y32246242D01*
X18030000Y32246242D02*
X18172857Y32103385D01*
X18172857Y32103385D02*
X18244286Y31960528D01*
X18244286Y31960528D02*
X18315714Y31674814D01*
X18315714Y31674814D02*
X18315714Y31460528D01*
X18315714Y31460528D02*
X18244286Y31174814D01*
X18244286Y31174814D02*
X18172857Y31031957D01*
X18172857Y31031957D02*
X18030000Y30889100D01*
X18030000Y30889100D02*
X17815714Y30817671D01*
X17815714Y30817671D02*
X17458571Y30817671D01*
X18887143Y31246242D02*
X19601429Y31246242D01*
X18744286Y30817671D02*
X19244286Y32317671D01*
X19244286Y32317671D02*
X19744286Y30817671D01*
X10914286Y30889100D02*
X11128572Y30817671D01*
X11128572Y30817671D02*
X11485714Y30817671D01*
X11485714Y30817671D02*
X11628572Y30889100D01*
X11628572Y30889100D02*
X11700000Y30960528D01*
X11700000Y30960528D02*
X11771429Y31103385D01*
X11771429Y31103385D02*
X11771429Y31246242D01*
X11771429Y31246242D02*
X11700000Y31389100D01*
X11700000Y31389100D02*
X11628572Y31460528D01*
X11628572Y31460528D02*
X11485714Y31531957D01*
X11485714Y31531957D02*
X11200000Y31603385D01*
X11200000Y31603385D02*
X11057143Y31674814D01*
X11057143Y31674814D02*
X10985714Y31746242D01*
X10985714Y31746242D02*
X10914286Y31889100D01*
X10914286Y31889100D02*
X10914286Y32031957D01*
X10914286Y32031957D02*
X10985714Y32174814D01*
X10985714Y32174814D02*
X11057143Y32246242D01*
X11057143Y32246242D02*
X11200000Y32317671D01*
X11200000Y32317671D02*
X11557143Y32317671D01*
X11557143Y32317671D02*
X11771429Y32246242D01*
X13271428Y30960528D02*
X13200000Y30889100D01*
X13200000Y30889100D02*
X12985714Y30817671D01*
X12985714Y30817671D02*
X12842857Y30817671D01*
X12842857Y30817671D02*
X12628571Y30889100D01*
X12628571Y30889100D02*
X12485714Y31031957D01*
X12485714Y31031957D02*
X12414285Y31174814D01*
X12414285Y31174814D02*
X12342857Y31460528D01*
X12342857Y31460528D02*
X12342857Y31674814D01*
X12342857Y31674814D02*
X12414285Y31960528D01*
X12414285Y31960528D02*
X12485714Y32103385D01*
X12485714Y32103385D02*
X12628571Y32246242D01*
X12628571Y32246242D02*
X12842857Y32317671D01*
X12842857Y32317671D02*
X12985714Y32317671D01*
X12985714Y32317671D02*
X13200000Y32246242D01*
X13200000Y32246242D02*
X13271428Y32174814D01*
X14628571Y30817671D02*
X13914285Y30817671D01*
X13914285Y30817671D02*
X13914285Y32317671D01*
X27856328Y8799429D02*
X26356328Y8799429D01*
X26499185Y9442287D02*
X26427757Y9513715D01*
X26427757Y9513715D02*
X26356328Y9656573D01*
X26356328Y9656573D02*
X26356328Y10013715D01*
X26356328Y10013715D02*
X26427757Y10156573D01*
X26427757Y10156573D02*
X26499185Y10228001D01*
X26499185Y10228001D02*
X26642042Y10299430D01*
X26642042Y10299430D02*
X26784900Y10299430D01*
X26784900Y10299430D02*
X26999185Y10228001D01*
X26999185Y10228001D02*
X27856328Y9370858D01*
X27856328Y9370858D02*
X27856328Y10299430D01*
X27713471Y11799429D02*
X27784900Y11728001D01*
X27784900Y11728001D02*
X27856328Y11513715D01*
X27856328Y11513715D02*
X27856328Y11370858D01*
X27856328Y11370858D02*
X27784900Y11156572D01*
X27784900Y11156572D02*
X27642042Y11013715D01*
X27642042Y11013715D02*
X27499185Y10942286D01*
X27499185Y10942286D02*
X27213471Y10870858D01*
X27213471Y10870858D02*
X26999185Y10870858D01*
X26999185Y10870858D02*
X26713471Y10942286D01*
X26713471Y10942286D02*
X26570614Y11013715D01*
X26570614Y11013715D02*
X26427757Y11156572D01*
X26427757Y11156572D02*
X26356328Y11370858D01*
X26356328Y11370858D02*
X26356328Y11513715D01*
X26356328Y11513715D02*
X26427757Y11728001D01*
X26427757Y11728001D02*
X26499185Y11799429D01*
X27427757Y12370858D02*
X27427757Y13085144D01*
X27856328Y12228001D02*
X26356328Y12728001D01*
X26356328Y12728001D02*
X27856328Y13228001D01*
X27856328Y13728000D02*
X26356328Y13728000D01*
X26356328Y13728000D02*
X26356328Y14085143D01*
X26356328Y14085143D02*
X26427757Y14299429D01*
X26427757Y14299429D02*
X26570614Y14442286D01*
X26570614Y14442286D02*
X26713471Y14513715D01*
X26713471Y14513715D02*
X26999185Y14585143D01*
X26999185Y14585143D02*
X27213471Y14585143D01*
X27213471Y14585143D02*
X27499185Y14513715D01*
X27499185Y14513715D02*
X27642042Y14442286D01*
X27642042Y14442286D02*
X27784900Y14299429D01*
X27784900Y14299429D02*
X27856328Y14085143D01*
X27856328Y14085143D02*
X27856328Y13728000D01*
X27713471Y16085143D02*
X27784900Y16013715D01*
X27784900Y16013715D02*
X27856328Y15799429D01*
X27856328Y15799429D02*
X27856328Y15656572D01*
X27856328Y15656572D02*
X27784900Y15442286D01*
X27784900Y15442286D02*
X27642042Y15299429D01*
X27642042Y15299429D02*
X27499185Y15228000D01*
X27499185Y15228000D02*
X27213471Y15156572D01*
X27213471Y15156572D02*
X26999185Y15156572D01*
X26999185Y15156572D02*
X26713471Y15228000D01*
X26713471Y15228000D02*
X26570614Y15299429D01*
X26570614Y15299429D02*
X26427757Y15442286D01*
X26427757Y15442286D02*
X26356328Y15656572D01*
X26356328Y15656572D02*
X26356328Y15799429D01*
X26356328Y15799429D02*
X26427757Y16013715D01*
X26427757Y16013715D02*
X26499185Y16085143D01*
X26356328Y17013715D02*
X26356328Y17156572D01*
X26356328Y17156572D02*
X26427757Y17299429D01*
X26427757Y17299429D02*
X26499185Y17370858D01*
X26499185Y17370858D02*
X26642042Y17442286D01*
X26642042Y17442286D02*
X26927757Y17513715D01*
X26927757Y17513715D02*
X27284900Y17513715D01*
X27284900Y17513715D02*
X27570614Y17442286D01*
X27570614Y17442286D02*
X27713471Y17370858D01*
X27713471Y17370858D02*
X27784900Y17299429D01*
X27784900Y17299429D02*
X27856328Y17156572D01*
X27856328Y17156572D02*
X27856328Y17013715D01*
X27856328Y17013715D02*
X27784900Y16870858D01*
X27784900Y16870858D02*
X27713471Y16799429D01*
X27713471Y16799429D02*
X27570614Y16728000D01*
X27570614Y16728000D02*
X27284900Y16656572D01*
X27284900Y16656572D02*
X26927757Y16656572D01*
X26927757Y16656572D02*
X26642042Y16728000D01*
X26642042Y16728000D02*
X26499185Y16799429D01*
X26499185Y16799429D02*
X26427757Y16870858D01*
X26427757Y16870858D02*
X26356328Y17013715D01*
X27856328Y18942286D02*
X27856328Y18085143D01*
X27856328Y18513714D02*
X26356328Y18513714D01*
X26356328Y18513714D02*
X26570614Y18370857D01*
X26570614Y18370857D02*
X26713471Y18228000D01*
X26713471Y18228000D02*
X26784900Y18085143D01*
X27427757Y19513714D02*
X27427757Y20228000D01*
X27856328Y19370857D02*
X26356328Y19870857D01*
X26356328Y19870857D02*
X27856328Y20370857D01*
X5005286Y19054242D02*
X5719572Y19054242D01*
X4862429Y18625671D02*
X5362429Y20125671D01*
X5362429Y20125671D02*
X5862429Y18625671D01*
X6362428Y18625671D02*
X6362428Y20125671D01*
X6362428Y20125671D02*
X6719571Y20125671D01*
X6719571Y20125671D02*
X6933857Y20054242D01*
X6933857Y20054242D02*
X7076714Y19911385D01*
X7076714Y19911385D02*
X7148143Y19768528D01*
X7148143Y19768528D02*
X7219571Y19482814D01*
X7219571Y19482814D02*
X7219571Y19268528D01*
X7219571Y19268528D02*
X7148143Y18982814D01*
X7148143Y18982814D02*
X7076714Y18839957D01*
X7076714Y18839957D02*
X6933857Y18697100D01*
X6933857Y18697100D02*
X6719571Y18625671D01*
X6719571Y18625671D02*
X6362428Y18625671D01*
X8719571Y18625671D02*
X8219571Y19339957D01*
X7862428Y18625671D02*
X7862428Y20125671D01*
X7862428Y20125671D02*
X8433857Y20125671D01*
X8433857Y20125671D02*
X8576714Y20054242D01*
X8576714Y20054242D02*
X8648143Y19982814D01*
X8648143Y19982814D02*
X8719571Y19839957D01*
X8719571Y19839957D02*
X8719571Y19625671D01*
X8719571Y19625671D02*
X8648143Y19482814D01*
X8648143Y19482814D02*
X8576714Y19411385D01*
X8576714Y19411385D02*
X8433857Y19339957D01*
X8433857Y19339957D02*
X7862428Y19339957D01*
X9362428Y18768528D02*
X9433857Y18697100D01*
X9433857Y18697100D02*
X9362428Y18625671D01*
X9362428Y18625671D02*
X9291000Y18697100D01*
X9291000Y18697100D02*
X9362428Y18768528D01*
X9362428Y18768528D02*
X9362428Y18625671D01*
X11505286Y20125671D02*
X11648143Y20125671D01*
X11648143Y20125671D02*
X11791000Y20054242D01*
X11791000Y20054242D02*
X11862429Y19982814D01*
X11862429Y19982814D02*
X11933857Y19839957D01*
X11933857Y19839957D02*
X12005286Y19554242D01*
X12005286Y19554242D02*
X12005286Y19197100D01*
X12005286Y19197100D02*
X11933857Y18911385D01*
X11933857Y18911385D02*
X11862429Y18768528D01*
X11862429Y18768528D02*
X11791000Y18697100D01*
X11791000Y18697100D02*
X11648143Y18625671D01*
X11648143Y18625671D02*
X11505286Y18625671D01*
X11505286Y18625671D02*
X11362429Y18697100D01*
X11362429Y18697100D02*
X11291000Y18768528D01*
X11291000Y18768528D02*
X11219571Y18911385D01*
X11219571Y18911385D02*
X11148143Y19197100D01*
X11148143Y19197100D02*
X11148143Y19554242D01*
X11148143Y19554242D02*
X11219571Y19839957D01*
X11219571Y19839957D02*
X11291000Y19982814D01*
X11291000Y19982814D02*
X11362429Y20054242D01*
X11362429Y20054242D02*
X11505286Y20125671D01*
X12505285Y18625671D02*
X13291000Y19625671D01*
X12505285Y19625671D02*
X13291000Y18625671D01*
X13791000Y19982814D02*
X13862428Y20054242D01*
X13862428Y20054242D02*
X14005286Y20125671D01*
X14005286Y20125671D02*
X14362428Y20125671D01*
X14362428Y20125671D02*
X14505286Y20054242D01*
X14505286Y20054242D02*
X14576714Y19982814D01*
X14576714Y19982814D02*
X14648143Y19839957D01*
X14648143Y19839957D02*
X14648143Y19697100D01*
X14648143Y19697100D02*
X14576714Y19482814D01*
X14576714Y19482814D02*
X13719571Y18625671D01*
X13719571Y18625671D02*
X14648143Y18625671D01*
X15933857Y19625671D02*
X15933857Y18625671D01*
X15576714Y20197100D02*
X15219571Y19125671D01*
X15219571Y19125671D02*
X16148142Y19125671D01*
X10076328Y8682510D02*
X8576328Y8682510D01*
X10076328Y9396796D02*
X8576328Y9396796D01*
X8576328Y9396796D02*
X10076328Y10253939D01*
X10076328Y10253939D02*
X8576328Y10253939D01*
X9504900Y10968225D02*
X9504900Y12111083D01*
X2202328Y9489713D02*
X702328Y9489713D01*
X702328Y9489713D02*
X702328Y10061142D01*
X702328Y10061142D02*
X773757Y10203999D01*
X773757Y10203999D02*
X845185Y10275428D01*
X845185Y10275428D02*
X988042Y10346856D01*
X988042Y10346856D02*
X1202328Y10346856D01*
X1202328Y10346856D02*
X1345185Y10275428D01*
X1345185Y10275428D02*
X1416614Y10203999D01*
X1416614Y10203999D02*
X1488042Y10061142D01*
X1488042Y10061142D02*
X1488042Y9489713D01*
X702328Y11275428D02*
X702328Y11561142D01*
X702328Y11561142D02*
X773757Y11703999D01*
X773757Y11703999D02*
X916614Y11846856D01*
X916614Y11846856D02*
X1202328Y11918285D01*
X1202328Y11918285D02*
X1702328Y11918285D01*
X1702328Y11918285D02*
X1988042Y11846856D01*
X1988042Y11846856D02*
X2130900Y11703999D01*
X2130900Y11703999D02*
X2202328Y11561142D01*
X2202328Y11561142D02*
X2202328Y11275428D01*
X2202328Y11275428D02*
X2130900Y11132571D01*
X2130900Y11132571D02*
X1988042Y10989713D01*
X1988042Y10989713D02*
X1702328Y10918285D01*
X1702328Y10918285D02*
X1202328Y10918285D01*
X1202328Y10918285D02*
X916614Y10989713D01*
X916614Y10989713D02*
X773757Y11132571D01*
X773757Y11132571D02*
X702328Y11275428D01*
X702328Y12418285D02*
X2202328Y12775428D01*
X2202328Y12775428D02*
X1130900Y13061142D01*
X1130900Y13061142D02*
X2202328Y13346857D01*
X2202328Y13346857D02*
X702328Y13704000D01*
X1416614Y14275428D02*
X1416614Y14775428D01*
X2202328Y14989714D02*
X2202328Y14275428D01*
X2202328Y14275428D02*
X702328Y14275428D01*
X702328Y14275428D02*
X702328Y14989714D01*
X2202328Y16489714D02*
X1488042Y15989714D01*
X2202328Y15632571D02*
X702328Y15632571D01*
X702328Y15632571D02*
X702328Y16204000D01*
X702328Y16204000D02*
X773757Y16346857D01*
X773757Y16346857D02*
X845185Y16418286D01*
X845185Y16418286D02*
X988042Y16489714D01*
X988042Y16489714D02*
X1202328Y16489714D01*
X1202328Y16489714D02*
X1345185Y16418286D01*
X1345185Y16418286D02*
X1416614Y16346857D01*
X1416614Y16346857D02*
X1488042Y16204000D01*
X1488042Y16204000D02*
X1488042Y15632571D01*
X22776328Y8682510D02*
X21276328Y8682510D01*
X22776328Y9396796D02*
X21276328Y9396796D01*
X21276328Y9396796D02*
X22776328Y10253939D01*
X22776328Y10253939D02*
X21276328Y10253939D01*
X22204900Y10968225D02*
X22204900Y12111083D01*
X22776328Y11539654D02*
X21633471Y11539654D01*
X25570328Y10156571D02*
X24070328Y10156571D01*
X24070328Y10156571D02*
X25141757Y10656571D01*
X25141757Y10656571D02*
X24070328Y11156571D01*
X24070328Y11156571D02*
X25570328Y11156571D01*
X25570328Y12585143D02*
X25570328Y11870857D01*
X25570328Y11870857D02*
X24070328Y11870857D01*
X25141757Y13013715D02*
X25141757Y13728001D01*
X25570328Y12870858D02*
X24070328Y13370858D01*
X24070328Y13370858D02*
X25570328Y13870858D01*
X24784614Y14870857D02*
X24856042Y15085143D01*
X24856042Y15085143D02*
X24927471Y15156572D01*
X24927471Y15156572D02*
X25070328Y15228000D01*
X25070328Y15228000D02*
X25284614Y15228000D01*
X25284614Y15228000D02*
X25427471Y15156572D01*
X25427471Y15156572D02*
X25498900Y15085143D01*
X25498900Y15085143D02*
X25570328Y14942286D01*
X25570328Y14942286D02*
X25570328Y14370857D01*
X25570328Y14370857D02*
X24070328Y14370857D01*
X24070328Y14370857D02*
X24070328Y14870857D01*
X24070328Y14870857D02*
X24141757Y15013715D01*
X24141757Y15013715D02*
X24213185Y15085143D01*
X24213185Y15085143D02*
X24356042Y15156572D01*
X24356042Y15156572D02*
X24498900Y15156572D01*
X24498900Y15156572D02*
X24641757Y15085143D01*
X24641757Y15085143D02*
X24713185Y15013715D01*
X24713185Y15013715D02*
X24784614Y14870857D01*
X24784614Y14870857D02*
X24784614Y14370857D01*
X25427471Y15870857D02*
X25498900Y15942286D01*
X25498900Y15942286D02*
X25570328Y15870857D01*
X25570328Y15870857D02*
X25498900Y15799429D01*
X25498900Y15799429D02*
X25427471Y15870857D01*
X25427471Y15870857D02*
X25570328Y15870857D01*
X25427471Y17442286D02*
X25498900Y17370858D01*
X25498900Y17370858D02*
X25570328Y17156572D01*
X25570328Y17156572D02*
X25570328Y17013715D01*
X25570328Y17013715D02*
X25498900Y16799429D01*
X25498900Y16799429D02*
X25356042Y16656572D01*
X25356042Y16656572D02*
X25213185Y16585143D01*
X25213185Y16585143D02*
X24927471Y16513715D01*
X24927471Y16513715D02*
X24713185Y16513715D01*
X24713185Y16513715D02*
X24427471Y16585143D01*
X24427471Y16585143D02*
X24284614Y16656572D01*
X24284614Y16656572D02*
X24141757Y16799429D01*
X24141757Y16799429D02*
X24070328Y17013715D01*
X24070328Y17013715D02*
X24070328Y17156572D01*
X24070328Y17156572D02*
X24141757Y17370858D01*
X24141757Y17370858D02*
X24213185Y17442286D01*
X24070328Y17942286D02*
X24070328Y18942286D01*
X24070328Y18942286D02*
X25570328Y17942286D01*
X25570328Y17942286D02*
X25570328Y18942286D01*
X18299757Y27051143D02*
X18228328Y26908286D01*
X18228328Y26908286D02*
X18228328Y26694000D01*
X18228328Y26694000D02*
X18299757Y26479714D01*
X18299757Y26479714D02*
X18442614Y26336857D01*
X18442614Y26336857D02*
X18585471Y26265428D01*
X18585471Y26265428D02*
X18871185Y26194000D01*
X18871185Y26194000D02*
X19085471Y26194000D01*
X19085471Y26194000D02*
X19371185Y26265428D01*
X19371185Y26265428D02*
X19514042Y26336857D01*
X19514042Y26336857D02*
X19656900Y26479714D01*
X19656900Y26479714D02*
X19728328Y26694000D01*
X19728328Y26694000D02*
X19728328Y26836857D01*
X19728328Y26836857D02*
X19656900Y27051143D01*
X19656900Y27051143D02*
X19585471Y27122571D01*
X19585471Y27122571D02*
X19085471Y27122571D01*
X19085471Y27122571D02*
X19085471Y26836857D01*
X19728328Y27765428D02*
X18228328Y27765428D01*
X18228328Y27765428D02*
X19728328Y28622571D01*
X19728328Y28622571D02*
X18228328Y28622571D01*
X19728328Y29336857D02*
X18228328Y29336857D01*
X18228328Y29336857D02*
X18228328Y29694000D01*
X18228328Y29694000D02*
X18299757Y29908286D01*
X18299757Y29908286D02*
X18442614Y30051143D01*
X18442614Y30051143D02*
X18585471Y30122572D01*
X18585471Y30122572D02*
X18871185Y30194000D01*
X18871185Y30194000D02*
X19085471Y30194000D01*
X19085471Y30194000D02*
X19371185Y30122572D01*
X19371185Y30122572D02*
X19514042Y30051143D01*
X19514042Y30051143D02*
X19656900Y29908286D01*
X19656900Y29908286D02*
X19728328Y29694000D01*
X19728328Y29694000D02*
X19728328Y29336857D01*
X13240000Y39937671D02*
X13740000Y38437671D01*
X13740000Y38437671D02*
X14240000Y39937671D01*
X14739999Y38437671D02*
X14739999Y39937671D01*
X14739999Y39937671D02*
X15097142Y39937671D01*
X15097142Y39937671D02*
X15311428Y39866242D01*
X15311428Y39866242D02*
X15454285Y39723385D01*
X15454285Y39723385D02*
X15525714Y39580528D01*
X15525714Y39580528D02*
X15597142Y39294814D01*
X15597142Y39294814D02*
X15597142Y39080528D01*
X15597142Y39080528D02*
X15525714Y38794814D01*
X15525714Y38794814D02*
X15454285Y38651957D01*
X15454285Y38651957D02*
X15311428Y38509100D01*
X15311428Y38509100D02*
X15097142Y38437671D01*
X15097142Y38437671D02*
X14739999Y38437671D01*
X16239999Y38437671D02*
X16239999Y39937671D01*
X16239999Y39937671D02*
X16597142Y39937671D01*
X16597142Y39937671D02*
X16811428Y39866242D01*
X16811428Y39866242D02*
X16954285Y39723385D01*
X16954285Y39723385D02*
X17025714Y39580528D01*
X17025714Y39580528D02*
X17097142Y39294814D01*
X17097142Y39294814D02*
X17097142Y39080528D01*
X17097142Y39080528D02*
X17025714Y38794814D01*
X17025714Y38794814D02*
X16954285Y38651957D01*
X16954285Y38651957D02*
X16811428Y38509100D01*
X16811428Y38509100D02*
X16597142Y38437671D01*
X16597142Y38437671D02*
X16239999Y38437671D01*
D11*
%TO.C,J1*%
X2301857Y15265290D02*
X2016143Y15265290D01*
X2159000Y15265290D02*
X2159000Y15765290D01*
X2159000Y15765290D02*
X2111381Y15693861D01*
X2111381Y15693861D02*
X2063762Y15646242D01*
X2063762Y15646242D02*
X2016143Y15622433D01*
D12*
%TO.C,P2*%
X18106324Y7547429D02*
X18106324Y8708571D01*
D11*
%TO.C,J4*%
X2365357Y29616290D02*
X2079643Y29616290D01*
X2222500Y29616290D02*
X2222500Y30116290D01*
X2222500Y30116290D02*
X2174881Y30044861D01*
X2174881Y30044861D02*
X2127262Y29997242D01*
X2127262Y29997242D02*
X2079643Y29973433D01*
D13*
%TO.C,J1*%
X7620000Y16764000D02*
X7620000Y9144000D01*
X2540000Y9144000D02*
X2540000Y16764000D01*
X7620000Y9144000D02*
X2540000Y9144000D01*
X2540000Y16764000D02*
X7620000Y16764000D01*
%TO.C,J3*%
X23876000Y19812000D02*
X18796000Y19812000D01*
X18796000Y19812000D02*
X18796000Y22352000D01*
X23876000Y22352000D02*
X23876000Y19812000D01*
X18796000Y22352000D02*
X23876000Y22352000D01*
%TO.C,J5*%
X27686000Y25654000D02*
X22606000Y25654000D01*
X22606000Y28194000D02*
X27686000Y28194000D01*
X22606000Y25654000D02*
X22606000Y28194000D01*
X27686000Y28194000D02*
X27686000Y25654000D01*
%TO.C,J6*%
X22606000Y30734000D02*
X27686000Y30734000D01*
X27686000Y30734000D02*
X27686000Y28194000D01*
X22606000Y28194000D02*
X22606000Y30734000D01*
X27686000Y28194000D02*
X22606000Y28194000D01*
%TO.C,J7*%
X8890000Y38036500D02*
X21590000Y38036500D01*
X21590000Y32956500D02*
X8890000Y32956500D01*
X8890000Y32956500D02*
X8890000Y38036500D01*
X21590000Y38036500D02*
X21590000Y32956500D01*
%TO.C,P1*%
X20288000Y14414000D02*
X20288000Y17914100D01*
X15788000Y9414000D02*
X15788000Y15414000D01*
X16788000Y11414000D02*
X16788000Y14414000D01*
X15788000Y414000D02*
X15788000Y9414000D01*
X20788100Y414000D02*
X15787900Y414000D01*
X19788100Y11414000D02*
X16787900Y11414000D01*
X19788000Y11414000D02*
X19788000Y14414000D01*
X17288000Y8913900D02*
X17288000Y9414000D01*
X20788100Y9414000D02*
X15787900Y9414000D01*
X20788000Y15414000D02*
X20288000Y15414000D01*
X20788000Y9414000D02*
X20788000Y414000D01*
X16288000Y913900D02*
X16288000Y8913900D01*
X19789000Y17414000D02*
X16787000Y17414000D01*
X16288000Y14414000D02*
X20288000Y14414000D01*
X19288000Y8913900D02*
X19288000Y9414000D01*
X19789000Y14914100D02*
X16787000Y14914100D01*
X20288000Y913900D02*
X20288000Y8913900D01*
X19788000Y14914100D02*
X19788000Y17414000D01*
X16788000Y14914100D02*
X16788000Y17414000D01*
X16288000Y14414000D02*
X16288000Y17915000D01*
X16288000Y15414000D02*
X15788000Y15414000D01*
X16288000Y17914100D02*
X20288000Y17914100D01*
X16288000Y8913900D02*
X20288000Y8913900D01*
X20288000Y913900D02*
X16288000Y913900D01*
X20788000Y9414000D02*
X20788000Y15414000D01*
%TO.C,P2*%
X11208000Y8913900D02*
X15208000Y8913900D01*
X10708000Y414000D02*
X10708000Y9414000D01*
X14208000Y8913900D02*
X14208000Y9414000D01*
X14708000Y11414000D02*
X14708000Y14414000D01*
X10708000Y9414000D02*
X10708000Y15414000D01*
X15708000Y9414000D02*
X15708000Y15414000D01*
X15708000Y15414000D02*
X15208000Y15414000D01*
X15208000Y913900D02*
X15208000Y8913900D01*
X11208000Y15414000D02*
X10708000Y15414000D01*
X14709000Y14914100D02*
X11707000Y14914100D01*
X15708100Y414000D02*
X10707900Y414000D01*
X15208000Y913900D02*
X11208000Y913900D01*
X14708100Y11414000D02*
X11707900Y11414000D01*
X11208000Y14414000D02*
X11208000Y17915000D01*
X11208000Y913900D02*
X11208000Y8913900D01*
X15708000Y9414000D02*
X15708000Y414000D01*
X11708000Y14914100D02*
X11708000Y17414000D01*
X11208000Y14414000D02*
X15208000Y14414000D01*
X14708000Y14914100D02*
X14708000Y17414000D01*
X15208000Y14414000D02*
X15208000Y17914100D01*
X12208000Y8913900D02*
X12208000Y9414000D01*
X11208000Y17914100D02*
X15208000Y17914100D01*
X11708000Y11414000D02*
X11708000Y14414000D01*
X14709000Y17414000D02*
X11707000Y17414000D01*
X15708100Y9414000D02*
X10707900Y9414000D01*
%TO.C,J4*%
X2603500Y31115000D02*
X5143500Y31115000D01*
X5143500Y31115000D02*
X5143500Y23495000D01*
X5143500Y23495000D02*
X2603500Y23495000D01*
X2603500Y23495000D02*
X2603500Y31115000D01*
%TO.C,J8*%
X22606000Y30734000D02*
X22606000Y25654000D01*
X20066000Y30734000D02*
X22606000Y30734000D01*
X22606000Y25654000D02*
X20066000Y25654000D01*
X20066000Y25654000D02*
X20066000Y30734000D01*
%TD*%
D14*
%TO.C,J1*%
X3810000Y15494000D03*
X6350000Y15494000D03*
X3810000Y12954000D03*
X6350000Y12954000D03*
X3810000Y10414000D03*
X6350000Y10414000D03*
%TD*%
%TO.C,J3*%
X22606000Y21082000D03*
X20066000Y21082000D03*
%TD*%
%TO.C,J5*%
X26416000Y26924000D03*
X23876000Y26924000D03*
%TD*%
%TO.C,J6*%
X26416000Y29464000D03*
X23876000Y29464000D03*
%TD*%
%TO.C,J7*%
X20320000Y36766500D03*
X20320000Y34226500D03*
X17780000Y36766500D03*
X17780000Y34226500D03*
X15240000Y36766500D03*
X15240000Y34226500D03*
X12700000Y36766500D03*
X12700000Y34226500D03*
X10160000Y36766500D03*
X10160000Y34226500D03*
%TD*%
D15*
%TO.C,P1*%
X18288000Y5414000D03*
X18288000Y10414000D03*
%TD*%
%TO.C,P2*%
X13208000Y10414000D03*
X13208000Y5414000D03*
%TD*%
D14*
%TO.C,J4*%
X3873500Y29845000D03*
X3873500Y27305000D03*
X3873500Y24765000D03*
%TD*%
%TO.C,J8*%
X21336000Y26924000D03*
X21336000Y29464000D03*
%TD*%
M02*
