M48
; DRILL file {KiCad 7.0.5.1-1-g8f565ef7f0-dirty-deb11} date Fri Jul 21 03:43:27 2023
; FORMAT={3:3/ absolute / metric / suppress leading zeros}
; #@! TF.CreationDate,2023-07-21T03:43:27+00:00
; #@! TF.GenerationSoftware,Kicad,Pcbnew,7.0.5.1-1-g8f565ef7f0-dirty-deb11
; #@! TF.FileFunction,Plated,1,2,PTH
FMAT,2
METRIC,TZ
; #@! TA.AperFunction,Plated,PTH,ViaDrill
T1C0.635
; #@! TA.AperFunction,Plated,PTH,ComponentDrill
T2C0.889
; #@! TA.AperFunction,Plated,PTH,ComponentDrill
T3C1.300
; #@! TA.AperFunction,Plated,PTH,ComponentDrill
T4C3.000
%
G90
G05
T1
X7758Y31310
X15748Y23178
X17653Y27686
X20402Y24041
T2
X3810Y15494
X3810Y12954
X3810Y10414
X3874Y29845
X3874Y27305
X3874Y24765
X6350Y15494
X6350Y12954
X6350Y10414
X10160Y36767
X10160Y34227
X12700Y36767
X12700Y34227
X15240Y36767
X15240Y34227
X17780Y36767
X17780Y34227
X20066Y21082
X20320Y36767
X20320Y34227
X21336Y29464
X21336Y26924
X22606Y21082
X23876Y29464
X23876Y26924
X26416Y29464
X26416Y26924
T3
X13208Y10414
X13208Y5414
X18288Y10414
X18288Y5414
T4
X5080Y35560
X5080Y5080
X25400Y35560
X25400Y5080
T0
M30
