%TF.GenerationSoftware,KiCad,Pcbnew,7.0.8-7.0.8~ubuntu23.04.1*%
%TF.CreationDate,2023-10-28T12:53:46+00:00*%
%TF.ProjectId,I2CADC01,49324341-4443-4303-912e-6b696361645f,rev?*%
%TF.SameCoordinates,Original*%
%TF.FileFunction,Copper,L2,Bot*%
%TF.FilePolarity,Positive*%
%FSLAX46Y46*%
G04 Gerber Fmt 4.6, Leading zero omitted, Abs format (unit mm)*
G04 Created by KiCad (PCBNEW 7.0.8-7.0.8~ubuntu23.04.1) date 2023-10-28 12:53:46*
%MOMM*%
%LPD*%
G01*
G04 APERTURE LIST*
%ADD10C,0.300000*%
%TA.AperFunction,NonConductor*%
%ADD11C,0.300000*%
%TD*%
%TA.AperFunction,ComponentPad*%
%ADD12R,1.524000X1.524000*%
%TD*%
%TA.AperFunction,ComponentPad*%
%ADD13C,6.000000*%
%TD*%
%TA.AperFunction,ComponentPad*%
%ADD14R,3.810000X3.810000*%
%TD*%
%TA.AperFunction,SMDPad,CuDef*%
%ADD15R,0.889000X1.397000*%
%TD*%
%TA.AperFunction,SMDPad,CuDef*%
%ADD16R,1.397000X0.889000*%
%TD*%
%TA.AperFunction,SMDPad,CuDef*%
%ADD17R,2.499360X1.800860*%
%TD*%
%TA.AperFunction,SMDPad,CuDef*%
%ADD18R,1.300480X1.699260*%
%TD*%
%TA.AperFunction,SMDPad,CuDef*%
%ADD19R,0.300000X0.650000*%
%TD*%
%TA.AperFunction,SMDPad,CuDef*%
%ADD20R,1.240000X0.775000*%
%TD*%
%TA.AperFunction,SMDPad,CuDef*%
%ADD21R,1.000760X0.800100*%
%TD*%
%TA.AperFunction,ViaPad*%
%ADD22C,0.889000*%
%TD*%
%TA.AperFunction,Conductor*%
%ADD23C,0.400000*%
%TD*%
%TA.AperFunction,Conductor*%
%ADD24C,0.254000*%
%TD*%
%TA.AperFunction,Conductor*%
%ADD25C,0.300000*%
%TD*%
%TA.AperFunction,Conductor*%
%ADD26C,0.500000*%
%TD*%
G04 APERTURE END LIST*
D10*
D11*
X26078328Y19053428D02*
X24578328Y19053428D01*
X24578328Y19053428D02*
X25649757Y18553428D01*
X25649757Y18553428D02*
X24578328Y18053428D01*
X24578328Y18053428D02*
X26078328Y18053428D01*
X26078328Y16624856D02*
X26078328Y17339142D01*
X26078328Y17339142D02*
X24578328Y17339142D01*
X25649757Y16196284D02*
X25649757Y15481999D01*
X26078328Y16339141D02*
X24578328Y15839141D01*
X24578328Y15839141D02*
X26078328Y15339141D01*
X25292614Y14339142D02*
X25364042Y14124856D01*
X25364042Y14124856D02*
X25435471Y14053427D01*
X25435471Y14053427D02*
X25578328Y13981999D01*
X25578328Y13981999D02*
X25792614Y13981999D01*
X25792614Y13981999D02*
X25935471Y14053427D01*
X25935471Y14053427D02*
X26006900Y14124856D01*
X26006900Y14124856D02*
X26078328Y14267713D01*
X26078328Y14267713D02*
X26078328Y14839142D01*
X26078328Y14839142D02*
X24578328Y14839142D01*
X24578328Y14839142D02*
X24578328Y14339142D01*
X24578328Y14339142D02*
X24649757Y14196285D01*
X24649757Y14196285D02*
X24721185Y14124856D01*
X24721185Y14124856D02*
X24864042Y14053427D01*
X24864042Y14053427D02*
X25006900Y14053427D01*
X25006900Y14053427D02*
X25149757Y14124856D01*
X25149757Y14124856D02*
X25221185Y14196285D01*
X25221185Y14196285D02*
X25292614Y14339142D01*
X25292614Y14339142D02*
X25292614Y14839142D01*
X25935471Y13339142D02*
X26006900Y13267713D01*
X26006900Y13267713D02*
X26078328Y13339142D01*
X26078328Y13339142D02*
X26006900Y13410570D01*
X26006900Y13410570D02*
X25935471Y13339142D01*
X25935471Y13339142D02*
X26078328Y13339142D01*
X25935471Y11767713D02*
X26006900Y11839141D01*
X26006900Y11839141D02*
X26078328Y12053427D01*
X26078328Y12053427D02*
X26078328Y12196284D01*
X26078328Y12196284D02*
X26006900Y12410570D01*
X26006900Y12410570D02*
X25864042Y12553427D01*
X25864042Y12553427D02*
X25721185Y12624856D01*
X25721185Y12624856D02*
X25435471Y12696284D01*
X25435471Y12696284D02*
X25221185Y12696284D01*
X25221185Y12696284D02*
X24935471Y12624856D01*
X24935471Y12624856D02*
X24792614Y12553427D01*
X24792614Y12553427D02*
X24649757Y12410570D01*
X24649757Y12410570D02*
X24578328Y12196284D01*
X24578328Y12196284D02*
X24578328Y12053427D01*
X24578328Y12053427D02*
X24649757Y11839141D01*
X24649757Y11839141D02*
X24721185Y11767713D01*
X24578328Y11267713D02*
X24578328Y10267713D01*
X24578328Y10267713D02*
X26078328Y11267713D01*
X26078328Y11267713D02*
X26078328Y10267713D01*
D10*
D11*
X28364328Y20156570D02*
X26864328Y20156570D01*
X27007185Y19513712D02*
X26935757Y19442284D01*
X26935757Y19442284D02*
X26864328Y19299427D01*
X26864328Y19299427D02*
X26864328Y18942284D01*
X26864328Y18942284D02*
X26935757Y18799427D01*
X26935757Y18799427D02*
X27007185Y18727998D01*
X27007185Y18727998D02*
X27150042Y18656569D01*
X27150042Y18656569D02*
X27292900Y18656569D01*
X27292900Y18656569D02*
X27507185Y18727998D01*
X27507185Y18727998D02*
X28364328Y19585141D01*
X28364328Y19585141D02*
X28364328Y18656569D01*
X28221471Y17156570D02*
X28292900Y17227998D01*
X28292900Y17227998D02*
X28364328Y17442284D01*
X28364328Y17442284D02*
X28364328Y17585141D01*
X28364328Y17585141D02*
X28292900Y17799427D01*
X28292900Y17799427D02*
X28150042Y17942284D01*
X28150042Y17942284D02*
X28007185Y18013713D01*
X28007185Y18013713D02*
X27721471Y18085141D01*
X27721471Y18085141D02*
X27507185Y18085141D01*
X27507185Y18085141D02*
X27221471Y18013713D01*
X27221471Y18013713D02*
X27078614Y17942284D01*
X27078614Y17942284D02*
X26935757Y17799427D01*
X26935757Y17799427D02*
X26864328Y17585141D01*
X26864328Y17585141D02*
X26864328Y17442284D01*
X26864328Y17442284D02*
X26935757Y17227998D01*
X26935757Y17227998D02*
X27007185Y17156570D01*
X27935757Y16585141D02*
X27935757Y15870856D01*
X28364328Y16727998D02*
X26864328Y16227998D01*
X26864328Y16227998D02*
X28364328Y15727998D01*
X28364328Y15227999D02*
X26864328Y15227999D01*
X26864328Y15227999D02*
X26864328Y14870856D01*
X26864328Y14870856D02*
X26935757Y14656570D01*
X26935757Y14656570D02*
X27078614Y14513713D01*
X27078614Y14513713D02*
X27221471Y14442284D01*
X27221471Y14442284D02*
X27507185Y14370856D01*
X27507185Y14370856D02*
X27721471Y14370856D01*
X27721471Y14370856D02*
X28007185Y14442284D01*
X28007185Y14442284D02*
X28150042Y14513713D01*
X28150042Y14513713D02*
X28292900Y14656570D01*
X28292900Y14656570D02*
X28364328Y14870856D01*
X28364328Y14870856D02*
X28364328Y15227999D01*
X28221471Y12870856D02*
X28292900Y12942284D01*
X28292900Y12942284D02*
X28364328Y13156570D01*
X28364328Y13156570D02*
X28364328Y13299427D01*
X28364328Y13299427D02*
X28292900Y13513713D01*
X28292900Y13513713D02*
X28150042Y13656570D01*
X28150042Y13656570D02*
X28007185Y13727999D01*
X28007185Y13727999D02*
X27721471Y13799427D01*
X27721471Y13799427D02*
X27507185Y13799427D01*
X27507185Y13799427D02*
X27221471Y13727999D01*
X27221471Y13727999D02*
X27078614Y13656570D01*
X27078614Y13656570D02*
X26935757Y13513713D01*
X26935757Y13513713D02*
X26864328Y13299427D01*
X26864328Y13299427D02*
X26864328Y13156570D01*
X26864328Y13156570D02*
X26935757Y12942284D01*
X26935757Y12942284D02*
X27007185Y12870856D01*
X26864328Y11942284D02*
X26864328Y11799427D01*
X26864328Y11799427D02*
X26935757Y11656570D01*
X26935757Y11656570D02*
X27007185Y11585142D01*
X27007185Y11585142D02*
X27150042Y11513713D01*
X27150042Y11513713D02*
X27435757Y11442284D01*
X27435757Y11442284D02*
X27792900Y11442284D01*
X27792900Y11442284D02*
X28078614Y11513713D01*
X28078614Y11513713D02*
X28221471Y11585142D01*
X28221471Y11585142D02*
X28292900Y11656570D01*
X28292900Y11656570D02*
X28364328Y11799427D01*
X28364328Y11799427D02*
X28364328Y11942284D01*
X28364328Y11942284D02*
X28292900Y12085142D01*
X28292900Y12085142D02*
X28221471Y12156570D01*
X28221471Y12156570D02*
X28078614Y12227999D01*
X28078614Y12227999D02*
X27792900Y12299427D01*
X27792900Y12299427D02*
X27435757Y12299427D01*
X27435757Y12299427D02*
X27150042Y12227999D01*
X27150042Y12227999D02*
X27007185Y12156570D01*
X27007185Y12156570D02*
X26935757Y12085142D01*
X26935757Y12085142D02*
X26864328Y11942284D01*
X28364328Y10013713D02*
X28364328Y10870856D01*
X28364328Y10442285D02*
X26864328Y10442285D01*
X26864328Y10442285D02*
X27078614Y10585142D01*
X27078614Y10585142D02*
X27221471Y10727999D01*
X27221471Y10727999D02*
X27292900Y10870856D01*
X27935757Y9442285D02*
X27935757Y8728000D01*
X28364328Y9585142D02*
X26864328Y9085142D01*
X26864328Y9085142D02*
X28364328Y8585142D01*
D12*
%TO.P,J1,1*%
%TO.N,GND*%
X3810000Y15494000D03*
%TO.P,J1,2*%
X6350000Y15494000D03*
%TO.P,J1,3*%
%TO.N,Net-(C5-Pad2)*%
X3810000Y12954000D03*
%TO.P,J1,4*%
X6350000Y12954000D03*
%TO.P,J1,5*%
%TO.N,GND*%
X3810000Y10414000D03*
%TO.P,J1,6*%
X6350000Y10414000D03*
%TD*%
%TO.P,J3,1*%
%TO.N,GND*%
X22606000Y21082000D03*
%TO.P,J3,2*%
%TO.N,Net-(J3-Pad2)*%
X20066000Y21082000D03*
%TD*%
%TO.P,J5,1*%
%TO.N,VCC*%
X26416000Y26924000D03*
%TO.P,J5,2*%
%TO.N,/CA0*%
X23876000Y26924000D03*
%TD*%
%TO.P,J6,1*%
%TO.N,VCC*%
X26416000Y29464000D03*
%TO.P,J6,2*%
%TO.N,/CA1*%
X23876000Y29464000D03*
%TD*%
%TO.P,J7,1*%
%TO.N,GND*%
X20320000Y36766500D03*
%TO.P,J7,2*%
X20320000Y34226500D03*
%TO.P,J7,3*%
%TO.N,/SDA*%
X17780000Y36766500D03*
%TO.P,J7,4*%
X17780000Y34226500D03*
%TO.P,J7,5*%
%TO.N,VCC*%
X15240000Y36766500D03*
%TO.P,J7,6*%
X15240000Y34226500D03*
%TO.P,J7,7*%
%TO.N,/SCL*%
X12700000Y36766500D03*
%TO.P,J7,8*%
X12700000Y34226500D03*
%TO.P,J7,9*%
%TO.N,GND*%
X10160000Y36766500D03*
%TO.P,J7,10*%
X10160000Y34226500D03*
%TD*%
D13*
%TO.P,M1,1*%
%TO.N,GND*%
X5080000Y35560000D03*
%TD*%
%TO.P,M2,1*%
%TO.N,GND*%
X25400000Y5080000D03*
%TD*%
%TO.P,M3,1*%
%TO.N,GND*%
X25400000Y35560000D03*
%TD*%
%TO.P,M4,1*%
%TO.N,GND*%
X5080000Y5080000D03*
%TD*%
D14*
%TO.P,P1,1*%
%TO.N,Net-(P1-Pad1)*%
X18288000Y5414000D03*
X18288000Y10414000D03*
%TD*%
%TO.P,P2,1*%
%TO.N,Net-(P2-Pad1)*%
X13208000Y5414000D03*
X13208000Y10414000D03*
%TD*%
D12*
%TO.P,J4,1*%
%TO.N,Net-(C8-Pad2)*%
X3873500Y29845000D03*
%TO.P,J4,2*%
%TO.N,Net-(J4-Pad2)*%
X3873500Y27305000D03*
%TO.P,J4,3*%
%TO.N,VCC*%
X3873500Y24765000D03*
%TD*%
%TO.P,J8,1*%
%TO.N,GND*%
X21336000Y26924000D03*
%TO.P,J8,2*%
X21336000Y29464000D03*
%TD*%
D15*
%TO.P,C1,1*%
%TO.N,GND*%
X22796500Y16256000D03*
%TO.P,C1,2*%
%TO.N,Net-(C1-Pad2)*%
X20891500Y16256000D03*
%TD*%
%TO.P,C2,1*%
%TO.N,Net-(C2-Pad1)*%
X10604500Y16256000D03*
%TO.P,C2,2*%
%TO.N,GND*%
X8699500Y16256000D03*
%TD*%
D16*
%TO.P,C3,1*%
%TO.N,GND*%
X21590000Y25082500D03*
%TO.P,C3,2*%
%TO.N,VCC*%
X21590000Y23177500D03*
%TD*%
%TO.P,C4,1*%
%TO.N,GND*%
X19050000Y25082500D03*
%TO.P,C4,2*%
%TO.N,VCC*%
X19050000Y23177500D03*
%TD*%
D17*
%TO.P,D1,1*%
%TO.N,GND*%
X10126980Y20574000D03*
%TO.P,D1,2*%
%TO.N,Net-(C5-Pad2)*%
X6129020Y20574000D03*
%TD*%
D18*
%TO.P,D2,1*%
%TO.N,Net-(C1-Pad2)*%
X17498060Y18542000D03*
%TO.P,D2,2*%
%TO.N,Net-(C2-Pad1)*%
X13997940Y18542000D03*
%TD*%
%TO.P,D3,1*%
%TO.N,Net-(C2-Pad1)*%
X13997940Y21336000D03*
%TO.P,D3,2*%
%TO.N,Net-(C1-Pad2)*%
X17498060Y21336000D03*
%TD*%
D16*
%TO.P,R1,1*%
%TO.N,Net-(C1-Pad2)*%
X18288000Y16192500D03*
%TO.P,R1,2*%
%TO.N,Net-(P1-Pad1)*%
X18288000Y14287500D03*
%TD*%
%TO.P,R2,1*%
%TO.N,Net-(C2-Pad1)*%
X13208000Y16192500D03*
%TO.P,R2,2*%
%TO.N,Net-(P2-Pad1)*%
X13208000Y14287500D03*
%TD*%
%TO.P,R3,1*%
%TO.N,Net-(C8-Pad2)*%
X6604000Y25336500D03*
%TO.P,R3,2*%
%TO.N,VCC*%
X6604000Y23431500D03*
%TD*%
D15*
%TO.P,R4,1*%
%TO.N,/SDA*%
X17716500Y30988000D03*
%TO.P,R4,2*%
%TO.N,VCC*%
X15811500Y30988000D03*
%TD*%
%TO.P,R5,1*%
%TO.N,/SCL*%
X12319000Y30988000D03*
%TO.P,R5,2*%
%TO.N,VCC*%
X14224000Y30988000D03*
%TD*%
D19*
%TO.P,U1,1*%
%TO.N,Net-(J4-Pad2)*%
X16430500Y24612000D03*
%TO.P,U1,2*%
%TO.N,VCC*%
X15930500Y24612000D03*
%TO.P,U1,3*%
%TO.N,Net-(J3-Pad2)*%
X15430500Y24612000D03*
%TO.P,U1,4*%
%TO.N,Net-(C1-Pad2)*%
X14930500Y24612000D03*
%TO.P,U1,5*%
%TO.N,Net-(C2-Pad1)*%
X14430500Y24612000D03*
%TO.P,U1,6*%
%TO.N,/SCL*%
X14430500Y27712000D03*
%TO.P,U1,7*%
%TO.N,/SDA*%
X14930500Y27712000D03*
%TO.P,U1,8*%
%TO.N,GND*%
X15430500Y27712000D03*
%TO.P,U1,9*%
%TO.N,/CA1*%
X15930500Y27712000D03*
%TO.P,U1,10*%
%TO.N,/CA0*%
X16430500Y27712000D03*
D20*
%TO.P,U1,11*%
%TO.N,GND*%
X14810500Y25774500D03*
X16050500Y25774500D03*
X14810500Y26549500D03*
X16050500Y26549500D03*
%TD*%
D21*
%TO.P,D4,1*%
%TO.N,Net-(C8-Pad2)*%
X6393180Y28003500D03*
%TO.P,D4,2*%
%TO.N,GND*%
X6393180Y29908500D03*
%TO.P,D4,3*%
X8592820Y28956000D03*
%TD*%
D16*
%TO.P,L1,1*%
%TO.N,Net-(C5-Pad2)*%
X3048000Y20129500D03*
%TO.P,L1,2*%
%TO.N,VCC*%
X3048000Y22034500D03*
%TD*%
D15*
%TO.P,C5,1*%
%TO.N,GND*%
X5905500Y17907000D03*
%TO.P,C5,2*%
%TO.N,Net-(C5-Pad2)*%
X4000500Y17907000D03*
%TD*%
%TO.P,C6,1*%
%TO.N,GND*%
X10477500Y23622000D03*
%TO.P,C6,2*%
%TO.N,VCC*%
X8572500Y23622000D03*
%TD*%
D16*
%TO.P,C7,1*%
%TO.N,GND*%
X9398000Y9207500D03*
%TO.P,C7,2*%
%TO.N,Net-(C5-Pad2)*%
X9398000Y11112500D03*
%TD*%
%TO.P,C8,1*%
%TO.N,GND*%
X9398000Y25590500D03*
%TO.P,C8,2*%
%TO.N,Net-(C8-Pad2)*%
X9398000Y27495500D03*
%TD*%
D15*
%TO.P,R6,1*%
%TO.N,GND*%
X8699500Y13970000D03*
%TO.P,R6,2*%
%TO.N,Net-(P2-Pad1)*%
X10604500Y13970000D03*
%TD*%
D22*
%TO.N,VCC*%
X7757524Y31309999D03*
%TO.N,Net-(J3-Pad2)*%
X15748000Y23177500D03*
%TO.N,/CA0*%
X17653000Y27686000D03*
%TO.N,Net-(J4-Pad2)*%
X20402158Y24041436D03*
%TD*%
D23*
%TO.N,GND*%
X10160000Y36766500D02*
X10160000Y34226500D01*
D24*
X15430500Y27169500D02*
X14810500Y26549500D01*
D23*
X20320000Y36766500D02*
X20320000Y34226500D01*
D24*
X15430500Y27712000D02*
X15430500Y27169500D01*
X15430500Y27169500D02*
X16050500Y26549500D01*
D25*
%TO.N,Net-(C1-Pad2)*%
X17498060Y21336000D02*
X16413638Y21336000D01*
D24*
X14930500Y24612000D02*
X14930500Y23846618D01*
D25*
X14930500Y22819138D02*
X14930500Y23846618D01*
D26*
X17498060Y18542000D02*
X17498060Y21336000D01*
X18288000Y16192500D02*
X18288000Y17752060D01*
X20828000Y16192500D02*
X20891500Y16256000D01*
D25*
X16413638Y21336000D02*
X14930500Y22819138D01*
D26*
X18288000Y16192500D02*
X20828000Y16192500D01*
X18288000Y17752060D02*
X17498060Y18542000D01*
%TO.N,Net-(C2-Pad1)*%
X10604500Y16256000D02*
X13144500Y16256000D01*
X13208000Y17752060D02*
X13997940Y18542000D01*
X13997940Y18542000D02*
X13997940Y21336000D01*
D24*
X14430500Y24304500D02*
X14430490Y24304490D01*
X14430500Y21768560D02*
X13997940Y21336000D01*
D25*
X13997940Y21336000D02*
X13997940Y22485630D01*
D24*
X14430490Y24304490D02*
X14430490Y23992878D01*
D26*
X13208000Y16192500D02*
X13208000Y17752060D01*
D25*
X13997940Y22485630D02*
X14430490Y22918180D01*
D26*
X13144500Y16256000D02*
X13208000Y16192500D01*
D25*
X14430490Y22918180D02*
X14430490Y23992878D01*
D24*
X14430500Y24612000D02*
X14430500Y24304500D01*
D23*
%TO.N,VCC*%
X15811500Y30988000D02*
X14224000Y30988000D01*
D26*
X3873500Y24765000D02*
X2611500Y24765000D01*
X7757524Y31309999D02*
X6280149Y31309999D01*
D23*
X15240000Y36766500D02*
X15240000Y34226500D01*
D26*
X6604000Y23431500D02*
X8534400Y23431500D01*
D23*
X23831500Y23177500D02*
X22688500Y23177500D01*
D25*
X16891000Y23749000D02*
X17462500Y23177500D01*
D23*
X22688500Y23177500D02*
X21590000Y23177500D01*
X26416000Y26924000D02*
X26416000Y25762000D01*
D26*
X3873500Y24765000D02*
X3873500Y22860000D01*
D24*
X15930500Y24612000D02*
X15930500Y24136822D01*
D23*
X26416000Y26924000D02*
X26416000Y29464000D01*
D26*
X2032000Y25344500D02*
X2032000Y30732150D01*
X2032000Y30732150D02*
X2609849Y31309999D01*
D23*
X15811500Y33655000D02*
X15240000Y34226500D01*
D24*
X15930500Y24136822D02*
X16318322Y23749000D01*
D23*
X26416000Y25762000D02*
X23831500Y23177500D01*
D26*
X5270500Y24765000D02*
X6604000Y23431500D01*
X3406709Y22393209D02*
X3048000Y22034500D01*
X3873500Y22860000D02*
X3048000Y22034500D01*
D23*
X15811500Y30988000D02*
X15811500Y33655000D01*
X21590000Y23177500D02*
X19050000Y23177500D01*
D26*
X3873500Y24765000D02*
X5270500Y24765000D01*
X2611500Y24765000D02*
X2032000Y25344500D01*
D24*
X16318322Y23749000D02*
X16891000Y23749000D01*
D25*
X17462500Y23177500D02*
X19050000Y23177500D01*
D26*
X3873500Y24765000D02*
X3873500Y24701500D01*
X2609849Y31309999D02*
X6280149Y31309999D01*
D24*
%TO.N,Net-(J3-Pad2)*%
X15430500Y23495000D02*
X15748000Y23177500D01*
X15430500Y24612000D02*
X15430500Y23495000D01*
D25*
%TO.N,/CA0*%
X23876000Y26924000D02*
X23703142Y26924000D01*
X17653000Y27686000D02*
X16456501Y27686000D01*
X16456501Y27686000D02*
X16430501Y27712000D01*
%TO.N,/CA1*%
X23876000Y28402000D02*
X23876000Y29464000D01*
X23825999Y28351999D02*
X23876000Y28402000D01*
X16429620Y29083000D02*
X19304000Y29083000D01*
X20035001Y28351999D02*
X23825999Y28351999D01*
D24*
X15930500Y27712000D02*
X15930500Y28376500D01*
D25*
X15930500Y28583880D02*
X16429620Y29083000D01*
X15930500Y28376500D02*
X15930500Y28583880D01*
X19304000Y29083000D02*
X20035001Y28351999D01*
%TO.N,/SDA*%
X17716500Y30988000D02*
X17716500Y30734000D01*
X17716500Y30734000D02*
X17018000Y30035500D01*
D24*
X14930500Y28291000D02*
X15027148Y28387648D01*
D25*
X17018000Y30035500D02*
X16675000Y30035500D01*
D23*
X17780000Y36766500D02*
X17780000Y34226500D01*
D25*
X16675000Y30035500D02*
X15027148Y28387648D01*
D24*
X14930500Y27712000D02*
X14930500Y28291000D01*
D23*
X17716500Y30988000D02*
X17716500Y34163000D01*
X17716500Y34163000D02*
X17780000Y34226500D01*
D25*
%TO.N,/SCL*%
X12319000Y30734000D02*
X13017500Y30035500D01*
D23*
X12319000Y33845500D02*
X12700000Y34226500D01*
X12700000Y36766500D02*
X12700000Y34226500D01*
D25*
X13271500Y30035500D02*
X14430500Y28876500D01*
X13017500Y30035500D02*
X13271500Y30035500D01*
D23*
X12319000Y30988000D02*
X12319000Y33845500D01*
D24*
X14430500Y27712000D02*
X14430500Y28876500D01*
D25*
X12319000Y30988000D02*
X12319000Y30734000D01*
D26*
%TO.N,Net-(P1-Pad1)*%
X18288000Y7819000D02*
X18288000Y10414000D01*
X18288000Y5414000D02*
X18288000Y7819000D01*
X18288000Y10414000D02*
X18288000Y14287500D01*
%TO.N,Net-(P2-Pad1)*%
X13208000Y7819000D02*
X13208000Y10414000D01*
X10922000Y14287500D02*
X10604500Y13970000D01*
X13208000Y5414000D02*
X13208000Y7819000D01*
X13208000Y10414000D02*
X13208000Y14287500D01*
X13208000Y14287500D02*
X10922000Y14287500D01*
%TO.N,Net-(C5-Pad2)*%
X4000500Y19621500D02*
X4000500Y19730371D01*
X4399629Y20129500D02*
X5684520Y20129500D01*
X4000500Y19621500D02*
X3492500Y20129500D01*
X2159000Y13343000D02*
X2159000Y17010000D01*
X3810000Y12954000D02*
X6350000Y12954000D01*
X5684520Y20129500D02*
X6129020Y20574000D01*
X7556500Y12954000D02*
X9398000Y11112500D01*
X2159000Y17010000D02*
X3056000Y17907000D01*
X3056000Y17907000D02*
X4000500Y17907000D01*
X6350000Y12954000D02*
X7556500Y12954000D01*
X2548000Y12954000D02*
X2159000Y13343000D01*
X6413500Y12890500D02*
X6350000Y12954000D01*
X3048000Y20129500D02*
X4399629Y20129500D01*
X4000500Y17907000D02*
X4000500Y19621500D01*
X3492500Y20129500D02*
X3048000Y20129500D01*
X4000500Y19730371D02*
X4399629Y20129500D01*
X3810000Y12954000D02*
X2548000Y12954000D01*
D25*
%TO.N,Net-(J4-Pad2)*%
X20402158Y24041436D02*
X19773541Y24041436D01*
X19773541Y24041436D02*
X19565969Y24249008D01*
X16793492Y24249008D02*
X16430501Y24611999D01*
X16430501Y24611999D02*
X16430501Y24612000D01*
X19565969Y24249008D02*
X16793492Y24249008D01*
D26*
%TO.N,Net-(C8-Pad2)*%
X3937000Y29908500D02*
X3873500Y29845000D01*
X5715000Y28003500D02*
X3873500Y29845000D01*
X8626068Y28003500D02*
X9266034Y27363534D01*
X6604000Y25336500D02*
X6604000Y27792680D01*
D23*
X6493510Y28003500D02*
X6393180Y28003500D01*
D26*
X6393180Y28003500D02*
X8626068Y28003500D01*
X6604000Y27792680D02*
X6393180Y28003500D01*
X6393180Y28003500D02*
X5715000Y28003500D01*
%TD*%
%TA.AperFunction,Conductor*%
%TO.N,GND*%
G36*
X30117621Y40315498D02*
G01*
X30164114Y40261842D01*
X30175500Y40209500D01*
X30175500Y430500D01*
X30155498Y362379D01*
X30101842Y315886D01*
X30049500Y304500D01*
X430500Y304500D01*
X362379Y324502D01*
X315886Y378158D01*
X304500Y430500D01*
X304500Y25366709D01*
X1268659Y25366709D01*
X1273260Y25314114D01*
X1273500Y25308621D01*
X1273500Y25300317D01*
X1277347Y25267404D01*
X1284112Y25190074D01*
X1285596Y25182889D01*
X1285533Y25182876D01*
X1287168Y25175503D01*
X1287231Y25175518D01*
X1288922Y25168381D01*
X1315473Y25095435D01*
X1339886Y25021761D01*
X1342987Y25015112D01*
X1342926Y25015083D01*
X1346214Y25008292D01*
X1346273Y25008322D01*
X1349563Y25001769D01*
X1392232Y24936894D01*
X1432968Y24870851D01*
X1437525Y24865088D01*
X1437473Y24865047D01*
X1442233Y24859204D01*
X1442283Y24859246D01*
X1446996Y24853628D01*
X1503482Y24800336D01*
X2029592Y24274225D01*
X2041562Y24260376D01*
X2056030Y24240943D01*
X2056033Y24240939D01*
X2096469Y24207008D01*
X2100515Y24203302D01*
X2106396Y24197421D01*
X2106402Y24197416D01*
X2132394Y24176865D01*
X2191864Y24126964D01*
X2197991Y24122935D01*
X2197955Y24122881D01*
X2204320Y24118827D01*
X2204354Y24118882D01*
X2210595Y24115032D01*
X2280952Y24082224D01*
X2350308Y24047392D01*
X2357204Y24044883D01*
X2357181Y24044821D01*
X2364310Y24042343D01*
X2364331Y24042404D01*
X2371290Y24040097D01*
X2447350Y24024392D01*
X2512646Y24008917D01*
X2574318Y23973744D01*
X2607184Y23910813D01*
X2608867Y23899784D01*
X2609510Y23893802D01*
X2609511Y23893795D01*
X2660610Y23756797D01*
X2660612Y23756792D01*
X2748238Y23639738D01*
X2865292Y23552112D01*
X2865297Y23552110D01*
X3002295Y23501011D01*
X3002302Y23501010D01*
X3002471Y23500992D01*
X3002593Y23500941D01*
X3009974Y23499197D01*
X3009691Y23498001D01*
X3068063Y23473821D01*
X3108553Y23415502D01*
X3115000Y23375714D01*
X3115000Y23226371D01*
X3094998Y23158250D01*
X3078095Y23137276D01*
X2965224Y23024405D01*
X2902912Y22990379D01*
X2876129Y22987500D01*
X2300862Y22987500D01*
X2300855Y22987499D01*
X2300850Y22987499D01*
X2240303Y22980990D01*
X2240295Y22980988D01*
X2162375Y22951924D01*
X2103296Y22929889D01*
X2103294Y22929888D01*
X2103292Y22929887D01*
X1986238Y22842261D01*
X1898612Y22725207D01*
X1898610Y22725202D01*
X1847511Y22588204D01*
X1847509Y22588196D01*
X1841000Y22527649D01*
X1841000Y21541350D01*
X1847509Y21480803D01*
X1847511Y21480795D01*
X1898610Y21343797D01*
X1898612Y21343792D01*
X1986239Y21226738D01*
X2044843Y21182867D01*
X2087389Y21126031D01*
X2092453Y21055216D01*
X2058428Y20992904D01*
X2044843Y20981133D01*
X1986239Y20937261D01*
X1898612Y20820207D01*
X1898610Y20820202D01*
X1847511Y20683204D01*
X1847509Y20683196D01*
X1841000Y20622649D01*
X1841000Y19636350D01*
X1847509Y19575803D01*
X1847511Y19575795D01*
X1898610Y19438797D01*
X1898612Y19438792D01*
X1986238Y19321738D01*
X2103292Y19234112D01*
X2103297Y19234110D01*
X2240295Y19183011D01*
X2240303Y19183009D01*
X2300850Y19176500D01*
X2300862Y19176500D01*
X3096534Y19176500D01*
X3164655Y19156498D01*
X3211148Y19102842D01*
X3221252Y19032568D01*
X3197402Y18974991D01*
X3105112Y18851707D01*
X3105110Y18851702D01*
X3063897Y18741208D01*
X3021350Y18684372D01*
X2956824Y18659720D01*
X2901574Y18654887D01*
X2901571Y18654886D01*
X2894388Y18653403D01*
X2894374Y18653469D01*
X2887012Y18651837D01*
X2887028Y18651772D01*
X2879890Y18650080D01*
X2879887Y18650079D01*
X2806934Y18623526D01*
X2733262Y18599114D01*
X2733255Y18599109D01*
X2726611Y18596012D01*
X2726581Y18596074D01*
X2719795Y18592788D01*
X2719826Y18592728D01*
X2713271Y18589436D01*
X2713268Y18589435D01*
X2648394Y18546766D01*
X2582349Y18506030D01*
X2582346Y18506027D01*
X2576592Y18501478D01*
X2576549Y18501531D01*
X2570700Y18496766D01*
X2570744Y18496715D01*
X2565122Y18491998D01*
X2531105Y18455941D01*
X2511836Y18435517D01*
X1668220Y17591901D01*
X1654376Y17579937D01*
X1634942Y17565469D01*
X1634940Y17565467D01*
X1601003Y17525024D01*
X1597289Y17520970D01*
X1591425Y17515107D01*
X1591421Y17515102D01*
X1591420Y17515101D01*
X1570863Y17489103D01*
X1534832Y17446162D01*
X1520965Y17429636D01*
X1516933Y17423506D01*
X1516878Y17423541D01*
X1512829Y17417187D01*
X1512886Y17417153D01*
X1509033Y17410906D01*
X1476220Y17340540D01*
X1441391Y17271188D01*
X1441390Y17271186D01*
X1441389Y17271183D01*
X1438880Y17264289D01*
X1438817Y17264311D01*
X1436341Y17257189D01*
X1436404Y17257169D01*
X1434097Y17250209D01*
X1418392Y17174150D01*
X1400499Y17098652D01*
X1399648Y17091367D01*
X1399580Y17091374D01*
X1398814Y17083877D01*
X1398881Y17083872D01*
X1398241Y17076559D01*
X1400500Y16998920D01*
X1400500Y13407435D01*
X1399169Y13389172D01*
X1395659Y13365216D01*
X1395659Y13365209D01*
X1400260Y13312614D01*
X1400500Y13307121D01*
X1400500Y13298817D01*
X1404347Y13265904D01*
X1411112Y13188574D01*
X1412596Y13181389D01*
X1412533Y13181376D01*
X1414168Y13174003D01*
X1414231Y13174018D01*
X1415922Y13166881D01*
X1442473Y13093935D01*
X1466886Y13020261D01*
X1469987Y13013612D01*
X1469926Y13013583D01*
X1473214Y13006792D01*
X1473273Y13006822D01*
X1476563Y13000269D01*
X1519232Y12935394D01*
X1559968Y12869351D01*
X1564525Y12863588D01*
X1564473Y12863547D01*
X1569233Y12857704D01*
X1569283Y12857746D01*
X1573996Y12852128D01*
X1630482Y12798836D01*
X1966092Y12463225D01*
X1978062Y12449376D01*
X1992530Y12429943D01*
X2032971Y12396007D01*
X2037017Y12392300D01*
X2042897Y12386421D01*
X2042907Y12386412D01*
X2068896Y12365863D01*
X2128364Y12315965D01*
X2134491Y12311935D01*
X2134455Y12311880D01*
X2140820Y12307825D01*
X2140855Y12307882D01*
X2147097Y12304031D01*
X2184359Y12286655D01*
X2217447Y12271226D01*
X2286812Y12236391D01*
X2286814Y12236390D01*
X2293707Y12233882D01*
X2293684Y12233820D01*
X2300804Y12231345D01*
X2300825Y12231407D01*
X2307792Y12229098D01*
X2383818Y12213400D01*
X2449147Y12197916D01*
X2510819Y12162744D01*
X2543684Y12099812D01*
X2545367Y12088784D01*
X2546010Y12082802D01*
X2546011Y12082795D01*
X2597110Y11945797D01*
X2597112Y11945792D01*
X2684738Y11828738D01*
X2801792Y11741112D01*
X2801797Y11741110D01*
X2938795Y11690011D01*
X2938803Y11690009D01*
X2999350Y11683500D01*
X2999362Y11683500D01*
X4620649Y11683500D01*
X4681196Y11690009D01*
X4681204Y11690011D01*
X4818202Y11741110D01*
X4818207Y11741112D01*
X4935261Y11828739D01*
X4979133Y11887343D01*
X5035969Y11929889D01*
X5106784Y11934953D01*
X5169096Y11900928D01*
X5180867Y11887343D01*
X5224738Y11828739D01*
X5341792Y11741112D01*
X5341797Y11741110D01*
X5478795Y11690011D01*
X5478803Y11690009D01*
X5539350Y11683500D01*
X5539362Y11683500D01*
X7160649Y11683500D01*
X7221196Y11690009D01*
X7221204Y11690011D01*
X7358202Y11741110D01*
X7358207Y11741112D01*
X7464387Y11820598D01*
X7530907Y11845409D01*
X7600281Y11830318D01*
X7628991Y11808826D01*
X8154095Y11283723D01*
X8188120Y11221410D01*
X8191000Y11194627D01*
X8191000Y10619350D01*
X8197509Y10558803D01*
X8197511Y10558795D01*
X8248610Y10421797D01*
X8248612Y10421792D01*
X8336238Y10304738D01*
X8453292Y10217112D01*
X8453297Y10217110D01*
X8590295Y10166011D01*
X8590303Y10166009D01*
X8650850Y10159500D01*
X8650862Y10159500D01*
X10145149Y10159500D01*
X10205696Y10166009D01*
X10205704Y10166011D01*
X10342702Y10217110D01*
X10342707Y10217112D01*
X10459761Y10304738D01*
X10547387Y10421792D01*
X10547387Y10421793D01*
X10547389Y10421796D01*
X10550445Y10429990D01*
X10592993Y10486825D01*
X10659514Y10511634D01*
X10728888Y10496541D01*
X10779089Y10446338D01*
X10794500Y10385955D01*
X10794500Y8460350D01*
X10801009Y8399803D01*
X10801011Y8399795D01*
X10852110Y8262797D01*
X10852112Y8262792D01*
X10939738Y8145738D01*
X11056792Y8058112D01*
X11056797Y8058110D01*
X11126653Y8032055D01*
X11183489Y7989508D01*
X11208299Y7922988D01*
X11193207Y7853614D01*
X11143005Y7803412D01*
X11126653Y7795945D01*
X11089676Y7782152D01*
X11056796Y7769889D01*
X11056794Y7769888D01*
X11056792Y7769887D01*
X10939738Y7682261D01*
X10852112Y7565207D01*
X10852110Y7565202D01*
X10801011Y7428204D01*
X10801009Y7428196D01*
X10794500Y7367649D01*
X10794500Y3460350D01*
X10801009Y3399803D01*
X10801011Y3399795D01*
X10852110Y3262797D01*
X10852112Y3262792D01*
X10939738Y3145738D01*
X11056792Y3058112D01*
X11056797Y3058110D01*
X11193795Y3007011D01*
X11193803Y3007009D01*
X11254350Y3000500D01*
X11254362Y3000500D01*
X15161649Y3000500D01*
X15222196Y3007009D01*
X15222204Y3007011D01*
X15359202Y3058110D01*
X15359207Y3058112D01*
X15476261Y3145738D01*
X15563887Y3262792D01*
X15563889Y3262797D01*
X15614988Y3399795D01*
X15614990Y3399803D01*
X15621499Y3460350D01*
X15621500Y3460367D01*
X15621500Y7367632D01*
X15621499Y7367649D01*
X15614990Y7428196D01*
X15614988Y7428204D01*
X15607960Y7447045D01*
X15563889Y7565204D01*
X15476261Y7682261D01*
X15359204Y7769889D01*
X15289343Y7795945D01*
X15232511Y7838491D01*
X15207700Y7905012D01*
X15222792Y7974386D01*
X15272994Y8024588D01*
X15289334Y8032050D01*
X15359204Y8058111D01*
X15359205Y8058112D01*
X15359208Y8058113D01*
X15476261Y8145738D01*
X15563887Y8262792D01*
X15563889Y8262797D01*
X15614988Y8399795D01*
X15614990Y8399803D01*
X15621499Y8460350D01*
X15621500Y8460367D01*
X15621500Y12367632D01*
X15621499Y12367649D01*
X15614990Y12428196D01*
X15614988Y12428204D01*
X15604347Y12456733D01*
X15563889Y12565204D01*
X15557203Y12574135D01*
X15476261Y12682261D01*
X15359207Y12769887D01*
X15359206Y12769887D01*
X15359204Y12769889D01*
X15223217Y12820610D01*
X15222204Y12820988D01*
X15222203Y12820988D01*
X15222201Y12820989D01*
X15222199Y12820989D01*
X15222196Y12820990D01*
X15161649Y12827499D01*
X15161645Y12827499D01*
X15161638Y12827500D01*
X15161632Y12827500D01*
X14092500Y12827500D01*
X14024379Y12847502D01*
X13977886Y12901158D01*
X13966500Y12953500D01*
X13966500Y13235176D01*
X13986502Y13303297D01*
X14040158Y13349790D01*
X14048466Y13353231D01*
X14152704Y13392111D01*
X14152707Y13392112D01*
X14269761Y13479738D01*
X14357387Y13596792D01*
X14357389Y13596797D01*
X14357481Y13597042D01*
X14385293Y13671609D01*
X14408488Y13733795D01*
X14408490Y13733803D01*
X14414999Y13794350D01*
X14415000Y13794367D01*
X14415000Y14780632D01*
X14414999Y14780649D01*
X14408490Y14841196D01*
X14408488Y14841204D01*
X14381074Y14914702D01*
X14357389Y14978204D01*
X14306637Y15046000D01*
X14269761Y15095261D01*
X14211157Y15139132D01*
X14168610Y15195968D01*
X14163546Y15266784D01*
X14197571Y15329096D01*
X14211157Y15340868D01*
X14269761Y15384738D01*
X14357387Y15501792D01*
X14357389Y15501797D01*
X14360025Y15508862D01*
X14408489Y15638799D01*
X14408490Y15638803D01*
X14414999Y15699350D01*
X14415000Y15699367D01*
X14415000Y16685632D01*
X14414999Y16685649D01*
X14408490Y16746196D01*
X14408488Y16746204D01*
X14380254Y16821901D01*
X14357389Y16883204D01*
X14306637Y16951000D01*
X14283161Y16982361D01*
X14258350Y17048881D01*
X14273441Y17118255D01*
X14323643Y17168457D01*
X14384029Y17183870D01*
X14696829Y17183870D01*
X14757376Y17190379D01*
X14757384Y17190381D01*
X14894382Y17241480D01*
X14894387Y17241482D01*
X15011441Y17329108D01*
X15099067Y17446162D01*
X15099069Y17446167D01*
X15102920Y17456490D01*
X15126970Y17520970D01*
X15150168Y17583165D01*
X15150170Y17583173D01*
X15156679Y17643720D01*
X15156680Y17643737D01*
X15156680Y19440262D01*
X15156679Y19440279D01*
X15150170Y19500826D01*
X15150168Y19500834D01*
X15126469Y19564373D01*
X15099069Y19637834D01*
X15011441Y19754891D01*
X14985232Y19774511D01*
X14900245Y19838132D01*
X14857698Y19894968D01*
X14852634Y19965783D01*
X14886659Y20028096D01*
X14900245Y20039868D01*
X15011441Y20123108D01*
X15099067Y20240162D01*
X15099069Y20240167D01*
X15110705Y20271362D01*
X15150169Y20377169D01*
X15150170Y20377173D01*
X15156679Y20437720D01*
X15156680Y20437737D01*
X15156680Y21357506D01*
X15176682Y21425627D01*
X15230338Y21472120D01*
X15300612Y21482224D01*
X15365192Y21452730D01*
X15371776Y21446601D01*
X15886768Y20931608D01*
X15896978Y20918865D01*
X15897171Y20919025D01*
X15902220Y20912921D01*
X15955323Y20863054D01*
X15977306Y20841071D01*
X15983163Y20836527D01*
X15987669Y20832678D01*
X16023503Y20799029D01*
X16023505Y20799027D01*
X16042305Y20788691D01*
X16058818Y20777843D01*
X16075764Y20764699D01*
X16075773Y20764694D01*
X16120885Y20745172D01*
X16126215Y20742560D01*
X16169298Y20718877D01*
X16169308Y20718873D01*
X16190074Y20713541D01*
X16208774Y20707139D01*
X16228458Y20698620D01*
X16228468Y20698618D01*
X16233034Y20697895D01*
X16297186Y20667481D01*
X16334712Y20607212D01*
X16339320Y20573447D01*
X16339320Y20437720D01*
X16345829Y20377173D01*
X16345831Y20377165D01*
X16396930Y20240167D01*
X16396932Y20240162D01*
X16484557Y20123110D01*
X16595755Y20039868D01*
X16638301Y19983032D01*
X16643365Y19912216D01*
X16609340Y19849904D01*
X16595755Y19838132D01*
X16540254Y19796584D01*
X16484559Y19754891D01*
X16484558Y19754889D01*
X16484557Y19754889D01*
X16396932Y19637837D01*
X16396930Y19637832D01*
X16345831Y19500834D01*
X16345829Y19500826D01*
X16339320Y19440279D01*
X16339320Y17643720D01*
X16345829Y17583173D01*
X16345831Y17583165D01*
X16396930Y17446167D01*
X16396932Y17446162D01*
X16484558Y17329108D01*
X16601612Y17241482D01*
X16601617Y17241480D01*
X16738615Y17190381D01*
X16738623Y17190379D01*
X16799170Y17183870D01*
X16799182Y17183870D01*
X17111971Y17183870D01*
X17180092Y17163868D01*
X17226585Y17110212D01*
X17236689Y17039938D01*
X17212839Y16982361D01*
X17138612Y16883207D01*
X17138610Y16883202D01*
X17087511Y16746204D01*
X17087509Y16746196D01*
X17081000Y16685649D01*
X17081000Y15699350D01*
X17087509Y15638803D01*
X17087511Y15638795D01*
X17138610Y15501797D01*
X17138612Y15501792D01*
X17226239Y15384738D01*
X17284843Y15340867D01*
X17327389Y15284031D01*
X17332453Y15213216D01*
X17298428Y15150904D01*
X17284843Y15139133D01*
X17226239Y15095261D01*
X17138612Y14978207D01*
X17138610Y14978202D01*
X17087511Y14841204D01*
X17087509Y14841196D01*
X17081000Y14780649D01*
X17081000Y13794350D01*
X17087509Y13733803D01*
X17087511Y13733795D01*
X17138610Y13596797D01*
X17138612Y13596792D01*
X17226238Y13479738D01*
X17343292Y13392112D01*
X17343295Y13392111D01*
X17447534Y13353231D01*
X17504369Y13310684D01*
X17529179Y13244163D01*
X17529500Y13235176D01*
X17529500Y12953500D01*
X17509498Y12885379D01*
X17455842Y12838886D01*
X17403500Y12827500D01*
X16334362Y12827500D01*
X16334355Y12827499D01*
X16334350Y12827499D01*
X16273803Y12820990D01*
X16273795Y12820988D01*
X16214405Y12798836D01*
X16136796Y12769889D01*
X16136794Y12769888D01*
X16136792Y12769887D01*
X16019738Y12682261D01*
X15932112Y12565207D01*
X15932110Y12565202D01*
X15881011Y12428204D01*
X15881009Y12428196D01*
X15874500Y12367649D01*
X15874500Y8460350D01*
X15881009Y8399803D01*
X15881011Y8399795D01*
X15932110Y8262797D01*
X15932112Y8262792D01*
X16019738Y8145738D01*
X16136792Y8058112D01*
X16136797Y8058110D01*
X16206653Y8032055D01*
X16263489Y7989508D01*
X16288299Y7922988D01*
X16273207Y7853614D01*
X16223005Y7803412D01*
X16206653Y7795945D01*
X16169676Y7782152D01*
X16136796Y7769889D01*
X16136794Y7769888D01*
X16136792Y7769887D01*
X16019738Y7682261D01*
X15932112Y7565207D01*
X15932110Y7565202D01*
X15881011Y7428204D01*
X15881009Y7428196D01*
X15874500Y7367649D01*
X15874500Y3460350D01*
X15881009Y3399803D01*
X15881011Y3399795D01*
X15932110Y3262797D01*
X15932112Y3262792D01*
X16019738Y3145738D01*
X16136792Y3058112D01*
X16136797Y3058110D01*
X16273795Y3007011D01*
X16273803Y3007009D01*
X16334350Y3000500D01*
X16334362Y3000500D01*
X20241649Y3000500D01*
X20302196Y3007009D01*
X20302204Y3007011D01*
X20439202Y3058110D01*
X20439207Y3058112D01*
X20556261Y3145738D01*
X20643887Y3262792D01*
X20643889Y3262797D01*
X20694988Y3399795D01*
X20694990Y3399803D01*
X20701499Y3460350D01*
X20701500Y3460367D01*
X20701500Y7367632D01*
X20701499Y7367649D01*
X20694990Y7428196D01*
X20694988Y7428204D01*
X20687960Y7447045D01*
X20643889Y7565204D01*
X20556261Y7682261D01*
X20439204Y7769889D01*
X20369343Y7795945D01*
X20312511Y7838491D01*
X20287700Y7905012D01*
X20302792Y7974386D01*
X20352994Y8024588D01*
X20369334Y8032050D01*
X20439204Y8058111D01*
X20439205Y8058112D01*
X20439208Y8058113D01*
X20556261Y8145738D01*
X20643887Y8262792D01*
X20643889Y8262797D01*
X20694988Y8399795D01*
X20694990Y8399803D01*
X20701499Y8460350D01*
X20701500Y8460367D01*
X20701500Y9603922D01*
X23914537Y9603922D01*
X26074537Y9603922D01*
X26142658Y9583920D01*
X26189151Y9530264D01*
X26200537Y9477922D01*
X26200537Y7924504D01*
X29028119Y7924504D01*
X29028119Y20815070D01*
X26200537Y20815070D01*
X26200537Y19842632D01*
X26180535Y19774511D01*
X26126879Y19728018D01*
X26074537Y19716632D01*
X23914537Y19716632D01*
X23914537Y9603922D01*
X20701500Y9603922D01*
X20701500Y12367632D01*
X20701499Y12367649D01*
X20694990Y12428196D01*
X20694988Y12428204D01*
X20684347Y12456733D01*
X20643889Y12565204D01*
X20637203Y12574135D01*
X20556261Y12682261D01*
X20439207Y12769887D01*
X20439206Y12769887D01*
X20439204Y12769889D01*
X20303217Y12820610D01*
X20302204Y12820988D01*
X20302203Y12820988D01*
X20302201Y12820989D01*
X20302199Y12820989D01*
X20302196Y12820990D01*
X20241649Y12827499D01*
X20241645Y12827499D01*
X20241638Y12827500D01*
X20241632Y12827500D01*
X19172500Y12827500D01*
X19104379Y12847502D01*
X19057886Y12901158D01*
X19046500Y12953500D01*
X19046500Y13235176D01*
X19066502Y13303297D01*
X19120158Y13349790D01*
X19128466Y13353231D01*
X19232704Y13392111D01*
X19232707Y13392112D01*
X19349761Y13479738D01*
X19437387Y13596792D01*
X19437389Y13596797D01*
X19437481Y13597042D01*
X19465293Y13671609D01*
X19488488Y13733795D01*
X19488490Y13733803D01*
X19494999Y13794350D01*
X19495000Y13794367D01*
X19495000Y14780632D01*
X19494999Y14780649D01*
X19488490Y14841196D01*
X19488488Y14841204D01*
X19461074Y14914702D01*
X19437389Y14978204D01*
X19386637Y15046000D01*
X19349761Y15095261D01*
X19291157Y15139132D01*
X19248610Y15195968D01*
X19243546Y15266784D01*
X19277571Y15329096D01*
X19291157Y15340868D01*
X19349763Y15384740D01*
X19356134Y15391111D01*
X19357358Y15389886D01*
X19405682Y15426058D01*
X19449709Y15434000D01*
X19862861Y15434000D01*
X19930982Y15413998D01*
X19977475Y15360342D01*
X19980916Y15352033D01*
X19996110Y15311295D01*
X20083738Y15194238D01*
X20200792Y15106612D01*
X20200797Y15106610D01*
X20337795Y15055511D01*
X20337803Y15055509D01*
X20398350Y15049000D01*
X20398362Y15049000D01*
X21384649Y15049000D01*
X21445196Y15055509D01*
X21445204Y15055511D01*
X21582202Y15106610D01*
X21582207Y15106612D01*
X21699261Y15194238D01*
X21786887Y15311292D01*
X21786889Y15311297D01*
X21797919Y15340867D01*
X21814282Y15384739D01*
X21837988Y15448295D01*
X21837990Y15448303D01*
X21844499Y15508850D01*
X21844500Y15508867D01*
X21844500Y17003132D01*
X21844499Y17003149D01*
X21837990Y17063696D01*
X21837988Y17063704D01*
X21817641Y17118255D01*
X21786889Y17200704D01*
X21756364Y17241480D01*
X21699261Y17317761D01*
X21582207Y17405387D01*
X21582206Y17405387D01*
X21582204Y17405389D01*
X21445201Y17456489D01*
X21445199Y17456489D01*
X21445196Y17456490D01*
X21384649Y17462999D01*
X21384645Y17462999D01*
X21384638Y17463000D01*
X20398362Y17463000D01*
X20398355Y17462999D01*
X20398350Y17462999D01*
X20337803Y17456490D01*
X20337795Y17456488D01*
X20265815Y17429640D01*
X20200796Y17405389D01*
X20200794Y17405388D01*
X20200792Y17405387D01*
X20083738Y17317761D01*
X19996112Y17200707D01*
X19996110Y17200702D01*
X19945011Y17063704D01*
X19945010Y17063697D01*
X19944992Y17063529D01*
X19944941Y17063406D01*
X19943197Y17056026D01*
X19942001Y17056308D01*
X19917821Y16997937D01*
X19859502Y16957447D01*
X19819714Y16951000D01*
X19449709Y16951000D01*
X19381588Y16971002D01*
X19356553Y16994308D01*
X19356134Y16993889D01*
X19349763Y17000259D01*
X19349761Y17000259D01*
X19349761Y17000261D01*
X19265011Y17063704D01*
X19232707Y17087887D01*
X19232706Y17087887D01*
X19232704Y17087889D01*
X19128464Y17126768D01*
X19071632Y17169313D01*
X19046821Y17235833D01*
X19046500Y17244822D01*
X19046500Y17687618D01*
X19047830Y17705877D01*
X19051340Y17729845D01*
X19051341Y17729849D01*
X19046739Y17782441D01*
X19046500Y17787926D01*
X19046500Y17796235D01*
X19046500Y17796240D01*
X19042652Y17829155D01*
X19035887Y17906486D01*
X19035884Y17906492D01*
X19034402Y17913678D01*
X19034468Y17913691D01*
X19032836Y17921047D01*
X19032771Y17921032D01*
X19031079Y17928164D01*
X19031079Y17928173D01*
X19004526Y18001125D01*
X18980114Y18074798D01*
X18980112Y18074800D01*
X18977012Y18081449D01*
X18977074Y18081478D01*
X18973789Y18088263D01*
X18973729Y18088233D01*
X18970435Y18094791D01*
X18970435Y18094792D01*
X18927766Y18159665D01*
X18887030Y18225711D01*
X18887020Y18225720D01*
X18882477Y18231468D01*
X18882531Y18231510D01*
X18877775Y18237349D01*
X18877723Y18237306D01*
X18873006Y18242925D01*
X18873001Y18242934D01*
X18816517Y18296223D01*
X18693705Y18419036D01*
X18659679Y18481348D01*
X18656800Y18508131D01*
X18656800Y19440262D01*
X18656799Y19440279D01*
X18650290Y19500826D01*
X18650288Y19500834D01*
X18626589Y19564373D01*
X18599189Y19637834D01*
X18511561Y19754891D01*
X18485352Y19774511D01*
X18400365Y19838132D01*
X18357818Y19894968D01*
X18352754Y19965783D01*
X18386779Y20028096D01*
X18400365Y20039868D01*
X18511561Y20123108D01*
X18588967Y20226510D01*
X18645803Y20269057D01*
X18716619Y20274121D01*
X18778931Y20240096D01*
X18807890Y20195035D01*
X18853111Y20073795D01*
X18853112Y20073792D01*
X18940738Y19956738D01*
X19057792Y19869112D01*
X19057797Y19869110D01*
X19194795Y19818011D01*
X19194803Y19818009D01*
X19255350Y19811500D01*
X19255362Y19811500D01*
X20876649Y19811500D01*
X20937196Y19818009D01*
X20937204Y19818011D01*
X21074202Y19869110D01*
X21074207Y19869112D01*
X21191261Y19956738D01*
X21278887Y20073792D01*
X21278889Y20073797D01*
X21329988Y20210795D01*
X21329990Y20210803D01*
X21336499Y20271350D01*
X21336500Y20271367D01*
X21336500Y21892632D01*
X21336499Y21892649D01*
X21329990Y21953196D01*
X21329989Y21953197D01*
X21329989Y21953201D01*
X21292217Y22054468D01*
X21287153Y22125283D01*
X21321178Y22187595D01*
X21383491Y22221620D01*
X21410274Y22224500D01*
X22337149Y22224500D01*
X22397696Y22231009D01*
X22397704Y22231011D01*
X22534702Y22282110D01*
X22534707Y22282112D01*
X22651761Y22369738D01*
X22688270Y22418509D01*
X22745105Y22461056D01*
X22789138Y22469000D01*
X23808185Y22469000D01*
X23811988Y22468885D01*
X23874593Y22465098D01*
X23874594Y22465098D01*
X23915599Y22472612D01*
X23936286Y22476402D01*
X23940037Y22476973D01*
X23952604Y22478500D01*
X24002294Y22484533D01*
X24002298Y22484534D01*
X24003556Y22485011D01*
X24011836Y22488150D01*
X24033786Y22494270D01*
X24043829Y22496111D01*
X24043830Y22496111D01*
X24043832Y22496112D01*
X24101028Y22521853D01*
X24104543Y22523309D01*
X24140205Y22536834D01*
X24163175Y22545546D01*
X24171570Y22551341D01*
X24191419Y22562535D01*
X24200722Y22566723D01*
X24200726Y22566725D01*
X24241682Y22598812D01*
X24250090Y22605399D01*
X24253155Y22607654D01*
X24304771Y22643283D01*
X24304773Y22643285D01*
X24346380Y22690250D01*
X24348964Y22692994D01*
X26900503Y25244533D01*
X26903257Y25247126D01*
X26950212Y25288724D01*
X26950215Y25288727D01*
X26963947Y25308621D01*
X26985846Y25340348D01*
X26988093Y25343401D01*
X27006356Y25366711D01*
X27026775Y25392774D01*
X27030958Y25402070D01*
X27042163Y25421935D01*
X27047951Y25430320D01*
X27047952Y25430322D01*
X27047954Y25430325D01*
X27051240Y25438988D01*
X27070189Y25488956D01*
X27071646Y25492473D01*
X27085610Y25523500D01*
X27097389Y25549671D01*
X27097488Y25550212D01*
X27097668Y25550570D01*
X27099656Y25556948D01*
X27100716Y25556617D01*
X27129441Y25613611D01*
X27190598Y25649671D01*
X27221424Y25653500D01*
X27226649Y25653500D01*
X27287196Y25660009D01*
X27287204Y25660011D01*
X27424202Y25711110D01*
X27424207Y25711112D01*
X27541261Y25798738D01*
X27628887Y25915792D01*
X27628889Y25915797D01*
X27631165Y25921897D01*
X27670442Y26027202D01*
X27679988Y26052795D01*
X27679990Y26052803D01*
X27686499Y26113350D01*
X27686500Y26113367D01*
X27686500Y27734632D01*
X27686499Y27734649D01*
X27679990Y27795196D01*
X27679988Y27795204D01*
X27659284Y27850712D01*
X27628889Y27932204D01*
X27617358Y27947607D01*
X27541261Y28049261D01*
X27482657Y28093132D01*
X27440110Y28149968D01*
X27435046Y28220784D01*
X27469071Y28283096D01*
X27482657Y28294868D01*
X27541261Y28338738D01*
X27628887Y28455792D01*
X27628889Y28455797D01*
X27631165Y28461897D01*
X27668971Y28563259D01*
X27679988Y28592795D01*
X27679990Y28592803D01*
X27686499Y28653350D01*
X27686500Y28653367D01*
X27686500Y30274632D01*
X27686499Y30274649D01*
X27679990Y30335196D01*
X27679988Y30335204D01*
X27666716Y30370786D01*
X27628889Y30472204D01*
X27541261Y30589261D01*
X27424204Y30676889D01*
X27287201Y30727989D01*
X27287199Y30727989D01*
X27287196Y30727990D01*
X27226649Y30734499D01*
X27226645Y30734499D01*
X27226638Y30734500D01*
X25605362Y30734500D01*
X25605355Y30734499D01*
X25605350Y30734499D01*
X25544803Y30727990D01*
X25544795Y30727988D01*
X25466875Y30698924D01*
X25407796Y30676889D01*
X25407794Y30676888D01*
X25407792Y30676887D01*
X25290738Y30589261D01*
X25246868Y30530657D01*
X25190032Y30488110D01*
X25119216Y30483046D01*
X25056904Y30517071D01*
X25045132Y30530657D01*
X25001261Y30589261D01*
X24884207Y30676887D01*
X24884206Y30676887D01*
X24884204Y30676889D01*
X24747201Y30727989D01*
X24747199Y30727989D01*
X24747196Y30727990D01*
X24686649Y30734499D01*
X24686645Y30734499D01*
X24686638Y30734500D01*
X23065362Y30734500D01*
X23065355Y30734499D01*
X23065350Y30734499D01*
X23004803Y30727990D01*
X23004795Y30727988D01*
X22926875Y30698924D01*
X22867796Y30676889D01*
X22867794Y30676888D01*
X22867792Y30676887D01*
X22750738Y30589261D01*
X22663112Y30472207D01*
X22663110Y30472202D01*
X22612011Y30335204D01*
X22612009Y30335196D01*
X22605500Y30274649D01*
X22605500Y29136499D01*
X22585498Y29068378D01*
X22531842Y29021885D01*
X22479500Y29010499D01*
X20359952Y29010499D01*
X20291831Y29030501D01*
X20270857Y29047403D01*
X19941259Y29377000D01*
X19830870Y29487388D01*
X19820665Y29500129D01*
X19820471Y29499969D01*
X19815419Y29506074D01*
X19815416Y29506080D01*
X19762314Y29555945D01*
X19740333Y29577927D01*
X19734475Y29582470D01*
X19729980Y29586308D01*
X19694133Y29619972D01*
X19675327Y29630310D01*
X19658823Y29641152D01*
X19641868Y29654304D01*
X19596737Y29673832D01*
X19591414Y29676441D01*
X19548337Y29700124D01*
X19527562Y29705457D01*
X19508869Y29711856D01*
X19489176Y29720380D01*
X19440591Y29728074D01*
X19434810Y29729271D01*
X19387188Y29741500D01*
X19387186Y29741500D01*
X19365741Y29741500D01*
X19346032Y29743050D01*
X19324848Y29746406D01*
X19288000Y29742922D01*
X19275906Y29741780D01*
X19269973Y29741500D01*
X18637683Y29741500D01*
X18569562Y29761502D01*
X18523069Y29815158D01*
X18512965Y29885432D01*
X18536815Y29943009D01*
X18611887Y30043292D01*
X18611889Y30043297D01*
X18662988Y30180295D01*
X18662990Y30180303D01*
X18669499Y30240850D01*
X18669500Y30240867D01*
X18669500Y31735132D01*
X18669499Y31735149D01*
X18662990Y31795696D01*
X18662988Y31795704D01*
X18625952Y31895000D01*
X18611889Y31932704D01*
X18524261Y32049761D01*
X18475490Y32086270D01*
X18432945Y32143103D01*
X18425000Y32187137D01*
X18425000Y32830000D01*
X18445002Y32898121D01*
X18498658Y32944614D01*
X18551000Y32956000D01*
X18590649Y32956000D01*
X18651196Y32962509D01*
X18651204Y32962511D01*
X18788202Y33013610D01*
X18788207Y33013612D01*
X18905261Y33101238D01*
X18992887Y33218292D01*
X18992889Y33218297D01*
X19043988Y33355295D01*
X19043990Y33355303D01*
X19050499Y33415850D01*
X19050500Y33415867D01*
X19050500Y35037132D01*
X19050499Y35037149D01*
X19043990Y35097696D01*
X19043988Y35097704D01*
X19036960Y35116545D01*
X18992889Y35234704D01*
X18905261Y35351761D01*
X18846657Y35395632D01*
X18804110Y35452468D01*
X18799046Y35523284D01*
X18833071Y35585596D01*
X18846657Y35597368D01*
X18905261Y35641238D01*
X18992887Y35758292D01*
X18992889Y35758297D01*
X19043988Y35895295D01*
X19043990Y35895303D01*
X19050499Y35955850D01*
X19050500Y35955867D01*
X19050500Y37577132D01*
X19050499Y37577149D01*
X19043990Y37637696D01*
X19043988Y37637704D01*
X19036960Y37656545D01*
X18992889Y37774704D01*
X18905261Y37891761D01*
X18788204Y37979389D01*
X18651201Y38030489D01*
X18651199Y38030489D01*
X18651196Y38030490D01*
X18590649Y38036999D01*
X18590645Y38036999D01*
X18590638Y38037000D01*
X16969362Y38037000D01*
X16969355Y38036999D01*
X16969350Y38036999D01*
X16908803Y38030490D01*
X16908795Y38030488D01*
X16830875Y38001424D01*
X16771796Y37979389D01*
X16771794Y37979388D01*
X16771792Y37979387D01*
X16654738Y37891761D01*
X16610868Y37833157D01*
X16554032Y37790610D01*
X16483216Y37785546D01*
X16420904Y37819571D01*
X16409132Y37833157D01*
X16365261Y37891761D01*
X16248207Y37979387D01*
X16248206Y37979387D01*
X16248204Y37979389D01*
X16111201Y38030489D01*
X16111199Y38030489D01*
X16111196Y38030490D01*
X16050649Y38036999D01*
X16050645Y38036999D01*
X16050638Y38037000D01*
X14429362Y38037000D01*
X14429355Y38036999D01*
X14429350Y38036999D01*
X14368803Y38030490D01*
X14368795Y38030488D01*
X14290875Y38001424D01*
X14231796Y37979389D01*
X14231794Y37979388D01*
X14231792Y37979387D01*
X14114738Y37891761D01*
X14070868Y37833157D01*
X14014032Y37790610D01*
X13943216Y37785546D01*
X13880904Y37819571D01*
X13869132Y37833157D01*
X13825261Y37891761D01*
X13708207Y37979387D01*
X13708206Y37979387D01*
X13708204Y37979389D01*
X13571201Y38030489D01*
X13571199Y38030489D01*
X13571196Y38030490D01*
X13510649Y38036999D01*
X13510645Y38036999D01*
X13510638Y38037000D01*
X11889362Y38037000D01*
X11889355Y38036999D01*
X11889350Y38036999D01*
X11828803Y38030490D01*
X11828795Y38030488D01*
X11750875Y38001424D01*
X11691796Y37979389D01*
X11691794Y37979388D01*
X11691792Y37979387D01*
X11574738Y37891761D01*
X11487112Y37774707D01*
X11487110Y37774702D01*
X11436011Y37637704D01*
X11436009Y37637696D01*
X11429500Y37577149D01*
X11429500Y35955850D01*
X11436009Y35895303D01*
X11436011Y35895295D01*
X11487110Y35758297D01*
X11487112Y35758292D01*
X11574739Y35641238D01*
X11633343Y35597367D01*
X11675889Y35540531D01*
X11680953Y35469716D01*
X11646928Y35407404D01*
X11633343Y35395633D01*
X11574739Y35351761D01*
X11487112Y35234707D01*
X11487110Y35234702D01*
X11436011Y35097704D01*
X11436009Y35097696D01*
X11429500Y35037149D01*
X11429500Y33415850D01*
X11436009Y33355303D01*
X11436011Y33355295D01*
X11487110Y33218297D01*
X11487112Y33218292D01*
X11580139Y33094025D01*
X11578733Y33092972D01*
X11607621Y33040070D01*
X11610500Y33013287D01*
X11610500Y32187137D01*
X11590498Y32119016D01*
X11560011Y32086271D01*
X11515670Y32053078D01*
X11511238Y32049760D01*
X11423612Y31932707D01*
X11423610Y31932702D01*
X11372511Y31795704D01*
X11372509Y31795696D01*
X11366000Y31735149D01*
X11366000Y30240850D01*
X11372509Y30180303D01*
X11372511Y30180295D01*
X11423610Y30043297D01*
X11423612Y30043292D01*
X11511238Y29926238D01*
X11628292Y29838612D01*
X11628297Y29838610D01*
X11765295Y29787511D01*
X11765303Y29787509D01*
X11825850Y29781000D01*
X11825862Y29781000D01*
X12288549Y29781000D01*
X12356670Y29760998D01*
X12377645Y29744095D01*
X12490630Y29631108D01*
X12500840Y29618365D01*
X12501033Y29618525D01*
X12506082Y29612421D01*
X12559185Y29562554D01*
X12581168Y29540571D01*
X12587025Y29536027D01*
X12591531Y29532178D01*
X12627365Y29498529D01*
X12627367Y29498527D01*
X12646167Y29488191D01*
X12662680Y29477343D01*
X12679626Y29464199D01*
X12679632Y29464195D01*
X12724761Y29444664D01*
X12730089Y29442054D01*
X12773162Y29418376D01*
X12793938Y29413041D01*
X12812633Y29406640D01*
X12832322Y29398120D01*
X12880882Y29390428D01*
X12886693Y29389225D01*
X12915808Y29381750D01*
X12934312Y29377000D01*
X12946548Y29377000D01*
X13014669Y29356998D01*
X13035643Y29340095D01*
X13758095Y28617643D01*
X13792121Y28555331D01*
X13795000Y28528548D01*
X13795000Y28213141D01*
X13787055Y28169109D01*
X13778511Y28146201D01*
X13778510Y28146197D01*
X13778509Y28146196D01*
X13772000Y28085649D01*
X13772000Y27338350D01*
X13778509Y27277803D01*
X13778511Y27277795D01*
X13829610Y27140797D01*
X13829612Y27140792D01*
X13917238Y27023738D01*
X14034292Y26936112D01*
X14034297Y26936110D01*
X14171295Y26885011D01*
X14171303Y26885009D01*
X14231850Y26878500D01*
X14231862Y26878500D01*
X14629131Y26878500D01*
X14629138Y26878500D01*
X14629142Y26878500D01*
X14629154Y26878501D01*
X14667034Y26882573D01*
X14693966Y26882573D01*
X14731845Y26878501D01*
X14731857Y26878500D01*
X14731862Y26878500D01*
X14731869Y26878500D01*
X15129149Y26878500D01*
X15189696Y26885009D01*
X15189704Y26885011D01*
X15326703Y26936110D01*
X15326706Y26936112D01*
X15354994Y26957287D01*
X15421515Y26982096D01*
X15490888Y26967003D01*
X15506006Y26957287D01*
X15534293Y26936112D01*
X15534296Y26936110D01*
X15671295Y26885011D01*
X15671303Y26885009D01*
X15731850Y26878500D01*
X15731862Y26878500D01*
X16129131Y26878500D01*
X16129138Y26878500D01*
X16129142Y26878500D01*
X16129154Y26878501D01*
X16167034Y26882573D01*
X16193966Y26882573D01*
X16231845Y26878501D01*
X16231857Y26878500D01*
X16231862Y26878500D01*
X16231869Y26878500D01*
X16629149Y26878500D01*
X16689696Y26885009D01*
X16689704Y26885011D01*
X16826702Y26936110D01*
X16826703Y26936110D01*
X16838189Y26944708D01*
X16871993Y26970014D01*
X16938512Y26994825D01*
X17007886Y26979734D01*
X17027435Y26966546D01*
X17120980Y26889776D01*
X17286534Y26801284D01*
X17286540Y26801282D01*
X17466185Y26746787D01*
X17652997Y26728389D01*
X17653000Y26728389D01*
X17653003Y26728389D01*
X17839813Y26746787D01*
X17839815Y26746787D01*
X18019459Y26801282D01*
X18019465Y26801284D01*
X18185020Y26889776D01*
X18241479Y26936111D01*
X18330133Y27008867D01*
X18449224Y27153980D01*
X18537717Y27319538D01*
X18592211Y27499179D01*
X18592211Y27499181D01*
X18592212Y27499184D01*
X18592212Y27499186D01*
X18610611Y27685996D01*
X18610611Y27686003D01*
X18592212Y27872813D01*
X18592212Y27872815D01*
X18592211Y27872816D01*
X18592211Y27872821D01*
X18537717Y28052462D01*
X18449224Y28218020D01*
X18448774Y28218567D01*
X18448628Y28218911D01*
X18445784Y28223169D01*
X18446591Y28223708D01*
X18421022Y28283914D01*
X18433004Y28353892D01*
X18480917Y28406284D01*
X18546175Y28424500D01*
X18979049Y28424500D01*
X19047170Y28404498D01*
X19068145Y28387595D01*
X19508131Y27947607D01*
X19518341Y27934864D01*
X19518534Y27935024D01*
X19523583Y27928920D01*
X19576686Y27879053D01*
X19598669Y27857070D01*
X19604526Y27852526D01*
X19609032Y27848677D01*
X19644866Y27815028D01*
X19644868Y27815026D01*
X19663668Y27804690D01*
X19680181Y27793842D01*
X19697127Y27780698D01*
X19697136Y27780693D01*
X19742248Y27761171D01*
X19747578Y27758559D01*
X19790661Y27734876D01*
X19790671Y27734872D01*
X19811437Y27729540D01*
X19830137Y27723138D01*
X19849824Y27714619D01*
X19898390Y27706926D01*
X19904204Y27705722D01*
X19951813Y27693499D01*
X19973254Y27693499D01*
X19992962Y27691948D01*
X20014153Y27688592D01*
X20063105Y27693219D01*
X20069038Y27693499D01*
X22479500Y27693499D01*
X22547621Y27673497D01*
X22594114Y27619841D01*
X22605500Y27567499D01*
X22605500Y26113350D01*
X22612009Y26052803D01*
X22612011Y26052795D01*
X22663110Y25915797D01*
X22663112Y25915792D01*
X22750738Y25798738D01*
X22867792Y25711112D01*
X22867797Y25711110D01*
X23004795Y25660011D01*
X23004803Y25660009D01*
X23065350Y25653500D01*
X23065362Y25653500D01*
X24686649Y25653500D01*
X24747196Y25660009D01*
X24747204Y25660011D01*
X24884202Y25711110D01*
X24884207Y25711112D01*
X25001261Y25798739D01*
X25045133Y25857343D01*
X25101969Y25899889D01*
X25172784Y25904953D01*
X25235096Y25870928D01*
X25246868Y25857342D01*
X25293820Y25794621D01*
X25318631Y25728100D01*
X25303539Y25658726D01*
X25282047Y25630017D01*
X23574935Y23922905D01*
X23512623Y23888879D01*
X23485840Y23886000D01*
X22789138Y23886000D01*
X22721017Y23906002D01*
X22688270Y23936491D01*
X22651761Y23985261D01*
X22534707Y24072887D01*
X22534706Y24072887D01*
X22534704Y24072889D01*
X22397701Y24123989D01*
X22397699Y24123989D01*
X22397696Y24123990D01*
X22337149Y24130499D01*
X22337145Y24130499D01*
X22337138Y24130500D01*
X22337132Y24130500D01*
X21464219Y24130500D01*
X21396098Y24150502D01*
X21349605Y24204158D01*
X21343685Y24222491D01*
X21343165Y24222334D01*
X21341369Y24228253D01*
X21341369Y24228257D01*
X21286875Y24407898D01*
X21198382Y24573456D01*
X21079291Y24718569D01*
X20934178Y24837660D01*
X20768620Y24926153D01*
X20588979Y24980647D01*
X20588973Y24980647D01*
X20588972Y24980648D01*
X20402161Y24999047D01*
X20402155Y24999047D01*
X20215344Y24980648D01*
X20215342Y24980648D01*
X20215339Y24980647D01*
X20215337Y24980647D01*
X20035696Y24926153D01*
X19926297Y24867678D01*
X19856796Y24853207D01*
X19818291Y24864765D01*
X19817677Y24863214D01*
X19810311Y24866129D01*
X19810306Y24866132D01*
X19789531Y24871465D01*
X19770838Y24877864D01*
X19751145Y24886388D01*
X19702560Y24894082D01*
X19696779Y24895279D01*
X19649157Y24907508D01*
X19649155Y24907508D01*
X19627710Y24907508D01*
X19608001Y24909058D01*
X19586817Y24912414D01*
X19549969Y24908930D01*
X19537875Y24907788D01*
X19531942Y24907508D01*
X17210580Y24907508D01*
X17142459Y24927510D01*
X17095966Y24981166D01*
X17085302Y25020040D01*
X17082490Y25046196D01*
X17082488Y25046204D01*
X17064125Y25095435D01*
X17031389Y25183204D01*
X16983537Y25247126D01*
X16943761Y25300261D01*
X16826707Y25387887D01*
X16826706Y25387887D01*
X16826704Y25387889D01*
X16689701Y25438989D01*
X16689699Y25438989D01*
X16689696Y25438990D01*
X16629149Y25445499D01*
X16629145Y25445499D01*
X16629138Y25445500D01*
X16231862Y25445500D01*
X16193968Y25441426D01*
X16167032Y25441426D01*
X16129138Y25445500D01*
X15731862Y25445500D01*
X15693968Y25441426D01*
X15667032Y25441426D01*
X15629138Y25445500D01*
X15231862Y25445500D01*
X15193968Y25441426D01*
X15167032Y25441426D01*
X15129138Y25445500D01*
X14731862Y25445500D01*
X14693968Y25441426D01*
X14667032Y25441426D01*
X14629138Y25445500D01*
X14231862Y25445500D01*
X14231855Y25445499D01*
X14231850Y25445499D01*
X14171303Y25438990D01*
X14171295Y25438988D01*
X14100309Y25412511D01*
X14034296Y25387889D01*
X14034294Y25387888D01*
X14034292Y25387887D01*
X13917238Y25300261D01*
X13829612Y25183207D01*
X13829610Y25183202D01*
X13778511Y25046204D01*
X13778509Y25046196D01*
X13772000Y24985649D01*
X13772000Y24238350D01*
X13778510Y24177798D01*
X13780323Y24170128D01*
X13777327Y24169420D01*
X13781352Y24112875D01*
X13780283Y24108369D01*
X13771990Y24076067D01*
X13771990Y23243130D01*
X13751988Y23175009D01*
X13735085Y23154035D01*
X13593555Y23012505D01*
X13580809Y23002294D01*
X13580970Y23002101D01*
X13574861Y22997047D01*
X13524994Y22943944D01*
X13503022Y22921973D01*
X13503006Y22921955D01*
X13498474Y22916112D01*
X13494618Y22911597D01*
X13460968Y22875763D01*
X13460967Y22875761D01*
X13460963Y22875755D01*
X13450634Y22856968D01*
X13439783Y22840448D01*
X13426635Y22823497D01*
X13407106Y22778369D01*
X13404497Y22773043D01*
X13399128Y22763276D01*
X13396652Y22758773D01*
X13346305Y22708716D01*
X13299706Y22694199D01*
X13299064Y22694130D01*
X13299062Y22694130D01*
X13281834Y22692277D01*
X13238503Y22687620D01*
X13238495Y22687618D01*
X13160575Y22658554D01*
X13101496Y22636519D01*
X13101494Y22636518D01*
X13101492Y22636517D01*
X12984438Y22548891D01*
X12896812Y22431837D01*
X12896810Y22431832D01*
X12845711Y22294834D01*
X12845709Y22294826D01*
X12839200Y22234279D01*
X12839200Y20437720D01*
X12845709Y20377173D01*
X12845711Y20377165D01*
X12896810Y20240167D01*
X12896812Y20240162D01*
X12984437Y20123110D01*
X13095635Y20039868D01*
X13138181Y19983032D01*
X13143245Y19912216D01*
X13109220Y19849904D01*
X13095635Y19838132D01*
X13040134Y19796584D01*
X12984439Y19754891D01*
X12984438Y19754889D01*
X12984437Y19754889D01*
X12896812Y19637837D01*
X12896810Y19637832D01*
X12845711Y19500834D01*
X12845709Y19500826D01*
X12839200Y19440279D01*
X12839200Y18508131D01*
X12819198Y18440010D01*
X12802295Y18419036D01*
X12717227Y18333968D01*
X12703376Y18321997D01*
X12683942Y18307529D01*
X12683940Y18307527D01*
X12650003Y18267084D01*
X12646289Y18263030D01*
X12640425Y18257167D01*
X12640421Y18257162D01*
X12640420Y18257161D01*
X12620104Y18231468D01*
X12619864Y18231164D01*
X12569965Y18171696D01*
X12565933Y18165566D01*
X12565878Y18165601D01*
X12561829Y18159247D01*
X12561886Y18159213D01*
X12558033Y18152966D01*
X12525220Y18082600D01*
X12490391Y18013248D01*
X12490390Y18013246D01*
X12490389Y18013243D01*
X12487880Y18006349D01*
X12487817Y18006371D01*
X12485341Y17999249D01*
X12485404Y17999229D01*
X12483097Y17992269D01*
X12467392Y17916210D01*
X12449499Y17840712D01*
X12448648Y17833427D01*
X12448580Y17833434D01*
X12447814Y17825937D01*
X12447881Y17825932D01*
X12447241Y17818619D01*
X12449500Y17740980D01*
X12449500Y17244822D01*
X12429498Y17176701D01*
X12375842Y17130208D01*
X12367566Y17126780D01*
X12263296Y17087889D01*
X12263294Y17087887D01*
X12263292Y17087887D01*
X12198832Y17039632D01*
X12132312Y17014821D01*
X12123323Y17014500D01*
X11656823Y17014500D01*
X11588702Y17034502D01*
X11542209Y17088158D01*
X11538768Y17096467D01*
X11515122Y17159862D01*
X11499889Y17200704D01*
X11469364Y17241480D01*
X11412261Y17317761D01*
X11295207Y17405387D01*
X11295206Y17405387D01*
X11295204Y17405389D01*
X11158201Y17456489D01*
X11158199Y17456489D01*
X11158196Y17456490D01*
X11097649Y17462999D01*
X11097645Y17462999D01*
X11097638Y17463000D01*
X10111362Y17463000D01*
X10111355Y17462999D01*
X10111350Y17462999D01*
X10050803Y17456490D01*
X10050795Y17456488D01*
X9978815Y17429640D01*
X9913796Y17405389D01*
X9913794Y17405388D01*
X9913792Y17405387D01*
X9796738Y17317761D01*
X9709112Y17200707D01*
X9709110Y17200702D01*
X9658011Y17063704D01*
X9658009Y17063696D01*
X9651500Y17003149D01*
X9651500Y15508850D01*
X9658009Y15448303D01*
X9658011Y15448295D01*
X9709110Y15311297D01*
X9709112Y15311292D01*
X9801028Y15188509D01*
X9825839Y15121989D01*
X9810748Y15052615D01*
X9801028Y15037491D01*
X9709112Y14914707D01*
X9709110Y14914702D01*
X9658011Y14777704D01*
X9658009Y14777696D01*
X9651500Y14717149D01*
X9651500Y13222850D01*
X9658009Y13162303D01*
X9658011Y13162295D01*
X9709110Y13025297D01*
X9709112Y13025292D01*
X9796738Y12908238D01*
X9913792Y12820612D01*
X9913797Y12820610D01*
X10050795Y12769511D01*
X10050803Y12769509D01*
X10111350Y12763000D01*
X10111362Y12763000D01*
X10748463Y12763000D01*
X10816584Y12742998D01*
X10863077Y12689342D01*
X10873181Y12619068D01*
X10854568Y12574135D01*
X10856432Y12573118D01*
X10852110Y12565202D01*
X10801011Y12428204D01*
X10801009Y12428196D01*
X10794500Y12367649D01*
X10794500Y11839044D01*
X10774498Y11770923D01*
X10720842Y11724430D01*
X10650568Y11714326D01*
X10585988Y11743820D01*
X10550445Y11795011D01*
X10547389Y11803203D01*
X10547387Y11803207D01*
X10459761Y11920261D01*
X10342707Y12007887D01*
X10342706Y12007887D01*
X10342704Y12007889D01*
X10205701Y12058989D01*
X10205699Y12058989D01*
X10205696Y12058990D01*
X10145149Y12065499D01*
X10145145Y12065499D01*
X10145138Y12065500D01*
X10145132Y12065500D01*
X9569871Y12065500D01*
X9501750Y12085502D01*
X9480781Y12102399D01*
X8138395Y13444784D01*
X8126441Y13458617D01*
X8111969Y13478058D01*
X8071515Y13512001D01*
X8067479Y13515700D01*
X8061601Y13521580D01*
X8035603Y13542136D01*
X7976137Y13592035D01*
X7970008Y13596066D01*
X7970045Y13596122D01*
X7963687Y13600173D01*
X7963651Y13600115D01*
X7957410Y13603963D01*
X7957406Y13603967D01*
X7924962Y13619095D01*
X7887041Y13636779D01*
X7863989Y13648355D01*
X7817688Y13671609D01*
X7817684Y13671610D01*
X7810791Y13674119D01*
X7810814Y13674184D01*
X7803697Y13676658D01*
X7803676Y13676594D01*
X7796708Y13678903D01*
X7720655Y13694606D01*
X7718173Y13695193D01*
X7712309Y13696583D01*
X7650637Y13731751D01*
X7617767Y13794680D01*
X7616085Y13805703D01*
X7613989Y13825201D01*
X7562889Y13962204D01*
X7475261Y14079261D01*
X7358204Y14166889D01*
X7221201Y14217989D01*
X7221199Y14217989D01*
X7221196Y14217990D01*
X7160649Y14224499D01*
X7160645Y14224499D01*
X7160638Y14224500D01*
X5539362Y14224500D01*
X5539355Y14224499D01*
X5539350Y14224499D01*
X5478803Y14217990D01*
X5478795Y14217988D01*
X5400875Y14188924D01*
X5341796Y14166889D01*
X5341794Y14166888D01*
X5341792Y14166887D01*
X5224738Y14079261D01*
X5180868Y14020657D01*
X5124032Y13978110D01*
X5053216Y13973046D01*
X4990904Y14007071D01*
X4979132Y14020657D01*
X4935261Y14079261D01*
X4818207Y14166887D01*
X4818206Y14166887D01*
X4818204Y14166889D01*
X4681201Y14217989D01*
X4681199Y14217989D01*
X4681196Y14217990D01*
X4620649Y14224499D01*
X4620645Y14224499D01*
X4620638Y14224500D01*
X3043500Y14224500D01*
X2975379Y14244502D01*
X2928886Y14298158D01*
X2917500Y14350500D01*
X2917500Y16643629D01*
X2937502Y16711750D01*
X2954405Y16732724D01*
X3043582Y16821901D01*
X3105894Y16855927D01*
X3176709Y16850862D01*
X3208186Y16833674D01*
X3309792Y16757613D01*
X3309797Y16757610D01*
X3446795Y16706511D01*
X3446803Y16706509D01*
X3507350Y16700000D01*
X3507362Y16700000D01*
X4493649Y16700000D01*
X4554196Y16706509D01*
X4554204Y16706511D01*
X4691202Y16757610D01*
X4691207Y16757612D01*
X4808261Y16845238D01*
X4895887Y16962292D01*
X4895889Y16962297D01*
X4909183Y16997937D01*
X4930954Y17056308D01*
X4946988Y17099295D01*
X4946990Y17099303D01*
X4953499Y17159850D01*
X4953500Y17159867D01*
X4953500Y18654132D01*
X4953499Y18654149D01*
X4946990Y18714696D01*
X4946988Y18714704D01*
X4937102Y18741208D01*
X4895889Y18851704D01*
X4812154Y18963561D01*
X4787343Y19030081D01*
X4802434Y19099455D01*
X4852636Y19149657D01*
X4913022Y19165070D01*
X7427349Y19165070D01*
X7487896Y19171579D01*
X7487904Y19171581D01*
X7624902Y19222680D01*
X7624907Y19222682D01*
X7741961Y19310308D01*
X7829587Y19427362D01*
X7829589Y19427367D01*
X7833851Y19438792D01*
X7851624Y19486445D01*
X7880688Y19564365D01*
X7880690Y19564373D01*
X7887199Y19624920D01*
X7887200Y19624937D01*
X7887200Y21523062D01*
X7887199Y21523079D01*
X7880690Y21583626D01*
X7880688Y21583634D01*
X7851571Y21661698D01*
X7829589Y21720634D01*
X7741961Y21837691D01*
X7624904Y21925319D01*
X7487901Y21976419D01*
X7487899Y21976419D01*
X7487896Y21976420D01*
X7427349Y21982929D01*
X7427345Y21982929D01*
X7427338Y21982930D01*
X4830702Y21982930D01*
X4830695Y21982929D01*
X4830690Y21982929D01*
X4770143Y21976420D01*
X4770135Y21976418D01*
X4707890Y21953201D01*
X4633136Y21925319D01*
X4633134Y21925318D01*
X4633132Y21925317D01*
X4516078Y21837691D01*
X4481868Y21791991D01*
X4425032Y21749444D01*
X4354217Y21744380D01*
X4291904Y21778405D01*
X4257879Y21840717D01*
X4255000Y21867500D01*
X4255000Y22116629D01*
X4275002Y22184750D01*
X4291905Y22205724D01*
X4364273Y22278092D01*
X4378127Y22290065D01*
X4397557Y22304530D01*
X4431494Y22344975D01*
X4435202Y22349021D01*
X4441080Y22354899D01*
X4461636Y22380896D01*
X4511532Y22440360D01*
X4511535Y22440366D01*
X4515567Y22446495D01*
X4515623Y22446457D01*
X4519672Y22452813D01*
X4519615Y22452849D01*
X4523465Y22459092D01*
X4523467Y22459094D01*
X4556275Y22529453D01*
X4591109Y22598812D01*
X4591110Y22598819D01*
X4593618Y22605707D01*
X4593680Y22605684D01*
X4596157Y22612810D01*
X4596095Y22612831D01*
X4598399Y22619788D01*
X4598402Y22619793D01*
X4614100Y22695822D01*
X4627989Y22754420D01*
X4632000Y22771343D01*
X4632852Y22778632D01*
X4632918Y22778624D01*
X4633684Y22786124D01*
X4633618Y22786130D01*
X4634256Y22793434D01*
X4634258Y22793442D01*
X4632000Y22871045D01*
X4632000Y23375714D01*
X4652002Y23443835D01*
X4705658Y23490328D01*
X4737084Y23498949D01*
X4737026Y23499197D01*
X4743957Y23500835D01*
X4744529Y23500992D01*
X4744697Y23501010D01*
X4744704Y23501011D01*
X4881702Y23552110D01*
X4881707Y23552112D01*
X4998761Y23639738D01*
X5050463Y23708804D01*
X5107299Y23751351D01*
X5178114Y23756415D01*
X5240426Y23722391D01*
X5360095Y23602723D01*
X5394120Y23540411D01*
X5397000Y23513627D01*
X5397000Y22938350D01*
X5403509Y22877803D01*
X5403511Y22877795D01*
X5454610Y22740797D01*
X5454612Y22740792D01*
X5542238Y22623738D01*
X5659292Y22536112D01*
X5659297Y22536110D01*
X5796295Y22485011D01*
X5796303Y22485009D01*
X5856850Y22478500D01*
X5856862Y22478500D01*
X7351149Y22478500D01*
X7411696Y22485009D01*
X7411704Y22485011D01*
X7548702Y22536110D01*
X7548707Y22536112D01*
X7598648Y22573498D01*
X7665168Y22598309D01*
X7734542Y22583218D01*
X7763252Y22561725D01*
X7764736Y22560240D01*
X7881792Y22472612D01*
X7881797Y22472610D01*
X8018795Y22421511D01*
X8018803Y22421509D01*
X8079350Y22415000D01*
X8079362Y22415000D01*
X9065649Y22415000D01*
X9126196Y22421509D01*
X9126204Y22421511D01*
X9263202Y22472610D01*
X9263207Y22472612D01*
X9380261Y22560238D01*
X9467887Y22677292D01*
X9467889Y22677297D01*
X9471740Y22687620D01*
X9502967Y22771343D01*
X9518988Y22814295D01*
X9518990Y22814303D01*
X9525499Y22874850D01*
X9525500Y22874867D01*
X9525500Y24369132D01*
X9525499Y24369149D01*
X9518990Y24429696D01*
X9518988Y24429704D01*
X9483138Y24525820D01*
X9467889Y24566704D01*
X9380261Y24683761D01*
X9376363Y24686679D01*
X9263207Y24771387D01*
X9263206Y24771387D01*
X9263204Y24771389D01*
X9126201Y24822489D01*
X9126199Y24822489D01*
X9126196Y24822490D01*
X9065649Y24828999D01*
X9065645Y24828999D01*
X9065638Y24829000D01*
X8079362Y24829000D01*
X8079355Y24828999D01*
X8079350Y24828999D01*
X8018803Y24822490D01*
X8018798Y24822489D01*
X7995785Y24813905D01*
X7981033Y24808402D01*
X7910218Y24803337D01*
X7847905Y24837362D01*
X7813880Y24899673D01*
X7811000Y24926458D01*
X7811000Y25829632D01*
X7810999Y25829649D01*
X7804490Y25890196D01*
X7804488Y25890204D01*
X7788103Y25934132D01*
X7753389Y26027204D01*
X7692373Y26108711D01*
X7665761Y26144261D01*
X7548707Y26231887D01*
X7548706Y26231887D01*
X7548704Y26231889D01*
X7444464Y26270768D01*
X7387632Y26313313D01*
X7362821Y26379833D01*
X7362500Y26388822D01*
X7362500Y27119000D01*
X7382502Y27187121D01*
X7436158Y27233614D01*
X7488500Y27245000D01*
X8065000Y27245000D01*
X8133121Y27224998D01*
X8179614Y27171342D01*
X8191000Y27119000D01*
X8191000Y27002350D01*
X8197509Y26941803D01*
X8197511Y26941795D01*
X8248610Y26804797D01*
X8248612Y26804792D01*
X8336238Y26687738D01*
X8453292Y26600112D01*
X8453297Y26600110D01*
X8590295Y26549011D01*
X8590303Y26549009D01*
X8650850Y26542500D01*
X8650862Y26542500D01*
X10145149Y26542500D01*
X10205696Y26549009D01*
X10205704Y26549011D01*
X10342702Y26600110D01*
X10342707Y26600112D01*
X10459761Y26687738D01*
X10547387Y26804792D01*
X10547389Y26804797D01*
X10598488Y26941795D01*
X10598490Y26941803D01*
X10604999Y27002350D01*
X10605000Y27002367D01*
X10605000Y27988632D01*
X10604999Y27988649D01*
X10598490Y28049196D01*
X10598488Y28049204D01*
X10591460Y28068045D01*
X10547389Y28186204D01*
X10459761Y28303261D01*
X10342707Y28390887D01*
X10342706Y28390887D01*
X10342704Y28390889D01*
X10205701Y28441989D01*
X10205699Y28441989D01*
X10205696Y28441990D01*
X10145149Y28448499D01*
X10145145Y28448499D01*
X10145138Y28448500D01*
X10145132Y28448500D01*
X9305939Y28448500D01*
X9237818Y28468502D01*
X9216844Y28485405D01*
X9207973Y28494276D01*
X9196005Y28508122D01*
X9181537Y28527558D01*
X9141083Y28561501D01*
X9137047Y28565200D01*
X9131169Y28571080D01*
X9105171Y28591636D01*
X9103780Y28592803D01*
X9045705Y28641535D01*
X9039576Y28645566D01*
X9039613Y28645622D01*
X9033255Y28649673D01*
X9033219Y28649615D01*
X9026978Y28653463D01*
X9026974Y28653467D01*
X8994530Y28668595D01*
X8956609Y28686279D01*
X8933557Y28697855D01*
X8887256Y28721109D01*
X8887252Y28721110D01*
X8880359Y28723619D01*
X8880382Y28723684D01*
X8873265Y28726158D01*
X8873244Y28726094D01*
X8866276Y28728403D01*
X8790218Y28744107D01*
X8766766Y28749665D01*
X8714724Y28762000D01*
X8714717Y28762000D01*
X8707436Y28762852D01*
X8707443Y28762919D01*
X8699945Y28763685D01*
X8699940Y28763619D01*
X8692633Y28764257D01*
X8692626Y28764259D01*
X8614988Y28762000D01*
X7305184Y28762000D01*
X7237063Y28782002D01*
X7229693Y28787118D01*
X7139764Y28854439D01*
X7002761Y28905539D01*
X7002759Y28905539D01*
X7002756Y28905540D01*
X6942209Y28912049D01*
X6942205Y28912049D01*
X6942198Y28912050D01*
X6942192Y28912050D01*
X5931321Y28912050D01*
X5863200Y28932052D01*
X5842226Y28948955D01*
X5180905Y29610276D01*
X5146879Y29672588D01*
X5144000Y29699371D01*
X5144000Y30425499D01*
X5164002Y30493620D01*
X5217658Y30540113D01*
X5270000Y30551499D01*
X6191493Y30551499D01*
X7134454Y30551499D01*
X7202575Y30531497D01*
X7214389Y30522897D01*
X7225503Y30513775D01*
X7391058Y30425283D01*
X7391064Y30425281D01*
X7570709Y30370786D01*
X7757521Y30352388D01*
X7757524Y30352388D01*
X7757527Y30352388D01*
X7944337Y30370786D01*
X7944339Y30370786D01*
X8123983Y30425281D01*
X8123989Y30425283D01*
X8289544Y30513775D01*
X8335511Y30551499D01*
X8434657Y30632866D01*
X8553748Y30777979D01*
X8642241Y30943537D01*
X8696735Y31123178D01*
X8696735Y31123180D01*
X8696736Y31123183D01*
X8696736Y31123185D01*
X8715135Y31309995D01*
X8715135Y31310002D01*
X8696736Y31496812D01*
X8696736Y31496814D01*
X8696735Y31496815D01*
X8696735Y31496820D01*
X8642241Y31676461D01*
X8553748Y31842019D01*
X8434657Y31987132D01*
X8289544Y32106223D01*
X8123986Y32194716D01*
X7944345Y32249210D01*
X7944339Y32249210D01*
X7944338Y32249211D01*
X7757527Y32267610D01*
X7757521Y32267610D01*
X7570710Y32249211D01*
X7570708Y32249211D01*
X7570705Y32249210D01*
X7570703Y32249210D01*
X7391062Y32194716D01*
X7225504Y32106223D01*
X7225503Y32106222D01*
X7214389Y32097101D01*
X7149042Y32069346D01*
X7134454Y32068499D01*
X2674290Y32068499D01*
X2656031Y32069829D01*
X2650444Y32070647D01*
X2632060Y32073340D01*
X2598702Y32070421D01*
X2579464Y32068739D01*
X2573971Y32068499D01*
X2565668Y32068499D01*
X2549211Y32066575D01*
X2532753Y32064651D01*
X2455423Y32057886D01*
X2455420Y32057885D01*
X2448237Y32056402D01*
X2448223Y32056468D01*
X2440861Y32054836D01*
X2440877Y32054771D01*
X2433739Y32053079D01*
X2433736Y32053078D01*
X2360783Y32026525D01*
X2287111Y32002113D01*
X2287104Y32002108D01*
X2280460Y31999011D01*
X2280430Y31999073D01*
X2273644Y31995787D01*
X2273675Y31995727D01*
X2267120Y31992435D01*
X2267117Y31992434D01*
X2202243Y31949765D01*
X2136198Y31909029D01*
X2136195Y31909026D01*
X2130441Y31904477D01*
X2130398Y31904530D01*
X2124549Y31899765D01*
X2124593Y31899714D01*
X2118971Y31894997D01*
X2068990Y31842019D01*
X2065685Y31838516D01*
X1541220Y31314051D01*
X1527376Y31302087D01*
X1507942Y31287619D01*
X1507940Y31287617D01*
X1474003Y31247174D01*
X1470289Y31243120D01*
X1464425Y31237257D01*
X1443864Y31211254D01*
X1393965Y31151786D01*
X1389933Y31145656D01*
X1389878Y31145691D01*
X1385829Y31139337D01*
X1385886Y31139303D01*
X1382033Y31133056D01*
X1349220Y31062690D01*
X1314391Y30993338D01*
X1314390Y30993336D01*
X1314389Y30993333D01*
X1311880Y30986439D01*
X1311817Y30986461D01*
X1309341Y30979339D01*
X1309404Y30979319D01*
X1307097Y30972359D01*
X1291392Y30896300D01*
X1273499Y30820802D01*
X1272648Y30813517D01*
X1272580Y30813524D01*
X1271814Y30806027D01*
X1271881Y30806022D01*
X1271241Y30798709D01*
X1273500Y30721070D01*
X1273500Y25408935D01*
X1272169Y25390672D01*
X1268659Y25366716D01*
X1268659Y25366709D01*
X304500Y25366709D01*
X304500Y40209500D01*
X324502Y40277621D01*
X378158Y40324114D01*
X430500Y40335500D01*
X30049500Y40335500D01*
X30117621Y40315498D01*
G37*
%TD.AperFunction*%
%TD*%
M02*
