%TF.GenerationSoftware,KiCad,Pcbnew,7.0.5.1-1-g8f565ef7f0-dirty-deb11*%
%TF.CreationDate,2023-07-10T01:44:05+00:00*%
%TF.ProjectId,I2CADC01,49324341-4443-4303-912e-6b696361645f,rev?*%
%TF.SameCoordinates,Original*%
%TF.FileFunction,Legend,Bot*%
%TF.FilePolarity,Positive*%
%FSLAX46Y46*%
G04 Gerber Fmt 4.6, Leading zero omitted, Abs format (unit mm)*
G04 Created by KiCad (PCBNEW 7.0.5.1-1-g8f565ef7f0-dirty-deb11) date 2023-07-10 01:44:05*
%MOMM*%
%LPD*%
G01*
G04 APERTURE LIST*
%ADD10C,0.109220*%
%ADD11C,0.304800*%
%ADD12C,0.099060*%
%ADD13C,0.150000*%
%ADD14C,0.119380*%
G04 APERTURE END LIST*
D10*
%TO.C,C1*%
X21927396Y16395349D02*
X21951224Y16371522D01*
X21951224Y16371522D02*
X22022706Y16347694D01*
X22022706Y16347694D02*
X22070362Y16347694D01*
X22070362Y16347694D02*
X22141845Y16371522D01*
X22141845Y16371522D02*
X22189500Y16419177D01*
X22189500Y16419177D02*
X22213327Y16466832D01*
X22213327Y16466832D02*
X22237155Y16562142D01*
X22237155Y16562142D02*
X22237155Y16633625D01*
X22237155Y16633625D02*
X22213327Y16728936D01*
X22213327Y16728936D02*
X22189500Y16776591D01*
X22189500Y16776591D02*
X22141845Y16824246D01*
X22141845Y16824246D02*
X22070362Y16848074D01*
X22070362Y16848074D02*
X22022706Y16848074D01*
X22022706Y16848074D02*
X21951224Y16824246D01*
X21951224Y16824246D02*
X21927396Y16800419D01*
X21450844Y16347694D02*
X21736775Y16347694D01*
X21593809Y16347694D02*
X21593809Y16848074D01*
X21593809Y16848074D02*
X21641465Y16776591D01*
X21641465Y16776591D02*
X21689120Y16728936D01*
X21689120Y16728936D02*
X21736775Y16705108D01*
X22491397Y15649194D02*
X22777328Y15649194D01*
X22634362Y15649194D02*
X22634362Y16149574D01*
X22634362Y16149574D02*
X22682018Y16078091D01*
X22682018Y16078091D02*
X22729673Y16030436D01*
X22729673Y16030436D02*
X22777328Y16006608D01*
X22181638Y16149574D02*
X22133983Y16149574D01*
X22133983Y16149574D02*
X22086327Y16125746D01*
X22086327Y16125746D02*
X22062500Y16101919D01*
X22062500Y16101919D02*
X22038672Y16054263D01*
X22038672Y16054263D02*
X22014845Y15958953D01*
X22014845Y15958953D02*
X22014845Y15839815D01*
X22014845Y15839815D02*
X22038672Y15744504D01*
X22038672Y15744504D02*
X22062500Y15696849D01*
X22062500Y15696849D02*
X22086327Y15673022D01*
X22086327Y15673022D02*
X22133983Y15649194D01*
X22133983Y15649194D02*
X22181638Y15649194D01*
X22181638Y15649194D02*
X22229293Y15673022D01*
X22229293Y15673022D02*
X22253121Y15696849D01*
X22253121Y15696849D02*
X22276948Y15744504D01*
X22276948Y15744504D02*
X22300776Y15839815D01*
X22300776Y15839815D02*
X22300776Y15958953D01*
X22300776Y15958953D02*
X22276948Y16054263D01*
X22276948Y16054263D02*
X22253121Y16101919D01*
X22253121Y16101919D02*
X22229293Y16125746D01*
X22229293Y16125746D02*
X22181638Y16149574D01*
X21705086Y16149574D02*
X21657431Y16149574D01*
X21657431Y16149574D02*
X21609775Y16125746D01*
X21609775Y16125746D02*
X21585948Y16101919D01*
X21585948Y16101919D02*
X21562120Y16054263D01*
X21562120Y16054263D02*
X21538293Y15958953D01*
X21538293Y15958953D02*
X21538293Y15839815D01*
X21538293Y15839815D02*
X21562120Y15744504D01*
X21562120Y15744504D02*
X21585948Y15696849D01*
X21585948Y15696849D02*
X21609775Y15673022D01*
X21609775Y15673022D02*
X21657431Y15649194D01*
X21657431Y15649194D02*
X21705086Y15649194D01*
X21705086Y15649194D02*
X21752741Y15673022D01*
X21752741Y15673022D02*
X21776569Y15696849D01*
X21776569Y15696849D02*
X21800396Y15744504D01*
X21800396Y15744504D02*
X21824224Y15839815D01*
X21824224Y15839815D02*
X21824224Y15958953D01*
X21824224Y15958953D02*
X21800396Y16054263D01*
X21800396Y16054263D02*
X21776569Y16101919D01*
X21776569Y16101919D02*
X21752741Y16125746D01*
X21752741Y16125746D02*
X21705086Y16149574D01*
X21323844Y15982781D02*
X21323844Y15649194D01*
X21323844Y15935125D02*
X21300017Y15958953D01*
X21300017Y15958953D02*
X21252362Y15982781D01*
X21252362Y15982781D02*
X21180879Y15982781D01*
X21180879Y15982781D02*
X21133223Y15958953D01*
X21133223Y15958953D02*
X21109396Y15911298D01*
X21109396Y15911298D02*
X21109396Y15649194D01*
X20704326Y15911298D02*
X20871119Y15911298D01*
X20871119Y15649194D02*
X20871119Y16149574D01*
X20871119Y16149574D02*
X20632843Y16149574D01*
%TO.C,C2*%
X9735396Y16395349D02*
X9759224Y16371522D01*
X9759224Y16371522D02*
X9830706Y16347694D01*
X9830706Y16347694D02*
X9878362Y16347694D01*
X9878362Y16347694D02*
X9949845Y16371522D01*
X9949845Y16371522D02*
X9997500Y16419177D01*
X9997500Y16419177D02*
X10021327Y16466832D01*
X10021327Y16466832D02*
X10045155Y16562142D01*
X10045155Y16562142D02*
X10045155Y16633625D01*
X10045155Y16633625D02*
X10021327Y16728936D01*
X10021327Y16728936D02*
X9997500Y16776591D01*
X9997500Y16776591D02*
X9949845Y16824246D01*
X9949845Y16824246D02*
X9878362Y16848074D01*
X9878362Y16848074D02*
X9830706Y16848074D01*
X9830706Y16848074D02*
X9759224Y16824246D01*
X9759224Y16824246D02*
X9735396Y16800419D01*
X9544775Y16800419D02*
X9520947Y16824246D01*
X9520947Y16824246D02*
X9473292Y16848074D01*
X9473292Y16848074D02*
X9354154Y16848074D01*
X9354154Y16848074D02*
X9306499Y16824246D01*
X9306499Y16824246D02*
X9282671Y16800419D01*
X9282671Y16800419D02*
X9258844Y16752763D01*
X9258844Y16752763D02*
X9258844Y16705108D01*
X9258844Y16705108D02*
X9282671Y16633625D01*
X9282671Y16633625D02*
X9568603Y16347694D01*
X9568603Y16347694D02*
X9258844Y16347694D01*
X10299397Y15649194D02*
X10585328Y15649194D01*
X10442362Y15649194D02*
X10442362Y16149574D01*
X10442362Y16149574D02*
X10490018Y16078091D01*
X10490018Y16078091D02*
X10537673Y16030436D01*
X10537673Y16030436D02*
X10585328Y16006608D01*
X9989638Y16149574D02*
X9941983Y16149574D01*
X9941983Y16149574D02*
X9894327Y16125746D01*
X9894327Y16125746D02*
X9870500Y16101919D01*
X9870500Y16101919D02*
X9846672Y16054263D01*
X9846672Y16054263D02*
X9822845Y15958953D01*
X9822845Y15958953D02*
X9822845Y15839815D01*
X9822845Y15839815D02*
X9846672Y15744504D01*
X9846672Y15744504D02*
X9870500Y15696849D01*
X9870500Y15696849D02*
X9894327Y15673022D01*
X9894327Y15673022D02*
X9941983Y15649194D01*
X9941983Y15649194D02*
X9989638Y15649194D01*
X9989638Y15649194D02*
X10037293Y15673022D01*
X10037293Y15673022D02*
X10061121Y15696849D01*
X10061121Y15696849D02*
X10084948Y15744504D01*
X10084948Y15744504D02*
X10108776Y15839815D01*
X10108776Y15839815D02*
X10108776Y15958953D01*
X10108776Y15958953D02*
X10084948Y16054263D01*
X10084948Y16054263D02*
X10061121Y16101919D01*
X10061121Y16101919D02*
X10037293Y16125746D01*
X10037293Y16125746D02*
X9989638Y16149574D01*
X9513086Y16149574D02*
X9465431Y16149574D01*
X9465431Y16149574D02*
X9417775Y16125746D01*
X9417775Y16125746D02*
X9393948Y16101919D01*
X9393948Y16101919D02*
X9370120Y16054263D01*
X9370120Y16054263D02*
X9346293Y15958953D01*
X9346293Y15958953D02*
X9346293Y15839815D01*
X9346293Y15839815D02*
X9370120Y15744504D01*
X9370120Y15744504D02*
X9393948Y15696849D01*
X9393948Y15696849D02*
X9417775Y15673022D01*
X9417775Y15673022D02*
X9465431Y15649194D01*
X9465431Y15649194D02*
X9513086Y15649194D01*
X9513086Y15649194D02*
X9560741Y15673022D01*
X9560741Y15673022D02*
X9584569Y15696849D01*
X9584569Y15696849D02*
X9608396Y15744504D01*
X9608396Y15744504D02*
X9632224Y15839815D01*
X9632224Y15839815D02*
X9632224Y15958953D01*
X9632224Y15958953D02*
X9608396Y16054263D01*
X9608396Y16054263D02*
X9584569Y16101919D01*
X9584569Y16101919D02*
X9560741Y16125746D01*
X9560741Y16125746D02*
X9513086Y16149574D01*
X9131844Y15982781D02*
X9131844Y15649194D01*
X9131844Y15935125D02*
X9108017Y15958953D01*
X9108017Y15958953D02*
X9060362Y15982781D01*
X9060362Y15982781D02*
X8988879Y15982781D01*
X8988879Y15982781D02*
X8941223Y15958953D01*
X8941223Y15958953D02*
X8917396Y15911298D01*
X8917396Y15911298D02*
X8917396Y15649194D01*
X8512326Y15911298D02*
X8679119Y15911298D01*
X8679119Y15649194D02*
X8679119Y16149574D01*
X8679119Y16149574D02*
X8440843Y16149574D01*
%TO.C,C3*%
X21450650Y24213396D02*
X21474478Y24237224D01*
X21474478Y24237224D02*
X21498305Y24308706D01*
X21498305Y24308706D02*
X21498305Y24356362D01*
X21498305Y24356362D02*
X21474478Y24427845D01*
X21474478Y24427845D02*
X21426822Y24475500D01*
X21426822Y24475500D02*
X21379167Y24499327D01*
X21379167Y24499327D02*
X21283857Y24523155D01*
X21283857Y24523155D02*
X21212374Y24523155D01*
X21212374Y24523155D02*
X21117063Y24499327D01*
X21117063Y24499327D02*
X21069408Y24475500D01*
X21069408Y24475500D02*
X21021753Y24427845D01*
X21021753Y24427845D02*
X20997925Y24356362D01*
X20997925Y24356362D02*
X20997925Y24308706D01*
X20997925Y24308706D02*
X21021753Y24237224D01*
X21021753Y24237224D02*
X21045580Y24213396D01*
X20997925Y24046603D02*
X20997925Y23736844D01*
X20997925Y23736844D02*
X21188546Y23903637D01*
X21188546Y23903637D02*
X21188546Y23832154D01*
X21188546Y23832154D02*
X21212374Y23784499D01*
X21212374Y23784499D02*
X21236201Y23760671D01*
X21236201Y23760671D02*
X21283857Y23736844D01*
X21283857Y23736844D02*
X21402995Y23736844D01*
X21402995Y23736844D02*
X21450650Y23760671D01*
X21450650Y23760671D02*
X21474478Y23784499D01*
X21474478Y23784499D02*
X21498305Y23832154D01*
X21498305Y23832154D02*
X21498305Y23975120D01*
X21498305Y23975120D02*
X21474478Y24022775D01*
X21474478Y24022775D02*
X21450650Y24046603D01*
X22196805Y24539121D02*
X22196805Y24825052D01*
X22196805Y24682086D02*
X21696425Y24682086D01*
X21696425Y24682086D02*
X21767908Y24729742D01*
X21767908Y24729742D02*
X21815563Y24777397D01*
X21815563Y24777397D02*
X21839391Y24825052D01*
X21696425Y24229362D02*
X21696425Y24181707D01*
X21696425Y24181707D02*
X21720253Y24134051D01*
X21720253Y24134051D02*
X21744080Y24110224D01*
X21744080Y24110224D02*
X21791736Y24086396D01*
X21791736Y24086396D02*
X21887046Y24062569D01*
X21887046Y24062569D02*
X22006184Y24062569D01*
X22006184Y24062569D02*
X22101495Y24086396D01*
X22101495Y24086396D02*
X22149150Y24110224D01*
X22149150Y24110224D02*
X22172978Y24134051D01*
X22172978Y24134051D02*
X22196805Y24181707D01*
X22196805Y24181707D02*
X22196805Y24229362D01*
X22196805Y24229362D02*
X22172978Y24277017D01*
X22172978Y24277017D02*
X22149150Y24300845D01*
X22149150Y24300845D02*
X22101495Y24324672D01*
X22101495Y24324672D02*
X22006184Y24348500D01*
X22006184Y24348500D02*
X21887046Y24348500D01*
X21887046Y24348500D02*
X21791736Y24324672D01*
X21791736Y24324672D02*
X21744080Y24300845D01*
X21744080Y24300845D02*
X21720253Y24277017D01*
X21720253Y24277017D02*
X21696425Y24229362D01*
X21863218Y23633672D02*
X22196805Y23633672D01*
X21863218Y23848120D02*
X22125322Y23848120D01*
X22125322Y23848120D02*
X22172978Y23824293D01*
X22172978Y23824293D02*
X22196805Y23776638D01*
X22196805Y23776638D02*
X22196805Y23705155D01*
X22196805Y23705155D02*
X22172978Y23657499D01*
X22172978Y23657499D02*
X22149150Y23633672D01*
X21934701Y23228602D02*
X21934701Y23395395D01*
X22196805Y23395395D02*
X21696425Y23395395D01*
X21696425Y23395395D02*
X21696425Y23157119D01*
%TO.C,C4*%
X18910650Y24213396D02*
X18934478Y24237224D01*
X18934478Y24237224D02*
X18958305Y24308706D01*
X18958305Y24308706D02*
X18958305Y24356362D01*
X18958305Y24356362D02*
X18934478Y24427845D01*
X18934478Y24427845D02*
X18886822Y24475500D01*
X18886822Y24475500D02*
X18839167Y24499327D01*
X18839167Y24499327D02*
X18743857Y24523155D01*
X18743857Y24523155D02*
X18672374Y24523155D01*
X18672374Y24523155D02*
X18577063Y24499327D01*
X18577063Y24499327D02*
X18529408Y24475500D01*
X18529408Y24475500D02*
X18481753Y24427845D01*
X18481753Y24427845D02*
X18457925Y24356362D01*
X18457925Y24356362D02*
X18457925Y24308706D01*
X18457925Y24308706D02*
X18481753Y24237224D01*
X18481753Y24237224D02*
X18505580Y24213396D01*
X18624718Y23784499D02*
X18958305Y23784499D01*
X18434098Y23903637D02*
X18791512Y24022775D01*
X18791512Y24022775D02*
X18791512Y23713016D01*
X19656805Y24777397D02*
X19656805Y25063328D01*
X19656805Y24920362D02*
X19156425Y24920362D01*
X19156425Y24920362D02*
X19227908Y24968018D01*
X19227908Y24968018D02*
X19275563Y25015673D01*
X19275563Y25015673D02*
X19299391Y25063328D01*
X19156425Y24467638D02*
X19156425Y24419983D01*
X19156425Y24419983D02*
X19180253Y24372327D01*
X19180253Y24372327D02*
X19204080Y24348500D01*
X19204080Y24348500D02*
X19251736Y24324672D01*
X19251736Y24324672D02*
X19347046Y24300845D01*
X19347046Y24300845D02*
X19466184Y24300845D01*
X19466184Y24300845D02*
X19561495Y24324672D01*
X19561495Y24324672D02*
X19609150Y24348500D01*
X19609150Y24348500D02*
X19632978Y24372327D01*
X19632978Y24372327D02*
X19656805Y24419983D01*
X19656805Y24419983D02*
X19656805Y24467638D01*
X19656805Y24467638D02*
X19632978Y24515293D01*
X19632978Y24515293D02*
X19609150Y24539121D01*
X19609150Y24539121D02*
X19561495Y24562948D01*
X19561495Y24562948D02*
X19466184Y24586776D01*
X19466184Y24586776D02*
X19347046Y24586776D01*
X19347046Y24586776D02*
X19251736Y24562948D01*
X19251736Y24562948D02*
X19204080Y24539121D01*
X19204080Y24539121D02*
X19180253Y24515293D01*
X19180253Y24515293D02*
X19156425Y24467638D01*
X19156425Y23991086D02*
X19156425Y23943431D01*
X19156425Y23943431D02*
X19180253Y23895775D01*
X19180253Y23895775D02*
X19204080Y23871948D01*
X19204080Y23871948D02*
X19251736Y23848120D01*
X19251736Y23848120D02*
X19347046Y23824293D01*
X19347046Y23824293D02*
X19466184Y23824293D01*
X19466184Y23824293D02*
X19561495Y23848120D01*
X19561495Y23848120D02*
X19609150Y23871948D01*
X19609150Y23871948D02*
X19632978Y23895775D01*
X19632978Y23895775D02*
X19656805Y23943431D01*
X19656805Y23943431D02*
X19656805Y23991086D01*
X19656805Y23991086D02*
X19632978Y24038741D01*
X19632978Y24038741D02*
X19609150Y24062569D01*
X19609150Y24062569D02*
X19561495Y24086396D01*
X19561495Y24086396D02*
X19466184Y24110224D01*
X19466184Y24110224D02*
X19347046Y24110224D01*
X19347046Y24110224D02*
X19251736Y24086396D01*
X19251736Y24086396D02*
X19204080Y24062569D01*
X19204080Y24062569D02*
X19180253Y24038741D01*
X19180253Y24038741D02*
X19156425Y23991086D01*
X19323218Y23609844D02*
X19656805Y23609844D01*
X19370874Y23609844D02*
X19347046Y23586017D01*
X19347046Y23586017D02*
X19323218Y23538362D01*
X19323218Y23538362D02*
X19323218Y23466879D01*
X19323218Y23466879D02*
X19347046Y23419223D01*
X19347046Y23419223D02*
X19394701Y23395396D01*
X19394701Y23395396D02*
X19656805Y23395396D01*
X19394701Y22990326D02*
X19394701Y23157119D01*
X19656805Y23157119D02*
X19156425Y23157119D01*
X19156425Y23157119D02*
X19156425Y22918843D01*
D11*
%TO.C,D1*%
X9125856Y19948318D02*
X9125856Y21472318D01*
X9125856Y21472318D02*
X8762999Y21472318D01*
X8762999Y21472318D02*
X8545285Y21399747D01*
X8545285Y21399747D02*
X8400142Y21254604D01*
X8400142Y21254604D02*
X8327571Y21109461D01*
X8327571Y21109461D02*
X8254999Y20819175D01*
X8254999Y20819175D02*
X8254999Y20601461D01*
X8254999Y20601461D02*
X8327571Y20311175D01*
X8327571Y20311175D02*
X8400142Y20166032D01*
X8400142Y20166032D02*
X8545285Y20020890D01*
X8545285Y20020890D02*
X8762999Y19948318D01*
X8762999Y19948318D02*
X9125856Y19948318D01*
X6803571Y19948318D02*
X7674428Y19948318D01*
X7238999Y19948318D02*
X7238999Y21472318D01*
X7238999Y21472318D02*
X7384142Y21254604D01*
X7384142Y21254604D02*
X7529285Y21109461D01*
X7529285Y21109461D02*
X7674428Y21036890D01*
D12*
X11546597Y18890432D02*
X11308321Y18890432D01*
X11594252Y18747466D02*
X11427459Y19247846D01*
X11427459Y19247846D02*
X11260666Y18747466D01*
X5259311Y18648406D02*
X5259311Y19148786D01*
X4973380Y18648406D02*
X5187829Y18934337D01*
X4973380Y19148786D02*
X5259311Y18862854D01*
D11*
%TO.C,D2*%
X16872856Y20392818D02*
X16872856Y21916818D01*
X16872856Y21916818D02*
X16509999Y21916818D01*
X16509999Y21916818D02*
X16292285Y21844247D01*
X16292285Y21844247D02*
X16147142Y21699104D01*
X16147142Y21699104D02*
X16074571Y21553961D01*
X16074571Y21553961D02*
X16001999Y21263675D01*
X16001999Y21263675D02*
X16001999Y21045961D01*
X16001999Y21045961D02*
X16074571Y20755675D01*
X16074571Y20755675D02*
X16147142Y20610532D01*
X16147142Y20610532D02*
X16292285Y20465390D01*
X16292285Y20465390D02*
X16509999Y20392818D01*
X16509999Y20392818D02*
X16872856Y20392818D01*
X15421428Y21771675D02*
X15348856Y21844247D01*
X15348856Y21844247D02*
X15203714Y21916818D01*
X15203714Y21916818D02*
X14840856Y21916818D01*
X14840856Y21916818D02*
X14695714Y21844247D01*
X14695714Y21844247D02*
X14623142Y21771675D01*
X14623142Y21771675D02*
X14550571Y21626532D01*
X14550571Y21626532D02*
X14550571Y21481390D01*
X14550571Y21481390D02*
X14623142Y21263675D01*
X14623142Y21263675D02*
X15493999Y20392818D01*
X15493999Y20392818D02*
X14550571Y20392818D01*
D12*
X14078191Y16766266D02*
X14078191Y17266646D01*
X13792260Y16766266D02*
X14006709Y17052197D01*
X13792260Y17266646D02*
X14078191Y16980714D01*
X17667997Y16909232D02*
X17429721Y16909232D01*
X17715652Y16766266D02*
X17548859Y17266646D01*
X17548859Y17266646D02*
X17382066Y16766266D01*
D11*
%TO.C,D3*%
X16872856Y18106818D02*
X16872856Y19630818D01*
X16872856Y19630818D02*
X16509999Y19630818D01*
X16509999Y19630818D02*
X16292285Y19558247D01*
X16292285Y19558247D02*
X16147142Y19413104D01*
X16147142Y19413104D02*
X16074571Y19267961D01*
X16074571Y19267961D02*
X16001999Y18977675D01*
X16001999Y18977675D02*
X16001999Y18759961D01*
X16001999Y18759961D02*
X16074571Y18469675D01*
X16074571Y18469675D02*
X16147142Y18324532D01*
X16147142Y18324532D02*
X16292285Y18179390D01*
X16292285Y18179390D02*
X16509999Y18106818D01*
X16509999Y18106818D02*
X16872856Y18106818D01*
X15493999Y19630818D02*
X14550571Y19630818D01*
X14550571Y19630818D02*
X15058571Y19050247D01*
X15058571Y19050247D02*
X14840856Y19050247D01*
X14840856Y19050247D02*
X14695714Y18977675D01*
X14695714Y18977675D02*
X14623142Y18905104D01*
X14623142Y18905104D02*
X14550571Y18759961D01*
X14550571Y18759961D02*
X14550571Y18397104D01*
X14550571Y18397104D02*
X14623142Y18251961D01*
X14623142Y18251961D02*
X14695714Y18179390D01*
X14695714Y18179390D02*
X14840856Y18106818D01*
X14840856Y18106818D02*
X15276285Y18106818D01*
X15276285Y18106818D02*
X15421428Y18179390D01*
X15421428Y18179390D02*
X15493999Y18251961D01*
D12*
X17679911Y22659066D02*
X17679911Y23159446D01*
X17393980Y22659066D02*
X17608429Y22944997D01*
X17393980Y23159446D02*
X17679911Y22873514D01*
X14066277Y22802032D02*
X13828001Y22802032D01*
X14113932Y22659066D02*
X13947139Y23159446D01*
X13947139Y23159446D02*
X13780346Y22659066D01*
D10*
%TO.C,R1*%
X18196305Y15323396D02*
X17958029Y15490189D01*
X18196305Y15609327D02*
X17695925Y15609327D01*
X17695925Y15609327D02*
X17695925Y15418706D01*
X17695925Y15418706D02*
X17719753Y15371051D01*
X17719753Y15371051D02*
X17743580Y15347224D01*
X17743580Y15347224D02*
X17791236Y15323396D01*
X17791236Y15323396D02*
X17862718Y15323396D01*
X17862718Y15323396D02*
X17910374Y15347224D01*
X17910374Y15347224D02*
X17934201Y15371051D01*
X17934201Y15371051D02*
X17958029Y15418706D01*
X17958029Y15418706D02*
X17958029Y15609327D01*
X18196305Y14846844D02*
X18196305Y15132775D01*
X18196305Y14989809D02*
X17695925Y14989809D01*
X17695925Y14989809D02*
X17767408Y15037465D01*
X17767408Y15037465D02*
X17815063Y15085120D01*
X17815063Y15085120D02*
X17838891Y15132775D01*
X18894805Y15410845D02*
X18894805Y15696776D01*
X18894805Y15553810D02*
X18394425Y15553810D01*
X18394425Y15553810D02*
X18465908Y15601466D01*
X18465908Y15601466D02*
X18513563Y15649121D01*
X18513563Y15649121D02*
X18537391Y15696776D01*
X18394425Y15101086D02*
X18394425Y15053431D01*
X18394425Y15053431D02*
X18418253Y15005775D01*
X18418253Y15005775D02*
X18442080Y14981948D01*
X18442080Y14981948D02*
X18489736Y14958120D01*
X18489736Y14958120D02*
X18585046Y14934293D01*
X18585046Y14934293D02*
X18704184Y14934293D01*
X18704184Y14934293D02*
X18799495Y14958120D01*
X18799495Y14958120D02*
X18847150Y14981948D01*
X18847150Y14981948D02*
X18870978Y15005775D01*
X18870978Y15005775D02*
X18894805Y15053431D01*
X18894805Y15053431D02*
X18894805Y15101086D01*
X18894805Y15101086D02*
X18870978Y15148741D01*
X18870978Y15148741D02*
X18847150Y15172569D01*
X18847150Y15172569D02*
X18799495Y15196396D01*
X18799495Y15196396D02*
X18704184Y15220224D01*
X18704184Y15220224D02*
X18585046Y15220224D01*
X18585046Y15220224D02*
X18489736Y15196396D01*
X18489736Y15196396D02*
X18442080Y15172569D01*
X18442080Y15172569D02*
X18418253Y15148741D01*
X18418253Y15148741D02*
X18394425Y15101086D01*
X18894805Y14719844D02*
X18394425Y14719844D01*
X18704184Y14672189D02*
X18894805Y14529223D01*
X18561218Y14529223D02*
X18751839Y14719844D01*
%TO.C,R2*%
X13116305Y15323396D02*
X12878029Y15490189D01*
X13116305Y15609327D02*
X12615925Y15609327D01*
X12615925Y15609327D02*
X12615925Y15418706D01*
X12615925Y15418706D02*
X12639753Y15371051D01*
X12639753Y15371051D02*
X12663580Y15347224D01*
X12663580Y15347224D02*
X12711236Y15323396D01*
X12711236Y15323396D02*
X12782718Y15323396D01*
X12782718Y15323396D02*
X12830374Y15347224D01*
X12830374Y15347224D02*
X12854201Y15371051D01*
X12854201Y15371051D02*
X12878029Y15418706D01*
X12878029Y15418706D02*
X12878029Y15609327D01*
X12663580Y15132775D02*
X12639753Y15108947D01*
X12639753Y15108947D02*
X12615925Y15061292D01*
X12615925Y15061292D02*
X12615925Y14942154D01*
X12615925Y14942154D02*
X12639753Y14894499D01*
X12639753Y14894499D02*
X12663580Y14870671D01*
X12663580Y14870671D02*
X12711236Y14846844D01*
X12711236Y14846844D02*
X12758891Y14846844D01*
X12758891Y14846844D02*
X12830374Y14870671D01*
X12830374Y14870671D02*
X13116305Y15156603D01*
X13116305Y15156603D02*
X13116305Y14846844D01*
X13814805Y15410845D02*
X13814805Y15696776D01*
X13814805Y15553810D02*
X13314425Y15553810D01*
X13314425Y15553810D02*
X13385908Y15601466D01*
X13385908Y15601466D02*
X13433563Y15649121D01*
X13433563Y15649121D02*
X13457391Y15696776D01*
X13314425Y15101086D02*
X13314425Y15053431D01*
X13314425Y15053431D02*
X13338253Y15005775D01*
X13338253Y15005775D02*
X13362080Y14981948D01*
X13362080Y14981948D02*
X13409736Y14958120D01*
X13409736Y14958120D02*
X13505046Y14934293D01*
X13505046Y14934293D02*
X13624184Y14934293D01*
X13624184Y14934293D02*
X13719495Y14958120D01*
X13719495Y14958120D02*
X13767150Y14981948D01*
X13767150Y14981948D02*
X13790978Y15005775D01*
X13790978Y15005775D02*
X13814805Y15053431D01*
X13814805Y15053431D02*
X13814805Y15101086D01*
X13814805Y15101086D02*
X13790978Y15148741D01*
X13790978Y15148741D02*
X13767150Y15172569D01*
X13767150Y15172569D02*
X13719495Y15196396D01*
X13719495Y15196396D02*
X13624184Y15220224D01*
X13624184Y15220224D02*
X13505046Y15220224D01*
X13505046Y15220224D02*
X13409736Y15196396D01*
X13409736Y15196396D02*
X13362080Y15172569D01*
X13362080Y15172569D02*
X13338253Y15148741D01*
X13338253Y15148741D02*
X13314425Y15101086D01*
X13814805Y14719844D02*
X13314425Y14719844D01*
X13624184Y14672189D02*
X13814805Y14529223D01*
X13481218Y14529223D02*
X13671839Y14719844D01*
%TO.C,R3*%
X6512305Y24467396D02*
X6274029Y24634189D01*
X6512305Y24753327D02*
X6011925Y24753327D01*
X6011925Y24753327D02*
X6011925Y24562706D01*
X6011925Y24562706D02*
X6035753Y24515051D01*
X6035753Y24515051D02*
X6059580Y24491224D01*
X6059580Y24491224D02*
X6107236Y24467396D01*
X6107236Y24467396D02*
X6178718Y24467396D01*
X6178718Y24467396D02*
X6226374Y24491224D01*
X6226374Y24491224D02*
X6250201Y24515051D01*
X6250201Y24515051D02*
X6274029Y24562706D01*
X6274029Y24562706D02*
X6274029Y24753327D01*
X6011925Y24300603D02*
X6011925Y23990844D01*
X6011925Y23990844D02*
X6202546Y24157637D01*
X6202546Y24157637D02*
X6202546Y24086154D01*
X6202546Y24086154D02*
X6226374Y24038499D01*
X6226374Y24038499D02*
X6250201Y24014671D01*
X6250201Y24014671D02*
X6297857Y23990844D01*
X6297857Y23990844D02*
X6416995Y23990844D01*
X6416995Y23990844D02*
X6464650Y24014671D01*
X6464650Y24014671D02*
X6488478Y24038499D01*
X6488478Y24038499D02*
X6512305Y24086154D01*
X6512305Y24086154D02*
X6512305Y24229120D01*
X6512305Y24229120D02*
X6488478Y24276775D01*
X6488478Y24276775D02*
X6464650Y24300603D01*
X6710425Y24912259D02*
X6710425Y24602500D01*
X6710425Y24602500D02*
X6901046Y24769293D01*
X6901046Y24769293D02*
X6901046Y24697810D01*
X6901046Y24697810D02*
X6924874Y24650155D01*
X6924874Y24650155D02*
X6948701Y24626327D01*
X6948701Y24626327D02*
X6996357Y24602500D01*
X6996357Y24602500D02*
X7115495Y24602500D01*
X7115495Y24602500D02*
X7163150Y24626327D01*
X7163150Y24626327D02*
X7186978Y24650155D01*
X7186978Y24650155D02*
X7210805Y24697810D01*
X7210805Y24697810D02*
X7210805Y24840776D01*
X7210805Y24840776D02*
X7186978Y24888431D01*
X7186978Y24888431D02*
X7163150Y24912259D01*
X7210805Y24388051D02*
X6710425Y24388051D01*
X7210805Y24102120D02*
X6924874Y24316569D01*
X6710425Y24102120D02*
X6996357Y24388051D01*
X6710425Y23935327D02*
X6710425Y23625568D01*
X6710425Y23625568D02*
X6901046Y23792361D01*
X6901046Y23792361D02*
X6901046Y23720878D01*
X6901046Y23720878D02*
X6924874Y23673223D01*
X6924874Y23673223D02*
X6948701Y23649395D01*
X6948701Y23649395D02*
X6996357Y23625568D01*
X6996357Y23625568D02*
X7115495Y23625568D01*
X7115495Y23625568D02*
X7163150Y23649395D01*
X7163150Y23649395D02*
X7186978Y23673223D01*
X7186978Y23673223D02*
X7210805Y23720878D01*
X7210805Y23720878D02*
X7210805Y23863844D01*
X7210805Y23863844D02*
X7186978Y23911499D01*
X7186978Y23911499D02*
X7163150Y23935327D01*
%TO.C,R4*%
X16847396Y31079694D02*
X17014189Y31317970D01*
X17133327Y31079694D02*
X17133327Y31580074D01*
X17133327Y31580074D02*
X16942706Y31580074D01*
X16942706Y31580074D02*
X16895051Y31556246D01*
X16895051Y31556246D02*
X16871224Y31532419D01*
X16871224Y31532419D02*
X16847396Y31484763D01*
X16847396Y31484763D02*
X16847396Y31413281D01*
X16847396Y31413281D02*
X16871224Y31365625D01*
X16871224Y31365625D02*
X16895051Y31341798D01*
X16895051Y31341798D02*
X16942706Y31317970D01*
X16942706Y31317970D02*
X17133327Y31317970D01*
X16418499Y31413281D02*
X16418499Y31079694D01*
X16537637Y31603902D02*
X16656775Y31246487D01*
X16656775Y31246487D02*
X16347016Y31246487D01*
X16934845Y30381194D02*
X17220776Y30381194D01*
X17077810Y30381194D02*
X17077810Y30881574D01*
X17077810Y30881574D02*
X17125466Y30810091D01*
X17125466Y30810091D02*
X17173121Y30762436D01*
X17173121Y30762436D02*
X17220776Y30738608D01*
X16625086Y30881574D02*
X16577431Y30881574D01*
X16577431Y30881574D02*
X16529775Y30857746D01*
X16529775Y30857746D02*
X16505948Y30833919D01*
X16505948Y30833919D02*
X16482120Y30786263D01*
X16482120Y30786263D02*
X16458293Y30690953D01*
X16458293Y30690953D02*
X16458293Y30571815D01*
X16458293Y30571815D02*
X16482120Y30476504D01*
X16482120Y30476504D02*
X16505948Y30428849D01*
X16505948Y30428849D02*
X16529775Y30405022D01*
X16529775Y30405022D02*
X16577431Y30381194D01*
X16577431Y30381194D02*
X16625086Y30381194D01*
X16625086Y30381194D02*
X16672741Y30405022D01*
X16672741Y30405022D02*
X16696569Y30428849D01*
X16696569Y30428849D02*
X16720396Y30476504D01*
X16720396Y30476504D02*
X16744224Y30571815D01*
X16744224Y30571815D02*
X16744224Y30690953D01*
X16744224Y30690953D02*
X16720396Y30786263D01*
X16720396Y30786263D02*
X16696569Y30833919D01*
X16696569Y30833919D02*
X16672741Y30857746D01*
X16672741Y30857746D02*
X16625086Y30881574D01*
X16243844Y30381194D02*
X16243844Y30881574D01*
X16196189Y30571815D02*
X16053223Y30381194D01*
X16053223Y30714781D02*
X16243844Y30524160D01*
%TO.C,R5*%
X13354896Y30444694D02*
X13521689Y30682970D01*
X13640827Y30444694D02*
X13640827Y30945074D01*
X13640827Y30945074D02*
X13450206Y30945074D01*
X13450206Y30945074D02*
X13402551Y30921246D01*
X13402551Y30921246D02*
X13378724Y30897419D01*
X13378724Y30897419D02*
X13354896Y30849763D01*
X13354896Y30849763D02*
X13354896Y30778281D01*
X13354896Y30778281D02*
X13378724Y30730625D01*
X13378724Y30730625D02*
X13402551Y30706798D01*
X13402551Y30706798D02*
X13450206Y30682970D01*
X13450206Y30682970D02*
X13640827Y30682970D01*
X12902171Y30945074D02*
X13140447Y30945074D01*
X13140447Y30945074D02*
X13164275Y30706798D01*
X13164275Y30706798D02*
X13140447Y30730625D01*
X13140447Y30730625D02*
X13092792Y30754453D01*
X13092792Y30754453D02*
X12973654Y30754453D01*
X12973654Y30754453D02*
X12925999Y30730625D01*
X12925999Y30730625D02*
X12902171Y30706798D01*
X12902171Y30706798D02*
X12878344Y30659142D01*
X12878344Y30659142D02*
X12878344Y30540004D01*
X12878344Y30540004D02*
X12902171Y30492349D01*
X12902171Y30492349D02*
X12925999Y30468522D01*
X12925999Y30468522D02*
X12973654Y30444694D01*
X12973654Y30444694D02*
X13092792Y30444694D01*
X13092792Y30444694D02*
X13140447Y30468522D01*
X13140447Y30468522D02*
X13164275Y30492349D01*
X13696345Y31143194D02*
X13982276Y31143194D01*
X13839310Y31143194D02*
X13839310Y31643574D01*
X13839310Y31643574D02*
X13886966Y31572091D01*
X13886966Y31572091D02*
X13934621Y31524436D01*
X13934621Y31524436D02*
X13982276Y31500608D01*
X13386586Y31643574D02*
X13338931Y31643574D01*
X13338931Y31643574D02*
X13291275Y31619746D01*
X13291275Y31619746D02*
X13267448Y31595919D01*
X13267448Y31595919D02*
X13243620Y31548263D01*
X13243620Y31548263D02*
X13219793Y31452953D01*
X13219793Y31452953D02*
X13219793Y31333815D01*
X13219793Y31333815D02*
X13243620Y31238504D01*
X13243620Y31238504D02*
X13267448Y31190849D01*
X13267448Y31190849D02*
X13291275Y31167022D01*
X13291275Y31167022D02*
X13338931Y31143194D01*
X13338931Y31143194D02*
X13386586Y31143194D01*
X13386586Y31143194D02*
X13434241Y31167022D01*
X13434241Y31167022D02*
X13458069Y31190849D01*
X13458069Y31190849D02*
X13481896Y31238504D01*
X13481896Y31238504D02*
X13505724Y31333815D01*
X13505724Y31333815D02*
X13505724Y31452953D01*
X13505724Y31452953D02*
X13481896Y31548263D01*
X13481896Y31548263D02*
X13458069Y31595919D01*
X13458069Y31595919D02*
X13434241Y31619746D01*
X13434241Y31619746D02*
X13386586Y31643574D01*
X13005344Y31143194D02*
X13005344Y31643574D01*
X12957689Y31333815D02*
X12814723Y31143194D01*
X12814723Y31476781D02*
X13005344Y31286160D01*
D13*
%TO.C,U1*%
X14948819Y26923904D02*
X15758342Y26923904D01*
X15758342Y26923904D02*
X15853580Y26876285D01*
X15853580Y26876285D02*
X15901200Y26828666D01*
X15901200Y26828666D02*
X15948819Y26733428D01*
X15948819Y26733428D02*
X15948819Y26542952D01*
X15948819Y26542952D02*
X15901200Y26447714D01*
X15901200Y26447714D02*
X15853580Y26400095D01*
X15853580Y26400095D02*
X15758342Y26352476D01*
X15758342Y26352476D02*
X14948819Y26352476D01*
X15948819Y25352476D02*
X15948819Y25923904D01*
X15948819Y25638190D02*
X14948819Y25638190D01*
X14948819Y25638190D02*
X15091676Y25733428D01*
X15091676Y25733428D02*
X15186914Y25828666D01*
X15186914Y25828666D02*
X15234533Y25923904D01*
D14*
%TO.C,D4*%
X8154488Y30608672D02*
X8154488Y31370672D01*
X8154488Y31370672D02*
X7973059Y31370672D01*
X7973059Y31370672D02*
X7864202Y31334386D01*
X7864202Y31334386D02*
X7791631Y31261815D01*
X7791631Y31261815D02*
X7755345Y31189243D01*
X7755345Y31189243D02*
X7719059Y31044100D01*
X7719059Y31044100D02*
X7719059Y30935243D01*
X7719059Y30935243D02*
X7755345Y30790100D01*
X7755345Y30790100D02*
X7791631Y30717529D01*
X7791631Y30717529D02*
X7864202Y30644958D01*
X7864202Y30644958D02*
X7973059Y30608672D01*
X7973059Y30608672D02*
X8154488Y30608672D01*
X7065917Y31116672D02*
X7065917Y30608672D01*
X7247345Y31406958D02*
X7428774Y30862672D01*
X7428774Y30862672D02*
X6957059Y30862672D01*
D10*
%TO.C,L1*%
X3591305Y21165396D02*
X3591305Y21403672D01*
X3591305Y21403672D02*
X3090925Y21403672D01*
X3591305Y20736499D02*
X3591305Y21022430D01*
X3591305Y20879464D02*
X3090925Y20879464D01*
X3090925Y20879464D02*
X3162408Y20927120D01*
X3162408Y20927120D02*
X3210063Y20974775D01*
X3210063Y20974775D02*
X3233891Y21022430D01*
%TO.C,C5*%
X5036396Y18046349D02*
X5060224Y18022522D01*
X5060224Y18022522D02*
X5131706Y17998694D01*
X5131706Y17998694D02*
X5179362Y17998694D01*
X5179362Y17998694D02*
X5250845Y18022522D01*
X5250845Y18022522D02*
X5298500Y18070177D01*
X5298500Y18070177D02*
X5322327Y18117832D01*
X5322327Y18117832D02*
X5346155Y18213142D01*
X5346155Y18213142D02*
X5346155Y18284625D01*
X5346155Y18284625D02*
X5322327Y18379936D01*
X5322327Y18379936D02*
X5298500Y18427591D01*
X5298500Y18427591D02*
X5250845Y18475246D01*
X5250845Y18475246D02*
X5179362Y18499074D01*
X5179362Y18499074D02*
X5131706Y18499074D01*
X5131706Y18499074D02*
X5060224Y18475246D01*
X5060224Y18475246D02*
X5036396Y18451419D01*
X4583671Y18499074D02*
X4821947Y18499074D01*
X4821947Y18499074D02*
X4845775Y18260798D01*
X4845775Y18260798D02*
X4821947Y18284625D01*
X4821947Y18284625D02*
X4774292Y18308453D01*
X4774292Y18308453D02*
X4655154Y18308453D01*
X4655154Y18308453D02*
X4607499Y18284625D01*
X4607499Y18284625D02*
X4583671Y18260798D01*
X4583671Y18260798D02*
X4559844Y18213142D01*
X4559844Y18213142D02*
X4559844Y18094004D01*
X4559844Y18094004D02*
X4583671Y18046349D01*
X4583671Y18046349D02*
X4607499Y18022522D01*
X4607499Y18022522D02*
X4655154Y17998694D01*
X4655154Y17998694D02*
X4774292Y17998694D01*
X4774292Y17998694D02*
X4821947Y18022522D01*
X4821947Y18022522D02*
X4845775Y18046349D01*
X5362121Y17300194D02*
X5648052Y17300194D01*
X5505086Y17300194D02*
X5505086Y17800574D01*
X5505086Y17800574D02*
X5552742Y17729091D01*
X5552742Y17729091D02*
X5600397Y17681436D01*
X5600397Y17681436D02*
X5648052Y17657608D01*
X5052362Y17800574D02*
X5004707Y17800574D01*
X5004707Y17800574D02*
X4957051Y17776746D01*
X4957051Y17776746D02*
X4933224Y17752919D01*
X4933224Y17752919D02*
X4909396Y17705263D01*
X4909396Y17705263D02*
X4885569Y17609953D01*
X4885569Y17609953D02*
X4885569Y17490815D01*
X4885569Y17490815D02*
X4909396Y17395504D01*
X4909396Y17395504D02*
X4933224Y17347849D01*
X4933224Y17347849D02*
X4957051Y17324022D01*
X4957051Y17324022D02*
X5004707Y17300194D01*
X5004707Y17300194D02*
X5052362Y17300194D01*
X5052362Y17300194D02*
X5100017Y17324022D01*
X5100017Y17324022D02*
X5123845Y17347849D01*
X5123845Y17347849D02*
X5147672Y17395504D01*
X5147672Y17395504D02*
X5171500Y17490815D01*
X5171500Y17490815D02*
X5171500Y17609953D01*
X5171500Y17609953D02*
X5147672Y17705263D01*
X5147672Y17705263D02*
X5123845Y17752919D01*
X5123845Y17752919D02*
X5100017Y17776746D01*
X5100017Y17776746D02*
X5052362Y17800574D01*
X4456672Y17633781D02*
X4456672Y17300194D01*
X4671120Y17633781D02*
X4671120Y17371677D01*
X4671120Y17371677D02*
X4647293Y17324022D01*
X4647293Y17324022D02*
X4599638Y17300194D01*
X4599638Y17300194D02*
X4528155Y17300194D01*
X4528155Y17300194D02*
X4480499Y17324022D01*
X4480499Y17324022D02*
X4456672Y17347849D01*
X4051602Y17562298D02*
X4218395Y17562298D01*
X4218395Y17300194D02*
X4218395Y17800574D01*
X4218395Y17800574D02*
X3980119Y17800574D01*
%TO.C,C6*%
X9608396Y23761349D02*
X9632224Y23737522D01*
X9632224Y23737522D02*
X9703706Y23713694D01*
X9703706Y23713694D02*
X9751362Y23713694D01*
X9751362Y23713694D02*
X9822845Y23737522D01*
X9822845Y23737522D02*
X9870500Y23785177D01*
X9870500Y23785177D02*
X9894327Y23832832D01*
X9894327Y23832832D02*
X9918155Y23928142D01*
X9918155Y23928142D02*
X9918155Y23999625D01*
X9918155Y23999625D02*
X9894327Y24094936D01*
X9894327Y24094936D02*
X9870500Y24142591D01*
X9870500Y24142591D02*
X9822845Y24190246D01*
X9822845Y24190246D02*
X9751362Y24214074D01*
X9751362Y24214074D02*
X9703706Y24214074D01*
X9703706Y24214074D02*
X9632224Y24190246D01*
X9632224Y24190246D02*
X9608396Y24166419D01*
X9179499Y24214074D02*
X9274809Y24214074D01*
X9274809Y24214074D02*
X9322465Y24190246D01*
X9322465Y24190246D02*
X9346292Y24166419D01*
X9346292Y24166419D02*
X9393947Y24094936D01*
X9393947Y24094936D02*
X9417775Y23999625D01*
X9417775Y23999625D02*
X9417775Y23809004D01*
X9417775Y23809004D02*
X9393947Y23761349D01*
X9393947Y23761349D02*
X9370120Y23737522D01*
X9370120Y23737522D02*
X9322465Y23713694D01*
X9322465Y23713694D02*
X9227154Y23713694D01*
X9227154Y23713694D02*
X9179499Y23737522D01*
X9179499Y23737522D02*
X9155671Y23761349D01*
X9155671Y23761349D02*
X9131844Y23809004D01*
X9131844Y23809004D02*
X9131844Y23928142D01*
X9131844Y23928142D02*
X9155671Y23975798D01*
X9155671Y23975798D02*
X9179499Y23999625D01*
X9179499Y23999625D02*
X9227154Y24023453D01*
X9227154Y24023453D02*
X9322465Y24023453D01*
X9322465Y24023453D02*
X9370120Y23999625D01*
X9370120Y23999625D02*
X9393947Y23975798D01*
X9393947Y23975798D02*
X9417775Y23928142D01*
X10172397Y23015194D02*
X10458328Y23015194D01*
X10315362Y23015194D02*
X10315362Y23515574D01*
X10315362Y23515574D02*
X10363018Y23444091D01*
X10363018Y23444091D02*
X10410673Y23396436D01*
X10410673Y23396436D02*
X10458328Y23372608D01*
X9862638Y23515574D02*
X9814983Y23515574D01*
X9814983Y23515574D02*
X9767327Y23491746D01*
X9767327Y23491746D02*
X9743500Y23467919D01*
X9743500Y23467919D02*
X9719672Y23420263D01*
X9719672Y23420263D02*
X9695845Y23324953D01*
X9695845Y23324953D02*
X9695845Y23205815D01*
X9695845Y23205815D02*
X9719672Y23110504D01*
X9719672Y23110504D02*
X9743500Y23062849D01*
X9743500Y23062849D02*
X9767327Y23039022D01*
X9767327Y23039022D02*
X9814983Y23015194D01*
X9814983Y23015194D02*
X9862638Y23015194D01*
X9862638Y23015194D02*
X9910293Y23039022D01*
X9910293Y23039022D02*
X9934121Y23062849D01*
X9934121Y23062849D02*
X9957948Y23110504D01*
X9957948Y23110504D02*
X9981776Y23205815D01*
X9981776Y23205815D02*
X9981776Y23324953D01*
X9981776Y23324953D02*
X9957948Y23420263D01*
X9957948Y23420263D02*
X9934121Y23467919D01*
X9934121Y23467919D02*
X9910293Y23491746D01*
X9910293Y23491746D02*
X9862638Y23515574D01*
X9386086Y23515574D02*
X9338431Y23515574D01*
X9338431Y23515574D02*
X9290775Y23491746D01*
X9290775Y23491746D02*
X9266948Y23467919D01*
X9266948Y23467919D02*
X9243120Y23420263D01*
X9243120Y23420263D02*
X9219293Y23324953D01*
X9219293Y23324953D02*
X9219293Y23205815D01*
X9219293Y23205815D02*
X9243120Y23110504D01*
X9243120Y23110504D02*
X9266948Y23062849D01*
X9266948Y23062849D02*
X9290775Y23039022D01*
X9290775Y23039022D02*
X9338431Y23015194D01*
X9338431Y23015194D02*
X9386086Y23015194D01*
X9386086Y23015194D02*
X9433741Y23039022D01*
X9433741Y23039022D02*
X9457569Y23062849D01*
X9457569Y23062849D02*
X9481396Y23110504D01*
X9481396Y23110504D02*
X9505224Y23205815D01*
X9505224Y23205815D02*
X9505224Y23324953D01*
X9505224Y23324953D02*
X9481396Y23420263D01*
X9481396Y23420263D02*
X9457569Y23467919D01*
X9457569Y23467919D02*
X9433741Y23491746D01*
X9433741Y23491746D02*
X9386086Y23515574D01*
X9004844Y23348781D02*
X9004844Y23015194D01*
X9004844Y23301125D02*
X8981017Y23324953D01*
X8981017Y23324953D02*
X8933362Y23348781D01*
X8933362Y23348781D02*
X8861879Y23348781D01*
X8861879Y23348781D02*
X8814223Y23324953D01*
X8814223Y23324953D02*
X8790396Y23277298D01*
X8790396Y23277298D02*
X8790396Y23015194D01*
X8385326Y23277298D02*
X8552119Y23277298D01*
X8552119Y23015194D02*
X8552119Y23515574D01*
X8552119Y23515574D02*
X8313843Y23515574D01*
%TO.C,C7*%
X9893650Y10243396D02*
X9917478Y10267224D01*
X9917478Y10267224D02*
X9941305Y10338706D01*
X9941305Y10338706D02*
X9941305Y10386362D01*
X9941305Y10386362D02*
X9917478Y10457845D01*
X9917478Y10457845D02*
X9869822Y10505500D01*
X9869822Y10505500D02*
X9822167Y10529327D01*
X9822167Y10529327D02*
X9726857Y10553155D01*
X9726857Y10553155D02*
X9655374Y10553155D01*
X9655374Y10553155D02*
X9560063Y10529327D01*
X9560063Y10529327D02*
X9512408Y10505500D01*
X9512408Y10505500D02*
X9464753Y10457845D01*
X9464753Y10457845D02*
X9440925Y10386362D01*
X9440925Y10386362D02*
X9440925Y10338706D01*
X9440925Y10338706D02*
X9464753Y10267224D01*
X9464753Y10267224D02*
X9488580Y10243396D01*
X9440925Y10076603D02*
X9440925Y9743016D01*
X9440925Y9743016D02*
X9941305Y9957465D01*
X9242805Y11061397D02*
X9242805Y11347328D01*
X9242805Y11204362D02*
X8742425Y11204362D01*
X8742425Y11204362D02*
X8813908Y11252018D01*
X8813908Y11252018D02*
X8861563Y11299673D01*
X8861563Y11299673D02*
X8885391Y11347328D01*
X8742425Y10751638D02*
X8742425Y10703983D01*
X8742425Y10703983D02*
X8766253Y10656327D01*
X8766253Y10656327D02*
X8790080Y10632500D01*
X8790080Y10632500D02*
X8837736Y10608672D01*
X8837736Y10608672D02*
X8933046Y10584845D01*
X8933046Y10584845D02*
X9052184Y10584845D01*
X9052184Y10584845D02*
X9147495Y10608672D01*
X9147495Y10608672D02*
X9195150Y10632500D01*
X9195150Y10632500D02*
X9218978Y10656327D01*
X9218978Y10656327D02*
X9242805Y10703983D01*
X9242805Y10703983D02*
X9242805Y10751638D01*
X9242805Y10751638D02*
X9218978Y10799293D01*
X9218978Y10799293D02*
X9195150Y10823121D01*
X9195150Y10823121D02*
X9147495Y10846948D01*
X9147495Y10846948D02*
X9052184Y10870776D01*
X9052184Y10870776D02*
X8933046Y10870776D01*
X8933046Y10870776D02*
X8837736Y10846948D01*
X8837736Y10846948D02*
X8790080Y10823121D01*
X8790080Y10823121D02*
X8766253Y10799293D01*
X8766253Y10799293D02*
X8742425Y10751638D01*
X8742425Y10275086D02*
X8742425Y10227431D01*
X8742425Y10227431D02*
X8766253Y10179775D01*
X8766253Y10179775D02*
X8790080Y10155948D01*
X8790080Y10155948D02*
X8837736Y10132120D01*
X8837736Y10132120D02*
X8933046Y10108293D01*
X8933046Y10108293D02*
X9052184Y10108293D01*
X9052184Y10108293D02*
X9147495Y10132120D01*
X9147495Y10132120D02*
X9195150Y10155948D01*
X9195150Y10155948D02*
X9218978Y10179775D01*
X9218978Y10179775D02*
X9242805Y10227431D01*
X9242805Y10227431D02*
X9242805Y10275086D01*
X9242805Y10275086D02*
X9218978Y10322741D01*
X9218978Y10322741D02*
X9195150Y10346569D01*
X9195150Y10346569D02*
X9147495Y10370396D01*
X9147495Y10370396D02*
X9052184Y10394224D01*
X9052184Y10394224D02*
X8933046Y10394224D01*
X8933046Y10394224D02*
X8837736Y10370396D01*
X8837736Y10370396D02*
X8790080Y10346569D01*
X8790080Y10346569D02*
X8766253Y10322741D01*
X8766253Y10322741D02*
X8742425Y10275086D01*
X8909218Y9893844D02*
X9242805Y9893844D01*
X8956874Y9893844D02*
X8933046Y9870017D01*
X8933046Y9870017D02*
X8909218Y9822362D01*
X8909218Y9822362D02*
X8909218Y9750879D01*
X8909218Y9750879D02*
X8933046Y9703223D01*
X8933046Y9703223D02*
X8980701Y9679396D01*
X8980701Y9679396D02*
X9242805Y9679396D01*
X8980701Y9274326D02*
X8980701Y9441119D01*
X9242805Y9441119D02*
X8742425Y9441119D01*
X8742425Y9441119D02*
X8742425Y9202843D01*
%TO.C,C8*%
X9893650Y26626396D02*
X9917478Y26650224D01*
X9917478Y26650224D02*
X9941305Y26721706D01*
X9941305Y26721706D02*
X9941305Y26769362D01*
X9941305Y26769362D02*
X9917478Y26840845D01*
X9917478Y26840845D02*
X9869822Y26888500D01*
X9869822Y26888500D02*
X9822167Y26912327D01*
X9822167Y26912327D02*
X9726857Y26936155D01*
X9726857Y26936155D02*
X9655374Y26936155D01*
X9655374Y26936155D02*
X9560063Y26912327D01*
X9560063Y26912327D02*
X9512408Y26888500D01*
X9512408Y26888500D02*
X9464753Y26840845D01*
X9464753Y26840845D02*
X9440925Y26769362D01*
X9440925Y26769362D02*
X9440925Y26721706D01*
X9440925Y26721706D02*
X9464753Y26650224D01*
X9464753Y26650224D02*
X9488580Y26626396D01*
X9655374Y26340465D02*
X9631546Y26388120D01*
X9631546Y26388120D02*
X9607718Y26411947D01*
X9607718Y26411947D02*
X9560063Y26435775D01*
X9560063Y26435775D02*
X9536236Y26435775D01*
X9536236Y26435775D02*
X9488580Y26411947D01*
X9488580Y26411947D02*
X9464753Y26388120D01*
X9464753Y26388120D02*
X9440925Y26340465D01*
X9440925Y26340465D02*
X9440925Y26245154D01*
X9440925Y26245154D02*
X9464753Y26197499D01*
X9464753Y26197499D02*
X9488580Y26173671D01*
X9488580Y26173671D02*
X9536236Y26149844D01*
X9536236Y26149844D02*
X9560063Y26149844D01*
X9560063Y26149844D02*
X9607718Y26173671D01*
X9607718Y26173671D02*
X9631546Y26197499D01*
X9631546Y26197499D02*
X9655374Y26245154D01*
X9655374Y26245154D02*
X9655374Y26340465D01*
X9655374Y26340465D02*
X9679201Y26388120D01*
X9679201Y26388120D02*
X9703029Y26411947D01*
X9703029Y26411947D02*
X9750684Y26435775D01*
X9750684Y26435775D02*
X9845995Y26435775D01*
X9845995Y26435775D02*
X9893650Y26411947D01*
X9893650Y26411947D02*
X9917478Y26388120D01*
X9917478Y26388120D02*
X9941305Y26340465D01*
X9941305Y26340465D02*
X9941305Y26245154D01*
X9941305Y26245154D02*
X9917478Y26197499D01*
X9917478Y26197499D02*
X9893650Y26173671D01*
X9893650Y26173671D02*
X9845995Y26149844D01*
X9845995Y26149844D02*
X9750684Y26149844D01*
X9750684Y26149844D02*
X9703029Y26173671D01*
X9703029Y26173671D02*
X9679201Y26197499D01*
X9679201Y26197499D02*
X9655374Y26245154D01*
X8790080Y27492052D02*
X8766253Y27468224D01*
X8766253Y27468224D02*
X8742425Y27420569D01*
X8742425Y27420569D02*
X8742425Y27301431D01*
X8742425Y27301431D02*
X8766253Y27253776D01*
X8766253Y27253776D02*
X8790080Y27229948D01*
X8790080Y27229948D02*
X8837736Y27206121D01*
X8837736Y27206121D02*
X8885391Y27206121D01*
X8885391Y27206121D02*
X8956874Y27229948D01*
X8956874Y27229948D02*
X9242805Y27515880D01*
X9242805Y27515880D02*
X9242805Y27206121D01*
X8790080Y27015500D02*
X8766253Y26991672D01*
X8766253Y26991672D02*
X8742425Y26944017D01*
X8742425Y26944017D02*
X8742425Y26824879D01*
X8742425Y26824879D02*
X8766253Y26777224D01*
X8766253Y26777224D02*
X8790080Y26753396D01*
X8790080Y26753396D02*
X8837736Y26729569D01*
X8837736Y26729569D02*
X8885391Y26729569D01*
X8885391Y26729569D02*
X8956874Y26753396D01*
X8956874Y26753396D02*
X9242805Y27039328D01*
X9242805Y27039328D02*
X9242805Y26729569D01*
X8909218Y26515120D02*
X9242805Y26515120D01*
X8956874Y26515120D02*
X8933046Y26491293D01*
X8933046Y26491293D02*
X8909218Y26443638D01*
X8909218Y26443638D02*
X8909218Y26372155D01*
X8909218Y26372155D02*
X8933046Y26324499D01*
X8933046Y26324499D02*
X8980701Y26300672D01*
X8980701Y26300672D02*
X9242805Y26300672D01*
X8980701Y25895602D02*
X8980701Y26062395D01*
X9242805Y26062395D02*
X8742425Y26062395D01*
X8742425Y26062395D02*
X8742425Y25824119D01*
%TO.C,R6*%
X9735396Y13426694D02*
X9902189Y13664970D01*
X10021327Y13426694D02*
X10021327Y13927074D01*
X10021327Y13927074D02*
X9830706Y13927074D01*
X9830706Y13927074D02*
X9783051Y13903246D01*
X9783051Y13903246D02*
X9759224Y13879419D01*
X9759224Y13879419D02*
X9735396Y13831763D01*
X9735396Y13831763D02*
X9735396Y13760281D01*
X9735396Y13760281D02*
X9759224Y13712625D01*
X9759224Y13712625D02*
X9783051Y13688798D01*
X9783051Y13688798D02*
X9830706Y13664970D01*
X9830706Y13664970D02*
X10021327Y13664970D01*
X9306499Y13927074D02*
X9401809Y13927074D01*
X9401809Y13927074D02*
X9449465Y13903246D01*
X9449465Y13903246D02*
X9473292Y13879419D01*
X9473292Y13879419D02*
X9520947Y13807936D01*
X9520947Y13807936D02*
X9544775Y13712625D01*
X9544775Y13712625D02*
X9544775Y13522004D01*
X9544775Y13522004D02*
X9520947Y13474349D01*
X9520947Y13474349D02*
X9497120Y13450522D01*
X9497120Y13450522D02*
X9449465Y13426694D01*
X9449465Y13426694D02*
X9354154Y13426694D01*
X9354154Y13426694D02*
X9306499Y13450522D01*
X9306499Y13450522D02*
X9282671Y13474349D01*
X9282671Y13474349D02*
X9258844Y13522004D01*
X9258844Y13522004D02*
X9258844Y13641142D01*
X9258844Y13641142D02*
X9282671Y13688798D01*
X9282671Y13688798D02*
X9306499Y13712625D01*
X9306499Y13712625D02*
X9354154Y13736453D01*
X9354154Y13736453D02*
X9449465Y13736453D01*
X9449465Y13736453D02*
X9497120Y13712625D01*
X9497120Y13712625D02*
X9520947Y13688798D01*
X9520947Y13688798D02*
X9544775Y13641142D01*
X10053017Y14625574D02*
X10005362Y14625574D01*
X10005362Y14625574D02*
X9957706Y14601746D01*
X9957706Y14601746D02*
X9933879Y14577919D01*
X9933879Y14577919D02*
X9910051Y14530263D01*
X9910051Y14530263D02*
X9886224Y14434953D01*
X9886224Y14434953D02*
X9886224Y14315815D01*
X9886224Y14315815D02*
X9910051Y14220504D01*
X9910051Y14220504D02*
X9933879Y14172849D01*
X9933879Y14172849D02*
X9957706Y14149022D01*
X9957706Y14149022D02*
X10005362Y14125194D01*
X10005362Y14125194D02*
X10053017Y14125194D01*
X10053017Y14125194D02*
X10100672Y14149022D01*
X10100672Y14149022D02*
X10124500Y14172849D01*
X10124500Y14172849D02*
X10148327Y14220504D01*
X10148327Y14220504D02*
X10172155Y14315815D01*
X10172155Y14315815D02*
X10172155Y14434953D01*
X10172155Y14434953D02*
X10148327Y14530263D01*
X10148327Y14530263D02*
X10124500Y14577919D01*
X10124500Y14577919D02*
X10100672Y14601746D01*
X10100672Y14601746D02*
X10053017Y14625574D01*
X9385844Y14125194D02*
X9552637Y14363470D01*
X9671775Y14125194D02*
X9671775Y14625574D01*
X9671775Y14625574D02*
X9481154Y14625574D01*
X9481154Y14625574D02*
X9433499Y14601746D01*
X9433499Y14601746D02*
X9409672Y14577919D01*
X9409672Y14577919D02*
X9385844Y14530263D01*
X9385844Y14530263D02*
X9385844Y14458781D01*
X9385844Y14458781D02*
X9409672Y14411125D01*
X9409672Y14411125D02*
X9433499Y14387298D01*
X9433499Y14387298D02*
X9481154Y14363470D01*
X9481154Y14363470D02*
X9671775Y14363470D01*
D13*
%TO.C,C1*%
X21336000Y17018000D02*
X20320000Y17018000D01*
X23368000Y15494000D02*
X23368000Y17018000D01*
X20320000Y17018000D02*
X20320000Y15494000D01*
X23368000Y17018000D02*
X22352000Y17018000D01*
X22352000Y15494000D02*
X23368000Y15494000D01*
X20320000Y15494000D02*
X21336000Y15494000D01*
X23622000Y15494000D02*
G75*
G03*
X23622000Y15494000I-127000J0D01*
G01*
%TO.C,C2*%
X11176000Y15494000D02*
X11176000Y17018000D01*
X11176000Y17018000D02*
X10160000Y17018000D01*
X10160000Y15494000D02*
X11176000Y15494000D01*
X8128000Y17018000D02*
X8128000Y15494000D01*
X9144000Y17018000D02*
X8128000Y17018000D01*
X8128000Y15494000D02*
X9144000Y15494000D01*
X11430000Y15494000D02*
G75*
G03*
X11430000Y15494000I-127000J0D01*
G01*
%TO.C,C3*%
X20828000Y25654000D02*
X20828000Y24638000D01*
X22352000Y24638000D02*
X22352000Y25654000D01*
X20828000Y22606000D02*
X22352000Y22606000D01*
X20828000Y23622000D02*
X20828000Y22606000D01*
X22352000Y25654000D02*
X20828000Y25654000D01*
X22352000Y22606000D02*
X22352000Y23622000D01*
X22479000Y25781000D02*
G75*
G03*
X22479000Y25781000I-127000J0D01*
G01*
%TO.C,C4*%
X19812000Y25654000D02*
X18288000Y25654000D01*
X18288000Y23622000D02*
X18288000Y22606000D01*
X19812000Y24638000D02*
X19812000Y25654000D01*
X18288000Y25654000D02*
X18288000Y24638000D01*
X19812000Y22606000D02*
X19812000Y23622000D01*
X18288000Y22606000D02*
X19812000Y22606000D01*
X19939000Y25781000D02*
G75*
G03*
X19939000Y25781000I-127000J0D01*
G01*
%TO.C,D1*%
X10378440Y22324060D02*
X10378440Y21973540D01*
X6327140Y22324060D02*
X6327140Y21973540D01*
X6327140Y18823940D02*
X6327140Y19174460D01*
X5877560Y22324060D02*
X5877560Y21973540D01*
X10378440Y18823940D02*
X10378440Y19174460D01*
X10378440Y18823940D02*
X5877560Y18823940D01*
X10378440Y22324060D02*
X5877560Y22324060D01*
X5877560Y18823940D02*
X5877560Y19174460D01*
%TO.C,D2*%
X16098520Y19542760D02*
X16098520Y17541240D01*
X15097760Y18491200D02*
X16098520Y19542760D01*
X16098520Y17541240D02*
X15097760Y18542000D01*
X15097760Y19591020D02*
X15097760Y17492980D01*
%TO.C,D3*%
X15397480Y22336760D02*
X16398240Y21336000D01*
X15397480Y20335240D02*
X15397480Y22336760D01*
X16398240Y21386800D02*
X15397480Y20335240D01*
X16398240Y20286980D02*
X16398240Y22385020D01*
%TO.C,R1*%
X17526000Y16764000D02*
X17526000Y15748000D01*
X17526000Y14732000D02*
X17526000Y13716000D01*
X19050000Y15748000D02*
X19050000Y16764000D01*
X17526000Y13716000D02*
X19050000Y13716000D01*
X19050000Y16764000D02*
X17526000Y16764000D01*
X19050000Y13716000D02*
X19050000Y14732000D01*
X19177000Y16891000D02*
G75*
G03*
X19177000Y16891000I-127000J0D01*
G01*
%TO.C,R2*%
X12446000Y13716000D02*
X13970000Y13716000D01*
X13970000Y16764000D02*
X12446000Y16764000D01*
X13970000Y13716000D02*
X13970000Y14732000D01*
X13970000Y15748000D02*
X13970000Y16764000D01*
X12446000Y16764000D02*
X12446000Y15748000D01*
X12446000Y14732000D02*
X12446000Y13716000D01*
X14097000Y16891000D02*
G75*
G03*
X14097000Y16891000I-127000J0D01*
G01*
%TO.C,R3*%
X5842000Y22860000D02*
X7366000Y22860000D01*
X7366000Y24892000D02*
X7366000Y25908000D01*
X5842000Y23876000D02*
X5842000Y22860000D01*
X5842000Y25908000D02*
X5842000Y24892000D01*
X7366000Y25908000D02*
X5842000Y25908000D01*
X7366000Y22860000D02*
X7366000Y23876000D01*
X7493000Y26035000D02*
G75*
G03*
X7493000Y26035000I-127000J0D01*
G01*
%TO.C,R4*%
X16256000Y31750000D02*
X15240000Y31750000D01*
X17272000Y30226000D02*
X18288000Y30226000D01*
X18288000Y31750000D02*
X17272000Y31750000D01*
X15240000Y30226000D02*
X16256000Y30226000D01*
X15240000Y31750000D02*
X15240000Y30226000D01*
X18288000Y30226000D02*
X18288000Y31750000D01*
X18542000Y30226000D02*
G75*
G03*
X18542000Y30226000I-127000J0D01*
G01*
%TO.C,R5*%
X11747500Y30226000D02*
X12763500Y30226000D01*
X11747500Y31750000D02*
X11747500Y30226000D01*
X14795500Y31750000D02*
X13779500Y31750000D01*
X14795500Y30226000D02*
X14795500Y31750000D01*
X12763500Y31750000D02*
X11747500Y31750000D01*
X13779500Y30226000D02*
X14795500Y30226000D01*
X11747500Y31750000D02*
G75*
G03*
X11747500Y31750000I-127000J0D01*
G01*
%TO.C,U1*%
X17080500Y24212000D02*
X17080500Y27387000D01*
X13780500Y24937000D02*
X13780500Y27387000D01*
%TO.C,D4*%
X8001000Y30226000D02*
X6985000Y30226000D01*
X8001000Y27622500D02*
X6985000Y27622500D01*
X8001000Y27622500D02*
X8001000Y30226000D01*
X6985000Y30226000D02*
X6985000Y27622500D01*
X7301550Y27779980D02*
G75*
G03*
X7301550Y27779980I-159070J0D01*
G01*
%TO.C,L1*%
X2286000Y22606000D02*
X2286000Y21590000D01*
X2286000Y19558000D02*
X3810000Y19558000D01*
X2286000Y20574000D02*
X2286000Y19558000D01*
X3810000Y21590000D02*
X3810000Y22606000D01*
X3810000Y19558000D02*
X3810000Y20574000D01*
X3810000Y22606000D02*
X2286000Y22606000D01*
X2413000Y19431000D02*
G75*
G03*
X2413000Y19431000I-127000J0D01*
G01*
%TO.C,C5*%
X3429000Y17145000D02*
X4445000Y17145000D01*
X4445000Y18669000D02*
X3429000Y18669000D01*
X6477000Y17145000D02*
X6477000Y18669000D01*
X5461000Y17145000D02*
X6477000Y17145000D01*
X3429000Y18669000D02*
X3429000Y17145000D01*
X6477000Y18669000D02*
X5461000Y18669000D01*
X6731000Y17145000D02*
G75*
G03*
X6731000Y17145000I-127000J0D01*
G01*
%TO.C,C6*%
X10033000Y22860000D02*
X11049000Y22860000D01*
X11049000Y22860000D02*
X11049000Y24384000D01*
X8001000Y22860000D02*
X9017000Y22860000D01*
X11049000Y24384000D02*
X10033000Y24384000D01*
X8001000Y24384000D02*
X8001000Y22860000D01*
X9017000Y24384000D02*
X8001000Y24384000D01*
X11303000Y22860000D02*
G75*
G03*
X11303000Y22860000I-127000J0D01*
G01*
%TO.C,C7*%
X8636000Y9652000D02*
X8636000Y8636000D01*
X10160000Y11684000D02*
X8636000Y11684000D01*
X8636000Y8636000D02*
X10160000Y8636000D01*
X8636000Y11684000D02*
X8636000Y10668000D01*
X10160000Y8636000D02*
X10160000Y9652000D01*
X10160000Y10668000D02*
X10160000Y11684000D01*
X8763000Y8509000D02*
G75*
G03*
X8763000Y8509000I-127000J0D01*
G01*
%TO.C,C8*%
X10160000Y27051000D02*
X10160000Y28067000D01*
X8636000Y26035000D02*
X8636000Y25019000D01*
X10160000Y28067000D02*
X8636000Y28067000D01*
X10160000Y25019000D02*
X10160000Y26035000D01*
X8636000Y25019000D02*
X10160000Y25019000D01*
X8636000Y28067000D02*
X8636000Y27051000D01*
X8763000Y24892000D02*
G75*
G03*
X8763000Y24892000I-127000J0D01*
G01*
%TO.C,R6*%
X11176000Y14732000D02*
X10160000Y14732000D01*
X10160000Y13208000D02*
X11176000Y13208000D01*
X11176000Y13208000D02*
X11176000Y14732000D01*
X9144000Y14732000D02*
X8128000Y14732000D01*
X8128000Y13208000D02*
X9144000Y13208000D01*
X8128000Y14732000D02*
X8128000Y13208000D01*
X8128000Y14732000D02*
G75*
G03*
X8128000Y14732000I-127000J0D01*
G01*
%TD*%
M02*
