%TF.GenerationSoftware,KiCad,Pcbnew,7.0.5.1-1-g8f565ef7f0-dirty-deb11*%
%TF.CreationDate,2023-07-20T12:00:32+00:00*%
%TF.ProjectId,I2CADC01,49324341-4443-4303-912e-6b696361645f,rev?*%
%TF.SameCoordinates,Original*%
%TF.FileFunction,Copper,L1,Top*%
%TF.FilePolarity,Positive*%
%FSLAX46Y46*%
G04 Gerber Fmt 4.6, Leading zero omitted, Abs format (unit mm)*
G04 Created by KiCad (PCBNEW 7.0.5.1-1-g8f565ef7f0-dirty-deb11) date 2023-07-20 12:00:32*
%MOMM*%
%LPD*%
G01*
G04 APERTURE LIST*
%TA.AperFunction,ComponentPad*%
%ADD10R,1.524000X1.524000*%
%TD*%
%TA.AperFunction,ComponentPad*%
%ADD11C,6.000000*%
%TD*%
%TA.AperFunction,ComponentPad*%
%ADD12R,3.810000X3.810000*%
%TD*%
%TA.AperFunction,ViaPad*%
%ADD13C,0.889000*%
%TD*%
%TA.AperFunction,Conductor*%
%ADD14C,0.500000*%
%TD*%
%TA.AperFunction,Conductor*%
%ADD15C,0.300000*%
%TD*%
%TA.AperFunction,Conductor*%
%ADD16C,0.400000*%
%TD*%
G04 APERTURE END LIST*
D10*
%TO.P,J1,1*%
%TO.N,GND*%
X3810000Y15494000D03*
%TO.P,J1,2*%
X6350000Y15494000D03*
%TO.P,J1,3*%
%TO.N,Net-(C5-Pad2)*%
X3810000Y12954000D03*
%TO.P,J1,4*%
X6350000Y12954000D03*
%TO.P,J1,5*%
%TO.N,GND*%
X3810000Y10414000D03*
%TO.P,J1,6*%
X6350000Y10414000D03*
%TD*%
%TO.P,J3,1*%
%TO.N,GND*%
X22606000Y21082000D03*
%TO.P,J3,2*%
%TO.N,Net-(J3-Pad2)*%
X20066000Y21082000D03*
%TD*%
%TO.P,J5,1*%
%TO.N,VCC*%
X26416000Y26924000D03*
%TO.P,J5,2*%
%TO.N,/CA0*%
X23876000Y26924000D03*
%TD*%
%TO.P,J6,1*%
%TO.N,VCC*%
X26416000Y29464000D03*
%TO.P,J6,2*%
%TO.N,/CA1*%
X23876000Y29464000D03*
%TD*%
%TO.P,J7,1*%
%TO.N,GND*%
X20320000Y36766500D03*
%TO.P,J7,2*%
X20320000Y34226500D03*
%TO.P,J7,3*%
%TO.N,/SDA*%
X17780000Y36766500D03*
%TO.P,J7,4*%
X17780000Y34226500D03*
%TO.P,J7,5*%
%TO.N,VCC*%
X15240000Y36766500D03*
%TO.P,J7,6*%
X15240000Y34226500D03*
%TO.P,J7,7*%
%TO.N,/SCL*%
X12700000Y36766500D03*
%TO.P,J7,8*%
X12700000Y34226500D03*
%TO.P,J7,9*%
%TO.N,GND*%
X10160000Y36766500D03*
%TO.P,J7,10*%
X10160000Y34226500D03*
%TD*%
D11*
%TO.P,M1,1*%
%TO.N,GND*%
X5080000Y35560000D03*
%TD*%
%TO.P,M2,1*%
%TO.N,GND*%
X25400000Y5080000D03*
%TD*%
%TO.P,M3,1*%
%TO.N,GND*%
X25400000Y35560000D03*
%TD*%
%TO.P,M4,1*%
%TO.N,GND*%
X5080000Y5080000D03*
%TD*%
D12*
%TO.P,P1,1*%
%TO.N,Net-(P1-Pad1)*%
X18288000Y5414000D03*
X18288000Y10414000D03*
%TD*%
%TO.P,P2,1*%
%TO.N,Net-(P2-Pad1)*%
X13208000Y10414000D03*
X13208000Y5414000D03*
%TD*%
D10*
%TO.P,J4,1*%
%TO.N,Net-(C8-Pad2)*%
X3873500Y29845000D03*
%TO.P,J4,2*%
%TO.N,Net-(J4-Pad2)*%
X3873500Y27305000D03*
%TO.P,J4,3*%
%TO.N,VCC*%
X3873500Y24765000D03*
%TD*%
%TO.P,J8,1*%
%TO.N,GND*%
X21336000Y26924000D03*
%TO.P,J8,2*%
X21336000Y29464000D03*
%TD*%
D13*
%TO.N,VCC*%
X7757524Y31309999D03*
%TO.N,Net-(J3-Pad2)*%
X15748000Y23177500D03*
%TO.N,/CA0*%
X17653000Y27686000D03*
%TO.N,Net-(J4-Pad2)*%
X20402158Y24041436D03*
%TD*%
D14*
%TO.N,VCC*%
X15240000Y32964500D02*
X16409241Y31795259D01*
X15240000Y32964500D02*
X13585499Y31309999D01*
X15240000Y34226500D02*
X15240000Y32964500D01*
X26027000Y31115000D02*
X17089500Y31115000D01*
X17089500Y31115000D02*
X16409241Y31795259D01*
X12558207Y31309999D02*
X7757524Y31309999D01*
X13585499Y31309999D02*
X12558207Y31309999D01*
X26416000Y30726000D02*
X26027000Y31115000D01*
X26416000Y30726000D02*
X26416000Y29464000D01*
D15*
%TO.N,Net-(J3-Pad2)*%
X15748000Y23177500D02*
X19032500Y23177500D01*
X19032500Y23177500D02*
X20066000Y22144000D01*
X20066000Y22144000D02*
X20066000Y21082000D01*
%TO.N,/CA0*%
X18003001Y28036001D02*
X17653000Y27686000D01*
X23876000Y27986000D02*
X23825999Y28036001D01*
X23876000Y26924000D02*
X23876000Y27986000D01*
X23825999Y28036001D02*
X18003001Y28036001D01*
D16*
%TO.N,Net-(J4-Pad2)*%
X3873500Y27305000D02*
X5035500Y27305000D01*
X5816501Y26523999D02*
X8495526Y26523999D01*
X5035500Y27305000D02*
X5816501Y26523999D01*
X17919595Y26523999D02*
X20402158Y24041436D01*
X8495526Y26523999D02*
X17919595Y26523999D01*
%TD*%
%TA.AperFunction,Conductor*%
%TO.N,GND*%
G36*
X30117621Y40315498D02*
G01*
X30164114Y40261842D01*
X30175500Y40209500D01*
X30175500Y430500D01*
X30155498Y362379D01*
X30101842Y315886D01*
X30049500Y304500D01*
X430500Y304500D01*
X362379Y324502D01*
X315886Y378158D01*
X304500Y430500D01*
X304500Y3460350D01*
X10794500Y3460350D01*
X10801009Y3399803D01*
X10801011Y3399795D01*
X10852110Y3262797D01*
X10852112Y3262792D01*
X10939738Y3145738D01*
X11056792Y3058112D01*
X11056797Y3058110D01*
X11193795Y3007011D01*
X11193803Y3007009D01*
X11254350Y3000500D01*
X11254362Y3000500D01*
X15161649Y3000500D01*
X15222196Y3007009D01*
X15222204Y3007011D01*
X15359202Y3058110D01*
X15359207Y3058112D01*
X15476261Y3145738D01*
X15563887Y3262792D01*
X15563889Y3262797D01*
X15614988Y3399795D01*
X15614990Y3399803D01*
X15621499Y3460350D01*
X15874500Y3460350D01*
X15881009Y3399803D01*
X15881011Y3399795D01*
X15932110Y3262797D01*
X15932112Y3262792D01*
X16019738Y3145738D01*
X16136792Y3058112D01*
X16136797Y3058110D01*
X16273795Y3007011D01*
X16273803Y3007009D01*
X16334350Y3000500D01*
X16334362Y3000500D01*
X20241649Y3000500D01*
X20302196Y3007009D01*
X20302204Y3007011D01*
X20439202Y3058110D01*
X20439207Y3058112D01*
X20556261Y3145738D01*
X20643887Y3262792D01*
X20643889Y3262797D01*
X20694988Y3399795D01*
X20694990Y3399803D01*
X20701499Y3460350D01*
X20701500Y3460367D01*
X20701500Y7367632D01*
X20701499Y7367649D01*
X20694990Y7428196D01*
X20694988Y7428204D01*
X20687960Y7447045D01*
X20643889Y7565204D01*
X20556261Y7682261D01*
X20439204Y7769889D01*
X20369343Y7795945D01*
X20312511Y7838491D01*
X20287700Y7905012D01*
X20302792Y7974386D01*
X20352994Y8024588D01*
X20369334Y8032050D01*
X20439204Y8058111D01*
X20439205Y8058112D01*
X20439208Y8058113D01*
X20556261Y8145738D01*
X20643887Y8262792D01*
X20643889Y8262797D01*
X20694988Y8399795D01*
X20694990Y8399803D01*
X20701499Y8460350D01*
X20701500Y8460367D01*
X20701500Y12367632D01*
X20701499Y12367649D01*
X20694990Y12428196D01*
X20694988Y12428204D01*
X20687960Y12447045D01*
X20643889Y12565204D01*
X20556261Y12682261D01*
X20439204Y12769889D01*
X20302201Y12820989D01*
X20302199Y12820989D01*
X20302196Y12820990D01*
X20241649Y12827499D01*
X20241645Y12827499D01*
X20241638Y12827500D01*
X16334362Y12827500D01*
X16334355Y12827499D01*
X16334350Y12827499D01*
X16273803Y12820990D01*
X16273795Y12820988D01*
X16195875Y12791924D01*
X16136796Y12769889D01*
X16136794Y12769888D01*
X16136792Y12769887D01*
X16019738Y12682261D01*
X15932112Y12565207D01*
X15932110Y12565202D01*
X15881011Y12428204D01*
X15881009Y12428196D01*
X15874500Y12367649D01*
X15874500Y8460350D01*
X15881009Y8399803D01*
X15881011Y8399795D01*
X15932110Y8262797D01*
X15932112Y8262792D01*
X16019738Y8145738D01*
X16136792Y8058112D01*
X16136797Y8058110D01*
X16206653Y8032055D01*
X16263489Y7989508D01*
X16288299Y7922988D01*
X16273207Y7853614D01*
X16223005Y7803412D01*
X16206653Y7795945D01*
X16169676Y7782152D01*
X16136796Y7769889D01*
X16136794Y7769888D01*
X16136792Y7769887D01*
X16019738Y7682261D01*
X15932112Y7565207D01*
X15932110Y7565202D01*
X15881011Y7428204D01*
X15881009Y7428196D01*
X15874500Y7367649D01*
X15874500Y3460350D01*
X15621499Y3460350D01*
X15621500Y3460367D01*
X15621500Y7367632D01*
X15621499Y7367649D01*
X15614990Y7428196D01*
X15614988Y7428204D01*
X15607960Y7447045D01*
X15563889Y7565204D01*
X15476261Y7682261D01*
X15359204Y7769889D01*
X15289343Y7795945D01*
X15232511Y7838491D01*
X15207700Y7905012D01*
X15222792Y7974386D01*
X15272994Y8024588D01*
X15289334Y8032050D01*
X15359204Y8058111D01*
X15359205Y8058112D01*
X15359208Y8058113D01*
X15476261Y8145738D01*
X15563887Y8262792D01*
X15563889Y8262797D01*
X15614988Y8399795D01*
X15614990Y8399803D01*
X15621499Y8460350D01*
X15621500Y8460367D01*
X15621500Y12367632D01*
X15621499Y12367649D01*
X15614990Y12428196D01*
X15614988Y12428204D01*
X15607960Y12447045D01*
X15563889Y12565204D01*
X15476261Y12682261D01*
X15359204Y12769889D01*
X15222201Y12820989D01*
X15222199Y12820989D01*
X15222196Y12820990D01*
X15161649Y12827499D01*
X15161645Y12827499D01*
X15161638Y12827500D01*
X11254362Y12827500D01*
X11254355Y12827499D01*
X11254350Y12827499D01*
X11193803Y12820990D01*
X11193795Y12820988D01*
X11115875Y12791924D01*
X11056796Y12769889D01*
X11056794Y12769888D01*
X11056792Y12769887D01*
X10939738Y12682261D01*
X10852112Y12565207D01*
X10852110Y12565202D01*
X10801011Y12428204D01*
X10801009Y12428196D01*
X10794500Y12367649D01*
X10794500Y8460350D01*
X10801009Y8399803D01*
X10801011Y8399795D01*
X10852110Y8262797D01*
X10852112Y8262792D01*
X10939738Y8145738D01*
X11056792Y8058112D01*
X11056797Y8058110D01*
X11126653Y8032055D01*
X11183489Y7989508D01*
X11208299Y7922988D01*
X11193207Y7853614D01*
X11143005Y7803412D01*
X11126653Y7795945D01*
X11089676Y7782152D01*
X11056796Y7769889D01*
X11056794Y7769888D01*
X11056792Y7769887D01*
X10939738Y7682261D01*
X10852112Y7565207D01*
X10852110Y7565202D01*
X10801011Y7428204D01*
X10801009Y7428196D01*
X10794500Y7367649D01*
X10794500Y3460350D01*
X304500Y3460350D01*
X304500Y12143350D01*
X2539500Y12143350D01*
X2546009Y12082803D01*
X2546011Y12082795D01*
X2597110Y11945797D01*
X2597112Y11945792D01*
X2684738Y11828738D01*
X2801792Y11741112D01*
X2801797Y11741110D01*
X2938795Y11690011D01*
X2938803Y11690009D01*
X2999350Y11683500D01*
X2999362Y11683500D01*
X4620649Y11683500D01*
X4681196Y11690009D01*
X4681204Y11690011D01*
X4818202Y11741110D01*
X4818207Y11741112D01*
X4935261Y11828738D01*
X4979131Y11887342D01*
X5035967Y11929889D01*
X5106782Y11934954D01*
X5169094Y11900928D01*
X5180866Y11887344D01*
X5224739Y11828738D01*
X5341792Y11741112D01*
X5341797Y11741110D01*
X5478795Y11690011D01*
X5478803Y11690009D01*
X5539350Y11683500D01*
X5539362Y11683500D01*
X7160649Y11683500D01*
X7221196Y11690009D01*
X7221204Y11690011D01*
X7358202Y11741110D01*
X7358207Y11741112D01*
X7475261Y11828738D01*
X7562887Y11945792D01*
X7562889Y11945797D01*
X7613988Y12082795D01*
X7613990Y12082803D01*
X7620499Y12143350D01*
X7620500Y12143367D01*
X7620500Y13764632D01*
X7620499Y13764649D01*
X7613990Y13825196D01*
X7613988Y13825204D01*
X7606960Y13844045D01*
X7562889Y13962204D01*
X7475261Y14079261D01*
X7358204Y14166889D01*
X7221201Y14217989D01*
X7221199Y14217989D01*
X7221196Y14217990D01*
X7160649Y14224499D01*
X7160645Y14224499D01*
X7160638Y14224500D01*
X5539362Y14224500D01*
X5539355Y14224499D01*
X5539350Y14224499D01*
X5478803Y14217990D01*
X5478795Y14217988D01*
X5400875Y14188924D01*
X5341796Y14166889D01*
X5341794Y14166888D01*
X5341792Y14166887D01*
X5224738Y14079261D01*
X5180868Y14020657D01*
X5124032Y13978110D01*
X5053216Y13973046D01*
X4990904Y14007071D01*
X4979132Y14020657D01*
X4935261Y14079261D01*
X4818207Y14166887D01*
X4818206Y14166887D01*
X4818204Y14166889D01*
X4681201Y14217989D01*
X4681199Y14217989D01*
X4681196Y14217990D01*
X4620649Y14224499D01*
X4620645Y14224499D01*
X4620638Y14224500D01*
X2999362Y14224500D01*
X2999355Y14224499D01*
X2999350Y14224499D01*
X2938803Y14217990D01*
X2938795Y14217988D01*
X2860875Y14188924D01*
X2801796Y14166889D01*
X2801794Y14166888D01*
X2801792Y14166887D01*
X2684738Y14079261D01*
X2597112Y13962207D01*
X2597110Y13962202D01*
X2546011Y13825204D01*
X2546009Y13825196D01*
X2539500Y13764649D01*
X2539500Y12143350D01*
X304500Y12143350D01*
X304500Y23954350D01*
X2603000Y23954350D01*
X2609509Y23893803D01*
X2609511Y23893795D01*
X2660610Y23756797D01*
X2660612Y23756792D01*
X2748238Y23639738D01*
X2865292Y23552112D01*
X2865297Y23552110D01*
X3002295Y23501011D01*
X3002303Y23501009D01*
X3062850Y23494500D01*
X3062862Y23494500D01*
X4684149Y23494500D01*
X4744696Y23501009D01*
X4744704Y23501011D01*
X4881702Y23552110D01*
X4881707Y23552112D01*
X4998761Y23639738D01*
X5086387Y23756792D01*
X5086389Y23756797D01*
X5096069Y23782748D01*
X5111371Y23823774D01*
X5137488Y23893795D01*
X5137490Y23893803D01*
X5143999Y23954350D01*
X5144000Y23954367D01*
X5144000Y25575632D01*
X5143999Y25575649D01*
X5137490Y25636196D01*
X5137488Y25636204D01*
X5109549Y25711110D01*
X5086389Y25773204D01*
X5067274Y25798738D01*
X4998761Y25890261D01*
X4940157Y25934132D01*
X4897610Y25990968D01*
X4892546Y26061784D01*
X4926571Y26124096D01*
X4940157Y26135868D01*
X5002877Y26182820D01*
X5069397Y26207631D01*
X5138771Y26192540D01*
X5167481Y26171047D01*
X5299019Y26039510D01*
X5301627Y26036739D01*
X5343227Y25989783D01*
X5394840Y25954156D01*
X5397903Y25951902D01*
X5447273Y25913225D01*
X5447278Y25913222D01*
X5456576Y25909037D01*
X5476427Y25897841D01*
X5484821Y25892047D01*
X5484827Y25892044D01*
X5543471Y25869803D01*
X5546986Y25868347D01*
X5604166Y25842613D01*
X5604178Y25842609D01*
X5614207Y25840771D01*
X5636154Y25834653D01*
X5645696Y25831035D01*
X5645698Y25831034D01*
X5645700Y25831034D01*
X5681963Y25826630D01*
X5707959Y25823473D01*
X5711717Y25822901D01*
X5773406Y25811598D01*
X5773407Y25811598D01*
X5773408Y25811598D01*
X5836003Y25815384D01*
X5839803Y25815499D01*
X8452667Y25815499D01*
X17573935Y25815499D01*
X17642056Y25795497D01*
X17663025Y25778598D01*
X19033722Y24407901D01*
X19417514Y24024109D01*
X19451539Y23961797D01*
X19453811Y23947363D01*
X19456410Y23920972D01*
X19443181Y23851219D01*
X19394340Y23799691D01*
X19325395Y23782748D01*
X19285146Y23794076D01*
X19284208Y23791706D01*
X19276842Y23794621D01*
X19276837Y23794624D01*
X19256062Y23799957D01*
X19237369Y23806356D01*
X19217676Y23814880D01*
X19169091Y23822574D01*
X19163310Y23823771D01*
X19115688Y23836000D01*
X19115686Y23836000D01*
X19094241Y23836000D01*
X19074532Y23837550D01*
X19053348Y23840906D01*
X19016500Y23837422D01*
X19004406Y23836280D01*
X18998473Y23836000D01*
X16492921Y23836000D01*
X16424800Y23856002D01*
X16412988Y23864601D01*
X16303627Y23954350D01*
X16280023Y23973721D01*
X16280023Y23973722D01*
X16280021Y23973723D01*
X16280020Y23973724D01*
X16114462Y24062217D01*
X15934821Y24116711D01*
X15934815Y24116711D01*
X15934814Y24116712D01*
X15748003Y24135111D01*
X15747997Y24135111D01*
X15561186Y24116712D01*
X15561184Y24116712D01*
X15561181Y24116711D01*
X15561179Y24116711D01*
X15381538Y24062217D01*
X15215980Y23973724D01*
X15070867Y23854633D01*
X14990571Y23756792D01*
X14951776Y23709520D01*
X14863284Y23543965D01*
X14863282Y23543959D01*
X14808787Y23364315D01*
X14808787Y23364313D01*
X14790389Y23177503D01*
X14790389Y23177496D01*
X14808787Y22990686D01*
X14808787Y22990684D01*
X14863282Y22811040D01*
X14863284Y22811034D01*
X14951776Y22645479D01*
X15070867Y22500367D01*
X15215979Y22381276D01*
X15381534Y22292784D01*
X15381540Y22292782D01*
X15561185Y22238287D01*
X15747997Y22219889D01*
X15748000Y22219889D01*
X15748003Y22219889D01*
X15934813Y22238287D01*
X15934815Y22238287D01*
X16114459Y22292782D01*
X16114465Y22292784D01*
X16280023Y22381277D01*
X16280023Y22381278D01*
X16412988Y22490399D01*
X16478335Y22518153D01*
X16492921Y22519000D01*
X18707549Y22519000D01*
X18775670Y22498998D01*
X18796645Y22482095D01*
X18919508Y22359230D01*
X18953533Y22296917D01*
X18948467Y22226102D01*
X18931280Y22194626D01*
X18853112Y22090207D01*
X18853110Y22090202D01*
X18802011Y21953204D01*
X18802009Y21953196D01*
X18795500Y21892649D01*
X18795500Y20271350D01*
X18802009Y20210803D01*
X18802011Y20210795D01*
X18853110Y20073797D01*
X18853112Y20073792D01*
X18940738Y19956738D01*
X19057792Y19869112D01*
X19057797Y19869110D01*
X19194795Y19818011D01*
X19194803Y19818009D01*
X19255350Y19811500D01*
X19255362Y19811500D01*
X20876649Y19811500D01*
X20937196Y19818009D01*
X20937204Y19818011D01*
X21074202Y19869110D01*
X21074207Y19869112D01*
X21191261Y19956738D01*
X21278887Y20073792D01*
X21278889Y20073797D01*
X21329988Y20210795D01*
X21329990Y20210803D01*
X21336499Y20271350D01*
X21336500Y20271367D01*
X21336500Y21892632D01*
X21336499Y21892649D01*
X21329990Y21953196D01*
X21329988Y21953204D01*
X21322960Y21972045D01*
X21278889Y22090204D01*
X21191261Y22207261D01*
X21174392Y22219889D01*
X21074207Y22294887D01*
X21074206Y22294887D01*
X21074204Y22294889D01*
X20937201Y22345989D01*
X20937199Y22345989D01*
X20937196Y22345990D01*
X20876649Y22352499D01*
X20876645Y22352499D01*
X20876638Y22352500D01*
X20876632Y22352500D01*
X20779600Y22352500D01*
X20711479Y22372502D01*
X20671151Y22414354D01*
X20664233Y22426050D01*
X20655529Y22443816D01*
X20647635Y22463756D01*
X20618730Y22503537D01*
X20615480Y22508487D01*
X20609263Y22519000D01*
X20590453Y22550807D01*
X20575281Y22565977D01*
X20562444Y22581009D01*
X20549845Y22598351D01*
X20549841Y22598357D01*
X20511950Y22629702D01*
X20507588Y22633670D01*
X20268775Y22872483D01*
X20234751Y22934793D01*
X20239816Y23005608D01*
X20282363Y23062444D01*
X20348883Y23087255D01*
X20370218Y23086970D01*
X20398539Y23084181D01*
X20402158Y23083825D01*
X20402159Y23083825D01*
X20402161Y23083825D01*
X20588971Y23102223D01*
X20588973Y23102223D01*
X20768617Y23156718D01*
X20768623Y23156720D01*
X20934178Y23245212D01*
X21079291Y23364303D01*
X21198382Y23509416D01*
X21286875Y23674974D01*
X21341369Y23854615D01*
X21341369Y23854617D01*
X21341370Y23854620D01*
X21341370Y23854622D01*
X21359769Y24041432D01*
X21359769Y24041439D01*
X21341370Y24228249D01*
X21341370Y24228251D01*
X21341369Y24228252D01*
X21341369Y24228257D01*
X21286875Y24407898D01*
X21198382Y24573456D01*
X21079291Y24718569D01*
X20934178Y24837660D01*
X20768620Y24926153D01*
X20588979Y24980647D01*
X20496225Y24989781D01*
X20430398Y25016362D01*
X20419492Y25026070D01*
X18458916Y26986646D01*
X18424892Y27048956D01*
X18429957Y27119771D01*
X18446427Y27148400D01*
X18445784Y27148831D01*
X18449222Y27153976D01*
X18533098Y27310897D01*
X18582850Y27361545D01*
X18644220Y27377501D01*
X22479500Y27377501D01*
X22547621Y27357499D01*
X22594114Y27303843D01*
X22605500Y27251501D01*
X22605500Y26113350D01*
X22612009Y26052803D01*
X22612011Y26052795D01*
X22663110Y25915797D01*
X22663112Y25915792D01*
X22750738Y25798738D01*
X22867792Y25711112D01*
X22867797Y25711110D01*
X23004795Y25660011D01*
X23004803Y25660009D01*
X23065350Y25653500D01*
X23065362Y25653500D01*
X24686649Y25653500D01*
X24747196Y25660009D01*
X24747204Y25660011D01*
X24884202Y25711110D01*
X24884207Y25711112D01*
X25001261Y25798739D01*
X25045133Y25857343D01*
X25101969Y25899889D01*
X25172784Y25904953D01*
X25235096Y25870928D01*
X25246867Y25857343D01*
X25290738Y25798739D01*
X25407792Y25711112D01*
X25407797Y25711110D01*
X25544795Y25660011D01*
X25544803Y25660009D01*
X25605350Y25653500D01*
X25605362Y25653500D01*
X27226649Y25653500D01*
X27287196Y25660009D01*
X27287204Y25660011D01*
X27424202Y25711110D01*
X27424207Y25711112D01*
X27541261Y25798738D01*
X27628887Y25915792D01*
X27628889Y25915797D01*
X27679988Y26052795D01*
X27679990Y26052803D01*
X27686499Y26113350D01*
X27686500Y26113367D01*
X27686500Y27734632D01*
X27686499Y27734649D01*
X27679990Y27795196D01*
X27679988Y27795204D01*
X27651038Y27872821D01*
X27628889Y27932204D01*
X27625332Y27936955D01*
X27541261Y28049261D01*
X27482657Y28093132D01*
X27440110Y28149968D01*
X27435046Y28220784D01*
X27469071Y28283096D01*
X27482657Y28294868D01*
X27541261Y28338738D01*
X27628887Y28455792D01*
X27628889Y28455797D01*
X27679988Y28592795D01*
X27679990Y28592803D01*
X27686499Y28653350D01*
X27686500Y28653367D01*
X27686500Y30274632D01*
X27686499Y30274649D01*
X27679990Y30335196D01*
X27679988Y30335204D01*
X27666716Y30370786D01*
X27628889Y30472204D01*
X27587561Y30527411D01*
X27541261Y30589261D01*
X27424207Y30676887D01*
X27424206Y30676887D01*
X27424204Y30676889D01*
X27287201Y30727989D01*
X27279204Y30728848D01*
X27213613Y30756014D01*
X27173119Y30814331D01*
X27167148Y30843147D01*
X27163887Y30880427D01*
X27163885Y30880430D01*
X27162402Y30887619D01*
X27162470Y30887633D01*
X27160841Y30894981D01*
X27160773Y30894965D01*
X27159079Y30902109D01*
X27159079Y30902113D01*
X27132826Y30974241D01*
X27132246Y30975911D01*
X27108114Y31048738D01*
X27108107Y31048748D01*
X27105010Y31055393D01*
X27105072Y31055422D01*
X27101789Y31062203D01*
X27101729Y31062173D01*
X27098437Y31068724D01*
X27098435Y31068732D01*
X27056240Y31132883D01*
X27055307Y31134348D01*
X27015030Y31199651D01*
X27015021Y31199659D01*
X27010477Y31205408D01*
X27010531Y31205450D01*
X27005775Y31211289D01*
X27005723Y31211246D01*
X27001007Y31216864D01*
X27001001Y31216874D01*
X26945147Y31269568D01*
X26943913Y31270766D01*
X26608901Y31605778D01*
X26596941Y31619617D01*
X26582469Y31639058D01*
X26542015Y31673001D01*
X26537979Y31676700D01*
X26532101Y31682580D01*
X26506753Y31702621D01*
X26505461Y31703674D01*
X26446640Y31753032D01*
X26446637Y31753033D01*
X26446633Y31753037D01*
X26440508Y31757066D01*
X26440545Y31757122D01*
X26434187Y31761173D01*
X26434151Y31761115D01*
X26427901Y31764970D01*
X26358376Y31797389D01*
X26356741Y31798179D01*
X26288188Y31832609D01*
X26288181Y31832610D01*
X26281291Y31835119D01*
X26281314Y31835184D01*
X26274197Y31837658D01*
X26274176Y31837594D01*
X26267207Y31839903D01*
X26249057Y31843650D01*
X26191994Y31855432D01*
X26190312Y31855805D01*
X26115656Y31873500D01*
X26115655Y31873500D01*
X26108368Y31874352D01*
X26108375Y31874419D01*
X26100877Y31875185D01*
X26100872Y31875119D01*
X26093566Y31875757D01*
X26093558Y31875759D01*
X26047543Y31874420D01*
X26016825Y31873527D01*
X26014993Y31873500D01*
X17455871Y31873500D01*
X17387750Y31893502D01*
X17366780Y31910400D01*
X16914342Y32362839D01*
X16914341Y32362839D01*
X16359694Y32917485D01*
X16325670Y32979795D01*
X16330735Y33050610D01*
X16359696Y33095673D01*
X16365260Y33101237D01*
X16409133Y33159843D01*
X16465969Y33202389D01*
X16536784Y33207453D01*
X16599096Y33173428D01*
X16610867Y33159843D01*
X16654738Y33101239D01*
X16771792Y33013612D01*
X16771797Y33013610D01*
X16908795Y32962511D01*
X16908803Y32962509D01*
X16969350Y32956000D01*
X16969362Y32956000D01*
X18590649Y32956000D01*
X18651196Y32962509D01*
X18651204Y32962511D01*
X18788202Y33013610D01*
X18788207Y33013612D01*
X18905261Y33101238D01*
X18992887Y33218292D01*
X18992889Y33218297D01*
X19043988Y33355295D01*
X19043990Y33355303D01*
X19050499Y33415850D01*
X19050500Y33415867D01*
X19050500Y35037132D01*
X19050499Y35037149D01*
X19043990Y35097696D01*
X19043988Y35097704D01*
X19036960Y35116545D01*
X18992889Y35234704D01*
X18905261Y35351761D01*
X18905260Y35351761D01*
X18846657Y35395632D01*
X18804110Y35452468D01*
X18799046Y35523284D01*
X18833071Y35585596D01*
X18846657Y35597368D01*
X18905261Y35641238D01*
X18992887Y35758292D01*
X18992889Y35758297D01*
X19043988Y35895295D01*
X19043990Y35895303D01*
X19050499Y35955850D01*
X19050500Y35955867D01*
X19050500Y37577132D01*
X19050499Y37577149D01*
X19043990Y37637696D01*
X19043988Y37637704D01*
X19036960Y37656545D01*
X18992889Y37774704D01*
X18905261Y37891761D01*
X18788204Y37979389D01*
X18651201Y38030489D01*
X18651199Y38030489D01*
X18651196Y38030490D01*
X18590649Y38036999D01*
X18590645Y38036999D01*
X18590638Y38037000D01*
X16969362Y38037000D01*
X16969355Y38036999D01*
X16969350Y38036999D01*
X16908803Y38030490D01*
X16908795Y38030488D01*
X16830875Y38001424D01*
X16771796Y37979389D01*
X16771794Y37979388D01*
X16771792Y37979387D01*
X16654737Y37891760D01*
X16610866Y37833156D01*
X16554030Y37790610D01*
X16483214Y37785546D01*
X16420902Y37819572D01*
X16409132Y37833156D01*
X16365261Y37891761D01*
X16248204Y37979389D01*
X16111201Y38030489D01*
X16111199Y38030489D01*
X16111196Y38030490D01*
X16050649Y38036999D01*
X16050645Y38036999D01*
X16050638Y38037000D01*
X14429362Y38037000D01*
X14429355Y38036999D01*
X14429350Y38036999D01*
X14368803Y38030490D01*
X14368795Y38030488D01*
X14290875Y38001424D01*
X14231796Y37979389D01*
X14231794Y37979388D01*
X14231792Y37979387D01*
X14114737Y37891760D01*
X14070866Y37833156D01*
X14014030Y37790610D01*
X13943214Y37785546D01*
X13880902Y37819572D01*
X13869132Y37833156D01*
X13825261Y37891761D01*
X13708204Y37979389D01*
X13571201Y38030489D01*
X13571199Y38030489D01*
X13571196Y38030490D01*
X13510649Y38036999D01*
X13510645Y38036999D01*
X13510638Y38037000D01*
X11889362Y38037000D01*
X11889355Y38036999D01*
X11889350Y38036999D01*
X11828803Y38030490D01*
X11828795Y38030488D01*
X11750875Y38001424D01*
X11691796Y37979389D01*
X11691794Y37979388D01*
X11691792Y37979387D01*
X11574738Y37891761D01*
X11487112Y37774707D01*
X11487110Y37774702D01*
X11436011Y37637704D01*
X11436009Y37637696D01*
X11429500Y37577149D01*
X11429500Y35955850D01*
X11436009Y35895303D01*
X11436011Y35895295D01*
X11487110Y35758297D01*
X11487112Y35758292D01*
X11574739Y35641238D01*
X11633343Y35597367D01*
X11675889Y35540531D01*
X11680953Y35469716D01*
X11646928Y35407404D01*
X11633343Y35395633D01*
X11574739Y35351761D01*
X11487112Y35234707D01*
X11487110Y35234702D01*
X11436011Y35097704D01*
X11436009Y35097696D01*
X11429500Y35037149D01*
X11429500Y33415850D01*
X11436009Y33355303D01*
X11436011Y33355295D01*
X11487110Y33218297D01*
X11487112Y33218292D01*
X11574738Y33101238D01*
X11691792Y33013612D01*
X11691797Y33013610D01*
X11828795Y32962511D01*
X11828803Y32962509D01*
X11889350Y32956000D01*
X11889362Y32956000D01*
X13510649Y32956000D01*
X13571196Y32962509D01*
X13571204Y32962511D01*
X13708202Y33013610D01*
X13708207Y33013612D01*
X13825261Y33101238D01*
X13869131Y33159842D01*
X13925967Y33202389D01*
X13996782Y33207454D01*
X14059094Y33173428D01*
X14070866Y33159844D01*
X14114741Y33101235D01*
X14120303Y33095674D01*
X14154329Y33033362D01*
X14149264Y32962547D01*
X14120303Y32917484D01*
X13308223Y32105404D01*
X13245911Y32071378D01*
X13219128Y32068499D01*
X8380594Y32068499D01*
X8312473Y32088501D01*
X8300659Y32097101D01*
X8289544Y32106223D01*
X8123986Y32194716D01*
X7944345Y32249210D01*
X7944339Y32249210D01*
X7944338Y32249211D01*
X7757527Y32267610D01*
X7757521Y32267610D01*
X7570710Y32249211D01*
X7570708Y32249211D01*
X7570705Y32249210D01*
X7570703Y32249210D01*
X7391062Y32194716D01*
X7225504Y32106223D01*
X7080391Y31987132D01*
X6987890Y31874419D01*
X6961300Y31842019D01*
X6872808Y31676464D01*
X6872806Y31676458D01*
X6818311Y31496814D01*
X6818311Y31496812D01*
X6799913Y31310002D01*
X6799913Y31309995D01*
X6818311Y31123185D01*
X6818311Y31123183D01*
X6872806Y30943539D01*
X6872808Y30943533D01*
X6961300Y30777978D01*
X7080391Y30632866D01*
X7225503Y30513775D01*
X7391058Y30425283D01*
X7391064Y30425281D01*
X7570709Y30370786D01*
X7757521Y30352388D01*
X7757524Y30352388D01*
X7757527Y30352388D01*
X7944337Y30370786D01*
X7944339Y30370786D01*
X8123983Y30425281D01*
X8123989Y30425283D01*
X8289544Y30513775D01*
X8300659Y30522897D01*
X8366006Y30550652D01*
X8380594Y30551499D01*
X12469551Y30551499D01*
X13521058Y30551499D01*
X13539318Y30550169D01*
X13563287Y30546658D01*
X13563288Y30546658D01*
X13572032Y30547423D01*
X13615884Y30551259D01*
X13621377Y30551499D01*
X13629684Y30551499D01*
X13661698Y30555241D01*
X13663514Y30555426D01*
X13681590Y30557008D01*
X13739918Y30562111D01*
X13739921Y30562111D01*
X13739925Y30562112D01*
X13739928Y30562113D01*
X13747105Y30563595D01*
X13747118Y30563530D01*
X13754488Y30565164D01*
X13754474Y30565228D01*
X13761614Y30566920D01*
X13797407Y30579948D01*
X13833746Y30593174D01*
X13835433Y30593760D01*
X13908235Y30617884D01*
X13914887Y30620986D01*
X13914915Y30620925D01*
X13921701Y30624210D01*
X13921672Y30624269D01*
X13928229Y30627562D01*
X13992349Y30669735D01*
X13993895Y30670720D01*
X14059150Y30710969D01*
X14059152Y30710971D01*
X14064907Y30715521D01*
X14064949Y30715467D01*
X14070791Y30720227D01*
X14070749Y30720278D01*
X14076371Y30724996D01*
X14129039Y30780821D01*
X14130316Y30782135D01*
X14619015Y31270834D01*
X15150906Y31802725D01*
X15213216Y31836749D01*
X15284031Y31831685D01*
X15329094Y31802724D01*
X15810211Y31321608D01*
X16507595Y30624222D01*
X16519563Y30610373D01*
X16534025Y30590948D01*
X16534033Y30590939D01*
X16574469Y30557008D01*
X16578515Y30553302D01*
X16584395Y30547423D01*
X16609701Y30527411D01*
X16611118Y30526257D01*
X16669864Y30476965D01*
X16675991Y30472935D01*
X16675955Y30472881D01*
X16682320Y30468827D01*
X16682354Y30468882D01*
X16688593Y30465033D01*
X16758116Y30432613D01*
X16759764Y30431816D01*
X16828308Y30397392D01*
X16835204Y30394883D01*
X16835181Y30394821D01*
X16842313Y30392342D01*
X16842334Y30392403D01*
X16849295Y30390095D01*
X16924466Y30374573D01*
X16926253Y30374177D01*
X17000843Y30356500D01*
X17008134Y30355648D01*
X17008126Y30355580D01*
X17015623Y30354814D01*
X17015629Y30354881D01*
X17022942Y30354241D01*
X17022943Y30354241D01*
X17026146Y30354334D01*
X17099676Y30356473D01*
X17101508Y30356500D01*
X22479500Y30356500D01*
X22547621Y30336498D01*
X22594114Y30282842D01*
X22605500Y30230500D01*
X22605500Y28820501D01*
X22585498Y28752380D01*
X22531842Y28705887D01*
X22479500Y28694501D01*
X18089612Y28694501D01*
X18073380Y28696292D01*
X18073357Y28696043D01*
X18065464Y28696789D01*
X17993643Y28694532D01*
X17991664Y28694501D01*
X17961569Y28694501D01*
X17954221Y28693572D01*
X17948317Y28693107D01*
X17899170Y28691563D01*
X17878577Y28685580D01*
X17859219Y28681572D01*
X17845972Y28679898D01*
X17837937Y28678883D01*
X17792209Y28660778D01*
X17786620Y28658864D01*
X17739401Y28645146D01*
X17739399Y28645145D01*
X17736907Y28644421D01*
X17689404Y28640025D01*
X17653000Y28643611D01*
X17652999Y28643610D01*
X17652999Y28643611D01*
X17652997Y28643611D01*
X17466186Y28625212D01*
X17466184Y28625212D01*
X17466181Y28625211D01*
X17466179Y28625211D01*
X17286538Y28570717D01*
X17120980Y28482224D01*
X16975867Y28363133D01*
X16883933Y28251111D01*
X16856776Y28218020D01*
X16768284Y28052465D01*
X16768282Y28052459D01*
X16713787Y27872815D01*
X16713787Y27872813D01*
X16695389Y27686003D01*
X16695389Y27685996D01*
X16713787Y27499186D01*
X16713789Y27499178D01*
X16745369Y27395076D01*
X16746003Y27324082D01*
X16708155Y27264015D01*
X16643840Y27233947D01*
X16624795Y27232499D01*
X6162162Y27232499D01*
X6094041Y27252501D01*
X6073067Y27269403D01*
X5947394Y27395076D01*
X5552957Y27789511D01*
X5550388Y27792239D01*
X5508773Y27839215D01*
X5457121Y27874867D01*
X5454136Y27877063D01*
X5404726Y27915775D01*
X5395422Y27919961D01*
X5375566Y27931161D01*
X5367175Y27936954D01*
X5308509Y27959202D01*
X5305052Y27960634D01*
X5247829Y27986389D01*
X5247300Y27986486D01*
X5246946Y27986664D01*
X5240546Y27988659D01*
X5240877Y27989722D01*
X5183898Y28018433D01*
X5147832Y28079586D01*
X5144000Y28110424D01*
X5144000Y28115632D01*
X5143999Y28115649D01*
X5137490Y28176196D01*
X5137488Y28176204D01*
X5114427Y28238031D01*
X5086389Y28313204D01*
X5067274Y28338738D01*
X4998761Y28430261D01*
X4940157Y28474132D01*
X4897610Y28530968D01*
X4892546Y28601784D01*
X4926571Y28664096D01*
X4940157Y28675868D01*
X4998761Y28719738D01*
X5086387Y28836792D01*
X5086389Y28836797D01*
X5137488Y28973795D01*
X5137490Y28973803D01*
X5143999Y29034350D01*
X5144000Y29034367D01*
X5144000Y30655632D01*
X5143999Y30655649D01*
X5137490Y30716196D01*
X5137488Y30716204D01*
X5122639Y30756014D01*
X5086389Y30853204D01*
X5058076Y30891025D01*
X4998761Y30970261D01*
X4881707Y31057887D01*
X4881706Y31057887D01*
X4881704Y31057889D01*
X4744701Y31108989D01*
X4744699Y31108989D01*
X4744696Y31108990D01*
X4684149Y31115499D01*
X4684145Y31115499D01*
X4684138Y31115500D01*
X3062862Y31115500D01*
X3062855Y31115499D01*
X3062850Y31115499D01*
X3002303Y31108990D01*
X3002295Y31108988D01*
X2924375Y31079924D01*
X2865296Y31057889D01*
X2865294Y31057888D01*
X2865292Y31057887D01*
X2748238Y30970261D01*
X2660612Y30853207D01*
X2660610Y30853202D01*
X2609511Y30716204D01*
X2609509Y30716196D01*
X2603000Y30655649D01*
X2603000Y29034350D01*
X2609509Y28973803D01*
X2609511Y28973795D01*
X2660610Y28836797D01*
X2660612Y28836792D01*
X2748239Y28719738D01*
X2806843Y28675867D01*
X2849389Y28619031D01*
X2854453Y28548216D01*
X2820428Y28485904D01*
X2806843Y28474133D01*
X2748239Y28430261D01*
X2660612Y28313207D01*
X2660610Y28313202D01*
X2609511Y28176204D01*
X2609509Y28176196D01*
X2603000Y28115649D01*
X2603000Y26494350D01*
X2609509Y26433803D01*
X2609511Y26433795D01*
X2660610Y26296797D01*
X2660612Y26296792D01*
X2748239Y26179738D01*
X2806843Y26135867D01*
X2849389Y26079031D01*
X2854453Y26008216D01*
X2820428Y25945904D01*
X2806843Y25934133D01*
X2748239Y25890261D01*
X2660612Y25773207D01*
X2660610Y25773202D01*
X2609511Y25636204D01*
X2609509Y25636196D01*
X2603000Y25575649D01*
X2603000Y23954350D01*
X304500Y23954350D01*
X304500Y40209500D01*
X324502Y40277621D01*
X378158Y40324114D01*
X430500Y40335500D01*
X30049500Y40335500D01*
X30117621Y40315498D01*
G37*
%TD.AperFunction*%
%TD*%
M02*
